<svg width="244" height="178" fill="none" xmlns="http://www.w3.org/2000/svg"><path d="m141.612 99.058 1.552 9.29 10.494 56.665h1.691l-7.633-56.665-1.128-9.29h-4.976Z" fill="#FEE3C5"/><path d="M146.588 99.058h-4.976l1.552 9.29h4.552l-1.128-9.29Z" fill="#666"/><path d="M108.667 165.013h1.691l10.494-56.665 1.546-9.29h-4.976l-1.128 9.29-7.627 56.665Z" fill="#FEE3C5"/><path d="m117.422 99.058-1.128 9.29h4.558l1.546-9.29h-4.976Z" fill="#666"/><path d="M77.192 165.013h1.692l10.493-56.665 1.553-9.29h-4.977l-1.128 9.29-7.633 56.665Z" fill="#999"/><path d="M84.825 108.348h4.552l1.552-9.29h-4.976l-1.128 9.29Z" fill="#666"/><path d="M79.878 103.424h76.884V95.32h-28.783l-9.674-56.275H82.808l-2.93 64.379Z" fill="#FEE3C5"/><path opacity=".2" d="m141.612 99.058 1.552 9.29 10.494 56.665h1.691l-7.633-56.665-1.128-9.29h-4.976ZM108.667 165.013h1.691l10.494-56.665 1.546-9.29h-4.976l-1.128 9.29-7.627 56.665Z" fill="#000"/><path opacity=".2" d="M79.878 103.424h76.884V95.32h-28.783l-9.674-56.275H82.808l-2.93 64.379Z" fill="#000"/><path d="M79.878 103.424h4.192l2.726-64.38h-3.988l-2.93 64.38Z" fill="#666"/><path d="M149.978 136.253H82.68v1.727h67.298v-1.727Z" fill="#999"/><path d="M148.024 137.363c-.976.274-28.445-1.191-29.457-1.912-.384-.268-.407-4.279-.291-9.127 0-1.047.053-2.128.093-3.227.239-7.127.663-14.685.663-14.685l18.371.924-1.163 14.662-.256 3.215s10.267 5.267 11.296 6.174 1.721 3.709.744 3.976Z" fill="#FFD3C9"/><path d="M148.024 137.363c-.976.274-28.445-1.191-29.457-1.912-.465-.332-.401-6.186-.197-12.354l17.87.901-.255 3.215s10.266 5.267 11.295 6.174 1.721 3.709.744 3.976Z" fill="#fff"/><path d="M148.024 137.363c-.976.274-28.445-1.191-29.457-1.912-.384-.268-.407-4.279-.291-9.127l17.708.889s10.267 5.267 11.296 6.174 1.721 3.709.744 3.976Z" fill="#fff"/><path d="M147.687 136.247c-4.598-.36-23.178-1.372-27.748-1.378-.04 0-.04.03 0 .03 4.552.453 23.138 1.313 27.748 1.424.093 0 .099-.07 0-.076ZM145.565 132.3a3.69 3.69 0 0 0-2.814.982 3.555 3.555 0 0 0-1.162 2.401c0 .029.052.029.058 0a4.268 4.268 0 0 1 1.402-2.314 4.272 4.272 0 0 1 2.51-1.011.033.033 0 0 0 .022-.006.03.03 0 0 0 .01-.02.029.029 0 0 0-.006-.022.03.03 0 0 0-.02-.01ZM137.746 127.765c-1.837-.122-4.011.413-5.232 1.861-.047.058.035.122.093.098a25.121 25.121 0 0 1 5.168-1.744.114.114 0 0 0 .048-.049c.011-.021.015-.045.011-.068a.118.118 0 0 0-.029-.063.118.118 0 0 0-.059-.035ZM139.141 128.399c-1.843-.128-4.011.413-5.232 1.86-.046.053.035.122.087.093a25.743 25.743 0 0 1 5.169-1.744.111.111 0 0 0 .043-.048.11.11 0 0 0 .011-.064.118.118 0 0 0-.024-.06.12.12 0 0 0-.054-.037ZM140.548 129.027c-1.843-.122-4.017.413-5.232 1.86-.053.058 0 .122.087.099a25.547 25.547 0 0 1 5.168-1.744.12.12 0 0 0 .049-.048.116.116 0 0 0-.072-.167ZM141.926 129.661c-1.843-.128-4.011.412-5.232 1.854-.047.058.035.122.087.099a25.6 25.6 0 0 1 5.174-1.744.113.113 0 0 0 .043-.049.122.122 0 0 0 .01-.065.116.116 0 0 0-.082-.095ZM121.363 130.562c-2.063-.105-2.232 3.11-.157 3.209 2.076.099 2.21-3.105.157-3.209Z" fill="#000"/><path d="M140.002 122.958c-.89-.826-2.105-.134-2.727.639a9.674 9.674 0 0 0-1.925 4.645.05.05 0 0 0 .03.033c.008.002.015.003.023.002.035.134.186.256.326.169 1.36-.838 2.906-1.564 3.982-2.797.622-.721 1.134-1.912.291-2.691Zm-2.471 3.796c-.657.424-1.337.819-1.977 1.273.341-.911.729-1.804 1.163-2.674.217-.421.464-.825.738-1.209.43-.582 2.326-2.029 2.401 0 .064 1.092-1.54 2.098-2.325 2.61Z" fill="#000"/><path d="M130.735 128.661c1.593.331 3.273-.035 4.86-.198a.223.223 0 0 0 .185-.225.225.225 0 0 0-.028-.101.057.057 0 0 0 0-.081 9.654 9.654 0 0 0-4.337-2.5c-.965-.244-2.325-.052-2.558 1.163-.232 1.215.948 1.75 1.878 1.942Zm-1.058-1.111c-1.163-1.645 1.221-1.645 1.918-1.442.452.138.893.309 1.32.512.88.425 1.737.895 2.57 1.407-.791.029-1.564.128-2.326.186-.959.07-2.837.25-3.482-.663Z" fill="#000"/><path d="m137.397 122.83-6.61-.111-13.104-.18s1.559-17.173.826-19.871c-.732-2.697-14.627-7.366-16.778-10.284-2.15-2.918-2.517-12.43-2.517-12.43h14.946s.919 2.163 1.117 2.722c.197.558 17.929 8.371 20.83 13.167 2.697 4.523 1.29 26.987 1.29 26.987Z" fill="#FEE3C5"/><path d="M137.013 118.237c-1.232-.029-2.476 0-3.714-.029-1.239-.029-2.477 0-3.715 0-2.477 0-4.948.046-7.424.081-1.395 0-2.797.029-4.192 0-.058 0-.052.087 0 .087 2.483.105 4.959.274 7.436.326 2.476.052 4.953 0 7.424-.11 1.395-.076 2.802-.14 4.191-.268a.042.042 0 0 0 .03-.015.04.04 0 0 0 .011-.031.042.042 0 0 0-.015-.03.042.042 0 0 0-.032-.011Z" fill="#000"/><path d="M131.95 143.648c-1 .186-28.242-3.593-29.19-4.389-.36-.303-.041-4.302.477-9.128.116-1.04.238-2.116.366-3.203.843-7.087 1.895-14.58 1.895-14.58l18.237 2.471-2.401 14.533-.523 3.186s9.784 6.11 10.732 7.104c.947.994 1.401 3.802.407 4.006Z" fill="#FFD3C9"/><path d="M131.95 143.648c-1 .186-28.242-3.593-29.19-4.389-.436-.372.122-6.198.843-12.331l17.731 2.401-.523 3.186s9.784 6.11 10.732 7.104c.948.994 1.401 3.825.407 4.029Z" fill="#fff"/><path d="M131.95 143.648c-1 .186-28.242-3.593-29.19-4.389-.36-.303-.041-4.302.477-9.128l17.574 2.384s9.784 6.11 10.732 7.104c.947.994 1.401 3.825.407 4.029Z" fill="#fff"/><path d="M131.711 142.485c-4.552-.744-22.981-3.319-27.538-3.709-.035 0-.041 0 0 .029 4.499.837 22.946 3.262 27.533 3.756.087.011.122-.076.005-.076ZM129.927 138.375a3.711 3.711 0 0 0-2.907.738 3.594 3.594 0 0 0-1.36 2.297c0 .029.052.035.058 0a4.27 4.27 0 0 1 4.18-2.983c.058-.011.064-.046.029-.052ZM122.526 133.184c-1.825-.28-4.034.069-5.377 1.406-.053.053 0 .128.081.105a25.535 25.535 0 0 1 5.296-1.285.113.113 0 0 0 .065-.041.112.112 0 0 0 .026-.072.116.116 0 0 0-.091-.113ZM123.858 133.945c-1.826-.279-4.035.07-5.378 1.407-.052.052 0 .128.081.105a25.262 25.262 0 0 1 5.297-1.285.12.12 0 0 0 .065-.041.119.119 0 0 0 0-.145.12.12 0 0 0-.065-.041ZM125.189 134.689c-1.826-.279-4.035.076-5.378 1.413-.052.052 0 .122.082.105a25.87 25.87 0 0 1 5.296-1.291.117.117 0 0 0 0-.227ZM126.526 135.433c-1.825-.279-4.035.076-5.378 1.413-.052.052 0 .122.082.105a25.393 25.393 0 0 1 5.296-1.285.117.117 0 0 0 0-.233ZM105.94 134.596c-2.052-.279-2.488 2.907-.436 3.192 2.052.285 2.488-2.913.436-3.192Z" fill="#000"/><path d="M125.171 128.597c-.819-.896-2.087-.308-2.767.407a9.715 9.715 0 0 0-2.325 4.447.052.052 0 0 0 .052.058c0 .134.163.268.308.192 1.424-.721 3.041-1.314 4.203-2.448.692-.662 1.303-1.813.529-2.656Zm-2.779 3.569c-.697.372-1.401.709-2.081 1.105a28.97 28.97 0 0 1 1.407-2.564c.251-.407.531-.795.837-1.163.483-.546 2.488-1.825 2.395.186-.052 1.128-1.732 1.994-2.558 2.436Z" fill="#000"/><path d="M115.457 133.497c1.558.466 3.261.239 4.86.216a.234.234 0 0 0 .099-.034.24.24 0 0 0 .073-.076.214.214 0 0 0 .029-.101.227.227 0 0 0-.021-.103.065.065 0 0 0 .015-.018.064.064 0 0 0 .005-.023.06.06 0 0 0-.005-.023 9.677 9.677 0 0 0-4.125-2.878c-.936-.314-2.325-.244-2.639.924-.314 1.169.802 1.843 1.709 2.116Zm-.959-1.191c-1.018-1.744 1.348-1.541 2.034-1.279.437.178.86.385 1.268.622a27.124 27.124 0 0 1 2.441 1.616c-.784-.035-1.569 0-2.325 0-.965-.017-2.854 0-3.418-.959Z" fill="#000"/><path d="M91.302 79.978h22.858s-2.023 4.215-2.465 5.982c-.191.762-2.395.785-2.523 1.087 0 0 12.604 8.29 14.842 13.098 2.239 4.808-1.04 27.597-1.04 27.597l-20.109-2.325s2.674-18.429 2.325-20.65c-.232-1.517-11.139-6.395-14.214-9.418-3.075-3.023.326-15.371.326-15.371Z" fill="#FEE3C5"/><path d="M124.375 100.697a8.052 8.052 0 0 0-1.279-2.575c-.582-.779-9.569-8.97-13.924-11.046-.069-.029-.128.059-.064.1 4.07 2.423 12.273 9.882 13.005 10.65a7.075 7.075 0 0 1 1.523 2.366c.739 1.877.809 3.959.855 5.947.058 2.511-.703 13.918-.785 16.429 0 .064.093.076.099 0 .203-2.325 1.116-13.511 1.122-15.842 0-2.029.029-4.087-.552-6.029ZM109.696 80.31c0 1 0 2-.041 3 0 .47-.029.947-.087 1.418a.945.945 0 0 1-.215.546 1.07 1.07 0 0 1-.582.25.643.643 0 0 1-.854-.581 12.36 12.36 0 0 1 .035-1.401v-1.506c0-.215 0-.43-.041-.64a5.855 5.855 0 0 1-.093-.778c0-.053-.087-.047-.087 0 0 .232-.058.459-.076.686-.017.226-.029.465-.041.697 0 .471-.029.936-.046 1.401-.018.465-.076.878-.076 1.32-.027.346.084.689.308.953a1.414 1.414 0 0 0 1.785-.093c.207-.23.321-.528.32-.837.035-.436 0-.883 0-1.32 0-1.046 0-2.087-.041-3.127-.011-.087-.168-.082-.168.011Z" fill="#000"/><path d="M108.725 85.623a2.1 2.1 0 0 0 .087.349l.087.354c0 .117.053.239.076.355.023.116.052.233.081.349a.043.043 0 0 0 .017.022.047.047 0 0 0 .027.008.044.044 0 0 0 .026-.008.043.043 0 0 0 .017-.022v-.355c0-.116-.034-.25-.058-.372-.023-.122-.052-.232-.081-.355a1.816 1.816 0 0 0-.099-.354c-.052-.081-.192-.081-.18.029ZM122.038 123.632c-1.163-.14-2.279-.233-3.418-.361-1.14-.127-2.274-.238-3.413-.354-2.273-.221-4.546-.395-6.825-.582a119.22 119.22 0 0 1-3.854-.366c-.053 0-.053.076 0 .082 2.273.314 4.528.691 6.807.959 2.279.267 4.546.459 6.825.581 1.291.058 2.587.122 3.878.128.035-.029.035-.087 0-.087ZM106.754 120.19c.209-2.017.389-4.034.552-6.057.163-2.024.326-4.07.407-6.064.041-1.012.064-2.023 0-3.023a4.736 4.736 0 0 0-.209-1.424 1.455 1.455 0 0 0-.459-.471c-.198-.151-.402-.291-.582-.43-1.703-1.07-3.488-2.006-5.284-2.977-1.797-.97-3.558-1.96-5.29-3.023a26.363 26.363 0 0 1-2.53-1.744 4.727 4.727 0 0 1-1.087-1.163 4.288 4.288 0 0 1-.447-1.517 16.42 16.42 0 0 1-.047-3.07 40.6 40.6 0 0 1 .303-3.034 74.752 74.752 0 0 1 1.11-5.988 75.3 75.3 0 0 0-.895 6.01 25.872 25.872 0 0 0-.14 6.03c.06.48.206.947.43 1.377.278.401.62.753 1.012 1.041a26.45 26.45 0 0 0 2.494 1.692 123.767 123.767 0 0 0 5.29 2.976c1.802.965 3.57 1.925 5.296 3.029.215.145.425.291.634.454.241.155.44.367.581.616.103.254.163.523.181.796 0 .262.046.518.058.773.029 1.024 0 2.041-.07 3.058-.262 4.087-.756 8.116-1.308 12.133Z" fill="#000"/><path d="M107.684 58.108c3.017 3.435 14.796 12.685 18.54 11.324 3.528-1.285 6.732-6.935 10.464-13.04 1.36-2.232-8.685-8.598-9.976-6.621-2.215 3.383-3.947 8.005-4.546 8.412-.599.407-4.651-2.273-11.156-3.546-5.878-1.145-5.169 1.366-3.326 3.47Z" fill="#FFD3C9"/><path d="m120.253 69.607 1.825-11.883s-7.267-2.994-12.289-4.006c-5.023-1.011-6.581.297-1.605 5.918 4.976 5.622 12.069 9.97 12.069 9.97Z" fill="#A9C297"/><path d="M105.882 53.782a.76.76 0 0 0-.523.204 1.161 1.161 0 0 0-.204.872.788.788 0 0 0 1.063.392.79.79 0 0 0 .441-.672.787.787 0 0 0-.783-.82l.006.024Zm0 1.332a.538.538 0 0 1-.541-.547.537.537 0 0 1 .913-.378.543.543 0 0 1-.372.925Zm7.598-.448a.533.533 0 0 1-.573.422.536.536 0 0 1-.485-.521c0-.067.012-.134.035-.198l-.233-.064a.653.653 0 0 0-.052.262.789.789 0 0 0 .7.76.785.785 0 0 0 .847-.591l-.239-.07Zm6.558 9.883a.785.785 0 1 0 .779.79.796.796 0 0 0-.476-.742.793.793 0 0 0-.303-.066v.018Zm0 1.325a.534.534 0 1 1 0-1.067.534.534 0 0 1 0 1.067Zm-10.627-6.644a.782.782 0 0 0-.722.484.77.77 0 0 0-.057.3.687.687 0 0 0 0 .157c.186.204.378.401.581.582a.694.694 0 0 0 .192 0 .785.785 0 0 0 0-1.57l.006.047Zm0 1.325a.543.543 0 0 1-.531-.646.546.546 0 0 1 .425-.425.544.544 0 0 1 .555.23c.06.089.091.193.091.3a.538.538 0 0 1-.54.5v.041Zm7.883-.68a.747.747 0 0 0-.128-.32.784.784 0 0 0-.651-.343.773.773 0 0 0-.75.477.76.76 0 0 0 0 .61.635.635 0 0 0 .168.25.764.764 0 0 0 .582.233.761.761 0 0 0 .552-.233.98.98 0 0 0 .099-.116.725.725 0 0 0 .122-.296.68.68 0 0 0 0-.111c.006-.093.006-.093.006-.151Zm-.285.337a.546.546 0 0 1-.289.285.531.531 0 0 1-.205.04.542.542 0 0 1-.346-.9c.09-.099.213-.161.346-.175a.532.532 0 0 1 .523.419.078.078 0 0 1 0 .052c.004.01.004.02 0 .029v.03a.486.486 0 0 1-.041.208l.012.012Zm.285-.337a.747.747 0 0 0-.128-.32.784.784 0 0 0-.651-.343.773.773 0 0 0-.808.785c.001.103.02.206.058.302a.82.82 0 0 0 .434.43c.1.04.208.058.316.053a.761.761 0 0 0 .552-.233.98.98 0 0 0 .099-.116.725.725 0 0 0 .122-.296.68.68 0 0 0 0-.111c.006-.05.008-.1.006-.151Zm-.285.337a.546.546 0 0 1-.289.285.531.531 0 0 1-.205.04.542.542 0 0 1-.346-.9c.09-.099.213-.161.346-.175a.532.532 0 0 1 .523.419.078.078 0 0 1 0 .052c.004.01.004.02 0 .029v.03a.486.486 0 0 1-.041.208l.012.012Zm.041-.244v.029a.519.519 0 0 1-.041.21.504.504 0 0 0 .046-.21.06.06 0 0 0-.029-.03h.024Z" fill="#fff"/><path d="M119.619 57.422c-.238.82-1.348 9.301-1.325 10.179 0 .01.004.021.012.029a.04.04 0 0 0 .057 0 .04.04 0 0 0 .012-.029c.244-.831 1.32-9.337 1.291-10.191.011-.012-.047-.012-.047.012Z" fill="#000"/><path opacity=".1" d="m121.491 61.508-1.238 8.099s-7.092-4.355-12.069-9.97c-3.226-3.651-3.709-5.483-2.279-6.04l15.586 7.911Z" fill="#000"/><path d="M89.97 83.431c0-.029 25.993-1.407 25.993-1.407.052-.11-2.413-22.091-5.32-27.527-.988-1.843-4.203-3.063-7.121-.663C95.58 60.358 89.97 83.46 89.97 83.431Z" fill="#A9C297"/><path d="M105.882 53.782a.785.785 0 1 0 .779.785.792.792 0 0 0-.779-.785Zm0 1.332a.538.538 0 0 1-.541-.547.536.536 0 0 1 .913-.378.543.543 0 0 1-.372.925Zm-7.081 9.417a.785.785 0 1 0 0 1.57.785.785 0 0 0 0-1.57Zm0 1.326a.535.535 0 1 1 0-1.07.535.535 0 0 1 0 1.07Zm7.081-1.326a.786.786 0 0 0-.786 1.098.79.79 0 0 0 .786.466.785.785 0 0 0 0-1.564Zm0 1.326a.536.536 0 1 1-.012-1.072.536.536 0 0 1 .012 1.072Zm7.557-1.163a.773.773 0 0 0-.494-.174.783.783 0 0 0-.798.782.786.786 0 0 0 1.473.38c-.053-.302-.117-.639-.175-.976l-.006-.012Zm-.494 1.163a.534.534 0 1 1 0-1.07.534.534 0 1 1 0 1.07Zm-10.609-6.645a.783.783 0 0 0-.77.938.782.782 0 0 0 .616.617.786.786 0 1 0 .159-1.555h-.005Zm0 1.326a.538.538 0 0 1-.504-.33.54.54 0 1 1 1.038-.211.54.54 0 0 1-.529.517l-.005.024Zm7.069-1.326a.788.788 0 0 0-.721.489.78.78 0 0 0 .174.853.785.785 0 1 0 .553-1.342h-.006Zm0 1.326a.543.543 0 0 1-.5-.334.539.539 0 0 1 .118-.59.536.536 0 0 1 .589-.117c.099.041.183.11.242.2.06.088.092.193.092.3a.537.537 0 0 1-.535.517l-.006.024ZM92.249 75.496l-.087.273a.517.517 0 0 1 .093.302.54.54 0 0 1-.349.5c0 .093-.052.18-.081.268a.78.78 0 0 0 .424-1.343Zm6.546-.215a.785.785 0 1 0 .006 0h-.006Zm0 1.325a.54.54 0 0 1-.54-.535.54.54 0 0 1 1.075 0 .54.54 0 0 1-.529.535h-.006Zm7.081-1.325a.785.785 0 1 0 0 1.57.785.785 0 0 0 0-1.57Zm0 1.325a.53.53 0 0 1-.499-.329.537.537 0 0 1 .871-.584.532.532 0 0 1 .005.752.536.536 0 0 1-.371.161h-.006Zm7.075-1.325a.783.783 0 0 0-.557 1.337.786.786 0 0 0 1.342-.547.79.79 0 0 0-.779-.79h-.006Zm0 1.325a.534.534 0 0 1-.535-.535.543.543 0 0 1 .538-.484.54.54 0 0 1 .538.484.544.544 0 0 1-.535.535h-.006Zm-17.702-6.645a.785.785 0 1 0 .006 0h-.006Zm0 1.326a.541.541 0 1 1 .006 0h-.006Zm7.087-1.326a.787.787 0 0 0-.771.936.781.781 0 0 0 .614.618.786.786 0 0 0 .941-.763.79.79 0 0 0-.779-.79h-.005Zm0 1.326a.541.541 0 1 1 .005 0h-.005Zm7.069-1.326a.785.785 0 1 0 .734.488.768.768 0 0 0-.426-.429.78.78 0 0 0-.302-.059h-.006Zm0 1.326a.542.542 0 1 1 .006 0h-.006ZM95.249 80.71a.786.786 0 1 0 .79.791.79.79 0 0 0-.784-.79h-.006Zm0 1.326a.54.54 0 1 1 .54-.535.535.535 0 0 1-.534.523l-.006.012Zm7.087-1.326a.787.787 0 0 0-.771.936.782.782 0 0 0 .614.618.786.786 0 0 0 .941-.763.79.79 0 0 0-.779-.79h-.005Zm0 1.326a.54.54 0 1 1 .534-.535.536.536 0 0 1-.529.523l-.005.012Zm7.075-1.326a.787.787 0 0 0-.77.936.78.78 0 0 0 .613.618.785.785 0 1 0 .162-1.553h-.005Zm0 1.326a.54.54 0 1 1 .535-.535.534.534 0 0 1-.53.523l-.005.012Zm6.435-.994a.745.745 0 0 0-.151.46.763.763 0 0 0 .215.522h.029s-.017-.366-.087-.982h-.006Z" fill="#fff"/><path d="M101.318 57.148c-3.32 7.657-6.505 25.58-3.924 28.12 4.767 4.727 22.231.512 25.725-.104 1.488-.268-2.907-13.278-4.523-13.029-1.395.221-10.028 3.721-10.79 2.785-.319-.383-.436-7.895-1.866-15.877-1.093-6.086-3.639-4.162-4.622-1.895Z" fill="#FFD3C9"/><path d="M115.399 73.78a49.131 49.131 0 0 0 4.685-2.47 15.629 15.629 0 0 1 16.976 2.052c2.57 2.11 2.209 4.837-.849 3.116-2.157-1.209-3.546-2.232-4.36-2.43 0 0 1.424 3.488.25 5.355a40.68 40.68 0 0 1-3.424 4.621 8.2 8.2 0 0 1-.919-.581 4.651 4.651 0 0 1-4.651 1.72l-7.708-11.382Z" fill="#FFD3C9"/><path d="M122.886 70.281c1.588.331 4.936 1.099 7.459 2.674 2.797 1.744 7.721 5.884 6.395 7.936-.965 1.505-2.982.093-2.982.093s1.674 2.14.506 3.308c-1.064 1.064-2.558-.122-2.558-.122s.79 1.47-.431 2.325c-1.47 1-2.906-2.25-5.232-2.523-.546-.087-3.157-13.691-3.157-13.691Z" fill="#FFD3C9"/><path d="M127.997 75.63a13.156 13.156 0 0 1 5.778 5.307c0 .064 0 .117-.04.07a32.659 32.659 0 0 0-5.756-5.354s.006-.024.018-.024ZM126.311 78.484a14.772 14.772 0 0 1 5.447 5.645c.029.064 0 .116-.041.064a34.676 34.676 0 0 0-5.424-5.686s.006-.029.018-.023Z" fill="#000"/><path d="m96.075 75.048 11.958-3.924s-.616-7.837-1.982-12.79c-1.367-4.953-3.244-5.732-6.006 1.25-2.761 6.982-3.97 15.464-3.97 15.464Z" fill="#A9C297"/><path d="M102.342 69.961a.787.787 0 0 0-.771.936.781.781 0 0 0 .614.618.785.785 0 1 0 .157-1.554Zm0 1.326a.542.542 0 0 1-.537-.645.544.544 0 0 1 .74-.394.543.543 0 0 1 .331.504.549.549 0 0 1-.534.535Zm0-12.075a.783.783 0 0 0-.77.938.781.781 0 0 0 .616.617.786.786 0 1 0 .154-1.555Zm0 1.325a.536.536 0 0 1-.504-.33.54.54 0 1 1 1.038-.21.538.538 0 0 1-.534.517v.023Zm3.54 3.994a.784.784 0 1 0-.134 1.562.784.784 0 0 0 .134-1.562Zm0 1.326a.536.536 0 1 1-.012-1.072.536.536 0 0 1 .012 1.072Zm-7.08-1.326a.762.762 0 0 0-.466.157c-.093.308-.174.61-.261.919a.785.785 0 0 0 1.453-.587.787.787 0 0 0-.727-.489Zm0 1.326a.536.536 0 1 1 .534-.535.54.54 0 0 1-.535.535Z" fill="#fff"/><path d="M107.219 69.008c-.843.14-8.982 2.831-9.75 3.226-.034 0 0 .082 0 .07.855-.14 8.983-2.86 9.739-3.255l.011-.041Z" fill="#000"/><path d="M107.492 63.81v1.471c0-.145-.04-.29-.064-.43-.139-.878-.325-1.744-.494-2.61h-.04c.174 1.587.354 3.162.546 4.744l.297 2.325c.052.407.104.808.162 1.21 0 .145.128.43 0 .546-.179.119-.375.21-.581.273-.035 0 0 .076 0 .064.203-.07.413-.11.616-.18a.337.337 0 0 0 .198-.145.757.757 0 0 0 0-.396c0-.22-.041-.442-.064-.663a59.997 59.997 0 0 0-.32-2.58l-.227-1.623c0-.302.035-.581 0-.907-.034-.325-.04-.726-.081-1.087l.052-.011ZM96.906 74.757l-.82.314h-.064v-.075c.105-.96.262-1.913.419-2.86.157-.948.36-1.901.581-2.843.221-.942.442-1.878.71-2.808.267-.93.546-1.849.877-2.756l-.674 2.808c-.21.942-.442 1.878-.634 2.82a207.078 207.078 0 0 0-1.163 5.656l-.052-.046.82-.21Z" fill="#000"/><path d="M97.993 64.537c.026.302.026.605 0 .907-.017.302-.06.601-.128.895a5.63 5.63 0 0 1 .11-1.802h.018ZM124.974 69.816a15.374 15.374 0 0 0-3.314.831c-.533.193-1.051.422-1.552.686a10.32 10.32 0 0 0-1.413.919h-.035a17 17 0 0 1-1.831.628c-.624.18-1.262.31-1.907.39a13.839 13.839 0 0 1 1.785-.786 18.747 18.747 0 0 1 1.854-.546h-.052a10.679 10.679 0 0 1 3.099-1.547 14.356 14.356 0 0 1 3.366-.575Z" fill="#000"/><path d="M105.336 53.904c.127.494 2.61 3.657 4.883 3.488.738-.058.581-4.116.581-4.116l.058-.302.809-4.226-5.75-3.407s-.634 8.354-.581 8.563Z" fill="#FFD3C9"/><path d="m111.684 48.742-.785 4.215-.058.308v1.581c-3.122-.366-4.616-2.657-5.285-4.244.175-2.418.402-5.278.402-5.278l5.726 3.418Z" fill="#000"/><path d="M117.695 40.167c3.145 8.668-1.692 11.528-3.558 12.208-1.697.61-7.557 2.489-11.58-5.813s-.989-12.5 2.819-14.11c3.808-1.61 9.174-.965 12.319 7.715Z" fill="#FFD3C9"/><path d="M116.282 40.347c-.215.035-.424.03-.639.047a1.059 1.059 0 0 1-.657-.082.323.323 0 0 1-.105-.383.81.81 0 0 1 .715-.402c.294-.043.594.028.837.198a.347.347 0 0 1-.151.622ZM110.318 42.353c.2-.087.394-.186.581-.297a1.01 1.01 0 0 0 .517-.412.32.32 0 0 0-.11-.384.815.815 0 0 0-.82.035c-.263.123-.47.341-.581.61a.347.347 0 0 0 .413.448ZM115.166 45.608s.378.867.5 1.291c0 .04-.087.087-.232.14a2.114 2.114 0 0 1-2.175-.204.051.051 0 0 1-.011-.027.047.047 0 0 1 .007-.028.046.046 0 0 1 .051-.02 3.161 3.161 0 0 0 1.994 0c0-.123-.698-1.477-.628-1.489.297-.029.826-.046 1.023-.052-.232-.581-.971-2.151-1.395-3.186a.061.061 0 0 1-.005-.046.074.074 0 0 1 .01-.02.06.06 0 0 1 .041-.023c.007 0 .015 0 .023.002a.077.077 0 0 1 .021.011c.006.005.011.011.015.018a28.816 28.816 0 0 1 1.831 3.488c.023.105-.878.169-1.07.145ZM116.881 42.248a.958.958 0 0 0-.314-.378.674.674 0 0 0-.529-.081.584.584 0 0 0-.395.372c-.054.155-.072.32-.052.483.013.096.033.19.058.284.053.196.151.377.285.53a1.817 1.817 0 0 1-.093-.425 2.24 2.24 0 0 1 0-.401c0-.268.093-.518.296-.581.204-.065.413.063.581.29.148.24.275.493.378.756a1.902 1.902 0 0 0-.215-.849ZM111.004 44.039a.899.899 0 0 1 .075-.483.667.667 0 0 1 .413-.337.581.581 0 0 1 .529.11c.123.108.222.241.291.39.038.09.07.184.093.279.043.191.043.39 0 .581a1.764 1.764 0 0 0-.14-.418 2.545 2.545 0 0 0-.186-.349c-.145-.227-.349-.395-.541-.331-.191.064-.319.267-.337.54-.007.283.015.565.064.843a1.915 1.915 0 0 1-.261-.825Z" fill="#000"/><path d="M115.19 47.021c-.135.375-.363.71-.663.97a1.035 1.035 0 0 1-.582.233c-.47 0-.61-.372-.645-.738a2.568 2.568 0 0 1 0-.581c.601.24 1.264.281 1.89.116Z" fill="#000"/><path d="M114.527 47.992a1.034 1.034 0 0 1-.582.232c-.471 0-.61-.372-.645-.738a1.081 1.081 0 0 1 1.227.506Z" fill="#FF6868"/><path d="M101.766 47.457c2.726-.273 3.587-3.726 2.517-6.203 0 0 7.325-.273 6.692-6.087a5.71 5.71 0 0 0 5.098 1.79l1.163 1.989c.697-.343 1.128-2.564-.954-3.895 0 0-.581-2.849-3.017-4.209a3.983 3.983 0 0 0-4.319.128 6.018 6.018 0 0 0-4.5-.331 5.124 5.124 0 0 0-3.261 3.383s-3.436 1.285-3.61 3.907a5.314 5.314 0 0 0 1.418 4.07s-.727 1.162.093 3.214c.529 1.349 1.86 2.325 2.68 2.244Z" fill="#000"/><path d="M110.725 34.685c.133.457.219.926.255 1.4.056.468.056.94 0 1.408a3.704 3.704 0 0 1-1.308 2.325 5.939 5.939 0 0 1-2.534 1.11c-.465.064-.931.163-1.401.204-.471.04-.954.052-1.431.099.477.035.954.046 1.436.07.483.023.96-.082 1.448-.117a5.818 5.818 0 0 0 2.692-1.11 3.848 3.848 0 0 0 1.354-2.575 5.809 5.809 0 0 0-.511-2.814ZM101.185 34.022c-.91.163-1.777.51-2.547 1.023a4.07 4.07 0 0 0-1.691 2.215c-.112.46-.15.935-.11 1.407.023.469.126.93.301 1.366a3.785 3.785 0 0 0 1.85 2.006 4.151 4.151 0 0 1-1.605-2.093 4.587 4.587 0 0 1-.11-2.593c.116-.421.314-.816.58-1.163a5.23 5.23 0 0 1 .942-.924 8.647 8.647 0 0 1 2.39-1.244ZM108.946 30.97c.634-.36 1.32-.62 2.035-.767a3.883 3.883 0 0 1 3.842 1.29 7.277 7.277 0 0 1 1.163 1.82 5.465 5.465 0 0 0-.988-1.989 4.027 4.027 0 0 0-1.832-1.337 3.94 3.94 0 0 0-2.261-.034 5.189 5.189 0 0 0-1.959 1.017Z" fill="#000"/><path d="M114.969 37.382a7.62 7.62 0 0 1-2.372-.802 4.502 4.502 0 0 1-.989-.733 5.727 5.727 0 0 1-.785-.982c.111.424.309.82.582 1.163.28.348.626.639 1.017.854.387.214.805.365 1.238.448.43.094.873.112 1.309.052Z" fill="#000"/><path d="M104.504 46.76s-2.686-2.262-3.761-1.233c-1.076 1.029 1.465 4.65 3.093 4.825a1.56 1.56 0 0 0 1.802-1.348l-1.134-2.245Z" fill="#FFD3C9"/><path d="M101.481 46.562v.04c1.163.14 1.954.96 2.605 1.855a.863.863 0 0 0-.676-.25.851.851 0 0 0-.637.376c0 .004 0 .008.002.012a.023.023 0 0 0 .006.01.02.02 0 0 0 .009.008.033.033 0 0 0 .024.001.966.966 0 0 1 1.115.046c.26.205.498.437.709.692.076.082.227 0 .163-.11-.337-1.36-1.861-2.936-3.32-2.68Z" fill="#000"/><path d="M139.618 48.649c-.227 2.761-2.907 8.232-4.07 9.301-1.162 1.07-10.604-3.174-10.981-4.743-.378-1.57 1.116-10.813 3.057-12.871 1.942-2.058 12.232 5.453 11.994 8.313Z" fill="#FFD3C9"/><path d="M124.555 51.59a22.811 22.811 0 0 0-2.907-6.04c-1.564-2.162-4.133-5.203-3-6.086 2.326-1.82 8.721 5.76 8.721 5.76s2.284 3.803.139 5.814a2.905 2.905 0 0 1-2.953.553Z" fill="#FFD3C9"/><path d="m129.258 55.817 4.767-5.302-7.121-6.83-7.837 3.54 10.191 8.592Z" fill="#FFB445"/><path opacity=".5" d="m129.369 56.933 5.778-6.43-11.668-11.19-6.476 7.202 12.366 10.418Z" fill="#fff"/><path d="M125.282 44.103c.651 1.313 1.831-.21 1.831-.21s-1.163 2.599.035 3.698c1.198 1.099 2.511-.837 2.61-.971-.058.134-1.069 2.552.25 3.529 1.32.976 2.407-1.117 2.471-1.256 0 .151-.192 2.116.977 2.628 2.011.883 2.61-4.128 4.069-5.169 0 0 2.041 2.245 2.11 2.326.07.081.669-4.756-.843-6.622a1.529 1.529 0 0 0-1.871-.436s.383-1.511-.628-2.325c-.524-.413-1.646.058-1.646.058a1.913 1.913 0 0 0-.686-1.878 1.846 1.846 0 0 0-1.744 0s-.296-1.285-1.238-1.575c-1.942-.576-7.098 5.383-5.697 8.203Z" fill="#FFD3C9"/><path d="M134.647 39.295s0-.058-.04-.035a12.788 12.788 0 0 0-4.959 7.372c0 .104.064.22.099.104.581-1.994 3.075-5.662 4.9-7.441ZM132.508 49.126c.733-2.907 2.325-5.273 4.296-7.477.029-.029 0-.064-.04-.04-1.268.808-2.378 2.325-3.146 3.616a7.83 7.83 0 0 0-1.209 3.871c0 .059.082.088.099.03Z" fill="#000"/><path d="M127.061 43.905c-.029.105.151.04.122.14-.128.43-.68 3.057.157 3.523.668.372 1.633-.274 1.906-.663l.692-.989-.302 1.163a4.884 4.884 0 0 0-.163 1.587 1.735 1.735 0 0 0 .582 1.308 1.003 1.003 0 0 0 1.267.041c.406-.319.723-.737.918-1.215l.582-1.296-.134 1.412c-.036.388-.025.778.035 1.163.046.373.2.724.442 1.011a.911.911 0 0 0 .924.25c.345-.161.637-.417.843-.738.455-.69.855-1.415 1.198-2.168.186-.372.372-.75.581-1.116.185-.381.448-.718.773-.989-.29.3-.517.653-.668 1.04-.175.379-.332.762-.489 1.164a13.676 13.676 0 0 1-1.104 2.279 2.376 2.376 0 0 1-.988.918 1.293 1.293 0 0 1-1.372-.32 2.322 2.322 0 0 1-.582-1.238 4.988 4.988 0 0 1-.064-1.314l.459.116a3.433 3.433 0 0 1-1.075 1.448c-.27.205-.603.307-.942.29a1.65 1.65 0 0 1-.907-.36 2.229 2.229 0 0 1-.755-1.657 5.353 5.353 0 0 1 .203-1.744l.384.18c-.367.489-1.367 1.326-2.483.884-1.337-.796-.273-3.61-.04-4.11Z" fill="#000"/><path d="M127.113 43.893c-.229.197-.486.36-.762.483a.684.684 0 0 1-.691-.064 1.407 1.407 0 0 1-.39-.686 11.62 11.62 0 0 1-.215-.901c-.1.311-.134.64-.099.965a1.375 1.375 0 0 0 .454.948.968.968 0 0 0 .581.186c.19-.005.375-.06.535-.163.27-.19.474-.458.587-.768Z" fill="#000"/><path d="m179.47 99.058-1.552 9.29-10.494 56.665h-1.692l7.634-56.665 1.127-9.29h4.977Z" fill="#999"/><path d="M174.493 99.058h4.977l-1.553 9.29h-4.552l1.128-9.29Z" fill="#666"/><path d="M212.415 165.013h-1.692l-10.487-56.665-1.552-9.29h4.976l1.128 9.29 7.627 56.665Z" fill="#FEE3C5"/><path d="m203.66 99.058 1.128 9.29h-4.552l-1.552-9.29h4.976Z" fill="#666"/><path d="M243.89 165.013h-1.692l-10.494-56.665-1.546-9.29h4.971l1.127 9.29 7.634 56.665Z" fill="#FEE3C5"/><path d="M236.256 108.348h-4.552l-1.546-9.29h4.971l1.127 9.29Z" fill="#666"/><path d="M241.204 103.424H164.32V95.32h28.783l9.673-56.275h35.498l2.93 64.379Z" fill="#FEE3C5"/><path opacity=".2" d="M212.415 165.013h-1.692l-10.487-56.665-1.552-9.29h4.976l1.128 9.29 7.627 56.665ZM243.89 165.013h-1.692l-10.494-56.665-1.546-9.29h4.971l1.127 9.29 7.634 56.665Z" fill="#000"/><path opacity=".2" d="M241.204 103.424H164.32V95.32h28.783l9.673-56.275h35.498l2.93 64.379Z" fill="#000"/><path d="M241.204 103.424h-4.186l-2.732-64.38h3.988l2.93 64.38Z" fill="#666"/><path d="M171.104 137.98h67.298v-1.727h-67.298v1.727Z" fill="#999"/><path d="M211.683 33.83c.075-1.372.11-2.755.075-4.14a36.984 36.984 0 0 0-.122-5.952c-.355-3.256-1-7.18-4.29-8.953a12.738 12.738 0 0 0-4.965-1.285c-1.779-.151-3.668-.122-5.232.762a4.426 4.426 0 0 0-1.523 1.412 11.038 11.038 0 0 0-3.244 1.68c-1.239.658-1.977 2.041-2.43 3.274a17.342 17.342 0 0 0-.872 4.65 10.633 10.633 0 0 0 .348 4.32 22.766 22.766 0 0 0 1.715 3.529 13.268 13.268 0 0 1 1.692 4.389c0 .052.093.052.087 0-.279-2.517-1.895-4.65-2.866-6.947a9.567 9.567 0 0 1-.779-4.099c.025-1.607.22-3.207.582-4.773a7.638 7.638 0 0 1 1.97-3.808l-.052.059c-1.163 1.302-1.575 3.07-1.808 4.743a18.733 18.733 0 0 0-.035 5.669 18.324 18.324 0 0 0 1.744 4.895 19.447 19.447 0 0 1 1.878 4.877c.236 1.801.124 3.63-.331 5.39a20.606 20.606 0 0 0-.634 5.202 7.559 7.559 0 0 0 1.744 4.396c1.93 2.325 5.86 4.017 8.558 1.988a9.658 9.658 0 0 0 1.744-1.808c.548-.7 1.057-1.43 1.523-2.186a28.583 28.583 0 0 0 2.447-5.081 53.031 53.031 0 0 0 2.576-10.86c.133-.907.25-1.814.348-2.732a52.471 52.471 0 0 1-.61 6.18c-.581 3.685-1.482 7.435-3.197 10.784a23.932 23.932 0 0 1-1.489 2.511c-.581.878-1.284 1.686-1.947 2.523a.05.05 0 0 0-.002.032c.002.01.008.02.017.027a.051.051 0 0 0 .06.005 18.671 18.671 0 0 0 3.209-4.337 25.358 25.358 0 0 0 2.146-5.121 48.749 48.749 0 0 0 1.965-11.215Z" fill="#000"/><path d="M204.381 44.132c-2.506 11.999-6.721 22.603-9.471 24.155-3.552 2.011-28.195-.302-28.974-.244-1.936.134 3.238-13.418 4.598-14.982.314-.36 17.243 2.5 17.947 1.826.703-.675 4.796-6.65 9.179-13.412 3.169-4.883 8.581-6.104 6.721 2.657Z" fill="#FFD3C9"/><path d="M166.546 68.072c-1.79.046-10.034-.46-12.295-1.116-2.262-.657-8.633-3.006-8.314-4.79.32-1.785 2.25-1.239 2.25-1.239s-2.534-1.424-2.046-3.186c.488-1.761 3.453-.831 3.453-.831s-2.494-1.645-1.883-3.372c.61-1.727 3.435-.285 3.435-.285s-2.354-1.395-1.244-2.604c1.326-1.454 5.372 1.616 7.924 2.15.581.123 11.918 1.623 11.918 1.623l-3.198 13.65Z" fill="#FFD3C9"/><path d="M150.902 53.108c2.982 2.25 4.651 2.72 8.337 3.029.069 0 .081.116 0 .116-3.616 0-5.814-.262-8.459-3.006-.122-.133-.017-.25.122-.14ZM149.361 56.7c3.297 2.07 5.128 2.593 8.942 3.198.058 0 .046.105 0 .099-3.791-.28-5.988-.616-9.017-3.116-.14-.11-.076-.273.075-.18ZM148.379 60.921c3.343 1.773 5.325 2.436 9.104 2.547.019 0 .036.007.049.02a.07.07 0 0 1 .021.05.07.07 0 0 1-.07.07c-3.86.26-6.343-.553-9.145-2.582-.192-.14-.168-.215.041-.105Z" fill="#000"/><path d="M172.523 53.306s-3.803-3.489-5.669-4.465c-1.866-.977-10.144-2.093-10.464-.314-.442 2.29 4.215 3.872 6.598 4.354 0 0-1.023 5.302 2.07 7.162 3.093 1.86 7.465-6.737 7.465-6.737Z" fill="#FFD3C9"/><path d="M156.448 49.195c1.105 2.378 4.273 2.808 6.552 3.442a.214.214 0 0 1 .164.234.211.211 0 0 1-.036.097c-.279 2.25 0 5.506 1.744 7.11.007.01.011.023.011.035a.062.062 0 0 1-.013.035.06.06 0 0 1-.031.02.06.06 0 0 1-.037-.002c-2.139-1.46-2.657-4.651-2.191-7.087-2.326-.617-5.5-1.163-6.204-3.878.012-.011.035-.023.041-.006Z" fill="#000"/><path d="M198.323 69.27s21.295 1.25 31.544 1.191c0 0-12.458-25.242-20.347-32.05-3.598-3.098-6.691-2.232-9.121.273-.611.628-6.93 11.761-6.942 15.505 0 4.07 3.413 6.831 3.413 6.831l1.453 8.25Z" fill="#fff"/><path d="M197.562 61.003a16.638 16.638 0 0 1 2.325-.215c.388-.004.777.016 1.163.058.186 0 .372.035.581.064.209.029.407.087.61.11v.04h-4.65c-.07.036-.07-.052-.029-.057Z" fill="#000"/><path d="M201.276 41.12c-.325 1.803-.633 3.605-.941 5.407-.308 1.802-.582 3.604-.762 5.412a19.213 19.213 0 0 0-.128 2.692 8.35 8.35 0 0 0 .582 2.57 14.433 14.433 0 0 0 2.906 4.488l.058.064v.075c.181 1.297.309 2.599.466 3.901.157 1.302.279 2.605.389 3.907a143.37 143.37 0 0 1-.715-3.86c-.209-1.291-.453-2.582-.639-3.872l.069.14a15.035 15.035 0 0 1-3.081-4.652 8.294 8.294 0 0 1-.616-2.755c-.009-.93.048-1.858.168-2.78.21-1.825.582-3.627.936-5.423.355-1.796.826-3.546 1.308-5.314ZM198.166 47.533a.484.484 0 0 0 .477.465.44.44 0 0 0 .401-.5.479.479 0 0 0-.477-.46.436.436 0 0 0-.401.495ZM197.521 53.2a.479.479 0 0 0 .477.466.443.443 0 0 0 .306-.165.448.448 0 0 0 .095-.335.492.492 0 0 0-.477-.465.443.443 0 0 0-.401.5ZM198.509 58.573a.485.485 0 0 0 .477.465.455.455 0 0 0 .306-.166.448.448 0 0 0 .095-.334.487.487 0 0 0-.477-.465.448.448 0 0 0-.308.163.45.45 0 0 0-.093.337Z" fill="#000"/><path d="M201.009 62.625a.487.487 0 0 0 .477.46.438.438 0 0 0 .308-.165.45.45 0 0 0 .093-.336.479.479 0 0 0-.477-.46.455.455 0 0 0-.306.166.447.447 0 0 0-.095.335ZM201.59 67.56a.495.495 0 0 0 .477.465.443.443 0 0 0 .401-.5.48.48 0 0 0-.477-.465.456.456 0 0 0-.401.5Z" fill="#000"/><path d="M205.823 37.754c0 .628-2.024 5.11-4.773 5.57-.896.145-1.925-4.71-1.925-4.71l-.157-.336-2.209-4.78 5.081-5.051.744-.686s.518 1.343 1.163 3.029l.087.238c.041.093.076.186.105.273.099.25.198.506.291.762.093.256.139.39.209.581.07.192.134.413.209.616.494 1.47.886 2.971 1.175 4.494Z" fill="#FFD3C9"/><path d="M203.73 30.79a10.58 10.58 0 0 1-4.762 7.488l-2.209-4.78 5.081-5.051.744-.686s.518 1.36 1.146 3.029Z" fill="#000"/><path d="M188.748 25.052c-1.476 9.115 3.814 11.045 5.779 11.348 1.785.285 7.895 1.035 10.307-7.872 2.413-8.906-1.354-12.481-5.401-13.371-4.046-.89-9.202.785-10.685 9.895Z" fill="#FFD3C9"/><path d="M190.126 23.436c.214-.004.427-.02.64-.047.225.016.45-.044.639-.169a.325.325 0 0 0 .052-.395.807.807 0 0 0-.767-.302 1.201 1.201 0 0 0-.802.32.345.345 0 0 0 .049.53c.056.039.121.06.189.063ZM196.358 24.965a5.674 5.674 0 0 1-.581-.216 1.009 1.009 0 0 1-.582-.337.324.324 0 0 1 .053-.395.816.816 0 0 1 .825-.076c.285.082.529.267.686.518.034.06.049.13.044.198a.354.354 0 0 1-.242.305.35.35 0 0 1-.203.003ZM194.8 26.587s.047.034.041.063c-.122.617-.157 1.343.372 1.64v.035c-.68-.21-.599-1.175-.413-1.738Z" fill="#000"/><path d="M195.463 26.028c1.006.088.756 2.105-.18 2.024-.936-.082-.669-2.1.18-2.024Z" fill="#000"/><path d="M195.841 26.214c.163.134.308.355.523.407.215.053.453-.133.634-.32 0 0 .035 0 .035.03-.041.383-.239.761-.663.767-.425.006-.582-.366-.657-.767-.012-.117.064-.204.128-.117ZM191.347 26.023s-.053.029-.053.052c-.052.628-.221 1.337-.808 1.477v.034c.704-.017.913-.959.861-1.563Z" fill="#000"/><path d="M190.864 25.308c-.994-.192-1.308 1.813-.383 1.994.924.18 1.226-1.832.383-1.994Z" fill="#000"/><path d="M190.428 25.377c-.174.082-.36.25-.552.233-.192-.018-.349-.262-.459-.494h-.035c-.07.383 0 .802.355.93.354.128.622-.169.773-.535.035-.052-.012-.169-.082-.134ZM191.94 29.121s-.256.913-.314 1.355c0 .04.099.075.244.104a2.106 2.106 0 0 0 2.134-.505c.035-.035 0-.088-.058-.07-.61.309-1.304.41-1.977.29 0-.127.488-1.552.419-1.563a4.08 4.08 0 0 0-1.03.087c.477-1.913 1.256-3.738 1.698-5.657a.059.059 0 0 0-.002-.045.059.059 0 0 0-.078-.029.057.057 0 0 0-.03.034 32.133 32.133 0 0 0-2.07 6c-.07.25.878.04 1.064 0Z" fill="#000"/><path d="M191.998 30.505c.202.386.503.71.872.942.2.112.428.162.657.145.5-.047.581-.483.581-.878a2.706 2.706 0 0 0-.122-.61 3.203 3.203 0 0 1-1.988.4Z" fill="#000"/><path d="M192.87 31.447c.2.112.429.162.657.145.5-.047.581-.483.581-.878a1.164 1.164 0 0 0-1.238.733Z" fill="#FF6868"/><path d="M204.265 30.156a3.845 3.845 0 0 1-1.657-3.424 10.046 10.046 0 0 1-3.541-3.884c0 .204.268 1.646.407 2.372-5.685-1.994-6.807-6.755-6.807-6.755a10.194 10.194 0 0 0-3.122 3.32s.505-3.6 2.726-5.721a5.87 5.87 0 0 1 5.709-1.564 8.385 8.385 0 0 1 7.68 3.732c3.186 4.733-1.395 11.924-1.395 11.924Z" fill="#000"/><path d="M195.196 23.57a10.993 10.993 0 0 0 2.837 1.563 9.253 9.253 0 0 1-3.901-3.261 8.845 8.845 0 0 1-.994-1.96 6.07 6.07 0 0 1-.431-2.325.05.05 0 0 0-.013-.033.048.048 0 0 0-.033-.013.048.048 0 0 0-.033.013.046.046 0 0 0-.014.033 7.09 7.09 0 0 0 .111 2.378 6.415 6.415 0 0 0 1 2.14c.415.57.908 1.078 1.465 1.51l.006-.046Z" fill="#000"/><path d="M204.305 31.888a1.74 1.74 0 0 1-.43.076 1.51 1.51 0 0 1-.436 0 1.225 1.225 0 0 1-.517-.215 1.355 1.355 0 0 1-.332-.29 1.908 1.908 0 0 1-.308-.547l.692-2.419s2.227-2.726 3.488-1.912c1.262.814-.581 4.866-2.157 5.307Z" fill="#FFD3C9"/><path d="M205.898 27.714v.041c-1.104.355-1.744 1.308-2.215 2.325a.856.856 0 0 1 1.303-.133s0 .058-.035.052a.962.962 0 0 0-1.082.256c-.222.25-.417.522-.581.814-.058.093-.227.029-.186-.082.11-1.412 1.32-3.244 2.796-3.273Z" fill="#000"/><path d="M204.206 31.493a.42.42 0 0 1-.359.302.423.423 0 0 1-.471-.453.425.425 0 0 1 .534-.378.428.428 0 0 1 .296.53ZM205.131 30.912a.3.3 0 0 1-.142.183.292.292 0 0 1-.23.026.303.303 0 1 1 .163-.581.302.302 0 0 1 .183.141c.02.035.032.073.036.113.005.04.001.08-.01.118ZM199.021 38.423l1.936 3.982 4.726-5.546 1.564 1.558s-4.401 8.598-4.459 8.226l-1.942-3.412-2.261 2.633-.244-6.191.68-1.25Z" fill="#fff"/><path d="M198.288 42.818c0-1.023-.035-2.052 0-3.075 0-.035.058-.059.07 0 .273.97.273 4.883.343 5.813.093-.11 2.104-2.325 2.128-2.29.407.534 1.831 3.023 1.93 3.25.697-1.367 3.674-6.768 4.523-8.07a.034.034 0 0 1 .021-.017.036.036 0 0 1 .028.003.036.036 0 0 1 .018.021c.002.01.001.02-.003.028-.582 1.43-4.442 8.546-4.5 8.534a40.26 40.26 0 0 1-2.035-3.61c-.331.471-2.325 2.947-2.366 2.796a32.396 32.396 0 0 1-.157-3.383Z" fill="#000"/><path d="M155.134 46.765c-1.744.204-1.133-2.017-2.709-2.267-1.575-.25-2.157 1.482-3.116 1.163-.959-.32-.157-2.018-2.093-2.151-1.936-.134-2.54 2.523-3.761 3.052-1.221.529-3.674-.657-4.104 1.465-.431 2.122 3.854 3.093 6.877 4.779 3.023 1.686 6.238 4.168 9.058 4.162 3.017 0 4.447-1.89 6.766-2.058 2.32-.169 7.523 1.57 9.883-.308 2.361-1.878 6.111-3.285 6.302-5.465.192-2.18-2.744-1.4-3.662-1.564-.919-.162-.68-2.57-2.424-3.011-1.744-.442-2.256.628-3.802.645-1.547.018-2.024-3.017-4.215-2.616-2.192.401-1.704 1.663-2.675 2.14-.97.476-2.703-.843-3.999-.367-1.297.477-.785 2.198-2.326 2.401Z" fill="#A9C297"/><path opacity=".1" d="M155.134 46.765c-1.744.204-1.133-2.017-2.709-2.267-1.575-.25-2.157 1.482-3.116 1.163-.959-.32-.157-2.018-2.093-2.151-1.936-.134-2.54 2.523-3.761 3.052-1.221.529-3.674-.657-4.104 1.465-.431 2.122 3.854 3.093 6.877 4.779 3.023 1.686 6.238 4.168 9.058 4.162 3.017 0 4.447-1.89 6.766-2.058 2.32-.169 7.523 1.57 9.883-.308 2.361-1.878 6.111-3.285 6.302-5.465.192-2.18-2.744-1.4-3.662-1.564-.919-.162-.68-2.57-2.424-3.011-1.744-.442-2.256.628-3.802.645-1.547.018-2.024-3.017-4.215-2.616-2.192.401-1.704 1.663-2.675 2.14-.97.476-2.703-.843-3.999-.367-1.297.477-.785 2.198-2.326 2.401Z" fill="#000"/><path d="M162.023 48.614c1.773.198 1.163-2.023 2.773-2.273 1.611-.25 2.221 1.465 3.209 1.163.989-.303.152-2.012 2.14-2.157 1.988-.146 2.627 2.5 3.872 3.034 1.244.535 3.773-.668 4.226 1.448.453 2.116-3.947 3.116-7.04 4.814-3.093 1.697-6.395 4.197-9.302 4.209-3.104 0-4.581-1.866-6.976-2.023-2.395-.157-7.732 1.61-10.18-.262-2.447-1.872-6.301-3.256-6.505-5.436-.203-2.18 2.814-1.412 3.756-1.575.941-.163.686-2.576 2.476-3.03 1.791-.453 2.326.617 3.913.629 1.587.011 2.063-3.023 4.319-2.634 2.256.39 1.744 1.651 2.756 2.122 1.011.471 2.779-.854 4.11-.383 1.331.47.872 2.18 2.453 2.354Z" fill="#A9C297"/><path d="M142.409 47.76a3.328 3.328 0 0 0-1.111 4.272c.82 1.803 3.163 1.71 4.325 1.018 1.163-.692 2.215-2.53 1.367-4.203-.739-1.448-2.489-2.285-4.581-1.088Z" fill="#FF6868"/><path opacity=".1" d="M142.409 47.76a3.328 3.328 0 0 0-1.111 4.272c.82 1.803 3.163 1.71 4.325 1.018 1.163-.692 2.215-2.53 1.367-4.203-.739-1.448-2.489-2.285-4.581-1.088Z" fill="#000"/><path d="M142.722 48.236a2.722 2.722 0 0 0-.907 3.488c.675 1.471 2.588 1.396 3.535.832a2.73 2.73 0 0 0 1.111-3.436c-.599-1.18-2.029-1.89-3.739-.884Z" fill="#FF6868"/><path d="M144.618 49.143c.081.07.389-.163.232-.29-.157-.129-.325.197-.232.29ZM145.199 50.806c-.046.093.25.331.337.15.087-.18-.25-.272-.337-.15ZM145.955 50.213c0 .104.395.145.366-.053-.029-.197-.384-.081-.366.053ZM144.653 48.428c.104 0 .145-.395-.053-.366-.197.029-.081.378.053.366ZM142.728 49.66c.029-.098-.302-.29-.36-.098-.058.191.314.226.36.098ZM143.42 51.852c-.081-.064-.378.18-.221.297.157.116.326-.21.221-.297ZM144.106 51.794c-.105 0-.261.326-.064.36.198.035.198-.36.064-.36ZM143.484 50.201c.081-.07-.116-.401-.256-.262-.139.14.157.355.256.262Z" fill="#fff"/><path d="M141.391 50.346s1.895-.098 2.122.297c.227.395-1.215 1.988-1.424 1.831-.21-.157-.959-1.506-.698-2.128Z" fill="#FF6868"/><path opacity=".1" d="M141.391 50.346s1.895-.098 2.122.297c.227.395-1.215 1.988-1.424 1.831-.21-.157-.959-1.506-.698-2.128Z" fill="#000"/><path d="M144.461 53.032s-.448-1.843-.099-2.14c.349-.296 2.174.826 2.058 1.065-.117.238-1.302 1.197-1.959 1.075Z" fill="#FF6868"/><path opacity=".1" d="M144.461 53.032s-.448-1.843-.099-2.14c.349-.296 2.174.826 2.058 1.065-.117.238-1.302 1.197-1.959 1.075Z" fill="#000"/><path d="M147.054 49.84s-1.867.338-2.14 0c-.273-.337.948-2.127 1.163-1.993.215.133 1.134 1.348.977 1.994Z" fill="#FF6868"/><path opacity=".1" d="M147.054 49.84s-1.867.338-2.14 0c-.273-.337.948-2.127 1.163-1.993.215.133 1.134 1.348.977 1.994Z" fill="#000"/><path d="M144.071 47.457s.337 1.866-.029 2.134c-.366.267-2.128-.948-1.994-1.163.134-.215 1.372-1.134 2.023-.97Z" fill="#FF6868"/><path opacity=".1" d="M144.071 47.457s.337 1.866-.029 2.134c-.366.267-2.128-.948-1.994-1.163.134-.215 1.372-1.134 2.023-.97Z" fill="#000"/><path d="M153.716 44.574a3.338 3.338 0 0 0-3.86 2.145c-.733 1.837.953 3.488 2.255 3.83 1.303.344 3.355-.145 3.977-1.918.54-1.529-.041-3.395-2.372-4.057Z" fill="#FF6868"/><path opacity=".1" d="M153.716 44.574a3.338 3.338 0 0 0-3.86 2.145c-.733 1.837.953 3.488 2.255 3.83 1.303.344 3.355-.145 3.977-1.918.54-1.529-.041-3.395-2.372-4.057Z" fill="#000"/><path d="M153.588 45.126a2.726 2.726 0 0 0-3.151 1.744c-.581 1.5.779 2.831 1.843 3.128 1.064.296 2.738-.122 3.25-1.564.442-1.244-.035-2.767-1.942-3.308Z" fill="#FF6868"/><path d="M154.251 47.143c0 .105.383.169.366 0-.018-.168-.372-.151-.366 0ZM153.46 48.707c-.105.029-.07.419.116.349s.012-.384-.116-.349ZM154.39 48.83c-.07.08.169.383.291.226.122-.157-.18-.332-.291-.227ZM154.78 46.655c.081.07.389-.163.232-.29-.157-.129-.331.197-.232.29ZM152.559 46.114c.099-.046 0-.418-.174-.325-.175.093.052.383.174.325ZM151.454 48.132c0-.105-.389-.157-.366.046.023.203.378.087.366-.046ZM151.989 48.562c-.052-.087-.418.035-.308.203.111.169.384-.087.308-.203ZM152.693 47.038c.104 0 .209-.366 0-.372-.21-.005-.134.36 0 .373Z" fill="#fff"/><path d="M151.146 45.62s1.378 1.302 1.244 1.744c-.133.442-2.273.5-2.325.233-.052-.268.465-1.721 1.081-1.977Z" fill="#FF6868"/><path opacity=".1" d="M151.146 45.62s1.378 1.302 1.244 1.744c-.133.442-2.273.5-2.325.233-.052-.268.465-1.721 1.081-1.977Z" fill="#000"/><path d="M151.321 49.695s1.023-1.599 1.476-1.546c.454.052.907 2.14.657 2.22-.25.082-1.767-.116-2.133-.674Z" fill="#FF6868"/><path opacity=".1" d="M151.321 49.695s1.023-1.599 1.476-1.546c.454.052.907 2.14.657 2.22-.25.082-1.767-.116-2.133-.674Z" fill="#000"/><path d="M155.413 49.37s-1.529-1.122-1.453-1.57c.076-.448 2.192-.779 2.256-.523.064.256-.221 1.761-.803 2.093Z" fill="#FF6868"/><path opacity=".1" d="M155.413 49.37s-1.529-1.122-1.453-1.57c.076-.448 2.192-.779 2.256-.523.064.256-.221 1.761-.803 2.093Z" fill="#000"/><path d="M155.082 45.562s-1.116 1.529-1.564 1.46c-.447-.07-.779-2.198-.523-2.262.256-.064 1.756.22 2.087.802Z" fill="#FF6868"/><path opacity=".1" d="M155.082 45.562s-1.116 1.529-1.564 1.46c-.447-.07-.779-2.198-.523-2.262.256-.064 1.756.22 2.087.802Z" fill="#000"/><path d="M157.669 53.77a3.331 3.331 0 0 0 4.413.082c1.558-1.215.924-3.488 0-4.442-.925-.953-2.977-1.558-4.401-.343-1.262 1.053-1.698 2.96-.012 4.704Z" fill="#FF6868"/><path opacity=".1" d="M157.669 53.77a3.331 3.331 0 0 0 4.413.082c1.558-1.215.924-3.488 0-4.442-.925-.953-2.977-1.558-4.401-.343-1.262 1.053-1.698 2.96-.012 4.704Z" fill="#000"/><path d="M158.053 53.358a2.72 2.72 0 0 0 3.604.064c1.279-.994.756-2.837 0-3.628a2.728 2.728 0 0 0-3.598-.279c-1.029.86-1.378 2.419-.006 3.843Z" fill="#FF6868"/><path d="M158.489 51.294c.052-.093-.245-.343-.332-.163-.087.18.268.28.332.163ZM159.965 50.323c.105.03.274-.32.076-.36-.198-.041-.204.331-.076.36ZM159.227 49.753c.099-.035.047-.418-.139-.343-.186.076.011.39.139.343ZM157.791 51.434c-.035-.1-.419-.047-.343.14.076.185.39-.007.343-.14ZM159.442 53.02c-.105 0-.215.361 0 .373.215.011.134-.36 0-.372ZM161.413 51.835c-.046.093.256.325.337.145.082-.18-.273-.273-.337-.145ZM161.163 51.213c0 .104.378.18.372 0-.006-.18-.372-.163-.372 0ZM159.791 52.154c-.087-.058-.366.21-.198.314.169.105.308-.238.198-.314Z" fill="#fff"/><path d="M160.419 54.154s-.541-1.814-.204-2.128c.338-.313 2.215.716 2.111.96-.105.244-1.25 1.261-1.907 1.168Z" fill="#FF6868"/><path opacity=".1" d="M160.419 54.154s-.541-1.814-.204-2.128c.338-.313 2.215.716 2.111.96-.105.244-1.25 1.261-1.907 1.168Z" fill="#000"/><path d="M162.314 50.55s-1.686.866-2.058.581c-.372-.285.291-2.325.581-2.25.291.076 1.442 1 1.477 1.669Z" fill="#FF6868"/><path opacity=".1" d="M162.314 50.55s-1.686.866-2.058.581c-.372-.285.291-2.325.581-2.25.291.076 1.442 1 1.477 1.669Z" fill="#000"/><path d="M158.605 48.771s.762 1.744.477 2.087c-.285.343-2.291-.43-2.215-.68.075-.25 1.075-1.413 1.738-1.407Z" fill="#FF6868"/><path opacity=".1" d="M158.605 48.771s.762 1.744.477 2.087c-.285.343-2.291-.43-2.215-.68.075-.25 1.075-1.413 1.738-1.407Z" fill="#000"/><path d="M156.983 52.23s1.744-.762 2.087-.47c.343.29-.43 2.284-.686 2.214-.256-.07-1.407-1.075-1.401-1.744Z" fill="#FF6868"/><path opacity=".1" d="M156.983 52.23s1.744-.762 2.087-.47c.343.29-.43 2.284-.686 2.214-.256-.07-1.407-1.075-1.401-1.744Z" fill="#000"/><path d="M173.848 47.666a3.325 3.325 0 0 0-3.918 2.03c-.791 1.819.849 3.487 2.139 3.894 1.291.407 3.36-.052 4.035-1.796.587-1.517.058-3.4-2.256-4.128Z" fill="#FF6868"/><path opacity=".1" d="M173.848 47.666a3.325 3.325 0 0 0-3.918 2.03c-.791 1.819.849 3.487 2.139 3.894 1.291.407 3.36-.052 4.035-1.796.587-1.517.058-3.4-2.256-4.128Z" fill="#000"/><path d="M173.685 48.213a2.727 2.727 0 0 0-3.203 1.663c-.645 1.482.692 2.854 1.744 3.18a2.734 2.734 0 0 0 3.296-1.471c.489-1.239.076-2.773-1.837-3.372Z" fill="#FF6868"/><path d="M174.307 50.236c0 .105.384.18.372 0-.011-.18-.372-.134-.372 0ZM173.47 51.794c-.099 0-.081.413.111.355.192-.059.023-.396-.111-.355ZM174.395 51.94c-.07.075.157.389.284.232.128-.157-.191-.331-.284-.233ZM174.848 49.777c.076.07.39-.157.238-.285-.151-.128-.331.192-.238.285ZM172.651 49.172c.093-.046 0-.424-.163-.337-.163.087.035.39.163.337ZM171.482 51.154c0-.104-.384-.168-.366.035.017.204.378.1.366-.035ZM172.011 51.602c-.052-.093-.418 0-.314.192.105.192.378-.07.314-.192ZM172.755 50.096c.105 0 .221-.354 0-.366-.221-.011-.139.355 0 .366Z" fill="#fff"/><path d="M171.25 48.637s1.337 1.343 1.191 1.773c-.145.43-2.284.43-2.325.163-.041-.267.511-1.686 1.134-1.936Z" fill="#FF6868"/><path opacity=".1" d="M171.25 48.637s1.337 1.343 1.191 1.773c-.145.43-2.284.43-2.325.163-.041-.267.511-1.686 1.134-1.936Z" fill="#000"/><path d="M171.302 52.712s1.069-1.563 1.523-1.505c.453.058.849 2.168.581 2.244-.267.075-1.755-.169-2.104-.739Z" fill="#FF6868"/><path opacity=".1" d="M171.302 52.712s1.069-1.563 1.523-1.505c.453.058.849 2.168.581 2.244-.267.075-1.755-.169-2.104-.739Z" fill="#000"/><path d="M175.429 52.509s-1.494-1.163-1.407-1.61c.088-.448 2.215-.715 2.274-.46.058.256-.285 1.75-.867 2.07Z" fill="#FF6868"/><path opacity=".1" d="M175.429 52.509s-1.494-1.163-1.407-1.61c.088-.448 2.215-.715 2.274-.46.058.256-.285 1.75-.867 2.07Z" fill="#000"/><path d="M175.185 48.695s-1.163 1.494-1.604 1.407c-.442-.087-.715-2.215-.46-2.273.256-.058 1.727.273 2.064.866Z" fill="#FF6868"/><path opacity=".1" d="M175.185 48.695s-1.163 1.494-1.604 1.407c-.442-.087-.715-2.215-.46-2.273.256-.058 1.727.273 2.064.866Z" fill="#000"/><path d="M164.209 48.765a3.327 3.327 0 0 0 4.413.081c1.558-1.22.918-3.488 0-4.447-.919-.96-2.977-1.558-4.407-.343-1.262 1.058-1.692 2.965-.006 4.71Z" fill="#FF6868"/><path opacity=".1" d="M164.209 48.765a3.327 3.327 0 0 0 4.413.081c1.558-1.22.918-3.488 0-4.447-.919-.96-2.977-1.558-4.407-.343-1.262 1.058-1.692 2.965-.006 4.71Z" fill="#000"/><path d="M164.593 48.346a2.715 2.715 0 0 0 3.604.07c1.274-1 .756-2.842 0-3.633-.755-.79-2.43-1.273-3.598-.28-1.029.861-1.378 2.42-.006 3.843Z" fill="#FF6868"/><path d="M165.029 46.283c.046-.093-.25-.343-.331-.163-.082.18.267.285.331.163ZM166.505 45.318c.105 0 .268-.326.076-.367-.192-.04-.209.332-.076.367ZM165.762 44.742c.098-.035.052-.418-.134-.343-.186.076.006.419.134.343ZM164.331 46.428c-.035-.099-.418-.052-.343.134.076.186.396 0 .343-.134ZM165.977 48.01c-.105 0-.216.366 0 .371.215.006.151-.36 0-.372ZM167.947 46.823c-.046.093.262.332.343.146.082-.186-.279-.268-.343-.146ZM167.703 46.178c0 .105.378.18.366 0-.011-.18-.372-.134-.366 0ZM166.331 47.143c-.087-.064-.366.204-.198.314.169.11.309-.233.198-.314Z" fill="#fff"/><path d="M166.953 49.149s-.535-1.82-.203-2.128c.331-.308 2.215.715 2.11.953-.105.239-1.244 1.262-1.907 1.175Z" fill="#FF6868"/><path opacity=".1" d="M166.953 49.149s-.535-1.82-.203-2.128c.331-.308 2.215.715 2.11.953-.105.239-1.244 1.262-1.907 1.175Z" fill="#000"/><path d="M168.854 45.539s-1.692.866-2.058.581c-.366-.285.291-2.325.582-2.256.29.07 1.436 1.012 1.476 1.675Z" fill="#FF6868"/><path opacity=".1" d="M168.854 45.539s-1.692.866-2.058.581c-.366-.285.291-2.325.582-2.256.29.07 1.436 1.012 1.476 1.675Z" fill="#000"/><path d="M165.145 43.766s.762 1.744.471 2.08c-.291.338-2.285-.424-2.215-.68.07-.255 1.076-1.406 1.744-1.4Z" fill="#FF6868"/><path opacity=".1" d="M165.145 43.766s.762 1.744.471 2.08c-.291.338-2.285-.424-2.215-.68.07-.255 1.076-1.406 1.744-1.4Z" fill="#000"/><path d="M163.517 47.219s1.744-.762 2.087-.471c.343.29-.424 2.29-.68 2.215-.256-.076-1.407-1.076-1.407-1.744Z" fill="#FF6868"/><path opacity=".1" d="M163.517 47.219s1.744-.762 2.087-.471c.343.29-.424 2.29-.68 2.215-.256-.076-1.407-1.076-1.407-1.744Z" fill="#000"/><path d="m137.391 51.23 8.61 13.354 24.603-.058 8.552-13.4-41.765.104Z" fill="#fff"/><path d="M205.555 49.585c-.372-2.948.25-9.302 3.099-10.197 2.849-.895 5.418 5.232 5.738 10.133.192 2.907-.448 7.156-3.488 7.476-3.157.331-5.017-4.75-5.349-7.412Z" fill="#FFD3C9"/><path d="M211.909 43.795c2.366 12.708 1.163 25.463-1.162 27.381-4.448 3.663-30.155.68-35.353.808-2.244.053.198-17.022 2.588-17.266 2.784-.285 23.928 4.97 24.661 3.698.418-.721.953-5.61 2.831-13.098 2.546-10.209 5.767-5.122 6.435-1.523Z" fill="#FFD3C9"/><path d="M151.594 66.206a.869.869 0 0 1 .581-.582c-1.069-.965-1.692-2-1.163-2.906a1.611 1.611 0 0 1 1.663-.675 1.222 1.222 0 0 1-.122-1.668c.756-.93 3.418-.349 5.988.523-1.668-.878-2.907-1.878-2.25-2.744 1.744-2.29 7.273.267 11.278 1.47 1.234.407 2.521.63 3.82.664.195-.003.39-.024.581-.064.524-.1.896-.332.977-.762.151-.762-1.436-1.57-2.616-1.744-2.238-.355-4.744-2.785-4.535-4.192.303-2.052 5.326-.546 7.203-.459 2.518.116 6.506 1.744 6.808 1.802 0 0 .227 1.553.413 3.727.366 4.14.581 10.522-1.035 12.615 0 0-8.174 2.669-16.452 2.669-2.808-.064-12.116-4.97-11.139-7.674Z" fill="#FFD3C9"/><path d="M167.779 64.095a10.24 10.24 0 0 1-4.698-.668c-2.063-.762-3.005-1.593-4.831-2.634a.049.049 0 0 1-.013-.01.04.04 0 0 1-.007-.015c-.002-.005-.003-.011-.002-.017a.04.04 0 0 1 .016-.029.039.039 0 0 1 .014-.008.043.043 0 0 1 .033.004c.866.494 3.843 2.011 4.738 2.4a9.883 9.883 0 0 0 4.75.948v.03ZM166.883 67.723a23.069 23.069 0 0 1-5.232-.651c-2.11-.523-3.953-1.744-5.755-2.907a78.886 78.886 0 0 1-3.209-2.18c-.041-.035 0-.11.04-.075a111.751 111.751 0 0 0 5.622 3.488 15.425 15.425 0 0 0 5.732 1.988c1.163.157 1.64.261 2.802.326.024-.018.024.011 0 .011ZM165.994 71.06c-1.883.052-3.558.145-5.377-.453a22.9 22.9 0 0 1-5.483-2.907 68.608 68.608 0 0 1-2.906-2.064c-.041-.029 0-.099.046-.07a62.529 62.529 0 0 0 6.785 4.174 9.69 9.69 0 0 0 3.197 1.088c1.239.18 2.492.255 3.744.22 0 0 0 .012-.006.012ZM177.348 53.957c.837.232 1.668.488 2.5.738 1.285.215 2.569.407 3.848.645 1.279.239 2.564.454 3.837.715 1.273.262 2.552.494 3.826.78 1.273.284 2.54.58 3.807.871a106.997 106.997 0 0 1-3.866-.581 409.347 409.347 0 0 1-3.842-.669c-1.279-.226-2.558-.488-3.831-.738-1.274-.25-2.547-.529-3.82-.802-.843-.32-1.657-.628-2.459-.96ZM213.217 55.579c-.22-1.297-.343-2.593-.447-3.895a62.035 62.035 0 0 1-.209-3.913 20.05 20.05 0 0 1 .645 3.878c.108 1.307.112 2.621.011 3.93Z" fill="#000"/><path d="M213.177 48.155c.104.51.134 1.033.087 1.552a4.587 4.587 0 0 1-.366 1.511v-.773c0-.256.035-.511.052-.761.044-.514.12-1.025.227-1.53Z" fill="#000"/><path d="M130.136 153.531c1.262.738 40.114 8.854 41.765 8.226.639-.232 2.151-5.813 3.784-12.621.355-1.471.709-2.988 1.064-4.529 2.302-10.017 4.494-20.725 4.494-20.725l-25.952-5.506-3.796 20.865-.837 4.581s-16.278 3.541-18.022 4.424c-1.744.884-3.761 4.558-2.5 5.285Z" fill="#FFD3C9"/><path d="M175.057 151.746c-1.383 5.575-2.604 9.819-3.156 10.023-1.675.628-40.503-7.494-41.765-8.232-1.261-.739.756-4.378 2.512-5.267 1.087-.547 7.691-2.105 12.592-3.215-4.279 1.023-12.267 3.924 4.249 5.116 13.656.994 22.667 1.447 25.568 1.575Z" fill="#000"/><path d="M165.18 173.402c1.407.389 41.02-1.657 42.48-2.692.581-.39-.971-16.278-1.384-17.819-1.407-5.179-8.098-20.789-8.098-20.789l-26.504 1.291 10.889 25.37s-14.819 7.558-16.278 8.872c-1.46 1.313-2.483 5.371-1.105 5.767Z" fill="#FFD3C9"/><path d="M207.66 170.71c-1.46 1.035-41.073 3.081-42.486 2.692-1.413-.39-.389-4.436 1.087-5.744.692-.582 4.273-2.564 7.901-4.488-4.552 2.558-11.761 8.278 33.085-1.913.407 4.535.738 9.244.413 9.453Z" fill="#000"/><path d="M226.629 95.052c-7.895 8.796-34.422 1.85-36.003 5.349-1.401 3.087 16.702 52.659 16.702 52.659l-28.992 3.122s-24.998-54.746-16.063-70.559c4.825-8.546 26.097-5.14 38.951-6.703 3.872-.47 5.691-8.459 5.691-8.459h22.941s5.802 14.54-3.227 24.591Z" fill="#FFB445"/><path d="m170.348 80.722 24.324 18.604c8.075-.17 25.76 2.627 31.975-4.28 9.028-10.05 3.238-24.59 3.238-24.59h-22.958s-1.819 7.987-5.691 8.458c-9.011 1.099-22.167-.244-30.888 1.808Z" fill="#FFB445"/><path d="M177.255 149.717c.796-.25 8.307-1.087 9.964-1.261 3.32-.361 13.755-1.337 15.65-1.332.009.004.017.01.022.017a.046.046 0 0 1 .009.027c0 .01-.003.019-.009.027a.054.054 0 0 1-.022.017c-1.639.348-8.302 1.122-9.958 1.296-3.32.337-14.726 1.448-15.65 1.355a.075.075 0 0 1-.041-.026.068.068 0 0 1-.017-.045.075.075 0 0 1 .052-.075ZM187.109 97.5c1.866-.924 15.981-.47 26.114-1.418 3.302-.309 6.61-1.012 9.127-3.175a15.035 15.035 0 0 0 4.512-7.43c.976-3.458.872-7.069.709-10.615-.041-.872-.105-1.744-.157-2.616 0-.046.087-.058.093 0 .767 6.348 1.36 13.44-2.773 18.946a13.254 13.254 0 0 1-7.383 4.843c-6.11 1.61-29.068 1.21-29.893 1.831-.966.739 13.888 45.927 14.179 46.811.058.163-.227.273-.297.11-1.465-3.465-15.853-46.485-14.231-47.287Z" fill="#000"/><path d="M161.256 87.152c1.366-3.488 4.482-5.628 9.063-6.453.076 0 .07.099 0 .122-3.994 1.163-6.854 2.773-8.429 6.15-.733 1.576-1.111 3.791-1.303 6.762-.953 14.801 11.965 48.403 12.209 48.991a.042.042 0 0 1-.003.031.05.05 0 0 1-.021.022.048.048 0 0 1-.031.004.048.048 0 0 1-.027-.017c-1.802-3.063-17.097-41.305-11.458-55.612Z" fill="#A9C297"/><path d="m150.78 137.939 21.935 4.651s-17.302-51.648-9.174-58.31c2.25-1.849 7.162-2.494 12.999.03 8.72 3.76 18.801 11.434 28.312 14.242 8.906 2.628 19.481.215 23.12-3.79 7.645-8.418 1.895-24.318 1.895-24.318l-31.544-1.163s.471.384-1.035 1.744c0 0-18.545-4.203-26.597.715-14.533 8.848-19.911 66.199-19.911 66.199Z" fill="#FFB445"/><path d="M216.24 72.298a.065.065 0 0 1 .021-.029.06.06 0 0 1 .069 0c.01.008.017.018.021.03-.031 1.186.06 2.372.273 3.54a6.081 6.081 0 0 0 1.581 2.936c1.744 1.744 4.215 2.325 6.482 3.063.117.035.093.245-.04.227-2.512-.39-5.157-1.023-6.977-2.907a6.108 6.108 0 0 1-1.622-3.168 7.477 7.477 0 0 1 .192-3.692Z" fill="#A9C297"/><path d="M164.081 83.303c3.378-2.116 8.645-.505 11.168.46.058 0 .029.104 0 .087-2.325-.837-8.098-2.099-11.185.087-7.139 5.058 2.412 39.631 8.674 58.665.098.296-.134.215-.268-.07-1.035-2.256-9.104-26.301-11.214-42.212-.361-2.442-2.035-13.964 2.825-17.017Z" fill="#000"/><path d="M153.28 132.102c.662 0 6.348 1.239 7.604 1.518 2.506.581 8.307 2.069 9.662 2.587.035 0 0 .087 0 .087-1.302-.128-4.331-.791-5.575-1.082-2.506-.581-11.075-2.639-11.709-2.97-.075-.029-.046-.134.018-.14ZM165.157 82.408c2.267-1.244 4.97-1.442 7.488-1.163a26.242 26.242 0 0 1 7.656 2.396c5.128 2.325 10.017 5.232 15.156 7.557 5.139 2.326 10.557 4.134 16.191 4.308 4.807.151 10.9-.698 13.993-5.029 4.767-6.668 1.994-18.167 1.936-18.911 0-.058.075-.053.087 0 3.697 14.138-1.058 19.626-4.273 21.934-2.546 1.832-6.215 2.326-8.633 2.5-5.599.471-11.214-.901-16.406-2.965-5.319-2.122-10.307-4.976-15.406-7.557-4.883-2.5-10.33-5.076-15.911-3.645a13.65 13.65 0 0 0-1.855.633c-.035.006-.052-.046-.023-.058Z" fill="#000"/><path d="m64.42 99.058 1.552 9.29 10.494 56.665h1.691l-7.633-56.665-1.128-9.29H64.42Z" fill="#999"/><path d="M69.396 99.058H64.42l1.552 9.29h4.552l-1.128-9.29Z" fill="#666"/><path d="M31.474 165.013h1.692l10.488-56.665 1.552-9.29H40.23l-1.128 9.29-7.627 56.665Z" fill="#FEE3C5"/><path d="m40.23 99.058-1.128 9.29h4.552l1.552-9.29H40.23Z" fill="#666"/><path d="M0 165.013h1.692l10.493-56.665 1.547-9.29H8.76l-1.128 9.29L0 165.013Z" fill="#FEE3C5"/><path d="M7.633 108.348h4.552l1.547-9.29H8.76l-1.128 9.29Z" fill="#666"/><path d="M2.686 103.424H79.57V95.32H50.787l-9.674-56.275H5.616l-2.93 64.379Z" fill="#FEE3C5"/><path opacity=".2" d="M31.475 165.013h1.691l10.488-56.665 1.552-9.29H40.23l-1.128 9.29-7.627 56.665ZM0 165.013h1.692l10.493-56.665 1.547-9.29H8.76l-1.128 9.29L0 165.013Z" fill="#000"/><path opacity=".2" d="M2.686 103.424H79.57V95.32H50.787l-9.674-56.275H5.616l-2.93 64.379Z" fill="#000"/><path d="M2.686 103.424h4.186l2.732-64.38H5.616l-2.93 64.38Z" fill="#666"/><path d="M72.786 136.253H5.488v1.727h67.298v-1.727Z" fill="#999"/><path d="M73.25 169.809c-1.365.174-39.026-7.622-40.24-8.802-.152-.128.482-3.552 1.424-8.214v-.093c.581-2.96 10.772-27.051 10.772-27.051l24.417 6.04-10.354 22.377s4.65 3.157 8.662 6.168a53.76 53.76 0 0 1 5.064 4.069c1.238 1.436 1.622 5.36.256 5.506Z" fill="#FFD3C9"/><path d="M73.25 169.809c-1.365.174-39.026-7.622-40.246-8.802-.146-.134.494-3.546 1.43-8.214v-.093c.215-1.099 1.744-5.145 3.633-9.779 4.023.954 18.435 4.389 23.673 5.843l-2.448 5.302s4.651 3.162 8.662 6.168a53.76 53.76 0 0 1 5.064 4.069c1.215 1.436 1.605 5.36.233 5.506Z" fill="#fff"/><path d="M73.379 169.995c-1.407.163-39.097-7.732-40.346-8.941-.471-.454.18-6.395 2.04-12.703l24.295 5.122s12.58 9.36 13.83 10.854c1.25 1.494 1.587 5.482.18 5.668Z" fill="#FEE3C5"/><path d="M73.152 168.373c-6.285-1.477-31.771-6.848-38.096-7.831-.053 0-.058 0 0 .035 6.197 1.604 31.73 6.767 38.09 7.901.122.023.14-.07.006-.105ZM61.217 154.519c-2.523-.581-5.64-.285-7.645 1.454-.082.064 0 .174.099.151a35.805 35.805 0 0 1 7.522-1.285.161.161 0 0 0 .1-.049.16.16 0 0 0 .016-.208.167.167 0 0 0-.092-.063ZM63.007 155.688c-2.523-.582-5.639-.285-7.645 1.453-.075.07 0 .175.105.157a35.427 35.427 0 0 1 7.517-1.291.163.163 0 0 0 .023-.319ZM64.798 156.862c-2.517-.581-5.64-.291-7.645 1.448-.076.069 0 .18.105.157a35.412 35.412 0 0 1 7.522-1.285.163.163 0 0 0 .11-.259.166.166 0 0 0-.092-.061ZM66.594 158.031c-2.523-.582-5.639-.285-7.645 1.453-.081.064 0 .174.1.151a35.937 35.937 0 0 1 7.522-1.285.165.165 0 0 0 .1-.048.163.163 0 0 0-.077-.271Z" fill="#000"/><path d="m60.28 154.694-25.94-6.139s22.307-51.119 20.406-53.642c-.948-1.267-25.103-1.64-32.782-8.139-9.982-8.465-3.285-21.4-3.285-21.4l26.975-.802s-.326 5.645.726 6.494c.692.581 32.83 3.273 36.364 14.12 4.32 13.28-22.463 69.508-22.463 69.508Z" fill="#000"/><path d="M60.275 150.659c-.68-.32-7.4-2.291-8.907-2.68a346.096 346.096 0 0 0-9.133-2.238c-1.593-.361-5.005-1.163-5.232-1.122-.104 0-.122.192 0 .221 2.96.976 5.965 1.802 8.965 2.639 3 .837 13.336 3.331 14.243 3.389.075.006.157-.162.064-.209ZM59.362 92.675c-.54-.465-1.355-.518-2.035-.634l-11.68-1.96c-3.644-.61-7.307-1.162-10.934-1.86-3.006-.58-6.058-1.36-8.657-2.988a12.58 12.58 0 0 1-5.302-6.947 22.434 22.434 0 0 1-.686-8.9c.07-.727.204-1.454.337-2.169 0-.052-.075-.07-.087 0-.988 5.535-1.075 11.953 3.07 16.36 2.017 2.15 4.79 3.412 7.621 4.232 3.198.924 6.535 1.36 9.814 1.907 3.875.65 7.769 1.302 11.68 1.953 1.871.314 3.778.581 5.632.942.38.046.737.206 1.024.46a1.441 1.441 0 0 1 .162 1.348 34.091 34.091 0 0 1-.697 2.726c-2.128 7.261-18.476 45.741-18.894 46.509-.047.087.087.151.134.069 3.569-6.394 15.97-36.962 18.33-43.828a44.14 44.14 0 0 0 1.528-5.348c.128-.651.21-1.384-.36-1.872Z" fill="#fff"/><path d="M111.835 171.46c-1.308.436-39.764.296-41.189-.616-.168-.099-.232-3.576-.238-8.337v-.093c0-3.017-.936-28.789-.936-28.789l24.068-.197 1.5 25.376s5.191 2.168 9.72 4.319a53.711 53.711 0 0 1 5.773 2.965c1.453 1.174 2.61 4.942 1.302 5.372Z" fill="#FFD3C9"/><path d="M111.835 171.454c-1.308.442-39.764.302-41.189-.61-.174-.099-.232-3.576-.238-8.337v-1.884c-.047-1.999-.151-5.232-.268-8.819l24.522-.157.418 7.157s5.192 2.168 9.721 4.319a53.623 53.623 0 0 1 5.767 2.965c1.418 1.174 2.581 4.942 1.267 5.366Z" fill="#fff"/><path d="M111.998 171.605c-1.349.442-39.858.204-41.317-.732-.581-.355-1.099-6.296-.535-12.854l24.83.18s14.22 6.686 15.696 7.883c1.477 1.198 2.669 5.081 1.326 5.523Z" fill="#FEE3C5"/><path d="M111.48 170.059c-6.453-.198-32.503-.39-38.898-.093-.052 0-.052.04 0 .04 6.395.338 32.445.314 38.898.157.111 0 .111-.098 0-.104ZM96.993 158.856c-2.581-.052-5.58.843-7.203 2.948-.064.081.052.168.134.127a36.167 36.167 0 0 1 7.11-2.755.164.164 0 0 0 .118-.178.16.16 0 0 0-.053-.1.161.161 0 0 0-.106-.042ZM98.981 159.647c-2.58-.053-5.58.843-7.203 2.947-.058.082.059.169.134.128a36.018 36.018 0 0 1 7.116-2.755.166.166 0 0 0 .093-.068.165.165 0 0 0-.03-.214.165.165 0 0 0-.11-.038ZM100.975 160.437c-2.587-.052-5.586.843-7.203 2.948-.064.081.053.168.128.128a35.325 35.325 0 0 1 7.116-2.756.156.156 0 0 0 .092-.067.164.164 0 0 0 .027-.11.164.164 0 0 0-.16-.143ZM102.964 161.228c-2.587-.052-5.587.843-7.203 2.942-.064.081.052.174.128.133a35.385 35.385 0 0 1 7.115-2.755.166.166 0 0 0 .093-.067.166.166 0 0 0 .026-.111.167.167 0 0 0-.053-.101.165.165 0 0 0-.106-.041Z" fill="#000"/><path d="M96.365 159.17H69.233s.343-50.281-1.784-53.002c-2.837-3.628-42.526-3.54-51.037-15.371-7.645-10.627-1.163-25.661-1.163-25.661l30.056-.895a62.207 62.207 0 0 1-2.79 9.464s36.206 6.686 46.35 17.79c6.82 7.5 7.5 67.675 7.5 67.675Z" fill="#000"/><path d="M47.776 71.653a14.43 14.43 0 0 0-2.547.814c-.868.33-1.716.7-2.546 1.11-1.633.81-3.22 1.71-4.755 2.692-.047 0 0 .093.046.07 1.628-.843 3.308-1.605 4.988-2.326l2.43-1.046c.836-.319 1.655-.68 2.453-1.082.105-.063.047-.255-.07-.232Z" fill="#000"/><path d="M45.974 64.235c-.343 1.372-.646 2.755-1.041 4.11-.18.628-.355 1.262-.581 1.866-.198.512-.5 1.093-1.093 1.21-.593.116-.873-.454-.82-1.018.052-.564.227-1.256.349-1.872.14-.715.285-1.424.418-2.14l.192-1.075c0-.087.081-.773.128-.97 0 0 0 .034.04.028 0 0 .041 0 .041-.034 0-.035 0-.07-.035-.105a.052.052 0 0 0-.064 0c-.127.07-.139.25-.18.384-.11.343-.22.691-.325 1.04-.186.657-.372 1.314-.54 1.977-.17.663-.327 1.32-.49 1.982a3.093 3.093 0 0 0-.133 1.523 1.163 1.163 0 0 0 1.075.878 1.475 1.475 0 0 0-.07.134c-.063.134-.104.279-.156.418-.053.14-.099.285-.14.43-.019.07-.032.14-.04.21v.238c0 .082.15.198.209.076.058-.122.087-.122.128-.192a.824.824 0 0 0 .099-.233c.046-.133.087-.273.122-.412.035-.14.075-.28.104-.419.03-.14 0-.168 0-.25.286-.028.56-.132.791-.302.39-.33.675-.766.82-1.256.209-.581.366-1.162.529-1.744.42-1.446.712-2.927.872-4.424a.123.123 0 0 0-.087-.093.122.122 0 0 0-.122.035ZM28.097 67.59c-.122.68-.204 1.371-.36 2.046-.158.674-.332 1.32-.547 1.965a7.139 7.139 0 0 1-.837 1.744 6.838 6.838 0 0 1-1.332 1.354 11.495 11.495 0 0 1-3.226 1.797 14.4 14.4 0 0 1-1.79.523c-.315.07-.634.128-.954.168-.267.007-.53.069-.773.18a.155.155 0 0 0-.075.134.157.157 0 0 0 .075.134c.463.136.954.15 1.424.04.514-.05 1.023-.14 1.523-.267 1.022-.262 2-.67 2.907-1.209a9.129 9.129 0 0 0 2.401-1.97 6.826 6.826 0 0 0 1.29-2.82c.314-1.252.454-2.541.42-3.831-.018-.047-.134-.088-.146.011Z" fill="#000"/><path d="M73.14 123.911a315.944 315.944 0 0 0-1.064-12.79c-.11-1.052-.215-2.099-.348-3.145a9.877 9.877 0 0 0-.524-2.395c-.628-1.599-1.959-2.407-3.57-2.814-1.894-.477-3.86-.767-5.813-1.081-1.953-.314-3.959-.582-5.941-.878-4.012-.581-8.029-1.076-12.028-1.744a96.42 96.42 0 0 1-11.802-2.657c-3.552-1.075-7.191-2.4-10.034-4.866-6.116-5.302-6.343-14.185-5.593-21.62.105-1.053.233-2.1.36-3.146 0-.052-.075-.075-.08 0-.489 4.186-1.053 8.401-.634 12.616a20.644 20.644 0 0 0 3.342 9.772c2.07 2.971 5.14 4.89 8.453 6.227a66.29 66.29 0 0 0 11.255 3.25c7.936 1.656 16.028 2.366 24.01 3.732.983.168 1.965.343 2.948.535.91.135 1.801.375 2.657.715 1.813.808 2.325 2.575 2.534 4.401.523 4.232.878 8.493 1.163 12.749a350.31 350.31 0 0 1 .924 25.794v6.93c0 .093.146.081.146 0 .29-8.633.191-20.981-.36-29.585ZM95.11 155.147a15.414 15.414 0 0 0-2.25-.192c-.791-.046-1.582-.093-2.372-.122-1.558-.064-3.11-.099-4.651-.104-3.134 0-6.267 0-9.4.063-1.634.035-5.14.099-5.337.192-.093.041-.07.21.029.215 3.11.227 6.22.291 9.336.367 3.116.075 6.226.139 9.337.064.86 0 1.744-.07 2.58-.099.913.01 1.824-.046 2.727-.169.093-.011.093-.197 0-.215Z" fill="#fff"/><path d="M69.152 134.718c.087-3.901.07-7.801 0-11.697-.07-3.895-.215-7.801-.506-11.696a47.756 47.756 0 0 0-.331-2.907 16.647 16.647 0 0 0-.28-1.465 3.243 3.243 0 0 0-.267-.75 1.624 1.624 0 0 0-.633-.581 12.35 12.35 0 0 0-2.814-1.012 38.133 38.133 0 0 0-2.872-.622c-3.849-.704-7.72-1.163-11.627-1.5 1.93.285 3.86.581 5.779.89 1.918.308 3.842.645 5.743 1.046.948.209 1.896.424 2.832.674.925.217 1.821.545 2.668.977.178.085.329.218.436.384.095.198.167.407.215.622.108.466.19.938.25 1.412.134.954.221 1.925.302 2.907.338 3.872.477 7.767.64 11.662l.465 11.656Z" fill="#fff"/><path d="M42.677 73.787c5.548.67 11.031 1.795 16.394 3.366a115.017 115.017 0 0 1 15.825 5.732c2.872 1.29 5.656 2.738 8.418 4.255.052.03 0 .11-.052.082a128.986 128.986 0 0 0-15.383-6.72 124.001 124.001 0 0 0-16.022-4.652c-3.064-.668-6.15-1.162-9.238-1.697-.203-.035-.151-.39.058-.366Z" fill="#000"/><path d="M44.334 31.952c1.163 4.273 11.47 24.784 21.603 28.58 1.744.645 6.936 3.186 10.779-.872 5.191-5.477 9.662-16.778 9.987-23.115.273-5.232-14.417-3.488-15.696-.64-.96 2.128-3.157 9.261-3.593 9.075-2.855-1.203-10.558-10.162-18.662-16.19-3.75-2.796-5.337-.128-4.418 3.162Z" fill="#FFD3C9"/><path d="M66.083 48.038c.127-.447.285-.89.453-1.32.353-.829.781-1.625 1.279-2.377 0-.035.087 0 .064.035-.401.796-.72 1.634-1.07 2.453-.168.401-.337.814-.494 1.221-.157.407-.343.843-.482 1.267h-.047c.093-.43.174-.86.297-1.279Z" fill="#000"/><path d="M86.628 37.522s.767-6.802-.989-11.627c-1.215-3.36-4.65-10.372-15.15-12.342-2.488-.471-6.36.627-2.575 2.866 2.686 1.587 4.866 1.784 6.261 2.994 0 0-4.761 1.976-5.133 4.488a33.451 33.451 0 0 0-.646 5.958c.357.427.839.73 1.378.867 0 0-.273 2.36 1.994 5.174l14.86 1.622Z" fill="#FFD3C9"/><path d="M56.56 18.657a3.767 3.767 0 0 0-1.674 4.703c.75 2.11 3.395 2.232 4.772 1.57 1.378-.663 2.739-2.634 1.948-4.599-.703-1.727-2.575-2.872-5.046-1.674Z" fill="#FFB445"/><path opacity=".1" d="M56.56 18.657a3.767 3.767 0 0 0-1.674 4.703c.75 2.11 3.395 2.232 4.772 1.57 1.378-.663 2.739-2.634 1.948-4.599-.703-1.727-2.575-2.872-5.046-1.674Z" fill="#000"/><path d="M56.862 19.197a3.081 3.081 0 0 0-1.36 3.843c.581 1.744 2.773 1.826 3.9 1.28 1.129-.547 2.233-2.146 1.588-3.756-.564-1.396-2.105-2.332-4.128-1.367Z" fill="#FFB445"/><path d="M58.92 20.4c.082.088.454-.144.29-.301-.162-.157-.395.197-.29.302ZM59.426 22.337c-.064.099.25.4.366.209.116-.192-.279-.343-.366-.21ZM60.321 21.744c0 .122.43.203.419 0-.012-.204-.419-.151-.419 0ZM59.019 19.604c.116 0 .203-.43 0-.418-.203.011-.157.418 0 .418ZM56.728 20.802c.047-.105-.313-.36-.389-.145-.075.215.326.29.39.145ZM57.298 23.343c-.087-.082-.447.162-.279.313.169.152.395-.203.28-.313ZM58.077 23.308c-.116-.035-.331.343-.11.4.22.059.256-.354.11-.4ZM57.53 21.488c.094-.07-.092-.465-.267-.32-.174.146.152.396.268.32Z" fill="#fff"/><path d="M55.159 21.441s2.145.082 2.325.547c.18.465-1.558 2.122-1.779 1.918-.22-.203-.877-1.761-.546-2.465Z" fill="#FFB445"/><path opacity=".1" d="M55.159 21.441s2.145.082 2.325.547c.18.465-1.558 2.122-1.779 1.918-.22-.203-.877-1.761-.546-2.465Z" fill="#000"/><path d="M58.35 24.773s-.325-2.122.094-2.419c.418-.296 2.371 1.163 2.22 1.395-.15.233-1.587 1.221-2.313 1.024Z" fill="#FFB445"/><path opacity=".1" d="M58.35 24.773s-.325-2.122.094-2.419c.418-.296 2.371 1.163 2.22 1.395-.15.233-1.587 1.221-2.313 1.024Z" fill="#000"/><path d="M61.583 21.436s-2.134.192-2.407-.244c-.273-.437 1.279-2.326 1.523-2.128.244.197 1.128 1.657.884 2.372Z" fill="#FFB445"/><path opacity=".1" d="M61.583 21.436s-2.134.192-2.407-.244c-.273-.437 1.279-2.326 1.523-2.128.244.197 1.128 1.657.884 2.372Z" fill="#000"/><path d="M58.461 18.453s.192 2.134-.244 2.407c-.436.273-2.326-1.279-2.128-1.529.198-.25 1.657-1.122 2.372-.878Z" fill="#FFB445"/><path opacity=".1" d="M58.461 18.453s.192 2.134-.244 2.407c-.436.273-2.326-1.279-2.128-1.529.198-.25 1.657-1.122 2.372-.878Z" fill="#000"/><path d="M62.275 22.552c-1.053.227-5.936.465-5.936.465l.122-.21 5.325-.825a.159.159 0 0 0-.046-.314l-4.953.582.203-.338 5.459-.93a.158.158 0 0 0 .134-.18.162.162 0 0 0-.18-.134l-5.081.698.191-.326L63.112 20a.157.157 0 0 0 .116-.18.15.15 0 0 0-.18-.128l-5.232.808.162-.274s5.297-1.162 5.907-1.22c1.087-.03-.023 3.197-1.61 3.546Z" fill="#FEE3C5"/><path d="M63.81 19.97c.744-.214 3.784-1.052 4.145-1.133.36-.081 15.045-3.418 15.597-3.354.553.063 0 1.924-.354 2.273-.355.349-14.034 2.017-15.418 2.325-1.383.308-4.22 1.035-4.22 1.035l.25-1.145Z" fill="#FEE3C5"/><path d="M84.936 25.4c-1.343-1.302-4.238-4.017-7.378-5.418-3.488-1.552-10.627-3.604-11.749-1.017-.82 1.895 1.837 2.907 1.837 2.907s-3.127-.227-3.488 1.65c-.337 1.71 1.744 2.378 1.744 2.378s-1.924.187-1.93 1.896c0 2.058 4.023 1.32 5.814 3.406.418.483 15.15-5.802 15.15-5.802Z" fill="#FFD3C9"/><path d="M76.53 23.941a15.236 15.236 0 0 0-8.82-2.104c-.075 0-.116.07-.04.081a37.519 37.519 0 0 1 8.848 2.058s.029-.023.011-.035ZM74.855 27.418c-1.354-.75-5.465-2.076-8.93-1.576-.08 0-.11.076-.034.082a40.33 40.33 0 0 1 8.953 1.529s.011-.024.011-.035Z" fill="#000"/><path d="M51.316 46.771 66.2 41.458s-12.43-10.366-18.383-13.709c-6.209-3.488-8.97-2.011-4.116 6.07 4.78 7.958 7.616 12.952 7.616 12.952Z" fill="#A9C297"/><path d="M51.403 43.853c.337-.169.704-.285 1.058-.425l1.087-.418c.733-.28 1.471-.553 2.21-.82 1.482-.535 2.959-1.075 4.447-1.581.407-.14.82-.28 1.233-.407.412-.128.877-.239 1.307-.378.03 0 .035.029 0 .04-.36.146-.714.32-1.075.466l-1.116.43c-.739.273-1.477.54-2.221.802-1.46.518-2.907 1.035-4.39 1.517l-1.232.402c-.43.145-.866.308-1.302.412-.011.006-.029-.029-.006-.04Z" fill="#000"/><path opacity=".1" d="M43.7 33.819c4.78 7.958 7.616 12.952 7.616 12.952l4.756-1.697-14.145-18.86c-1.261.692-.907 3.14 1.773 7.605Z" fill="#000"/><path d="M52.264 72.327c-.983.756-40.346-.267-40.503-.54-.157-.274 12.33-41.579 26.922-46.2 2.326-.733 8.244.087 8.854.97 5.081 7.39 5.349 45.294 4.727 45.77Z" fill="#A9C297"/><path opacity=".2" d="m51.52 45.085-28.487-1.663c.233-.441.465-.877.71-1.313l27.631 1.61c.058.453.099.907.146 1.366ZM51.694 47.172l-29.65-1.744c.106-.22.222-.442.332-.663l29.295 1.71.023.697ZM51.223 42.219l-26.672-1.558.383-.657 26.213 1.53c.03.226.059.458.076.685Z" fill="#000"/><path d="M45.165 32.249c-2.215.064-5.168-3.919-6.051-6.831-.064-.198.58-2.029 1.313-4.296.425-1.372.86-2.907 1.163-4.349l8.552 4.07a23.39 23.39 0 0 0-2.018 5.33 3.82 3.82 0 0 0-.063.582.583.583 0 0 1 0 .099c-.064 1.168-.756 5.337-2.896 5.395Z" fill="#FFD3C9"/><path d="M42.172 17.046c-.123 2.134-.064 8.517 4.941 9.68.31.072.625.118.942.14a.495.495 0 0 1 0-.1c-.001-.195.018-.39.058-.58a22.993 22.993 0 0 1 2.017-5.326l-7.959-3.814ZM55.293 4.89s2.435 1.802 2.25 4.686c-.187 2.883-1.535 5.622-1.814 5.703-.28.082-.436-10.389-.436-10.389Z" fill="#000"/><path d="M42.067 6.373c-1.576 3.023-1.61 12.598.285 15.115 2.75 3.604 8.139 4.9 11.394 1.401 3.18-3.395 3-15.877.802-18.225-3.238-3.489-10.156-2.762-12.481 1.709Z" fill="#FFD3C9"/><path d="M50.246 13.872s-.046 0-.046.058c.035.64-.04 1.378-.616 1.6v.034c.715-.11.796-1.093.662-1.692Z" fill="#000"/><path d="M49.665 13.215c-1.029-.064-1.075 2.006-.122 2.064.953.058.988-2.017.122-2.064ZM54.014 13.948c0-.03.046 0 .046.058-.035.64.035 1.378.61 1.599v.04c-.715-.116-.796-1.098-.656-1.697Z" fill="#000"/><path d="M54.595 13.29c1.035-.057 1.07 2.012.116 2.065-.953.052-.976-2.018-.116-2.064ZM48.869 12.262a7.72 7.72 0 0 0 .808-.268 1.4 1.4 0 0 0 .773-.424.43.43 0 0 0-.064-.529 1.058 1.058 0 0 0-1.087-.134 1.552 1.552 0 0 0-.93.669.464.464 0 0 0 .5.686ZM55.42 12.262c-.284-.058-.54-.151-.82-.233a1.355 1.355 0 0 1-.784-.395.436.436 0 0 1 .035-.535 1.093 1.093 0 0 1 1.081-.18c.388.083.73.31.96.634a.465.465 0 0 1-.472.709ZM49.45 19.517c.116.18.221.413.448.483.232.05.471.05.703 0 0 0 .04 0 0 .04a.867.867 0 0 1-.872.163.68.68 0 0 1-.366-.663c.017-.046.07-.052.087-.023Z" fill="#000"/><path d="M50.299 17.692a2.17 2.17 0 0 0 1.43 1c.257.058.522.075.785.052l.29-.03a.17.17 0 0 0 .134-.139v-1.372c.174.093 1.087.53 1.076.268a32.638 32.638 0 0 0-.704-6.616.058.058 0 0 0-.116 0c0 2.058.354 4.07.384 6.162a3.839 3.839 0 0 0-1.018-.331c-.04 0 .058 1.68.052 1.692a3.022 3.022 0 0 1-2.244-.75c-.058-.03-.11.011-.07.064Z" fill="#000"/><path d="M52.223 18.453a2.54 2.54 0 0 1-1.046.762 1.115 1.115 0 0 1-.704 0c-.5-.145-.5-.61-.395-1.006.06-.202.142-.397.244-.581.53.47 1.196.76 1.901.825Z" fill="#000"/><path d="M51.177 19.238a1.116 1.116 0 0 1-.704 0c-.5-.145-.5-.61-.395-1.006a1.192 1.192 0 0 1 1.099 1.006Z" fill="#FF6868"/><path d="M42.206 14.244c1.646 0 1.744-4.023 1.744-4.023s2.53-.302 3.96-3.662c0 0 3.098 2.215 5.813 1.883C58.008 7.92 58.217 2.414 56.7 1.2c-2.152-1.744-6.29.354-6.29.354s-5.96-2.046-8 1.942a3.11 3.11 0 0 0-3.07 2.907c-.366 3 1.64 7.842 2.866 7.842Z" fill="#000"/><path d="M43.317 10.663a5.604 5.604 0 0 0 3.267-1.546 4.173 4.173 0 0 0 1.163-3.645.058.058 0 0 1 .11 0 4.796 4.796 0 0 1-.907 3.976 3.896 3.896 0 0 1-3.65 1.349c-.047-.03-.059-.128.017-.134ZM39.224 4.67c.895-1.012 2.18-1.1 3.436-.983.07 0 .058.122 0 .11a3.488 3.488 0 0 0-3.232 1.518c-.692.953-.623 2.215-.43 3.325a8.801 8.801 0 0 0 3.203 5.447s0 .07-.035.047a8.807 8.807 0 0 1-3.605-5.97c-.157-1.17-.163-2.564.663-3.495ZM50.229 1.745A4.116 4.116 0 0 1 52.659.1a4.93 4.93 0 0 1 3.488.581 2.791 2.791 0 0 1 1.326 2.465 4.965 4.965 0 0 1-1.29 3.058s-.06 0-.042-.029c.622-.8.982-1.772 1.03-2.785a2.57 2.57 0 0 0-1.379-2.366c-1.691-.872-4.238-.895-5.482.803-.035.04-.122-.03-.081-.082Z" fill="#000"/><path d="M42.695 14.43s-1.605-3.354-3.093-2.83c-1.488.522-.628 5.144.878 6.005a1.654 1.654 0 0 0 2.325-.518l-.11-2.657Z" fill="#FFD3C9"/><path d="M39.88 12.919s-.034.029 0 .04c1.047.64 1.466 1.78 1.698 2.907a.912.912 0 0 0-1.302-.47.035.035 0 0 0 0 .064 1.018 1.018 0 0 1 1.047.534c.16.311.287.639.377.977.041.11.227.087.21-.035v-.023c.267-1.407-.518-3.593-2.03-3.994Z" fill="#000"/><path d="m48.06 26.371-2.418 5.233-6.337-7.128-2 2.087S43.3 37.68 43.364 37.196l2.442-4.517 3.035 3.378.14-8.099-.92-1.587Z" fill="#fff"/><path d="M49.136 32.086c0-1.337 0-2.686-.087-4.023 0-.046-.076-.07-.093 0-.332 1.279-.221 6.395-.285 7.616-.122-.146-2.82-2.983-2.849-2.936-.517.71-2.325 4-2.436 4.302-.947-1.744-4.592-8.197-5.732-9.883a.047.047 0 0 0-.026-.03.046.046 0 0 0-.055.013.046.046 0 0 0-.01.04.047.047 0 0 0 .01.018c.82 1.854 5.639 10.51 5.72 10.464a51.735 51.735 0 0 0 2.558-4.779c.448.61 3.151 3.797 3.169 3.599.117-1.464.156-2.933.116-4.401Z" fill="#000"/><path d="M30.765 30.092C22.045 38.231 10.715 53.864 12 58.48c1.71 6.15 29.143 13.4 33.719 14.336 1.953.4 2.82-16.47.738-16.941-1.808-.407-16.86-5.337-17.44-6.32-.314-.58 2.406-5.319 6.976-17.155 2.959-7.639-2.837-4.523-5.227-2.308Z" fill="#FFD3C9"/><path d="M41.887 56.328s1.029 0 6.476-.697c3.767-.5 13.26.68 18.435 10.022 1.982 3.582.337 6.535-2.384 3.18-1.918-2.36-3.04-4.162-3.883-4.755 0 0 .046 4.65-2.14 6.238a50.564 50.564 0 0 1-6.005 3.726 11.455 11.455 0 0 1-.797-1.064 5.663 5.663 0 0 1-6.04-.145l-3.662-16.505Z" fill="#FFD3C9"/><path d="M52.031 55.724c1.663 1.104 5.14 3.488 7.308 6.436 2.407 3.273 6.162 10.22 3.726 11.975-1.784 1.285-3.447-1.244-3.447-1.244s.947 3.198-.919 4.006c-1.703.738-2.872-1.297-2.872-1.297s.239 2.04-1.534 2.436c-2.134.471-2.29-3.877-4.866-5.267-.576-.314 2.604-17.045 2.604-17.045Z" fill="#FFD3C9"/><path d="M55.461 64.124a16.232 16.232 0 0 1 4.192 8.72c0 .082-.047.135-.076.059a39.724 39.724 0 0 0-4.15-8.72s.017-.07.034-.059ZM52.229 66.653c1.087 1.239 3.395 5.203 3.668 8.924 0 .082-.058.128-.081.052a42.761 42.761 0 0 0-3.634-8.958s.03-.035.047-.018Z" fill="#000"/><path d="m30.09 48.544-15.388-3.627s11.203-11.68 16.75-15.668c5.778-4.15 8.72-2.994 4.766 5.575-3.86 8.442-6.127 13.72-6.127 13.72Z" fill="#A9C297"/><path d="M29.69 45.655c-.355-.128-.733-.21-1.099-.303l-1.128-.296c-.761-.203-1.523-.39-2.29-.581-1.53-.367-3.058-.739-4.593-1.082-.424-.093-.843-.186-1.267-.267-.425-.081-.901-.14-1.35-.227v.04c.379.106.745.24 1.123.338.378.099.773.21 1.163.308.761.192 1.523.372 2.29.553 1.512.348 3.017.703 4.535 1.023.424.087.848.168 1.267.261.419.093.89.21 1.343.262.017.012.029-.023.006-.03ZM17.62 45.602a2.267 2.267 0 0 1-.842-.052 2.152 2.152 0 0 1-.773-.331 2.471 2.471 0 0 1 1.616.383ZM29.323 48.376l.791.122h-.058a109.94 109.94 0 0 1 2.593-6.232c.924-2.053 1.878-4.07 2.941-6.076-.767 2.122-1.645 4.192-2.546 6.25a109.978 109.978 0 0 1-2.907 6.098v.041h-.035l-.779-.203Z" fill="#000"/><path d="M34.09 39.586c.237-.413.495-.813.774-1.198l.413-.581c.145-.187.279-.384.441-.582-.121.471-.33.915-.616 1.308a4.174 4.174 0 0 1-1.011 1.053Z" fill="#000"/><path d="M237.367 71.27H6.517v9.598h230.85v-9.599Z" fill="#FEE3C5"/><path opacity=".2" d="M237.367 71.27H6.517v9.598h230.85v-9.599Z" fill="#000"/><path d="m37.352 80.868-1.546 5.185-5.593 18.755-3.15 10.586-18.581 62.31H6.337l17.568-72.896 3.157-13.08 1.366-5.675 1.25-5.185h7.674Z" fill="#FEE3C5"/><path d="m37.352 80.868-1.546 5.185h-7.378l1.25-5.185h7.674Z" fill="#000"/><path d="M237.553 177.704h-2.151l-17.574-58.95-1-3.36-3.157-10.586-1.174-3.942-4.424-14.813-1.541-5.185h7.674l1.25 5.185.819 3.407.553 2.267 3.145 13.081 1.017 4.214 16.563 68.682Z" fill="#FEE3C5"/><path d="m214.206 80.868 1.25 5.185h-7.383l-1.541-5.185h7.674Z" fill="#000"/><path d="M226.129 138.735H17.76v2.727H226.13v-2.727Z" fill="#FEE3C5"/><path opacity=".2" d="m37.352 80.868-1.546 5.185-5.593 18.755-3.15 10.586-18.581 62.31H6.337l17.568-72.896 3.157-13.08 1.366-5.675 1.25-5.185h7.674ZM237.553 177.704h-2.151l-17.575-58.95-.999-3.36-3.157-10.586-1.175-3.942-4.424-14.813-1.54-5.185h7.674l1.25 5.185.819 3.407.553 2.267 3.145 13.081 1.017 4.214 16.563 68.682Z" fill="#000"/><path opacity=".2" d="M226.129 138.735H17.76v2.727H226.13v-2.727Z" fill="#000"/><path d="M233.757 71.27c-25.958 32.299-76.524 44.182-111.812 44.182S36.09 103.546 10.133 71.269h223.624Z" fill="#fff"/><path opacity=".4" d="M233.757 71.27c-25.958 32.299-76.524 44.182-111.812 44.182S36.09 103.546 10.133 71.269h223.624Z" fill="#fff"/><path d="M22.9 71.27s34.48 34.927 99.045 34.927c64.92 0 99.045-34.928 99.045-34.928H22.9Z" fill="#C7594D"/><path d="m86.424 68.229-2.738 2.43H60.64l-2.732-2.43h28.515ZM83.616 70.659H60.641v.616h22.975v-.616ZM186.097 68.229l-2.732 2.43H160.32l-2.738-2.43h28.515ZM183.295 70.659H160.32v.616h22.975v-.616ZM137.734 68.229l-2.738 2.43h-23.045l-2.738-2.43h28.521ZM134.927 70.659h-22.976v.616h22.976v-.616Z" fill="#fff"/><path opacity=".5" d="M79.29 71.27h-8.644l-.517-16.156h9.685l-.523 16.155Z" fill="#fff"/><path d="M78.535 70.45h-7.133l-.424-13.325h7.982l-.425 13.325Z" fill="#FFB445"/><path opacity=".5" d="M172.11 71.27h-8.645l-.517-16.156h9.685l-.523 16.155Z" fill="#fff"/><path d="M171.354 70.45h-7.127l-.349-10.82h7.825l-.349 10.82Z" fill="#FFB445"/></svg>