<svg width="315" height="180" fill="none" xmlns="http://www.w3.org/2000/svg"><path d="m162.159 44.27 4.19 96.273h76.242l-7.893-39.079-25.406-8.29a4.746 4.746 0 0 1-1.756-1.135 4.965 4.965 0 0 1-1.127-1.798l-15.19-40.385-29.06-5.586Z" fill="#C7594D"/><path d="m170.558 54.405 1.902 34.732 27.513 2.669-11.857-36.131-17.558-1.27Z" fill="#fff"/><g opacity=".3" fill="#999"><path d="m171.599 73.432.435 7.922 8.249 8.54 7.963.777-16.647-17.24ZM176.184 54.815l17.643 18.264-1.852-5.663-11.907-12.327-3.884-.274ZM170.783 58.488l.05.959 28.054 29.042-.456-1.378-27.648-28.623ZM172.195 84.277l.05.964 4.129 4.274.971.094-5.15-5.332Z"/></g><path d="m170.558 54.405 17.558 1.27 11.857 36.13-1.842-.18-11.206-34.157-16.282-1.54-.085-1.523ZM208.381 94.034h-.5v45.043h.5V94.034Z" fill="#000"/><path d="m238.052 101.568-6.202-1.037 3.614 13.218 3.193-.347c.342-.037.656-.21.875-.483.22-.273.328-.624.302-.978l-.676-9.151a1.4 1.4 0 0 0-.353-.805 1.315 1.315 0 0 0-.753-.417Z" fill="#fff"/><path d="M203.386 82.469c-1.501 1.31-.145 13.104.911 12.901 1.056-.202 3.324-.647 4.235-1.393.911-.746 6.066-10.29 4.815-12.27-1.252-1.98-8.794-.249-9.961.762Z" fill="#C7594D"/><path opacity=".1" d="M203.386 82.469c-1.501 1.31-.145 13.104.911 12.901 1.056-.202 3.324-.647 4.235-1.393.911-.746 6.066-10.29 4.815-12.27-1.252-1.98-8.794-.249-9.961.762ZM183.436 99.277h-9.445v-2.746l9.445.534v2.212Z" fill="#000"/><path d="M164.242 140.543H7.517L15.81 24.845 158.596 17l5.646 123.543Z" fill="#C7594D"/><path d="M40.696 107.682a.975.975 0 0 1 1.326-.135 4.768 4.768 0 0 0 3.213 1.43 4.298 4.298 0 0 0 2.343-.684 2.208 2.208 0 0 0 1-1.337 1.002 1.002 0 0 0-.054-.596 1.383 1.383 0 0 0-.46-.549 5.893 5.893 0 0 0-2.323-.901h-.04a8.597 8.597 0 0 1-2.178-.726 3.055 3.055 0 0 1-1.436-1.451 2.705 2.705 0 0 1-.145-1.507c.125-.563.36-1.094.69-1.56.329-.465.746-.857 1.227-1.15a5.859 5.859 0 0 1 3.263-.995c1.737 0 2.843.88 3.654 1.492a.895.895 0 0 1 .295.65.92.92 0 0 1-.26.666.958.958 0 0 1-.6.407.937.937 0 0 1-.706-.137c-.816-.612-1.607-1.187-2.698-1.166a3.743 3.743 0 0 0-2.137.611 1.905 1.905 0 0 0-.557.5 1.972 1.972 0 0 0-.33.682.801.801 0 0 0 .056.518c.088.191.223.355.39.476.64.428 1.363.707 2.117.819h.046a8.404 8.404 0 0 1 2.357.782 3.327 3.327 0 0 1 1.501 1.555c.206.507.257 1.068.145 1.606a4.613 4.613 0 0 1-.717 1.652 4.44 4.44 0 0 1-1.284 1.229 6.36 6.36 0 0 1-3.504 1.036 6.231 6.231 0 0 1-4.294-1.87.955.955 0 0 1-.223-.695.973.973 0 0 1 .323-.652ZM56.206 105.246l-.775 4.581a1.308 1.308 0 0 1-.424.733c-.217.189-.49.295-.773.303a.804.804 0 0 1-.659-.308.871.871 0 0 1-.171-.728l1.902-11.265a1.35 1.35 0 0 1 .438-.731 1.27 1.27 0 0 1 .778-.305.801.801 0 0 1 .364.076.831.831 0 0 1 .295.233.868.868 0 0 1 .172.727l-.776 4.581h4.775l.776-4.58c.063-.286.214-.541.431-.728.217-.188.488-.296.77-.309a.81.81 0 0 1 .366.074.84.84 0 0 1 .299.232.877.877 0 0 1 .18.73l-1.916 11.265c-.061.286-.212.543-.43.731a1.253 1.253 0 0 1-.772.305.814.814 0 0 1-.665-.306.877.877 0 0 1-.18-.73l.775-4.581h-4.78ZM68.379 110.899a.834.834 0 0 1-.665-.306.879.879 0 0 1-.181-.73l1.917-11.264c.063-.285.215-.541.432-.728.217-.187.487-.296.77-.309a.812.812 0 0 1 .664.307.876.876 0 0 1 .181.73l-1.917 11.264a1.337 1.337 0 0 1-.43.729 1.262 1.262 0 0 1-.771.307ZM73.029 109.811l1.917-11.27c.063-.284.215-.54.431-.727.218-.187.488-.296.77-.309h3.278a3.13 3.13 0 0 1 1.44.287c.453.21.853.523 1.17.918.316.395.54.86.654 1.36.114.499.116 1.018.005 1.518a5.157 5.157 0 0 1-1.639 2.886 4.848 4.848 0 0 1-3.011 1.218h-2.287l-.701 4.145c-.061.286-.212.544-.43.731a1.254 1.254 0 0 1-.772.306.814.814 0 0 1-.665-.321.875.875 0 0 1-.16-.742Zm6.066-10.197h-2.287l-.661 3.948h2.277a2.353 2.353 0 0 0 1.457-.589c.408-.36.689-.851.796-1.395a1.664 1.664 0 0 0-.004-.733 1.626 1.626 0 0 0-.317-.655 1.558 1.558 0 0 0-.566-.44 1.505 1.505 0 0 0-.695-.136ZM83.78 109.811l1.921-11.27c.064-.284.215-.539.43-.726.216-.187.486-.296.767-.31H90.2c.495-.02.987.08 1.439.289.452.21.851.524 1.167.919.315.394.539.86.653 1.358a3.45 3.45 0 0 1 .004 1.517 5.149 5.149 0 0 1-1.637 2.887 4.844 4.844 0 0 1-3.012 1.217h-2.288l-.7 4.145a1.33 1.33 0 0 1-.428.73 1.258 1.258 0 0 1-.769.307.825.825 0 0 1-.68-.313.897.897 0 0 1-.17-.75Zm6.07-10.197h-2.287l-.665 3.948h2.267a2.353 2.353 0 0 0 1.457-.589c.408-.36.688-.851.795-1.395a1.658 1.658 0 0 0-.313-1.384 1.553 1.553 0 0 0-.561-.442 1.5 1.5 0 0 0-.692-.138ZM95.512 110.899a.815.815 0 0 1-.667-.306.88.88 0 0 1-.184-.73l1.922-11.264c.063-.285.214-.54.43-.727.215-.187.485-.296.766-.31a.812.812 0 0 1 .368.073.838.838 0 0 1 .3.231.877.877 0 0 1 .183.733l-1.917 11.264a1.337 1.337 0 0 1-.431.729 1.262 1.262 0 0 1-.77.307ZM102.078 98.62c.031-.185.099-.361.201-.516.102-.154.235-.285.39-.381a.91.91 0 0 1 .73-.203.894.894 0 0 1 .36.145.939.939 0 0 1 .271.286l4.54 8.632 1.346-7.964c.063-.285.215-.54.432-.728.217-.187.487-.295.769-.308a.812.812 0 0 1 .665.306.88.88 0 0 1 .181.73l-1.917 11.208a1.293 1.293 0 0 1-.424.737 1.217 1.217 0 0 1-.777.299.808.808 0 0 1-.394-.09.847.847 0 0 1-.307-.273 1.137 1.137 0 0 1-.07-.134l-4.504-8.555-1.362 8a1.298 1.298 0 0 1-.425.737 1.228 1.228 0 0 1-.776.3.81.81 0 0 1-.662-.307.882.882 0 0 1-.169-.73l1.902-11.192ZM114.691 104.174a8.474 8.474 0 0 1 2.753-4.734 7.968 7.968 0 0 1 4.995-1.945 5.502 5.502 0 0 1 3.859 1.45 1.07 1.07 0 0 1 .16 1.142 1.037 1.037 0 0 1-.235.325 1.036 1.036 0 0 1-1.457.192 3.92 3.92 0 0 0-2.692-1.01 5.332 5.332 0 0 0-3.469 1.357 5.482 5.482 0 0 0-1.862 3.223c-.115.56-.105 1.14.029 1.695.133.556.387 1.073.742 1.512.373.442.835.793 1.354 1.028.52.235 1.083.347 1.649.33a5.138 5.138 0 0 0 2.583-.726l.44-2.539h-2.573a.807.807 0 0 1-.659-.308.87.87 0 0 1-.171-.728c.056-.289.205-.549.424-.737.218-.189.492-.294.777-.299h3.558a.814.814 0 0 1 .671.302.885.885 0 0 1 .18.734l-.7 4.145c-.023.1-.055.197-.095.29l-.056.114a1.18 1.18 0 0 1-.385.441 7.644 7.644 0 0 1-4.334 1.451c-3.639-.042-6.112-3-5.486-6.705ZM133.16 61.048l-21.022-18.41-77.453 6.493 4.7 46.224 74.645-10.15 19.13-24.157Zm-8.929.311a3.75 3.75 0 0 1-.142 2.09 3.611 3.611 0 0 1-1.235 1.66 3.41 3.41 0 0 1-3.872.143 3.585 3.585 0 0 1-1.346-1.565 3.744 3.744 0 0 1-.286-2.074 3.687 3.687 0 0 1 .871-1.892 3.48 3.48 0 0 1 1.735-1.077 3.448 3.448 0 0 1 2.679.44 3.67 3.67 0 0 1 1.596 2.27v.005Z" fill="#fff"/><path d="M46.992 80.406 44.99 63.307a1.656 1.656 0 0 1 .319-1.186c.126-.166.282-.305.46-.408a1.51 1.51 0 0 1 .577-.193h.08l9.085-1.135c.403-.034.804.095 1.117.36a1.664 1.664 0 0 1 .26 2.232 1.559 1.559 0 0 1-1.002.626l-7.598.953.606 5.3 6.532-.818a1.53 1.53 0 0 1 1.155.335 1.665 1.665 0 0 1 .266 2.279 1.557 1.557 0 0 1-1.046.609l-6.532.813.811 6.964c.047.428-.073.857-.332 1.193a1.553 1.553 0 0 1-1.05.6 1.495 1.495 0 0 1-1.139-.345 1.59 1.59 0 0 1-.387-.481 1.641 1.641 0 0 1-.18-.599ZM76.832 75.852a1.662 1.662 0 0 1-.254 1.78 1.568 1.568 0 0 1-.491.375 2.54 2.54 0 0 1-.606.166h-.03a1.98 1.98 0 0 1-1.131-.181 2.784 2.784 0 0 1-1.001-.902 7.972 7.972 0 0 1-1.001-3.41 2.526 2.526 0 0 0-.5-1.207 2.696 2.696 0 0 0-.937-.736 5.408 5.408 0 0 0-1.651-.518l-3.309.415.736 6.3c.044.428-.077.856-.337 1.192-.26.336-.637.552-1.05.601a1.5 1.5 0 0 1-1.144-.331 1.592 1.592 0 0 1-.394-.476 1.646 1.646 0 0 1-.188-.597l-2.002-17.125a1.64 1.64 0 0 1 .313-1.19c.127-.167.284-.305.464-.408.179-.103.376-.167.58-.19h.03l5.004-.621a5.866 5.866 0 0 1 3.598.694 6.161 6.161 0 0 1 2.55 2.718 6.448 6.448 0 0 1 .567 3.743 6.34 6.34 0 0 1-1.624 3.394c.418.252.793.572 1.11.949a5.63 5.63 0 0 1 1.287 3.02c.04.576.146 1.145.315 1.695.234.044.455.143.645.29.19.148.345.34.451.56Zm-5.285-11.177a3.09 3.09 0 0 0-.348-1.124 2.99 2.99 0 0 0-.739-.899c-.3-.247-.645-.43-1.015-.537a2.82 2.82 0 0 0-1.136-.093l-3.449.43.696 5.98 3.448-.436a2.875 2.875 0 0 0 1.935-1.116 3.075 3.075 0 0 0 .608-2.205ZM81.467 76.1l-2.002-17.124a1.64 1.64 0 0 1 .312-1.19c.126-.166.283-.305.461-.407.179-.103.376-.168.579-.191h.11l9.084-1.135c.408-.047.818.074 1.14.337.324.262.534.646.587 1.067.047.425-.068.852-.32 1.191a1.576 1.576 0 0 1-1.032.623l-7.597.953.62 5.311 6.527-.829a1.53 1.53 0 0 1 1.155.335c.328.266.54.655.59 1.082.049.428-.067.858-.324 1.197a1.557 1.557 0 0 1-1.046.61l-6.531.813.62 5.342 7.598-.954a1.517 1.517 0 0 1 1.156.335c.162.132.297.295.398.48a1.665 1.665 0 0 1-.133 1.799 1.585 1.585 0 0 1-.464.412c-.18.105-.377.172-.582.197l-9.079 1.135h-.06l-.025.031a1.49 1.49 0 0 1-1.162-.327 1.58 1.58 0 0 1-.397-.485 1.634 1.634 0 0 1-.183-.608ZM98.084 74.002l-2.002-17.1a1.642 1.642 0 0 1 .314-1.19c.126-.166.284-.305.463-.407.179-.103.376-.167.58-.19h.085l9.079-1.135c.409-.048.82.072 1.144.335.324.263.535.647.588 1.07.045.425-.071.852-.324 1.19a1.58 1.58 0 0 1-1.033.623l-7.593.954.616 5.31 6.532-.818a1.519 1.519 0 0 1 1.155.335c.162.131.298.294.399.48a1.67 1.67 0 0 1-.133 1.798 1.587 1.587 0 0 1-.464.413c-.18.104-.377.171-.582.197l-6.507.813.621 5.342 7.598-.953c.413-.051.828.069 1.156.335a1.662 1.662 0 0 1 .265 2.279 1.557 1.557 0 0 1-1.046.609l-9.084 1.135h-.06l-.025.03a1.502 1.502 0 0 1-1.17-.343 1.595 1.595 0 0 1-.396-.496 1.648 1.648 0 0 1-.176-.616Z" fill="#C7594D"/><path d="M122.049 61.245a31.931 31.931 0 0 1 4.284 0c1.436.077 2.868.23 4.289.456a36.87 36.87 0 0 1 8.419 2.357 26.615 26.615 0 0 1 4.004 2.11c.646.404 1.261.87 1.872 1.341l.886.767c.29.26.56.55.841.824a17.209 17.209 0 0 1 2.838 3.886l.535 1.104c.155.378.29.772.436 1.155.137.38.255.768.355 1.161l.16.58.12.591c.343 1.59.469 3.223.376 4.85a18.862 18.862 0 0 1-.931 4.757 22.588 22.588 0 0 1-4.78 7.974 29.724 29.724 0 0 1-6.952 5.591 27.021 27.021 0 0 1-8.079 3.212l-.115-.388a36.989 36.989 0 0 0 7.108-4.518 34.675 34.675 0 0 0 5.81-5.882 21.996 21.996 0 0 0 3.714-7.093c.756-2.504.87-5.168.331-7.73l-.091-.483-.13-.471a8.7 8.7 0 0 0-.275-.938c-.11-.296-.21-.601-.325-.897l-.396-.87a15.12 15.12 0 0 0-2.157-3.176 23.153 23.153 0 0 0-6.326-4.85 47.071 47.071 0 0 0-7.638-3.228 75.054 75.054 0 0 0-8.183-2.192Z" fill="#fff"/><path d="m134.346 97.106-3.223 6.524 6.521 2.85-9.714-1.648 6.416-7.726Z" fill="#fff"/><path opacity=".1" d="M164.242 140.538H7.517l.445-6.208 155.539-10.109.741 16.317Z" fill="#000"/><path d="M6.726 145.745h239.359v-7.373H6.726v7.373Z" fill="#666"/><path d="m251.065 134.828-23.874 1.518v10.518h25.656l-1.782-12.036Z" fill="#C7594D"/><path d="M17.032 146.864v-10.295l-15.066-1.612-1.852 11.907h16.918ZM35.44 148.346l-4.955-.751c.946-6.669 6.592-19.286 21.212-19.286 14.62 0 20.156 12.638 21.021 19.317l-4.96.694 2.503-.347-2.503.353c-.08-.607-2.182-14.835-16.066-14.835-13.99 0-16.166 14.249-16.252 14.855Z" fill="#666"/><path d="M51.602 131.455c-23.339 0-23.374 37.55 0 37.55s23.379-37.55 0-37.55Z" fill="#000"/><path d="M51.602 141.709c-10.59 0-10.611 17.042 0 17.042 10.61 0 10.61-17.042 0-17.042Z" fill="#fff"/><path d="m175.243 148.357-4.95-.778c.941-6.668 6.586-19.285 21.211-19.285 14.625 0 20.151 12.638 21.022 19.317l-4.97.709 2.502-.347-2.502.353c-.085-.607-2.188-14.835-16.067-14.835s-16.156 14.259-16.246 14.866Z" fill="#666"/><path d="M191.494 131.455c-23.339 0-23.374 37.55 0 37.55s23.379-37.55 0-37.55Z" fill="#000"/><path d="M191.494 141.709c-10.59 0-10.611 17.042 0 17.042s10.611-17.042 0-17.042Z" fill="#fff"/><path d="M278.14 139.233h-28.558v32.744h28.558v-32.744Z" fill="#FEE3C5"/><path opacity=".1" d="M278.14 139.233h-28.558v32.744h28.558v-32.744Z" fill="#000"/><path d="M234.834 171.977h14.748v-32.744h-14.748v32.744Z" fill="#FEE3C5"/><path opacity=".32" d="M234.834 171.977h14.748v-32.744h-14.748v32.744Z" fill="#000"/><path d="M261.437 146.308h1.062l.26-.543.362.543.493-1.121.466 1.121h1.944l.222-.745.212.745h.395v-7.075h-5.416v7.075Z" fill="#fff"/><path d="M235.852 169.723c1.083-2.333 2.167-4.669 3.25-7.009l3.201-7.042 3.152-7.048a567.088 567.088 0 0 0 3.108-7.109 5910.875 5910.875 0 0 0-3.249 7.008l-3.201 7.042-3.152 7.076a727.697 727.697 0 0 0-3.109 7.082Z" fill="#FEE3C5"/><path d="M235.852 141.487a794.747 794.747 0 0 0 3.109 7.109l3.157 7.076 3.201 7.042a3153.12 3153.12 0 0 0 3.25 7.009 794.944 794.944 0 0 0-3.109-7.11l-3.157-7.076-3.201-7.042a977.986 977.986 0 0 0-3.25-7.008ZM291.36 106.489h-28.558v32.744h28.558v-32.744Z" fill="#FEE3C5"/><path opacity=".1" d="M291.36 106.489h-28.558v32.744h28.558v-32.744Z" fill="#000"/><path d="M248.06 139.238h14.747v-32.744H248.06v32.744Z" fill="#FEE3C5"/><path opacity=".32" d="M248.06 139.238h14.747v-32.744H248.06v32.744Z" fill="#000"/><path d="M274.663 113.564h1.056l.26-.543.363.543.493-1.121.465 1.121H279.25l.222-.745.206.745h.395v-7.075h-5.41v7.075Z" fill="#fff"/><path d="M249.073 136.979c1.083-2.329 2.166-4.665 3.249-7.009l3.201-7.042 3.179-7.07a743.122 743.122 0 0 0 3.114-7.11 2484.403 2484.403 0 0 0-3.249 7.003l-3.201 7.042-3.163 7.076a504.081 504.081 0 0 0-3.13 7.11Z" fill="#FEE3C5"/><path d="M249.073 108.748a1088.7 1088.7 0 0 0 3.108 7.11l3.158 7.07 3.201 7.042c1.083 2.344 2.166 4.68 3.249 7.009a892.356 892.356 0 0 0-3.114-7.11l-3.157-7.076-3.201-7.042a536.313 536.313 0 0 0-3.244-7.003ZM314.833 139.233h-28.558v32.744h28.558v-32.744Z" fill="#FEE3C5"/><path opacity=".1" d="M314.833 139.233h-28.558v32.744h28.558v-32.744Z" fill="#000"/><path d="M271.527 171.977h14.748v-32.744h-14.748v32.744Z" fill="#FEE3C5"/><path opacity=".32" d="M271.527 171.977h14.748v-32.744h-14.748v32.744Z" fill="#000"/><path d="M298.13 146.308h1.062l.26-.543.362.543.493-1.121.466 1.121H302.723l.216-.745.212.745h.395v-7.075h-5.416v7.075Z" fill="#fff"/><path d="M272.545 169.723c1.083-2.333 2.167-4.669 3.25-7.009l3.201-7.042 3.152-7.048a567.088 567.088 0 0 0 3.108-7.109 5910.875 5910.875 0 0 0-3.249 7.008l-3.201 7.042-3.152 7.076a727.697 727.697 0 0 0-3.109 7.082Z" fill="#FEE3C5"/><path d="M272.545 141.487a794.747 794.747 0 0 0 3.109 7.109l3.157 7.076 3.18 7.042c1.083 2.344 2.166 4.68 3.249 7.009a767.109 767.109 0 0 0-3.109-7.11l-3.157-7.076-3.201-7.042a584.647 584.647 0 0 0-3.228-7.008Z" fill="#FEE3C5"/><path d="M203.319 172.363c1.039.343 30.605-.05 31.721-.807.428-.28.623-4.743.709-10.143v-.168c0-1.121.033-2.243.038-3.42v-.482l-1.435-15.879-19.779.208 1.95 15.699v.622l.119 3.258v.336s-11.254 5.388-12.397 6.358c-1.143.97-1.961 4.076-.926 4.418Z" fill="#FFD3C9"/><path d="M203.319 172.364c1.039.342 30.605-.051 31.721-.808.428-.28.623-4.743.709-10.143v-.168c0-1.121.033-2.243.038-3.42v-.482l-19.264.056v.622l.119 3.258v.336s-11.254 5.388-12.397 6.358c-1.143.97-1.961 4.048-.926 4.391Z" fill="#fff"/><path d="M203.319 172.358c.541.179 8.562.162 16.415 0 1.576-.028 3.147-.067 4.647-.112 5.595-.157 10.226-.398 10.653-.684.428-.286.618-4.62.704-9.919v-.398l-19.053.039v.337s-11.249 5.388-12.392 6.352c-1.142.965-2.014 4.043-.974 4.385Z" fill="#999"/><path d="M203.638 171.169c4.983-.19 25.098-.488 30.037-.286.038 0 .038.028 0 .034-4.934.303-25.049.426-30.037.336-.103 0-.103-.078 0-.084ZM214.551 161.363c1.955-.404 4.333-.123 5.877 1.301.054.056 0 .14-.087.123a26.752 26.752 0 0 0-5.779-1.166.113.113 0 0 1-.048-.008.12.12 0 0 1-.07-.067.136.136 0 0 1-.012-.049.118.118 0 0 1 .008-.049.116.116 0 0 1 .025-.043.114.114 0 0 1 .039-.03.13.13 0 0 1 .047-.012ZM213.143 162.266c1.961-.404 4.333-.124 5.876 1.3.06.056.001.141-.081.124a26.846 26.846 0 0 0-5.784-1.167.122.122 0 0 1-.09-.033.133.133 0 0 1-.007-.183.12.12 0 0 1 .086-.041ZM211.74 163.168c1.956-.403 4.36-.123 5.877 1.301.059.056 0 .14-.082.118a27.104 27.104 0 0 0-5.784-1.161.115.115 0 0 1-.089-.034.13.13 0 0 1-.008-.182.125.125 0 0 1 .086-.042Z" fill="#000"/><path d="M219.734 172.352c1.576-.028 3.147-.067 4.647-.112 5.595-.157 10.226-.398 10.653-.684.428-.286.618-4.62.705-9.918v-.398c-2.622 1.895-11.824 8.236-16.005 11.112Z" fill="#000"/><path d="M215.293 161.346h21.296s-4.29-51.482-4.122-52.385c.212-1.149 1.473-6.358 3.142-13.17.541-2.13 1.083-4.413 1.679-6.785 1.586-6.403 3.341-13.4 4.874-19.495l4.083-16.203h-18.067s-2.102 6.902-4.75 15.884c-4.333 14.578-10.09 34.678-10.659 39.562-.926 7.872 2.524 52.592 2.524 52.592Z" fill="#A9C297"/><path d="M216.317 157.595c3.249-.067 2.318-.095 5.573-.129 1.587 0 12.05-.106 13.54.146a.03.03 0 0 1 .023.01.034.034 0 0 1 .009.024.033.033 0 0 1-.009.023.03.03 0 0 1-.023.01c-1.484.258-11.948.163-13.54.146-3.25-.034-2.318-.062-5.573-.129-.06-.011-.06-.101 0-.101ZM228.541 105.816c.698-3.185 1.744-6.308 2.648-9.437a7598.376 7598.376 0 0 1 8.379-28.595c.476-1.603.955-3.205 1.435-4.805.476-1.564 1.013-3.117 1.44-4.693.174-.644.271-.291.049.528-.449 1.642-.893 3.29-1.354 4.928l-2.773 9.75a3184.551 3184.551 0 0 1-5.584 19.36l-2.816 9.701a40.879 40.879 0 0 0-1.154 4.693 22.584 22.584 0 0 0-.189 5.018c.206 3.364.585 6.728.883 10.092.298 3.364.606 6.728.904 10.092.6 6.729 1.195 13.44 1.787 20.135.071.852.147 1.682.206 2.551 0 .286-.395.263-.422 0-.704-6.633-1.24-13.289-1.842-19.933-.601-6.644-1.197-13.226-1.792-19.842-.152-1.682-.32-3.32-.325-4.99.01-1.533.184-3.06.52-4.553Z" fill="#fff"/><path d="M230.306 53.308a25032.58 25032.58 0 0 0 5.384 42.494c4.056-16.546 10.615-42.494 10.615-42.494h-15.999Z" fill="#fff"/><path d="M225.876 172.655c1.034.353 30.6.067 31.721-.684.428-.28.639-4.743.748-10.143v-.168c0-1.121.043-2.243.048-3.42v-.477c.071-7.793-.471-15.878-.471-15.878l-19.329.129.541 15.732v.623l.109 3.257v.331s-11.271 5.349-12.419 6.313c-1.148.965-1.982 4.043-.948 4.385Z" fill="#FFD3C9"/><path d="M225.876 172.655c1.034.353 30.6.067 31.721-.684.428-.28.639-4.743.748-10.143v-.168c0-1.121.043-2.243.048-3.42v-.477h-19.259v.623l.109 3.257v.331s-11.271 5.349-12.419 6.313c-1.148.965-1.982 4.026-.948 4.368Z" fill="#fff"/><path d="M225.876 172.655c1.034.353 30.6.067 31.721-.684.428-.28.639-4.743.748-10.143v-.168l-19.075-.034v.331s-11.271 5.349-12.419 6.314c-1.148.964-2.009 4.042-.975 4.384Z" fill="#999"/><path d="M226.206 171.466c4.983-.173 25.098-.392 30.032-.173.043 0 .043.028 0 .033-4.934.286-25.049.331-30.032.225-.108 0-.113-.079 0-.085ZM237.147 161.699c1.955-.398 4.332-.106 5.871 1.323.054.057 0 .141-.087.124a26.407 26.407 0 0 0-5.774-1.189.133.133 0 0 1-.048-.007.122.122 0 0 1-.041-.027.128.128 0 0 1-.033-.139.116.116 0 0 1 .025-.043.14.14 0 0 1 .039-.03.13.13 0 0 1 .048-.012ZM235.738 162.596c1.956-.398 4.333-.106 5.871 1.324.06.056 0 .14-.081.123a26.521 26.521 0 0 0-5.779-1.189.115.115 0 0 1-.089-.034.13.13 0 0 1-.008-.182.125.125 0 0 1 .086-.042ZM234.33 163.493c1.955-.398 4.333-.106 5.871 1.324.06.056 0 .14-.081.123a26.42 26.42 0 0 0-5.79-1.177.131.131 0 0 1-.092-.04.137.137 0 0 1 0-.19.131.131 0 0 1 .092-.04Z" fill="#000"/><path d="M228.616 53.308s.412 8.937 2.389 16.018c.162.561.33 1.161.541 1.716a31.534 31.534 0 0 1 5.2 2.764s.206 7.194.417 15.212c.227 8.97.471 18.968.417 21.087-.179 7.939.958 51.583.958 51.583l21.291.09s-3.851-48.735-3.824-51.639c.043-4.676-1.029-25.326-1.858-40.37-.503-9.279-.92-16.433-.92-16.433l-24.611-.028Z" fill="#A9C297"/><path d="M239.475 157.752c3.25-.056 2.318-.09 5.573-.106 1.593 0 12.051-.057 13.54.201.009 0 .017.004.023.01.006.007.01.015.01.024a.037.037 0 0 1-.01.024.033.033 0 0 1-.023.01c-1.489.252-11.947.112-13.54.089-3.249-.05-2.318-.073-5.573-.157a.05.05 0 0 1-.032-.047.05.05 0 0 1 .032-.048ZM251.661 56.492c.39 12.296.807 24.592 1.338 36.882s1.251 24.67 2.248 36.961c.541 6.874 1.083 16.545 1.798 23.403 0 .044-.065.061-.071 0-1.549-12.195-2.41-27.278-3.173-39.551-.764-12.274-1.279-24.564-1.685-36.854-.227-6.953-.401-13.91-.606-20.863-.017-.084.151-.079.151.022ZM230.864 70.498a38.544 38.544 0 0 1 6.088 3.297.074.074 0 0 1-.014.131.067.067 0 0 1-.051-.002c-2.053-1.032-4.149-2.024-6.148-3.174a.14.14 0 0 1-.067-.082.14.14 0 0 1 .008-.108.136.136 0 0 1 .184-.062Z" fill="#fff"/><path d="M229.635 59.918c.184 1.026.422 2.041.639 3.062.216 1.02.346 1.928.59 2.876.201.913.65 1.748 1.295 2.405.362.353.763.662 1.148.981l.65.51c0-.134-.049-.274-.076-.414-.065-.387-.13-.774-.19-1.167-.141-.863-.276-1.727-.401-2.59-.254-1.682-.482-3.42-.828-5.102a.05.05 0 0 1 .02-.028.051.051 0 0 1 .063 0 .061.061 0 0 1 .02.028c.411 1.682.861 3.32 1.218 5.001.174.824.796 4.9.829 5.186.032.286.049.6.06.898.037.303.037.61 0 .914a.082.082 0 0 1-.026.032.072.072 0 0 1-.039.012.072.072 0 0 1-.04-.012.072.072 0 0 1-.025-.032 3.487 3.487 0 0 1-.25-.886c-.075-.292-.135-.561-.189-.88 0-.107-.033-.22-.043-.326-.39-.247-.753-.56-1.116-.84-.363-.281-.785-.562-1.154-.898a4.57 4.57 0 0 1-1.413-2.288 17.213 17.213 0 0 1-.466-2.926c-.125-1.161-.217-2.322-.374-3.477-.011-.078.087-.106.098-.039Z" fill="#fff"/><path d="M236.686 27.13c-.958 3.862-4.771 12.682-11.178 19.96-2.475 2.803-22.07 5.78-24.139 5.17-1.452-.433-5.698-13.407-4.333-14.495 2.594-2.046 20.976.331 21.702-.162 1.115-.757 8.389-6.885 12.922-12.475 3.331-4.077 6.619-4.43 5.026 2.001Z" fill="#FFD3C9"/><path d="m232.5 38.68-11.85-3.606s9.44-10.092 12.998-12.279c4.035-2.433 4.333.236 3.25 4.693-1.084 4.457-4.398 11.191-4.398 11.191Z" fill="#FFB445"/><path d="M222.957 33.403c.428.056 4.138 1.122 4.939 1.368.802.247 4.089 1.24 4.874 1.565a.037.037 0 0 1 .015.012.039.039 0 0 1 .005.019.04.04 0 0 1-.005.018.037.037 0 0 1-.015.012c-.85-.162-4.164-1.149-4.988-1.384-.823-.236-4.468-1.374-4.874-1.554-.027-.016-.005-.061.049-.056Z" fill="#000"/><path d="m227.929 37.283 4.571 1.39s3.336-6.728 4.435-11.213c.802-3.258.845-5.562-.763-5.607l-8.243 15.43Z" fill="#000"/><path d="m255.182 62.183-30.73-.151c0 .628 6.667-35.559 9.878-39.893.688-.93 5.384-2.102 7.501-.056 9.289 8.949 13.351 40.504 13.351 40.1Z" fill="#FFB445"/><path opacity=".1" d="m231.319 32.046 3.927.28-.239 5.367-2.697.74-1.543-1.267.552-5.12Z" fill="#000"/><path d="M236.388 26.484c1.463.365 3.624-2.506 4.68-4.67.07-.146-.195-1.682-.434-3.544-.135-1.121-.265-2.4-.303-3.566 0-.24-7.003 2.019-7.003 2.019.451 1.443.727 2.938.824 4.452a2.29 2.29 0 0 1-.033.482v.078c-.119.914.704 4.357 2.269 4.75Z" fill="#FFD3C9"/><path d="M234.119 21.657v.078c.242.02.484.02.726 0 4.148-.235 5.075-5.657 5.242-7.03-1.251.23-6.753 2.007-6.753 2.007.45 1.443.728 2.938.828 4.451.001.166-.013.331-.043.494Z" fill="#000"/><path d="M241.642 5.963c.596 2.641-1.208 10.025-3.093 11.567-2.708 2.243-6.965 2.176-8.741-1.166-1.722-3.24.791-12.817 2.876-14.196 3.065-2.03 8.075-.101 8.958 3.795Z" fill="#FFD3C9"/><path d="M234.482 9.95s.033.033.027.056c-.135.493-.206 1.082.19 1.357v.028c-.526-.213-.417-.993-.217-1.441Z" fill="#000"/><path d="M235.04 9.54c.785.14.46 1.761-.266 1.632-.725-.129-.395-1.744.266-1.631ZM231.872 9.434s-.044 0-.049.034c-.087.51-.266 1.07-.737 1.121v.028c.536.079.78-.69.786-1.183Z" fill="#000"/><path d="M231.541 8.817c-.769-.23-1.154 1.38-.439 1.587.715.207 1.062-1.39.439-1.587ZM235.803 8.935a5.979 5.979 0 0 1-.541-.353 1.097 1.097 0 0 1-.509-.471.375.375 0 0 1 .003-.225.358.358 0 0 1 .132-.179.836.836 0 0 1 .85.09c.272.146.481.392.585.69a.383.383 0 0 1-.111.408.355.355 0 0 1-.409.04ZM231.081 7.892c.219.003.438-.008.655-.034.234.02.468-.038.666-.168a.36.36 0 0 0 .06-.42.845.845 0 0 0-.349-.279.812.812 0 0 0-.436-.058c-.305 0-.599.113-.829.32a.388.388 0 0 0-.082.397.377.377 0 0 0 .123.169.355.355 0 0 0 .192.073ZM234.146 14.71c-.141.09-.287.23-.466.207a1.302 1.302 0 0 1-.498-.24c-.032 0 0 0 0 0 .048.11.124.206.219.277a.65.65 0 0 0 .323.126.53.53 0 0 0 .286-.108.555.555 0 0 0 .185-.25.026.026 0 0 0-.007-.015.03.03 0 0 0-.014-.008.024.024 0 0 0-.015.001.028.028 0 0 0-.013.01Z" fill="#000"/><path d="M233.935 13.095c-.163.174-.358.31-.575.4-.216.092-.448.135-.682.127a1.976 1.976 0 0 1-.595-.1.684.684 0 0 1-.114-.034l-.103-.045a.125.125 0 0 1-.076-.129.213.213 0 0 1 0-.05v-.04c.071-.392.222-.97.222-.97-.151.04-.91.213-.861 0a27.303 27.303 0 0 1 1.674-5.046.047.047 0 0 1 .078.004c.006.009.009.02.008.03-.352 1.603-.975 3.134-1.354 4.737.272-.065.551-.092.829-.078.049.028-.314 1.121-.336 1.295a2.25 2.25 0 0 0 1.82-.185c.07.011.103.05.065.084Z" fill="#000"/><path d="M232.343 13.376c.149.319.374.593.655.796.161.107.35.16.542.151.406-.028.492-.392.482-.723a2.362 2.362 0 0 0-.076-.516 2.53 2.53 0 0 1-1.603.292Z" fill="#000"/><path d="M232.998 14.172c.161.107.35.16.542.151.406-.028.493-.392.482-.723a.91.91 0 0 0-.608.101.956.956 0 0 0-.416.47Z" fill="#FF6868"/><path d="M231.157 4.41c.395-.56.828-1.16 1.224-1.205.395-.045.455.936 1.283 1.177 1.121.32 1.89-.645 3.504-.42 2.318.32 2.936 2.512 2.324 5.881-.542 3.011 1.153 3.662 1.153 3.662s2.367-6.387 1.002-8.971c-1.365-2.585-5.307-4.419-8.497-2.916-1.165.555-1.993 2.792-1.993 2.792Z" fill="#000"/><path d="M239.416 12.013s1.831-2.243 2.838-1.57c1.007.673-.509 4.088-1.793 4.452a1.225 1.225 0 0 1-.987-.07 1.272 1.272 0 0 1-.395-.324 1.334 1.334 0 0 1-.243-.458l.58-2.03Z" fill="#FFD3C9"/><path d="M231.622 2.958c.704-.034 4.441.836 5.99 1.929 1.549 1.093 4.073 4.21 4.203 4.373.13.163 2.107-6.094-2.708-8.276-5.21-2.377-7.485 1.974-7.485 1.974Z" fill="#999"/><path d="M241.593 8.94s-2.47-5.203-4.121-6.61C235.82.923 231.796-.473 229.023.155c-2.167.51 2.204 4.143 2.204 4.143a1.45 1.45 0 0 1 .384-.537c.166-.146.363-.25.575-.304 1.343-.263 3.634.606 4.874 1.346 1.603.93 4.533 4.138 4.533 4.138Z" fill="#999"/><path opacity=".2" d="M241.593 8.94s-2.47-5.203-4.121-6.61C235.82.923 231.796-.473 229.023.155c-2.167.51 2.204 4.143 2.204 4.143a1.45 1.45 0 0 1 .384-.537c.166-.146.363-.25.575-.304 1.343-.263 3.634.606 4.874 1.346 1.603.93 4.533 4.138 4.533 4.138Z" fill="#000"/><path d="M256.357 42.744h-24.236v27.788h24.236V42.744Z" fill="#FEE3C5"/><path opacity=".1" d="M256.357 42.744h-24.236v27.788h24.236V42.744Z" fill="#000"/><path d="M219.599 70.532h12.516V42.744h-12.516v27.788Z" fill="#FEE3C5"/><path opacity=".32" d="M219.599 70.532h12.516V42.744h-12.516v27.788Z" fill="#000"/><path d="M242.183 48.75h.894l.222-.466.309.465.417-.953.395.953h1.658l.184-.633.178.633h.336v-6.005h-4.593v6.005Z" fill="#fff"/><path d="M220.465 68.614a633.116 633.116 0 0 0 2.757-5.943l2.708-5.977 2.708-6.005a642.265 642.265 0 0 0 2.638-6.033 694.762 694.762 0 0 0-2.752 5.95l-2.708 5.976-2.708 6.005a632.853 632.853 0 0 0-2.643 6.027Z" fill="#666"/><path d="M220.465 44.656c.874 2.019 1.753 4.03 2.638 6.033l2.708 6.005 2.708 5.977c.91 1.992 1.827 3.973 2.751 5.943a606.556 606.556 0 0 0-2.637-6.033l-2.708-5.999-2.708-5.977a327.503 327.503 0 0 0-2.752-5.949Z" fill="#666"/><path d="M247.421 24.46c5.914 4.604 17.385 14.92 18.414 20.499 1.316 7.322-4.707 21.727-7.279 24.508-1.733 1.878-9.37-5.047-9.83-6.729-.46-1.682 5.746-13.383 5.795-14.723.049-1.34-7.886-13.602-11.33-19.064-4.365-6.868-.775-8.393 4.23-4.49Z" fill="#FFD3C9"/><path d="M245.661 63.703c.541-.65.216-.948-1.23-.656-1.446.291-6.911 2.708-7.582.661-.672-2.046 7.106-5.343 9.543-5.635a38.119 38.119 0 0 1 6.499.113c-1.381.958-4.533 3.605-7.23 5.517Z" fill="#FFD3C9"/><path d="M259.244 68.536c-2.448 4.227-9.549 6.89-14.845 6.992a2.553 2.553 0 0 1-1.625-.505c-2.372.09-3.125-1.043-3.125-1.043-2.237-.622-2.849-1.89-2.849-1.89s-2.789.073-3.114-1.681c-.363-1.952 3.623-1.683 5.903-2.905 5.232-2.831 11.915-8.365 13.329-9.34l6.326 10.372Z" fill="#FFD3C9"/><path d="M247.063 68.547a25.857 25.857 0 0 1-10.247 3.487.046.046 0 0 0-.023.019.05.05 0 0 0-.009.03c0 .01.003.02.009.028a.046.046 0 0 0 .023.019 19.583 19.583 0 0 0 10.291-3.51c.059-.05.032-.112-.044-.073ZM249.17 71.564c-1.554.695-4.295 1.895-9.548 2.354v.034a17.504 17.504 0 0 0 9.581-2.31c.092-.05.07-.123-.033-.078ZM250.275 73.212a27.564 27.564 0 0 1-7.512 1.794v.034c3.455-.084 4.696-.516 7.582-1.738.076-.045.033-.135-.07-.09Z" fill="#000"/><path d="m247.756 38.074 11.222-5.343s-10.756-8.59-14.623-10.194c-4.332-1.805-4.278.886-2.572 5.13 1.706 4.245 5.973 10.407 5.973 10.407Z" fill="#FFB445"/><path d="M256.482 31.44c-.417.124-3.938 1.733-4.696 2.098-.758.364-3.873 1.833-4.625 2.282-.033 0 0 .073 0 .056.817-.286 3.964-1.76 4.744-2.12.78-.358 4.23-2.024 4.582-2.242.049-.073.049-.107-.005-.073Z" fill="#000"/><path d="M248.639 37.642c-.346.135-.883.37-.883.37-.828-1.57-1.819-3.061-2.708-4.586-.888-1.525-1.863-3.084-2.789-4.626h-.038c.477.908.948 1.811 1.43 2.714l-.238-.303c-.282-.364-.574-.718-.84-1.088 0-.028-.07 0-.048.034.233.399.49.782.769 1.15.205.252.422.493.644.728.276.51.542 1.026.845 1.537.894 1.558 1.776 3.364 2.784 4.838 0 0 .764-.448 1.126-.717.038-.006 0-.085-.054-.05Z" fill="#000"/><path d="M217.362 55.023 198.905 56.6l-6.196-26.134 18.457-1.575 6.196 26.133Z" fill="#999"/><path d="m206.752 30.841-8.746.74-.683-2.887 8.752-.735.677 2.882Z" fill="#999"/><path d="m204.088 28.127-1.078.09-.314-1.329-2.622.219.315 1.334-1.073.09-.574-2.422 4.788-.404.558 2.422Z" fill="#999"/><path d="M190.006 42.346c.028.448.195.875.476 1.216.281.342.661.58 1.084.68 0 0-1.506 1.272-1.083 2.887.216.83 1.69 1.2 1.69 1.2a2.493 2.493 0 0 0-.688 1.14 2.563 2.563 0 0 0-.011 1.344c.368 1.12 1.793 1.323 1.793 1.323s-.656 1.57.075 2.59c1.484 2.07 11.087-.18 11.769-4.188.32-1.873-1.998-1.189-1.998-1.189s3.103-1.81 2.708-3.874c-.396-2.064-3.358-.987-3.358-.987s2.995-1.783 2.372-3.88c-.623-2.097-3.428-.56-3.428-.56s1.809-1.997.98-3.488c-1.37-2.462-5.492 1.99-7.712 1.968l-.872-3.409s-3.981 5.422-3.797 7.227Z" fill="#FFD3C9"/><path d="M192.135 48.357c-.038 0 0 .073 0 .073 3.821.041 7.531-1.335 10.458-3.88.097-.09.097-.28 0-.18-2.074 1.649-7.301 3.538-10.458 3.987ZM201.569 39.761c-2.887 2.462-6.239 3.712-9.862 4.486-.049 0-.027.073 0 .078 1.874.118 4.132-.622 5.844-1.356a9.888 9.888 0 0 0 4.089-3.107c.054-.05-.011-.151-.071-.1ZM233.55 22.974a9.96 9.96 0 0 0 .45 1.649c.188.532.42 1.046.693 1.536.256.481.591.912.991 1.273.187.158.408.268.645.32.238.005.474-.049.688-.157a7.16 7.16 0 0 0 2.486-2.075c.178-.213.346-.437.541-.656.195-.219.325-.465.482-.7.157-.236.309-.472.461-.713.151-.241.287-.488.438-.729a13.557 13.557 0 0 1-1.625 3.028 6.649 6.649 0 0 1-2.588 2.27c-.29.137-.609.195-.927.169a1.714 1.714 0 0 1-.834-.426 4.316 4.316 0 0 1-1.023-1.441 8.427 8.427 0 0 1-.878-3.348Z" fill="#000"/></svg>