<svg width="32" height="32" viewBox="0 0 32 32" fill="none" xmlns="http://www.w3.org/2000/svg">
<g id="icon">
<mask id="mask0_611_4821" style="mask-type:alpha" maskUnits="userSpaceOnUse" x="0" y="0" width="32" height="32">
<rect id="Bounding box" width="32" height="32" fill="#D9D9D9"/>
</mask>
<g mask="url(#mask0_611_4821)">
<path id="add" d="M14.6667 17.3334H8.00008C7.6223 17.3334 7.30564 17.2056 7.05008 16.9501C6.79453 16.6945 6.66675 16.3779 6.66675 16.0001C6.66675 15.6223 6.79453 15.3056 7.05008 15.0501C7.30564 14.7945 7.6223 14.6667 8.00008 14.6667H14.6667V8.00008C14.6667 7.6223 14.7945 7.30564 15.0501 7.05008C15.3056 6.79453 15.6223 6.66675 16.0001 6.66675C16.3779 6.66675 16.6945 6.79453 16.9501 7.05008C17.2056 7.30564 17.3334 7.6223 17.3334 8.00008V14.6667H24.0001C24.3779 14.6667 24.6945 14.7945 24.9501 15.0501C25.2056 15.3056 25.3334 15.6223 25.3334 16.0001C25.3334 16.3779 25.2056 16.6945 24.9501 16.9501C24.6945 17.2056 24.3779 17.3334 24.0001 17.3334H17.3334V24.0001C17.3334 24.3779 17.2056 24.6945 16.9501 24.9501C16.6945 25.2056 16.3779 25.3334 16.0001 25.3334C15.6223 25.3334 15.3056 25.2056 15.0501 24.9501C14.7945 24.6945 14.6667 24.3779 14.6667 24.0001V17.3334Z" fill="#C7594D"/>
</g>
</g>
</svg>
