<svg width="20" height="20" viewBox="0 0 20 20" fill="none" xmlns="http://www.w3.org/2000/svg">
<path d="M8.66675 11.3334H2.00008C1.6223 11.3334 1.30564 11.2056 1.05008 10.9501C0.794526 10.6945 0.666748 10.3779 0.666748 10.0001C0.666748 9.6223 0.794526 9.30564 1.05008 9.05008C1.30564 8.79453 1.6223 8.66675 2.00008 8.66675H8.66675V2.00008C8.66675 1.6223 8.79453 1.30564 9.05008 1.05008C9.30564 0.794526 9.6223 0.666748 10.0001 0.666748C10.3779 0.666748 10.6945 0.794526 10.9501 1.05008C11.2056 1.30564 11.3334 1.6223 11.3334 2.00008V8.66675H18.0001C18.3779 8.66675 18.6945 8.79453 18.9501 9.05008C19.2056 9.30564 19.3334 9.6223 19.3334 10.0001C19.3334 10.3779 19.2056 10.6945 18.9501 10.9501C18.6945 11.2056 18.3779 11.3334 18.0001 11.3334H11.3334V18.0001C11.3334 18.3779 11.2056 18.6945 10.9501 18.9501C10.6945 19.2056 10.3779 19.3334 10.0001 19.3334C9.6223 19.3334 9.30564 19.2056 9.05008 18.9501C8.79453 18.6945 8.66675 18.3779 8.66675 18.0001V11.3334Z" fill="#C7594D"/>
</svg>
