<svg width="13" height="22" viewBox="0 0 13 22" fill="none" xmlns="http://www.w3.org/2000/svg">
<path id="&#239;&#188;&#140;" d="M6.36402 11.7141C6.36402 11.6083 6.32775 11.5202 6.25523 11.4496C6.21897 11.3791 6.14644 11.3438 6.03766 11.3438C4.40586 11.3438 3.00976 10.8501 1.84937 9.86272C0.688982 8.87531 0.108787 7.5529 0.108787 5.89547C0.108787 4.30856 0.688982 3.02141 1.84937 2.03401C3.04603 1.01134 4.51464 0.5 6.25523 0.5C8.43096 0.5 10.099 1.22292 11.2594 2.66877C12.4198 4.11461 13 6.10705 13 8.6461C13 11.3967 12.2022 13.8829 10.6067 16.1045C9.04742 18.3615 6.81729 20.0894 3.91632 21.2884C3.5537 21.4295 3.2092 21.5 2.88285 21.5C2.48396 21.5 2.10321 21.4118 1.74059 21.2355C0.979079 20.9181 0.453278 20.3715 0.16318 19.5957C0.0543933 19.3136 0 19.0139 0 18.6965C0 18.3086 0.0906555 17.9383 0.271967 17.5856C0.598326 16.9156 1.12413 16.4043 1.84937 16.0516C4.3152 14.9232 5.82008 13.4773 6.36402 11.7141Z" fill="#666666"/>
</svg>
