<svg width="48" height="48" fill="none" xmlns="http://www.w3.org/2000/svg"><circle cx="24" cy="24" r="24" fill="#fff"/><path d="M31.5 24a7.5 7.5 0 0 1-15 0c0-.427.045-.845.122-1.25H14v9.992c0 .696.563 1.258 1.258 1.258h17.487A1.258 1.258 0 0 0 34 32.742V22.75h-2.622c.077.405.122.823.122 1.25ZM24 29a5.002 5.002 0 1 0-.003-10.003A5.002 5.002 0 0 0 24 29Zm6-10.25h2.998a.752.752 0 0 0 .752-.75v-2.998a.753.753 0 0 0-.752-.752H30a.753.753 0 0 0-.753.752V18c.003.413.34.75.753.75ZM24 0a24 24 0 1 0 0 48 24 24 0 0 0 0-48Zm12.5 33.722a2.786 2.786 0 0 1-2.778 2.778H14.277a2.786 2.786 0 0 1-2.777-2.778V14.277a2.786 2.786 0 0 1 2.777-2.777h19.445a2.786 2.786 0 0 1 2.778 2.777v19.445Z" fill="#FFB445"/></svg>