<svg width="48" height="48" fill="none" xmlns="http://www.w3.org/2000/svg"><circle cx="24" cy="24" r="24" fill="#FFB445"/><path d="M24 11.297c7.937 0 14.4 5.245 14.4 11.69 0 2.578-.997 4.9-3.081 7.196-3.028 3.478-9.783 7.716-11.319 8.36-1.49.625-1.319-.352-1.25-.742l.005-.035.054-.32c.34-2.008.438-2.584-1.166-2.928C14.72 33.599 9.6 28.76 9.6 22.986c0-6.445 6.463-11.69 14.4-11.69Z" fill="#fff"/><g fill="#FFB445"><path d="M28.308 26.43v-6.277a.28.28 0 0 0-.291-.274h-1.006a.279.279 0 0 0-.283.282v3.726l-2.878-3.884c-.044-.08-.142-.124-.23-.124h-.997a.279.279 0 0 0-.283.282v6.278c0 .159.124.282.283.282h1.006a.279.279 0 0 0 .283-.282v-3.726l2.878 3.885a.292.292 0 0 0 .23.114h1.006a.279.279 0 0 0 .282-.282ZM20.062 19.87h1.007c.159 0 .282.133.282.283v6.277a.279.279 0 0 1-.282.282h-1.007a.28.28 0 0 1-.282-.282v-6.277c0-.16.123-.283.282-.283ZM15.895 25.132h2.746c.15 0 .273.133.273.283v1.006a.279.279 0 0 1-.282.283h-4.035a.298.298 0 0 1-.194-.08.26.26 0 0 1-.08-.194v-6.277c0-.16.124-.283.283-.283h1.006c.16 0 .283.124.283.283v4.98ZM29.57 19.87h4.036c.15 0 .273.133.282.283v1.006a.279.279 0 0 1-.282.283H30.86V22.5h2.746c.159 0 .282.124.282.283v1.015a.279.279 0 0 1-.282.282H30.86v1.06h2.746c.159 0 .282.124.282.282v1.007a.279.279 0 0 1-.282.282H29.57a.285.285 0 0 1-.283-.282v-6.277c0-.16.133-.283.283-.283Z"/></g></svg>