<svg width="300" height="92" viewBox="0 0 300 92" fill="none" xmlns="http://www.w3.org/2000/svg">
<rect x="0.5" y="0.5" width="299" height="91" rx="45.5" fill="white"/>
<path d="M37 23.08H43.32V24.46H38.48V36.02H37V23.08ZM62.94 27.64H54.68V30.34H61.16V37.34C61.16 38.2 60.96 38.64 60.32 38.9C59.64 39.14 58.52 39.16 56.82 39.16C56.76 38.7 56.5 38.1 56.3 37.68C57.66 37.72 58.86 37.72 59.2 37.72C59.56 37.68 59.66 37.6 59.66 37.32V31.8H54.68V41.5H53.18V31.8H48.5V39.22H47.02V30.34H53.18V27.64H45.08V26.18H53.6C53.28 25.4 52.74 24.36 52.28 23.56L53.7 23.12C54.3 24.04 54.98 25.3 55.26 26.08L55 26.18H62.94V27.64ZM79.3 36.76H69V39.38H79.3V36.76ZM67.52 41.58V35.54H80.8V41.58H79.3V40.62H69V41.58H67.52ZM69 31.44V32.92H74.12V31.44H69ZM74.12 27.96V26.6H69V27.96H74.12ZM74.12 30.38V29.02H69V30.38H74.12ZM75.56 32.92H81.98V34.08H69V34.88H67.54V28.3C66.96 29.02 66.36 29.66 65.76 30.2C65.54 29.94 65.02 29.36 64.7 29.1C66.42 27.68 68.06 25.48 69.04 23.22L70.44 23.66C70.16 24.26 69.82 24.88 69.5 25.48H74.24C73.98 24.88 73.64 24.2 73.32 23.64L74.68 23.26C75.1 23.94 75.58 24.8 75.86 25.48H81.54V26.6H75.56V27.96H80.58V29.02H75.56V30.38H80.64V31.44H75.56V32.92ZM101.28 24.2L102.56 24.68C101.9 25.44 101.16 26.24 100.6 26.76L99.66 26.32C100.2 25.74 100.9 24.8 101.28 24.2ZM96.5 25.56L95.58 26.32C95.22 25.8 94.56 24.94 94.04 24.32L94.92 23.66C95.48 24.28 96.18 25.08 96.5 25.56ZM92.54 24.24L93.76 24.72C93.18 25.44 92.5 26.2 91.98 26.7L91.1 26.28C91.58 25.72 92.22 24.84 92.54 24.24ZM88.06 25.68L87.12 26.44C86.8 25.94 86.1 25.08 85.58 24.44L86.48 23.8C87.02 24.38 87.72 25.2 88.06 25.68ZM93.14 28.48L92.22 29.42C91.6 28.92 90.48 28.18 89.48 27.54C88.76 28.52 87.6 29.2 85.72 29.66C85.6 29.36 85.24 28.84 84.96 28.6C88.46 27.8 89.12 26.38 89.3 23.26H90.62C90.54 24.56 90.38 25.62 90.04 26.5C91.12 27.12 92.4 27.94 93.14 28.48ZM99.62 39.86V37.98H88.78V39.86H99.62ZM90.06 33.02V34.7H97.96V33.02H90.06ZM99.42 35.72H93.68C93.46 36.12 93.26 36.52 93.1 36.88H101.08V41.52H99.62V40.98H88.78V41.54H87.36V36.88H91.78C91.94 36.54 92.12 36.1 92.28 35.72H88.66V32H99.42V35.72ZM102.56 28.8L101.8 29.7H102.32V33.3H100.84V30.9H87.14V33.3H85.72V29.7H101.5C100.6 29.06 99.16 28.2 97.86 27.48C97.14 28.42 96 29.1 94.2 29.56C94.08 29.24 93.72 28.72 93.44 28.44C96.82 27.66 97.5 26.24 97.68 23.28H99.06C98.98 24.52 98.8 25.56 98.44 26.42C99.86 27.14 101.64 28.14 102.56 28.8ZM120.98 37.04L121.94 37.84C121 38.38 119.82 38.94 118.76 39.36C119.98 39.8 121.1 40.22 121.9 40.54L121.3 41.6C119.52 40.84 116.02 39.58 113.44 38.76L114.04 37.86C115.06 38.16 116.24 38.52 117.42 38.92C118.64 38.36 120.08 37.62 120.98 37.04ZM117.66 34.1H110.16V35.04H117.66V34.1ZM110.16 36.86H117.66V35.88H110.16V36.86ZM122.78 30.52H118.06C119.34 31.94 121.3 33.14 123.26 33.74C122.94 34.02 122.54 34.56 122.32 34.9C120.06 34.08 117.88 32.42 116.52 30.52H111.62C110.9 31.5 110 32.38 109.02 33.16H119.12V37.8H110.16V39.7L113.54 38.92C113.54 39.28 113.58 39.78 113.62 40.06C109.42 41.14 108.84 41.32 108.48 41.56C108.38 41.22 108.1 40.6 107.84 40.3C108.16 40.16 108.6 39.82 108.6 39.02V33.5C107.68 34.16 106.72 34.72 105.74 35.2C105.54 34.92 105.04 34.38 104.72 34.12C106.68 33.3 108.6 32.04 109.88 30.52H105.24V29.44H113.22V28.38H107.46V27.38H113.22V26.4H106.38V25.34H110.1C109.8 24.82 109.4 24.2 109.04 23.74L110.34 23.28C110.88 23.92 111.46 24.8 111.74 25.34H116.34C116.74 24.74 117.26 23.86 117.52 23.24L119.08 23.64C118.7 24.24 118.28 24.84 117.9 25.34H121.62V26.4H114.72V27.38H120.54V28.38H114.72V29.44H122.78V30.52ZM116.88 32.26H111.12V31.38H116.88V32.26ZM138 29.32V25.54H130.06V29.32H138ZM139.5 24.12V30.74H128.62V24.12H139.5ZM131.32 34.28H127.14V39.02H131.32V34.28ZM125.72 41.54V32.84H132.78V41.36H131.32V40.46H127.14V41.54H125.72ZM136.4 39.02H140.94V34.28H136.4V39.02ZM134.96 32.84H142.4V41.4H140.94V40.46H136.4V41.54H134.96V32.84ZM150.68 28.96L148 29.12C147.68 30.74 147.3 32.34 146.96 33.64C147.72 34.22 148.52 34.84 149.28 35.5C150.38 33.22 150.64 30.9 150.68 28.96ZM153.24 28.8L152.1 28.88C152.04 31.12 151.74 33.82 150.42 36.46C151.42 37.34 152.34 38.18 152.94 38.88L151.96 40.12C151.4 39.44 150.58 38.62 149.66 37.76C148.78 39.1 147.56 40.4 145.94 41.58C145.72 41.26 145.2 40.78 144.9 40.56C146.54 39.4 147.72 38.1 148.56 36.78C147.5 35.84 146.36 34.92 145.34 34.14C145.74 32.84 146.16 31.06 146.56 29.2L144.98 29.28L144.82 27.86C145.4 27.84 146.08 27.8 146.82 27.78C147.1 26.26 147.32 24.68 147.46 23.32L148.92 23.4C148.76 24.74 148.52 26.24 148.26 27.72L150.7 27.58V26.12H152.1V27.5L153.26 27.44L153.24 28.8ZM163.12 31.7V33.12H158.72V39.76C158.72 40.64 158.5 41.06 157.88 41.3C157.26 41.52 156.3 41.56 154.74 41.54C154.66 41.12 154.42 40.54 154.2 40.12C155.38 40.16 156.48 40.16 156.78 40.14C157.1 40.14 157.22 40.04 157.22 39.76V33.12H152.6V31.7H157.22V29.42C158.24 28.58 159.32 27.28 160.14 26.12H153.48V24.74H161.16L161.5 24.66L162.52 25.4C161.54 26.88 160.12 28.56 158.72 29.78V31.7H163.12ZM171.1 38.74V35H166.98V38.74H171.1ZM169.74 25.2V28.9H172.98V30.3H169.74V33.66H172.5V40.84H171.1V40.1H166.98V41.3H165.62V33.66H168.26V30.3H164.86V28.9H168.26V25.2H165.2V23.8H172.58V25.2H169.74ZM180.04 32.88V28.44H176V32.88H180.04ZM176 39H180.04V34.3H176V39ZM183.12 27V28.44H181.52V41.46H180.04V40.42H176V41.54H174.54V28.44H172.66V27H174.54V23.32H176V27H180.04V23.32H181.52V27H183.12ZM192.36 36.24L191.92 35.18C193.46 34.54 194.34 33.6 194.44 32.24C194.32 32.26 194.22 32.26 194.1 32.26C193.28 32.26 192.6 31.78 192.6 30.84C192.6 29.9 193.3 29.4 194.12 29.4C195.22 29.4 195.82 30.3 195.82 31.7C195.82 33.86 194.46 35.5 192.36 36.24ZM220.32 26.46H214.68C214.02 28.86 212.96 30.74 211.44 32.1C211.18 31.86 210.54 31.38 210.18 31.16C212.3 29.5 213.34 26.74 213.76 23.26L215.28 23.46C215.2 24.02 215.12 24.56 215 25.08H221.9C221.9 25.08 221.88 25.5 221.84 25.72C221.6 29.18 221.34 30.56 220.82 31.12C220.46 31.5 220.08 31.6 219.5 31.64C218.98 31.68 218 31.68 216.98 31.62C216.94 31.2 216.76 30.62 216.52 30.26C217.52 30.34 218.5 30.36 218.88 30.36C219.22 30.36 219.4 30.34 219.58 30.18C219.92 29.86 220.14 28.86 220.32 26.46ZM210.38 25.62L209.5 26.8C208.74 26.08 207.18 25.1 205.9 24.5L206.72 23.44C208 23.98 209.58 24.88 210.38 25.62ZM209.34 30.8L208.52 32.04C207.72 31.36 206.14 30.44 204.84 29.86L205.64 28.78C206.92 29.28 208.54 30.14 209.34 30.8ZM209.04 33.88L210.14 34.82C209.16 36.92 207.84 39.4 206.74 41.24L205.48 40.28C206.5 38.74 207.94 36.14 209.04 33.88ZM219.92 33.9H213.98C214.68 35.2 215.66 36.36 216.9 37.34C218.16 36.42 219.2 35.26 219.92 33.9ZM220.98 32.5L221.94 32.92C221.14 35.14 219.8 36.86 218.12 38.2C219.6 39.12 221.32 39.8 223.22 40.2C222.88 40.5 222.46 41.12 222.26 41.52C220.24 41 218.42 40.18 216.86 39.08C215 40.24 212.86 41.02 210.62 41.5C210.5 41.12 210.16 40.5 209.88 40.18C211.94 39.82 213.94 39.14 215.68 38.14C214.42 37.04 213.38 35.74 212.6 34.24L213.58 33.9H211.26V32.56H220.7L220.98 32.5ZM238.94 32.92V30.9H230.6V32.92H238.94ZM230.54 36.3H238.94V34.2H230.6V34.82C230.6 35.3 230.58 35.78 230.54 36.3ZM242.74 27.24H231.94C231.56 28.02 231.16 28.82 230.72 29.56H240.4V39.66C240.4 40.56 240.2 41 239.56 41.24C238.9 41.48 237.78 41.5 236.08 41.5C236.02 41.06 235.8 40.46 235.58 40.04C236.92 40.1 238.12 40.08 238.48 40.08C238.82 40.06 238.94 39.96 238.94 39.66V37.58H230.36C230.1 39.04 229.5 40.54 228.32 41.64C228.14 41.32 227.6 40.7 227.28 40.48C228.94 38.88 229.12 36.68 229.12 34.78V31.86C228.18 33 227.1 34.06 225.88 34.92C225.68 34.6 225.22 34.06 224.94 33.76C227.28 32.18 229.08 29.82 230.32 27.24H225.34V25.84H230.96C231.3 24.98 231.6 24.12 231.84 23.26L233.32 23.62C233.1 24.36 232.84 25.12 232.54 25.84H242.74V27.24ZM254.46 28.2H257.78C258.1 27.62 258.5 26.76 258.76 26.14H254.32C254.68 26.72 255.02 27.5 255.14 28L254.46 28.2ZM258.36 35.64V34.12H255.22V35.64H258.36ZM253.02 26.32L253.7 26.14H250.32V24.94H255.8C255.56 24.48 255.26 24 254.96 23.6L256.14 23.14C256.6 23.66 257.04 24.36 257.32 24.94H262.9V26.14H259.72L260.22 26.28C259.9 26.96 259.52 27.64 259.16 28.2H262.2V36.94C262.2 37.68 262.08 38.04 261.56 38.28C261.04 38.5 260.2 38.52 259.02 38.52C258.96 38.12 258.76 37.6 258.58 37.22C259.48 37.26 260.24 37.26 260.52 37.26C260.76 37.24 260.82 37.16 260.82 36.94V29.38H257.34V30.74H260.32V31.76H257.34V33.18H259.46V36.58H255.22V37.34H254.12V33.18H256.2V31.76H253.2V30.74H256.2V29.38H252.7V38.6H251.34V28.2H253.8C253.68 27.66 253.36 26.9 253.02 26.32ZM249.4 26.34L248.26 27.14C247.74 26.32 246.64 24.94 245.76 23.96L246.86 23.3C247.76 24.26 248.86 25.54 249.4 26.34ZM249.44 32.76L250.18 33.04C249.9 34.8 249.46 36.28 248.88 37.56C250.2 39.62 252.7 39.92 256.32 39.92C258.38 39.92 261.3 39.82 263.34 39.66C263.12 39.98 262.92 40.66 262.84 41.08C260.98 41.18 258.48 41.24 256.32 41.24C252.32 41.24 249.86 40.82 248.28 38.68C247.54 39.92 246.66 40.88 245.64 41.58C245.42 41.28 244.94 40.76 244.66 40.56C246.56 39.34 248 37.14 248.66 34.02H246.48C245.96 34.02 245.44 34.14 245.3 34.3C245.2 33.94 244.92 33.26 244.76 32.94C245.04 32.86 245.36 32.74 245.72 32.36C246.18 31.92 247.36 30.32 248.22 29.1H245.02V27.88H249.16L249.42 27.78L250.4 28.24C249.56 29.4 248.04 31.46 246.92 32.8H249.18L249.44 32.76ZM38.74 64.86H29.46V69H38.74V64.86ZM27.96 71.5V63.54H40.28V71.42H38.74V70.38H29.46V71.5H27.96ZM29.54 59.76H38.98C37.22 58.68 35.62 57.42 34.12 55.82C32.82 57.32 31.24 58.64 29.54 59.76ZM34.32 53.22L35.62 53.86C35.42 54.18 35.2 54.46 34.98 54.76C37.32 57.24 40.1 58.88 43.28 60.22C42.9 60.54 42.48 61.1 42.26 61.56C41.12 61 40.04 60.44 39.02 59.78V61.14H29V60.12C28 60.72 26.98 61.28 25.94 61.74C25.68 61.34 25.28 60.78 24.86 60.44C28.64 58.94 32.3 56.3 34.32 53.22ZM51.36 61.98V57.8H47.16V61.98H51.36ZM47.16 68.1H51.36V63.3H47.16V68.1ZM48.84 53.22L50.44 53.52C50.1 54.5 49.74 55.6 49.4 56.46H52.72V69.44H47.16V71.02H45.8V56.46H48.04C48.34 55.5 48.7 54.16 48.84 53.22ZM62.5 56.4V57.16C62.18 66.28 61.92 69.36 61.12 70.34C60.68 70.9 60.22 71.08 59.54 71.14C58.84 71.22 57.7 71.18 56.58 71.12C56.54 70.68 56.36 70.08 56.08 69.66C57.38 69.78 58.58 69.78 59.04 69.78C59.44 69.78 59.66 69.74 59.86 69.48C60.52 68.78 60.82 65.74 61.08 57.78H56C55.44 59.12 54.82 60.34 54.12 61.28C53.86 61.04 53.22 60.64 52.9 60.44C54.24 58.68 55.32 55.92 55.96 53.18L57.38 53.52C57.14 54.5 56.86 55.46 56.52 56.4H62.5ZM59.34 65.4L58.08 66.18C57.48 64.98 56.14 63 55.04 61.56L56.2 60.88C57.32 62.3 58.7 64.22 59.34 65.4ZM68.12 67.84H79.88V56.82H68.12V67.84ZM66.62 55.34H81.46V70.94H79.88V69.34H68.12V71.04H66.62V55.34ZM89.38 56.52H86.88V65.22H89.38V56.52ZM90.76 66.66H86.88V68.2H85.52V55.08H90.76V66.66ZM102.96 62.76H98.34C99.46 65.3 101.32 67.84 103.18 69.12C102.84 69.4 102.34 69.96 102.1 70.34C100.48 69.04 98.9 66.78 97.76 64.38V71.52H96.3V64.4C95 66.92 93.16 69.12 91.22 70.38C90.98 70.02 90.54 69.5 90.18 69.22C92.4 67.98 94.5 65.42 95.72 62.76H91.48V61.34H96.3V57.98H92.24V56.56H96.3V53.38H97.76V56.56H102.14V57.98H97.76V61.34H102.96V62.76ZM106.78 70.26C106.06 70.26 105.46 69.7 105.46 68.88C105.46 68.04 106.06 67.46 106.78 67.46C107.5 67.46 108.1 68.04 108.1 68.88C108.1 69.7 107.5 70.26 106.78 70.26ZM112.346 70.26C111.626 70.26 111.026 69.7 111.026 68.88C111.026 68.04 111.626 67.46 112.346 67.46C113.066 67.46 113.666 68.04 113.666 68.88C113.666 69.7 113.066 70.26 112.346 70.26ZM117.913 70.26C117.193 70.26 116.593 69.7 116.593 68.88C116.593 68.04 117.193 67.46 117.913 67.46C118.633 67.46 119.233 68.04 119.233 68.88C119.233 69.7 118.633 70.26 117.913 70.26ZM127.699 71.72H121.379V70.34H126.219V58.78H127.699V71.72Z" fill="#666666"/>
<rect x="0.5" y="0.5" width="299" height="91" rx="45.5" stroke="#666666"/>
</svg>
