<svg width="468" height="322" fill="none" xmlns="http://www.w3.org/2000/svg"><path d="m0 273.968 58.508-.272 58.498-.103L234 273.4l116.994.193 58.509.103 58.497.272-58.497.284-58.509.091-116.994.193-116.994-.193-58.498-.091L0 273.968Z" fill="#000"/><path d="M202.774 282.799h11.892l-2.196-126.86h-7.5l-2.196 126.86ZM87.907 282.799h11.892l-2.196-126.86h-7.51l-2.186 126.86Z" fill="#666"/><path d="M83.303 233.028h138.78v-73.057H83.303v73.057Z" fill="#999"/><path d="M74.594 233.028h8.71v-73.057h-8.71v73.057ZM205.44 199.687a3.28 3.28 0 0 0 2.021 3.041 3.283 3.283 0 0 0 4.484-2.388 3.292 3.292 0 0 0-.185-1.899 3.292 3.292 0 0 0-3.036-2.029 3.285 3.285 0 0 0-3.284 3.275ZM90.573 199.687a3.286 3.286 0 0 0 3.923 3.231 3.288 3.288 0 0 0 2.583-2.584 3.282 3.282 0 0 0-3.23-3.922 3.276 3.276 0 0 0-3.276 3.275Z" fill="#666"/><path d="M211.704 129.028c41.091 41.654 95.328 129.26 85.697 147.028-10.73 19.78-67.947-38.609-67.725-42.013.166-2.583-26.653-50.501-37.825-94.507-10.148-40.306 9.696-20.812 19.853-10.508Z" fill="#FFD3C9"/><path d="m205.071 210.093 45.279-41.829s-29.429-36.385-48.379-51.22c-13.93-10.914-19.549 1.043-18.285 13.156 4.281 40.814 21.385 79.893 21.385 79.893Z" fill="#A9C297"/><path d="M186.961 151.253c.157.784.314 1.568.48 2.343a10.162 10.162 0 0 0 7.722 1.587 7.424 7.424 0 0 0 4.502-2.768 8.923 8.923 0 0 0 1.43-5.72c-.148-3.69-1.984-8.755 1.273-11.596a7.783 7.783 0 0 1 5.646-1.522 20.713 20.713 0 0 1 6.799 2.177c2.888 1.31 6.265 2.768 9.521 2.638-.507-.535-1.005-1.07-1.522-1.605a14.502 14.502 0 0 1-2.38-.47c-4.539-1.301-8.534-4.484-13.442-4.382a9.128 9.128 0 0 0-5.646 1.845 7.32 7.32 0 0 0-2.509 5.175c-.043 2.04.108 4.078.452 6.089.203 1.845.332 3.902-.517 5.628-1.568 3.201-5.72 3.616-8.746 2.518a8.439 8.439 0 0 1-3.063-1.937Zm34.319 43.867 2.076-1.909a5.536 5.536 0 0 0-2.076 1.909Zm-28.479-20.075c.157.554.323 1.098.48 1.643a6.903 6.903 0 0 0 4.972.184c2.233-.821 3.645-2.768 4.853-4.714 1.209-1.947 2.408-4.179 4.484-5.388a9.353 9.353 0 0 1 7.639-.498c4.308 1.458 6.983 5.212 8.662 9.281.132.488.315.961.545 1.411a11.948 11.948 0 0 0 2.038 2.823c1.799 1.846 4.189 3.165 5.785 5.204l1.005-.923a30.84 30.84 0 0 0-4.299-3.829c-2.131-1.743-6.015-7.989-6.458-8.755a13.667 13.667 0 0 0-5.941-5.673 11.304 11.304 0 0 0-7.556-.775 10.238 10.238 0 0 0-5.673 4.613c-1.264 1.845-2.344 4.123-4.253 5.433a5.9 5.9 0 0 1-6.283-.037Z" fill="#fff"/><path d="M183.705 130.182c4.271 40.823 21.366 79.893 21.366 79.893l30.131-27.834-44.347-69.366c-5.757 1.171-7.99 9.216-7.15 17.307Z" fill="#fff"/><path d="M242.195 162.6c-7.501 5.858-27.382 22.335-38.914 34.725-.064.074.185.378.268.314 11.144-8.866 32.059-28.12 39.024-34.605.129-.12-.231-.563-.378-.434Z" fill="#000"/><path d="M227.655 282.929H71.43s40.952-149.731 84.746-175.562c9.004-5.314 33.433-3.69 41.911 9.585 18.987 29.725 30.002 165.451 29.568 165.977Z" fill="#A9C297"/><path d="M156.739 134.185a5.656 5.656 0 0 0 5.784 1.845c2.094-.655 3.432-2.454 5.009-3.865a7.383 7.383 0 0 1 5.204-1.91 8.162 8.162 0 0 1 5.009 1.845c1.799 1.522 2.426 3.746 2.768 5.988.756 4.612 1.393 9.225 4.308 13.035a10.421 10.421 0 0 0 10.305 4.023 7.43 7.43 0 0 0 4.502-2.768 8.923 8.923 0 0 0 1.43-5.72c-.148-3.69-1.983-8.755 1.273-11.596a6.222 6.222 0 0 1 2.823-1.347l-.498-1.541a8.227 8.227 0 0 0-3.349 1.596 7.324 7.324 0 0 0-2.509 5.176 32.165 32.165 0 0 0 .452 6.088c.203 1.846.332 3.903-.517 5.628-1.568 3.201-5.72 3.616-8.746 2.519-3.967-1.44-6.005-5.656-7.048-9.475-.609-2.251-.839-4.557-1.31-6.827a9.787 9.787 0 0 0-2.887-5.535 9.585 9.585 0 0 0-10.149-1.55c-1.891.867-3.146 2.565-4.742 3.847a4.659 4.659 0 0 1-2.656 1.162 4.15 4.15 0 0 1-2.676-.922 5.895 5.895 0 0 1-2.159-5.702 12.264 12.264 0 0 1 3.358-6.181c1.449-1.587 3.109-3.118 3.838-5.194a6.826 6.826 0 0 0 .213-3.168 6.829 6.829 0 0 0-1.246-2.921 16.466 16.466 0 0 0-4.613-4.243c-.5.202-.987.436-1.457.701a21.544 21.544 0 0 1 3.764 2.869c1.559 1.587 2.823 3.755 2.158 6.043-.664 2.288-2.509 3.69-3.948 5.323a13.417 13.417 0 0 0-3.46 6.55 7.287 7.287 0 0 0 1.772 6.227Zm-49.071 45.584a9.364 9.364 0 0 0 3.321 4.492 9.092 9.092 0 0 0 8.672 1.181 6.232 6.232 0 0 0 3.192-3.385c.662-1.945.751-4.039.258-6.034a43.329 43.329 0 0 1-1.079-5.692 9.044 9.044 0 0 1 .812-4.465 3.486 3.486 0 0 1 3.026-2.196c1.946 0 3.432 1.651 4.364 3.192 1.042 1.735 1.752 3.69 3.044 5.231a7.381 7.381 0 0 0 4.779 2.62 7.269 7.269 0 0 0 8.118-5.535 7.654 7.654 0 0 0-.618-5.25 10.338 10.338 0 0 0-3.644-3.634c-2.768-1.846-6.384-3.266-7.076-6.91a7.002 7.002 0 0 1 .83-4.788 7.768 7.768 0 0 1 3.866-3.026c3.09-1.329 6.855-2.095 8.229-5.536 1.485-3.745-.756-7.878-3.09-10.72a44.246 44.246 0 0 0-5.776-5.609l-.59.766 1.098 1.005c2.638 2.427 5.323 5.13 6.716 8.497.853 1.767.972 3.8.332 5.655a6.458 6.458 0 0 1-3.533 3.137c-3.045 1.365-6.578 1.983-8.46 5.028a8.3 8.3 0 0 0 .563 9.521c2.168 2.62 5.655 3.533 8.007 5.922a5.883 5.883 0 0 1 1.762 4.392 5.646 5.646 0 0 1-2.093 4.395 5.66 5.66 0 0 1-4.733 1.14 6.184 6.184 0 0 1-4.18-2.97c-1.928-2.999-3.339-7.713-7.62-7.934-3.303-.176-5.102 2.979-5.535 5.839a13.185 13.185 0 0 0 .23 4.844c.527 1.996.836 4.044.923 6.107a5 5 0 0 1-3.34 5.218c-.705.244-1.455.327-2.195.244a7.906 7.906 0 0 1-6.947-4.761 10.582 10.582 0 0 1-.674-2.159c-.304.692-.636 1.43-.959 2.178Zm44.938 12.316a9.946 9.946 0 0 0 4.935 6.061c5.748 2.906 11.993-1.126 17.925.434a6.452 6.452 0 0 1 3.266 1.891 6.449 6.449 0 0 1 1.486 3.367c.442 2.851-.48 5.674-1.347 8.349-.978 3.035-1.993 6.329-1.181 9.521a7.704 7.704 0 0 0 4.041 4.982c3.847 1.946 9.004 1.236 11.375-2.62 1.577-2.556 1.762-5.628 2.481-8.479.582-2.324 1.993-5.166 4.493-5.904 2.5-.738 4.253 1.098 5.019 3.211.922 2.481.59 5.009.452 7.583-.157 2.851 0 5.941 2.011 8.174 1.845 2.02 4.714 2.851 7.381 3.007a14.624 14.624 0 0 0 7.638-1.633c-.064-.498-.12-1.005-.184-1.513a13.005 13.005 0 0 1-6.929 1.744c-2.583-.064-5.535-.812-7.205-2.98s-1.402-5.415-1.227-8.081a15.171 15.171 0 0 0-.922-7.381 5.704 5.704 0 0 0-5.01-3.69c-2.62 0-4.686 2.067-5.84 4.244-1.328 2.491-1.494 5.341-2.241 8.026-.637 2.269-1.79 4.373-4.078 5.295-3.45 1.393-8.377 0-9.65-3.782-1.079-3.146.055-6.458 1.033-9.521a21.67 21.67 0 0 0 1.449-8.081 7.772 7.772 0 0 0-3.875-6.458 12.912 12.912 0 0 0-7.63-1.107c-3.192.35-6.457 1.374-9.659.848a8.307 8.307 0 0 1-6.079-4.511 7.862 7.862 0 0 1 .092-7.334 8.344 8.344 0 0 1 5.794-4.281c2.463-.48 5.027-.175 7.463-.802a5.93 5.93 0 0 0 3.077-1.742 5.93 5.93 0 0 0 1.536-3.185c.387-2.768-.923-5.535-2.067-7.943-1.144-2.408-2.703-5.785-1.015-8.432a6.38 6.38 0 0 1 5.656-2.565c2.647.102 4.908 1.716 6.568 3.69 3.792 4.456 4.41 11.071 9.161 14.761 2.058 1.596 4.881 2.519 7.381 1.578 2.232-.821 3.644-2.768 4.852-4.715 1.209-1.946 2.408-4.179 4.484-5.387a8.702 8.702 0 0 1 5.332-1.015c-.073-.341-.138-.674-.203-1.006a10.156 10.156 0 0 0-3.69.277 10.244 10.244 0 0 0-5.674 4.613c-1.263 1.845-2.343 4.124-4.253 5.434-2.37 1.623-5.267.922-7.38-.738-2.436-1.845-3.69-4.798-4.899-7.51-2.14-4.816-5.268-10.702-11.181-11.237a8.143 8.143 0 0 0-6.458 2.15c-2.076 2.103-2.039 5.129-1.116 7.768.978 2.823 2.767 5.369 3.173 8.386a5.183 5.183 0 0 1-.83 3.81 5.055 5.055 0 0 1-2.934 1.744c-2.444.59-5.009.286-7.472.793a9.839 9.839 0 0 0-6.246 4.401 9.226 9.226 0 0 0-1.079 7.491Zm-63.878 57.106a6.461 6.461 0 0 0 7.888 0c1.919-1.55 2.906-3.93 4.087-6.034 1.042-1.845 2.583-3.994 5.009-3.69 3.008.415 4.613 3.69 4.696 6.366a23.398 23.398 0 0 1-.581 5.424c-.351 1.846-.692 3.626-.923 5.462-.341 3.515-.157 7.426 1.845 10.48a9.808 9.808 0 0 0 6.615 4.235 6.76 6.76 0 0 0 6.91-2.768c1.642-2.519 1.291-5.738.756-8.534-.535-2.795-1.245-5.415-.525-8.118a4.836 4.836 0 0 1 2.066-2.961 5.694 5.694 0 0 1 4.548-.314c3.201.922 5.536 3.469 8.248 5.203a10.644 10.644 0 0 0 12.266-.313 10.624 10.624 0 0 0 2.873-3.239 10.478 10.478 0 0 0 1.148-4.196 10.477 10.477 0 0 0-.659-4.301 10.589 10.589 0 0 0-6.107-6.19c-2.906-1.19-6.375-1.457-8.848-3.542a6.084 6.084 0 0 1-2.269-3.506 3.557 3.557 0 0 1 1.338-3.34c2.315-1.845 5.646-1.374 8.303-1.052 3.145.369 6.993.582 9.225-2.131a7.208 7.208 0 0 0 .923-6.873 8.435 8.435 0 0 0-5.333-5.286 13.693 13.693 0 0 0-8.939.388 38.254 38.254 0 0 0-4.179 1.955 12.705 12.705 0 0 1-4.235 1.541 4.087 4.087 0 0 1-2.02-.211 4.087 4.087 0 0 1-1.67-1.154 5.634 5.634 0 0 1-1.07-3.746 9.65 9.65 0 0 1 1.337-4.05c.738-1.485 1.015-3.007.046-4.474a11.251 11.251 0 0 0-6.873-4.309 11.068 11.068 0 0 0-7.435.794 7.917 7.917 0 0 0-2.814 2.454 16.317 16.317 0 0 0-1.845 4.437 9.564 9.564 0 0 1-2.214 3.884 8.872 8.872 0 0 1-3.515 2.168 7.183 7.183 0 0 1-4.115.129 10.063 10.063 0 0 1-3.865-2.352c-.618-.554-1.209-1.153-1.79-1.735-.13.333-.25.665-.378.988a20.125 20.125 0 0 0 2.656 2.583 8.482 8.482 0 0 0 7.823 1.568 9.71 9.71 0 0 0 6.007-5.332c.655-1.522.922-3.183 1.697-4.678a6.67 6.67 0 0 1 2.445-2.767 9.514 9.514 0 0 1 7.113-.923c1.228.275 2.403.748 3.478 1.402 1.162.72 2.638 1.846 2.989 3.22.35 1.375-.923 2.879-1.412 4.17a8.315 8.315 0 0 0-.599 4.032c.304 2.767 2.168 5.138 5.111 5.35 2.943.213 5.729-1.752 8.303-2.979a13.635 13.635 0 0 1 8.496-1.274 7.12 7.12 0 0 1 5.462 4.613c.72 2.067.581 4.613-1.19 6.126-2.657 2.251-6.689 1.079-9.788.83-2.574-.203-5.683.139-7.584 2.076a5.009 5.009 0 0 0-1.421 3.644 6.535 6.535 0 0 0 1.587 3.783c2.011 2.5 5.074 3.339 8.017 4.234a16.514 16.514 0 0 1 4.345 1.845 8.386 8.386 0 0 1 2.768 3.026 9.082 9.082 0 0 1 .434 7.934 8.997 8.997 0 0 1-6.034 4.834 8.73 8.73 0 0 1-3.967.083 11.824 11.824 0 0 1-4.114-2.002c-2.63-1.845-4.982-4.151-8.211-4.926-2.915-.701-6.052.175-7.5 2.971-1.246 2.417-1.061 5.341-.591 7.934.471 2.592 1.347 5.535.637 8.21a4.995 4.995 0 0 1-5.407 3.764 8.224 8.224 0 0 1-6.273-3.745c-1.845-3.072-1.9-6.882-1.448-10.351.452-3.469 1.697-7.067 1.347-10.647-.268-2.841-1.753-5.692-4.484-6.863a5.534 5.534 0 0 0-6.559 1.734c-2.667 3.155-4.244 10.545-9.844 8.497a6.203 6.203 0 0 1-3.884-6.753c.35-3.248 2.49-5.683 4.982-7.602 2.49-1.919 5.314-3.903 6.227-7.131.821-2.925-.646-5.619-3.155-7.132a12.624 12.624 0 0 0-2.97-1.254c-.176.47-.342.922-.508 1.393l.35.101c2.565.821 5.305 2.648 4.964 5.701-.378 3.377-3.69 5.434-6.09 7.381-2.398 1.946-4.612 4.52-5.212 7.795a7.926 7.926 0 0 0 3.082 8.036Zm67.522 33.738h1.448c.14-.373.326-.726.554-1.052 1.346-1.928 3.837-1.965 5.968-1.956 2.132.009 4.17-.055 5.951-1.264a3.962 3.962 0 0 0 1.642-5.083c-.922-2.039-3.035-3.275-5-4.151-1.965-.877-4.022-1.486-5.766-2.768-1.504-1.107-2.842-2.888-2.325-4.844a4.997 4.997 0 0 1 3.33-3.173 9.831 9.831 0 0 1 5.388-.369c2.519.526 4.908 1.559 7.454 2.002 2.242.378 5.148.516 6.929-1.163 1.531-1.439 1.66-3.745 1.31-5.683-.415-2.324-1.845-4.705-1.209-7.112a5.775 5.775 0 0 1 3.469-3.691c3.93-1.688 7.888.582 10.24 3.755 2.353 3.174 2.962 7.528 5.536 10.674a6.639 6.639 0 0 0 5.138 2.537c2.362 0 4.493-1.218 6.551-2.232a13.155 13.155 0 0 1 6.015-1.661c2.02.038 4.004.546 5.793 1.485.314.166.628.342.923.526 0-.526-.102-1.052-.157-1.587a14.94 14.94 0 0 0-5.166-1.743 12.312 12.312 0 0 0-6.237.765c-2.251.877-4.345 2.334-6.762 2.768-4.511.757-6.292-4.124-7.676-7.445-1.688-4.05-4.354-8.109-8.764-9.502-3.598-1.144-8.248.341-9.936 3.884-1.116 2.334-.415 4.76.277 7.113.544 1.845 1.208 4.455-.351 5.987a4.785 4.785 0 0 1-3.376 1.024 15.045 15.045 0 0 1-3.792-.535c-2.454-.609-4.89-1.605-7.436-1.799-3.33-.258-7.998 1.144-8.875 4.834a5.81 5.81 0 0 0 1.901 5.535 17.431 17.431 0 0 0 5.849 3.248c2.011.812 4.354 1.799 5.397 3.838 1.042 2.038-.84 3.57-2.63 4.105-2.278.692-4.723.074-7.048.563a5.901 5.901 0 0 0-4.419 3.755 3.54 3.54 0 0 0-.138.415Zm70.667 0h.757a14.821 14.821 0 0 0-.083-1.965 9.307 9.307 0 0 0-.692 1.965h.018ZM74.788 271.332c.24-.267.489-.507.747-.747 3.054-2.768 7.99-3.469 11.43-.987 3.1 2.242 3.691 6.458 6.173 9.225a6.994 6.994 0 0 0 5.314 2.408c2.223 0 4.843-.802 6.909.332a4.48 4.48 0 0 1 1.532 1.403h1.771a6.3 6.3 0 0 0-4.613-3.46c-2.481-.424-5.157.655-7.564-.249-1.772-.664-2.833-2.316-3.69-3.902a36.622 36.622 0 0 0-3.017-5.268 9.413 9.413 0 0 0-5.536-3.386 10.998 10.998 0 0 0-8.653 1.845c-.25.941-.526 1.864-.803 2.786Zm-3.358 11.643h.083a2.089 2.089 0 0 1 0-.24c-.065.111-.083.194-.083.194v.046Z" fill="#fff"/><path d="M200.108 125.864a.064.064 0 0 0-.096-.03.07.07 0 0 0-.024.03c0 7.233-.387 23.986-12.454 22.326-4.862-.665-9.143-3.691-12.695-6.717a65.786 65.786 0 0 1-9.705-10.268 93.31 93.31 0 0 1-8.82-13.017c-.101-.194-.396 0-.313.175a69.531 69.531 0 0 0 7.814 13.663 56.556 56.556 0 0 0 10.443 11.348c3.81 3.063 8.386 6.153 13.543 6.624a9.855 9.855 0 0 0 10.379-6.357c2.232-5.498 2.537-12.02 1.928-17.777Z" fill="#000"/><path d="M297.401 276.056c-9.226 13.229-34.421 15.748-97.219 28.045-8.691 1.707-37.198-56.386-28.009-58.683 11.569-2.888 57.097-11.597 60.501-11.809 28.747-1.827 70.991 33.47 64.727 42.447Z" fill="#FFD3C9"/><path d="M197.82 240.888s-25.315-6.458-39.67-5.701c-19.217.987-35.398 9.742-41.958 13.838-13.69 8.515-40.906 38.581-33.617 47.927 6.605 8.459 32.87-23.673 32.87-23.673s-32.188 28.35-22.372 37.077c9.816 8.728 38.194-30.306 38.194-30.306s-32.419 29.864-20.868 37.262c8.727 5.591 36.413-28.322 36.413-28.322s-27.677 25.832-18.959 32.003c9.65 6.781 37.17-22.916 37.17-22.916 24.817 11.864 41.515 7.381 52.964 2.768 2.786-1.153-20.167-59.957-20.167-59.957Z" fill="#FFD3C9"/><path d="M125.962 262.743c-3.902 3.192-7.879 6.403-11.477 9.927-3.597 3.524-7.094 7.187-10.351 11.071-7.998 9.437-11.522 16.606-11.255 16.181 6.292-9.899 18.996-22.732 22.603-26.256 3.607-3.524 7.02-7.223 10.618-10.747.093-.13-.046-.25-.138-.176ZM138.933 275.53c-4.806 4.29-9.733 8.377-14.345 12.916-4.613 4.539-8.562 9.133-12.842 13.921-.323.369 0 .425.322.074 4.466-4.613 8.949-8.543 13.461-13.1 4.511-4.558 8.856-9.3 13.515-13.673.074-.101-.037-.203-.111-.138ZM152.043 284.497c-7.676 6.181-14.207 13.783-20.435 21.376-.304.387.093.415.434.046 6.661-7.242 11.836-12.962 20.222-21.154.129-.129-.055-.397-.221-.268ZM195.477 240.602c2.767-.821 5.646-1.393 8.487-2.002 2.842-.609 5.609-1.227 8.414-1.845l8.414-1.845c2.767-.6 5.535-1.237 8.303-1.587 10.747-1.338 21.523 1.734 31.071 6.504a177.481 177.481 0 0 1 15.859 9.364c.092.055 0 .194-.092.147-9.392-5.064-18.922-10.295-29.273-12.998a47.617 47.617 0 0 0-15.683-1.532 75.174 75.174 0 0 0-8.119 1.246l-8.303 1.568-9.41 1.753c-3.164.609-6.329 1.273-9.53 1.642a.22.22 0 0 1-.277-.138.22.22 0 0 1 .139-.277Z" fill="#000"/><path d="M186.971 141.077c-9.604.839-23.461-15.684-28.065-28.064-.313-.849 2.104-8.977 4.613-18.987 1.476-6.088 2.98-12.915 3.893-19.198.185-1.3 38.176 15.388 38.176 15.388s-5.822 12.658-7.381 23.673a14.177 14.177 0 0 0-.11 2.629v.434c.073 5.037-1.855 23.313-11.126 24.125Z" fill="#FFD3C9"/><path d="M193.991 116.574c1.35.24 2.717.366 4.087.378a3.638 3.638 0 0 0 0-.443 14.264 14.264 0 0 1 .111-2.629c1.541-10.997 7.38-23.664 7.38-23.664s-30.868-13.543-37.096-15.286c.157 7.472 2.251 37.723 25.518 41.644Z" fill="#000"/><path d="M155.834 39.504c-2.463 14.613 10.25 54.283 21.431 62.042 16.21 11.246 40.113 9.41 48.997-9.475 8.626-18.304-8.856-69.69-21.099-76.47-18.036-9.964-45.685 2.296-49.329 23.903Z" fill="#FFD3C9"/><path d="M190.818 53.517a36.196 36.196 0 0 0 3.358-1.605c1.273-.636 2.361-1.005 3.109-2.297a1.92 1.92 0 0 0-.563-2.27c-1.476-1.042-3.238-.664-4.807 0a6.959 6.959 0 0 0-3.69 3.432c-.802 1.652 1.024 3.322 2.593 2.74ZM218.245 45.906a35.705 35.705 0 0 1-3.69 0c-1.421 0-2.555.148-3.801-.673a1.922 1.922 0 0 1-.507-2.288c.867-1.596 2.611-2.03 4.327-2.104a7.047 7.047 0 0 1 4.815 1.449c1.44 1.171.517 3.44-1.144 3.616ZM201.261 84.054c.655.664 1.31 1.587 2.325 1.697 1.043.001 2.074-.219 3.026-.646a.103.103 0 0 1 .111.032.098.098 0 0 1 .022.057.102.102 0 0 1-.013.059 3.765 3.765 0 0 1-3.589 1.448 2.985 2.985 0 0 1-2.159-2.527c-.037-.12.176-.213.277-.12ZM203.162 75.926a9.554 9.554 0 0 0 7.269 2.417 12.064 12.064 0 0 0 3.349-.747c.215-.06.422-.144.618-.25a7.12 7.12 0 0 0 .572-.248.704.704 0 0 0 .369-.757 1.345 1.345 0 0 0-.101-.267l-.065-.23c-.516-2.104-1.577-5.213-1.577-5.213.867.175 5.221.858 4.861-.213-2.998-8.865-6.328-18.727-11.181-26.92a.26.26 0 0 0-.337-.119.26.26 0 0 0-.133.332c2.537 8.635 6.587 16.762 9.271 25.388-1.365-.129-3.625-.452-4.705-.129-.276.166 2.168 5.978 2.325 6.938a.343.343 0 0 1 0 .11c-3.376 1.403-6.301 1.061-10.342-.36-.249-.147-.415.093-.193.268Z" fill="#000"/><path d="M211.695 77.503a10.602 10.602 0 0 1-3.579 4.023 4.89 4.89 0 0 1-2.823.71c-2.168-.166-2.574-2.048-2.491-3.736.047-.901.202-1.793.461-2.657a13.774 13.774 0 0 0 8.432 1.66Z" fill="#000"/><path d="M208.116 81.526a4.89 4.89 0 0 1-2.823.71c-2.168-.166-2.574-2.048-2.491-3.736 2.251-.184 4.723.941 5.314 3.026Z" fill="#FF6868"/><path d="M214.37 54.643c0-.102.25.074.277.193.6 2.768 1.753 5.766 4.438 6.043.083 0 .11.148 0 .157-3.082.341-4.576-3.736-4.715-6.393Z" fill="#000"/><path d="M215.044 57.613a4.284 4.284 0 0 0 1.43 1.753 3.134 3.134 0 0 0 2.436.397 2.774 2.774 0 0 0 1.845-1.688c.26-.71.348-1.473.258-2.224a9.101 9.101 0 0 0-.258-1.319 6.089 6.089 0 0 0-1.292-2.463c.216.64.358 1.302.424 1.974.071.613.095 1.23.074 1.845-.064 1.246-.479 2.39-1.411 2.574-.932.185-1.845-.314-2.574-1.365a20.145 20.145 0 0 1-1.716-3.497 8.79 8.79 0 0 0 .784 4.013ZM199.37 59.735c-.055-.101-.175.185-.148.296.849 2.666 1.356 5.876-.83 7.454-.065.046 0 .184.065.147 2.859-1.254 2.131-5.507.913-7.897Z" fill="#000"/><path d="M200.265 62.632a4.259 4.259 0 0 1-.369 2.242 3.041 3.041 0 0 1-1.91 1.55 2.766 2.766 0 0 1-2.436-.535 5.02 5.02 0 0 1-1.328-1.8 9.19 9.19 0 0 1-.434-1.282 5.916 5.916 0 0 1-.11-2.767 8.27 8.27 0 0 0 .618 1.928c.242.561.525 1.104.849 1.624.673 1.051 1.605 1.845 2.509 1.531.904-.314 1.476-1.218 1.55-2.472.044-1.3-.042-2.602-.259-3.884a8.777 8.777 0 0 1 1.32 3.865ZM156.111 73.27c11.191-1.071 14.761-15.232 10.388-25.408 0 0 30.066-1.015 27.529-24.91a23.487 23.487 0 0 0 20.887 7.381l4.742 8.156c2.869-1.375 4.612-10.49-3.857-15.979 0 0-2.481-11.68-12.334-17.298a16.312 16.312 0 0 0-17.704.48 24.678 24.678 0 0 0-18.451-1.412c-10.6 3.202-13.414 13.839-13.414 13.839S139.8 23.34 139.044 34.107a21.745 21.745 0 0 0 5.766 16.8s-2.98 4.677.36 13.201c2.131 5.535 7.583 9.484 10.941 9.161Z" fill="#000"/><path d="M193.023 21.016c.54 1.878.886 3.807 1.033 5.756a23.927 23.927 0 0 1-.138 5.748 15.059 15.059 0 0 1-5.379 9.613c-2.841 2.574-6.707 3.542-10.388 4.539-1.919.258-3.829.664-5.775.812-1.947.147-3.893.212-5.868.378 1.956.148 3.931.203 5.905.304 1.974.102 3.939-.304 5.923-.452 3.856-.802 7.906-1.845 11.07-4.51a15.795 15.795 0 0 0 5.536-10.546 23.843 23.843 0 0 0-1.919-11.642ZM153.888 18.174a27.613 27.613 0 0 0-10.444 4.161 16.604 16.604 0 0 0-6.937 9.023 18.254 18.254 0 0 0-.471 5.766c.084 1.929.499 3.83 1.227 5.618a15.38 15.38 0 0 0 7.538 8.22 16.875 16.875 0 0 1-6.541-8.598 18.841 18.841 0 0 1-.425-10.637 14.232 14.232 0 0 1 2.344-4.76 21.768 21.768 0 0 1 3.884-3.765 34.728 34.728 0 0 1 9.825-5.028ZM185.771 5.756a28.106 28.106 0 0 1 8.368-3.118 17.094 17.094 0 0 1 8.607.452 17.331 17.331 0 0 1 7.113 4.871 30.755 30.755 0 0 1 4.862 7.492 22.592 22.592 0 0 0-4.05-8.184 16.384 16.384 0 0 0-7.491-5.535 16.118 16.118 0 0 0-9.272-.175 21.386 21.386 0 0 0-8.137 4.197Z" fill="#000"/><path d="M210.468 32.123a31.02 31.02 0 0 1-9.724-3.312 18.744 18.744 0 0 1-4.05-3.017 22.955 22.955 0 0 1-3.219-4.05 12.709 12.709 0 0 0 2.435 4.76 13.68 13.68 0 0 0 4.152 3.506 17.429 17.429 0 0 0 5.074 1.845c1.75.384 3.552.474 5.332.268Z" fill="#000"/><path d="M167.975 71.692s-11.135-11.726-16.606-7.565c-5.47 4.16 4.29 22.14 11.661 23.663a7.18 7.18 0 0 0 7.727-2.634 7.185 7.185 0 0 0 1.213-2.606l-3.995-10.858Z" fill="#FFD3C9"/><path d="M154.312 69.21c-.12 0-.12.166 0 .194 5.185 1.245 8.451 5.387 10.96 9.825-1.725-1.596-3.856-2.288-6.024-.194-.111.11 0 .295.175.25a4.41 4.41 0 0 1 5.028.793 21.33 21.33 0 0 1 2.888 3.542c.295.406 1.051.055.811-.424a.678.678 0 0 0-.064-.111c-.821-6.255-6.984-14.263-13.774-13.875Z" fill="#000"/><path opacity=".4" d="m204.997 83.924 4.613 3.386c1.384 1.015 68.205 40.971 74.995 45.657l27.169-37.28c-6.569-5.056-65.059-56.386-66.424-57.401l-4.613-3.386-35.74 49.024Z" fill="#FEE3C5"/><path d="M255.677 95.6c3.793-5.204 1.917-13.031-4.19-17.481-6.107-4.45-14.132-3.838-17.925 1.367-3.792 5.205-1.916 13.032 4.19 17.482 6.107 4.45 14.132 3.838 17.925-1.367Z" fill="#FFB445"/><path d="M254.812 94.961c3.493-4.793 1.761-12.004-3.868-16.106-5.629-4.101-13.024-3.54-16.517 1.252-3.492 4.793-1.761 12.004 3.869 16.106 5.629 4.102 13.023 3.541 16.516-1.252Z" fill="#fff"/><path d="M234.842 83.685c.729.443 9.77 3.838 9.77 3.838s-5.997-7.575-6.643-8.137c-.645-.563-1.992.23-2.767 1.282-.775 1.052-1.089 2.574-.36 3.017Z" fill="#FFB445"/><path d="M239.529 78.564c.258.766 5.083 8.959 5.083 8.959s.803-8.617.692-9.392c-.111-.775-1.79-1.227-3.211-1.116-1.42.11-2.813.784-2.564 1.55Z" fill="#FFB445"/><path d="M247.195 78.694c-.36.636-2.583 8.828-2.583 8.828s7.131-4.612 7.629-5.147c.499-.535-.544-1.956-1.789-2.86-1.246-.904-2.87-1.458-3.257-.821ZM253.348 83.999c-.765.138-8.736 3.524-8.736 3.524s9.281 2.094 10.093 2.112c.811.019 1.024-1.54.691-2.934-.332-1.392-1.273-2.84-2.048-2.702Z" fill="#FFB445"/><path d="M254.391 91.36c-.738-.442-9.779-3.838-9.779-3.838s5.996 7.575 6.642 8.137c.646.563 2.002-.221 2.768-1.282.766-1.06 1.098-2.565.369-3.017ZM249.704 96.48c-.267-.756-5.092-8.958-5.092-8.958s-.794 8.626-.692 9.401c.101.775 1.845 1.227 3.22 1.117 1.374-.111 2.823-.794 2.564-1.56Z" fill="#FFB445"/><path d="M242.047 96.351c.36-.636 2.583-8.829 2.583-8.829s-7.122 4.613-7.62 5.158c-.498.544.544 1.955 1.78 2.86 1.237.904 2.879 1.43 3.257.811ZM235.875 91.056c.775-.139 8.737-3.534 8.737-3.534s-9.281-2.094-10.084-2.103c-.802-.01-1.024 1.54-.692 2.925.333 1.383 1.274 2.841 2.039 2.712ZM275.905 104.433c6.91 1.218 12.999-2.915 13.608-9.226.609-6.31-4.512-12.408-11.412-13.616-6.901-1.209-12.999 2.915-13.608 9.225s4.511 12.409 11.412 13.617Z" fill="#FFB445"/><path d="M275.997 103.538c6.357 1.116 11.993-2.694 12.529-8.506.535-5.812-4.152-11.43-10.518-12.547-6.365-1.116-11.993 2.694-12.528 8.506-.535 5.812 4.152 11.431 10.517 12.547Z" fill="#fff"/><path d="M267.473 93.99c.784.064 9.53-.969 9.53-.969s-8.257-4.031-9.032-4.244c-.775-.212-1.476 1.089-1.605 2.371-.129 1.283.323 2.768 1.107 2.842Z" fill="#FFB445"/><path d="M268.801 87.356c.563.554 8.174 5.665 8.174 5.665s-3.349-8.008-3.792-8.644c-.442-.637-1.992-.286-3.072.452-1.079.738-1.845 1.992-1.31 2.528ZM274.973 84.054c0 .729 2.03 8.986 2.03 8.986s3.533-7.289 3.69-7.98c.157-.693-1.338-1.495-2.768-1.744-1.43-.25-2.961 0-2.952.738Z" fill="#FFB445"/><path d="M282.307 85.982c-.544.47-5.304 7.04-5.304 7.04s8.303-2.298 8.985-2.649c.683-.35.102-1.845-.802-2.906-.904-1.06-2.325-1.946-2.879-1.485Z" fill="#FFB445"/><path d="M286.542 92.052c-.784-.064-9.539.969-9.539.969s8.303 4.031 9.041 4.234c.738.203 1.476-1.088 1.596-2.37.12-1.283-.314-2.768-1.098-2.833ZM285.186 98.686c-.563-.563-8.183-5.665-8.183-5.665s3.358 7.999 3.801 8.635c.443.637 1.983.286 3.063-.443 1.079-.729 1.882-1.965 1.319-2.527ZM279.042 101.997c0-.719-2.039-8.976-2.039-8.976s-3.524 7.279-3.69 7.98c-.166.701 1.328 1.485 2.767 1.734 1.439.25 2.962-.009 2.962-.738ZM271.698 100.051c.554-.461 5.305-7.03 5.305-7.03s-8.303 2.297-8.977 2.638c-.673.342-.101 1.846.803 2.906.904 1.061 2.325 1.956 2.869 1.486Z" fill="#FFB445"/><g opacity=".6"><path opacity=".6" d="M263.128 66.082c-.148 0-5.453 1.578-5.822 1.624-.369.046-4.096 1.098-4.17 1.126-.074.027-1.577 2.767-1.716 2.924-.138.157-2.011 3.441-2.057 3.69-.046.25 2.214 4.309 2.537 5.222a39.72 39.72 0 0 0 3.275 5.794c.305.12 4.834-1.347 5.48-1.513.646-.166 5.019-.923 5.268-1.144.249-.222 1.467-3.598 1.79-4.355.323-.756 1.725-3.109 1.494-3.56-.23-.453-1.937-3.451-2.482-4.162-.544-.71-3.21-5.563-3.597-5.645Z" fill="#fff"/><path opacity=".5" d="M267.712 76.674c-.046-.111-4.908 1.328-5.36 1.402-1.48.172-2.945.456-4.382.849-.44.918-.828 1.86-1.162 2.823-.249.48-1.845 3.413-1.716 3.616.129.203 4.853-1.209 5.609-1.282.757-.074 4.216-.665 4.613-1.209.396-.544.922-2.767 1.421-3.847.498-1.08.977-2.352.977-2.352Z" fill="#FFB445"/><path d="M263.976 69.053c.093.093 2.86 5.065 2.86 5.065s-1.623-.729-1.688-1.162c-.065-.434-.166-.97-.166-.97s-1.467-.091-1.467-.543c.11-.805.264-1.602.461-2.39ZM260.701 68.038c-.101-.258-1.845.535-2.408.563-.563.028-4.031.48-4.373.572a2.363 2.363 0 0 0-.922 1.07c.55-.1 1.11-.137 1.67-.11.645.11 1.42 1.282 1.715 1.098.296-.185.785-1.098 1.246-1.163.461-.064.922.48 1.236.25.314-.231.923-.407 1.116-.674.194-.268.72-1.606.72-1.606ZM263.266 67.153a37.054 37.054 0 0 1-2.297 4.613c-.166-.065-.12-.526 0-.683.12-.157 1.319-3.81 1.504-4.078.359-.48.894-.48.793.148ZM258.718 84.248c-.185-.23-2.049.6-2.704.452-.655-.148-2.435-4.032-2.583-4.336-.147-.305-.599-.72-.645-.35a47.769 47.769 0 0 0 2.048 4.843c.263.392.605.725 1.005.978a3.976 3.976 0 0 0 1.366-.332c.313-.139 1.799-.886 1.513-1.255Z" fill="#fff"/><path opacity=".6" d="M265.176 82.633c-.185.074-1.91-2.555-2.279-3.109a15.489 15.489 0 0 1-1.716-2.915 25.361 25.361 0 0 0-1.246-3.552 40.31 40.31 0 0 0-4.677 1.43 20.79 20.79 0 0 1-3.589 1.052c-.498 0-1.245 0-1.236-.185.009-.184 3.118-.922 3.884-1.236a49.421 49.421 0 0 1 5.812-1.8 41.637 41.637 0 0 1 1.679 3.968c.12.378 1.347 2.103 1.476 2.38.129.277 2.177 3.847 1.892 3.967Z" fill="#FFB445"/><path opacity=".6" d="M283.645 86.397c.129 0 4.89 1.412 5.222 1.458.332.046 3.69.987 3.745 1.006.056.018 1.412 2.463 1.541 2.629.129.166 1.845 3.09 1.845 3.33 0 .24-1.993 3.866-2.279 4.687a34.52 34.52 0 0 1-2.943 5.203c-.267.102-4.336-1.208-4.908-1.356-.572-.148-4.511-.84-4.732-1.024-.222-.185-1.32-3.238-1.606-3.912-.286-.673-1.549-2.767-1.337-3.192.212-.424 1.725-3.1 2.223-3.736.498-.637 2.878-5.019 3.229-5.093Z" fill="#fff"/><path opacity=".5" d="M279.53 95.909c.047-.102 4.401 1.199 4.816 1.254 1.324.16 2.634.415 3.921.766.406.82.764 1.665 1.07 2.528a22.165 22.165 0 0 1 1.541 3.247c-.102.185-4.355-1.089-5.037-1.153-.683-.065-3.783-.591-4.17-1.089-.388-.498-.821-2.51-1.273-3.45-.452-.941-.868-2.103-.868-2.103Z" fill="#FFB445"/><path d="M282.879 89.064c-.083.083-2.564 4.548-2.564 4.548s1.457-.655 1.522-1.052l.138-.858s1.319-.083 1.319-.498a19.962 19.962 0 0 0-.415-2.14ZM285.822 88.15c.093-.23 1.642.48 2.159.507.517.028 3.616.434 3.93.508.371.23.664.568.84.968a6.152 6.152 0 0 0-1.504-.101c-.572.102-1.273 1.153-1.541.987-.267-.166-.692-.987-1.107-1.052-.415-.064-.821.434-1.107.231-.286-.203-.849-.369-1.015-.609-.166-.24-.655-1.439-.655-1.439ZM283.507 87.357a34.58 34.58 0 0 0 2.066 4.179c.148-.065.102-.48 0-.618-.101-.139-1.19-3.423-1.356-3.69-.304-.406-.793-.406-.71.129ZM287.603 102.699c.166-.203 1.845.535 2.426.405.581-.129 2.177-3.616 2.316-3.883.138-.268.535-.646.581-.323a43.513 43.513 0 0 1-1.845 4.345c-.24.356-.555.655-.923.876a3.497 3.497 0 0 1-1.227-.295c-.258-.129-1.587-.793-1.328-1.125Z" fill="#fff"/><path opacity=".6" d="M281.8 101.25a20.283 20.283 0 0 0 2.048-2.767 14.161 14.161 0 0 0 1.541-2.62c.295-1.091.671-2.158 1.125-3.192 1.42.345 2.818.774 4.189 1.282 1.043.403 2.121.711 3.219.922.452 0 1.126 0 1.117-.166-.01-.166-2.768-.812-3.488-1.107a45.185 45.185 0 0 0-5.212-1.614 34.315 34.315 0 0 0-1.513 3.56c-.102.333-1.209 1.846-1.329 2.132-.12.286-1.955 3.469-1.697 3.57Z" fill="#FFB445"/><path opacity=".6" d="M261.956 94.202c.11-.101 5.489-1.448 5.83-1.605.342-.157 4.189-.923 4.253-.923.065 0 2.666 1.264 2.879 1.347.212.083 3.496 1.91 3.69 2.122.194.212.313 4.834.507 5.785.251 2.211.313 4.439.185 6.66-.194.249-4.844 1.329-5.471 1.523-.627.193-4.788 1.78-5.111 1.734-.323-.046-3.1-2.537-3.764-3.017-.664-.479-2.961-1.457-2.998-1.956-.037-.498-.249-4.068-.148-4.963.102-.895-.138-6.449.148-6.707Z" fill="#fff"/><path opacity=".5" d="M262.758 105.632c0-.119 5.628-1.393 6.052-1.568a30.862 30.862 0 0 1 4.189-1.531 26.764 26.764 0 0 1 2.472 1.845 24.346 24.346 0 0 1 3.34 2.214c0 .231-4.788 1.458-5.471 1.79-.683.332-3.958 1.605-4.613 1.356-.655-.249-2.223-1.919-3.201-2.565a30.637 30.637 0 0 0-2.768-1.541Z" fill="#FFB445"/><path d="M262.768 97.164c0 .129.156 5.821.156 5.821s1.015-1.467.849-1.845c-.166-.378-.36-.923-.36-.923s1.209-.83.923-1.227a22.48 22.48 0 0 0-1.568-1.826ZM264.401 94.34c0-.276 1.974-.322 2.527-.553.554-.23 4.06-1.338 4.419-1.412.36-.073 4.853 1.938 4.549 2.03a3.693 3.693 0 0 1-1.089.074c-.517-.055-1.845-.295-2.316-.388a6.353 6.353 0 0 0-1.457-.24c-.572.388-.794 1.514-1.163 1.486-.369-.028-1.199-.655-1.669-.517-.471.139-.674.84-1.071.775-.396-.064-1.07 0-1.356-.12a17.128 17.128 0 0 1-1.374-1.134ZM275.102 107.468c0-.286 2.057-.535 2.556-.996.498-.461 0-4.705 0-5.046 0-.342.138-.923.369-.637.344 1.722.591 3.462.738 5.213a3.376 3.376 0 0 1-.36 1.356 3.833 3.833 0 0 1-1.338.406c-.369.055-2.029.175-1.965-.296ZM268.589 99.193c.221.11.581 10.536.138 10.508-.442-.028-.562-5.748-.562-6.292 0-.544 0-4.447.424-4.216Z" fill="#fff"/><path opacity=".6" d="M278.027 96.186c-.434.138-8.682 2.823-8.894 2.767-.212-.055-6.541-3.911-6.633-4.133-.092-.221.341-.276.535-.147.194.129 5.794 3.275 6.098 3.293.305.019 8.165-1.965 8.359-2.048.193-.083.747.185.535.268Z" fill="#FFB445"/></g><path opacity=".6" d="M212.12 82.292s64.062 38.498 71.442 43.535l21.154-29.033c-7.039-5.424-44.181-37.013-47.604-39.503 0 0-10.738 12.371-14.659 15.222-11.357 8.192-24.392 1.706-30.333 9.779Z" fill="#FF6868"/><path d="M138.979 160.755c8.654 34.882 21.099 84.312 46.839 97.2 24.779 12.418 83.786-69.016 95.429-86.914 4.778-7.38-45.298-54.864-51.331-47.705-13.248 15.739-35.177 57.438-36.312 57.494-1.135.055-13.1-20.776-29.836-44.283-23.626-33.267-29.9 3.607-24.789 24.208Z" fill="#FFD3C9"/><path d="M278.58 58.5c7.685 3.09 4.373 10.978 4.373 10.978s5.388-2.132 10.527 0c5.886 2.454 4.613 12.758 4.613 12.758 3.786-.523 7.642.1 11.07 1.79 5.397 2.916 5.591 13.497 5.591 13.497s6.024 2.067 8.783 7.722c4.705 9.668-3.921 23.645-9.466 32.483-8.229 13.146-29.236 29.061-33.387 33.36l-57.411-34.449s13.673-46.423 20.97-56.441c7.463-10.24 26.773-24.743 34.337-21.699Z" fill="#FFD3C9"/><path d="M281.791 69.293c-9.124 6.873-15.683 16.062-22.824 24.854a.195.195 0 0 0-.021.217.194.194 0 0 0 .116.096c.025.007.051.01.077.007a.2.2 0 0 0 .132-.071c6.966-8.838 15.592-16.173 22.898-24.706a.275.275 0 0 0-.017-.363.277.277 0 0 0-.361-.034ZM297.234 81.987c-2.02 1.614-3.496 3.893-5.009 5.969a216.56 216.56 0 0 0-4.751 6.762 323.403 323.403 0 0 0-8.968 13.94c-.129.212.167.452.305.24 3.109-4.548 6.273-9.05 9.558-13.46a608.263 608.263 0 0 1 4.991-6.587c1.568-2.03 3.385-4.05 4.465-6.394a.398.398 0 0 0-.591-.47ZM314.661 97.726c-1.845 1.338-3.016 3.755-4.225 5.609a584.447 584.447 0 0 1-4.142 6.311c-2.768 4.197-5.535 8.386-8.506 12.472-.148.203.157.453.304.25 2.999-4.143 6.052-8.248 9.023-12.418 1.448-2.048 2.897-4.096 4.327-6.163 1.217-1.753 2.943-3.8 3.432-5.922a.14.14 0 0 0-.061-.139.14.14 0 0 0-.152 0ZM193.373 180.488a66.593 66.593 0 0 0-2.048 12.639 115.382 115.382 0 0 0-.286 12.335c0 .092.212 0 .212-.065.222-4.124.868-8.358 1.31-12.528.443-4.17 1.264-8.423 1.486-12.528.027-.268-.591-.13-.674.147ZM164.848 234.974c1.236 1.975 2.592 3.884 3.939 5.794 1.347 1.91 2.768 3.801 4.336 5.591a45.563 45.563 0 0 0 9.226 8.699 16.776 16.776 0 0 0 11.725 3.017c4.548-.655 8.682-2.915 12.547-5.295A130.022 130.022 0 0 0 227 237.198a214.01 214.01 0 0 0 17.723-18.848c5.599-6.633 10.849-13.552 16.356-20.296.702-.858 1.403-1.716 2.095-2.593.147-.175.452 0 .313.194-2.491 3.69-5 7.38-7.574 10.988-2.574 3.607-5.351 7.076-8.128 10.517a206.407 206.407 0 0 1-17.888 19.678 132.068 132.068 0 0 1-20.693 16.366c-3.884 2.445-7.952 4.853-12.427 6.015a17.721 17.721 0 0 1-12.805-1.384c-3.745-1.928-6.817-4.963-9.539-8.127a73.138 73.138 0 0 1-8.201-11.449c-.591-1.024-1.117-2.085-1.652-3.146a.153.153 0 0 1-.01-.115.152.152 0 0 1 .278-.024Z" fill="#000"/><path d="m145.834 218.064 47.225-39.67s-23.349-39.153-39.771-56.737c-9.225-9.853-17.03 3.432-17.888 15.582-3.035 42.567 10.434 80.825 10.434 80.825Z" fill="#A9C297"/><path d="M156.739 134.185a5.656 5.656 0 0 0 5.784 1.846 6.711 6.711 0 0 0 1.79-.923c-.286-.387-.581-.766-.867-1.144a3.857 3.857 0 0 1-4.881-.074 5.89 5.89 0 0 1-2.158-5.701 8.804 8.804 0 0 1 .664-2.223 60.575 60.575 0 0 0-.987-1.154 10.917 10.917 0 0 0-1.07 3.155 7.28 7.28 0 0 0 1.725 6.218Zm-21.717 23.064.074.083c2.168 2.556 5.609 3.478 7.934 5.84a5.885 5.885 0 0 1 1.762 4.392 5.662 5.662 0 0 1-2.094 4.395 5.648 5.648 0 0 1-4.733 1.14 5.71 5.71 0 0 1-1.753-.609c.064.6.129 1.199.203 1.79.529.204 1.08.343 1.642.415a7.272 7.272 0 0 0 8.118-5.535 7.654 7.654 0 0 0-.618-5.25 10.34 10.34 0 0 0-3.644-3.635c-2.611-1.697-5.923-3.081-6.91-6.227a7.495 7.495 0 0 1-.166-.683 6.996 6.996 0 0 1 .12-3.09 6.544 6.544 0 0 1 .711-1.698 7.767 7.767 0 0 1 3.865-3.026c3.091-1.328 6.855-2.094 8.229-5.535 1.486-3.746-.756-7.879-3.09-10.72a42.599 42.599 0 0 0-5.406-5.296c-.176.286-.333.572-.499.877l.637.581c2.638 2.426 5.323 5.13 6.716 8.497.853 1.767.972 3.8.332 5.655a6.458 6.458 0 0 1-3.533 3.137c-2.768 1.245-5.978 1.845-7.934 4.299-.194.229-.37.473-.526.729a8.306 8.306 0 0 0 .572 9.493l-.009-.019Zm17.584 34.818a9.946 9.946 0 0 0 4.935 6.061c3.746 1.891 7.713.839 11.652.313l2.141-1.789c-.351 0-.692.046-1.034.083-3.192.35-6.458 1.374-9.659.848a8.307 8.307 0 0 1-6.079-4.511 7.862 7.862 0 0 1 .092-7.334 8.344 8.344 0 0 1 5.793-4.281c2.464-.48 5.028-.175 7.464-.802a5.93 5.93 0 0 0 3.077-1.742 5.93 5.93 0 0 0 1.536-3.185c.387-2.768-.923-5.535-2.067-7.943-1.144-2.408-2.703-5.784-1.015-8.432a6.38 6.38 0 0 1 5.656-2.565c2.647.102 4.908 1.716 6.568 3.69.349.406.676.831.978 1.273a467.963 467.963 0 0 0-3.229-4.963 9.144 9.144 0 0 0-3.792-1.236 8.14 8.14 0 0 0-6.457 2.149c-2.076 2.104-2.039 5.13-1.117 7.768.978 2.823 2.768 5.37 3.174 8.386a5.186 5.186 0 0 1-.83 3.81 5.056 5.056 0 0 1-2.934 1.744c-2.445.591-5.01.286-7.473.794a9.837 9.837 0 0 0-6.246 4.4 9.223 9.223 0 0 0-1.134 7.482v-.018Zm30.398-29.817c2.721 4.308 3.69 9.806 7.869 13.045.185.147.379.286.572.415-1.771-2.842-4.751-7.704-8.441-13.46ZM143.5 210.287c.12.461.249.923.378 1.338a12.843 12.843 0 0 1 6.984-.646 8.18 8.18 0 0 1 2.371.922l1.144-.922a9.42 9.42 0 0 0-2.03-.996 13.608 13.608 0 0 0-8.884.304h.037Z" fill="#fff"/><path d="M185.172 172.379c-7.777 5.536-28.415 21.016-40.519 32.852-.074.074.166.379.249.323 11.551-8.303 33.36-26.569 40.593-32.713.166-.12-.185-.563-.323-.462Z" fill="#000"/><path d="M133.767 168.495h.083c.664 2.233 1.375 4.447 2.076 6.661.055.157.092.314.147.48l-.304-3.939c-.148-1.993-.323-3.995-.314-5.997a.13.13 0 0 1 .259 0c.341 1.744.562 3.515.83 5.268.267 1.753.563 3.367.849 5.046.59 3.45 1.208 6.892 1.78 10.342a302.082 302.082 0 0 0 4.115 20.61c.802 3.386 1.734 6.734 2.564 10.148a55.62 55.62 0 0 1 7.464-5.286c.304-.194.673.276.378.516a97.48 97.48 0 0 0-7.749 6.984.926.926 0 0 1-1.211-.049.918.918 0 0 1-.238-.366c-1.07-3.367-1.845-6.845-2.694-10.277-.848-3.432-1.596-6.901-2.306-10.37a294.498 294.498 0 0 1-1.919-10.332 124.883 124.883 0 0 1-1.208-9.051 30.654 30.654 0 0 1-1.2-3.386 48.351 48.351 0 0 1-1.402-7.002ZM175.623 151.474c2.048 2.583 4.023 5.231 5.969 7.897-.664-1.79-1.31-3.589-2.057-5.342a.065.065 0 0 1 .027-.081.063.063 0 0 1 .045-.007.065.065 0 0 1 .039.024 22.237 22.237 0 0 1 2.924 6.744l.627.858c2.473 3.432 4.705 7.066 6.947 10.664 1.264 2.039 2.537 4.078 3.69 6.191a.396.396 0 0 1-.249.572 3.966 3.966 0 0 0-1.467.719c-.064.056-.184 0-.129-.101.284-.39.612-.746.978-1.061-2.426-3.275-4.613-6.707-6.919-10.093-1.172-1.744-2.362-3.478-3.506-5.249-1.144-1.772-2.251-3.635-3.376-5.443a349.769 349.769 0 0 1-3.755-6.126c-.092-.138.111-.295.212-.166Z" fill="#000"/><path opacity=".4" d="M453.254 210.964c15.393-19.423 14.894-23.362 14.678-25.099-.057-.466-8.015-25.281-22.375-25.281H417.29c.091-5.449.261-9.627.398-10.558.567-4.154 2.554-8.059 5.676-8.059 3.121 0 3.178-3.894 0-3.894h-59.031c-3.156 0-3.156 3.894 0 3.894s14.951 4.54 16.722 6.811c1.77 2.27 2.27 15.983 1.827 23.726-.443 7.742-36.111 27.608-41.185 50.959-3.678 17.028 1.873 39.221 24.918 50.063h67.181c23.045-10.842 28.607-33.092 24.975-50.063a38.991 38.991 0 0 0-5.517-12.499Zm-36.123-40.209h27.836c4.54 3.519 9.751 9.797 10.943 17.403-.965 2.497-3.939 7.844-9.014 14.44-12.067-13.884-29.844-22.409-29.765-31.843Z" fill="#FEE3C5"/><path d="M418.426 223.202c5.994-4.132 8.014-11.749 4.54-17.028-3.473-5.279-11.159-6.187-17.141-2.055-5.983 4.132-8.015 11.749-4.541 17.028 3.474 5.279 11.159 6.187 17.142 2.055Z" fill="#FFB445"/><path d="M417.903 222.453c5.506-3.803 7.379-10.819 4.178-15.678-3.201-4.858-10.217-5.676-15.791-1.895-5.574 3.78-7.39 10.818-4.177 15.677 3.212 4.858 10.307 5.699 15.79 1.896Z" fill="#fff"/><path d="M405.518 221.385c.636-.522 6.618-7.719 6.618-7.719s-8.775 2.963-9.49 3.406c-.715.442-.443 1.918.272 2.985.716 1.067 1.964 1.851 2.6 1.328Z" fill="#FFB445"/><path d="M402.408 215.38c.772 0 9.728-1.657 9.728-1.657s-7.537-3.667-8.264-3.826c-.726-.159-1.691 1.238-2.043 2.588-.352 1.351-.193 2.816.579 2.895ZM404.985 208.285c.465.545 7.151 5.381 7.151 5.381s-1.884-8.151-2.202-8.786c-.318-.636-1.941-.159-3.156.681-1.214.84-2.247 2.179-1.793 2.724ZM411.762 204.403c-.125.761.374 9.263.374 9.263s4.87-7.855 5.154-8.593c.284-.738-1.067-1.476-2.429-1.635-1.362-.159-2.974.204-3.099.965Z" fill="#FFB445"/><path d="M418.743 205.947c-.636.522-6.607 7.719-6.607 7.719s8.775-2.963 9.479-3.405c.704-.443.443-1.919-.261-2.986-.704-1.067-1.975-1.85-2.611-1.328Z" fill="#FFB445"/><path d="M421.865 211.975c-.772 0-9.729 1.657-9.729 1.657s7.527 3.667 8.265 3.826c.737.159 1.68-1.238 2.043-2.589.363-1.351.193-2.838-.579-2.894ZM419.277 219.047c-.454-.545-7.141-5.381-7.141-5.381s1.873 8.151 2.202 8.787c.33.635 1.942.17 3.156-.67 1.215-.84 2.237-2.191 1.783-2.736Z" fill="#FFB445"/><path d="M412.511 222.929c.125-.76-.375-9.263-.375-9.263s-4.881 7.867-5.153 8.605c-.273.738 1.067 1.464 2.418 1.635 1.35.17 2.985-.216 3.11-.977ZM428.665 246.678c4.359 4.121 10.364 3.712 13.418-.931 3.054-4.643 1.998-11.749-2.361-15.893-4.359-4.143-10.365-3.723-13.418.92-3.054 4.643-1.998 11.772 2.361 15.904Z" fill="#FFB445"/><path d="M429.096 246.031c4.019 3.814 9.547 3.405 12.363-.84 2.815-4.246 1.839-10.83-2.168-14.633-4.008-3.803-9.548-3.406-12.363.851-2.815 4.257-1.839 10.796 2.168 14.622Z" fill="#fff"/><path d="M427.076 234.679c.522.42 7.118 3.644 7.118 3.644s-4.133-6.948-4.598-7.47c-.466-.522-1.487.17-2.112 1.135-.624.965-.93 2.237-.408 2.691ZM430.799 230.138c.159.692 3.406 8.185 3.406 8.185s.976-7.776.931-8.48c-.046-.704-1.283-1.136-2.35-1.067-1.067.068-2.157.624-1.987 1.362ZM436.498 230.342c-.295.568-2.27 7.947-2.27 7.947s5.517-4.053 5.903-4.541c.386-.488-.318-1.771-1.204-2.611-.885-.84-2.134-1.362-2.429-.795Z" fill="#FFB445"/><path d="M440.857 235.247c-.579.102-6.663 3.031-6.663 3.031s6.811 2.054 7.424 2.088c.613.034.829-1.385.647-2.645-.182-1.26-.829-2.588-1.408-2.474Z" fill="#FFB445"/><path d="M441.311 241.921c-.533-.408-7.117-3.644-7.117-3.644s4.132 6.959 4.54 7.47c.409.511 1.488-.159 2.112-1.135.624-.977.988-2.271.465-2.691ZM437.588 246.474c-.159-.704-3.406-8.197-3.406-8.197s-.976 7.788-.931 8.492c.045.703 1.283 1.135 2.35 1.055 1.067-.079 2.145-.658 1.987-1.35ZM431.878 246.213c.295-.568 2.27-7.947 2.27-7.947s-5.517 4.053-5.903 4.541c-.386.488.318 1.782 1.203 2.622.886.84 2.134 1.363 2.43.784Z" fill="#FFB445"/><path d="M427.53 241.32c.579-.114 6.663-3.043 6.663-3.043s-6.811-2.054-7.424-2.077c-.613-.023-.829 1.374-.647 2.634.182 1.26.863 2.588 1.408 2.486ZM360.791 237.415c-3.814 5.176-1.975 11.023 4.11 13.077a17.02 17.02 0 0 0 17.936-5.676c3.814-5.176 1.964-11.034-4.121-13.077a17.025 17.025 0 0 0-17.925 5.676Z" fill="#FFB445"/><path d="M374.523 249.606c6.45-2.041 10.473-7.504 8.986-12.203-1.487-4.698-7.92-6.852-14.37-4.811-6.45 2.041-10.473 7.504-8.986 12.203 1.487 4.698 7.92 6.852 14.37 4.811Z" fill="#fff"/><path d="M374.425 233.328c-.363.613-2.622 7.799-2.622 7.799s7.152-5.54 7.651-6.108c.5-.567-.534-1.441-1.771-1.861-1.237-.42-2.917-.432-3.258.17Z" fill="#FFB445"/><path d="M380.555 236.052c-.772.307-8.752 5.075-8.752 5.075s9.274-.67 10.08-.863c.806-.193 1.033-1.498.704-2.543-.329-1.044-1.26-1.975-2.032-1.669ZM381.577 241.751c-.727-.17-9.752-.624-9.752-.624s5.96 4.609 6.607 4.893c.647.283 1.998-.693 2.77-1.737.772-1.045 1.079-2.361.375-2.532ZM376.843 247.075c-.261-.544-5.041-5.948-5.041-5.948s-.84 7.174-.737 7.776c.102.602 1.793.534 3.212.091 1.419-.443 2.827-1.362 2.566-1.919Z" fill="#FFB445"/><path d="M369.18 248.926c.363-.613 2.623-7.799 2.623-7.799s-7.152 5.551-7.652 6.107c-.499.557.534 1.442 1.771 1.862 1.238.42 2.895.431 3.258-.17ZM363.05 246.201c.772-.306 8.752-5.074 8.752-5.074s-9.274.67-10.08.863c-.806.193-1.033 1.498-.704 2.543.329 1.044 1.26 1.975 2.032 1.668Z" fill="#FFB445"/><path d="M362.051 240.502c.727.171 9.752.625 9.752.625s-5.96-4.609-6.607-4.893c-.647-.284-1.998.692-2.77 1.737-.772 1.044-1.113 2.384-.375 2.531ZM366.819 235.178c.25.545 5.04 5.949 5.04 5.949s.84-7.175.738-7.776c-.102-.602-1.793-.534-3.212-.091-1.419.443-2.884 1.419-2.566 1.918Z" fill="#FFB445"/><path opacity=".6" d="M370.543 266.646h56.896c19.185-9.15 23.839-27.756 20.729-42.003-2.395-10.988-13.486-22.704-22.931-31.978h-50.335c-10.308 9.286-22.704 20.99-25.088 31.978-3.077 14.247 1.555 32.842 20.729 42.003Z" fill="#FF6868"/><g opacity=".6"><path opacity=".6" d="M394.37 199.93c-.181 0-6.709 1.941-7.163 1.998-.454.057-5.04 1.362-5.131 1.385-.091.023-1.941 3.406-2.111 3.61-.171.204-2.475 4.223-2.532 4.541-.057.318 2.725 5.301 3.122 6.425a48.92 48.92 0 0 0 4.03 7.141c.375.136 5.948-1.669 6.743-1.862.795-.193 6.176-1.135 6.482-1.408.307-.272 1.805-4.438 2.202-5.369.398-.931 2.123-3.826 1.839-4.371-.283-.545-2.383-4.246-3.053-5.12-.67-.874-3.951-6.856-4.428-6.97Z" fill="#fff"/><path opacity=".5" d="M400.012 212.985c-.056-.148-6.039 1.634-6.595 1.714-1.82.222-3.621.571-5.392 1.044a34.69 34.69 0 0 0-1.465 3.474c-.306.59-2.27 4.2-2.111 4.45.159.25 5.971-1.498 6.902-1.578.931-.079 5.188-.817 5.676-1.498.488-.682 1.135-3.406 1.748-4.734.613-1.328 1.237-2.872 1.237-2.872Z" fill="#FFB445"/><path d="M395.415 203.597c.114.113 3.519 6.232 3.519 6.232s-1.998-.908-2.077-1.442l-.205-1.135s-1.805-.113-1.805-.681a27.55 27.55 0 0 1 .568-2.974ZM391.385 202.337c-.125-.318-2.271.67-2.963.692-.693.023-4.961.591-5.381.704-.505.317-.901.78-1.135 1.328a8.525 8.525 0 0 1 2.054-.136c.795.136 1.749 1.578 2.112 1.351.363-.227.965-1.351 1.532-1.442.568-.09 1.136.591 1.522.318.386-.272 1.135-.511 1.373-.828.239-.318.886-1.987.886-1.987ZM394.552 201.258a46.298 46.298 0 0 1-2.826 5.676c-.205-.079-.148-.647 0-.851.147-.205 1.623-4.677 1.85-5.018.488-.556 1.09-.567.976.193ZM388.944 222.282c-.227-.272-2.52.738-3.326.568-.806-.171-2.997-4.961-3.179-5.336-.181-.374-.737-.885-.794-.431a59.031 59.031 0 0 0 2.52 5.96c.327.48.748.889 1.237 1.203a4.904 4.904 0 0 0 1.68-.42c.386-.17 2.214-1.09 1.862-1.544Z" fill="#fff"/><path opacity=".6" d="M396.891 220.296c-.227.091-2.35-3.145-2.804-3.814a19.156 19.156 0 0 1-2.112-3.599 32.281 32.281 0 0 0-1.532-4.37 49.808 49.808 0 0 0-5.756 1.77c-1.43.564-2.908.997-4.416 1.295-.613 0-1.532 0-1.521-.227.011-.227 3.837-1.136 4.779-1.522a58.774 58.774 0 0 1 7.152-2.213 48.983 48.983 0 0 1 2.066 4.881c.148.454 1.658 2.588 1.817 2.929.158.341 2.679 4.734 2.327 4.87Z" fill="#FFB445"/><path opacity=".6" d="M419.618 224.927c.159 0 6.016 1.748 6.425 1.794.409.045 4.541 1.215 4.609 1.249.068.034 1.737 3.031 1.896 3.235.159.204 2.27 3.792 2.27 4.098 0 .307-2.452 4.757-2.804 5.767a43.193 43.193 0 0 1-3.621 6.402c-.329.125-5.336-1.498-6.04-1.668-.703-.171-5.551-1.045-5.823-1.272-.273-.227-1.624-3.973-1.975-4.813-.352-.84-1.908-3.406-1.646-3.928.261-.522 2.122-3.803 2.735-4.541.613-.738 3.542-6.221 3.974-6.323Z" fill="#fff"/><path opacity=".5" d="M414.554 236.643c.057-.125 5.415 1.464 5.926 1.544 1.628.197 3.24.508 4.825.93a29.978 29.978 0 0 1 1.317 3.122 26.739 26.739 0 0 1 1.895 3.996c-.124.227-5.358-1.339-6.198-1.419-.84-.079-4.654-.738-5.131-1.339-.477-.602-1.01-3.122-1.555-4.257-.545-1.136-1.079-2.577-1.079-2.577Z" fill="#FFB445"/><path d="M418.675 228.219c-.102.102-3.155 5.585-3.155 5.585s1.793-.806 1.873-1.282c.079-.477.17-1.067.17-1.067s1.623-.103 1.623-.602a24.058 24.058 0 0 0-.511-2.634ZM422.297 227.084c.113-.283 2.02.602 2.656.625.636.022 4.45.533 4.836.635.457.285.817.7 1.033 1.192a7.552 7.552 0 0 0-1.85-.124c-.704.124-1.567 1.407-1.896 1.214-.329-.193-.852-1.214-1.362-1.294-.511-.079-1.011.534-1.363.273-.352-.262-1.044-.443-1.248-.738-.205-.296-.806-1.783-.806-1.783ZM419.447 226.119a42.35 42.35 0 0 0 2.543 5.154c.182-.068.125-.579 0-.76-.125-.182-1.464-4.201-1.669-4.541-.374-.523-.976-.534-.874.147ZM424.488 244.998c.204-.261 2.27.658 2.985.5.715-.159 2.679-4.45 2.85-4.791.17-.341.658-.795.715-.386a53.218 53.218 0 0 1-2.271 5.347c-.301.433-.687.8-1.135 1.078a4.138 4.138 0 0 1-1.51-.374c-.272-.148-1.952-.977-1.634-1.374Z" fill="#fff"/><path opacity=".6" d="M417.347 243.204a23.569 23.569 0 0 0 2.52-3.406c.751-1 1.387-2.081 1.896-3.223a28.286 28.286 0 0 1 1.385-3.917c1.748.42 3.47.947 5.154 1.578 1.286.49 2.611.87 3.962 1.135.556 0 1.385 0 1.373-.204-.011-.204-3.405-.999-4.291-1.374a55.49 55.49 0 0 0-6.414-1.986 44.781 44.781 0 0 0-1.862 4.382c-.124.42-1.487 2.327-1.634 2.633-.148.307-2.407 4.257-2.089 4.382Z" fill="#FFB445"/><path opacity=".6" d="M397.47 238.777c.124-.136 6.743-1.794 7.163-1.975.42-.182 5.154-1.135 5.233-1.135.08 0 3.281 1.555 3.542 1.657.261.102 4.314 2.35 4.541 2.6.227.249.386 5.959.635 7.129a48.85 48.85 0 0 1 .216 8.184c-.238.307-5.948 1.646-6.732 1.885-.783.238-5.891 2.191-6.277 2.123-.386-.068-3.826-3.111-4.643-3.701-.818-.59-3.644-1.794-3.678-2.418-.034-.624-.318-5.006-.182-6.096.136-1.09-.182-7.912.182-8.253Z" fill="#fff"/><path opacity=".5" d="M398.457 252.842c0-.159 6.914-1.714 7.436-1.93a37.598 37.598 0 0 1 5.154-1.884 34.706 34.706 0 0 1 3.042 2.213c1.439.8 2.813 1.71 4.11 2.725 0 .295-5.892 1.805-6.732 2.27-.84.466-4.87 1.976-5.676 1.669-.806-.306-2.736-2.372-3.939-3.156a36.213 36.213 0 0 0-3.395-1.907Z" fill="#FFB445"/><path d="M398.457 242.455c0 .159.193 7.152.193 7.152s1.249-1.805 1.045-2.271c-.205-.465-.443-1.135-.443-1.135s1.487-1.033 1.203-1.51a27.302 27.302 0 0 0-1.998-2.236ZM400.467 238.97c0-.341 2.429-.386 3.121-.67.693-.284 4.984-1.657 5.438-1.737.454-.079 5.971 2.373 5.585 2.487-.438.102-.89.136-1.339.102-.636-.08-2.271-.375-2.85-.488a8.124 8.124 0 0 0-1.793-.284c-.693.477-.977 1.861-1.419 1.816-.443-.045-1.487-.806-2.055-.636-.568.171-.829 1.033-1.328.954-.5-.08-1.317.057-1.669-.136-.352-.193-1.691-1.408-1.691-1.408ZM413.635 255.113c0-.352 2.532-.659 3.145-1.226.613-.568 0-5.801 0-6.21 0-.409.181-1.135.454-.783.421 2.116.728 4.253.919 6.402a4.222 4.222 0 0 1-.443 1.669 4.604 4.604 0 0 1-1.646.511c-.431.079-2.508.238-2.429-.363ZM405.632 244.896c.261.147.715 12.964.159 12.941-.556-.023-.693-7.084-.693-7.742 0-.659 0-5.426.534-5.199Z" fill="#fff"/><path opacity=".6" d="M417.177 241.251c-.522.171-10.682 3.474-10.944 3.406-.261-.068-8.048-4.813-8.15-5.074-.102-.261.42-.341.647-.182.227.159 7.129 4.019 7.503 4.053.375.034 10.047-2.418 10.285-2.532.239-.113.977.227.659.329Z" fill="#FFB445"/><path opacity=".6" d="M359.406 224.769c.148 0 5.676 1.135 6.062 1.135.386 0 4.234 1.067 4.314 1.135.079.068 1.873 2.361 2.021 2.531.147.171 2.349 3.327 2.418 3.61.068.284-1.896 4.541-2.146 5.529a39.575 39.575 0 0 1-2.838 6.175c-.295.148-5.04-.965-5.676-1.067-.636-.102-5.188-.533-5.46-.715-.273-.181-1.692-3.723-2.089-4.473-.397-.749-2.055-2.667-1.862-3.144.193-.477 1.612-3.837 2.112-4.609.499-.772 2.758-5.971 3.144-6.107Z" fill="#fff"/><path opacity=".5" d="M354.968 235.632c0-.124 5.778 1.261 6.255 1.295 1.523.057 3.04.22 4.54.488.536.895 1.021 1.82 1.453 2.77a25.66 25.66 0 0 1 2.066 3.541c-.102.216-5.051-.828-5.823-.828-.772 0-4.348-.318-4.847-.84-.5-.522-1.136-2.77-1.771-3.803-.636-1.033-1.873-2.623-1.873-2.623Z" fill="#FFB445"/><path d="M358.793 227.868c-.079.102-2.486 5.392-2.486 5.392s1.601-.886 1.635-1.328c.034-.443.079-.999.079-.999s1.487-.216 1.442-.681a21.4 21.4 0 0 0-.67-2.384ZM361.574 226.029c.114-.261 1.953.601 2.566.635.613.034 4.314.602 4.688.704a20.287 20.287 0 0 1 3.247 3.905 3.76 3.76 0 0 1-1.033-.42c-.454-.284-1.532-1.135-1.941-1.407a7.474 7.474 0 0 0-1.237-.875c-.693.103-1.408 1.034-1.726.841-.318-.193-.806-1.136-1.294-1.226-.488-.091-.999.465-1.34.215-.34-.25-.999-.443-1.192-.715-.193-.272-.738-1.657-.738-1.657ZM365.446 242.898c.17-.25 2.122.431 2.792.227.67-.205 2.123-4.303 2.271-4.632.147-.329.544-.783.624-.409a50.635 50.635 0 0 1-1.68 5.097 3.47 3.47 0 0 1-.942 1.136c-.48.01-.957-.067-1.408-.227-.352-.159-1.93-.795-1.657-1.192ZM363.22 232.408c.148.205-4.223 9.911-4.631 9.695-.409-.216 2.089-5.528 2.338-6.017.25-.488 2.01-4.12 2.293-3.678Z" fill="#fff"/><path opacity=".6" d="M373.176 233.85c-.454-.068-9.229-1.328-9.41-1.464-.182-.137-4.223-6.539-4.201-6.812.023-.272.432-.102.557.103.124.204 3.825 5.619 4.098 5.766.272.148 8.366 1.896 8.582 1.896.215 0 .647.556.374.511Z" fill="#FFB445"/></g></svg>