<svg width="210" height="200" fill="none" xmlns="http://www.w3.org/2000/svg"><path d="M49.996 36.935c3.327 12.548 8.958 24.702 12.97 25.66 4.86 1.154 6.861-12.099 6.186-12.457-.504-.257-7.995-8.605-14.917-15.809-6.392-6.649-5.066-.499-4.24 2.606Z" fill="#FFD3C9"/><path d="M61.47 61.566c1.42 1.976 5.141 2.496 19.342 2.269 1.966-.03 4.461-14.393 2.36-14.463-2.647-.096-13.28.615-14.02.766-5.535 1.114-9.1 9.457-7.683 11.428Z" fill="#FFD3C9"/><path d="M77.923 63.784c1.98.632 4.001 1.122 6.05 1.467 1.618.192 6.29.62 6.68-1.139.266-1.205-2.45-1.78-4.367-2.228-1.008-.237-2.334-1.008-2.157-1.684.312-1.14 2.914-.474 4.663.187 3.388 1.285 8.03 3.83 9.659 1.95.615-.705-.394-1.648-1.78-2.52 2.168.907 4.431 1.573 5.147.807a1.055 1.055 0 0 0 0-1.442 1.4 1.4 0 0 0 1.477-.504c.529-.777.056-1.71-.811-2.606a.759.759 0 0 0 .504-.48c1.008-2.283-6.735-7.082-9.165-7.248a59.93 59.93 0 0 0-14.362 1.008c-2.344 2.641-1.543 14.427-1.538 14.432Z" fill="#FFD3C9"/><path d="M86.997 55.769c1.683-.015 3.35.329 4.89 1.008 1.936.862 3.317 2.017 5.006 3.136.01.006.016.015.018.026a.042.042 0 0 1-.032.05.041.041 0 0 1-.031-.006c-.807-.529-4.099-2.48-4.936-2.908a11.304 11.304 0 0 0-4.915-1.276v-.03ZM87.799 52.633c1.911.13 3.805.454 5.65.968 1.992.63 3.686 1.921 5.344 3.156a73.072 73.072 0 0 1 2.934 2.294c.041.03 0 .1-.045.07a98.198 98.198 0 0 0-5.172-3.69 14.917 14.917 0 0 0-5.39-2.263c-1.103-.227-2.217-.363-3.331-.504-.01 0-.01-.03.01-.03ZM89.311 49.76c1.815.07 3.403.126 5.117.807a25.574 25.574 0 0 1 5.424 3.327 68.47 68.47 0 0 1 2.662 2.157c.04.03 0 .091-.051.06a59.072 59.072 0 0 0-6.24-4.42 11.84 11.84 0 0 0-3.323-1.457c-1.181-.25-2.382-.4-3.589-.449 0 0-.01-.025 0-.025ZM69.152 50.138c-2.32.751-3.968 2.395-5.636 4.119 1.059-2.128 3.135-4.079 5.636-4.119Z" fill="#000"/><path d="m53.025 47.562 12.633-3.18S56.11 33.698 52.415 31.35c-4.154-2.647-4.597.06-3.62 4.638.979 4.577 4.23 11.574 4.23 11.574Z" fill="#FFB445"/><path d="M52.809 45.324c.423-.172 4.35-1.2 5.207-1.402.857-.201 4.366-1.073 5.268-1.21a.036.036 0 0 1 .022.033.036.036 0 0 1-.022.033c-.862.303-4.39 1.185-5.263 1.412-.872.226-4.779 1.154-5.223 1.194-.025.02-.03-.03.01-.06Z" fill="#000"/><path opacity=".1" d="M63.284 44.976 53.02 47.562s-3.246-6.997-4.23-11.594c-.634-2.985-.665-5.178.54-5.606l13.954 14.614Z" fill="#000"/><path d="M29.519 194.465c-1.205-.439-28.367-22.05-28.876-23.532-.206-.56 20.72-27.091 20.72-27.091l16.675 13.611-13.46 17.765s6.695 12.925 7.088 14.619c.393 1.694-.948 5.066-2.147 4.628Z" fill="#FFD3C9"/><path d="M27.28 180.314c-.05-.075-.075-.126-.06-.146.015-.02.025.051.06.146Z" fill="#FFB445"/><path d="M29.574 194.994C28.354 194.54.885 172.465.381 170.963c-.196-.57 2.793-5.137 6.932-9.517l17.699 14.251s6.397 12.885 6.785 14.594c.388 1.709-1.008 5.152-2.223 4.703Z" fill="#FFB445"/><path d="M30.063 193.577c-4.537-3.816-23.088-18.768-27.842-22.18-.035-.031-.055 0 0 .03 4.39 3.876 23.083 18.682 27.802 22.241.1.061.13-.01.04-.091ZM30.804 187.886a4.75 4.75 0 0 0-3.66-1.089 4.605 4.605 0 0 0-3.024 1.628c0 .031.025.071.055.046a5.484 5.484 0 0 1 6.553-.504c.066.02.111-.051.076-.081ZM26.09 177.32c-1.824-1.512-4.48-2.576-6.84-1.986-.09 0-.055.151 0 .166a32.573 32.573 0 0 1 6.67 2.072.156.156 0 0 0 .113.024.157.157 0 0 0 .121-.119.153.153 0 0 0-.063-.157ZM27.044 179.019c-1.825-1.513-4.482-2.576-6.841-1.986-.091 0-.056.151 0 .166 2.29.45 4.526 1.145 6.67 2.072a.154.154 0 0 0 .113.024.156.156 0 0 0 .098-.064.155.155 0 0 0 .024-.115.154.154 0 0 0-.064-.097ZM28.021 180.718c-1.824-1.513-4.486-2.576-6.84-1.987-.091 0-.06.152 0 .167 2.29.45 4.526 1.145 6.67 2.072a.153.153 0 0 0 .235-.155.149.149 0 0 0-.064-.097ZM29 182.411c-1.826-1.512-4.487-2.571-6.841-1.981-.091 0-.06.152 0 .167a32.77 32.77 0 0 1 6.669 2.066.149.149 0 0 0 .114.024.149.149 0 0 0 .098-.064.148.148 0 0 0 .023-.114.154.154 0 0 0-.064-.098Z" fill="#000"/><path d="M6.935 167.949c-2.072-1.654-4.648 1.562-2.571 3.221 2.077 1.658 4.622-1.563 2.57-3.221Z" fill="#fff"/><path d="M32.009 173.998c-.313-1.512-2.092-1.709-3.317-1.366a12.346 12.346 0 0 0-5.477 3.388.065.065 0 0 0-.006.027c0 .009.002.018.006.027.004.008.01.015.017.021a.293.293 0 0 0 .212.418c2.017.147 4.204.555 6.231.071 1.2-.282 2.631-1.144 2.334-2.586Zm-5.414 2.102c-1.008-.045-2.017-.141-3.025-.151a37.03 37.03 0 0 1 3.232-1.901 13.222 13.222 0 0 1 1.693-.68c.888-.288 3.937-.373 2.52 1.779-.8 1.165-3.215 1.014-4.42.953Z" fill="#000"/><path d="M18.1 173c1.407 1.537 3.434 2.409 5.208 3.433a.292.292 0 0 0 .26-.007.296.296 0 0 0 .148-.215.066.066 0 0 0 .066-.076 12.427 12.427 0 0 0-2.637-5.852c-.821-.963-2.404-1.805-3.528-.721-1.125 1.084-.338 2.545.484 3.438Zm-.267-1.941c0-2.586 2.496-.807 3.076-.071.368.482.705.987 1.008 1.513.63 1.084 1.094 2.243 1.613 3.382-.842-.554-1.72-1.033-2.581-1.557-1.039-.615-3.13-1.845-3.116-3.267Z" fill="#000"/><path d="m12.727 154.862 17.225 13.787s28.508-33.639 29.551-38.69c1.19-5.742 4.492-50.724 4.416-52.967-.096-2.717-3.09-14.665-3.09-14.665H39.475s-2.985 58.825-3.605 60.63c-.67 1.976-23.143 31.905-23.143 31.905Z" fill="#FFB445"/><path d="M31.636 164.188c-2.753-2.657-13.49-11.186-14.826-11.882-.03 0-.07.035-.05.061.973 1.149 10.107 8.655 14.805 11.907.07.02.116-.046.07-.086ZM61.883 71.17a6.726 6.726 0 0 0-.868-.202 5.802 5.802 0 0 1-.902-.343 6.717 6.717 0 0 1-1.643-1.17 6.152 6.152 0 0 1-1.266-2.016c-.186-.428-1.058-2.722-1.068-2.737-.01-.015-.086 0-.076.035.06.318.655 2.294.832 2.788a6.483 6.483 0 0 0 1.32 2.364 5.281 5.281 0 0 0 1.825 1.23c.314.128.643.216.978.262.297.068.607.049.893-.055.05-.035.02-.136-.026-.156ZM42.998 63.371l-.448 11.811-.504 11.812-1.14 23.617a1322.54 1322.54 0 0 1-.67 11.806c0 .504-.066 1.009-.116 1.513a.687.687 0 0 1-.045.227 1.297 1.297 0 0 1-.096.186l-.197.333a36.41 36.41 0 0 1-.423.615 83.324 83.324 0 0 1-1.76 2.384 271.389 271.389 0 0 1-3.644 4.658c-2.46 3.085-4.935 6.154-7.426 9.205l-7.536 9.099 7.345-9.265c2.445-3.09 4.895-6.175 7.31-9.286 1.21-1.559 2.409-3.122 3.599-4.688a86.876 86.876 0 0 0 1.744-2.374c.141-.202.277-.404.408-.605.116-.207.282-.409.272-.58.04-.474.081-.953.106-1.452.232-3.927.424-7.864.625-11.801l1.245-23.613.65-11.8L43 63.37Z" fill="#000"/><path d="M59.931 126.823c-.156 1.452-.297 2.521-.428 3.136-.585 2.838-9.835 14.69-17.83 24.54l-5.5-34.486c.978-12.24 3.287-57.69 3.287-57.69H50.1l9.83 64.5Z" fill="#000"/><path d="M89.886 193.794c-1.12.615-35.288 6.76-36.735 6.165-.554-.216-6.674-33.447-6.674-33.447l21.218-3.529 4.476 21.848s14.115 3.499 15.653 4.315c1.537.817 3.186 4.038 2.062 4.648Z" fill="#FFD3C9"/><path d="M77.787 186.137c-.096 0-.146-.025-.156-.051l.156.051Z" fill="#FFB445"/><path d="M90.48 193.905c-1.144.615-35.867 6.659-37.334 6.049-.56-.226-2.016-5.489-2.566-11.493l22.393-3.867s13.898 3.716 15.44 4.537c1.543.822 3.212 4.154 2.068 4.774Z" fill="#FFB445"/><path d="M89.74 192.605c-5.843.867-29.34 4.93-35.051 6.23-.046 0-.04.046 0 .041 5.812-.736 29.273-4.991 35.066-6.181.126-.025.11-.111-.015-.09ZM85.959 188.284a4.762 4.762 0 0 0-3.237 2.017 4.631 4.631 0 0 0-.76 3.337c0 .035.075 0 .07 0a5.492 5.492 0 0 1 3.937-5.273.04.04 0 0 0 .027-.015.042.042 0 0 0 .008-.03.038.038 0 0 0-.015-.027.041.041 0 0 0-.03-.009ZM74.899 184.861c-2.34.373-4.895 1.664-6.01 3.822-.045.085.076.146.137.095a33.07 33.07 0 0 1 5.963-3.639.146.146 0 0 0 .016-.264.146.146 0 0 0-.106-.014ZM76.82 185.25c-2.34.373-4.896 1.663-6.01 3.821-.045.085.076.146.136.096a33.014 33.014 0 0 1 5.964-3.64.146.146 0 0 0 .084-.181.149.149 0 0 0-.068-.083.141.141 0 0 0-.107-.013ZM78.74 185.638c-2.34.373-4.895 1.663-6.01 3.821-.044.086.076.146.137.096a33.017 33.017 0 0 1 5.964-3.64.145.145 0 0 0 .084-.181.146.146 0 0 0-.175-.096ZM80.66 186.026c-2.338.373-4.894 1.663-6.008 3.821-.046.086.075.146.136.096a32.856 32.856 0 0 1 5.963-3.64.146.146 0 0 0 .085-.181.149.149 0 0 0-.069-.083.151.151 0 0 0-.106-.013Z" fill="#000"/><path d="M55.208 193.028c-2.611.464-1.895 4.537.72 4.063 2.617-.474 1.922-4.502-.72-4.063Z" fill="#fff"/><path d="M76.335 178.207c-1.35-.771-2.671.439-3.22 1.583a12.376 12.376 0 0 0-1.08 6.327c0 .05.046.06.08.055a.292.292 0 0 0 .2.172.28.28 0 0 0 .134 0 .276.276 0 0 0 .12-.061c1.457-1.437 3.197-2.788 4.175-4.628.57-1.078.867-2.717-.409-3.448Zm-2.016 5.45c-.7.72-1.437 1.406-2.107 2.157.173-1.238.41-2.466.71-3.68.153-.586.346-1.16.58-1.719.368-.862 2.32-3.206 2.99-.711.393 1.377-1.321 3.091-2.153 3.953h-.02Z" fill="#000"/><path d="M66.42 187.987c2.081-.04 4.078-.983 6.013-1.638a.285.285 0 0 0 .1-.454c.001-.03.037-.076.001-.101a12.354 12.354 0 0 0-6.135-1.885c-1.265-.026-2.944.61-2.863 2.162.045 1.467 1.643 1.941 2.883 1.916Zm-1.634-1.084c-1.925-1.724 1.044-2.405 1.976-2.349.605.045 1.207.131 1.8.257 1.218.274 2.421.61 3.604 1.008-.973.262-1.915.605-2.873.908-1.175.373-3.473 1.129-4.532.176h.025Z" fill="#000"/><path d="M56.58 62.328s-.56 9.129-3.08 15.627c0 0-3.636 2.263-4.034 2.621l21.632 97.465-22.181 4.315s-8.711-47.215-9.442-50.451c-1.19-5.198-10.587-49.403-11.025-51.893-.872-5.253 3.977-17.684 3.977-17.684H56.58Z" fill="#FFB445"/><path d="M68.854 173.176c-6.1.913-17.765 3.388-19.201 3.983-.03 0 0 .075 0 .075 1.557-.025 15.768-2.843 19.211-3.947a.074.074 0 0 0 .021-.006.047.047 0 0 0 .017-.014.056.056 0 0 0 .007-.061.053.053 0 0 0-.014-.017.067.067 0 0 0-.02-.011c-.006-.002-.013-.002-.02-.002ZM35.165 71.175c.454-.065.912-.107 1.37-.126a10.34 10.34 0 0 0 1.407-.268c.882-.22 1.73-.56 2.52-1.008a5.394 5.394 0 0 0 1.836-1.946c.257-.418 1.437-2.661 1.452-2.677.015-.015.14 0 .126.04-.312.936-.67 1.854-1.074 2.753a5.278 5.278 0 0 1-1.89 2.279 8.333 8.333 0 0 1-2.798 1.074 8.868 8.868 0 0 1-1.543.176 4.032 4.032 0 0 1-1.431-.136c-.091-.05-.046-.146.025-.161ZM54.029 77.713a36.797 36.797 0 0 0-5.87 2.676.066.066 0 0 0-.014.071.068.068 0 0 0 .036.036.067.067 0 0 0 .05 0c1.971-.827 3.978-1.614 5.898-2.546a.132.132 0 0 0 .048-.16.13.13 0 0 0-.148-.077ZM54.775 64.258c0-.065-.127-.085-.127 0a65.225 65.225 0 0 1-.388 6.554c-.1 1.008-.962 6.583-2.712 6.16-.292-.07-.438-.358-.504-.802a6.837 6.837 0 0 1 .252-1.709c.202-1.17.368-2.339.504-3.528a31.82 31.82 0 0 0 0-6.61.055.055 0 1 0-.11 0c.024 3.05-.181 6.097-.616 9.115-.236 1.452-1.008 3.63.53 3.867 1.537.236 2.58-3.408 2.777-4.411.504-2.85.636-5.752.394-8.636Z" fill="#000"/><path d="M51.594 77.113c-.16.376-.294.761-.404 1.154a2.587 2.587 0 0 0-.171.953c0 .06.086.066.12 0 .185-.284.325-.596.414-.922.136-.358.283-.711.409-1.07a.196.196 0 0 0-.368-.115ZM34.242 62.328a216.996 216.996 0 0 0-1.699 6.971c-.504 2.334-1.008 4.678-1.305 7.058l-.081.887v.882l.262 1.76.665 3.528 1.432 7.058 5.863 28.104 5.868 28.074 2.914 14.054 2.878 14.065-3.12-14.014-3.055-14.024-5.984-28.079c-1.936-9.372-3.892-18.743-5.747-28.13l-1.361-7.057-.635-3.529-.247-1.795c.008-.605.052-1.21.13-1.81.339-2.379.873-4.713 1.427-7.057.555-2.344 1.15-4.643 1.795-6.947ZM50.863 12.083c1.3-.953 4.29-7.91-1.679-11.277-5.878-3.312-13.056 4.295-8.741 9.916 2.903 3.776 7.652 3.382 10.42 1.36Z" fill="#000"/><path d="m61.973 64.687-.953-8.948s3.554-5.545 1.856-9.745c-.852-2.122-6.927-12.602-10.34-15.34-3.2-2.576-8.388-.453-10.037 1.568-4.743 5.807-7.33 11.418-10.782 30.972l30.256 1.493Z" fill="#FFB445"/><path d="M55.329 53.894c-1.524.076-3.04.263-4.537.56-.741.16-1.472.352-2.203.559-.363.106-.73.196-1.099.287a4.864 4.864 0 0 1-1.175.172c-.035 0-.035.05 0 .055.374.034.75.042 1.125.025.36-.029.72-.082 1.073-.161.757-.151 1.513-.343 2.259-.504 1.512-.323 3.025-.65 4.582-.867a.066.066 0 0 0 .017-.111.065.065 0 0 0-.042-.015ZM59.02 55.406a33.77 33.77 0 0 0-3.772-.333c-.63 0-1.255 0-1.885.036-.302 0-.605.04-.902.065-.298.025-.66.101-1.008.126-.036 0-.036.056 0 .05.312 0 .625.026.937.03h.943c.63 0 1.26.026 1.89.031 1.26 0 2.52.03 3.771.08.09.031.086-.085.025-.085Z" fill="#000"/><path d="M42.066 33.225c-10.264 7.95-20.477 22.756-18.879 26.95 1.78 4.668 13.4-3.725 13.45-4.487.04-.57 5.545-10.39 9.482-19.57 3.635-8.488-1.512-4.869-4.053-2.893Z" fill="#FFD3C9"/><path d="m42.5 47.476-12.523-3.599s9.901-10.36 13.672-12.603c4.24-2.52 4.592.212 3.463 4.76-1.13 4.546-4.613 11.442-4.613 11.442Z" fill="#FFB445"/><path d="M42.797 45.263c-.413-.186-4.31-1.346-5.162-1.578-.852-.231-4.32-1.214-5.218-1.38a.03.03 0 0 0 0 .06c.847.332 4.346 1.336 5.208 1.588.862.252 4.738 1.31 5.182 1.37.015 0 .015-.05-.01-.06Z" fill="#000"/><path d="M40.972 47.038c.504.1 1.038.222 1.553.343l-.116.05 1.91-4.159c.57-1.22 1.361-2.954 1.946-4.149a42.073 42.073 0 0 1-3.675 8.404l-.045.075c-.504-.181-1.054-.362-1.573-.564Z" fill="#000"/><path d="M44.934 42.345c.434-.565.904-1.1 1.407-1.603a2.681 2.681 0 0 1-1.407 1.603Z" fill="#000"/><path d="M23.706 60.91c1.24 2.093 5.41 4.578 19.524 5.622 1.962.146 5.722-13.939 3.635-14.196-2.626-.328-11.458-.57-12.21-.504-5.595.64-12.184 6.987-10.949 9.079Z" fill="#FFD3C9"/><path d="M42.071 52.73s5.349-.44 8.933-.43c2.016 0 5.424.313 6.891 1.009 2.198 1.008 10.732 6.629 9.417 8.731-1.195 1.9-7.915-3.861-7.915-3.861s7.295 5.212 5.435 7.239c-1.86 2.026-8.57-5.495-8.57-5.495s7.375 5.545 5.132 7.304c-1.7 1.351-8.177-5.116-8.177-5.116s6.306 4.794 4.623 6.256c-1.86 1.613-8.218-3.983-8.218-3.983-4.91 2.995-8.468 2.41-10.954 1.694-.62-.192 3.403-13.349 3.403-13.349Z" fill="#FFD3C9"/><path d="M56.988 56.193c.882.584 1.774 1.164 2.596 1.824.821.66 1.628 1.341 2.39 2.072a17.895 17.895 0 0 1 2.681 3.13c-1.512-1.925-4.431-4.325-5.258-4.985-.826-.66-1.613-1.35-2.435-2.016-.02-.01.005-.04.026-.026ZM54.558 59.126c1.094.792 2.203 1.538 3.261 2.375 1.059.837 1.971 1.724 2.964 2.626.076.07 0 .09-.065 0-1.008-.862-2.042-1.583-3.08-2.44-1.039-.857-2.017-1.744-3.1-2.556l.02-.005ZM52.022 61.269a30.251 30.251 0 0 1 4.703 4.033c.076.075 0 .09-.09 0-1.538-1.366-2.732-2.445-4.653-3.973-.03-.025.005-.08.04-.06Z" fill="#000"/><path d="M49.28 52.326c2.358-.06 4.718.06 7.057.363a5.72 5.72 0 0 1 1.71.54c1.58.81 3.097 1.74 4.536 2.782 1.31 1.008 6.554 4.587 4.598 6.397-1.371.907-4.184-1.174-5.268-2.047l.136-.156c1.134 1.18 2.56 2.36 3.06 3.957-.565-1.577-2.042-2.656-3.196-3.8l.136-.157c1.008.787 3.685 2.637 4.92 1.951 1.563-1.512-3.488-4.98-4.597-5.858-1.89-1.25-3.832-2.853-6.05-3.352a55.859 55.859 0 0 0-7.042-.62ZM45.176 52.16c-1.295 0-2.586-.066-3.881-.101-1.296-.035-2.581-.096-3.872-.096-1.28-.072-2.565.01-3.826.247a33.698 33.698 0 0 0-3.746.953 20.104 20.104 0 0 1 3.68-1.27c1.279-.285 2.589-.401 3.897-.348 1.3.035 2.596.09 3.887.196 1.29.106 2.58.232 3.861.419Z" fill="#000"/><path d="M46.84 30.931c.075.575 7.561 10.138 9.316 10.244.978.06-3.105-9.578-3.105-9.578l1.648-4.996-6.01-4.703s-1.88 8.807-1.85 9.034Z" fill="#FFD3C9"/><path d="M48 25.16a10.042 10.042 0 0 0 5.141 6.13L54.7 26.57l-6.01-4.703L48 25.16Z" fill="#000"/><path d="M61.948 19.18c.504 8.6-4.572 9.886-6.427 9.997-1.684.101-7.431.227-8.843-8.272-1.411-8.5 2.425-11.469 6.267-11.877 3.84-.408 8.479 1.548 9.003 10.153Z" fill="#FFD3C9"/><path d="M60.128 17.598a5.695 5.695 0 0 1-.585-.111.938.938 0 0 1-.574-.227.303.303 0 0 1 0-.373.77.77 0 0 1 .746-.197c.275.034.528.169.71.378a.333.333 0 0 1-.297.53ZM54.401 17.784c.202-.03.384-.09.58-.136a.968.968 0 0 0 .565-.252.313.313 0 0 0 0-.378.761.761 0 0 0-.751-.156c-.274.046-.52.194-.69.413a.323.323 0 0 0 .297.51ZM55.687 19.932s-.045.03-.04.055c.045.585 0 1.26-.504 1.482v.03c.63-.12.69-1.018.544-1.567Z" fill="#000"/><path d="M55.138 19.342c-.948 0-.933 1.87-.056 1.896.877.025.847-1.87.056-1.896Z" fill="#000"/><path d="M54.764 19.448c-.166.106-.327.297-.504.322-.176.026-.408-.176-.56-.363h-.03c0 .363.137.736.53.787.393.05.605-.277.695-.645-.005-.046-.07-.146-.13-.101ZM59.044 19.78s.046.03.046.051c0 .59.06 1.265.59 1.457v.035c-.656-.09-.746-.988-.636-1.542Z" fill="#000"/><path d="M59.569 19.166c.942-.071 1.008 1.825.14 1.89-.866.066-.932-1.825-.14-1.89Z" fill="#000"/><path d="M59.967 19.276c.151.096.307.273.504.278.197.005.353-.207.474-.409h.03c.025.363-.075.742-.423.827-.348.086-.56-.227-.66-.585-.026-.045.014-.146.075-.11ZM58.268 22.7s.096.877.086 1.29c0 .04-.101.055-.242.06a1.966 1.966 0 0 1-1.89-.786c-.026-.04 0-.08.065-.055.517.375 1.14.573 1.78.564.03-.116-.217-1.512-.152-1.512.32.04.633.12.933.237-.151-1.835-.595-3.635-.721-5.465a.055.055 0 0 1 .11 0c.53 1.915.868 3.877 1.01 5.858.03.217-.818-.116-.979-.192Z" fill="#000"/><path d="M57.85 23.965a2.164 2.164 0 0 1-.847.67c-.187.071-.39.085-.585.04-.423-.105-.434-.504-.358-.826.04-.175.102-.344.181-.504.456.373 1.02.59 1.609.62Z" fill="#000"/><path d="M57.023 24.655c-.187.071-.39.085-.585.04-.423-.105-.434-.503-.358-.826a1.009 1.009 0 0 1 .943.786Z" fill="#FF6868"/><path d="M56.438 10.691c.19.744.153 1.527-.106 2.249-.927 1.94-3.256 1.427-4.033 2.193-.776.766-.504 2.208-1.159 2.929-.938 1.008-2.208.604-2.364 1.28-.157.675-.6 2.803-1.452 3.075-.852.272-4.749-13.944 6.377-13.48 0 0 1.512-.625 3.897.575 2.616 1.33 3.75 5.651 3.75 5.651s-.06-.06-.438-.398c-.535-.474-.746-.918-1.14-1.225-.615-.504-.952-.303-1.598-.777a7.379 7.379 0 0 1-1.734-2.072Z" fill="#000"/><path d="M56.267 10.071c.176.555.286 1.129.327 1.71a3.19 3.19 0 0 1-.242 1.663c-.286.481-.74.84-1.275 1.008-.53.197-1.114.252-1.684.504a1.765 1.765 0 0 0-.746.565 2.354 2.354 0 0 0-.327.857 3.025 3.025 0 0 1-.62 1.547 1.915 1.915 0 0 1-1.513.626c-.56 0-1.18-.157-1.724.09.565-.201 1.134 0 1.724.046a2.102 2.102 0 0 0 1.649-.615c.389-.466.634-1.036.705-1.639.05-.27.151-.528.298-.76.169-.208.39-.366.64-.46.504-.216 1.104-.287 1.664-.504.284-.103.551-.249.791-.433a1.81 1.81 0 0 0 .61-.711 3.302 3.302 0 0 0 .181-1.774 7.518 7.518 0 0 0-.458-1.72Z" fill="#000"/><path d="M56.483 10.58a6.09 6.09 0 0 0 .535 1.543c.244.512.633.942 1.119 1.235.245.124.502.223.766.298.234.078.441.22.6.408.146.236.315.458.504.66.202.189.443.33.706.414a2.014 2.014 0 0 1-.605-.504 4.32 4.32 0 0 1-.408-.686 1.396 1.396 0 0 0-.686-.534 4.12 4.12 0 0 1-.726-.298 3.025 3.025 0 0 1-1.053-1.104c-.284-.459-.535-.937-.752-1.431Z" fill="#000"/><path d="M48.372 21.384s-1.95-2.642-3.155-1.936c-1.205.706.312 4.537 1.759 5.041a1.456 1.456 0 0 0 1.93-.832l-.534-2.273Z" fill="#FFD3C9"/><path d="M45.68 20.542v.04c1.009.378 1.573 1.296 1.966 2.253a.805.805 0 0 0-1.21-.191c-.025 0 0 .06.03.055a.893.893 0 0 1 1.009.288c.197.242.366.506.504.786.05.086.212.035.172-.07-.05-1.301-1.094-3.08-2.47-3.161Z" fill="#000"/><path d="m46.84 30.927 9.31 10.248-3.1-9.598 3.73 3.544-1.22.75 1.634 1.513-.317 5.283-6.796-4.093.756-1.981-2.702-.136-1.295-5.53Z" fill="#FFB445"/><path opacity=".5" d="m46.84 30.927 9.31 10.248-3.1-9.598 3.73 3.544-1.22.75 1.634 1.513-.317 5.283-6.796-4.093.756-1.981-2.702-.136-1.295-5.53Z" fill="#fff"/><path d="M84.063 160.548c0-21.172 13.803-38.398 30.751-38.398s30.751 17.226 30.751 38.398c0 21.173-13.803 38.398-30.751 38.398s-30.75-17.225-30.75-38.398Zm3.08 0c0 19.474 12.422 35.318 27.686 35.318 15.265 0 27.686-15.844 27.686-35.318 0-19.474-12.447-35.318-27.701-35.318-15.254 0-27.696 15.844-27.696 35.318h.026Z" fill="#666"/><path d="M85.157 160.548c0-18.768 12.21-34.037 27.222-34.037 15.013 0 27.222 15.269 27.222 34.037s-12.204 34.038-27.222 34.038c-15.017 0-27.222-15.27-27.222-34.038Zm2.203 0c0 17.558 11.222 31.84 25.014 31.84 13.793 0 25.019-14.282 25.019-31.84s-11.221-31.839-25.019-31.839c-13.797 0-25.014 14.281-25.014 31.839Z" fill="#999"/><path d="M109.012 160.548c0 3.075 1.976 5.545 4.411 5.545 2.435 0 4.416-2.49 4.416-5.545 0-3.055-1.976-5.545-4.416-5.545-2.44 0-4.411 2.47-4.411 5.545Z" fill="#999"/><path d="M112.011 166.114c2.436 0 4.411-2.492 4.411-5.566 0-3.073-1.975-5.565-4.411-5.565-2.436 0-4.411 2.492-4.411 5.565 0 3.074 1.975 5.566 4.411 5.566Z" fill="#666"/><path d="M112.011 159.449H72.055v2.198h39.956v-2.198ZM152.552 192.761c0 3.997 2.571 7.239 5.741 7.239 3.171 0 5.737-3.242 5.737-7.239 0-3.998-2.571-7.239-5.737-7.239-3.165 0-5.741 3.241-5.741 7.239Z" fill="#999"/><path d="M156.453 200c3.172 0 5.742-3.241 5.742-7.239 0-3.998-2.57-7.239-5.742-7.239-3.171 0-5.741 3.241-5.741 7.239 0 3.998 2.57 7.239 5.741 7.239Z" fill="#666"/><path d="M111.86 127.101h45.46v-17.554h-45.46v17.554Z" fill="#999"/><path d="M119.23 169.335h38.091v-2.203H119.23a6.255 6.255 0 0 1-6.251-6.246V70.529a8.46 8.46 0 0 0-8.449-8.449h-5.132v2.198h5.132a6.256 6.256 0 0 1 6.251 6.251v90.347a8.46 8.46 0 0 0 8.449 8.459Z" fill="#999"/><path d="M156.222 185.522h2.197V98.865a7.614 7.614 0 0 0-7.607-7.607H111.88v2.198h38.932a5.414 5.414 0 0 1 5.41 5.41v86.656Z" fill="#999"/><path d="M92.583 65.307h13.626v-4.37H92.583v4.37ZM72.05 123.688h38.842V70.484H72.05v53.204Z" fill="#666"/><path d="M107.393 55.063c-2.288 12.265-1.461 29.239 1.115 32.067 3.236 3.528 10.994-10.521 10.545-11.09-.337-.44-2.923-12.19-5.625-20.256-2.813-8.408-5.47-3.755-6.035-.72Z" fill="#FFD3C9"/><path d="M107.993 86.333c1.412 3.156 6.236 3.947 21.385 5.298 2.097.187 7.395-14.25 5.167-14.563-2.803-.399-14.977-1.76-15.789-1.73-6.846.283-11.826 8.616-10.763 10.995Z" fill="#FFD3C9"/><path d="M118.756 75.338c-3.065.505-5.691 2.148-7.98 4.19 1.78-2.551 4.804-4.381 7.98-4.19Z" fill="#666"/><path d="M127.049 91.329a46.475 46.475 0 0 0 5.948 2.768c1.628.534 6.367 1.94 7.133.201.504-1.185-2.167-2.339-4.033-3.201-1.008-.454-2.197-1.548-1.88-2.183.56-1.114 3.111.111 4.779 1.155 3.231 2.016 7.501 5.62 9.578 4.032.782-.61-.06-1.79-1.316-2.959 2.052 1.387 4.25 2.52 5.147 1.9.505-.362.55-.886.293-1.511a1.471 1.471 0 0 0 1.628-.197c.706-.69.408-1.754-.302-2.858a.824.824 0 0 0 .635-.388c1.512-2.153-5.495-8.712-7.97-9.387a63.308 63.308 0 0 0-15.043-1.926c-2.989 2.213-4.602 14.549-4.597 14.554Z" fill="#FFD3C9"/><path d="M138.084 84.927a12.51 12.51 0 0 1 4.834 2.051c1.825 1.296 3.025 2.773 4.537 4.275.04.04 0 .106-.06.066-.721-.716-3.721-3.408-4.502-4.033a11.866 11.866 0 0 0-4.809-2.34s-.02-.02 0-.02ZM139.556 81.857a29.818 29.818 0 0 1 5.636 2.167c1.93 1.064 3.407 2.748 4.864 4.366a85.034 85.034 0 0 1 2.561 2.974c.035.04-.025.106-.06.066a99.973 99.973 0 0 0-4.583-4.88 15.628 15.628 0 0 0-5.086-3.453c-1.094-.459-2.218-.832-3.337-1.205-.036-.01-.036-.04.005-.035ZM141.713 79.2c1.86.449 3.489.832 5.117 1.895 2.153 1.402 4.199 3.72 4.92 4.537a80.44 80.44 0 0 1 2.304 2.783c.03.04-.035.09-.066.056a61.98 61.98 0 0 0-5.545-5.863 12.398 12.398 0 0 0-3.13-2.188 22.24 22.24 0 0 0-3.615-1.21s.005-.015.015-.01Z" fill="#666"/><path d="m103.587 72.465 13.445-7.057s-1.83-7.406-3.423-11.363c-2.102-5.238-4.537-5.686-6.826.847-1.547 4.365-3.196 17.573-3.196 17.573Z" fill="#A9C297"/><path d="m103.587 72.465 13.445-7.057s-1.83-7.406-3.423-11.363c-2.102-5.238-4.537-5.686-6.826.847-1.547 4.365-3.196 17.573-3.196 17.573Z" fill="#fff" opacity=".5"/><path d="M104.283 70.474c1.885-1.165 3.781-2.299 5.732-3.347a80.204 80.204 0 0 1 2.944-1.513c1.008-.504 2.016-.887 3.025-1.391.055-.03.095.06.04.086-1.008.453-1.951 1.048-2.929 1.557-.978.51-1.961 1.008-2.934 1.548-1.946 1.038-3.897 2.077-5.817 3.16-.076.016-.116-.045-.061-.1Z" fill="#666"/><path d="M108.639 58.935a5.147 5.147 0 0 0-1.422-.343 5.13 5.13 0 0 0 1.286.696c.455.182.933.3 1.421.348a5.168 5.168 0 0 0-1.285-.701Zm6.679 4.32a5.291 5.291 0 0 0-.761-1.245c.072.484.211.956.413 1.401.196.45.452.87.761 1.25-.07-.486-.21-.959-.413-1.406Zm-8.146 3.362a5.085 5.085 0 0 0-1.25.762 5.274 5.274 0 0 0 1.406-.419c.45-.192.869-.448 1.245-.761-.487.07-.96.212-1.406.418h.005Z" fill="#fff"/><path opacity=".1" d="m115.142 66.396-11.555 6.049s1.669-13.208 3.196-17.578c1.17-3.353 2.385-4.86 3.57-4.84l4.789 16.369Z" fill="#000"/><path d="m110.005 82.421 3.408 10.022s32.696 5.389 39.965 13.52c10.587 11.837 32.894 52.206 32.894 52.206l-19.333 13.833s-27.701-45.239-30.479-49.02c-2.777-3.781-43.373-7.506-50.884-13.334-7.512-5.827-2.3-27.222-2.3-27.222l26.729-.005Z" fill="#FFD3C9"/><path d="M209.425 167.893c-.942.933-34.219 17.024-35.837 16.832-.186 0-4.537-6.709-4.537-6.709-1.28-2.597-13.505-21.833-13.505-21.833l23.144-13.425 10.888 21.289s5.399-.318 10.214-.368c2.969-.036 5.545 0 6.236.131 1.759.398 4.345 3.161 3.397 4.083Z" fill="#FEE3C5"/><path d="m163.43 168.906-2.44-4.033s9.921-1.971 18.108-6.351c0 0-3.791 9.447-7.058 10.364-3.266.918-8.61.02-8.61.02Z" fill="#fff"/><path d="m163.43 168.906-2.52-3.957-.076-.121a87.725 87.725 0 0 0 4.789-1.25 73.316 73.316 0 0 0 13.969-5.545l-.257.62c-1.457 3.287-2.944 6.639-5.455 9.275-1.27 1.432-3.322 1.513-5.101 1.513a30.222 30.222 0 0 1-5.344-.504l-.005-.031Zm0 0a32.64 32.64 0 0 0 5.339.288c1.714-.091 3.645-.136 4.839-1.548 2.37-2.621 3.877-5.969 5.263-9.195l.343.308a59.493 59.493 0 0 1-8.888 3.755 74.039 74.039 0 0 1-9.315 2.485l.07-.156 2.349 4.063Z" fill="#fff"/><path d="m183.695 151.777 3.796 6.936s-7.591 10.082-11.66 12.038c-4.068 1.956-9.094 3.902-9.094 3.902l-3.745-5.747s6.997-2.273 10.52-4.879c3.524-2.607 10.183-12.25 10.183-12.25Z" fill="#fff"/><path d="m183.695 151.777 3.892 6.886.041.06-.046.061a104.26 104.26 0 0 1-4.184 5.232c-2.228 2.521-4.411 5.178-7.355 6.877-3.025 1.477-6.11 2.752-9.225 3.997l-.192.076-.111-.172-3.73-5.757-.166-.257a62.293 62.293 0 0 0 6.684-2.611c2.067-.978 4.119-2.042 5.702-3.705 3.206-3.282 5.963-6.997 8.69-10.687Zm0 0c-2.601 3.801-5.273 7.561-8.458 10.924-1.588 1.704-3.665 2.868-5.752 3.856a60.976 60.976 0 0 1-6.433 2.571l.126-.348 3.761 5.737-.303-.096c3.101-1.22 6.206-2.485 9.205-3.932 2.859-1.648 5.072-4.285 7.3-6.694a119.3 119.3 0 0 0 4.26-5.147v.121l-3.695-6.992h-.011ZM189.715 163.744s5.363-.201 7.914-.201c0 0-3.12 4.824-4.149 6.719-1.028 1.896-1.008 6.372-1.008 6.372l-10.49 4.905s1.245-7.178 2.576-9.537c1.33-2.36 5.157-8.258 5.157-8.258Z" fill="#fff"/><path d="M189.715 163.744c2.097-.09 6.049-.272 8.166-.353-1.316 2.108-2.641 4.22-3.871 6.367a6.577 6.577 0 0 0-.721 1.588 21.408 21.408 0 0 0-.6 5.288v.152l-.131.06a1423.753 1423.753 0 0 1-10.496 4.9l-.403.187a63.901 63.901 0 0 1 1.784-7.628c.676-2.384 2.234-4.406 3.529-6.477.903-1.372 1.81-2.733 2.738-4.084h.005Zm0 0-2.581 4.184c-1.22 2.118-2.723 4.089-3.348 6.488a95.852 95.852 0 0 0-1.603 7.164l-.317-.247c2.606-1.24 7.864-3.701 10.485-4.915l-.136.216c.101-2.389.131-4.995 1.427-7.087a270.995 270.995 0 0 1 3.871-6.08l.116.212c-1.976.025-5.943.05-7.914.065Z" fill="#fff"/><path opacity=".1" d="M145.333 136.951c-4.396-7.058-7.965-12.734-8.872-13.969-2.778-3.786-43.38-7.511-50.89-13.334-7.512-5.822-2.3-27.222-2.3-27.222h26.719l3.407 10.022s18.839 3.105 31.099 8.162l.837 36.341Z" fill="#000"/><path d="M161.984 190.2c-1.261.418-38.217.181-39.583-.701-.167-.091-.212-3.438-.207-8.01v-.091c0-2.898-.504-27.67-.504-27.67l23.451-.126.746 24.393s4.986 2.098 9.326 4.18c2.682 1.275 5.006 2.439 5.546 2.863 1.381 1.129 2.485 4.754 1.225 5.162Z" fill="#FFD3C9"/><path d="m145.408 170.424-23.395.055s-1.815-49.282-4.719-50.618c-4.885-2.243-23.97-1.85-34.94-9.779-8.907-6.438-1.547-27.66-1.547-27.66h23.582s3.231 7.48 3.771 9.749c0 0 22.811 6.27 30.685 14.906 7.481 8.212 6.563 63.347 6.563 63.347Z" fill="#FFD3C9"/><path d="M138.371 185.88s3.458-5.041 6.155-6.181a8.577 8.577 0 0 1 5.314-.433c.539.05 10.299 4.537 11.594 5.772 1.296 1.235 2.082 4.708 1.094 5.364-.988.655-39.769 0-40.228-.212-.459-.212-.786-4.033-.544-4.31.242-.278 16.615 0 16.615 0ZM77.727 90.74c-.847 3.402-3.53 17.335 8.312 23.465 11.842 6.13 28.256 4.568 30.121 5.803 1.865 1.235 2.314 10.949 2.314 10.949s14.463-12.905 20.315-13.934c5.853-1.028 22.04-1.925 22.04-1.925s-3.715-8.938-11.892-13.798c-10.037-5.963-35.524-8.857-35.524-8.857l-35.686-1.704Z" fill="#A9C297"/><path opacity=".5" d="M77.727 90.74c-.847 3.402-3.53 17.335 8.312 23.465 11.842 6.13 28.256 4.568 30.121 5.803 1.865 1.235 2.314 10.949 2.314 10.949s14.463-12.905 20.315-13.934c5.853-1.028 22.04-1.925 22.04-1.925s-3.715-8.938-11.892-13.798c-10.037-5.963-35.524-8.857-35.524-8.857l-35.686-1.704Z" fill="#fff"/><path d="M96.207 91.621c-.002.04-.002.081 0 .121.03-.04.06-.075.086-.116l-.086-.005Zm17.301 1.931a4.968 4.968 0 0 0-1.421-.343c.393.292.826.526 1.285.696.455.184.934.3 1.422.343a5.313 5.313 0 0 0-1.286-.696Zm-27.761-2.43-1.059-.05.379.161c.455.181.933.297 1.421.343a4.17 4.17 0 0 0-.741-.454Zm-7.058 5.329a5.278 5.278 0 0 0-.766-1.25c.073.484.214.956.419 1.4.19.453.447.874.76 1.251a5.18 5.18 0 0 0-.387-1.401h-.026Zm23.87-1.412c-.45.194-.871.45-1.25.761a5.578 5.578 0 0 0 2.651-1.18 5.053 5.053 0 0 0-1.376.42h-.025Zm10.324 9.704a4.84 4.84 0 0 0-.343 1.422 5.653 5.653 0 0 0 1.039-2.707 5.143 5.143 0 0 0-.671 1.285h-.025Zm-33.957 1.255c-.091.247-.17.497-.237.752.046.1.096.201.147.297.176-.292.326-.599.448-.917a4.97 4.97 0 0 0 .338-1.422 5.248 5.248 0 0 0-.67 1.29h-.026Zm17.881-3.962a4.977 4.977 0 0 0-.348 1.422 5.522 5.522 0 0 0 1.064-2.682c-.287.386-.52.81-.69 1.26h-.026Zm11.862 9.689a5.14 5.14 0 0 0-1.417-.363c.396.293.83.529 1.291.701a5.16 5.16 0 0 0 1.421.343 5.017 5.017 0 0 0-1.27-.681h-.025Zm-1.008-12.099a5.153 5.153 0 0 0-1.417-.362c.795.58 1.729.94 2.707 1.043a5.147 5.147 0 0 0-1.285-.69l-.005.01Zm-22.882 2.314a5.24 5.24 0 0 0-1.421-.347c.392.297.827.533 1.29.7.455.182.934.298 1.422.343a5.347 5.347 0 0 0-1.286-.706l-.005.01Zm6.281-4.758a5.161 5.161 0 0 0-.76-1.25c.07.484.21.956.418 1.4.194.451.45.872.76 1.251a5.041 5.041 0 0 0-.413-1.412l-.005.01Zm21.324 19.705c-.183.455-.3.934-.348 1.422a5.02 5.02 0 0 0 .701-1.291c.182-.455.297-.933.343-1.421a5.16 5.16 0 0 0-.691 1.28l-.005.01Zm-10.949-.312a5.16 5.16 0 0 0-.348 1.421c.58-.795.94-1.728 1.044-2.707-.29.391-.522.82-.691 1.276l-.005.01Zm-16.263-3.08a4.974 4.974 0 0 0-.76-1.246c.06.429.18.848.352 1.246.176.105.353.216.54.317-.036-.116-.081-.222-.127-.328l-.005.011Zm10.914-1.664a5.237 5.237 0 0 0-.766-1.245c.073.484.214.956.419 1.401.19.451.447.87.76 1.245a5.291 5.291 0 0 0-.408-1.411l-.005.01Zm6.77-5.238c-.45.193-.869.451-1.245.767a5.061 5.061 0 0 0 1.402-.419 4.97 4.97 0 0 0 1.25-.766c-.484.07-.956.208-1.401.408l-.006.01Zm15.487-6.967c-.45.193-.871.447-1.25.757a5.64 5.64 0 0 0 2.651-1.175 4.699 4.699 0 0 0-1.401.418Zm-28.81 7.199c-.45.193-.872.45-1.25.761a4.975 4.975 0 0 0 1.401-.413 5.117 5.117 0 0 0 1.25-.766 5.24 5.24 0 0 0-1.401.418Zm50.486-9.165a4.53 4.53 0 0 0-.131.777c.166-.214.309-.444.429-.686l-.298-.09Zm-14.967 6.735a5.165 5.165 0 0 0-.342 1.422c.293-.392.528-.825.695-1.285.182-.456.297-.934.343-1.422a5.276 5.276 0 0 0-.68 1.285h-.016Zm12.225 12.175a5.77 5.77 0 0 0-.287 1.008c.096-.04.191-.081.282-.111a6.2 6.2 0 0 0 .358-.766c.181-.455.297-.934.343-1.422-.288.395-.517.83-.681 1.291h-.015Zm11.091-2.017a5.323 5.323 0 0 0-.348 1.422 5.16 5.16 0 0 0 .7-1.286c.182-.455.298-.933.343-1.421a5.298 5.298 0 0 0-.685 1.275l-.01.01Zm-23.19 1.366a5.114 5.114 0 0 0-1.421-.347c.392.295.825.531 1.285.7.455.182.934.297 1.422.343a5.121 5.121 0 0 0-1.255-.716l-.031.02Zm-.604-20.356a5.155 5.155 0 0 0-1.422-.347c.81.58 1.76.933 2.752 1.023a4.977 4.977 0 0 0-1.3-.686l-.03.01Zm12.164 8.742a5.248 5.248 0 0 0-1.422-.348c.395.293.829.529 1.291.701.455.181.933.297 1.421.342a5.322 5.322 0 0 0-1.29-.695Zm10.843-1.432a5.309 5.309 0 0 0-.756-1.25c.07.484.209.956.413 1.401.196.45.452.87.762 1.25a4.978 4.978 0 0 0-.419-1.401Zm-16.454 8.429a5.09 5.09 0 0 0-.761-1.25c.071.486.212.96.418 1.406.191.45.448.87.761 1.245a5.077 5.077 0 0 0-.418-1.401Zm-12.406 10.178a4.988 4.988 0 0 0-.766-1.251c.075.485.215.956.418 1.402.195.451.453.872.766 1.25a5.077 5.077 0 0 0-.418-1.401Zm36.573-12.669c-.45.193-.871.447-1.25.757a5.64 5.64 0 0 0 2.651-1.175 5.077 5.077 0 0 0-1.401.418Zm-23.718-10.556a5.088 5.088 0 0 0-1.251.762 5.28 5.28 0 0 0 1.407-.419 5.074 5.074 0 0 0 1.245-.761 5.06 5.06 0 0 0-1.401.418Zm10.717 11.867c-.45.194-.871.451-1.25.761.486-.069.96-.208 1.406-.413.45-.196.871-.454 1.25-.766a5.21 5.21 0 0 0-1.406.428v-.01Zm-22.917 20.043.257-.221c.014-.068.022-.138.025-.207a3.363 3.363 0 0 0-.282.428Zm3.998-3.553.126.095.08-.065a1.288 1.288 0 0 0-.196-.03h-.01Zm6.941-5.672c.02.171.054.339.101.504l.177-.126c-.086-.126-.152-.247-.278-.378Zm29.461-7.501a5.164 5.164 0 0 0-.762-1.245c.072.485.213.957.419 1.401.193.451.449.872.761 1.251a5.248 5.248 0 0 0-.418-1.397v-.01Zm-41.005-3.317c-.45.194-.871.451-1.25.761.486-.069.96-.208 1.407-.413a5.179 5.179 0 0 0 1.245-.766c-.485.076-.957.22-1.402.428v-.01Z" fill="#fff"/><path opacity=".1" d="M107.217 95.14c5.223.897 12.84 2.016 18.148 2.848l4.537.741c4.628.62 8.726 3.716 11.04 7.683-2.233-3.292-5.545-5.918-9.437-6.916-1.129-.268-5.006-.812-6.216-1.009-6.049-1.008-12.098-1.925-18.077-3.347h.005ZM115.822 95.78c3.791.298 7.511.7 11.307.903-3.792.44-7.633.133-11.307-.903Z" fill="#000"/><path d="m113.412 92.443-35.686-1.704c-.136-.343 9.306-31.86 24.042-41.408 2.596-1.678 7.516-.146 8.706 1.659 4.708 7.118 2.938 41.453 2.938 41.453Z" fill="#A9C297"/><path d="m113.412 92.443-35.686-1.704c-.136-.343 9.306-31.86 24.042-41.408 2.596-1.678 7.516-.146 8.706 1.659 4.708 7.118 2.938 41.453 2.938 41.453Z" fill="#fff" opacity=".5"/><path d="M104.142 52.336a5.158 5.158 0 0 0-.343 1.422c.294-.393.53-.826.701-1.286.179-.456.294-.934.343-1.422-.294.394-.53.826-.701 1.286Zm-4.653 18.435a5.147 5.147 0 0 0-.343 1.422 5.523 5.523 0 0 0 1.039-2.707c-.29.394-.524.827-.696 1.285Zm-15.179 7.38a5.134 5.134 0 0 0-.342 1.427 5.28 5.28 0 0 0 .7-1.29c.18-.456.294-.934.338-1.422a5.403 5.403 0 0 0-.696 1.285Zm12.225 12.175a5.374 5.374 0 0 0-.328 1.295h.07c.251-.363.456-.756.61-1.17.182-.454.298-.933.344-1.42a5.249 5.249 0 0 0-.696 1.295Zm11.09-2.017c-.18.456-.297.934-.347 1.422.297-.389.533-.82.7-1.28.184-.455.3-.934.343-1.422-.291.389-.527.817-.701 1.27l.005.01ZM90.738 63.64a5.145 5.145 0 0 0-.343 1.42 5.727 5.727 0 0 0 1.044-2.706 4.998 4.998 0 0 0-.706 1.275l.005.01Zm17.901-4.704a5.147 5.147 0 0 0-1.422-.343 5.13 5.13 0 0 0 1.286.696c.455.182.933.3 1.421.348a5.164 5.164 0 0 0-1.285-.701Zm5.041 14.76-.363-.156a5.154 5.154 0 0 0-1.417-.343c.39.295.821.53 1.281.696.166.06.337.12.504.171.02-.11.015-.232.01-.353l-.015-.015Zm-28.498 17.17a5.107 5.107 0 0 0-1.421-.348c.281.216.588.397.912.54l1.059.05c-.156-.076-.348-.151-.534-.227l-.015-.015Zm10.788-12.83a4.973 4.973 0 0 0-1.426-.347c.395.293.83.53 1.29.7.456.18.934.294 1.422.338a5.123 5.123 0 0 0-1.27-.675l-.016-.016Zm3.348-16.927a5.098 5.098 0 0 0-.761-1.25c.15.972.558 1.888 1.18 2.65a5.066 5.066 0 0 0-.404-1.385l-.015-.015Zm7.496 15.506a5.327 5.327 0 0 0-.761-1.25c.071.484.21.956.413 1.401.194.45.45.871.761 1.25a5.152 5.152 0 0 0-.398-1.386l-.015-.015ZM90.36 85.043a5.152 5.152 0 0 0-.767-1.246 5.3 5.3 0 0 0 .419 1.402c.191.45.448.87.761 1.245a5.235 5.235 0 0 0-.398-1.386l-.015-.015Zm22.942-1.72c.139-.014.277-.04.413-.075v-.227c-.146.089-.285.19-.413.303ZM90.818 72.043a5.095 5.095 0 0 0-1.25.76c.486-.072.96-.213 1.407-.418.45-.192.869-.448 1.245-.76a5.066 5.066 0 0 0-1.402.418Zm10.718 11.866a5.264 5.264 0 0 0-1.25.767 5.643 5.643 0 0 0 2.656-1.185c-.485.066-.958.2-1.406.398v.02Zm-21.944.918-.166.474c.426-.19.825-.438 1.184-.736-.348.04-.69.121-1.018.242v.02Zm27.575-18.188a5.082 5.082 0 0 0-1.25.76 5.274 5.274 0 0 0 1.406-.418c.45-.192.869-.448 1.245-.76a5.059 5.059 0 0 0-1.401.397v.02Z" fill="#fff"/><path d="M97.402 52.951c-9.034 10.586-19.796 32.223-17.21 36.296 2.878 4.507 16.923-8.721 16.812-9.528-.08-.605 2.349-13.107 5.313-22.543 2.964-9.438-2.682-6.811-4.915-4.225Z" fill="#FFD3C9"/><path d="M80.03 88.93c2.067 3.23 8.026 4.067 22.821 7.586 2.047.504 9.195-14.044 7.058-14.68-2.722-.796-13.278-2.288-14.085-2.374-6.815-.706-17.18 7.28-15.794 9.467Z" fill="#FFD3C9"/><path d="M105.402 81.045s6.196.534 10.284 1.23c2.284.388 6.135 1.406 7.683 2.46 2.314 1.573 10.974 9.639 9.074 11.781-1.729 1.941-8.298-5.933-8.298-5.933s7.33 7.36 4.814 9.316c-2.515 1.956-8.741-7.935-8.741-7.935s7.355 7.733 4.446 9.336c-2.198 1.215-8.348-7.42-8.348-7.42s6.281 6.689 4.073 8.035c-2.444 1.482-8.6-6.13-8.6-6.13-6.185 2.475-10.142 1.12-12.84-.176-.675-.313 6.453-14.564 6.453-14.564Z" fill="#FFD3C9"/><path d="M121.771 87.876c.892.831 1.799 1.668 2.616 2.58.817.913 1.598 1.85 2.324 2.829a21.331 21.331 0 0 1 2.465 4.088c-1.366-2.49-4.234-5.792-5.041-6.7-.807-.907-1.583-1.86-2.395-2.767-.025-.025.011-.05.031-.03ZM118.433 90.76c1.094 1.113 2.219 2.177 3.262 3.337 1.044 1.159 1.921 2.349 2.879 3.569.075.095 0 .105-.081 0-1.008-1.185-2.017-2.209-3.025-3.378-1.008-1.17-1.991-2.39-3.05-3.529-.03.005 0-.02.015 0ZM115.121 92.71a34.692 34.692 0 0 1 4.598 5.49c.071.096-.03.096-.106 0-1.512-1.855-2.652-3.322-4.537-5.434-.04-.02.01-.086.045-.056ZM113.715 81.973a56.55 56.55 0 0 1 5.57 1.008c1.372.353 2.839.66 4.033 1.472 3.368 2.52 6.554 5.616 8.676 9.275a19.518 19.518 0 0 0-1.749-2.207 53.66 53.66 0 0 0-6.1-5.818 8.336 8.336 0 0 0-2.304-1.477c-2.621-1.008-5.409-1.573-8.131-2.253h.005ZM97.004 79.694a22.383 22.383 0 0 0-9.039 1.628 11.116 11.116 0 0 1 9.039-1.628Z" fill="#666"/><path d="m85.697 65.528 15.168.671s2.153-7.32 2.768-11.544c.822-5.58-1.064-7.194-6.322-2.702-3.523 3.004-11.614 13.575-11.614 13.575Z" fill="#A9C297"/><path d="m85.697 65.528 15.168.671s2.153-7.32 2.768-11.544c.822-5.58-1.064-7.194-6.322-2.702-3.523 3.004-11.614 13.575-11.614 13.575Z" fill="#fff" opacity=".5"/><path d="M99.822 66.154c.353-.06.7-.096 1.048-.121l-.166.116c.761-3.025 1.558-6.014 2.591-8.953a42.692 42.692 0 0 1-.927 4.577 49.104 49.104 0 0 1-1.392 4.612 11.398 11.398 0 0 1-1.154-.231Z" fill="#666"/><path d="M102.594 59.943c.348-.61.681-1.2 1.054-1.785a2.327 2.327 0 0 1-1.054 1.785Z" fill="#666"/><path d="M95.154 54.075c-.187.197-.373.398-.56.61a5.752 5.752 0 0 0 1.91-1.008c-.467.065-.922.2-1.35.398Zm4.174 7.058a5.1 5.1 0 0 0-.761-1.25c.15.972.558 1.888 1.18 2.651a5.067 5.067 0 0 0-.414-1.411l-.005.01Zm-8.6 2.52a5.144 5.144 0 0 0-.343 1.422 5.727 5.727 0 0 0 1.043-2.707 4.998 4.998 0 0 0-.695 1.26l-.005.025Z" fill="#fff"/><path d="M87.3 64.157c2.213-.055 4.426-.08 6.639 0 1.102.04 2.205.096 3.307.167 1.104.07 2.203.252 3.302.307.06 0 .05.101 0 .096-1.094-.11-2.218-.076-3.317-.131-1.1-.056-2.208-.1-3.312-.141-2.203-.08-4.411-.167-6.62-.197-.07-.01-.06-.1 0-.1Z" fill="#666"/><path d="M108.971 55.719c-2.016.201-4.94-3.217-5.933-5.798-.066-.176 1.512-6.674 1.679-7.995.035-.272 8.015 3.12 8.015 3.12a21.411 21.411 0 0 0-1.482 4.966c-.02.192-.343 5.515-2.279 5.707Z" fill="#FFD3C9"/><path d="M111.23 50.28c0 .1 0 .226-.036.367a4.713 4.713 0 0 1-.816-.065c-4.492-.706-5.268-6.443-5.399-8.63l.151.045.338.116.186.065.252.09.131.051.283.106.952.368c.029.015.06.027.091.035.086.036.167.066.247.106.671.263 1.392.56 2.072.842l.212.086 1.008.423.252.106.141.06.141.061.368.157.202.08.136.06c.046.014.09.033.131.056l.424.176a21.104 21.104 0 0 0-1.482 4.966v.267l.015.005ZM114.965 30.75a4.378 4.378 0 0 1 3.529 3.493c.565 3.055-.449 5.838-.716 6-.267.16-2.813-9.493-2.813-9.493Z" fill="#666"/><path d="M104.167 33.306c-1.008 2.934.283 11.539 2.324 13.52 2.964 2.863 7.955 3.292 10.425-.302 2.395-3.484.504-14.67-1.774-16.48-3.383-2.666-9.498-1.069-10.975 3.262Z" fill="#FFD3C9"/><path d="M112.49 38.77s-.04.036-.035.06c.101.576.121 1.256-.373 1.513v.03c.635-.176.6-1.073.408-1.603Z" fill="#666"/><path d="M111.885 38.236c-.943.066-.746 1.946.131 1.885.877-.06.661-1.94-.131-1.885ZM115.721 38.518c0-.025.051 0 .051.046.04.584.186 1.25.736 1.386v.035c-.656-.025-.842-.907-.787-1.467Z" fill="#666"/><path d="M116.18 37.853c.928-.166 1.2 1.704.338 1.86-.862.156-1.119-1.719-.338-1.86ZM111.053 37.455c.252-.096.464-.217.701-.333.265-.083.495-.252.655-.479a.403.403 0 0 0-.116-.474 1.007 1.007 0 0 0-1.008 0c-.335.135-.608.39-.766.716a.423.423 0 0 0 .083.457.431.431 0 0 0 .451.113ZM116.83 36.83a6.705 6.705 0 0 1-.766-.116 1.236 1.236 0 0 1-.761-.267.404.404 0 0 1-.102-.247.4.4 0 0 1 .072-.258 1.005 1.005 0 0 1 .963-.287c.362.033.699.198.947.464a.42.42 0 0 1 .071.478.426.426 0 0 1-.424.233Z" fill="#666"/><path d="M112.797 42.435a2.02 2.02 0 0 0 1.417.741c.241.022.484.009.721-.04a.55.55 0 0 0 .131-.03l.126-.035a.146.146 0 0 0 .106-.142.257.257 0 0 0 0-.055v-.07c-.035-.454-.151-1.13-.151-1.13.171.066 1.048.353 1.008.121a30.25 30.25 0 0 0-1.402-5.928c0-.06-.116-.036-.1.025.232 1.865.791 3.68 1.053 5.545a3.55 3.55 0 0 0-.968-.186c-.06.025.247 1.305.247 1.512a2.767 2.767 0 0 1-2.122-.423c-.066.004-.111.05-.066.095ZM105.12 42.158c1.064.08 1.548-3.156 1.613-4.376.061-1.078-.322-4.36-.322-4.587 0-.227 4.96 1.88 7.304.595 2.344-1.286 3.529-3.902 3.317-4.96-.212-1.06-3.892-3.025-6.614-2.572-2.722.454-5.606 4.684-5.606 4.684.331-.597.612-1.219.842-1.86-.065-.111-1.653.967-1.699 2.273 0 0 0-1.628-.136-1.628s-1.194 1.628-.665 2.57c0 0-1.265 1.7-1.079 3.217.187 1.517 1.8 6.543 3.045 6.644Z" fill="#666"/><path d="M115.379 32.872a8.62 8.62 0 0 1-2.178 1.361 5.778 5.778 0 0 1-2.798.167 8.841 8.841 0 0 1-2.677-.877c-.741-.379-1.431-.878-2.203-1.19-.191-.076-.332.207-.196.338a9.206 9.206 0 0 0 5.283 2.339 5.29 5.29 0 0 0 4.779-2.128s0-.015-.01-.01Z" fill="#666"/><path d="M106.375 40.338s-1.9-2.788-3.166-2.117c-1.265.67.137 4.708 1.609 5.273a1.509 1.509 0 0 0 1.676-.289c.145-.14.261-.307.34-.492l-.459-2.375Z" fill="#FFD3C9"/><path d="M103.638 39.365s-.025.035 0 .04c1.008.434 1.558 1.402 1.926 2.4a.823.823 0 0 0-1.235-.242c-.026 0 0 .06.03.056a.917.917 0 0 1 1.008.332c.188.259.348.536.479.827.045.096.212.045.176-.06v-.026c.031-1.315-.968-3.175-2.384-3.327ZM169.207 190.19h-48.616v5.142h48.616v-5.142Z" fill="#666"/><path d="M70.866 127.131h45.526v-17.553H70.866v17.553Z" fill="#999"/><path d="M78.301 169.335h38.091v-2.198h-38.09a6.254 6.254 0 0 1-6.252-6.251V70.575a8.454 8.454 0 0 0-8.444-8.45H58.47v2.204h5.136a6.256 6.256 0 0 1 6.246 6.246V160.9a8.461 8.461 0 0 0 8.45 8.434Z" fill="#999"/><path d="M115.318 192.09h2.198v-93.2a7.619 7.619 0 0 0-7.607-7.606H70.956v2.203h38.933a5.414 5.414 0 0 1 5.429 5.404v93.199Z" fill="#999"/><path d="M51.66 65.337h13.625v-4.37H51.66v4.37ZM43.629 160.548c0-21.172 13.802-38.398 30.75-38.398s30.751 17.226 30.751 38.398c0 21.173-13.802 38.398-30.75 38.398-16.949 0-30.751-17.225-30.751-38.398Zm3.08 0c0 19.474 12.416 35.318 27.685 35.318 15.27 0 27.686-15.844 27.686-35.318 0-19.474-12.421-35.318-27.686-35.318-15.264 0-27.685 15.844-27.685 35.318Z" fill="#666"/><path d="M44.743 160.548c0-18.768 12.21-34.037 27.222-34.037s27.222 15.269 27.222 34.037-12.21 34.038-27.222 34.038c-15.013 0-27.222-15.27-27.222-34.038Zm2.198 0c0 17.558 11.226 31.84 25.019 31.84 13.792 0 25.019-14.282 25.019-31.84s-11.217-31.839-25.014-31.839c-13.798 0-25.02 14.281-25.02 31.839h-.004Z" fill="#999"/><path d="M68.592 160.548c0 3.075 1.976 5.545 4.416 5.545 2.44 0 4.411-2.49 4.411-5.545 0-3.055-1.976-5.545-4.41-5.545-2.436 0-4.417 2.47-4.417 5.545Z" fill="#999"/><path d="M71.592 166.114c2.436 0 4.41-2.492 4.41-5.566 0-3.073-1.974-5.565-4.41-5.565s-4.411 2.492-4.411 5.565c0 3.074 1.975 5.566 4.41 5.566Z" fill="#666"/><path d="M116.871 200c3.171 0 5.742-3.241 5.742-7.239 0-3.998-2.571-7.239-5.742-7.239s-5.742 3.241-5.742 7.239c0 3.998 2.571 7.239 5.742 7.239Z" fill="#999"/><path d="M115.031 200c3.171 0 5.742-3.241 5.742-7.239 0-3.998-2.571-7.239-5.742-7.239s-5.742 3.241-5.742 7.239c0 3.998 2.571 7.239 5.742 7.239Z" fill="#666"/></svg>