<svg width="195" height="200" viewBox="0 0 195 200" fill="none" xmlns="http://www.w3.org/2000/svg">
<path d="M0 199.711C62.3267 199.416 132.241 199.412 194.567 199.711C132.265 200.01 62.3267 200.006 0 199.711Z" fill="#263238"/>
<path d="M48.9871 197.823C48.9871 198.195 48.8769 198.56 48.6706 198.87C48.4642 199.181 48.1707 199.423 47.8271 199.568C47.4834 199.712 47.1047 199.752 46.7385 199.682C46.3724 199.612 46.035 199.435 45.7688 199.174C45.5025 198.914 45.3193 198.58 45.2419 198.215C45.1645 197.85 45.1966 197.471 45.3339 197.125C45.4713 196.778 45.708 196.48 46.0142 196.267C46.3204 196.055 46.6826 195.937 47.0553 195.929C47.3073 195.924 47.5579 195.968 47.7924 196.061C48.0269 196.154 48.2404 196.292 48.4205 196.469C48.6005 196.645 48.7434 196.856 48.8408 197.088C48.9381 197.321 48.9878 197.571 48.9871 197.823Z" fill="#263238"/>
<path d="M48.0552 197.823C48.0552 198.014 47.9985 198.2 47.8924 198.359C47.7862 198.518 47.6354 198.642 47.4589 198.715C47.2824 198.788 47.0882 198.807 46.9008 198.77C46.7134 198.733 46.5413 198.641 46.4062 198.506C46.2711 198.371 46.1791 198.198 46.1419 198.011C46.1046 197.824 46.1237 197.63 46.1968 197.453C46.2699 197.277 46.3937 197.126 46.5526 197.02C46.7114 196.913 46.8982 196.857 47.0892 196.857C47.3454 196.857 47.5911 196.959 47.7722 197.14C47.9534 197.321 48.0552 197.567 48.0552 197.823Z" fill="#EBEBEB"/>
<path d="M54.9952 197.823C54.9952 198.197 54.884 198.564 54.6758 198.875C54.4675 199.186 54.1716 199.429 53.8254 199.572C53.4791 199.715 53.0982 199.753 52.7308 199.679C52.3635 199.606 52.0261 199.425 51.7615 199.16C51.497 198.894 51.317 198.557 51.2445 198.189C51.172 197.821 51.2102 197.441 51.3542 197.095C51.4983 196.749 51.7417 196.454 52.0537 196.246C52.3656 196.039 52.7321 195.928 53.1068 195.929C53.3552 195.929 53.6011 195.978 53.8306 196.074C54.06 196.169 54.2684 196.308 54.4438 196.484C54.6192 196.66 54.7582 196.869 54.8528 197.099C54.9475 197.328 54.9958 197.574 54.9952 197.823Z" fill="#263238"/>
<path d="M54.0874 197.823C54.0874 198.014 54.0307 198.2 53.9246 198.359C53.8185 198.518 53.6676 198.642 53.4911 198.715C53.3146 198.788 53.1204 198.807 52.933 198.77C52.7456 198.733 52.5735 198.641 52.4384 198.506C52.3033 198.371 52.2114 198.198 52.1741 198.011C52.1368 197.824 52.1559 197.63 52.229 197.453C52.3022 197.277 52.426 197.126 52.5848 197.02C52.7436 196.913 52.9304 196.857 53.1214 196.857C53.3776 196.857 53.6233 196.959 53.8045 197.14C53.9856 197.321 54.0874 197.567 54.0874 197.823Z" fill="#EBEBEB"/>
<path d="M75.985 197.823C75.9841 198.196 75.8724 198.561 75.6641 198.871C75.4558 199.181 75.1603 199.422 74.8148 199.564C74.4694 199.706 74.0896 199.743 73.7235 199.669C73.3574 199.595 73.0214 199.414 72.7579 199.15C72.4945 198.885 72.3155 198.548 72.2436 198.182C72.1717 197.815 72.21 197.435 72.3539 197.091C72.4977 196.746 72.7405 196.452 73.0515 196.245C73.3626 196.038 73.728 195.928 74.1015 195.929C74.3495 195.93 74.5949 195.98 74.8238 196.075C75.0526 196.171 75.2604 196.31 75.4354 196.486C75.6103 196.662 75.7488 196.87 75.8431 197.1C75.9375 197.329 75.9857 197.575 75.985 197.823Z" fill="#263238"/>
<path d="M75.0674 197.823C75.0674 198.014 75.0107 198.2 74.9046 198.359C74.7984 198.518 74.6476 198.642 74.4711 198.715C74.2946 198.788 74.1004 198.807 73.913 198.77C73.7256 198.733 73.5535 198.641 73.4184 198.506C73.2833 198.371 73.1913 198.198 73.1541 198.011C73.1168 197.824 73.1359 197.63 73.209 197.453C73.2821 197.277 73.4059 197.126 73.5648 197.02C73.7236 196.913 73.9104 196.857 74.1014 196.857C74.3576 196.857 74.6033 196.959 74.7844 197.14C74.9656 197.321 75.0674 197.567 75.0674 197.823Z" fill="#EBEBEB"/>
<path d="M82.0221 197.823C82.0212 198.196 81.9096 198.561 81.7015 198.87C81.4935 199.18 81.1982 199.422 80.8531 199.564C80.5079 199.706 80.1284 199.743 79.7624 199.669C79.3964 199.596 79.0604 199.416 78.7968 199.151C78.5331 198.887 78.3538 198.551 78.2813 198.184C78.2088 197.818 78.2465 197.439 78.3896 197.094C78.5326 196.749 78.7747 196.455 79.0851 196.247C79.3956 196.04 79.7605 195.929 80.1338 195.929C80.3821 195.929 80.6281 195.978 80.8575 196.074C81.0869 196.169 81.2953 196.308 81.4708 196.484C81.6462 196.66 81.7852 196.869 81.8798 197.099C81.9744 197.328 82.0228 197.574 82.0221 197.823Z" fill="#263238"/>
<path d="M81.114 197.823C81.114 198.014 81.0573 198.2 80.9512 198.359C80.8451 198.518 80.6942 198.642 80.5177 198.715C80.3412 198.788 80.147 198.807 79.9596 198.77C79.7722 198.733 79.6001 198.641 79.465 198.506C79.33 198.371 79.238 198.198 79.2007 198.011C79.1634 197.824 79.1825 197.63 79.2557 197.453C79.3288 197.277 79.4526 197.126 79.6114 197.02C79.7703 196.913 79.957 196.857 80.1481 196.857C80.4042 196.857 80.6499 196.959 80.8311 197.14C81.0122 197.321 81.114 197.567 81.114 197.823Z" fill="#EBEBEB"/>
<path d="M77.5642 195.089H81.8288V192.336C81.8288 191.423 81.466 190.547 80.8202 189.901C80.1744 189.255 79.2985 188.893 78.3852 188.893H73.0388L77.5642 195.089Z" fill="#C7C7C7"/>
<path d="M64.8525 0H62.3459V188.893H64.8525V0Z" fill="#DBDBDB"/>
<path d="M64.8574 2.00914L62.3459 1.00457V0H64.8574V2.00914Z" fill="#C7C7C7"/>
<path d="M48.2434 188.893H74.3235C75.1817 188.893 76.0048 189.234 76.6116 189.84C77.2185 190.447 77.5594 191.27 77.5594 192.129V195.089H45.2925V191.844C45.2925 191.456 45.3688 191.072 45.5171 190.714C45.6654 190.356 45.8828 190.031 46.1568 189.757C46.4308 189.483 46.7561 189.266 47.1141 189.117C47.4722 188.969 47.8559 188.893 48.2434 188.893Z" fill="#DBDBDB"/>
<path d="M47.0555 198.397C46.7929 198.389 46.5443 198.277 46.3635 198.086C46.1827 197.895 46.0843 197.641 46.0896 197.378V195.07H48.089V197.378C48.0924 197.514 48.0679 197.65 48.017 197.776C47.9661 197.902 47.8898 198.016 47.793 198.112C47.6961 198.207 47.5807 198.282 47.4538 198.331C47.327 198.38 47.1914 198.403 47.0555 198.397Z" fill="#DBDBDB"/>
<path d="M74.1015 198.397C73.8364 198.397 73.5821 198.292 73.3946 198.105C73.2071 197.917 73.1018 197.663 73.1018 197.398V195.089H75.1013V197.378C75.1039 197.511 75.0799 197.643 75.0308 197.767C74.9817 197.89 74.9085 198.003 74.8154 198.098C74.7223 198.193 74.6112 198.268 74.4886 198.32C74.3661 198.371 74.2345 198.397 74.1015 198.397Z" fill="#DBDBDB"/>
<path d="M53.1069 198.397C52.9755 198.398 52.8452 198.373 52.7236 198.323C52.602 198.273 52.4915 198.199 52.3986 198.106C52.3056 198.013 52.232 197.903 52.182 197.781C52.132 197.659 52.1065 197.529 52.1072 197.398V195.089H54.1067V197.378C54.1092 197.511 54.0853 197.643 54.0362 197.767C53.9871 197.89 53.9139 198.003 53.8208 198.098C53.7277 198.193 53.6166 198.268 53.494 198.32C53.3714 198.371 53.2399 198.397 53.1069 198.397Z" fill="#DBDBDB"/>
<path d="M80.1338 198.397C79.8686 198.397 79.6143 198.292 79.4269 198.105C79.2394 197.917 79.134 197.663 79.134 197.398V195.089H81.1335V197.378C81.1361 197.511 81.1121 197.643 81.063 197.767C81.0139 197.89 80.9407 198.003 80.8476 198.098C80.7545 198.193 80.6434 198.268 80.5209 198.32C80.3983 198.371 80.2667 198.397 80.1338 198.397Z" fill="#DBDBDB"/>
<path d="M87.3636 18.4396C86.5519 18.4383 85.7738 18.1153 85.1999 17.5413C84.6259 16.9674 84.3029 16.1893 84.3016 15.3776V11.4607H42.9018V15.3776C42.9018 16.1897 42.5792 16.9685 42.005 17.5428C41.4308 18.117 40.6519 18.4396 39.8398 18.4396C39.0277 18.4396 38.2489 18.117 37.6747 17.5428C37.1004 16.9685 36.7778 16.1897 36.7778 15.3776V12.2625H37.7438V15.3776C37.7438 15.9335 37.9646 16.4666 38.3577 16.8597C38.7508 17.2528 39.2839 17.4737 39.8398 17.4737C40.3957 17.4737 40.9289 17.2528 41.322 16.8597C41.7151 16.4666 41.9359 15.9335 41.9359 15.3776V10.4948H85.2676V15.3776C85.2676 15.9335 85.4884 16.4666 85.8815 16.8597C86.2746 17.2528 86.8077 17.4737 87.3636 17.4737C87.9196 17.4737 88.4527 17.2528 88.8458 16.8597C89.2389 16.4666 89.4597 15.9335 89.4597 15.3776V12.2625H90.4256V15.3776C90.4256 16.1897 90.103 16.9685 89.5288 17.5428C88.9546 18.117 88.1757 18.4396 87.3636 18.4396Z" fill="#DBDBDB"/>
<path d="M66.8136 10.9778C66.8145 11.6133 66.627 12.2347 66.2747 12.7635C65.9223 13.2923 65.4211 13.7047 64.8343 13.9485C64.2475 14.1923 63.6016 14.2566 62.9782 14.1333C62.3549 14.0099 61.7822 13.7044 61.3325 13.2554C60.8829 12.8064 60.5765 12.2342 60.4522 11.611C60.3279 10.9879 60.3912 10.3419 60.6342 9.75471C60.8771 9.16756 61.2887 8.66567 61.817 8.31255C62.3453 7.95943 62.9664 7.77094 63.6018 7.77094C64.0234 7.7703 64.4409 7.85278 64.8306 8.01366C65.2202 8.17454 65.5743 8.41066 65.8726 8.70851C66.1709 9.00636 66.4075 9.3601 66.569 9.74949C66.7305 10.1389 66.8136 10.5563 66.8136 10.9778Z" fill="#C7C7C7"/>
<path opacity="0.7" d="M31.2527 19.8789V43.9402C31.2527 44.152 31.2944 44.3618 31.3755 44.5575C31.4565 44.7532 31.5754 44.9311 31.7252 45.0808C31.8749 45.2306 32.0528 45.3495 32.2485 45.4305C32.4442 45.5116 32.654 45.5533 32.8658 45.5533H47.5383C47.7499 45.5533 47.9594 45.5115 48.1549 45.4304C48.3503 45.3493 48.5278 45.2304 48.6772 45.0806C48.8266 44.9307 48.945 44.7528 49.0255 44.5571C49.1061 44.3615 49.1472 44.1518 49.1466 43.9402V19.8789C49.1466 19.6677 49.105 19.4585 49.0241 19.2634C48.9433 19.0683 48.8248 18.891 48.6755 18.7416C48.5262 18.5923 48.3489 18.4738 48.1537 18.393C47.9586 18.3122 47.7495 18.2706 47.5383 18.2706H41.7427C41.7206 17.8763 41.5484 17.5054 41.2615 17.234C40.9745 16.9627 40.5946 16.8115 40.1996 16.8115C39.8047 16.8115 39.4247 16.9627 39.1378 17.234C38.8508 17.5054 38.6786 17.8763 38.6565 18.2706H32.861C32.4348 18.2719 32.0265 18.4417 31.7251 18.7431C31.4238 19.0444 31.254 19.4527 31.2527 19.8789Z" fill="#DBDBDB"/>
<path d="M33.0493 28.1956H47.3451V42.728C47.3451 42.947 47.2581 43.1571 47.1032 43.312C46.9483 43.4668 46.7383 43.5539 46.5192 43.5539H33.8897C33.6706 43.5539 33.4606 43.4668 33.3057 43.312C33.1508 43.1571 33.0638 42.947 33.0638 42.728V28.1956H33.0493Z" fill="#FFC727"/>
<path opacity="0.5" d="M33.0493 28.1956H47.3451V42.728C47.3451 42.947 47.2581 43.1571 47.1032 43.312C46.9483 43.4668 46.7383 43.5539 46.5192 43.5539H33.8897C33.6706 43.5539 33.4606 43.4668 33.3057 43.312C33.1508 43.1571 33.0638 42.947 33.0638 42.728V28.1956H33.0493Z" fill="white"/>
<path d="M41.0569 45.5533H39.3521V48.4656H41.0569V45.5533Z" fill="#DBDBDB"/>
<path d="M40.8541 18.2706C40.8541 18.3995 40.8158 18.5256 40.7442 18.6328C40.6725 18.74 40.5707 18.8236 40.4516 18.873C40.3324 18.9223 40.2013 18.9352 40.0749 18.9101C39.9484 18.8849 39.8322 18.8228 39.741 18.7316C39.6498 18.6404 39.5877 18.5243 39.5626 18.3978C39.5374 18.2713 39.5503 18.1402 39.5997 18.0211C39.649 17.9019 39.7326 17.8001 39.8398 17.7285C39.947 17.6568 40.0731 17.6186 40.202 17.6186C40.375 17.6186 40.5408 17.6873 40.6631 17.8096C40.7854 17.9318 40.8541 18.0977 40.8541 18.2706Z" fill="white"/>
<path d="M40.7141 25.7469H39.6902V30.6442H40.7141V25.7469Z" fill="white"/>
<path d="M37.7534 27.6836V28.7075H42.6507V27.6836H37.7534Z" fill="white"/>
<path d="M33.8946 20.2073L43.124 20.1783H45.4278H46.5724C46.7757 20.1953 46.9666 20.2828 47.1121 20.4256C47.2576 20.5685 47.3486 20.7578 47.3693 20.9607C47.3693 23.8585 47.408 31.7888 47.4176 34.8073V39.4245V41.7282C47.4176 42.1242 47.4176 42.4816 47.4176 42.9018C47.3757 43.1185 47.2609 43.3144 47.0921 43.4568C46.9234 43.5991 46.711 43.6794 46.4903 43.6842C43.9596 43.6842 36.1983 43.6552 33.7932 43.6407C33.5818 43.6206 33.3839 43.5277 33.2333 43.378C33.0827 43.2283 32.9887 43.031 32.9673 42.8197V38.1977C32.9673 35.1406 33.0011 27.3117 33.0108 24.3559L33.0494 22.0618C33.0494 21.3471 32.8755 20.2556 33.8897 20.2266L33.8946 20.2073ZM33.8946 20.2073C32.8852 20.2507 33.0784 21.3277 33.0735 22.0425V24.3463C33.0735 27.2441 33.1122 35.1647 33.1218 38.1881V42.7956C33.1401 42.9702 33.2185 43.1332 33.3436 43.2565C33.4687 43.3798 33.6327 43.4559 33.8076 43.4717L46.4903 43.4331C47.3935 43.3993 47.1858 42.3705 47.2051 41.7185V39.4148V34.7977C47.2051 31.755 47.2389 23.9068 47.2437 20.9607C47.2282 20.784 47.1534 20.6178 47.0316 20.489C46.9097 20.3601 46.7479 20.2762 46.5724 20.2507H45.423H43.1192L33.8897 20.2218L33.8946 20.2073Z" fill="#C7C7C7"/>
<path d="M34.1747 29.5768C34.0105 27.162 33.9815 24.7133 34.0057 22.2792C33.972 22.1326 33.9753 21.98 34.0152 21.8351C34.0551 21.6901 34.1304 21.5573 34.2343 21.4486C34.3382 21.34 34.4675 21.2588 34.6105 21.2124C34.7535 21.166 34.9058 21.1559 35.0537 21.1829H35.4401C36.464 21.2118 37.4879 21.2456 38.5117 21.3229C37.3575 21.4098 36.2032 21.4388 35.0537 21.4726C34.9782 21.4548 34.8999 21.4522 34.8234 21.465C34.7469 21.4778 34.6736 21.5056 34.608 21.547C34.5424 21.5884 34.4856 21.6424 34.4411 21.7059C34.3966 21.7694 34.3651 21.8412 34.3486 21.917C34.3486 24.4574 34.3486 27.0267 34.1747 29.5671V29.5768Z" fill="white"/>
<path d="M54.0776 94.555H53.8747C49.6246 94.497 45.3552 92.4444 43.2495 89.4549C39.9363 84.7363 39.9846 73.942 40.0088 68.1368C40.0088 67.6876 40.0088 67.2723 40.0088 66.8955V48.4656H40.371V66.8955C40.371 67.2723 40.371 67.6924 40.371 68.1416C40.3469 73.8985 40.2986 84.6252 43.5441 89.2472C45.5774 92.145 49.7309 94.1348 53.8699 94.1928C57.5453 94.2507 60.6314 92.8308 62.5874 90.2083C67.3253 83.8476 82.4615 79.9066 92.0483 82.534L91.9566 82.8817C82.4953 80.2833 67.5571 84.1616 62.8917 90.4208C60.897 93.0916 57.7723 94.555 54.0776 94.555Z" fill="#263238"/>
<path d="M59.3564 61.6409V69.1317H73.8937V53.4498H63.3651L59.3564 61.6409Z" fill="#C7C7C7"/>
<path d="M51.5615 64.075V69.1317H66.0988V64.075L70.1026 53.4498H55.5653L51.5615 64.075Z" fill="#DBDBDB"/>
<path d="M51.5565 69.1365H66.0938V64.0798H51.5565V69.1365Z" fill="#A6A6A6"/>
<path d="M63.4084 61.3849H65.5335L65.9971 60.1727H63.8769L63.4084 61.3849Z" fill="#C7C7C7"/>
<path d="M63.1624 61.3849H65.2874L65.751 60.1727H63.6308L63.1624 61.3849Z" fill="#EBEBEB"/>
<path d="M60.3611 61.3849H62.4813L62.9449 60.1727H60.8247L60.3611 61.3849Z" fill="#C7C7C7"/>
<path d="M60.1147 61.3849H62.235L62.6986 60.1727H60.5784L60.1147 61.3849Z" fill="#EBEBEB"/>
<path d="M57.3086 61.3849H59.4288L59.8973 60.1727H57.7722L57.3086 61.3849Z" fill="#C7C7C7"/>
<path d="M57.0625 61.3849H59.1827L59.6464 60.1727H57.5261L57.0625 61.3849Z" fill="#EBEBEB"/>
<path d="M54.2612 61.3849H56.3814L56.8451 60.1727H54.7249L54.2612 61.3849Z" fill="#C7C7C7"/>
<path d="M54.0149 61.3849H56.1351L56.5988 60.1727H54.4785L54.0149 61.3849Z" fill="#EBEBEB"/>
<path d="M56.6663 63.2492H58.7865L59.255 62.0369H57.1347L56.6663 63.2492Z" fill="#FFC727"/>
<path opacity="0.1" d="M56.6663 63.2492H58.7865L59.255 62.0369H57.1347L56.6663 63.2492Z" fill="black"/>
<path d="M56.4202 63.2492H58.5404L59.0089 62.0369H56.8838L56.4202 63.2492Z" fill="#FFC727"/>
<path d="M53.6189 63.2492H55.7391L56.2028 62.0369H54.0825L53.6189 63.2492Z" fill="#37474F"/>
<path d="M53.3726 63.2492H55.4928L55.9564 62.0369H53.8362L53.3726 63.2492Z" fill="#455A64"/>
<path d="M54.6912 59.569H66.2437L68.0838 54.749H56.5361L54.6912 59.569Z" fill="#A6A6A6"/>
<path d="M142.146 137.602H165.406L178.721 71.2278L157.423 61.4429L142.146 137.602Z" fill="#37474F"/>
<path d="M79.3562 137.602H142.147L157.423 61.4429H94.6324L79.3562 137.602Z" fill="#455A64"/>
<path d="M62.2446 180.083H71.986L86.4992 101.993H62.2446V180.083Z" fill="#37474F"/>
<path d="M42.6556 180.083H62.2446L62.2446 101.988H42.6556L42.6556 180.083Z" fill="#455A64"/>
<path d="M62.2448 180.088H134.501V137.606H62.2448V180.088Z" fill="#455A64"/>
<path d="M62.2448 137.756H134.501V121.374H62.2448V137.756Z" fill="#455A64"/>
<path d="M62.2447 101.993C62.0902 107.721 62.0226 113.449 61.9598 119.177L61.8777 136.361L61.9598 158.49L62.0612 167.082L62.2447 175.674L62.4234 167.082L62.5297 158.49L62.6118 136.361L62.5104 119.177C62.4669 113.449 62.3945 107.721 62.2447 101.993Z" fill="#263238"/>
<path d="M62.2446 137.602C68.5811 137.756 74.9176 137.829 81.2542 137.887L100.268 137.974L115.487 137.887L124.992 137.785L134.501 137.602L124.992 137.423L115.487 137.322L100.268 137.235L81.2542 137.322C74.9176 137.38 68.5811 137.452 62.2446 137.602Z" fill="#263238"/>
<path d="M62.2446 121.374C68.5811 121.529 74.9176 121.601 81.2542 121.659L100.268 121.746L115.487 121.659L124.992 121.558L134.501 121.374L124.992 121.195L115.487 121.07L100.268 120.988L81.2542 121.075C74.9176 121.152 68.5811 121.224 62.2446 121.374Z" fill="#263238"/>
<path d="M176.191 180.083L176.674 186.009L177.799 199.706H182.962L184.087 186.009L184.57 180.083H176.191Z" fill="#C7C7C7"/>
<path d="M184.57 180.083H176.191L176.674 186.009H184.087L184.57 180.083Z" fill="#A6A6A6"/>
<path d="M140.104 180.083L140.586 186.009L141.712 199.706H146.875L148 186.009L148.483 180.083H140.104Z" fill="#C7C7C7"/>
<path d="M148.483 180.083H140.104L140.586 186.009H148L148.483 180.083Z" fill="#A6A6A6"/>
<path d="M84.0408 180.083L84.5237 186.009L85.649 199.706H90.8119L91.9373 186.009L92.4202 180.083H84.0408Z" fill="#C7C7C7"/>
<path d="M92.4202 180.083H84.0408L84.5237 186.009H91.9373L92.4202 180.083Z" fill="#A6A6A6"/>
<path d="M47.9441 180.083L48.4271 186.009L49.5524 199.706H54.7153L55.8406 186.009L56.3235 180.083H47.9441Z" fill="#C7C7C7"/>
<path d="M47.9441 180.083L48.4271 186.009H55.8406L56.3235 180.083H47.9441Z" fill="#A6A6A6"/>
<path d="M116.342 61.4091C114.173 74.5892 109.295 92.6328 105.673 94.5357C101.123 96.9263 94.5647 82.1959 95.2215 81.7757C95.7045 81.4618 104.335 67.0597 110 59.9263C115.902 52.4887 116.878 58.149 116.342 61.4091Z" fill="#F7A9A0"/>
<path d="M106.412 93.2703C105.113 96.738 100.5 97.9068 84.4031 100.36C82.1766 100.698 75.5503 85.6201 77.912 85.1372C80.8823 84.5286 93.309 82.2394 94.1783 82.2394C101.51 82.0848 107.387 90.643 106.412 93.2703Z" fill="#F7A9A0"/>
<path d="M94.1782 82.2394C97.559 81.8626 100.887 83.6013 102.988 86.1852C100.428 84.1229 97.4962 82.5485 94.1782 82.2394Z" fill="#263238"/>
<path d="M86.8711 99.8773C86.6199 100.041 83.0073 102.321 80.7036 103.234C78.9939 103.91 74.0242 105.731 73.0921 103.925C72.4545 102.693 75.2509 101.278 77.2069 100.235C78.2356 99.6841 79.4479 98.4332 79.0663 97.7764C78.3999 96.6221 75.7532 98.1 74.0387 99.3267C70.7207 101.708 66.3982 105.832 64.0799 104.258C63.2058 103.659 64.0268 102.326 65.2922 101.007C63.1913 102.625 60.9165 104.002 59.9168 103.379C59.3469 103.026 59.2648 102.471 59.5014 101.804C59.2333 101.964 58.9234 102.04 58.6117 102.022C58.3 102.004 58.0009 101.893 57.7531 101.703C56.9514 101.012 57.1977 99.858 57.8835 98.6264C57.7451 98.6265 57.6087 98.5932 57.4859 98.5293C57.3632 98.4654 57.2577 98.3728 57.1784 98.2593C55.4155 96.0619 62.491 88.6 65.07 87.6969C72.7298 85.0792 81.0079 84.6349 81.0079 84.6349C84.3355 86.7793 86.8807 99.8724 86.8711 99.8773Z" fill="#F7A9A0"/>
<path d="M74.6568 93.7726C72.8196 94.2444 71.104 95.1022 69.6243 96.2888C67.76 97.7908 66.5912 99.4523 65.0747 101.157C65.0313 101.201 65.1037 101.268 65.1423 101.22C65.8668 100.409 68.8902 97.332 69.6822 96.6221C71.1076 95.3163 72.8124 94.3533 74.6664 93.8064C74.6664 93.8064 74.6761 93.7677 74.6568 93.7726Z" fill="#263238"/>
<path d="M72.8747 90.5899C70.8285 91.2828 68.8589 92.1843 66.997 93.28C65.0072 94.5502 63.539 96.4434 62.0901 98.269C61.2207 99.3702 60.3707 100.486 59.5545 101.621C59.5159 101.669 59.5835 101.732 59.6221 101.684C61.0903 99.8 62.6133 97.9599 64.191 96.1633C65.6458 94.4905 67.4168 93.1217 69.4022 92.1353C70.5371 91.5703 71.7107 91.097 72.8892 90.6237C72.9085 90.614 72.8988 90.5802 72.8747 90.5899Z" fill="#263238"/>
<path d="M70.3971 87.8949C68.4363 88.4938 66.7217 89.0154 65.0555 90.2566C62.8435 91.9035 60.8102 94.5115 60.0954 95.4388C59.3082 96.4579 58.5548 97.5059 57.8207 98.5636C57.7917 98.6071 57.8641 98.6602 57.8931 98.6167C59.5894 96.2892 61.435 94.0741 63.4183 91.9856C64.3487 90.9766 65.4286 90.1165 66.6203 89.4356C67.8351 88.8189 69.1002 88.3067 70.4019 87.9046C70.4019 87.9046 70.4068 87.8901 70.3971 87.8949Z" fill="#263238"/>
<path d="M90.8264 83.2391L93.1881 82.7561C94.3919 82.9792 95.5699 83.3239 96.7041 83.7848C97.5534 84.2434 98.31 84.8559 98.9354 85.5911L97.0518 86.2914C96.0755 85.5939 95.0452 84.9753 93.9705 84.4417C93.0481 84.0891 90.8264 83.2391 90.8264 83.2391Z" fill="white"/>
<path d="M113.821 80.3123L102.862 68.301C102.862 68.301 107.407 61.5105 110.454 58.1056C114.487 53.6043 117.1 54.0438 117.018 61.4525C116.96 66.4077 113.821 80.3123 113.821 80.3123Z" fill="#FFC727"/>
<path d="M113.85 78.0521C112.377 76.1975 110.879 74.3622 109.295 72.5945C108.51 71.7123 107.705 70.8414 106.88 69.9817C106.064 69.1269 105.161 68.3493 104.359 67.4848C104.316 67.4365 104.243 67.4848 104.287 67.5572C105.132 68.3783 105.871 69.3249 106.668 70.1942C107.465 71.0635 108.266 71.9425 109.083 72.8215C110.662 74.5747 112.246 76.3327 113.787 78.1342C113.821 78.1776 113.888 78.0859 113.85 78.0521Z" fill="#263238"/>
<path opacity="0.1" d="M104.407 69.9865L113.82 80.3123C113.82 80.3123 116.96 66.4126 117.013 61.4525C117.061 57.6516 116.39 55.6859 115.192 55.2802L104.407 69.9865Z" fill="black"/>
<path d="M57.0672 199.31C58.4871 199.31 95.9508 186.56 97.0423 185.203C97.1775 185.048 96.0763 181.638 94.5405 176.992L94.5067 176.901C93.5408 173.955 84.8232 151.139 84.8232 151.139L60.9503 158.944L69.3007 181.46C69.3007 181.46 64.954 185.275 61.24 188.859C58.9508 191.061 56.9851 193.032 56.5842 193.645C55.541 195.277 55.6521 199.31 57.0672 199.31Z" fill="#F7A9A0"/>
<path opacity="0.1" d="M84.8232 151.149L79.7618 191.877C69.3056 195.533 57.84 199.32 57.0624 199.32C55.6425 199.32 55.541 195.273 56.5794 193.674C56.9755 193.056 58.946 191.085 61.2352 188.883C64.9396 185.299 69.2959 181.484 69.2959 181.484L60.9503 158.968L84.8232 151.149Z" fill="black"/>
<path d="M79.5927 186.937C79.5927 186.937 74.3767 182.991 71.2471 182.74C69.3019 182.595 67.3609 183.07 65.7026 184.097C65.1714 184.333 56.7726 192.182 55.8743 193.891C54.976 195.601 55.3527 199.378 56.5746 199.711C57.7965 200.044 96.9795 186.256 97.3755 185.879C97.7715 185.502 96.8056 181.508 96.4627 181.315C96.1198 181.122 79.5927 186.937 79.5927 186.937Z" fill="#FFC727"/>
<path d="M101.046 87.2091L97.3949 97.9454C97.3949 97.9454 62.8146 101.558 55.0388 110.266C53.4305 112.063 52.5757 114.719 52.0589 117.916C49.6441 132.811 66.3354 177.099 66.3354 177.099L92.5942 168.323C92.5942 168.323 78.7911 130.348 80.0661 127.691C81.3798 124.953 119.186 122.606 127.208 116.366C135.23 110.126 129.667 87.2091 129.667 87.2091H101.046Z" fill="#FFC727"/>
<path opacity="0.1" d="M113.062 99.2735C112.495 99.0486 111.898 98.9071 111.29 98.8533C111.783 99.2226 112.328 99.5171 112.908 99.7275C113.48 99.9614 114.084 100.108 114.699 100.162C114.198 99.7913 113.647 99.4922 113.062 99.2735ZM69.3249 103.243L68.8806 103.379C69.101 103.854 69.3836 104.297 69.7209 104.697C69.6507 104.198 69.5177 103.709 69.3249 103.243ZM99.2687 101.152C98.7015 101.397 98.1728 101.722 97.6991 102.118C98.3084 102.026 98.9018 101.849 99.4619 101.592C100.032 101.348 100.564 101.022 101.041 100.626C100.434 100.714 99.8433 100.891 99.2881 101.152H99.2687ZM112.309 113.386C112.073 113.957 111.927 114.561 111.879 115.178C112.241 114.68 112.535 114.135 112.753 113.56C112.978 112.983 113.123 112.379 113.183 111.763C112.816 112.26 112.522 112.806 112.309 113.386ZM120.229 93.4924C119.994 94.0656 119.847 94.6715 119.795 95.2891C120.521 94.2862 120.972 93.1106 121.104 91.8793C120.735 92.3716 120.441 92.915 120.229 93.4924ZM92.0436 109.962C91.8098 110.534 91.6602 111.138 91.5993 111.753C91.9723 111.26 92.2716 110.715 92.4879 110.135C92.7142 109.561 92.8573 108.958 92.9129 108.344C92.547 108.838 92.2542 109.383 92.0436 109.962ZM107.016 122.181C106.445 121.946 105.843 121.798 105.229 121.741C105.601 122.023 106.007 122.258 106.436 122.441C106.726 122.393 107.011 122.345 107.296 122.287L107.016 122.181ZM105.721 106.914C105.148 106.683 104.544 106.537 103.929 106.479C104.932 107.212 106.11 107.667 107.344 107.798C106.841 107.428 106.286 107.133 105.697 106.924L105.721 106.914ZM76.8736 109.812C76.3005 109.58 75.6971 109.432 75.0818 109.372C75.5766 109.747 76.1254 110.045 76.7094 110.256C77.2828 110.485 77.8864 110.63 78.5012 110.686C77.9924 110.329 77.4365 110.045 76.8495 109.841L76.8736 109.812ZM84.7943 103.809C84.5493 103.24 84.224 102.71 83.8283 102.234C83.9163 102.847 84.0953 103.442 84.3596 104.002C84.6047 104.572 84.9299 105.103 85.3255 105.581C85.2257 104.976 85.0386 104.389 84.7701 103.838L84.7943 103.809ZM91.1308 122.282C90.8842 121.716 90.559 121.188 90.1648 120.712C90.2603 121.322 90.439 121.915 90.6961 122.475C90.9363 123.045 91.2621 123.574 91.662 124.045C91.5559 123.444 91.3691 122.861 91.1066 122.311L91.1308 122.282ZM127.281 101.268C127.034 100.702 126.709 100.174 126.315 99.6985C126.407 100.309 126.584 100.904 126.841 101.466C127.086 102.033 127.411 102.562 127.807 103.036C127.717 102.424 127.54 101.829 127.281 101.268ZM106.513 93.2268C106.265 92.6629 105.94 92.1363 105.547 91.662C105.643 92.2711 105.822 92.8642 106.079 93.4248C106.32 93.9937 106.645 94.5229 107.044 94.9944C106.951 94.3844 106.776 93.7898 106.523 93.2268H106.513ZM99.631 115.704C99.0634 115.948 98.5346 116.273 98.0613 116.67C98.6724 116.576 99.2674 116.397 99.829 116.139C100.4 115.897 100.932 115.571 101.408 115.173C100.798 115.268 100.203 115.447 99.6406 115.704H99.631ZM119.123 106.933C118.557 107.182 118.027 107.507 117.549 107.899C118.159 107.816 118.753 107.642 119.312 107.383C119.883 107.139 120.415 106.814 120.891 106.417C120.282 106.499 119.69 106.673 119.133 106.933H119.123ZM82.8238 116.013C82.2572 116.262 81.7275 116.587 81.2493 116.979C81.8616 116.893 82.4576 116.716 83.017 116.453C83.5882 116.21 84.1204 115.885 84.5963 115.487C83.9869 115.579 83.3936 115.756 82.8334 116.013H82.8238ZM127.628 112.951C127.396 113.522 127.25 114.124 127.194 114.738C127.567 114.244 127.863 113.697 128.073 113.115C128.301 112.543 128.445 111.941 128.503 111.328C128.141 111.827 127.85 112.373 127.638 112.951H127.628ZM59.3227 120.654C59.0955 121.229 58.9492 121.832 58.888 122.446C59.2562 121.95 59.5521 121.403 59.767 120.823C59.9993 120.251 60.1457 119.647 60.2017 119.032C59.8353 119.529 59.5395 120.076 59.3227 120.654ZM52.4163 116.076C52.3778 116.209 52.3471 116.345 52.3245 116.482C52.6887 116.595 53.0646 116.666 53.445 116.694C53.126 116.451 52.781 116.243 52.4163 116.076ZM56.4732 108.938C56.3641 109.019 56.2593 109.106 56.1593 109.198C56.3247 109.49 56.5154 109.766 56.7291 110.024C56.6839 109.654 56.5981 109.289 56.4732 108.938ZM63.6162 111.15C63.0499 111.398 62.5202 111.723 62.0418 112.116C62.6517 112.029 63.2456 111.853 63.8046 111.594C64.3749 111.35 64.9069 111.025 65.3839 110.628C64.7727 110.716 64.1774 110.892 63.6162 111.15ZM52.991 126.807C52.7447 126.923 52.508 127.044 52.2617 127.184C52.2617 127.315 52.2907 127.44 52.31 127.575C52.6095 127.484 52.903 127.374 53.189 127.247C53.7572 126.999 54.2887 126.674 54.7683 126.281C54.1488 126.369 53.5454 126.547 52.9765 126.807H52.991ZM69.7547 116.583C69.5113 116.017 69.1858 115.49 68.7888 115.018C68.8833 115.628 69.0621 116.221 69.3201 116.781C69.5644 117.351 69.8897 117.883 70.286 118.36C70.1923 117.746 70.0135 117.148 69.7547 116.583ZM66.0987 160.224C65.8651 160.796 65.7202 161.4 65.6688 162.016C66.3921 161.011 66.843 159.836 66.9777 158.606C66.6122 159.102 66.318 159.646 66.1035 160.224H66.0987ZM90.3725 162.122C90.1842 162.035 89.9862 161.953 89.793 161.876C89.218 161.644 88.613 161.496 87.9963 161.436C88.4947 161.806 89.0426 162.103 89.6239 162.32C89.9234 162.431 90.2276 162.528 90.5416 162.61C90.4836 162.431 90.4305 162.267 90.3725 162.122ZM74.2415 163.923C73.6694 163.695 73.0676 163.551 72.4545 163.493C72.9487 163.864 73.4936 164.162 74.0724 164.377C74.6465 164.604 75.2497 164.749 75.8642 164.807C75.3701 164.429 74.8235 164.124 74.2415 163.904V163.923ZM82.9349 157.881C82.7054 158.455 82.559 159.058 82.5002 159.673C82.8684 159.177 83.1643 158.63 83.3792 158.05C83.6103 157.477 83.7568 156.874 83.8139 156.259C83.4429 156.748 83.1437 157.288 82.9252 157.862L82.9349 157.881ZM73.4977 173.182C73.2812 173.724 73.1367 174.292 73.0679 174.872C73.0679 174.911 73.0679 174.94 73.0679 174.974L73.1645 174.843C73.4906 174.382 73.7553 173.88 73.9517 173.351C74.1829 172.779 74.3293 172.177 74.3864 171.564C74.0103 172.05 73.7076 172.588 73.488 173.162L73.4977 173.182ZM75.0335 154.829C74.4674 155.072 73.9401 155.398 73.4687 155.795C74.079 155.707 74.673 155.53 75.2316 155.269C75.802 155.025 76.334 154.699 76.8109 154.303C76.1939 154.39 75.5923 154.564 75.0239 154.819L75.0335 154.829ZM82.3939 168.313C81.8269 168.555 81.2994 168.881 80.8291 169.279C81.4393 169.189 82.0331 169.01 82.592 168.748C83.1632 168.506 83.6954 168.18 84.1713 167.782C83.5547 167.874 82.9536 168.05 82.3843 168.304L82.3939 168.313ZM72.8361 145.769C72.6015 146.34 72.4565 146.945 72.4062 147.56C72.7726 147.063 73.0684 146.516 73.2852 145.938C73.5096 145.363 73.6558 144.76 73.7199 144.146C73.3467 144.638 73.0458 145.181 72.8264 145.759L72.8361 145.769ZM65.1569 127.619C64.5826 127.386 63.9774 127.237 63.3603 127.179C63.8586 127.549 64.4065 127.846 64.9879 128.063C65.5618 128.29 66.1651 128.435 66.7797 128.493C66.2809 128.121 65.7311 127.824 65.1472 127.609L65.1569 127.619ZM80.8629 139.065C80.2883 138.834 79.6831 138.687 79.0663 138.63C79.5623 139.001 80.1088 139.298 80.6891 139.514C81.2648 139.741 81.8696 139.886 82.4857 139.944C81.9884 139.577 81.4422 139.281 80.8629 139.065ZM57.9994 135.786C57.7729 136.362 57.6266 136.966 57.5647 137.582C57.9362 137.085 58.2339 136.537 58.4485 135.955C58.678 135.38 58.8243 134.775 58.8832 134.158C58.5161 134.657 58.2203 135.205 58.0042 135.786H57.9994ZM75.0335 124.451C74.4665 124.698 73.9366 125.023 73.4591 125.416C74.0708 125.333 74.6666 125.159 75.2267 124.9C75.7969 124.655 76.3289 124.33 76.806 123.934C76.1922 124.014 75.5943 124.188 75.0335 124.451ZM65.4998 151.603C64.9272 151.37 64.3235 151.221 63.708 151.163C64.2034 151.535 64.75 151.832 65.3308 152.047C65.9045 152.275 66.5079 152.42 67.1226 152.477C66.6277 152.103 66.0811 151.804 65.4998 151.588V151.603ZM71.8701 134.641C71.6289 134.069 71.3033 133.537 70.9042 133.062C70.9951 133.674 71.174 134.269 71.4354 134.829C71.6765 135.4 72.0021 135.931 72.4014 136.404C72.312 135.789 72.133 135.19 71.8701 134.627V134.641ZM66.9101 169.786C66.6668 169.217 66.3413 168.687 65.9441 168.212C66.1407 169.438 66.6534 170.592 67.4317 171.559C67.3422 170.942 67.1667 170.34 66.9101 169.772V169.786ZM83.3309 147.855C83.0887 147.284 82.7632 146.752 82.365 146.276C82.461 146.886 82.638 147.48 82.8914 148.043C83.1377 148.611 83.4629 149.141 83.8573 149.618C83.7672 149.003 83.5883 148.404 83.3261 147.841L83.3309 147.855ZM58.038 147.469C57.7943 146.898 57.4689 146.366 57.0721 145.889C57.1658 146.501 57.3412 147.097 57.5937 147.662C57.8409 148.229 58.166 148.759 58.5596 149.236C58.471 148.62 58.2937 148.02 58.0332 147.454L58.038 147.469ZM64.9251 141.992C64.3547 142.236 63.8228 142.561 63.3458 142.958C63.96 142.869 64.5585 142.694 65.1231 142.436C65.6884 142.191 66.2154 141.866 66.6879 141.47C66.0792 141.563 65.486 141.738 64.9251 141.992Z" fill="black"/>
<path opacity="0.1" d="M127.228 116.366C119.186 122.606 81.4038 124.953 80.0901 127.691C78.8151 130.348 92.6182 168.323 92.6182 168.323L66.3353 177.094C66.3353 177.094 49.6488 132.806 52.0588 117.906C52.1506 117.336 52.2568 116.776 52.3727 116.24L125.861 87.2042H129.667C129.667 87.2042 135.25 110.131 127.228 116.366Z" fill="black"/>
<path d="M94.4004 170.173L66.3305 179.422L64.4565 174.095L92.6231 164.788L94.4004 170.173Z" fill="#FFC727"/>
<path opacity="0.2" d="M94.4004 170.173L66.3305 179.422L64.4565 174.095L92.6231 164.788L94.4004 170.173Z" fill="black"/>
<path d="M35.2421 199.499C36.5895 199.948 76.1637 199.697 77.6271 198.75C77.801 198.649 77.8541 195.07 77.8445 190.172V190.076C77.8445 186.97 82.4857 160.446 82.4857 160.446L57.3715 160.311L52.4888 186.429C52.4888 186.429 47.152 188.675 42.501 190.902C39.6322 192.264 37.1401 193.515 36.5702 193.969C35.073 195.181 33.8946 199.059 35.2421 199.499Z" fill="#F7A9A0"/>
<path d="M60.5253 194.872C60.5253 194.872 56.8258 189.482 53.9376 188.255C52.1418 187.489 50.1476 187.32 48.2483 187.772C47.6687 187.83 37.2174 192.602 35.8216 193.954C34.4258 195.306 33.5951 198.996 34.6528 199.697C35.7105 200.397 77.2359 199.697 77.7285 199.47C78.2211 199.243 78.5737 195.123 78.3081 194.852C78.0424 194.582 60.5253 194.872 60.5253 194.872Z" fill="#FFC727"/>
<path d="M53.0779 178.48L79.9984 178.538C79.9984 178.538 89.8412 133.076 92.937 131.647C98.1675 129.232 120.437 125.32 132.188 116.834C141.726 109.942 133.839 87.2091 133.839 87.2091H108.59C108.59 87.2091 105.132 95.2215 104.552 97.646C104.552 97.646 77.7671 104.321 69.3345 113.584C61.3366 122.364 53.0779 178.48 53.0779 178.48Z" fill="#FFC727"/>
<path d="M53.0779 178.48L79.9984 178.538C79.9984 178.538 89.8412 133.076 92.937 131.647C98.1675 129.232 120.437 125.32 132.188 116.834C141.726 109.942 133.839 87.2091 133.839 87.2091H108.59C108.59 87.2091 105.132 95.2215 104.552 97.646C104.552 97.646 77.7671 104.321 69.3345 113.584C61.3366 122.364 53.0779 178.48 53.0779 178.48Z" fill="#FFC727"/>
<path opacity="0.1" d="M113.062 99.2735C112.495 99.0486 111.898 98.9071 111.29 98.8534C111.783 99.2226 112.328 99.5171 112.908 99.7275C113.48 99.9614 114.084 100.108 114.699 100.162C114.198 99.7913 113.647 99.4922 113.062 99.2735ZM99.288 101.152C98.7208 101.397 98.192 101.722 97.7183 102.118C98.3276 102.026 98.921 101.849 99.4812 101.592C100.051 101.348 100.583 101.022 101.06 100.626C100.447 100.712 99.8493 100.89 99.288 101.152ZM112.328 113.386C112.092 113.957 111.947 114.561 111.898 115.178C112.26 114.68 112.554 114.135 112.772 113.56C112.997 112.983 113.142 112.379 113.202 111.763C112.829 112.259 112.528 112.805 112.309 113.386H112.328ZM120.249 93.4924C120.013 94.0657 119.866 94.6715 119.814 95.2891C120.54 94.2862 120.992 93.1107 121.123 91.8793C120.748 92.3704 120.447 92.9139 120.229 93.4924H120.249ZM92.0435 109.962C91.8097 110.534 91.6601 111.138 91.5992 111.753C91.9722 111.26 92.2715 110.715 92.4878 110.135C92.7141 109.561 92.8572 108.958 92.9128 108.344C92.5469 108.838 92.2541 109.383 92.0435 109.962ZM107.015 122.181C106.445 121.946 105.843 121.798 105.228 121.741C105.726 122.109 106.272 122.406 106.851 122.625C107.425 122.852 108.029 122.996 108.643 123.055C108.14 122.684 107.583 122.392 106.991 122.19L107.015 122.181ZM105.721 106.914C105.148 106.683 104.544 106.537 103.929 106.479C104.932 107.212 106.109 107.667 107.344 107.798C106.84 107.428 106.286 107.133 105.697 106.924L105.721 106.914ZM76.8735 109.812C76.3004 109.58 75.697 109.432 75.0817 109.372C75.5765 109.747 76.1253 110.045 76.7093 110.256C77.2827 110.485 77.8863 110.63 78.5011 110.686C77.9923 110.329 77.4364 110.045 76.8494 109.841L76.8735 109.812ZM84.9101 104.166L84.4947 104.34C84.7089 104.789 84.9782 105.209 85.2965 105.591C85.2301 105.101 85.1003 104.622 84.9101 104.166ZM97.8487 128.314C97.6182 128.888 97.4703 129.491 97.4092 130.106C98.1396 129.103 98.5942 127.925 98.7277 126.691C98.3586 127.188 98.0626 127.734 97.8487 128.314ZM91.0872 122.335C90.8406 121.769 90.5154 121.241 90.1213 120.765C90.2167 121.375 90.3955 121.968 90.6525 122.528C90.8928 123.098 91.2185 123.627 91.6185 124.098C91.5309 123.482 91.3586 122.88 91.1065 122.311L91.0872 122.335ZM127.281 101.268C127.034 100.702 126.709 100.174 126.315 99.6985C126.407 100.309 126.584 100.904 126.841 101.466C127.085 102.033 127.411 102.562 127.807 103.036C127.717 102.424 127.54 101.829 127.281 101.268ZM106.513 93.2268C106.446 93.0771 106.368 92.9322 106.291 92.7873L106.054 93.3814V93.4248C106.295 93.9937 106.621 94.5229 107.02 94.9945C106.935 94.3856 106.767 93.791 106.523 93.2268H106.513ZM99.6309 115.704C99.0633 115.948 98.5345 116.273 98.0612 116.67C98.6723 116.576 99.2673 116.397 99.8289 116.139C100.4 115.897 100.932 115.571 101.408 115.173C100.797 115.268 100.203 115.447 99.6405 115.704H99.6309ZM119.123 106.933C118.557 107.182 118.027 107.507 117.549 107.899C118.159 107.816 118.753 107.642 119.312 107.383C119.883 107.139 120.415 106.814 120.891 106.417C120.282 106.499 119.69 106.673 119.133 106.933H119.123ZM82.8237 116.013C82.2571 116.262 81.7274 116.587 81.2492 116.979C81.8615 116.893 82.4575 116.716 83.0169 116.453C83.5881 116.21 84.1203 115.885 84.5962 115.487C83.9868 115.579 83.3935 115.756 82.8333 116.013H82.8237ZM127.628 112.951C127.396 113.522 127.25 114.124 127.194 114.738C127.566 114.244 127.863 113.697 128.073 113.115C128.301 112.543 128.445 111.941 128.503 111.328C128.141 111.827 127.85 112.373 127.638 112.951H127.628ZM133.038 94.4729C132.464 94.2424 131.861 94.0944 131.246 94.0334C131.74 94.4037 132.285 94.7014 132.864 94.9172C133.439 95.1445 134.044 95.2892 134.66 95.347C134.167 94.9803 133.624 94.686 133.047 94.4729H133.038ZM89.3823 137.162C89.4704 137.721 89.6328 138.265 89.8653 138.78C89.9329 138.561 90.0005 138.349 90.0682 138.143C89.8805 137.791 89.6537 137.462 89.392 137.162H89.3823ZM135.834 105.219C135.265 105.465 134.733 105.79 134.255 106.185C134.868 106.098 135.465 105.922 136.027 105.663C136.322 105.523 136.612 105.378 136.892 105.214C136.892 105.088 136.892 104.963 136.892 104.842C136.533 104.941 136.183 105.067 135.844 105.219H135.834ZM69.7546 116.583C69.5112 116.017 69.1857 115.49 68.7887 115.018C68.8832 115.628 69.062 116.221 69.32 116.781C69.5643 117.351 69.8896 117.883 70.2859 118.36C70.1922 117.746 70.0134 117.148 69.7546 116.583ZM119.693 120.176C119.127 120.425 118.597 120.75 118.119 121.142C119.344 120.947 120.496 120.434 121.461 119.655C120.852 119.746 120.259 119.921 119.698 120.176H119.693ZM66.0841 160.224C65.8505 160.796 65.7056 161.4 65.6543 162.016C66.3775 161.011 66.8284 159.836 66.9631 158.606C66.6027 159.103 66.3134 159.647 66.1034 160.224H66.0841ZM59.1873 165.126C58.6159 164.894 58.014 164.746 57.4004 164.686C57.897 165.056 58.4433 165.353 59.0231 165.57C59.5965 165.799 60.2001 165.944 60.8149 166C60.3247 165.631 59.7828 165.337 59.2067 165.126H59.1873ZM79.9549 177.881L80.0997 177.982V177.895L79.9549 177.881ZM74.2221 163.904C73.65 163.676 73.0482 163.531 72.4351 163.474C72.9293 163.845 73.4742 164.142 74.053 164.358C74.6271 164.585 75.2303 164.729 75.8448 164.788C75.3555 164.418 74.8155 164.12 74.2414 163.904H74.2221ZM82.9154 157.862C82.686 158.436 82.5396 159.039 82.4808 159.654C82.849 159.157 83.1449 158.611 83.3598 158.031C83.5909 157.458 83.7373 156.855 83.7944 156.239C83.4287 156.736 83.1359 157.282 82.9251 157.862H82.9154ZM73.4783 173.162C73.2478 173.736 73.0998 174.339 73.0388 174.954C73.4094 174.458 73.707 173.912 73.9226 173.331C74.1538 172.76 74.3002 172.158 74.3573 171.544C73.9898 172.038 73.6969 172.583 73.488 173.162H73.4783ZM75.0141 154.81C74.4479 155.053 73.9207 155.379 73.4493 155.776C74.0596 155.688 74.6536 155.51 75.2121 155.249C75.7826 155.006 76.3146 154.68 76.7914 154.283C76.1801 154.379 75.5851 154.559 75.0238 154.819L75.0141 154.81ZM80.8097 169.26C81.2675 169.199 81.7156 169.079 82.1427 168.903C82.1813 168.719 82.2248 168.531 82.2731 168.342C81.7444 168.576 81.2542 168.889 80.8194 169.27L80.8097 169.26ZM56.7967 157.582L56.5793 157.683C56.5407 157.867 56.5069 158.046 56.4731 158.224L56.9947 158.017C57.56 157.772 58.087 157.446 58.5595 157.051C57.9526 157.148 57.3624 157.33 56.8063 157.592L56.7967 157.582ZM72.8166 145.749C72.5821 146.321 72.4371 146.925 72.3868 147.541C72.7532 147.043 73.049 146.497 73.2658 145.918C73.4902 145.343 73.6364 144.741 73.7005 144.127C73.3324 144.626 73.038 145.176 72.8263 145.759L72.8166 145.749ZM54.5364 169.27C54.4253 169.898 54.3287 170.501 54.2273 171.071C54.3287 170.873 54.4108 170.67 54.4978 170.467C54.7234 169.893 54.868 169.29 54.9276 168.676C54.785 168.867 54.6575 169.069 54.546 169.279L54.5364 169.27ZM65.1616 127.599C64.6322 127.386 64.0768 127.243 63.5099 127.174C63.5116 127.2 63.5116 127.226 63.5099 127.252C63.9754 127.578 64.48 127.844 65.0119 128.044C65.5858 128.271 66.1891 128.416 66.8037 128.474C66.2964 128.107 65.7383 127.815 65.1471 127.609L65.1616 127.599ZM80.8628 139.065C80.2882 138.834 79.683 138.687 79.0662 138.63C79.5622 139.001 80.1087 139.299 80.689 139.514C81.2647 139.741 81.8695 139.886 82.4856 139.944C81.9883 139.577 81.4421 139.281 80.8628 139.065ZM75.0334 124.451C74.4664 124.698 73.9365 125.023 73.459 125.416C74.0707 125.333 74.6665 125.159 75.2266 124.9C75.7968 124.655 76.3288 124.33 76.8059 123.934C76.1921 124.014 75.5942 124.188 75.0334 124.451ZM83.5385 130.468C83.3106 131.04 83.1658 131.642 83.1086 132.255C83.479 131.761 83.7737 131.214 83.9828 130.632C84.2146 130.061 84.3611 129.459 84.4175 128.846C84.0486 129.337 83.7525 129.878 83.5385 130.454V130.468ZM65.4997 151.603C64.9271 151.37 64.3234 151.222 63.7079 151.163C64.2033 151.535 64.7499 151.833 65.3307 152.047C65.9044 152.275 66.5078 152.42 67.1225 152.477C66.6276 152.103 66.081 151.804 65.4997 151.588V151.603ZM71.87 134.641C71.6288 134.069 71.3032 133.537 70.9041 133.062C70.995 133.674 71.1739 134.269 71.4353 134.829C71.6764 135.4 72.002 135.931 72.4013 136.404C72.3119 135.789 72.1329 135.19 71.87 134.627V134.641ZM66.91 169.786C66.6667 169.217 66.3412 168.687 65.944 168.212C66.1406 169.438 66.6533 170.592 67.4316 171.559C67.3422 170.942 67.1666 170.34 66.91 169.772V169.786ZM83.3308 147.855C83.0886 147.284 82.7631 146.752 82.3649 146.276C82.4609 146.886 82.6379 147.48 82.8913 148.043C83.1376 148.611 83.4628 149.141 83.8572 149.618C83.7671 149.003 83.5882 148.404 83.326 147.841L83.3308 147.855ZM58.3953 148.444C58.3615 148.594 58.3325 148.749 58.3035 148.927C58.3808 149.038 58.4726 149.149 58.5643 149.26C58.5315 148.979 58.4733 148.701 58.3905 148.43L58.3953 148.444ZM64.925 141.992C64.3546 142.236 63.8227 142.561 63.3457 142.958C63.9599 142.869 64.5584 142.694 65.123 142.436C65.6883 142.191 66.2153 141.866 66.6878 141.47C66.0791 141.563 65.4859 141.738 64.925 141.992ZM59.4385 174.273C58.8736 174.522 58.3455 174.847 57.8689 175.239C58.4804 175.156 59.0762 174.981 59.6365 174.722C60.2036 174.475 60.7335 174.15 61.211 173.756C60.5998 173.842 60.0044 174.016 59.4433 174.273H59.4385Z" fill="black"/>
<path d="M80.9113 181.31H51.2476L51.745 175.674H81.4088L80.9113 181.31Z" fill="#FFC727"/>
<path opacity="0.1" d="M80.9113 181.31H51.2476L51.745 175.674H81.4088L80.9113 181.31Z" fill="black"/>
<path d="M101.915 96.2454C104.687 97.2547 107.366 98.5022 109.923 99.9739C109.945 99.9835 109.963 100.002 109.972 100.024C109.981 100.047 109.981 100.072 109.971 100.095C109.962 100.117 109.944 100.135 109.921 100.144C109.898 100.153 109.873 100.153 109.851 100.143C107.151 98.9838 104.403 97.873 101.771 96.569C101.733 96.5463 101.706 96.5109 101.693 96.4694C101.68 96.4278 101.683 96.383 101.7 96.3433C101.718 96.3036 101.75 96.2718 101.789 96.2538C101.829 96.2357 101.874 96.2327 101.915 96.2454Z" fill="#263238"/>
<path d="M102.973 87.354C102.973 87.3105 103.099 87.3105 103.094 87.354C102.993 88.7483 103.001 90.1483 103.118 91.5413C103.157 92.2561 103.813 95.9894 105.325 95.9604C105.625 95.9604 106.021 95.8349 105.808 94.4584C105.68 93.6246 105.595 92.7847 105.552 91.9422C105.467 90.3951 105.612 88.844 105.982 87.3395C105.982 87.2912 106.098 87.3057 106.093 87.3395C105.875 89.4773 105.886 91.6324 106.127 93.7678C106.267 94.811 106.644 96.284 105.354 96.3951C103.644 96.5496 103.002 93.6953 102.872 92.9709C102.532 91.1104 102.566 89.2009 102.973 87.354Z" fill="#263238"/>
<path d="M105.175 96.2212C105.307 96.5852 105.414 96.958 105.494 97.3368C105.588 97.6281 105.616 97.9366 105.576 98.24C105.576 98.2979 105.47 98.2979 105.436 98.24C105.265 97.962 105.145 97.6564 105.079 97.3368C104.968 96.9891 104.847 96.6462 104.746 96.2985C104.683 96.0811 105.088 95.999 105.175 96.2212Z" fill="#263238"/>
<path opacity="0.1" d="M135.535 93.3283L130.739 92.8694L115.284 91.3964L107.175 90.643L100.114 89.9668L101.051 87.2236H133.854C134.517 89.2289 135.077 91.2664 135.535 93.3283Z" fill="black"/>
<path d="M96.3708 96.54L137.249 100.128C137.437 99.7855 135.071 69.9334 123.726 56.0964C121.625 53.5367 115.245 52.9668 112.999 55.7487C107.252 62.8579 96.3708 96.54 96.3708 96.54Z" fill="#FFC727"/>
<path opacity="0.1" d="M122.997 72.2951L115.694 71.4837V69.8561L122.997 70.6723V72.2951Z" fill="black"/>
<path d="M126.745 59.5641C135.438 71.6383 145.044 95.6851 141.929 99.7758C138.462 104.335 124.634 88.9864 124.823 88.1364C124.967 87.494 123.465 73.942 121.128 63.6114C118.79 53.2808 124.581 56.5794 126.745 59.5641Z" fill="#F7A9A0"/>
<path d="M142.103 99.4764C139.611 102.741 133.182 103.118 117.085 105.571C114.859 105.914 108.498 89.7785 110.86 89.2955C113.835 88.6821 125.228 88.0108 126.097 87.9963C133.434 87.8369 143.793 97.2644 142.103 99.4764Z" fill="#F7A9A0"/>
<path d="M115.738 88.8463C115.738 88.8463 109.083 88.8705 104.654 89.2568C102.186 89.4693 97.9841 90.2228 96.2406 91.1887C93.6375 92.6666 83.6835 100.515 85.5333 102.968C87.2092 105.19 94.9028 97.361 94.9028 97.361C94.9028 97.361 86.4413 104.576 88.9479 106.88C91.4545 109.184 98.9791 99.1818 98.9791 99.1818C98.9791 99.1818 90.4499 106.808 93.4201 108.773C95.6611 110.261 102.978 101.587 102.978 101.587C102.978 101.587 95.6949 108.175 97.931 109.797C100.404 111.594 107.663 104.002 107.663 104.002C114.043 107.185 118.385 106.083 121.379 104.939C122.094 104.673 115.738 88.8463 115.738 88.8463Z" fill="#F7A9A0"/>
<path d="M97.6702 94.6999C96.6464 95.5112 95.6032 96.3226 94.6565 97.2258C93.7099 98.1289 92.7875 99.0562 91.9278 100.041C90.7766 101.306 89.7735 102.698 88.9382 104.19C90.6141 101.65 93.9611 98.3945 94.9125 97.4769C95.864 96.5593 96.7574 95.632 97.7089 94.7337C97.7282 94.7095 97.6944 94.6805 97.6702 94.6999Z" fill="#263238"/>
<path d="M100.983 98.0662C99.7179 99.1577 98.4235 100.196 97.2064 101.346C95.9894 102.495 94.951 103.678 93.8257 104.905C93.7387 104.997 93.8257 105.011 93.9078 104.905C95.0862 103.727 96.2647 102.727 97.4528 101.563C98.6409 100.399 99.7903 99.1915 101.017 98.0758L100.983 98.0662Z" fill="#263238"/>
<path d="M104.345 100.447C102.364 102.075 100.558 103.904 98.9547 105.905C98.8726 106.001 98.9547 106.011 99.0658 105.905C100.824 104.06 102.191 102.596 104.378 100.505C104.432 100.486 104.383 100.413 104.345 100.447Z" fill="#263238"/>
<path d="M106.784 89.1023C103.813 89.5853 100.795 89.9475 97.9019 90.7637C96.9648 91.0781 96.0866 91.5465 95.3036 92.1498C92.8151 93.8505 90.4698 95.7516 88.2909 97.8343C87.5554 98.5225 86.871 99.2634 86.2432 100.051C87.3993 98.385 88.7571 96.8682 90.2856 95.5354C92.1427 93.811 94.1629 92.2712 96.3178 90.9376C97.6701 90.189 99.2494 89.9716 100.742 89.7157C102.741 89.4114 104.755 89.2085 106.769 89.1023H106.784Z" fill="#263238"/>
<path d="M124.813 88.1364C126.486 87.876 128.195 87.9666 129.831 88.4023C131.468 88.838 132.995 89.6092 134.318 90.6671C131.372 89.139 128.128 88.2751 124.813 88.1364Z" fill="#263238"/>
<path d="M138.128 74.0096L121.881 73.3962C121.881 73.3962 120.225 65.3935 119.949 60.8391C119.563 54.8069 121.712 53.2469 126.938 58.5064C130.415 62.0224 138.128 74.0096 138.128 74.0096Z" fill="#FFC727"/>
<path d="M122.997 73.4397C122.582 73.5025 122.171 73.5411 121.756 73.5653C121.321 71.9039 120.978 70.228 120.688 68.5376C120.401 66.9021 120.198 65.2531 120.08 63.5969C120.886 66.8327 121.476 70.1024 122.036 73.3866L121.886 73.261C122.258 73.3141 122.625 73.3769 122.997 73.4638V73.4397Z" fill="#263238"/>
<path d="M120.577 66.5913C120.28 66.3497 120.04 66.0458 119.873 65.7012C119.706 65.3566 119.617 64.9795 119.611 64.5966C119.708 64.7657 119.776 64.9347 119.858 65.0796C120.007 65.3983 120.423 66.2484 120.577 66.5719V66.5913Z" fill="#263238"/>
<path d="M136.534 72.4062C134.177 72.155 131.821 71.9232 129.449 71.8218C128.271 71.7638 127.089 71.7252 125.904 71.7059C124.721 71.7059 123.538 71.7832 122.354 71.7493C122.292 71.7493 122.292 71.8508 122.354 71.8508C123.533 71.8266 124.726 71.9618 125.904 72.0005C127.083 72.0391 128.271 72.0874 129.449 72.1405C131.811 72.2468 134.173 72.3482 136.53 72.5076C136.602 72.5124 136.597 72.411 136.534 72.4062Z" fill="#263238"/>
<path d="M114.564 61.4863C116.704 61.7326 119.906 58.1345 121.017 55.3865C121.094 55.1981 119.529 48.2096 119.365 46.7945C119.331 46.4999 110.729 49.9917 110.729 49.9917C111.444 51.7043 111.945 53.4983 112.222 55.3333C112.256 55.541 112.492 61.2448 114.564 61.4863Z" fill="#F7A9A0"/>
<path d="M112.256 55.6231C112.256 55.7294 112.256 55.8598 112.285 56.0143C112.577 56.0218 112.87 56.0041 113.159 55.9612C117.989 55.2802 118.916 49.1562 119.099 46.8138C119.043 46.8245 118.988 46.8407 118.935 46.8621L118.568 46.9732L118.37 47.0408L118.1 47.1374L117.955 47.1857C117.858 47.2147 117.757 47.2533 117.65 47.2968L116.631 47.6735L116.53 47.7122C116.44 47.7425 116.351 47.778 116.264 47.8184C115.54 48.0889 114.762 48.3883 114.028 48.6781L113.801 48.7699L112.7 49.2045L112.43 49.3108L112.275 49.3736L112.121 49.4363L111.724 49.5957L111.512 49.6827L111.362 49.7454C111.313 49.7594 111.264 49.7772 111.217 49.7986L110.759 49.9821C111.476 51.6945 111.98 53.4884 112.261 55.3237V55.5169C112.266 55.5375 112.266 55.559 112.261 55.5797L112.256 55.6231Z" fill="#263238"/>
<path d="M121.616 38.1301C122.282 41.3805 119.747 50.3443 117.303 52.1651C113.767 54.8069 108.406 54.5799 106.272 50.4264C104.205 46.4033 107.721 34.7735 110.401 33.1653C114.357 30.7939 120.635 33.3295 121.616 38.1301Z" fill="#F7A9A0"/>
<path d="M112.029 42.7908C112.029 42.7908 112.067 42.8342 112.063 42.8584C111.874 43.4573 111.763 44.1769 112.251 44.5295C112.251 44.5295 112.251 44.5681 112.251 44.5584C111.599 44.2783 111.773 43.3124 112.029 42.7908Z" fill="#263238"/>
<path d="M112.739 42.3126C113.734 42.5058 113.27 44.4763 112.347 44.2976C111.425 44.1189 111.913 42.1436 112.739 42.3126Z" fill="#263238"/>
<path d="M108.633 42.0856C108.633 42.0856 108.58 42.0856 108.576 42.1291C108.45 42.7473 108.204 43.4283 107.61 43.5007C107.61 43.5007 107.585 43.5345 107.61 43.5394C108.295 43.6021 108.614 42.6893 108.633 42.0856Z" fill="#263238"/>
<path d="M108.237 41.3225C107.271 41.0134 106.731 42.9646 107.629 43.2544C108.527 43.5442 109.049 41.5785 108.237 41.3225Z" fill="#263238"/>
<path d="M113.734 41.593C113.494 41.4563 113.261 41.3063 113.038 41.1438C112.769 41.0207 112.548 40.8118 112.41 40.5498C112.384 40.4603 112.387 40.3645 112.42 40.2772C112.453 40.1899 112.514 40.1159 112.594 40.0668C112.768 39.9918 112.958 39.9648 113.146 39.9886C113.334 40.0123 113.512 40.0861 113.661 40.202C114 40.3914 114.256 40.6994 114.381 41.0665C114.394 41.1499 114.385 41.2353 114.355 41.314C114.324 41.3928 114.274 41.4623 114.208 41.5156C114.143 41.5688 114.065 41.604 113.981 41.6176C113.898 41.6311 113.813 41.6227 113.734 41.593Z" fill="#263238"/>
<path d="M107.711 40.1489C107.988 40.1634 108.265 40.1634 108.542 40.1489C108.835 40.1837 109.132 40.1209 109.387 39.9702C109.457 39.9064 109.505 39.8214 109.522 39.7281C109.54 39.6348 109.526 39.5383 109.484 39.4534C109.375 39.3025 109.229 39.1828 109.059 39.1065C108.889 39.0302 108.703 38.9999 108.518 39.0188C108.131 39.0007 107.752 39.1282 107.455 39.3762C107.404 39.4391 107.369 39.5139 107.355 39.5937C107.34 39.6735 107.346 39.7556 107.371 39.8326C107.397 39.9096 107.441 39.979 107.501 40.0342C107.56 40.0895 107.632 40.1289 107.711 40.1489Z" fill="#263238"/>
<path d="M111.42 48.6249C111.242 48.7312 111.048 48.8954 110.821 48.8616C110.596 48.8032 110.385 48.6978 110.203 48.5525C110.203 48.5525 110.16 48.5525 110.169 48.5766C110.227 48.7178 110.323 48.8405 110.445 48.9316C110.568 49.0226 110.713 49.0786 110.865 49.0934C110.997 49.0909 111.125 49.0491 111.234 48.9735C111.342 48.8978 111.426 48.7916 111.473 48.6684C111.493 48.6249 111.449 48.6249 111.42 48.6249Z" fill="#263238"/>
<path d="M111.213 46.9443C110.33 47.2819 109.355 47.2939 108.464 46.9781L108.836 45.5292C108.648 45.5775 107.677 45.7658 107.75 45.5292C108.304 43.4221 109.071 41.3768 110.039 39.4245C110.045 39.4098 110.056 39.3979 110.071 39.3916C110.085 39.3853 110.102 39.3849 110.116 39.3907C110.131 39.3965 110.143 39.4078 110.149 39.4223C110.155 39.4368 110.156 39.4532 110.15 39.468C109.667 41.3998 108.807 43.2689 108.271 45.2201C108.617 45.1465 108.972 45.1237 109.324 45.1525C109.195 45.6928 109.034 46.225 108.841 46.7463C109.609 46.9191 110.406 46.9191 111.174 46.7463C111.242 46.7318 111.261 46.9056 111.213 46.9443Z" fill="#263238"/>
<path d="M118.312 45.2973C118.312 45.2973 120.727 42.5927 121.963 43.4814C123.2 44.37 121.176 48.4559 119.548 48.8616C119.342 48.9272 119.125 48.9505 118.909 48.9301C118.693 48.9096 118.484 48.8458 118.294 48.7425C118.104 48.6393 117.936 48.4986 117.801 48.329C117.667 48.1594 117.568 47.9644 117.51 47.7556L118.312 45.2973Z" fill="#F7A9A0"/>
<path d="M121.35 44.6357C121.374 44.6357 121.374 44.6743 121.35 44.6791C120.196 44.9979 119.5 45.9493 118.974 46.9635C119.05 46.8607 119.147 46.7756 119.26 46.7141C119.372 46.6527 119.496 46.6163 119.624 46.6076C119.752 46.5989 119.88 46.618 119.999 46.6636C120.119 46.7092 120.227 46.7802 120.316 46.8718C120.345 46.8718 120.316 46.9394 120.283 46.9297C120.097 46.8422 119.888 46.8161 119.687 46.8552C119.485 46.8943 119.302 46.9965 119.162 47.1471C118.928 47.3948 118.721 47.6668 118.544 47.9584C118.481 48.055 118.312 47.9585 118.36 47.8715V47.8474C118.534 46.4419 119.829 44.6018 121.35 44.6357Z" fill="#263238"/>
<path opacity="0.1" d="M111.618 58.0331C111.734 59.9312 112.372 62.4957 114.564 62.8241C116.641 62.9014 118.211 61.0613 119.534 59.6414C120.441 58.591 121.249 57.4593 121.949 56.2606C121.36 57.5336 120.613 58.7278 119.727 59.8152C118.399 61.3559 116.747 63.3023 114.501 63.1477C112.159 62.7855 111.493 60.0422 111.604 58.0283L111.618 58.0331Z" fill="black"/>
<path d="M154.085 180.083H189.738V101.988H154.085V180.083Z" fill="#37474F"/>
<path d="M134.496 180.083H154.085V101.988H134.496V180.083Z" fill="#455A64"/>
<path d="M149.29 101.993L141.895 101.857L134.501 101.751H134.279V101.978L134.197 110.536L134.163 119.138C134.139 124.842 134.12 130.55 134.163 136.259C134.207 141.968 134.192 152.617 134.26 158.321C134.327 164.025 134.39 169.738 134.511 175.442C134.633 169.74 134.715 164.033 134.757 158.321C134.83 152.617 134.839 141.963 134.854 136.259C134.868 130.555 134.854 124.842 134.854 119.138L134.82 110.575L134.738 102.017L134.516 102.239L141.91 102.147L149.29 101.993Z" fill="#263238"/>
</svg>
