<svg width="214" height="200" viewBox="0 0 214 200" fill="none" xmlns="http://www.w3.org/2000/svg">
<g id="Group 362">
<g id="freepik--Character--inject-6">
<path id="Vector" d="M163.54 169.087C163.54 169.087 164.986 188.396 164.986 188.411C164.986 192.194 164.956 195.511 164.762 197.243C164.765 197.253 164.765 197.263 164.762 197.273C164.764 197.678 164.666 198.079 164.477 198.441C164.477 198.441 164.477 198.441 164.477 198.465C163.311 199.236 131.939 200.266 130.859 199.937C129.779 199.609 130.61 196.556 131.791 195.58C132.973 194.603 144.755 189.024 144.755 189.024L143.507 169.74L163.54 169.087Z" fill="#FFD3C9"/>
<path id="Vector_2" d="M164.986 184.353V188.411C164.986 192.194 164.956 195.511 164.762 197.243C164.765 197.253 164.765 197.263 164.762 197.273C164.715 197.671 164.619 198.063 164.477 198.441C164.477 198.441 164.477 198.441 164.477 198.465C163.311 199.236 131.939 200.266 130.859 199.937C129.779 199.609 130.61 196.556 131.791 195.58C132.973 194.603 144.755 189.024 144.755 189.024L144.698 184.902L164.986 184.353Z" fill="white"/>
<path id="Vector_3" d="M130.8 199.933C131.905 200.252 163.277 199.216 164.418 198.461C164.866 198.176 164.978 193.76 164.953 188.426C164.953 188.372 164.953 188.318 164.953 188.259L144.706 188.71V189.039C144.706 189.039 132.883 194.608 131.691 195.59C130.499 196.571 129.7 199.614 130.8 199.933Z" fill="black"/>
<path id="Vector_4" d="M131.12 198.745C136.402 198.445 157.745 197.719 162.991 197.812C163.032 197.812 163.032 197.837 162.991 197.842C157.76 198.249 136.418 198.823 131.125 198.823C131.013 198.828 131.008 198.755 131.12 198.745Z" fill="black"/>
<path id="Vector_5" d="M143.06 189.142C145.128 188.696 147.685 188.921 149.325 190.295C149.386 190.349 149.325 190.438 149.238 190.418C147.228 189.865 145.162 189.521 143.075 189.392C143.044 189.389 143.016 189.375 142.995 189.353C142.974 189.331 142.962 189.303 142.96 189.273C142.958 189.244 142.967 189.214 142.985 189.19C143.004 189.166 143.03 189.149 143.06 189.142Z" fill="white"/>
<path id="Vector_6" d="M141.588 190.059C143.656 189.618 146.213 189.843 147.853 191.217C147.914 191.271 147.853 191.36 147.767 191.34C145.756 190.787 143.69 190.443 141.603 190.314C141.568 190.316 141.534 190.305 141.507 190.282C141.481 190.26 141.465 190.228 141.463 190.194C141.461 190.16 141.473 190.127 141.497 190.102C141.52 190.077 141.553 190.061 141.588 190.059Z" fill="white"/>
<path id="Vector_7" d="M140.116 190.982C142.184 190.54 144.741 190.766 146.381 192.14C146.447 192.194 146.381 192.277 146.3 192.262C144.289 191.708 142.223 191.364 140.136 191.237C140.101 191.239 140.066 191.228 140.04 191.206C140.013 191.184 139.996 191.153 139.994 191.119C139.991 191.085 140.002 191.052 140.025 191.026C140.048 191 140.081 190.984 140.116 190.982Z" fill="white"/>
<path id="Vector_8" d="M166.195 189.245L144.236 188.823C144.236 188.823 141.557 150.754 142.056 138.064C142.601 124.276 148.744 83.2578 148.744 83.2578H167.29C167.29 83.2578 162.553 124.438 162.451 138.217C162.38 151.014 166.195 189.245 166.195 189.245Z" fill="#A9C297"/>
<path id="Vector_9" d="M152.391 83.2578L163.531 120.389C164.85 102.817 167.29 83.2578 167.29 83.2578H152.391Z" fill="black"/>
<path id="Vector_10" d="M163.77 85.2793L162.593 97.5469L161.503 109.814C160.805 117.985 160.143 126.16 159.634 134.35C159.511 136.396 159.435 138.452 159.465 140.508C159.496 142.564 159.598 144.61 159.705 146.656C159.926 150.755 160.199 154.845 160.525 158.924C160.851 163.003 161.19 167.093 161.544 171.192L162.73 183.435L161.783 171.167C161.464 167.081 161.165 162.992 160.887 158.899C160.617 154.807 160.331 150.719 160.138 146.632C160.036 144.587 159.963 142.543 159.919 140.498C159.919 138.452 159.98 136.411 160.107 134.369C160.571 126.189 161.243 118.014 161.859 109.834L163.77 85.2793Z" fill="black"/>
<path id="Vector_11" d="M145.152 185.294C148.58 185.264 147.597 185.225 151.025 185.235C152.701 185.235 163.729 185.274 165.287 185.544C165.294 185.547 165.299 185.551 165.303 185.557C165.307 185.562 165.31 185.569 165.31 185.576C165.31 185.583 165.307 185.59 165.303 185.595C165.299 185.601 165.294 185.605 165.287 185.608C163.718 185.843 152.696 185.608 151.025 185.608C147.597 185.539 148.585 185.524 145.157 185.412C145.149 185.412 145.141 185.411 145.134 185.408C145.126 185.405 145.119 185.401 145.113 185.396C145.107 185.391 145.103 185.385 145.099 185.378C145.096 185.37 145.094 185.363 145.094 185.355C145.093 185.347 145.094 185.34 145.097 185.332C145.1 185.325 145.104 185.319 145.11 185.313C145.115 185.307 145.122 185.303 145.129 185.299C145.136 185.296 145.144 185.294 145.152 185.294Z" fill="black"/>
<path id="Vector_12" d="M199.237 158.723L209.837 175.323C211.559 178.724 213.005 181.732 213.601 183.356C213.603 183.366 213.603 183.376 213.601 183.385C213.782 183.752 213.874 184.153 213.871 184.558V184.588C213.168 185.765 185.347 199.799 184.221 199.981C183.095 200.163 182.474 197.037 183.101 195.663C183.727 194.289 191.887 184.328 191.887 184.328L181.471 167.644L199.237 158.723Z" fill="#FFD3C9"/>
<path id="Vector_13" d="M213.875 184.559C213.878 184.568 213.878 184.578 213.875 184.588C213.172 185.766 185.351 199.8 184.225 199.981C183.1 200.163 182.478 197.037 183.105 195.663C183.731 194.289 191.886 184.323 191.886 184.323L190.032 181.349C194.575 179.019 202.832 174.921 207.961 172.379L209.841 175.324C211.563 178.724 213.009 181.732 213.605 183.356C213.607 183.366 213.607 183.376 213.605 183.386C213.79 183.751 213.883 184.153 213.875 184.559Z" fill="white"/>
<path id="Vector_14" d="M184.221 199.981C185.367 199.805 213.168 185.751 213.871 184.588C214.146 184.141 212.261 180.123 209.837 175.323L209.76 175.176L191.719 184.038L191.882 184.328C191.882 184.328 183.732 194.284 183.105 195.663C182.479 197.042 183.08 200.163 184.221 199.981Z" fill="black"/>
<path id="Vector_15" d="M183.972 198.784C188.597 196.306 207.5 186.737 212.267 184.627C212.308 184.627 212.323 184.627 212.267 184.656C207.739 187.208 188.76 196.63 183.998 198.857C183.911 198.906 183.875 198.838 183.972 198.784Z" fill="black"/>
<path id="Vector_16" d="M190.393 185.142C192.059 183.876 194.468 183.013 196.562 183.567C196.643 183.567 196.608 183.7 196.562 183.709C194.502 184.051 192.487 184.606 190.551 185.363C190.521 185.383 190.483 185.391 190.447 185.385C190.429 185.381 190.412 185.375 190.397 185.365C190.381 185.356 190.368 185.343 190.358 185.329C190.347 185.314 190.34 185.298 190.336 185.281C190.332 185.263 190.332 185.246 190.335 185.228C190.339 185.211 190.346 185.195 190.355 185.18C190.365 185.165 190.378 185.152 190.393 185.142Z" fill="white"/>
<path id="Vector_17" d="M189.493 186.585C191.159 185.324 193.568 184.455 195.661 185.01C195.743 185.035 195.707 185.142 195.661 185.157C193.6 185.497 191.584 186.05 189.646 186.806C189.615 186.825 189.578 186.833 189.542 186.826C189.507 186.819 189.475 186.798 189.455 186.769C189.434 186.74 189.427 186.704 189.434 186.67C189.441 186.635 189.463 186.605 189.493 186.585Z" fill="white"/>
<path id="Vector_18" d="M188.586 188.032C190.247 186.766 192.661 185.903 194.749 186.457C194.831 186.457 194.8 186.59 194.749 186.6C192.689 186.941 190.672 187.496 188.734 188.253C188.704 188.272 188.667 188.279 188.631 188.271C188.596 188.264 188.565 188.243 188.545 188.214C188.526 188.185 188.519 188.149 188.527 188.115C188.534 188.081 188.556 188.051 188.586 188.032Z" fill="white"/>
<path id="Vector_19" d="M150.665 83.2437C150.746 83.6068 152.04 89.4069 153.385 94.3826C154.363 98.0237 155.371 101.218 155.931 101.547C156.583 101.92 159.767 103.279 160.837 103.706C160.837 103.706 167.998 138.153 171.778 148.851C175.267 158.709 189.707 185.055 189.707 185.055L210.657 174.858C210.657 174.858 194.297 148.12 192.575 143.32C189.885 135.881 179.917 99.5694 179.917 99.5694C179.917 99.5694 179.994 88.1998 176.021 83.2388L150.665 83.2437Z" fill="#A9C297"/>
<path id="Vector_20" d="M190.018 181.119C193.008 179.509 192.126 179.931 195.111 178.351C196.588 177.576 206.276 172.512 207.784 172.021C207.815 172.021 207.84 172.06 207.815 172.08C206.552 173.012 196.772 177.914 195.284 178.66C192.228 180.181 193.099 179.715 190.038 181.202C190.029 181.2 190.021 181.195 190.015 181.189C190.009 181.182 190.005 181.175 190.002 181.166C190 181.158 190.001 181.149 190.003 181.14C190.006 181.132 190.011 181.125 190.018 181.119Z" fill="black"/>
<path id="Vector_21" d="M174.543 96.4135C173.973 96.2712 173.356 96.227 172.771 96.1338C172.302 96.0651 171.828 95.9817 171.36 95.8836C170.464 95.7279 169.615 95.3827 168.874 94.8727C168.13 94.2146 167.574 93.3832 167.259 92.4584C167.025 91.9334 166.786 91.4083 166.541 90.8882C166.424 90.6379 166.307 90.3975 166.185 90.1325C166.019 89.8381 165.872 89.535 165.741 89.2247C165.741 89.1805 165.65 89.2247 165.67 89.2247C165.749 89.4386 165.815 89.6565 165.869 89.8773C165.95 90.1325 166.022 90.368 166.103 90.6428C166.251 91.0943 166.393 91.5457 166.546 91.9923C166.786 92.8219 167.128 93.6209 167.565 94.3722C168.431 95.6971 169.979 96.2319 171.523 96.4184C171.966 96.4724 172.414 96.5018 172.857 96.5264C173.42 96.5754 173.986 96.5754 174.548 96.5264C174.604 96.5509 174.635 96.4331 174.543 96.4135Z" fill="black"/>
<path id="Vector_22" d="M154.23 100.756C156.504 101.55 158.701 102.536 160.796 103.7C160.813 103.708 160.827 103.722 160.833 103.74C160.84 103.757 160.839 103.777 160.831 103.794C160.823 103.81 160.808 103.824 160.79 103.83C160.772 103.836 160.752 103.836 160.734 103.828C158.524 102.915 156.267 102.042 154.113 101.011C154.078 100.996 154.05 100.968 154.036 100.934C154.022 100.899 154.023 100.861 154.039 100.827C154.054 100.793 154.083 100.767 154.119 100.754C154.155 100.74 154.195 100.741 154.23 100.756Z" fill="black"/>
<path id="Vector_23" d="M153.567 86.1624C153.567 86.0888 153.71 86.0692 153.71 86.1624C153.707 88.5387 153.831 90.9135 154.082 93.2776C154.183 94.3768 155.1 100.442 157.077 100C157.403 99.9266 157.586 99.6126 157.627 99.1317C157.619 98.5035 157.53 97.8788 157.362 97.2719C157.143 96.001 156.97 94.7301 156.852 93.4444C156.625 91.0567 156.652 88.6527 156.934 86.2703C156.938 86.257 156.946 86.2453 156.958 86.2369C156.969 86.2286 156.983 86.2241 156.998 86.2241C157.012 86.2241 157.026 86.2286 157.038 86.2369C157.049 86.2453 157.057 86.257 157.061 86.2703C157.004 89.581 157.205 92.8911 157.662 96.1727C157.912 97.7479 158.737 100.098 157.026 100.368C155.314 100.638 154.153 96.6389 153.939 95.5495C153.393 92.4493 153.268 89.2937 153.567 86.1624Z" fill="black"/>
<path id="Vector_24" d="M157.021 100.153C157.196 100.562 157.344 100.982 157.464 101.409C157.591 101.741 157.655 102.091 157.652 102.445C157.65 102.459 157.643 102.472 157.632 102.483C157.622 102.493 157.608 102.5 157.594 102.503C157.579 102.507 157.564 102.505 157.55 102.5C157.536 102.495 157.523 102.486 157.515 102.474C157.311 102.171 157.156 101.84 157.056 101.493C156.903 101.1 156.746 100.717 156.608 100.325C156.584 100.272 156.583 100.213 156.605 100.159C156.627 100.106 156.671 100.063 156.725 100.04C156.78 100.017 156.842 100.017 156.897 100.038C156.953 100.059 156.997 100.1 157.021 100.153Z" fill="black"/>
<path id="Vector_25" d="M204.997 171.511C202.017 166.113 198.946 160.745 195.859 155.391C194.331 152.751 192.752 150.141 191.275 147.466C189.907 144.818 188.796 142.054 187.959 139.208C186.132 133.427 184.397 127.622 182.753 121.793C181.11 115.963 179.561 110.109 178.108 104.23C177.746 102.758 177.344 101.286 177.054 99.8141C176.791 98.3149 176.791 96.784 177.054 95.2849C177.279 93.8874 177.291 92.4656 177.089 91.0648C176.858 89.6698 176.517 88.2935 176.071 86.9478C175.836 86.2363 175.561 85.5297 175.332 84.828C175.329 84.8199 175.325 84.8125 175.319 84.806C175.314 84.7995 175.307 84.7942 175.299 84.7904C175.291 84.7865 175.283 84.7841 175.274 84.7834C175.265 84.7827 175.256 84.7837 175.248 84.7863C175.24 84.7888 175.232 84.793 175.225 84.7985C175.218 84.8039 175.213 84.8106 175.209 84.8181C175.205 84.8256 175.202 84.8338 175.202 84.8423C175.201 84.8507 175.202 84.8592 175.205 84.8672C176.106 87.7133 177.033 90.5888 176.84 93.6067C176.743 95.0542 176.33 96.4773 176.371 97.9347C176.468 99.3826 176.723 100.817 177.13 102.214C178.556 108.131 180.084 114.02 181.714 119.879C183.344 125.738 185.071 131.574 186.895 137.387C187.786 140.214 188.616 143.084 189.879 145.778C191.143 148.472 192.742 151.034 194.25 153.629C197.364 158.965 200.515 164.276 203.703 169.563L204.931 171.565C204.956 171.594 205.023 171.55 204.997 171.511Z" fill="black"/>
<path id="Vector_26" d="M164.448 52.7308C157.576 55.8762 145.856 60.6655 141.216 60.9207C137.65 61.1219 126.337 49.2763 121.549 44.8109C120.082 43.4418 129.327 34.7466 131.013 36.0715C135.679 39.7223 143.921 48.9426 144.496 49.0947C145.306 49.3106 154.296 47.5539 162.135 46.5529C170.886 45.439 167.779 51.2047 164.448 52.7308Z" fill="#FFD3C9"/>
<path id="Vector_27" d="M141.928 46.1455L132.031 55.9596C132.031 55.9596 137.919 61.794 140.792 61.6125C143.665 61.4309 157.173 57.4562 164.151 53.2705C171.129 49.0848 168.873 45.3555 161.966 46.4007C155.059 47.4459 144.862 49.0259 144.52 48.7217C144.042 48.3439 141.928 46.1455 141.928 46.1455Z" fill="#999999"/>
<path id="Vector_28" d="M138.439 60.9305C139.151 61.3653 139.971 61.6077 140.813 61.6322C143.686 61.4506 157.194 57.4661 164.172 53.2902C168.955 50.4343 169.398 47.7698 166.979 46.7197L138.439 60.9305Z" fill="#999999"/>
<path id="Vector_29" d="M142.82 45.5916C142.729 45.8321 131.477 56.8778 131.477 56.8778L128.859 54.6255L140.447 43.251L142.82 45.5916Z" fill="#999999"/>
<path id="Vector_30" d="M179.25 88.41C179.164 88.4886 148.103 84.9751 147.838 84.5924C147.466 84.1017 155 53.6241 161.204 47.2401C162.757 45.6404 168.966 45.4588 170.372 47.6915C178.899 60.965 179.561 88.1402 179.25 88.41Z" fill="#999999"/>
<path id="Vector_31" d="M162.476 52.0835C161.401 54.7578 160.469 57.4812 159.593 60.2144C158.716 62.9477 157.952 65.7201 157.219 68.4975C156.485 71.2749 155.9 74.0866 155.375 76.9082C154.85 79.7297 154.468 82.5709 154.224 85.4268C154.474 84.0135 154.652 82.5954 154.942 81.192C155.232 79.7886 155.451 78.3754 155.757 76.9769C156.363 74.1799 156.974 71.3829 157.713 68.6349C158.452 65.887 159.175 63.0949 159.97 60.3371C160.362 58.9632 160.774 57.5843 161.197 56.2152C161.62 54.8462 162.043 53.4427 162.476 52.0835Z" fill="black"/>
<path id="Vector_32" d="M159.033 57.1085C159.033 57.2432 159.088 57.3723 159.187 57.4676C159.286 57.5628 159.42 57.6163 159.56 57.6163C159.7 57.6163 159.834 57.5628 159.933 57.4676C160.031 57.3723 160.087 57.2432 160.087 57.1085C160.087 56.9738 160.031 56.8446 159.933 56.7493C159.834 56.6541 159.7 56.6006 159.56 56.6006C159.42 56.6006 159.286 56.6541 159.187 56.7493C159.088 56.8446 159.033 56.9738 159.033 57.1085ZM159.033 57.1085C159.033 57.0525 159.045 56.9971 159.07 56.9462C159.094 56.8953 159.129 56.8499 159.173 56.8132C159.217 56.7765 159.268 56.7492 159.324 56.7333C159.38 56.7174 159.438 56.7131 159.496 56.7208C159.592 56.7355 159.679 56.7826 159.742 56.8537C159.805 56.9247 159.839 57.0151 159.839 57.1085C159.839 57.2019 159.805 57.2922 159.742 57.3632C159.679 57.4343 159.592 57.4814 159.496 57.4961C159.438 57.5038 159.38 57.4996 159.324 57.4836C159.268 57.4677 159.217 57.4404 159.173 57.4037C159.129 57.367 159.094 57.3217 159.07 57.2707C159.045 57.2198 159.033 57.1645 159.033 57.1085Z" fill="black"/>
<path id="Vector_33" d="M157.331 62.5845C157.331 62.6833 157.363 62.7798 157.421 62.8611C157.479 62.9425 157.562 63.005 157.657 63.0405C157.753 63.076 157.858 63.0828 157.958 63.06C158.058 63.0372 158.148 62.9859 158.217 62.9128C158.286 62.8396 158.331 62.7482 158.345 62.6502C158.359 62.5523 158.342 62.4526 158.296 62.3641C158.251 62.2756 158.178 62.2024 158.089 62.1542C157.999 62.1059 157.897 62.0849 157.794 62.0938C157.667 62.1048 157.549 62.1614 157.464 62.2522C157.378 62.3431 157.33 62.4617 157.331 62.5845ZM157.331 62.5845C157.332 62.5105 157.355 62.4384 157.397 62.3765C157.439 62.3146 157.498 62.2657 157.568 62.2354C157.638 62.2051 157.716 62.1947 157.792 62.2055C157.868 62.2163 157.939 62.2478 157.997 62.2963C158.055 62.3447 158.097 62.4082 158.119 62.4791C158.141 62.5501 158.141 62.6255 158.12 62.6966C158.099 62.7676 158.057 62.8313 157.999 62.8802C157.941 62.929 157.87 62.9609 157.794 62.9721C157.737 62.9798 157.678 62.9756 157.622 62.9596C157.567 62.9437 157.515 62.9165 157.471 62.8797C157.427 62.843 157.392 62.7977 157.368 62.7468C157.344 62.6958 157.331 62.6405 157.331 62.5845Z" fill="black"/>
<path id="Vector_34" d="M155.635 68.066C155.635 68.2007 155.691 68.3299 155.789 68.4251C155.888 68.5204 156.022 68.5739 156.162 68.5739C156.302 68.5739 156.436 68.5204 156.535 68.4251C156.634 68.3299 156.689 68.2007 156.689 68.066C156.689 67.9313 156.634 67.8021 156.535 67.7069C156.436 67.6116 156.302 67.5581 156.162 67.5581C156.022 67.5581 155.888 67.6116 155.789 67.7069C155.691 67.8021 155.635 67.9313 155.635 68.066ZM155.635 68.066C155.635 68.01 155.648 67.9546 155.672 67.9037C155.696 67.8528 155.732 67.8074 155.775 67.7707C155.819 67.734 155.871 67.7068 155.927 67.6908C155.982 67.6749 156.041 67.6706 156.099 67.6783C156.194 67.693 156.281 67.7402 156.344 67.8112C156.407 67.8823 156.442 67.9726 156.442 68.066C156.442 68.1594 156.407 68.2497 156.344 68.3208C156.281 68.3918 156.194 68.4389 156.099 68.4536C156.041 68.4613 155.982 68.4571 155.927 68.4411C155.871 68.4252 155.819 68.398 155.775 68.3612C155.732 68.3245 155.696 68.2792 155.672 68.2283C155.648 68.1773 155.635 68.122 155.635 68.066Z" fill="black"/>
<path id="Vector_35" d="M154.398 73.5611C154.399 73.6599 154.43 73.7563 154.488 73.8377C154.547 73.9191 154.629 73.9816 154.725 74.0171C154.821 74.0525 154.925 74.0593 155.025 74.0365C155.125 74.0137 155.215 73.9624 155.284 73.8893C155.353 73.8162 155.398 73.7247 155.412 73.6268C155.426 73.5289 155.409 73.4292 155.364 73.3406C155.318 73.2521 155.246 73.179 155.156 73.1307C155.067 73.0825 154.964 73.0615 154.862 73.0704C154.735 73.0814 154.617 73.1379 154.531 73.2288C154.445 73.3197 154.398 73.4382 154.398 73.5611ZM154.398 73.5611C154.392 73.5068 154.398 73.4519 154.415 73.3999C154.432 73.3479 154.46 73.3 154.498 73.2592C154.536 73.2185 154.582 73.186 154.634 73.1637C154.685 73.1414 154.741 73.1299 154.798 73.1299C154.855 73.1299 154.911 73.1414 154.963 73.1637C155.014 73.186 155.06 73.2185 155.098 73.2592C155.136 73.3 155.164 73.3479 155.182 73.3999C155.199 73.4519 155.204 73.5068 155.198 73.5611C155.204 73.6153 155.199 73.6702 155.182 73.7222C155.164 73.7742 155.136 73.8222 155.098 73.8629C155.06 73.9036 155.014 73.9361 154.963 73.9584C154.911 73.9807 154.855 73.9923 154.798 73.9923C154.741 73.9923 154.685 73.9807 154.634 73.9584C154.582 73.9361 154.536 73.9036 154.498 73.8629C154.46 73.8222 154.432 73.7742 154.415 73.7222C154.398 73.6702 154.392 73.6153 154.398 73.5611Z" fill="black"/>
<path id="Vector_36" d="M153.297 79.023C153.297 79.1577 153.353 79.2869 153.452 79.3821C153.55 79.4774 153.685 79.5309 153.824 79.5309C153.964 79.5309 154.098 79.4774 154.197 79.3821C154.296 79.2869 154.352 79.1577 154.352 79.023C154.352 78.8883 154.296 78.7591 154.197 78.6639C154.098 78.5686 153.964 78.5151 153.824 78.5151C153.685 78.5151 153.55 78.5686 153.452 78.6639C153.353 78.7591 153.297 78.8883 153.297 79.023ZM153.297 79.023C153.297 78.967 153.31 78.9117 153.334 78.8607C153.358 78.8098 153.394 78.7645 153.438 78.7278C153.481 78.691 153.533 78.6638 153.589 78.6479C153.644 78.6319 153.703 78.6277 153.761 78.6354C153.855 78.6515 153.941 78.6993 154.002 78.7702C154.064 78.8411 154.097 78.9306 154.097 79.023C154.103 79.0773 154.098 79.1322 154.08 79.1842C154.063 79.2362 154.035 79.2841 153.997 79.3248C153.959 79.3655 153.913 79.3981 153.861 79.4204C153.81 79.4427 153.754 79.4542 153.697 79.4542C153.64 79.4542 153.584 79.4427 153.533 79.4204C153.481 79.3981 153.435 79.3655 153.397 79.3248C153.359 79.2841 153.331 79.2362 153.314 79.1842C153.296 79.1322 153.291 79.0773 153.297 79.023Z" fill="black"/>
<path id="Vector_37" d="M152.59 84.3571C152.59 84.4799 152.637 84.5985 152.723 84.6893C152.809 84.7802 152.927 84.8367 153.054 84.8478C153.194 84.8478 153.328 84.7943 153.427 84.699C153.526 84.6038 153.581 84.4746 153.581 84.3399C153.581 84.2052 153.526 84.076 153.427 83.9808C153.328 83.8855 153.194 83.832 153.054 83.832C152.92 83.8433 152.797 83.9047 152.71 84.003C152.624 84.1012 152.58 84.2284 152.59 84.3571ZM152.59 84.3571C152.59 84.3012 152.603 84.2461 152.627 84.1953C152.651 84.1446 152.687 84.0995 152.731 84.0632C152.775 84.0268 152.827 84.0001 152.882 83.9847C152.938 83.9694 152.997 83.9659 153.054 83.9743C153.147 83.9919 153.23 84.0399 153.29 84.1101C153.35 84.1804 153.383 84.2686 153.383 84.3595C153.383 84.4505 153.35 84.5387 153.29 84.6089C153.23 84.6792 153.147 84.7272 153.054 84.7447C152.996 84.7524 152.938 84.7482 152.882 84.7323C152.826 84.7163 152.775 84.6891 152.731 84.6524C152.687 84.6156 152.652 84.5703 152.627 84.5194C152.603 84.4684 152.591 84.4131 152.59 84.3571Z" fill="black"/>
<path id="Vector_38" d="M163.715 51.5782C165.131 51.6861 168.167 49.2375 169.394 47.1275C169.476 46.9803 169.262 45.4444 169.094 43.5699C168.992 42.4315 168.91 41.1605 168.921 39.9927L161.316 41.6954C161.735 43.1576 161.966 44.6639 162.003 46.1804C162.002 46.3454 161.983 46.5098 161.947 46.6711C161.947 46.6711 161.947 46.7202 161.947 46.7497C161.774 47.6427 161.504 51.4064 163.715 51.5782Z" fill="#FFD3C9"/>
<path id="Vector_39" d="M169.062 43.2408C167.508 45.4343 165.134 47.5639 161.869 47.1664C161.869 46.9751 161.91 46.818 161.93 46.7101C161.932 46.6839 161.932 46.6577 161.93 46.6316C161.969 46.4707 161.988 46.306 161.986 46.1409C161.95 44.6246 161.721 43.1184 161.304 41.6558L168.904 39.958C168.904 41.0474 168.975 42.1907 169.062 43.2408Z" fill="black"/>
<path id="Vector_40" d="M162.634 28.5244C162.634 28.5244 160.062 29.1672 159.277 31.4686C158.493 33.77 158.691 36.3757 158.885 36.5032C159.078 36.6308 162.634 28.5244 162.634 28.5244Z" fill="black"/>
<path id="Vector_41" d="M171.782 32.8966C172.322 35.5562 170.106 42.8627 168.023 44.3299C165.002 46.4596 160.464 46.2388 158.686 42.8333C156.96 39.5259 160.026 30.075 162.313 28.7599C165.685 26.856 170.987 28.9709 171.782 32.8966Z" fill="#FFD3C9"/>
<path id="Vector_42" d="M163.974 36.2676C163.974 36.2676 164.005 36.3019 163.974 36.3265C163.791 36.8172 163.663 37.3864 164.061 37.6955C163.541 37.4747 163.714 36.7043 163.974 36.2676Z" fill="black"/>
<path id="Vector_43" d="M164.6 35.9146C165.43 36.1207 164.951 37.7057 164.177 37.5192C163.403 37.3328 163.907 35.7478 164.6 35.9146Z" fill="black"/>
<path id="Vector_44" d="M160.983 35.3311C160.983 35.3311 160.932 35.3311 160.927 35.3605C160.795 35.8512 160.556 36.4057 160.046 36.44C160.046 36.44 160.046 36.4646 160.046 36.4695C160.627 36.548 160.938 35.8218 160.983 35.3311Z" fill="black"/>
<path id="Vector_45" d="M160.684 34.6885C159.879 34.394 159.334 35.9643 160.077 36.2342C160.821 36.5041 161.361 34.9289 160.684 34.6885Z" fill="black"/>
<path id="Vector_46" d="M165.472 35.3746C165.273 35.2521 165.08 35.1195 164.896 34.9771C164.677 34.8201 164.489 34.7219 164.387 34.4864C164.368 34.4112 164.375 34.332 164.407 34.2611C164.439 34.1902 164.495 34.1314 164.565 34.0938C164.716 34.0415 164.879 34.0285 165.038 34.0561C165.196 34.0836 165.344 34.1508 165.467 34.2509C165.744 34.4208 165.947 34.6827 166.037 34.9869C166.049 35.0556 166.04 35.1259 166.012 35.1901C165.984 35.2542 165.938 35.3095 165.879 35.3499C165.821 35.3902 165.751 35.4139 165.679 35.4182C165.607 35.4226 165.535 35.4075 165.472 35.3746Z" fill="black"/>
<path id="Vector_47" d="M160.296 33.908C160.535 33.908 160.759 33.908 160.999 33.908C161.246 33.948 161.5 33.9083 161.722 33.7951C161.784 33.7473 161.828 33.6807 161.847 33.6059C161.865 33.5312 161.857 33.4527 161.824 33.3829C161.738 33.2526 161.618 33.1466 161.476 33.0759C161.333 33.0052 161.174 32.9723 161.014 32.9805C160.687 32.9529 160.361 33.0419 160.097 33.2308C160.032 33.2752 159.982 33.3382 159.955 33.411C159.928 33.4838 159.926 33.5628 159.947 33.6372C159.969 33.7115 160.014 33.7775 160.077 33.826C160.139 33.8745 160.216 33.9031 160.296 33.908Z" fill="black"/>
<path id="Vector_48" d="M162.97 39.3549C162.782 39.5134 162.562 39.6323 162.323 39.7041C162.085 39.776 161.833 39.7991 161.585 39.772C161.366 39.7551 161.151 39.7054 160.948 39.6248C160.908 39.6131 160.869 39.5983 160.831 39.5806L160.724 39.5316C160.699 39.5176 160.679 39.4964 160.667 39.4708C160.655 39.4452 160.652 39.4167 160.658 39.3893C160.655 39.373 160.655 39.3564 160.658 39.3402V39.296C160.76 38.9133 160.974 38.349 160.974 38.349C160.811 38.3784 159.98 38.4913 160.052 38.295C160.616 36.6015 161.357 34.9673 162.262 33.4174C162.293 33.3634 162.374 33.4174 162.354 33.4518C161.845 35.022 161.05 36.4941 160.51 38.0644C160.806 38.0229 161.106 38.0229 161.401 38.0644C161.452 38.0938 160.969 39.1488 160.938 39.3255C161.25 39.4474 161.585 39.5071 161.922 39.5012C162.259 39.4953 162.591 39.4239 162.899 39.2911C162.98 39.2813 163.011 39.3255 162.97 39.3549Z" fill="black"/>
<path id="Vector_49" d="M161.239 39.4974C161.374 39.8289 161.595 40.1213 161.881 40.3463C162.038 40.467 162.23 40.5359 162.431 40.5426C162.869 40.5426 162.991 40.1942 163.012 39.8654C163.019 39.6894 163.006 39.5132 162.971 39.3403C162.426 39.5687 161.819 39.6237 161.239 39.4974Z" fill="black"/>
<path id="Vector_50" d="M161.87 40.346C162.027 40.4668 162.22 40.5356 162.42 40.5423C162.858 40.5423 162.981 40.1939 163.001 39.8651C162.784 39.8148 162.556 39.8346 162.351 39.9215C162.147 40.0084 161.978 40.1575 161.87 40.346Z" fill="#FF6868"/>
<path id="Vector_51" d="M169.082 36.9504C169.001 35.3801 170.56 33.221 170.009 32.377C168.818 30.5467 164.743 32.3083 162.486 31.6998C160.23 31.0914 159.939 29.5555 160.866 27.9558C161.793 26.3561 163.617 25.6249 166.169 25.9488C168.382 26.2995 170.397 27.3865 171.863 29.0206C171.863 29.0206 171.563 28.0392 171.863 27.8086C172.164 27.5779 172.979 28.7164 173.203 29.1531C173.352 29.5244 173.431 29.9181 173.437 30.316C173.784 30.327 174.127 30.3849 174.456 30.4878C174.933 30.656 175.334 30.9809 175.587 31.4054C175.587 31.5428 174.767 31.4054 174.201 31.2925C174.201 31.2925 174.843 32.9119 174.487 34.0405C174.13 35.1691 170.687 40.0761 170.228 40.0123C169.627 39.9289 169.113 37.5883 169.082 36.9504Z" fill="black"/>
<path id="Vector_52" d="M174.014 31.0957C174.014 31.0957 173.963 31.0957 173.978 31.1202C174.396 31.6886 174.639 32.3585 174.681 33.0536C174.679 33.8802 174.448 34.6914 174.014 35.4041C173.224 36.8075 172.063 37.9557 170.998 39.153C170.963 39.1874 170.998 39.2414 171.059 39.207C172.355 38.0332 173.453 36.6724 174.314 35.1734C174.971 33.878 175.114 32.2194 174.014 31.0957Z" fill="black"/>
<path id="Vector_53" d="M170.26 31.8522C169.614 31.59 168.923 31.4469 168.222 31.4302C167.563 31.4685 166.912 31.5839 166.282 31.7737C164.855 32.1558 163.345 32.1422 161.927 31.7344C163.2 32.1973 164.588 32.2878 165.915 31.9945C166.584 31.8159 167.265 31.6782 167.952 31.5823C168.723 31.5835 169.488 31.7045 170.219 31.9405C170.229 31.9387 170.238 31.9347 170.245 31.9288C170.253 31.9229 170.259 31.9153 170.263 31.9066C170.267 31.8979 170.269 31.8884 170.268 31.879C170.268 31.8695 170.265 31.8603 170.26 31.8522Z" fill="black"/>
<path id="Vector_54" d="M170.692 28.054C169.931 27.3835 169.073 26.8232 168.145 26.3906C167.272 25.9458 166.326 25.6503 165.349 25.5171C163.653 25.3257 161.87 25.9097 161.014 27.4112C160.564 28.1746 160.426 29.0723 160.627 29.9285C160.627 29.9402 160.632 29.9515 160.64 29.9597C160.649 29.968 160.661 29.9727 160.673 29.9727C160.685 29.9727 160.697 29.968 160.705 29.9597C160.714 29.9515 160.719 29.9402 160.719 29.9285C160.573 29.15 160.693 28.347 161.06 27.6395C161.427 26.9319 162.022 26.3578 162.756 26.0029C164.411 25.257 166.322 25.6888 167.885 26.3955C168.869 26.8558 169.8 27.415 170.661 28.0638C170.661 28.0638 170.697 28.0589 170.692 28.054Z" fill="black"/>
<path id="Vector_55" d="M169.475 38.8003C169.475 38.8003 171.513 36.6069 172.582 37.3282C173.652 38.0495 171.879 41.3863 170.489 41.7053C170.313 41.7575 170.129 41.775 169.946 41.7568C169.763 41.7386 169.586 41.6851 169.425 41.5994C169.265 41.5138 169.123 41.3977 169.01 41.2582C168.897 41.1187 168.815 40.9587 168.767 40.7877L169.475 38.8003Z" fill="#FFD3C9"/>
<path id="Vector_56" d="M172.057 38.2846V38.319C171.079 38.5692 170.478 39.3445 170.019 40.164C170.085 40.0802 170.168 40.0112 170.264 39.9617C170.36 39.9122 170.466 39.8834 170.574 39.8773C170.683 39.8712 170.792 39.888 170.893 39.9265C170.994 39.965 171.085 40.0243 171.16 40.1002C171.16 40.1002 171.16 40.1542 171.13 40.1444C170.972 40.0748 170.796 40.0539 170.625 40.0847C170.455 40.1154 170.298 40.1963 170.177 40.3161C169.984 40.5193 169.813 40.7413 169.668 40.9786C169.617 41.0522 169.469 40.9786 169.515 40.9001C169.632 39.7371 170.763 38.2306 172.057 38.2846Z" fill="black"/>
<path id="Vector_57" d="M161.972 46.2144L163.016 50.8613L169.597 46.2831L170.87 48.3097C170.87 48.3097 163.836 56.1609 163.871 55.7438L162.68 51.6906L159.532 53.8546L160.912 47.3479L161.972 46.2144Z" fill="#999999"/>
<path id="Vector_58" d="M160.026 50.6015C160.29 49.5318 160.535 48.4522 160.841 47.3972C160.841 47.3629 160.917 47.3531 160.922 47.3972C160.958 48.4768 159.903 52.5496 159.751 53.5408C159.883 53.4476 162.644 51.6565 162.664 51.6958C162.96 52.3582 163.841 55.3123 163.887 55.5723C165.002 54.3309 169.225 49.8311 170.483 48.7025C170.518 48.6731 170.574 48.7025 170.544 48.7516C169.525 50.0912 163.922 56.1612 163.846 56.1121C163.356 54.7059 162.943 53.276 162.608 51.8283C162.099 52.2356 159.282 54.2818 159.302 54.1395C159.477 52.9485 159.719 51.7675 160.026 50.6015Z" fill="black"/>
<path id="Vector_59" d="M145.358 75.1857C157.317 47.5248 130.117 38.7804 111.786 31.4248L97.9971 25.8896L93.1073 37.2494L94.6353 40.6844L105.663 45.1007C123.027 52.0687 136.133 56.4163 130.591 69.2237C125.049 82.031 112.763 75.8383 95.3841 68.8703L81.7994 63.4186L76.8739 74.8029L78.402 78.2133L89.6079 82.7229C107.925 90.0982 133.393 102.842 145.358 75.1857Z" fill="#C7594D"/>
<g id="Group" opacity="0.1">
<path id="Vector_60" d="M145.358 75.1857C157.317 47.5248 130.117 38.7804 111.786 31.4248L97.9971 25.8896L93.1073 37.2494L94.6353 40.6844L105.663 45.1007C123.027 52.0687 136.133 56.4163 130.591 69.2237C125.049 82.031 112.763 75.8383 95.3841 68.8703L81.7994 63.4186L76.8739 74.8029L78.402 78.2133L89.6079 82.7229C107.925 90.0982 133.393 102.842 145.358 75.1857Z" fill="black"/>
</g>
<path id="Vector_61" d="M108.193 43.295L108.814 46.3914L94.5931 40.6796L93.0854 37.2349L108.193 43.295Z" fill="#999999"/>
<path id="Vector_62" d="M91.9557 80.8434L92.5771 83.9397L78.3558 78.2279L76.8481 74.7832L91.9557 80.8434Z" fill="#999999"/>
<path id="Vector_63" d="M146.405 72.7565C158.365 45.1005 131.165 36.3561 112.833 28.9956L99.045 23.4604L93.1058 37.2492L106.69 42.7009C124.055 49.6689 137.16 54.0165 131.619 66.8288C126.077 79.641 113.791 73.4435 96.4116 66.4755L82.8269 61.0189L76.8674 74.7929L90.6558 80.328C108.972 87.6739 134.44 100.413 146.405 72.7565Z" fill="#C7594D"/>
<path id="Vector_64" d="M99.0456 23.4604L93.1064 37.2492L106.691 42.7009L108.219 43.3094L114.179 29.5403L112.859 29.0103L99.0456 23.4604Z" fill="white"/>
<path id="Vector_65" d="M91.9547 80.843L97.9092 67.0739L96.3811 66.4605L82.7964 61.0039L76.8369 74.7779L90.6253 80.3131L91.9547 80.843Z" fill="white"/>
<path id="Vector_66" d="M165.513 55.4055C162.895 58.6048 156.319 70.0824 155.096 70.475C153.874 70.8675 145.887 68.1343 144.909 68.1343C142.907 68.1343 135.542 79.5628 137.411 80.0731C139.281 80.5834 155.611 86.0695 159.981 83.9987C165.141 81.5747 169.69 64.508 171.467 56.6077C172.98 49.8213 170.576 49.1883 165.513 55.4055Z" fill="#FFD3C9"/>
<path id="Vector_67" d="M127.096 60.3517C126.781 60.6639 126.572 61.0613 126.497 61.491C126.423 61.9207 126.486 62.3621 126.679 62.7561C125.928 62.9036 125.254 63.2994 124.774 63.8749C123.979 64.93 125.349 66.5934 125.349 66.5934C124.605 66.8968 123.973 67.4099 123.536 68.0656C122.879 69.15 124.01 71.0098 124.01 71.0098C123.49 71.6613 123.23 72.4709 123.276 73.2915C123.49 75.4752 126.607 76.9767 128.574 77.9483C130.54 78.9199 137.075 79.9111 138.302 80.2154L144.894 68.1146C144.894 68.1146 137.35 61.3331 134.869 60.5038C132.776 59.8217 128.35 59.2084 127.096 60.3517Z" fill="#FFD3C9"/>
<path id="Vector_68" d="M126.871 62.6039C129.28 62.8296 131.486 63.7325 133.748 64.5078C133.755 64.5137 133.76 64.5216 133.763 64.5306C133.766 64.5395 133.765 64.549 133.762 64.5577C133.758 64.5664 133.752 64.5739 133.744 64.579C133.736 64.5841 133.727 64.5867 133.717 64.5864C131.481 63.7865 129.133 63.4234 126.846 62.7119C126.831 62.7086 126.818 62.6998 126.81 62.6874C126.802 62.675 126.799 62.6599 126.802 62.6456C126.806 62.6313 126.815 62.6189 126.828 62.6111C126.841 62.6032 126.856 62.6007 126.871 62.6039Z" fill="black"/>
<path id="Vector_69" d="M125.471 66.4561C126.013 66.5507 126.539 66.7157 127.035 66.9468C127.58 67.1627 128.115 67.3884 128.645 67.6239C129.714 68.0885 130.769 68.5792 131.808 69.096C131.854 69.096 131.808 69.1893 131.777 69.1696C130.718 68.6789 129.643 68.2569 128.563 67.8398C128.018 67.6288 127.478 67.4227 126.933 67.2216C126.401 67.062 125.888 66.8465 125.405 66.5787C125.397 66.567 125.392 66.5533 125.391 66.5392C125.39 66.525 125.393 66.5109 125.4 66.4983C125.407 66.4858 125.417 66.4752 125.43 66.4677C125.442 66.4603 125.457 66.4563 125.471 66.4561Z" fill="black"/>
<path id="Vector_70" d="M124.056 71.0537C124.546 71.1528 125.015 71.3321 125.442 71.5837L126.888 72.2412C127.856 72.6779 128.824 73.1098 129.807 73.5121C129.853 73.5121 129.807 73.6054 129.776 73.5857C128.757 73.1834 127.769 72.7957 126.771 72.3835L125.309 71.7701C124.845 71.6201 124.413 71.3925 124.031 71.0979C124.031 71.0979 124.036 71.0537 124.056 71.0537Z" fill="black"/>
<path id="Vector_71" d="M153.211 70.2837L151.749 84.4552C151.749 84.4552 158.595 85.2452 160.663 83.9939C162.731 82.7426 168.125 74.6705 171.655 57.4959C172.898 51.4358 171.726 46.9704 165.858 54.5517C159.991 62.1331 155.493 70.0285 154.897 70.2297C154.342 70.3378 153.772 70.3561 153.211 70.2837Z" fill="#999999"/>
<path id="Vector_72" d="M171.548 58.8994C171.095 60.3421 170.646 61.7798 170.167 63.2176C169.689 64.6554 169.225 66.0882 168.726 67.5113C167.707 70.3622 166.689 73.2034 165.486 75.971C164.88 77.3548 164.254 78.7287 163.52 80.0438C162.853 81.3794 161.95 82.5931 160.851 83.6309C160.247 84.06 159.527 84.3122 158.778 84.3571C158.01 84.4586 157.236 84.5159 156.461 84.5288C154.902 84.5779 153.338 84.5288 151.774 84.4552C153.329 84.6466 154.894 84.7547 156.461 84.7791C157.25 84.7904 158.039 84.7576 158.824 84.681C159.221 84.6409 159.614 84.572 160.001 84.4749C160.202 84.4222 160.398 84.3533 160.586 84.2688C160.767 84.1734 160.937 84.0617 161.096 83.9351C161.709 83.4364 162.245 82.8546 162.685 82.2078C163.133 81.5758 163.544 80.9206 163.918 80.245C164.669 78.9118 165.349 77.5426 165.955 76.1427C167.137 73.3424 168.184 70.498 169.098 67.6094C170.02 64.729 170.84 61.8338 171.548 58.8994Z" fill="black"/>
<path id="Vector_73" d="M171.548 60.4399L171.095 61.3576L170.871 61.809C170.794 61.9611 170.713 62.1132 170.647 62.2997C170.936 62.0832 171.168 61.8041 171.324 61.4851C171.403 61.3281 171.464 61.1637 171.507 60.9944C171.555 60.8134 171.569 60.6256 171.548 60.4399Z" fill="black"/>
<path id="Vector_74" d="M164.127 56.7402C163.23 57.9523 162.38 59.1937 161.529 60.4254C160.679 61.6571 159.843 62.9084 158.982 64.1499L156.487 67.8939C156.069 68.5122 155.651 69.1354 155.188 69.7144C155.082 69.8618 154.961 69.9982 154.826 70.1217C154.684 70.2249 154.518 70.2938 154.342 70.3229C153.964 70.3759 153.579 70.3626 153.206 70.2836C153.573 70.4191 153.965 70.4777 154.357 70.4554C154.565 70.4409 154.766 70.3787 154.943 70.2738C155.102 70.1553 155.249 70.0222 155.381 69.8764C155.891 69.3071 156.349 68.7036 156.813 68.1049C157.724 66.9027 158.57 65.6514 159.41 64.4148C160.251 63.1783 161.056 61.9073 161.83 60.6217C162.604 59.3361 163.399 58.0553 164.127 56.7402Z" fill="black"/>
<path id="Vector_75" d="M163.322 56.7402C163.046 57.131 162.831 57.5593 162.686 58.0112C162.609 58.2366 162.552 58.4681 162.517 58.703C162.477 58.9386 162.477 59.179 162.517 59.4146C162.757 58.5068 163.108 57.6677 163.322 56.7402Z" fill="black"/>
<path id="Vector_76" d="M154.139 69.5573C154.215 69.8075 152.03 85.1273 152.03 85.1273L148.536 84.823L150.772 69.0322L154.139 69.5573Z" fill="#999999"/>
<path id="Vector_77" d="M133.091 37.5637C131.812 35.9297 130.763 32.9118 129.464 32.0531C129.152 31.8293 128.773 31.7084 128.384 31.7084C127.995 31.7084 127.617 31.8293 127.304 32.0531C127.304 32.0531 127.335 30.3749 126.021 29.7812C125.343 29.4769 124.243 30.2719 124.243 30.2719C124.23 29.8902 124.107 29.5195 123.889 29.2008C123.67 28.8821 123.365 28.6278 123.005 28.4661C122.048 28.103 121.09 28.9568 121.09 28.9568C121.09 28.9568 120.433 27.676 119.333 27.6024C117.102 27.465 113.002 35.0121 115.258 37.6324C116.307 38.8543 117.204 36.9601 117.204 36.9601C117.204 36.9601 116.598 39.9878 118.192 40.8416C119.786 41.6954 120.8 39.1634 120.8 39.1634C120.8 39.1634 120.24 42.1076 121.982 42.8241C123.8 43.5797 124.36 40.8612 124.36 40.8612C124.36 40.8612 124.63 43.1332 126.097 43.3933C128.522 43.8202 127.625 39.3204 128.934 37.868L132.271 38.3587L133.091 37.5637Z" fill="#FFD3C9"/>
<path id="Vector_78" d="M131.44 34.7964C132.79 36.2685 135.948 35.2871 137.446 36.4893C139.483 38.1135 135.887 39.463 132.271 38.3442L129.622 36.9996L131.44 34.7964Z" fill="#FFD3C9"/>
<path id="Vector_79" d="M120.918 29.0155C120.918 29.0155 120.918 28.9665 120.882 28.9861C118.819 31.2327 117.515 34.0311 117.144 37.0091C117.144 37.1023 117.291 37.1563 117.322 37.0532C118.111 34.2205 119.322 31.5131 120.918 29.0155Z" fill="black"/>
<path id="Vector_80" d="M124.249 30.2033C124.249 30.1738 124.218 30.1444 124.193 30.1738C121.945 32.6699 120.698 35.8588 120.678 39.1635C120.678 39.2813 120.806 39.3843 120.811 39.2469C120.933 37.0044 122.716 32.5243 124.249 30.2033Z" fill="black"/>
<path id="Vector_81" d="M124.447 41.0718C124.498 37.8429 125.619 34.9527 127.213 32.141C127.213 32.1066 127.177 32.0821 127.152 32.1066C125.985 33.2794 125.16 35.1686 124.651 36.6947C124.149 38.1016 124.038 39.6108 124.33 41.0718C124.34 41.1306 124.447 41.1405 124.447 41.0718Z" fill="black"/>
</g>
<g id="freepik--Lines--inject-6">
<path id="Vector_82" d="M76.6123 62.9964L75.4306 61.5243C75.0231 61.0336 74.6615 60.5429 74.2183 60.0522C73.7529 59.5846 73.1732 59.2371 72.5323 59.0413C71.8841 58.8504 71.1981 58.81 70.5305 58.9235C70.2232 58.9965 69.912 59.0539 69.5984 59.0953C69.2937 59.1272 68.9863 59.1272 68.6815 59.0953C68.0757 59.0204 67.4993 58.7993 67.0058 58.4525C66.7595 58.2791 66.5355 58.0781 66.3385 57.8538L65.7273 57.1374C65.3083 56.6139 64.765 56.1949 64.1432 55.9155C63.5143 55.6425 62.8238 55.5276 62.1363 55.5818C61.8008 55.6122 61.4685 55.6697 61.143 55.7536C60.8462 55.8257 60.5423 55.8668 60.2364 55.8763C59.625 55.8981 59.0181 55.768 58.474 55.4984C57.9261 55.2265 57.4503 54.8371 57.0834 54.36C56.6948 53.83 56.1862 53.392 55.5961 53.0793C55.0053 52.7712 54.3424 52.6141 53.6707 52.6229C53.0159 52.6675 52.3692 52.7895 51.7453 52.986L49.8759 53.4767L51.781 53.1136C52.3957 52.9541 53.029 52.87 53.6656 52.8634C54.29 52.8803 54.8997 53.0491 55.4382 53.3541C55.9725 53.6661 56.4283 54.0884 56.7727 54.5906C57.1562 55.1355 57.6747 55.5797 58.2812 55.8831C58.8878 56.1864 59.5632 56.3392 60.2465 56.3277C60.5895 56.3202 60.9309 56.2791 61.2653 56.205C61.565 56.1266 61.8722 56.0773 62.1821 56.0578C62.789 56.0139 63.3975 56.1203 63.9496 56.367C64.5057 56.6106 64.993 56.9791 65.3707 57.4416L65.9972 58.158C66.6709 58.9172 67.6165 59.4042 68.6459 59.5222C68.9841 59.5643 69.3265 59.5643 69.6646 59.5222C69.989 59.4715 70.3103 59.4043 70.6273 59.321C71.2345 59.1889 71.8663 59.2045 72.4656 59.3664C73.065 59.5283 73.6131 59.8314 74.0604 60.2484C74.9161 61.1072 75.7413 62.0837 76.6123 62.9964Z" fill="black"/>
<path id="Vector_83" d="M75.1914 67.7415L74.0148 66.2694C73.6073 65.7787 73.2457 65.288 72.7974 64.7973C72.3326 64.328 71.7529 63.9787 71.1114 63.7815C70.465 63.5898 69.78 63.5511 69.1147 63.6687C68.7735 63.7325 68.4882 63.8061 68.1775 63.8355C67.8746 63.8699 67.5686 63.8699 67.2657 63.8355C66.351 63.7187 65.515 63.2757 64.9227 62.594L64.3115 61.8776C63.8902 61.3543 63.3454 60.9354 62.7223 60.6558C62.0924 60.386 61.4024 60.273 60.7154 60.327C60.3814 60.3534 60.0506 60.4092 59.7272 60.4938C59.4284 60.5651 59.123 60.6078 58.8154 60.6214C58.204 60.6376 57.5981 60.506 57.0531 60.2387C56.508 59.9647 56.0344 59.5755 55.6676 59.1002C55.2763 58.5726 54.7683 58.1351 54.1803 57.8195C53.5876 57.5114 52.9231 57.3544 52.2498 57.3631C51.5967 57.4082 50.9518 57.5301 50.3295 57.7263L48.4601 58.217L50.3601 57.8538C50.9754 57.6971 51.6083 57.613 52.2447 57.6036C52.8706 57.6212 53.4818 57.7899 54.0224 58.0943C54.5563 58.405 55.0107 58.8277 55.3518 59.3309C55.7354 59.876 56.2537 60.3207 56.8602 60.6248C57.4666 60.9289 58.1421 61.0829 58.8256 61.0729C59.1688 61.0635 59.5101 61.0208 59.8444 60.9453C60.1445 60.8684 60.4515 60.8192 60.7612 60.7981C61.3663 60.7565 61.9725 60.8628 62.5236 61.1072C63.0797 61.3508 63.567 61.7193 63.9447 62.1818L64.5814 62.8786C64.8056 63.1282 65.0605 63.3507 65.3404 63.5411C65.8983 63.9256 66.5486 64.1671 67.2301 64.2428C67.5685 64.2821 67.9105 64.2821 68.2488 64.2428C68.5799 64.1986 68.9212 64.1005 69.2064 64.0367C69.8144 63.905 70.4468 63.9208 71.0469 64.0827C71.647 64.2446 72.196 64.5474 72.6446 64.9641C73.4952 65.8474 74.3255 66.8239 75.1914 67.7415Z" fill="black"/>
<path id="Vector_84" d="M73.75 72.4816L72.5683 71.0095C72.1608 70.5188 71.7991 70.0281 71.356 69.5374C70.8906 69.0699 70.3109 68.7223 69.67 68.5266C69.0227 68.3307 68.3355 68.2902 67.6682 68.4088C67.327 68.4726 67.0417 68.5462 66.7361 68.5756C66.4317 68.6125 66.1237 68.6125 65.8192 68.5756C65.2122 68.505 64.6347 68.2835 64.1435 67.9328C63.8985 67.7597 63.6747 67.5606 63.4762 67.3391L62.865 66.6177C62.4446 66.0956 61.9017 65.6768 61.2808 65.3959C60.6492 65.1261 59.9575 65.0131 59.2689 65.0671C58.9349 65.0939 58.6042 65.1497 58.2807 65.2339C57.9836 65.3052 57.6799 65.3479 57.374 65.3615C56.7632 65.378 56.1576 65.2482 55.6117 64.9837C55.0642 64.7089 54.5887 64.318 54.2211 63.8403C53.8297 63.3128 53.3217 62.8754 52.7338 62.5596C52.1404 62.2534 51.4764 62.0964 50.8033 62.1032C50.1502 62.1483 49.5053 62.2702 48.883 62.4664L47.0136 62.9571L48.9136 62.5939C49.5306 62.4368 50.1652 62.3528 50.8033 62.3437C51.4276 62.3613 52.0372 62.53 52.5759 62.8344C53.1098 63.1451 53.5642 63.5678 53.9053 64.071C54.29 64.6162 54.8093 65.0609 55.4166 65.3649C56.0238 65.669 56.6999 65.8229 57.3842 65.813C57.7274 65.8039 58.0688 65.7611 58.4029 65.6854C58.7038 65.6117 59.0105 65.5625 59.3198 65.5382C59.9264 65.4995 60.5335 65.6057 61.0873 65.8473C61.6434 66.0909 62.1307 66.4594 62.5084 66.922L63.1349 67.6384C63.8086 68.3975 64.7541 68.8845 65.7836 69.0025C66.1219 69.0422 66.464 69.0422 66.8023 69.0025C67.1385 68.9584 67.4747 68.8602 67.765 68.7964C68.3722 68.6643 69.004 68.6799 69.6033 68.8418C70.2027 69.0037 70.7508 69.3068 71.1981 69.7239C72.0742 70.5875 72.9045 71.564 73.75 72.4816Z" fill="black"/>
<path id="Vector_85" d="M91.9697 26.6453L90.7931 25.1732C90.3856 24.6825 90.024 24.1918 89.5757 23.7011C89.1121 23.2316 88.5318 22.8837 87.8898 22.6902C87.2432 22.4993 86.5589 22.459 85.8931 22.5725C85.5841 22.6459 85.2712 22.7033 84.9558 22.7442C84.6528 22.7761 84.3471 22.7761 84.0441 22.7442C83.4382 22.6693 82.8618 22.4482 82.3683 22.1014C82.1198 21.9306 81.8955 21.7294 81.701 21.5027L81.0898 20.7863C80.6699 20.2616 80.1247 19.8425 79.5006 19.5645C78.8717 19.2914 78.1812 19.1766 77.4937 19.2308C77.1595 19.2587 76.8288 19.3162 76.5055 19.4025C76.207 19.4746 75.9014 19.5157 75.5938 19.5252C74.9825 19.5455 74.376 19.4154 73.8314 19.1474C73.2863 18.8734 72.8127 18.4842 72.4459 18.0089C72.056 17.48 71.5477 17.0423 70.9586 16.7282C70.3659 16.4201 69.7015 16.263 69.0281 16.2718C68.3817 16.32 67.7437 16.4436 67.1282 16.6399L65.2588 17.1306L67.1282 16.7478C67.7447 16.5883 68.3796 16.5042 69.0179 16.4976C69.6421 16.5157 70.2515 16.6845 70.7905 16.9883C71.3245 17.299 71.7789 17.7217 72.1199 18.2248C72.5038 18.7694 73.0223 19.2134 73.6288 19.5167C74.2353 19.8199 74.9106 19.9729 75.5938 19.9619C75.9368 19.9542 76.2781 19.9131 76.6125 19.8392C76.9121 19.76 77.2193 19.7107 77.5294 19.692C78.1346 19.6489 78.7412 19.7553 79.2917 20.0012C79.8465 20.2379 80.3339 20.5997 80.7129 21.0562L81.3394 21.7726C81.5636 22.0222 81.8184 22.2447 82.0983 22.4351C82.6555 22.8202 83.3064 23.0602 83.988 23.1319C84.3261 23.176 84.6687 23.176 85.0068 23.1319C85.33 23.082 85.6498 23.0131 85.9644 22.9258C86.5728 22.7956 87.2052 22.8126 87.8052 22.9753C88.4051 23.138 88.9539 23.4413 89.4026 23.8581C90.2736 24.7561 91.1038 25.7326 91.9697 26.6453Z" fill="black"/>
<path id="Vector_86" d="M90.5586 31.3855L89.3769 29.9134C88.9694 29.4227 88.6077 28.932 88.1646 28.4413C87.6986 27.978 87.1213 27.6325 86.4837 27.4354C85.8355 27.2434 85.1489 27.2047 84.4819 27.3225C84.1406 27.3863 83.8554 27.4599 83.5498 27.4893C83.2451 27.5212 82.9377 27.5212 82.6329 27.4893C82.0259 27.4187 81.4484 27.1972 80.9571 26.8465C80.7109 26.6731 80.4869 26.4722 80.2899 26.2479L79.6786 25.5314C79.2583 25.0093 78.7154 24.5905 78.0945 24.3096C77.4642 24.0411 76.7749 23.9265 76.0876 23.9759C75.7522 24.0063 75.4199 24.0637 75.0944 24.1476C74.7976 24.2197 74.4936 24.2608 74.1877 24.2703C73.5763 24.2921 72.9694 24.162 72.4253 23.8925C71.8774 23.6206 71.4017 23.2311 71.0348 22.754C70.6462 22.224 70.1376 21.7861 69.5474 21.4733C68.9567 21.1652 68.2938 21.0081 67.6221 21.017C66.9673 21.0616 66.3206 21.1835 65.6967 21.3801L63.8273 21.8708L65.7272 21.5077C66.3438 21.3482 66.9786 21.2641 67.617 21.2574C68.2413 21.2743 68.8511 21.4431 69.3895 21.7481C69.9115 22.0547 70.3568 22.4686 70.6935 22.9601C71.0778 23.5054 71.5972 23.9498 72.2046 24.2531C72.8121 24.5564 73.4884 24.7091 74.1724 24.6972C74.5156 24.6922 74.8572 24.6511 75.1912 24.5746C75.4914 24.4985 75.7984 24.4492 76.108 24.4273C76.7148 24.3862 77.3225 24.4925 77.8755 24.7365C78.4316 24.9801 78.9189 25.3486 79.2966 25.8111L79.9231 26.5276C80.5968 27.2867 81.5424 27.7737 82.5718 27.8917C82.9101 27.9314 83.2522 27.9314 83.5905 27.8917C83.9267 27.8475 84.2629 27.7494 84.5532 27.6856C85.1604 27.5535 85.7922 27.569 86.3915 27.731C86.9909 27.8929 87.539 28.196 87.9863 28.613C88.8522 29.4963 89.6825 30.4728 90.5586 31.3855Z" fill="black"/>
<path id="Vector_87" d="M89.1328 36.1305L87.9511 34.6584C87.5436 34.1677 87.187 33.677 86.7388 33.1863C86.2725 32.7188 85.6933 32.3698 85.0528 32.1705C84.4064 31.9788 83.7214 31.9401 83.0561 32.0577C82.7149 32.1215 82.4296 32.1951 82.1189 32.2245C81.8162 32.2614 81.5099 32.2614 81.2072 32.2245C80.2924 32.1077 79.4564 31.6647 78.8641 30.983L78.2529 30.2666C77.8316 29.7433 77.2868 29.3244 76.6636 29.0448C76.0338 28.775 75.3437 28.662 74.6568 28.716C74.3228 28.7424 73.992 28.7982 73.6686 28.8828C73.3698 28.9541 73.0644 28.9968 72.7568 29.0104C72.146 29.0265 71.5406 28.8967 70.9945 28.6326C70.4499 28.3558 69.9765 27.9652 69.609 27.4892C69.2168 26.9623 68.709 26.5251 68.1217 26.2085C67.5281 25.9027 66.8642 25.7457 66.1912 25.7521C65.538 25.7967 64.8931 25.9187 64.2709 26.1153L62.4015 26.606L64.3015 26.2428C64.9168 26.0861 65.5497 26.002 66.1861 25.9926C66.8119 26.0102 67.4232 26.1789 67.9638 26.4833C68.4977 26.794 68.9521 27.2167 69.2932 27.7199C69.6764 28.2654 70.1947 28.7103 70.8013 29.0144C71.4078 29.3186 72.0834 29.4723 72.767 29.4619C73.1102 29.4525 73.4515 29.4098 73.7858 29.3343C74.0864 29.2598 74.3932 29.2106 74.7026 29.1871C75.3076 29.148 75.9131 29.2542 76.465 29.4962C77.0211 29.7398 77.5084 30.1083 77.8861 30.5708L78.5126 31.2873C78.7368 31.5369 78.9917 31.7593 79.2716 31.9497C79.8295 32.3342 80.4798 32.5757 81.1613 32.6514C81.4996 32.6907 81.8417 32.6907 82.18 32.6514C82.5111 32.6073 82.8524 32.5091 83.1376 32.4453C83.7456 32.3137 84.378 32.3295 84.9781 32.4913C85.5782 32.6532 86.1272 32.9561 86.5758 33.3728C87.4366 34.2364 88.2669 35.2129 89.1328 36.1305Z" fill="black"/>
</g>
<g id="freepik--Emails--inject-6">
<path id="Vector_88" d="M38.2684 38.0881L65.6924 31.4194L59.8347 9.0728L43.9274 4.01855L32.4107 15.7415L38.2684 38.0881Z" fill="#FFB445"/>
<path id="Vector_89" opacity="0.2" d="M38.2684 38.0881L65.6924 31.4194L59.8347 9.0728L43.9274 4.01855L32.4107 15.7415L38.2684 38.0881Z" fill="black"/>
<path id="Vector_90" d="M39.3631 36.0029L63.6953 30.0899L55.8155 0L37.7485 4.39179L32.9859 11.6493L39.3631 36.0029Z" fill="white"/>
<path id="Vector_91" d="M37.7484 4.3916L32.9858 11.6491L39.251 10.123L37.7484 4.3916Z" fill="white"/>
<path id="Vector_92" d="M45.6746 10.1381C44.9316 10.3017 44.2294 10.6052 43.6084 11.0311C42.9874 11.457 42.46 11.9969 42.0562 12.6197C41.6525 13.2426 41.3805 13.9361 41.2558 14.6606C41.1311 15.385 41.1563 16.126 41.3298 16.8411C41.5321 17.7056 41.9421 18.5123 42.5268 19.1965C42.9853 19.6789 43.6058 19.9899 44.279 20.0748C44.391 20.0764 44.5027 20.0615 44.6101 20.0307C44.7889 19.9984 44.9568 19.9248 45.0997 19.8162C45.2425 19.7077 45.3559 19.5674 45.4301 19.4075C45.5407 19.1531 45.5673 18.8722 45.5065 18.6027L45.3792 18.0728C45.7044 18.3098 46.079 18.4763 46.4772 18.561C46.8755 18.6457 47.288 18.6465 47.6866 18.5635C48.4722 18.3661 49.1469 17.8813 49.5672 17.2121C49.9875 16.5429 50.1201 15.7421 49.937 14.9801C49.7539 14.2181 49.2693 13.555 48.5865 13.1319C47.9037 12.7087 47.0765 12.5589 46.2808 12.7143C45.5072 12.9103 44.8459 13.3939 44.442 14.059C44.0381 14.7241 43.9245 15.5164 44.1262 16.2621L44.1567 16.3847V16.4633L44.717 18.7058C44.7499 18.8247 44.7499 18.9499 44.717 19.0689C44.6865 19.1425 44.6152 19.2063 44.4522 19.2406L44.3248 19.2701C43.8812 19.2198 43.4745 19.0072 43.1889 18.6763C42.6813 18.0976 42.3311 17.4061 42.1702 16.6644C41.9483 15.7364 42.0171 14.7658 42.3679 13.8755C42.7187 12.9851 43.3358 12.215 44.141 11.6626C44.9462 11.1102 45.9034 10.8003 46.8916 10.7721C47.8797 10.7439 48.8543 10.9987 49.692 11.5042C50.5298 12.0097 51.1931 12.7433 51.598 13.6121C52.0029 14.4809 52.1312 15.4458 51.9667 16.3849C51.8021 17.324 51.3522 18.1949 50.6737 18.8875C49.9953 19.5802 49.1188 20.0634 48.1552 20.276C47.7519 20.3811 47.3352 20.4306 46.9175 20.4232C46.6933 20.4232 46.4896 20.5655 46.5253 20.7863C46.5192 20.8376 46.5249 20.8896 46.5419 20.9385C46.5589 20.9874 46.5869 21.0322 46.6238 21.0696C46.6607 21.107 46.7056 21.1362 46.7555 21.1551C46.8053 21.174 46.8589 21.1821 46.9124 21.1789C47.736 21.1961 48.5539 21.0442 49.312 20.7334C50.07 20.4226 50.7506 19.96 51.3088 19.3763C51.8669 18.7926 52.2898 18.1012 52.5492 17.348C52.8087 16.5947 52.8988 15.7969 52.8136 15.0075C52.7284 14.2182 52.4698 13.4553 52.055 12.7696C51.6402 12.0839 51.0787 11.4911 50.4078 11.0306C49.737 10.57 48.972 10.2522 48.1639 10.0983C47.3557 9.94447 46.5228 9.95802 45.7205 10.1381H45.6746ZM47.493 17.7096C46.9218 17.8164 46.3298 17.7008 45.8468 17.3881C45.3638 17.0754 45.029 16.5912 44.9157 16.0412C44.7676 15.5007 44.8444 14.9259 45.1299 14.4392C45.4153 13.9524 45.8868 13.5924 46.4438 13.4356C47.0134 13.3379 47.6 13.4603 48.0767 13.7762C48.5533 14.0921 48.8817 14.5762 48.9906 15.1236C49.1475 15.6579 49.078 16.2303 48.7972 16.7151C48.5164 17.2 48.0474 17.5577 47.493 17.7096Z" fill="#999999"/>
<path id="Vector_93" d="M33.8777 21.3356L38.2684 38.0882L65.6924 31.4195L61.3017 14.6768C60.283 15.6042 59.3101 16.5611 58.3168 17.5032C57.3236 18.4454 56.3456 19.412 55.3727 20.3738C54.2827 21.437 53.1995 22.5133 52.123 23.6026H52.0772H52.1179C51.3097 24.4107 50.5015 25.2285 49.6933 26.0562C48.5829 25.7078 47.4725 25.3594 46.3621 25.0208V24.9864L46.3265 25.0159C44.8459 24.5546 43.362 24.1015 41.8747 23.6566C40.5435 23.2575 39.2107 22.8666 37.8762 22.4838C36.5671 22.0815 35.2224 21.6889 33.8777 21.3356Z" fill="#FFB445"/>
<g id="Group_2" opacity="0.2">
<path id="Vector_94" d="M33.8778 21.3356C35.1817 21.8263 36.501 22.2582 37.81 22.7243C39.1191 23.1905 40.4383 23.6223 41.7576 24.059C43.0768 24.4958 44.5132 24.9668 45.8936 25.4134L46.0209 25.4576L49.6883 26.6303L49.8666 26.6843L49.9939 26.5567L52.6426 23.848L52.7343 23.7499C53.7326 22.7292 54.7242 21.7004 55.709 20.6634C56.6513 19.682 57.5936 18.7006 58.5257 17.6897C59.4579 16.6789 60.39 15.6877 61.3018 14.667C60.283 15.5944 59.3102 16.5513 58.3169 17.4934C57.3237 18.4356 56.3457 19.4023 55.3728 20.3641C54.2828 21.4272 53.1995 22.5035 52.1231 23.5929C51.3149 24.4009 50.5067 25.2187 49.6985 26.0464C48.5881 25.698 47.4777 25.3496 46.3673 25.011C44.8867 24.5497 43.4028 24.0967 41.9155 23.6518C40.5843 23.2527 39.2515 22.8617 37.917 22.479C36.5672 22.0815 35.2225 21.689 33.8778 21.3356Z" fill="black"/>
<path id="Vector_95" d="M52.0766 23.5786H52.1173L52.6267 23.8289C53.4553 24.2182 54.3042 24.5846 55.1735 24.928C56.1922 25.3599 57.267 25.7573 58.3265 26.1499C59.3859 26.5425 60.4454 26.9448 61.5252 27.2687C62.6051 27.5926 63.6849 27.9459 64.7852 28.2501C63.7664 27.7594 62.7477 27.3031 61.6933 26.8761C60.639 26.4492 59.5948 26.0518 58.5404 25.6592C57.486 25.2666 56.4164 24.8986 55.3365 24.5551C54.4808 24.2754 53.6149 24.0104 52.7388 23.7749L52.1275 23.6179L52.0766 23.5786Z" fill="black"/>
<path id="Vector_96" d="M37.4892 34.8594C38.3246 34.1135 39.1192 33.3235 39.8883 32.5286C40.6575 31.7336 41.4164 30.9191 42.1652 30.0996C42.9139 29.2801 43.6372 28.4361 44.3401 27.5823C44.9157 26.8904 45.4811 26.1838 46.021 25.4575C46.1382 25.3054 46.2502 25.1484 46.3623 24.9963V24.9619L46.3266 24.9914L45.8682 25.4134C45.2111 26.0218 44.5846 26.6499 43.9632 27.2878C43.1839 28.0828 42.4351 28.8974 41.6915 29.7414C40.9478 30.5854 40.2194 31.3999 39.5165 32.2587C38.8136 33.1174 38.1412 33.9565 37.4892 34.8594Z" fill="black"/>
</g>
<path id="Vector_97" d="M0.549744 79.3809L22.3147 85.4165L27.6172 67.6776L18.7186 58.0059L5.8471 61.642L0.549744 79.3809Z" fill="#FFB445"/>
<path id="Vector_98" opacity="0.2" d="M0.549744 79.3809L22.3147 85.4165L27.6172 67.6776L18.7186 58.0059L5.8471 61.642L0.549744 79.3809Z" fill="black"/>
<path id="Vector_99" d="M2.18092 78.3655L21.4959 83.719L28.627 59.8365L14.2884 55.8618L7.95707 59.0318L2.18092 78.3655Z" fill="white"/>
<path id="Vector_100" d="M14.2881 55.8618L7.95672 59.0318L12.9281 60.4106L14.2881 55.8618Z" fill="white"/>
<path id="Vector_101" d="M17.3693 62.9133C16.6085 62.6952 15.8028 62.6666 15.0275 62.8303C14.2521 62.9939 13.5326 63.3443 12.9361 63.8488C12.3397 64.3533 11.8858 64.9953 11.6171 65.7148C11.3484 66.4343 11.2735 67.2077 11.3996 67.9626C11.5241 68.4699 11.8285 68.9195 12.2604 69.2336C12.336 69.2786 12.4185 69.3117 12.5049 69.3317C12.6416 69.3791 12.7882 69.3936 12.932 69.3739C13.0758 69.3542 13.2125 69.301 13.3301 69.2188C13.5125 69.0857 13.6492 68.9027 13.7223 68.6938L13.8547 68.2767C13.9829 68.5656 14.1745 68.8244 14.4163 69.0353C14.658 69.2462 14.9443 69.4042 15.2554 69.4985C15.8814 69.666 16.5504 69.5918 17.1204 69.2917C17.6904 68.9915 18.1165 68.4891 18.3082 67.8912C18.4998 67.2932 18.4419 66.6468 18.1467 66.0893C17.8516 65.5318 17.3425 65.1072 16.7275 64.9056C16.1108 64.741 15.4516 64.8185 14.8942 65.1211C14.3367 65.4236 13.9263 65.9266 13.7528 66.52L13.7223 66.6181V66.6819L13.1467 68.4779C13.1156 68.5708 13.0614 68.6551 12.9888 68.7232C12.9494 68.7426 12.9057 68.7527 12.8614 68.7527C12.8172 68.7527 12.7735 68.7426 12.7341 68.7232L12.6271 68.6938C12.3498 68.4828 12.1674 68.177 12.1178 67.84C11.9994 67.241 12.0415 66.6229 12.24 66.044C12.4753 65.3166 12.9291 64.6728 13.5442 64.1939C14.1592 63.7151 14.9079 63.4227 15.6954 63.3537C16.483 63.2847 17.2741 63.4423 17.9687 63.8064C18.6634 64.1706 19.2303 64.725 19.5979 65.3995C19.9654 66.0741 20.1171 66.8385 20.0337 67.5961C19.9503 68.3537 19.6356 69.0705 19.1293 69.6557C18.6231 70.241 17.9481 70.6686 17.1896 70.8843C16.4312 71.1 15.6234 71.0942 14.8683 70.8676C14.5456 70.7821 14.2369 70.6533 13.9515 70.4849C13.9177 70.4615 13.8791 70.4456 13.8383 70.4381C13.7975 70.4307 13.7555 70.4319 13.7152 70.4417C13.675 70.4515 13.6374 70.4697 13.6052 70.495C13.573 70.5202 13.5469 70.5519 13.5287 70.5879C13.5024 70.6203 13.4841 70.658 13.4749 70.6982C13.4658 70.7383 13.4661 70.78 13.4759 70.82C13.4856 70.86 13.5046 70.8974 13.5314 70.9294C13.5582 70.9615 13.5921 70.9873 13.6306 71.005C13.9564 71.2017 14.3074 71.3568 14.6748 71.4663C15.2584 71.6403 15.8719 71.7018 16.4802 71.6474C17.0885 71.593 17.6797 71.4237 18.2201 71.1491C19.3114 70.5947 20.1295 69.6453 20.4942 68.5098C20.6748 67.9475 20.7387 67.3565 20.6822 66.7705C20.6257 66.1845 20.45 65.6149 20.165 65.0943C19.8801 64.5737 19.4914 64.1123 19.0213 63.7364C18.5513 63.3605 18.0089 63.0775 17.4253 62.9035L17.3693 62.9133ZM15.4592 68.8606C15.0196 68.7125 14.6587 68.4028 14.4554 67.9991C14.2522 67.5955 14.223 67.1308 14.3742 66.7064C14.4364 66.4965 14.5416 66.3006 14.6837 66.1305C14.8257 65.9603 15.0017 65.8194 15.2012 65.7158C15.4008 65.6123 15.6199 65.5484 15.8455 65.5278C16.0711 65.5072 16.2988 65.5304 16.5149 65.596C16.7311 65.6616 16.9315 65.7683 17.1041 65.9097C17.2768 66.0511 17.4183 66.2245 17.5202 66.4195C17.6222 66.6145 17.6826 66.8272 17.6977 67.045C17.7129 67.2629 17.6827 67.4815 17.6087 67.6878C17.485 68.1179 17.1891 68.4831 16.786 68.703C16.3829 68.9229 15.9057 68.9796 15.4592 68.8606Z" fill="#999999"/>
<path id="Vector_102" d="M4.52254 66.083L0.549528 79.3811L22.3043 85.4167L26.2773 72.1187C25.1924 72.3689 24.1126 72.6486 23.0327 72.9185C21.9529 73.1884 20.8679 73.4681 19.7932 73.7576C18.5911 74.0717 17.3941 74.4004 16.192 74.739V74.7685L13.4924 75.5094C12.871 74.8372 12.2495 74.1649 11.623 73.5024C11.623 73.5024 11.623 73.5024 11.6536 73.5024H11.6078C10.7724 72.6094 9.93535 71.7196 9.09661 70.833C8.34275 70.0446 7.5838 69.2562 6.81976 68.4678C6.06081 67.6434 5.30186 66.8534 4.52254 66.083Z" fill="#FFB445"/>
<g id="Group_3" opacity="0.2">
<path id="Vector_103" d="M4.52254 66.083C5.22036 66.9221 5.94875 67.7416 6.65676 68.5709C7.36477 69.4002 8.10334 70.2147 8.83173 71.0244C9.56011 71.8341 10.3598 72.7222 11.129 73.5662L11.1952 73.6496L13.2326 75.8823L13.3345 75.9903L13.4771 75.951L16.4416 75.1021L16.5486 75.0727C17.6692 74.7537 18.7846 74.4299 19.9001 74.0913C21.0156 73.7527 22.0293 73.4534 23.0938 73.1099C24.1584 72.7664 25.223 72.4523 26.2773 72.099C25.1924 72.3493 24.1126 72.629 23.0327 72.8989C21.9529 73.1688 20.8679 73.4485 19.7932 73.738C18.5911 74.052 17.3941 74.3808 16.192 74.7194L13.4924 75.4603C12.871 74.7881 12.2495 74.1158 11.623 73.4534C10.7877 72.5603 9.95063 71.6705 9.11189 70.7839C8.35803 69.9955 7.59908 69.2072 6.83504 68.4188C6.06081 67.6434 5.30186 66.8534 4.52254 66.083Z" fill="black"/>
<path id="Vector_104" d="M16.1919 74.7046V74.734L16.4466 75.107C16.8643 75.7007 17.2922 76.2847 17.7404 76.8539C18.2803 77.5556 18.8457 78.2376 19.4111 78.9246C19.9765 79.6116 20.5623 80.2692 21.1633 80.9267C21.7643 81.5842 22.3756 82.232 23.0225 82.8503C22.5131 82.1093 22.0037 81.3782 21.4536 80.701C20.9035 80.0238 20.3483 79.3123 19.7829 78.6351C19.2175 77.9579 18.6267 77.2808 18.0256 76.6232C17.5519 76.1031 17.0629 75.578 16.5536 75.0775L16.197 74.7291L16.1919 74.7046Z" fill="black"/>
<path id="Vector_105" d="M1.36584 76.8443C2.25213 76.6529 3.13332 76.4174 3.99923 76.1671C4.86515 75.9169 5.73106 75.6421 6.59188 75.3673C7.4527 75.0925 8.30333 74.7883 9.13868 74.4693C9.82632 74.2141 10.514 73.9492 11.1761 73.6547L11.6091 73.4683C11.6091 73.4683 11.6091 73.4683 11.6396 73.4683H11.6091L11.0997 73.5811C10.3917 73.748 9.69389 73.9393 8.99606 74.1405C8.12506 74.3908 7.26424 74.6607 6.40852 74.9404C5.55279 75.2201 4.69706 75.5194 3.86171 75.8384C3.02636 76.1573 2.19101 76.4714 1.36584 76.8443Z" fill="black"/>
</g>
<path id="Vector_106" d="M100.3 18.9337L101.175 30.7837L81.7764 32.1134L80.9012 20.2635L100.3 18.9337Z" fill="#FFB445"/>
<path id="Vector_107" opacity="0.2" d="M80.8813 20.2712C81.7167 20.9386 82.5673 21.5765 83.4281 22.234C84.2889 22.8916 85.1243 23.5148 85.9749 24.1478C86.8255 24.7808 87.7577 25.4629 88.6491 26.1106L88.7255 26.1744L91.0685 27.882L91.1857 27.9654L91.2875 27.8673L93.381 25.8456C93.4073 25.8235 93.4312 25.7988 93.4523 25.772C94.2418 25.0114 95.0313 24.241 95.8107 23.4608C96.59 22.6806 97.3082 21.9887 98.0519 21.2232C98.7955 20.4577 99.5341 19.7167 100.268 18.9414C99.4781 19.6137 98.7089 20.3203 97.9296 21.0122C97.1503 21.7041 96.4015 22.4156 95.6171 23.1271C94.7614 23.9155 93.9124 24.7137 93.0703 25.5217L91.1551 27.3275C90.442 26.8368 89.7187 26.302 89.0005 25.8014C88.0378 25.1243 87.0802 24.4471 86.1124 23.7797C85.2516 23.186 84.3806 22.5922 83.5147 22.0083C82.6488 21.4244 81.7727 20.8306 80.8813 20.2712Z" fill="black"/>
<path id="Vector_108" opacity="0.2" d="M93.0709 25.7915H93.0964L93.4223 26.0222C93.9317 26.3804 94.4411 26.7288 94.9963 27.0624C95.6483 27.4746 96.3104 27.8623 96.9777 28.2549C97.645 28.6474 98.3224 29.0105 99.0151 29.3688C99.7079 29.727 100.39 30.0803 101.104 30.3943C100.477 29.938 99.8301 29.516 99.1832 29.1087C98.5363 28.7014 97.864 28.3039 97.1967 27.9163C96.5295 27.5286 95.852 27.1557 95.1593 26.7975C94.6143 26.508 94.059 26.2283 93.4988 25.9682L93.1014 25.7866L93.0709 25.7915Z" fill="black"/>
<path id="Vector_109" opacity="0.2" d="M81.7883 31.7389C82.4453 31.3267 83.082 30.8851 83.7035 30.4386C84.3249 29.992 84.9412 29.5259 85.5474 29.0548C86.1535 28.5837 86.7545 28.1028 87.3352 27.5827C87.814 27.1803 88.2826 26.7681 88.736 26.3412L89.0263 26.0664H89.0518H89.0212C88.899 26.1449 88.7767 26.2185 88.6595 26.3019C88.1502 26.6356 87.6408 26.9889 87.1315 27.3471C86.51 27.7937 85.8988 28.2598 85.2927 28.7309C84.6865 29.202 84.0906 29.6829 83.5048 30.203C82.919 30.7232 82.3435 31.1992 81.7883 31.7389Z" fill="black"/>
<path id="Vector_110" d="M2.399 22.5487L15.9453 23.2212L15.5026 31.4982L1.95624 30.8257L2.399 22.5487Z" fill="#FFB445"/>
<path id="Vector_111" opacity="0.2" d="M2.39938 22.5527C2.90874 23.0876 3.45374 23.5979 3.97839 24.1181C4.50303 24.6382 5.03786 25.1486 5.57269 25.654C6.10752 26.1594 6.68819 26.709 7.24849 27.234C7.26417 27.2516 7.2812 27.268 7.29943 27.2831L8.78676 28.6669L8.86316 28.7307L8.93957 28.6718L10.5899 27.4352L10.6459 27.3911C11.2622 26.9004 11.8735 26.4587 12.4847 25.9827C13.096 25.5068 13.6512 25.0749 14.2318 24.6186C14.8125 24.1622 15.3932 23.6961 15.9688 23.2152C15.3626 23.6225 14.7667 24.0445 14.1707 24.4616L12.3778 25.7325C11.7156 26.2232 11.0534 26.7139 10.3963 27.2046L8.90901 28.2989C8.46078 27.8867 8.00744 27.4696 7.55411 27.0623L5.73569 25.4283C5.18897 24.9441 4.64056 24.4632 4.09045 23.9856C3.50468 23.5096 2.94949 23.0189 2.39938 22.5527Z" fill="black"/>
<path id="Vector_112" opacity="0.2" d="M10.3455 27.3819L10.5492 27.5634C10.8701 27.8579 11.2063 28.1425 11.5679 28.4124C11.9805 28.7559 12.4084 29.0797 12.8363 29.3938C13.2641 29.7078 13.6971 30.0268 14.1402 30.331C14.5834 30.6352 15.0265 30.9346 15.4951 31.2143C15.0978 30.8462 14.6903 30.5028 14.2777 30.1642C13.8652 29.8256 13.4322 29.5017 13.0094 29.1828C12.5867 28.8638 12.1435 28.5448 11.7004 28.2406C11.3489 27.9953 10.9924 27.7499 10.6256 27.5291L10.3658 27.3721L10.3455 27.3819Z" fill="black"/>
<path id="Vector_113" opacity="0.2" d="M2.00218 30.5662C2.51154 30.3404 2.97505 30.0755 3.44367 29.8252C3.91228 29.5749 4.38089 29.2952 4.84441 29.0204C5.30793 28.7456 5.76126 28.461 6.20949 28.1617C6.57623 27.9262 6.93788 27.671 7.28934 27.4207L7.51855 27.2539L7.2435 27.3864C6.85638 27.5729 6.47436 27.779 6.09743 27.9851C5.62373 28.2451 5.16021 28.515 4.70179 28.7947C4.24336 29.0744 3.77984 29.3541 3.33161 29.6485C2.88337 29.943 2.44023 30.2423 2.00218 30.5662Z" fill="black"/>
<path id="Vector_114" d="M94.1137 29.1093L99.8848 35.2559L89.8252 44.0217L84.0541 37.8751L94.1137 29.1093Z" fill="white"/>
<path id="Vector_115" d="M89.8264 44.0114L94.8945 39.7276L99.9881 35.3652L100.11 35.2573L99.9983 35.1395L94.2476 28.9763L94.1203 28.8389L93.9776 28.9615C90.6413 31.9058 87.2795 34.8156 83.9636 37.7942L83.8719 37.8776L83.9534 37.9659C85.9246 40.0073 87.9061 42.0093 89.8264 44.0114ZM89.8264 44.0114C87.901 41.9161 86.0367 39.8208 84.147 37.7844V37.9512C87.5393 35.0708 90.8909 32.1413 94.2578 29.2363H93.9878L99.7793 35.3652V35.1444L94.8232 39.5607L89.8264 44.0114Z" fill="#999999"/>
<path id="Vector_116" opacity="0.2" d="M84.0542 37.8624C84.8132 37.8624 85.5823 37.8624 86.3209 37.8968H88.5723C89.3567 37.8968 90.136 37.8968 90.9153 37.8674H90.9917L93.0597 37.8281H93.1565V37.7349L93.401 35.7721C93.401 35.7721 93.401 35.7279 93.401 35.7034C93.4927 34.9575 93.5844 34.2312 93.6659 33.4559C93.7474 32.6806 93.8238 32.0231 93.8951 31.3017C93.9664 30.5804 94.0377 29.8542 94.0938 29.1279C93.9613 29.8247 93.8544 30.5313 93.7321 31.233C93.6099 31.9348 93.508 32.6463 93.4061 33.3529C93.289 34.1429 93.1769 34.933 93.0699 35.7328C92.9833 36.3265 92.9069 36.9203 92.8254 37.514L90.9561 37.568C90.1275 37.5942 89.2973 37.6236 88.4653 37.6564C87.7267 37.6858 86.9831 37.7152 86.2445 37.7545C85.5059 37.7937 84.7877 37.8085 84.0542 37.8624Z" fill="black"/>
<path id="Vector_117" opacity="0.2" d="M93.2128 35.8559H93.493C93.9361 35.8559 94.3793 35.8117 94.8224 35.7725C95.3623 35.7332 95.9023 35.6694 96.4422 35.6056C96.9821 35.5418 97.5169 35.4682 98.0569 35.3799C98.5968 35.2916 99.1265 35.2032 99.6562 35.0806C99.1112 35.0806 98.5713 35.1247 98.0263 35.1689C97.4813 35.2131 96.9465 35.2719 96.4065 35.3357C95.8666 35.3995 95.3318 35.4731 94.7919 35.5615C94.364 35.6302 93.9361 35.7038 93.5083 35.797L93.2128 35.8608V35.8559Z" fill="black"/>
<path id="Vector_118" opacity="0.2" d="M89.6675 43.7952C89.8457 43.3045 89.9986 42.8138 90.1361 42.2888C90.2736 41.7637 90.406 41.273 90.5334 40.7627C90.6607 40.2524 90.7677 39.742 90.8695 39.2268C90.951 38.8097 91.0275 38.3877 91.0835 37.9657C91.0835 37.8725 91.109 37.7841 91.1191 37.6958L91.0275 37.9755C90.8899 38.3779 90.7677 38.7803 90.6556 39.1826C90.513 39.6733 90.3857 40.1984 90.2634 40.7087C90.1412 41.219 90.024 41.7294 89.9272 42.2446C89.8305 42.7599 89.7286 43.2702 89.6675 43.7952Z" fill="black"/>
<path id="Vector_119" d="M23.1774 41.7976L41.1768 48.8916L36.5074 59.8869L18.508 52.7929L23.1774 41.7976Z" fill="white"/>
<path id="Vector_120" d="M18.5096 52.7948L27.4336 56.4162L36.4442 60.0375L36.597 60.0964L36.6582 59.9492L41.3545 48.9624L41.4258 48.7906L41.2475 48.7219C35.2421 46.3764 29.247 44.0063 23.2263 41.6902L23.1091 41.646L23.0633 41.754L18.5096 52.7948ZM18.5096 52.7948L23.2925 41.8472L23.1295 41.911C29.1094 44.3252 35.1148 46.6806 41.1049 49.0654L40.9979 48.825L36.3576 59.8216L36.5716 59.7333L27.5813 56.2591L18.5096 52.7948Z" fill="#999999"/>
<path id="Vector_121" opacity="0.2" d="M23.1803 41.7979C23.6235 42.7793 24.087 43.692 24.5403 44.639C24.9937 45.5861 25.4724 46.5086 25.9461 47.4409C26.4199 48.3733 26.9343 49.3792 27.4386 50.341C27.4386 50.3704 27.464 50.3999 27.4793 50.4342C27.9208 51.2815 28.3673 52.1304 28.8189 52.981L28.8852 53.1037L29.0176 53.0644L31.8293 52.1419L31.9261 52.1124C32.9855 51.7657 34.045 51.4107 35.1045 51.0476C36.1232 50.7041 37.1419 50.3508 38.1606 49.9975C39.1794 49.6442 40.1981 49.2762 41.2168 48.8934C40.1981 49.1633 39.1794 49.4675 38.1606 49.7521C37.1419 50.0368 36.1232 50.3508 35.1045 50.66C33.9788 51.0034 32.8429 51.3518 31.7121 51.715L29.1653 52.5197C28.7578 51.7542 28.3503 50.9838 27.9377 50.2281C27.391 49.2075 26.8392 48.1917 26.2823 47.1809C25.773 46.278 25.2636 45.3751 24.7542 44.482C24.2449 43.5889 23.7101 42.6811 23.1803 41.7979Z" fill="black"/>
<path id="Vector_122" opacity="0.2" d="M31.5489 51.9702V51.9948L31.7323 52.3382C32.0277 52.8829 32.3435 53.4178 32.6695 53.9428C33.0617 54.5906 33.4794 55.2236 33.8971 55.8566C34.3147 56.4896 34.7477 57.1079 35.201 57.7262C35.6544 58.3444 36.1077 58.948 36.5967 59.5369C36.2452 58.8597 35.8632 58.207 35.4659 57.574C35.0686 56.941 34.656 56.2933 34.2383 55.6603C33.8207 55.0273 33.3826 54.4041 32.9344 53.7907C32.5778 53.3 32.2111 52.8093 31.824 52.3186C31.7374 52.2058 31.6457 52.0978 31.554 51.9898L31.5489 51.9702Z" fill="black"/>
<path id="Vector_123" opacity="0.2" d="M18.7047 52.4609C19.484 52.3726 20.2328 52.2499 21.0172 52.1125C21.8016 51.9751 22.5453 51.823 23.3093 51.6659C24.0734 51.5089 24.8374 51.3224 25.576 51.1262C26.1872 50.9691 26.7985 50.8023 27.4046 50.6109L27.7917 50.4932H27.8223H27.7866L27.3537 50.5471C26.7322 50.6257 26.121 50.7287 25.5047 50.8367C24.7406 50.9691 23.9766 51.1262 23.2177 51.2881C22.4587 51.45 21.6896 51.6316 20.951 51.8279C20.2124 52.0242 19.4433 52.2155 18.7047 52.4609Z" fill="black"/>
<path id="Vector_124" d="M79.7121 61.7125L86.541 79.4116L57.5696 89.7858L50.7407 72.0866L79.7121 61.7125Z" fill="white"/>
<path id="Vector_125" d="M57.5729 89.7892L72.054 84.7006L86.5912 79.5384L86.7236 79.4942L86.6727 79.3666L79.8931 61.6522L79.8269 61.4756L79.6486 61.5443L50.7016 71.9864L50.5997 72.0257L50.6354 72.1238L54.1041 80.9859L57.5729 89.7892ZM57.5729 89.7892L54.2111 80.8878L50.8493 72.0551L50.7831 72.1925L79.781 61.8878L79.5365 61.7798L86.4078 79.4451L86.4944 79.2734L72.0591 84.4896L57.5729 89.7892Z" fill="#999999"/>
<path id="Vector_126" opacity="0.2" d="M50.7425 72.0892C52.3317 72.7467 53.9209 73.3503 55.5101 73.9931C57.0993 74.6359 58.6886 75.215 60.2829 75.8136C61.8772 76.4123 63.6039 77.0502 65.2644 77.6587L65.4172 77.7176L69.8334 79.3123L70.0473 79.3859L70.1594 79.1946C70.9132 77.886 71.6637 76.5579 72.4107 75.2101C72.4409 75.1643 72.4681 75.1168 72.4922 75.0678C73.3412 73.5662 74.1901 72.0532 75.039 70.5288C75.8404 69.0828 76.6333 67.6238 77.4178 66.1517C78.1869 64.6796 78.9815 63.2075 79.7354 61.7354C78.844 63.1044 77.9984 64.5127 77.1325 65.8965C76.2666 67.2803 75.4211 68.7033 74.5857 70.1215C73.6485 71.6917 72.7164 73.2767 71.7893 74.8764L69.6755 78.4683C68.346 77.9776 67.0064 77.5213 65.677 77.0649C63.8993 76.4466 62.1115 75.8283 60.3389 75.2248C58.7446 74.6899 57.1503 74.155 55.5509 73.6349C53.9515 73.1148 52.3572 72.5799 50.7425 72.0892Z" fill="black"/>
<path id="Vector_127" opacity="0.2" d="M71.876 75.2735H71.927L72.5229 75.4796C73.4805 75.8133 74.4432 76.1126 75.411 76.3874C76.5927 76.7358 77.7897 77.0498 78.9765 77.3688C80.1634 77.6878 81.3756 77.9478 82.5879 78.1981C83.8002 78.4484 85.0125 78.6888 86.2451 78.8655C85.0787 78.4385 83.897 78.0754 82.7152 77.727C81.5335 77.3786 80.3314 77.0695 79.1497 76.7456C77.968 76.4218 76.7455 76.1617 75.5333 75.9114C74.5706 75.7053 73.5977 75.5189 72.6146 75.3618L71.9321 75.2588L71.876 75.2735Z" fill="black"/>
<path id="Vector_128" opacity="0.2" d="M57.4256 89.1953C58.2355 88.2875 58.9995 87.3404 59.7432 86.3885C60.4869 85.4365 61.2051 84.4649 61.9182 83.4884C62.6313 82.5119 63.3087 81.5256 63.9556 80.5049C64.4955 79.6855 65.0202 78.8611 65.5143 78.0122C65.6263 77.8306 65.7282 77.649 65.8301 77.4675C65.8291 77.4544 65.8291 77.4413 65.8301 77.4282L65.7944 77.4626L65.3462 77.9533C64.7095 78.6893 64.1084 79.4254 63.5074 80.2056C62.7637 81.1625 62.0506 82.1341 61.3426 83.1106C60.6346 84.0871 59.947 85.0734 59.3052 86.094C58.6634 87.1147 58.0165 88.1403 57.4256 89.1953Z" fill="black"/>
<path id="Vector_129" d="M40.4906 66.0955L54.0303 66.8818L53.5126 75.1548L39.9729 74.3684L40.4906 66.0955Z" fill="#FFB445"/>
<path id="Vector_130" opacity="0.2" d="M40.4885 66.1025C40.9979 66.6374 41.5327 67.1526 42.0523 67.6777C42.5718 68.2027 43.1015 68.7131 43.6313 69.2283C44.161 69.7436 44.7366 70.2931 45.2918 70.8182L45.3427 70.8722L46.8199 72.2658L46.8963 72.3296L46.9727 72.2707L48.6128 71.0586L48.6689 71.0145L50.5229 69.6356C51.1104 69.1907 51.6962 68.7393 52.2802 68.2813C52.866 67.82 53.4518 67.3686 54.0273 66.8975C53.4212 67.2949 52.8202 67.7169 52.2191 68.1242C51.6181 68.5315 51.017 68.9584 50.416 69.3853C49.8149 69.8123 49.0814 70.3324 48.4193 70.8133L46.9268 71.8928C46.4786 71.4757 46.0304 71.0586 45.577 70.6464L43.7688 68.9928L42.1389 67.5207C41.5837 67.0545 41.0437 66.5638 40.4885 66.1025Z" fill="black"/>
<path id="Vector_131" opacity="0.2" d="M48.3888 70.9902L48.5875 71.1767C48.9135 71.476 49.2445 71.7606 49.5807 72.0354C49.9933 72.3789 50.4161 72.7077 50.8388 73.0168C51.2616 73.326 51.6946 73.6597 52.1326 73.9688C52.5707 74.2779 53.0189 74.5773 53.4824 74.857C53.0902 74.4889 52.6827 74.1406 52.2752 73.802C51.8677 73.4634 51.4399 73.1297 51.0171 72.8206C50.5943 72.5114 50.1563 72.1777 49.7183 71.8686C49.3668 71.6232 49.0102 71.3779 48.6486 71.1473L48.3888 70.9902Z" fill="black"/>
<path id="Vector_132" opacity="0.2" d="M40.0206 74.1109C40.53 73.8851 40.9935 73.6202 41.4672 73.3797C41.9409 73.1393 42.4096 72.8547 42.8731 72.5897C43.3366 72.3247 43.795 72.0352 44.2483 71.7408C44.6151 71.5052 44.9818 71.2501 45.3333 71.0047L45.5625 70.8428L45.2874 70.9704C44.9003 71.1568 44.5183 71.358 44.1363 71.5641C43.6643 71.8193 43.1957 72.0843 42.7305 72.359C42.2669 72.6338 41.8085 72.9135 41.3603 73.2031C40.912 73.4926 40.4536 73.787 40.0206 74.1109Z" fill="black"/>
</g>
</g>
</svg>
