<svg xmlns="http://www.w3.org/2000/svg" width="287" height="306" fill="none"><path fill="#666" d="M91.596 296.571h81.18c9.71-34.06 17.52-60 17.52-60h-76.97s-9.51 25.69-21.73 60Z"/><path fill="#000" d="M160.886 296.571h1.67c4.81-16.05 9.81-32 14.71-48.07.07-.21-.26-.31-.34-.1-1 2.78-2 5.56-3 8.35-4.68 13.16-8.97 26.46-13.04 39.82Z"/><path fill="#666" d="M115.086 236.601c.09 1.61 4.38 16.34 6.6 38.38.81 8.13 1.73 15.78 2.71 21.59h107.73c10.66-32.94-5.16-60-5.16-60s-111.89-.04-111.88.03Z"/><path fill="#000" d="M136.616 273.081c-.38 5.53-.51 11.07-.44 16.6.175 2.292.195 4.594.06 6.89h1.87c.45-3.51 0-7.88 0-11.33.06-14.29 1.88-28.42 4.08-42.52a.262.262 0 0 0-.058-.175.268.268 0 0 0-.462.065 150.344 150.344 0 0 0-5.05 30.47ZM123.256 280.221c.1 2.94.9 10.77 3.21 16.35h1.61c-3.13-7.63-2.95-22.52-2.72-26 .65-10.2 1.44-19.78 3.17-30.52.06-.34-.5-.36-.57-.05-3.05 12.96-5.12 26.92-4.7 40.22ZM225.476 250.901c3.12 13.49 1.6 28-1.38 41.35-.31 1.45-.66 2.89-1 4.32h1.62c4.41-18.61 5.76-37.87-2-55.92-.1-.22-.43 0-.34.19a69.16 69.16 0 0 1 3.1 10.06Z"/><path fill="#FF6868" d="m46.626 39.85 17.7 56.34c.71 1.64-.06 3.06-1.7 3.15l-29.48 1.681a4.753 4.753 0 0 1-4.26-2.8l-17.66-56.3c-.71-1.65.06-3.06 1.7-3.15l29.4-1.68a4.75 4.75 0 0 1 4.3 2.76Z"/><path fill="#FF6868" d="m43.126 40.06 17.66 56.3c.71 1.64-.06 3.05-1.71 3.15l-29.47 1.681a4.783 4.783 0 0 1-4.27-2.8L7.686 42.08c-.71-1.64.05-3 1.7-3.14l29.48-1.69a4.78 4.78 0 0 1 4.26 2.81Z"/><path fill="#000" d="M35.196 43.13a2.51 2.51 0 1 0 5.005-.396 2.51 2.51 0 0 0-5.005.397Z"/><path fill="#FFD3C9" d="M146.596 120.961c-14.33 36.61-48.72 85.19-64.2 86.41-7.36.59-20.4 3.22-30.63-4.61-22.32-17.08-42.29-51.26-47.22-71.25-1.76-7.11 32.22-25 37.78-19.49 13 12.92 28.85 38.91 31 38.61 7.88-1.12 37.18-29 57.61-48.59 24.8-23.8 21.39 4.33 15.66 18.92ZM1.226 94.39c2.74-14.86 5.72-18.25 1.38-32-2.85-9 1.69-14.73 8.68-7.79 11.44 11.34 11.93 31.25 10.11 38.2l-20.17 1.59Z"/><path fill="#FFD3C9" d="M6.666 137.671s-7.86-19.93-6.51-36c.94-11.14 5.68-35.16 35.75-49.66 7.13-3.44 19.73-3.28 10.12 6.57-6.82 7-13.27 9.37-16.5 14.16 0 0 16 2.1 19.18 9.38a147.46 147.46 0 0 1 6.91 19.61 30.617 30.617 0 0 1-3.55 1.63s2.75 6.91-1.82 17.27l-43.58 17.04Z"/><path fill="#FFD3C9" d="M2.746 91.13c4.21-4.08 13.28-12.57 23.12-16.94 10.92-4.85 33.28-11.25 36.78-3.15 2.56 5.94-5.76 9.14-5.76 9.14s9.8-.7 10.94 5.17c1 5.35-5.54 7.44-5.54 7.44s6 .6 6 5.95c0 6.431-12.59 4.121-18.21 10.651-1.24 1.46-47.33-18.26-47.33-18.26Z"/><path fill="#000" d="M29.066 86.59c4.59-3.19 16.87-7.75 27.62-6.56.25 0 .36.22.13.24a117.757 117.757 0 0 0-27.71 6.42c-.06.03-.09-.07-.04-.1ZM34.326 97.48c4.24-2.35 17.1-6.48 28-4.91.24 0 .34.24.11.26a125.465 125.465 0 0 0-28 4.75.075.075 0 0 1-.13-.046c0-.02.007-.039.02-.053Z"/><path fill="#A9C297" d="m101.866 123.941 5.46 6.63 1.13 1.38 21.87 26.42s19.79-32.32 23.79-50.7c2.39-11 .67-17.55-4.14-18.74a6.5 6.5 0 0 0-1.09-.16c-3.11-.27-7.29 1.37-12.29 5.06-14.08 10.4-34.73 30.11-34.73 30.11Z"/><path fill="#000" d="M134.576 147.381c-1.18-2.78-13.33-19.47-23.45-30.07a.168.168 0 0 0-.119-.058.17.17 0 0 0-.126.043.17.17 0 0 0-.058.119.172.172 0 0 0 .043.126c1 1.3 21 28.11 23.36 30.14.19.17.43-.1.35-.3Z"/><path fill="#000" d="m116.326 141.481 14 16.88s19.79-32.31 23.79-50.69c2.76-12.68.07-19.42-6.5-18.91l-31.29 52.72Z" opacity=".05"/><path fill="#FEE3C5" d="M112.326 241.041c2.8 3 121.19 15.65 121.87 14.83 1.81-2.21-9.08-121.86-57.58-165.69-8.55-7.72-23.65-5.52-30.65-1.55-3.49 2-9.57 18.52-15.52 37.83-4.5 14.75-19.84 112.64-18.12 114.58Z"/><path fill="#A9C297" d="M112.326 241.041c.62.67 7 1.83 16.53 3.21l1.08.15c4.82.69 10.38 1.43 16.38 2.18l1.3.17c17.13 2.15 37.56 4.45 54.28 6.21l.54.05c18 1.9 31.53 3.14 31.76 2.86.23-.28.23-5.27-.56-13.13 0-.33-.07-.68-.1-1-1.89-18.17-7.13-51.18-17.79-83.11-.17-.52-.35-1-.52-1.55a248.475 248.475 0 0 0-11.27-27.9c-.13-.27-.25-.53-.39-.8a149.917 149.917 0 0 0-15.2-25.24c-.2-.26-.39-.51-.6-.75a91.99 91.99 0 0 0-11.15-12.19 18.175 18.175 0 0 0-3.77-2.59c-.31-.16-.63-.31-.95-.45a27.55 27.55 0 0 0-13.51-2l-1.14.12a30.605 30.605 0 0 0-11.28 3.38c-1.37.79-3.15 3.81-5.16 8.4-.1.2-.19.42-.28.64-3 7-6.59 17.44-10.08 28.79-1.23 4-3.28 14.2-5.55 26.92l-.15.86c-.79 4.39-1.6 9.09-2.41 13.93-.12.69-.24 1.37-.35 2.06-1.65 9.88-3.3 20.26-4.77 29.94-.05.39-.11.79-.18 1.17-1.24 8.28-2.34 16-3.19 22.39-.06.51-.12 1-.19 1.5-1.13 9.18-1.71 15.31-1.33 15.78Z"/><path fill="#FFD3C9" d="M188.136 106.851c19.49 40.57 45.58 141.39 49.41 156.21 2.61 10.06-49.92 20.25-51.31 13.26-1.6-8-21.69-126-19.69-168.5 1.09-23.26 14.85-14.97 21.59-.97Z"/><path fill="#FFD3C9" d="M185.586 271.671c.62 7.64 5 23.18 8.68 25.71 3.68 2.53 23.87 3.09 34 3.63 10.13.54 12.31-2.16 12.33-5.69.02-3.53-21.27-5.29-21.27-5.29s28 9.65 35.09 11.35c7.09 1.7 23.34 6.73 26 .93 1.28-2.62-3.09-5.56-3.09-5.56s6.81 2.38 8.09-1c1.46-3.85-3.93-6.29-3.93-6.29s4.28 1.1 4.54-2.09c.6-7.11-26.26-12-26.26-12s20.18 11.17 21.15 5.39c1.34-8-40.63-19.06-44.86-22.8a82.05 82.05 0 0 1-8.53-9.21l-41.94 22.92Z"/><path fill="#000" d="M240.326 297.081a3.115 3.115 0 0 0-.82-2.77 8.87 8.87 0 0 0-2.39-1.73 33.22 33.22 0 0 0-5.71-2.19c-3.95-1.23-8-2.16-12-3.43 4.225.154 8.412.85 12.46 2.07a22.847 22.847 0 0 1 5.86 2.6 7.989 7.989 0 0 1 2.38 2.27 3.25 3.25 0 0 1 .22 3.18ZM277.326 296.751c-2.89-.87-5.73-1.85-8.56-2.83s-5.65-2-8.47-3l-8.43-3.14c-2.81-1-5.61-2.08-8.45-3.09a67.903 67.903 0 0 1 8.8 2.05c2.9.82 5.74 1.82 8.57 2.84 2.83 1.02 5.62 2.14 8.37 3.35 2.75 1.21 5.5 2.4 8.17 3.82ZM250.656 277.921c2.747.324 5.467.846 8.14 1.56a78.082 78.082 0 0 1 7.92 2.49 72.153 72.153 0 0 1 7.61 3.31 58.107 58.107 0 0 1 7.16 4.18c-2.57-1-5.06-2.18-7.61-3.18-2.55-1-5.09-2-7.66-3-2.57-1-5.15-1.87-7.73-2.78-2.58-.91-5.21-1.72-7.83-2.58ZM255.196 271.351a51.059 51.059 0 0 1 12.91 3.44 50.795 50.795 0 0 1 11.71 6.45c-4.13-1.72-8.14-3.51-12.24-5.12-4.1-1.61-8.25-3.18-12.38-4.77Z"/><path fill="#FEE3C5" d="m165.536 153.461 46.82.23s-12.71-37.63-24.81-53.18c-12.1-15.55-21.81-13.5-22.89 4.8-1.08 18.3.88 48.15.88 48.15Z"/><path fill="#A9C297" d="M164.656 105.311c-.06.83-.1 1.7-.13 2.57 0 .39 0 .78-.06 1.18-.66 18.33 1.06 44.4 1.06 44.4l12.72.07h1.27l32.83.18s-5.39-16-12.47-31.38c-.24-.51-.47-1-.73-1.54-3.61-7.72-7.63-15.17-11.59-20.26-12.11-15.57-21.81-13.51-22.9 4.78Z"/><path fill="#000" d="M206.326 142.851c-3-.92-24.61-2.35-39.93-1.33a.18.18 0 1 0 0 .36c1.69.1 36.73 2 39.93 1.46.31-.01.26-.38 0-.49Z"/><path fill="#000" d="M162.566 125.081a.119.119 0 0 1 .12-.12.119.119 0 0 1 .12.12 41.97 41.97 0 0 1 1 4.84c.07.37.12.75.19 1.12.13-4 .32-7.89.53-11.81 0-.18.3-.18.29 0-.12 13.59.24 26 1.07 33.86l4.06.34a.253.253 0 0 1 .144.086.255.255 0 0 1 0 .317.255.255 0 0 1-.144.087l-5.16.18c-.22 0-1.08-11.32-.87-20.24-.28-1.29-.58-2.57-.79-3.87a32.28 32.28 0 0 1-.56-4.91ZM206.026 153.701c2.11.13 4.22.24 6.32.3h.42l-.13-.41c-.82-2.58-1.66-5.15-2.58-7.69-.92-2.54-1.85-5.09-2.85-7.6s-2-5-3.17-7.48c-1.17-2.48-2.29-4.91-3.6-7.28l3 7.56 2.88 7.56 2.88 7.57 2.87 7.62.28-.4c-2.1.01-4.21.12-6.32.25Z"/><path fill="#FFD3C9" d="M148.846 109.361c7.12 2.35 20.56-7.66 26.27-16.22.39-.59 0-25.47.4-30.4.09-1-31.67 4.82-31.67 4.82s2.15 10.62 1.35 19.22c-.08.72-3.23 20.31 3.65 22.58Z"/><path fill="#000" d="M143.836 67.55c0 .15.15.77.31 1.77.28 1.7.7 4.45.95 7.57.309 3.279.332 6.578.07 9.86-.01.229-.037.456-.08.68v.11c-.07.4-.13.94-.2 1.58.987.222 1.99.365 3 .43 16.91 1.08 24.39-19.13 26.65-26.95l-.54.05c-.83.06-1.93.19-3.25.36l-1 .14c-2.11.3-4.63.7-7.25 1.12-.86.14-1.72.27-2.6.43-1.88.33-3.78.65-5.54.94-.76.15-1.51.28-2.21.4s-1.55.27-2.26.39l-1 .18-.49.1-2.63.47-1.26.22c-.179.03-.356.07-.53.12h-.09l-.05.03Z"/><path fill="#FFD3C9" d="M181.596 26.49c3 11.13-3.86 42.76-11.93 49.6-11.72 9.91-30.37 10.28-38.68-3.66-8-13.51 1.63-54.59 10.6-60.75 13.22-9.07 35.57-1.63 40.01 14.81Z"/><path fill="#000" d="M177.006 57.45c-5.65-1.82-3.15-16.52-3.15-16.52s-6.74-4-6.65-17.76c0 0-7.28 12.27-30.83 5.05a21.003 21.003 0 0 1 4-12.23 89.091 89.091 0 0 0-8.4 11.86s-2.17-21 16.17-25c7.3-1.59 17.53.83 31.85 11.4 0 0 4.69-8.87 6.28-7.31 1.59 1.56-3.47 9.72-3.47 9.72s7.28-.9 8.18.75c.78 1.42-6.18 2-6.18 2s10 5.25 6 17.1c-3.59 10.84-11 21.85-13.8 20.94Z"/><path fill="#000" d="M182.926 18.85a12.68 12.68 0 0 1 10.86 12.81c-.11 3.53-1.64 7.09-3.32 10.15a43.792 43.792 0 0 1-6.85 8.9c-.14.15-.36-.1-.21-.25a33.52 33.52 0 0 0 5.75-8.52 30.91 30.91 0 0 0 3.24-9.3 12.168 12.168 0 0 0-9.54-13.44.182.182 0 0 1-.119-.205.182.182 0 0 1 .189-.144ZM162.496 1.96a48.664 48.664 0 0 1 11 6.45 35.475 35.475 0 0 1 8.56 8.55c.11.17-.11.37-.25.21-5.25-5.63-12.09-9.89-19-13.25-6.43-3.15-14.46-4.58-20.62 0a.106.106 0 0 1-.034.031.102.102 0 0 1-.09.003.103.103 0 0 1-.056-.07.118.118 0 0 1 .001-.046.105.105 0 0 1 .059-.067c5.68-4.92 13.86-4.47 20.43-1.81Z"/><path fill="#FFD3C9" d="M173.556 52.4s7.36-10.19 12-7.55c4.64 2.64-1 17.48-6.52 19.44a5.59 5.59 0 0 1-7.44-3.11l1.96-8.78Z"/><path fill="#000" d="M183.836 49.06c.09 0 .1.12 0 .15-3.87 1.5-5.95 5-7.42 8.71 1.16-1.4 2.73-2.16 4.62-.77.1.07 0 .23-.1.2a3.44 3.44 0 0 0-3.8 1.14 17.103 17.103 0 0 0-1.86 3c-.18.34-.8.15-.67-.25a.534.534 0 0 0 0-.08c.03-4.88 3.95-11.68 9.23-12.1ZM148.616 44.65c0-.07.14.13.13.22-.45 2.1-.6 4.59 1.19 5.63.011.005.02.013.026.023.007.01.01.021.01.033a.056.056 0 0 1-.01.033.056.056 0 0 1-.026.022c-2.31-.76-2.08-4.03-1.32-5.96Z"/><path fill="#000" d="M150.896 42.78c3.44.35 2.5 7.22-.69 6.9-3.19-.32-2.2-7.19.69-6.9ZM136.506 42.17c0-.08-.18.08-.19.17-.23 2.13-.85 4.54-2.87 5-.06 0-.07.12 0 .12 2.4-.02 3.19-3.23 3.06-5.29Z"/><path fill="#000" d="M134.906 39.69c-3.39-.73-4.6 6.1-1.46 6.77 3.14.67 4.3-6.16 1.46-6.77ZM154.116 40.85a26.368 26.368 0 0 1-2.53-1.31 4.547 4.547 0 0 1-2.33-1.82 1.47 1.47 0 0 1 .47-1.72 3.65 3.65 0 0 1 3.69.13 5.33 5.33 0 0 1 2.73 2.7 1.569 1.569 0 0 1-2.03 2.02ZM133.246 35.93a26.671 26.671 0 0 0 2.83-.34 4.62 4.62 0 0 0 2.82-.89 1.46 1.46 0 0 0 .16-1.78 3.631 3.631 0 0 0-3.49-1.17 5.27 5.27 0 0 0-3.51 1.58 1.567 1.567 0 0 0 .331 2.36c.257.163.556.246.859.24ZM148.216 63.58c-.58.43-1.18 1-2 1a5.593 5.593 0 0 1-2.21-.85c-.07 0-.15 0-.11.1a2.908 2.908 0 0 0 2.54 1.53 2.291 2.291 0 0 0 1.93-1.66c.09-.12-.04-.18-.15-.12Z"/><path fill="#000" d="M146.856 56.9a7.328 7.328 0 0 1-5.28 2.56 9.281 9.281 0 0 1-2.62-.24 3.502 3.502 0 0 1-.49-.12l-.46-.14a.528.528 0 0 1-.36-.53l.05-.22v-.19c.19-1.64.69-4.11.69-4.11-.64.22-3.88 1.17-3.72.32 1.4-7 2.95-14.84 5.82-21.54a.204.204 0 0 1 .25-.14.202.202 0 0 1 .14.25c-1.08 6.81-3.34 13.38-4.53 20.2a12.482 12.482 0 0 1 3.56-.57c.22.1-1.05 4.76-1.08 5.5a.534.534 0 0 0 0 .08c2.7.73 4.89.18 7.82-1.3.21-.13.36.04.21.19Z"/><path fill="#000" d="M140.036 58.52a8.664 8.664 0 0 0 3.07 3.14 3.86 3.86 0 0 0 2.33.47c1.76-.21 2-1.76 1.89-3.14a9.372 9.372 0 0 0-.48-2.15 11.24 11.24 0 0 1-6.81 1.68Z"/><path fill="#FFD3C9" d="M143.106 61.66a3.859 3.859 0 0 0 2.33.47c1.76-.21 2-1.76 1.89-3.14-1.85-.06-3.82.92-4.22 2.67Z"/></svg>