<svg width="300" height="92" viewBox="0 0 300 92" fill="none" xmlns="http://www.w3.org/2000/svg">
<rect x="0.5" y="0.5" width="299" height="91" rx="45.5" fill="white"/>
<path d="M37 23.08H43.32V24.46H38.48V36.02H37V23.08ZM57.86 25.68H54.32C54.02 26.16 53.68 26.66 53.32 27.14H57.14C57.4 26.72 57.64 26.18 57.86 25.68ZM53.08 28.24V30.56C54.86 30.16 55.5 29.5 55.7 28.24H53.08ZM58.78 28.24H56.98C56.72 30.02 55.92 31.02 53.54 31.56C53.46 31.36 53.28 31.06 53.08 30.82V31.1C53.08 34.08 52.78 38.46 50.88 41.5C50.66 41.28 50.08 40.9 49.76 40.8C51.56 37.88 51.78 33.92 51.78 31.1V28.9C51.54 29.12 51.32 29.32 51.06 29.54C50.84 29.24 50.42 28.84 50.1 28.66H48.8V32.32L50.76 31.7L50.96 33.06L48.8 33.78V39.8C48.8 40.62 48.6 41.02 48.1 41.26C47.64 41.5 46.88 41.56 45.62 41.54C45.56 41.18 45.38 40.58 45.18 40.16C46.04 40.18 46.84 40.18 47.06 40.16C47.3 40.16 47.4 40.1 47.4 39.8V34.22L45.02 35L44.64 33.58C45.4 33.36 46.34 33.06 47.4 32.76V28.66H44.92V27.28H47.4V23.28H48.8V27.28H50.92V27.94C52.44 26.48 53.5 24.72 54.06 23.26L55.42 23.48C55.26 23.86 55.08 24.22 54.88 24.62H58.48L58.7 24.56L59.62 25.14C59.36 25.8 58.96 26.52 58.56 27.14H62.82V28.24H60.02V29.52C60.02 29.94 60.06 30.08 60.36 30.08H61.68C61.94 30.08 62.42 30.08 62.66 30C62.68 30.34 62.68 30.66 62.74 30.96C62.54 31.06 62.1 31.06 61.72 31.06H60.06C58.98 31.06 58.78 30.56 58.78 29.5V28.24ZM60.82 38.58H55.24V39.86H60.82V38.58ZM53.9 41.54V37.7H62.18V41.5H60.82V40.76H55.24V41.54H53.9ZM54.06 36.78V35.88H62.02V36.78H54.06ZM62.02 34.12V35.02H54.06V34.12H62.02ZM58.8 32.26H63V33.24H53.2V32.26H57.44C57.24 31.78 57 31.28 56.78 30.86L57.92 30.5C58.24 31.04 58.56 31.74 58.8 32.26ZM70.88 24.94L71.86 23.96C73.72 25.24 76.1 27.12 77.24 28.38L76.18 29.48C75.08 28.24 72.76 26.28 70.88 24.94ZM79.18 30.32L80.56 29.78C81.72 32.16 82.82 35.22 83.24 37.28L81.78 37.86C81.38 35.8 80.3 32.66 79.18 30.32ZM66.76 30.3L68.2 30.58C67.88 32.92 67.26 36.3 66.44 38.42L64.96 37.8C65.82 35.76 66.48 32.64 66.76 30.3ZM69.94 28.8H71.44V38.66C71.44 39.58 71.68 39.76 72.82 39.76H76.64C77.88 39.76 78.06 39.06 78.22 35.62C78.58 35.9 79.2 36.16 79.62 36.28C79.4 40.06 78.94 41.16 76.72 41.16H72.7C70.54 41.16 69.94 40.62 69.94 38.64V28.8ZM89.56 28.84L87.64 28.96C87.3 30.7 86.92 32.4 86.6 33.8C87.2 34.3 87.84 34.88 88.48 35.46C89.4 33.14 89.54 30.8 89.56 28.84ZM91.46 38.6L90.58 39.7C90.18 39.12 89.54 38.42 88.84 37.7C88.1 39 87.08 40.28 85.66 41.44C85.46 41.16 85 40.7 84.68 40.54C86.14 39.36 87.18 38.04 87.88 36.72C87 35.84 86.04 34.98 85.18 34.22C85.58 32.88 86 31 86.36 29.04L84.94 29.12L84.78 27.74L86.6 27.66C86.82 26.16 87.02 24.66 87.14 23.34L88.44 23.4C88.32 24.7 88.1 26.14 87.86 27.58L89.56 27.5V26.1H90.82V27.44L91.82 27.38V28.68L90.82 28.76C90.8 31.04 90.62 33.76 89.48 36.42C90.28 37.2 91 37.96 91.46 38.6ZM99.22 30.42H102.56C102.56 30.42 102.56 30.9 102.54 31.1C102.2 37.5 101.92 39.88 101.22 40.66C100.82 41.14 100.44 41.28 99.76 41.34C99.16 41.4 98.06 41.38 96.88 41.32C96.86 40.88 96.68 40.28 96.42 39.86C97.62 39.98 98.76 40 99.2 40C99.58 40 99.8 39.94 100 39.74C100.54 39.22 100.84 37.14 101.12 31.78H97.52C97.9 30.28 98.36 28.06 98.7 26.08H95.7C95.6 31.8 95.2 38.16 91.54 41.6C91.32 41.28 90.82 40.84 90.46 40.62C93.9 37.48 94.18 31.4 94.24 26.08H92V24.7H100.36C100.04 26.5 99.62 28.7 99.22 30.42ZM109.56 28.84L107.64 28.96C107.3 30.7 106.92 32.4 106.6 33.8C107.2 34.3 107.84 34.88 108.48 35.46C109.4 33.14 109.54 30.8 109.56 28.84ZM111.46 38.6L110.58 39.7C110.18 39.12 109.54 38.42 108.84 37.7C108.1 39 107.08 40.28 105.66 41.44C105.46 41.16 105 40.7 104.68 40.54C106.14 39.36 107.18 38.04 107.88 36.72C107 35.84 106.04 34.98 105.18 34.22C105.58 32.88 106 31 106.36 29.04L104.94 29.12L104.78 27.74L106.6 27.66C106.82 26.16 107.02 24.66 107.14 23.34L108.44 23.4C108.32 24.7 108.1 26.14 107.86 27.58L109.56 27.5V26.1H110.82V27.44L111.82 27.38V28.68L110.82 28.76C110.8 31.04 110.62 33.76 109.48 36.42C110.28 37.2 111 37.96 111.46 38.6ZM119.22 30.42H122.56C122.56 30.42 122.56 30.9 122.54 31.1C122.2 37.5 121.92 39.88 121.22 40.66C120.82 41.14 120.44 41.28 119.76 41.34C119.16 41.4 118.06 41.38 116.88 41.32C116.86 40.88 116.68 40.28 116.42 39.86C117.62 39.98 118.76 40 119.2 40C119.58 40 119.8 39.94 120 39.74C120.54 39.22 120.84 37.14 121.12 31.78H117.52C117.9 30.28 118.36 28.06 118.7 26.08H115.7C115.6 31.8 115.2 38.16 111.54 41.6C111.32 41.28 110.82 40.84 110.46 40.62C113.9 37.48 114.18 31.4 114.24 26.08H112V24.7H120.36C120.04 26.5 119.62 28.7 119.22 30.42ZM126.78 40.26C126.06 40.26 125.46 39.7 125.46 38.88C125.46 38.04 126.06 37.46 126.78 37.46C127.5 37.46 128.1 38.04 128.1 38.88C128.1 39.7 127.5 40.26 126.78 40.26ZM132.346 40.26C131.626 40.26 131.026 39.7 131.026 38.88C131.026 38.04 131.626 37.46 132.346 37.46C133.066 37.46 133.666 38.04 133.666 38.88C133.666 39.7 133.066 40.26 132.346 40.26ZM137.913 40.26C137.193 40.26 136.593 39.7 136.593 38.88C136.593 38.04 137.193 37.46 137.913 37.46C138.633 37.46 139.233 38.04 139.233 38.88C139.233 39.7 138.633 40.26 137.913 40.26ZM155.819 26.84V25.22H145.479V26.84H155.819ZM155.819 29.54V27.92H145.479V29.54H155.819ZM157.299 24.08V30.68H144.019V24.08H157.299ZM151.599 36.9V39.62C152.319 39.7 153.119 39.74 153.959 39.74C154.699 39.74 158.839 39.74 159.859 39.72C159.659 40.06 159.419 40.7 159.339 41.14H153.899C149.879 41.14 147.339 40.5 145.719 37.8C144.939 39.36 143.899 40.6 142.599 41.56C142.399 41.3 141.819 40.74 141.499 40.5C143.579 39.16 144.839 36.92 145.379 34L146.879 34.2C146.739 34.9 146.559 35.56 146.359 36.2C147.139 38 148.419 38.92 150.139 39.38V33.36H141.939V32.02H159.499V33.36H151.599V35.58H158.199V36.9H151.599ZM179.239 26.16H172.899C172.459 26.9 171.979 27.62 171.479 28.36V41.48H169.899V30.36C167.879 32.66 165.439 34.72 162.659 36.18C162.439 35.8 161.959 35.22 161.659 34.88C165.599 32.9 169.019 29.58 170.999 26.16H162.159V24.68H179.239V26.16ZM171.879 30.46L172.979 29.5C175.299 31 178.339 33.24 179.799 34.76L178.619 35.9C177.199 34.38 174.239 32.02 171.879 30.46ZM195.819 26.84V25.22H185.479V26.84H195.819ZM195.819 29.54V27.92H185.479V29.54H195.819ZM197.299 24.08V30.68H184.019V24.08H197.299ZM191.599 36.9V39.62C192.319 39.7 193.119 39.74 193.959 39.74C194.699 39.74 198.839 39.74 199.859 39.72C199.659 40.06 199.419 40.7 199.339 41.14H193.899C189.879 41.14 187.339 40.5 185.719 37.8C184.939 39.36 183.899 40.6 182.599 41.56C182.399 41.3 181.819 40.74 181.499 40.5C183.579 39.16 184.839 36.92 185.379 34L186.879 34.2C186.739 34.9 186.559 35.56 186.359 36.2C187.139 38 188.419 38.92 190.139 39.38V33.36H181.939V32.02H199.499V33.36H191.599V35.58H198.199V36.9H191.599ZM219.759 26.1V27.48H208.499V26.1H213.819C213.559 25.46 212.979 24.46 212.539 23.72L213.779 23.14C214.299 23.9 214.879 24.86 215.159 25.5L214.019 26.1H219.759ZM215.379 28.66L216.439 27.94C217.699 29.14 219.239 30.84 219.959 31.9L218.799 32.78C218.119 31.68 216.619 29.92 215.379 28.66ZM211.079 27.98L212.459 28.42C211.559 30.06 210.239 31.88 209.079 33.04C208.819 32.8 208.239 32.36 207.899 32.16C209.059 31.08 210.299 29.48 211.079 27.98ZM206.039 26.54H203.619V34.88H206.039V26.54ZM207.419 25.16V36.26H203.619V38.16H202.239V25.16H207.419ZM215.899 31.62L217.279 31.98C216.699 33.88 215.839 35.56 214.719 36.96C216.139 38.48 217.919 39.64 219.999 40.3C219.659 40.58 219.239 41.14 219.019 41.54C216.959 40.76 215.199 39.58 213.759 38.02C212.319 39.48 210.519 40.66 208.339 41.56C208.159 41.24 207.759 40.72 207.439 40.46C209.619 39.58 211.439 38.42 212.859 36.96C211.779 35.56 210.899 33.9 210.259 32.08L211.559 31.7C212.079 33.24 212.819 34.64 213.779 35.88C214.759 34.64 215.459 33.22 215.899 31.62ZM239.239 26.16H232.899C232.459 26.9 231.979 27.62 231.479 28.36V41.48H229.899V30.36C227.879 32.66 225.439 34.72 222.659 36.18C222.439 35.8 221.959 35.22 221.659 34.88C225.599 32.9 229.019 29.58 230.999 26.16H222.159V24.68H239.239V26.16ZM231.879 30.46L232.979 29.5C235.299 31 238.339 33.24 239.799 34.76L238.619 35.9C237.199 34.38 234.239 32.02 231.879 30.46ZM243.419 33.98H245.939V32.52H243.419V33.98ZM243.419 30.1V31.54H245.939V30.1H243.419ZM249.899 30.1H247.279V31.54H249.899V30.1ZM249.899 33.98V32.52H247.279V33.98H249.899ZM255.159 27.9H259.399C259.399 27.9 259.379 28.46 259.379 28.66C259.159 37.04 258.979 39.82 258.299 40.66C257.959 41.18 257.559 41.34 256.959 41.4C256.399 41.48 255.459 41.46 254.539 41.4C254.499 41 254.339 40.38 254.119 40C255.079 40.08 255.959 40.1 256.339 40.1C256.679 40.1 256.859 40.04 257.059 39.78C257.519 39.2 257.759 36.56 257.959 29.3H255.099C254.859 34.62 253.939 38.98 250.419 41.62C250.199 41.3 249.679 40.8 249.319 40.56C249.639 40.34 249.919 40.1 250.179 39.86C247.159 40.22 244.059 40.56 241.819 40.8L241.599 39.5C242.799 39.4 244.299 39.26 245.939 39.1V37.38H242.159V36.24H245.939V35.02H242.199V29.08H245.939V27.82H241.619V26.66H245.939V25.34C244.659 25.44 243.359 25.52 242.179 25.56C242.119 25.24 241.979 24.76 241.819 24.46C244.779 24.3 248.379 23.94 250.439 23.48L251.179 24.62C250.099 24.86 248.739 25.04 247.279 25.2V26.66H251.519V27.82H247.279V29.08H251.159V35.02H247.279V36.24H251.199V37.38H247.279V38.96C248.579 38.84 249.939 38.7 251.279 38.54V38.62C252.999 36.26 253.539 33.04 253.719 29.3H251.379V27.9H253.759C253.799 26.5 253.799 25.04 253.799 23.52H255.199C255.199 25.02 255.199 26.5 255.159 27.9ZM32.76 57.72H28.94C28.66 58.5 28.34 59.26 27.98 59.98C29.1 60.92 30.4 62.12 31.28 63.1C31.92 61.54 32.42 59.76 32.76 57.72ZM33.18 56.32L33.48 56.24L34.5 56.58C33.46 64.42 30.38 69.12 26.14 71.46C25.9 71.08 25.3 70.5 24.92 70.24C27.24 69.04 29.18 67.18 30.6 64.54C29.84 63.56 28.54 62.26 27.36 61.18C26.96 61.88 26.54 62.48 26.1 63.04C25.86 62.78 25.2 62.3 24.88 62.1C26.7 60.04 27.96 56.74 28.68 53.26L30.14 53.54C29.92 54.5 29.7 55.42 29.42 56.32H33.18ZM37.74 59.72L38.28 59.28C40 60.64 42.16 62.54 43.22 63.8L42.04 64.82C41.14 63.68 39.32 62 37.74 60.66V71.52H36.22V53.28H37.74V59.72ZM60.36 69.1V59.9H57.36V69.1H60.36ZM47.58 59.9V69.1H50.42V59.9H47.58ZM56 62.1V59.9H51.78V62.1H56ZM51.78 66.78V69.1H56V66.78H51.78ZM56 65.56V63.32H51.78V65.56H56ZM62.82 56.02H54.62C54.38 56.86 54.1 57.76 53.84 58.52H61.86V71.54H60.36V70.48H47.58V71.54H46.14V58.52H52.32C52.54 57.76 52.74 56.84 52.9 56.02H45.24V54.6H62.82V56.02ZM69.18 53.34L70.58 53.76C70.06 55.26 69.42 56.78 68.68 58.18V71.5H67.26V60.6C66.76 61.38 66.2 62.1 65.66 62.74C65.5 62.38 65.06 61.62 64.8 61.28C66.56 59.34 68.2 56.36 69.18 53.34ZM72.52 63.8H76C76.02 63.46 76.02 63.08 76.02 62.74V61.74H72.52V63.8ZM72.52 58.58V60.64H76.02V58.58H72.52ZM80.72 58.58H77.48V60.64H80.72V58.58ZM80.72 63.8V61.74H77.48V62.74C77.48 63.08 77.48 63.46 77.44 63.8H80.72ZM82.18 64.96H77.32C77.12 66.22 76.7 67.42 75.8 68.5C77.86 69.36 80.4 69.84 83.32 70.04C83 70.38 82.64 70.98 82.44 71.42C79.46 71.14 76.84 70.54 74.74 69.52C73.7 70.34 72.26 71.04 70.3 71.6C70.1 71.26 69.7 70.68 69.4 70.38C71.18 69.96 72.5 69.42 73.44 68.76C72.28 68.02 71.3 67.08 70.58 65.94L71.84 65.46C72.5 66.44 73.4 67.22 74.52 67.86C75.32 66.98 75.7 66 75.88 64.96H71.12V57.42H76.02V55.76H70.6V54.42H82.86V55.76H77.48V57.42H82.18V64.96ZM93.32 65.52H88.52V67.12H93.32V65.52ZM99.78 67.12V65.52H94.74V67.12H99.78ZM94.74 69.84H99.78V68.2H94.74V69.84ZM88.52 69.84H93.32V68.2H88.52V69.84ZM87.08 71.56V64.38H101.24V71.52H99.78V71H88.52V71.56H87.08ZM97.82 62.08V60.18H90.3V62.08H97.82ZM88.92 59.06H99.28V63.22H88.92V59.06ZM98.96 56.32H102.46V60.42H101.02V57.6H87.14V60.42H85.72V56.32H88.9C88.52 55.64 87.92 54.72 87.38 54.06L88.66 53.52C89.34 54.28 90.06 55.3 90.42 55.98L89.68 56.32H93.22V53.26H94.7V56.32H98.06L97.5 56.1C98.1 55.38 98.86 54.24 99.28 53.44L100.78 53.96C100.22 54.78 99.54 55.66 98.96 56.32ZM106.78 70.26C106.06 70.26 105.46 69.7 105.46 68.88C105.46 68.04 106.06 67.46 106.78 67.46C107.5 67.46 108.1 68.04 108.1 68.88C108.1 69.7 107.5 70.26 106.78 70.26ZM112.346 70.26C111.626 70.26 111.026 69.7 111.026 68.88C111.026 68.04 111.626 67.46 112.346 67.46C113.066 67.46 113.666 68.04 113.666 68.88C113.666 69.7 113.066 70.26 112.346 70.26ZM117.913 70.26C117.193 70.26 116.593 69.7 116.593 68.88C116.593 68.04 117.193 67.46 117.913 67.46C118.633 67.46 119.233 68.04 119.233 68.88C119.233 69.7 118.633 70.26 117.913 70.26ZM127.699 71.72H121.379V70.34H126.219V58.78H127.699V71.72Z" fill="#666666"/>
<rect x="0.5" y="0.5" width="299" height="91" rx="45.5" stroke="#666666"/>
</svg>
