<svg width="56" height="56" fill="none" xmlns="http://www.w3.org/2000/svg"><rect width="56" height="56" rx="28" fill="#C7594D"/><path d="M23 27.375a1.25 1.25 0 1 0 0-2.5 1.25 1.25 0 0 0 0 2.5ZM24.875 40.25a1.25 1.25 0 1 0 0-2.5 1.25 1.25 0 0 0 0 2.5ZM31.125 40.25a1.25 1.25 0 1 0 0-2.5 1.25 1.25 0 0 0 0 2.5ZM33 27.375a1.25 1.25 0 1 0 0-2.5 1.25 1.25 0 0 0 0 2.5Z" fill="#fff"/><path d="M44 13v-.063a.937.937 0 1 0-1.875 0V13a4.757 4.757 0 0 1-3.985 4.688H17.86A4.757 4.757 0 0 1 13.875 13v-.063a.937.937 0 1 0-1.875 0V13c0 2.113.994 3.997 2.539 5.211A4.691 4.691 0 0 0 12 22.375v.875a2 2 0 0 0 2 2h.875a4.667 4.667 0 0 0 3.09-1.167l.7 13.69A6.56 6.56 0 0 0 25.22 44h5.56a6.56 6.56 0 0 0 6.554-6.227l.7-13.69a4.667 4.667 0 0 0 3.091 1.167H42a2 2 0 0 0 2-2v-.875a4.691 4.691 0 0 0-2.539-4.164A6.617 6.617 0 0 0 44 13Zm-26.313 7.563a2.816 2.816 0 0 1-2.812 2.812h-1v-1a2.816 2.816 0 0 1 2.813-2.813h1v1Zm17.775 17.114a4.685 4.685 0 0 1-4.682 4.448h-5.56a4.685 4.685 0 0 1-4.682-4.448l-.084-1.642a10.31 10.31 0 0 1 15.092 0l-.084 1.642Zm.209-4.084a12.182 12.182 0 0 0-15.342 0l-.717-14.03h16.776l-.717 14.03Zm6.454-11.218v1h-1a2.816 2.816 0 0 1-2.813-2.813v-1h1a2.816 2.816 0 0 1 2.813 2.813Z" fill="#fff"/></svg>