<svg width="302" height="278" viewBox="0 0 302 278" fill="none" xmlns="http://www.w3.org/2000/svg">
<path d="M52.9351 108.508L118.595 129.018L99.9917 218.458L22.9429 196.693L52.9351 108.508Z" fill="#FFB445"/>
<path opacity="0.6" d="M52.9351 108.508L118.595 129.018L99.9917 218.458L22.9429 196.693L52.9351 108.508Z" fill="white"/>
<path d="M22.943 196.693L0.854004 185.788L44.1588 104.462L47.6072 108.236L52.9352 108.508L22.943 196.693Z" fill="#FFB445"/>
<path opacity="0.4" d="M22.943 196.693L0.854004 185.788L44.1588 104.462L47.6072 108.236L52.9352 108.508L22.943 196.693Z" fill="white"/>
<path opacity="0.5" d="M14.655 182.131L0.854004 185.788L44.1588 104.462L47.6072 108.236L14.655 182.131Z" fill="#FFB445"/>
<path d="M23.0984 194.63C21.8996 192.5 20.5898 190.444 19.2726 188.395C17.9554 186.346 16.579 184.334 15.173 182.344L14.9806 182.065L14.655 182.131C12.6348 182.521 10.6146 182.91 8.60924 183.387C6.60384 183.864 4.59843 184.312 2.61523 184.856C4.67243 184.672 6.71484 184.4 8.74984 184.121C10.7848 183.842 12.8198 183.49 14.8474 183.13L14.3294 182.917C15.7157 184.929 17.1316 186.912 18.577 188.865C20.02 190.811 21.5 192.757 23.0984 194.63Z" fill="#FFB445"/>
<path d="M14.6401 182.829C17.6001 176.697 20.4417 170.522 23.2685 164.331C26.0953 158.141 28.8333 151.929 31.6231 145.724C34.4129 139.519 37.0769 133.24 39.7631 127.013L43.7369 117.614C45.0245 114.471 46.3491 111.335 47.5997 108.178C46.1197 111.232 44.6915 114.324 43.2337 117.401L38.9713 126.668C36.1445 132.851 33.3991 139.071 30.6167 145.276C27.8343 151.481 25.1629 157.759 22.4767 163.994C19.7905 170.228 17.1709 176.514 14.6401 182.829Z" fill="#FFB445"/>
<path d="M52.3285 113.692L121.067 118.106L125.455 227.696L45.3799 225.214L52.3285 113.692Z" fill="#A9C297"/>
<path d="M45.38 225.214L21.2412 219.068L42.8196 111.592L47.0968 114.963L52.3286 113.692L45.38 225.214Z" fill="#A9C297"/>
<path opacity="0.1" d="M33.6954 210.719L21.2412 219.068L42.8196 111.592L47.0968 114.963L33.6954 210.719Z" fill="black"/>
<path d="M45.01 222.754C43.3154 220.639 41.5246 218.635 39.7412 216.637C37.9578 214.64 36.1078 212.716 34.2504 210.814L33.9914 210.55L33.6954 210.719C31.838 211.769 29.9954 212.826 28.1602 213.972C26.325 215.117 24.5046 216.233 22.7212 217.482C24.6674 216.652 26.5766 215.734 28.4784 214.779C30.3802 213.825 32.2598 212.833 34.132 211.842L33.577 211.747C35.4221 213.68 37.2918 215.568 39.1862 217.408C41.0954 219.222 43.0046 221.051 45.01 222.754Z" fill="black"/>
<path d="M33.8506 211.534C35.1826 203.522 36.3888 195.496 37.5506 187.455C38.7124 179.414 39.8298 171.366 40.9768 163.325C42.1238 155.284 43.1376 147.207 44.1514 139.137L45.6314 127.028C46.0902 122.982 46.586 118.95 47.0152 114.897C46.3344 118.899 45.735 122.915 45.0912 126.925L43.33 138.96C42.1386 146.994 41.0434 155.049 39.9038 163.09C38.7642 171.131 37.78 179.223 36.7292 187.294C35.6784 195.364 34.7238 203.434 33.8506 211.534Z" fill="black"/>
<path d="M119.616 21.2776C125.758 15.403 142.083 8.39759 157.704 22.7463C179.904 43.0871 171.994 98.8002 168.908 107.289C168.908 107.289 130.768 120.837 96.6099 101.73C96.6099 101.73 114.792 64.0079 111.61 44.7687C110.886 40.5015 111.238 36.1228 112.635 32.0236C114.032 27.9245 116.431 24.2326 119.616 21.2776Z" fill="black"/>
<path d="M108.332 65.7263C108.213 66.0347 108.11 66.3431 107.991 66.6516C106.461 70.5679 104.571 74.3362 102.345 77.9087C100.305 81.3846 97.7677 84.5483 94.8119 87.3007C94.7305 87.3742 94.5972 87.264 94.6786 87.1906C97.72 84.3488 99.7994 80.7285 101.709 77.123C103.58 73.5926 105.236 69.9536 106.667 66.2256C109.62 58.6575 111.587 50.746 112.52 42.6832C112.52 42.529 112.816 42.5437 112.809 42.6832C112.772 43.8141 112.705 44.9376 112.616 46.0611C112.639 46.0519 112.664 46.0488 112.688 46.0521C112.712 46.0554 112.735 46.0649 112.755 46.0798C112.774 46.0946 112.79 46.1143 112.799 46.1368C112.808 46.1593 112.812 46.1838 112.809 46.208C112.128 53.7421 111.232 61.1294 108.99 68.3772C106.718 75.4961 103.466 82.2694 99.3258 88.505C97.0331 92.052 94.5196 95.4537 91.8 98.6901C91.7965 98.6973 91.7914 98.7035 91.785 98.7084C91.7787 98.7132 91.7713 98.7166 91.7634 98.7181C91.7555 98.7196 91.7474 98.7193 91.7396 98.7172C91.7319 98.7151 91.7248 98.7112 91.7188 98.7058C91.7128 98.7005 91.7082 98.6939 91.7053 98.6865C91.7023 98.6791 91.7012 98.6711 91.7019 98.6631C91.7026 98.6552 91.7051 98.6475 91.7093 98.6408C91.7135 98.634 91.7192 98.6282 91.726 98.624C99.3406 88.7767 104.639 77.4682 108.332 65.7263Z" fill="black"/>
<path d="M150.734 19.596C170.381 31.1983 176.323 54.403 176.456 75.0742C176.559 81.4379 176.028 87.7962 174.873 94.0565C174.873 94.0799 174.863 94.1023 174.847 94.1188C174.83 94.1353 174.807 94.1446 174.784 94.1446C174.76 94.1446 174.738 94.1353 174.721 94.1188C174.704 94.1023 174.695 94.0799 174.695 94.0565C175.967 83.1155 175.635 72.0495 173.711 61.2028C171.853 51.0471 168.908 40.5536 162.922 31.8298C159.736 27.0203 155.531 22.9581 150.601 19.9265C150.416 19.7796 150.549 19.4859 150.734 19.596Z" fill="black"/>
<path d="M157.016 95.5032C187.356 122.791 208.95 146.296 208.668 156.988C208.025 180.934 195.297 186.104 193.032 185.348C169.093 177.27 153.879 132.065 143.815 104.741C133.825 77.6224 148.321 87.69 157.016 95.5032Z" fill="#FFD3C9"/>
<path d="M173.052 174.436L212.361 145.327C212.361 145.327 174.488 106.518 154.796 92.0592C138.257 79.9061 129.947 88.483 140.307 112.532C150.112 135.289 173.052 174.436 173.052 174.436Z" fill="#FEE3C5"/>
<path d="M200.957 141.222C198.224 142.777 195.587 144.493 193.061 146.362C190.375 148.176 187.778 150.085 185.166 151.98C182.554 153.875 172.452 161.813 169.929 163.803C169.818 163.891 169.988 164.074 170.107 163.994C172.8 162.187 183.427 154.998 185.994 153.133C188.562 151.268 191.115 149.41 193.602 147.464C196.088 145.518 198.819 143.616 201.054 141.376C201.098 141.296 201.031 141.163 200.957 141.222Z" fill="black"/>
<path opacity="0.1" d="M195.763 157.62L173.052 174.436C173.052 174.436 150.112 135.296 140.307 112.532C133.581 96.9204 134.728 87.8368 140.877 86.6986C150.719 99.307 176.745 132.704 195.763 157.62Z" fill="black"/>
<path d="M144.473 87.991C150.049 91.9293 154.299 97.4441 156.668 103.816C160.576 114.405 181.199 164.383 184.722 175.287C188.244 186.192 215.72 239.276 215.72 239.276C215.72 239.276 200.632 255.387 196.229 258.692C190.109 263.303 167.946 270.639 167.946 270.639C167.946 270.639 158.666 191.384 156.92 183.336C155.174 175.287 144.473 87.991 144.473 87.991Z" fill="#FEE3C5"/>
<path d="M193.92 210.924C192.84 214.28 190.435 216.99 187.778 219.222C186.342 220.434 183.619 222.989 182.361 220.221C181.986 219.128 181.986 217.943 182.361 216.85C182.895 214.788 183.783 212.833 184.988 211.071C186.416 208.868 188.895 205.931 191.848 206.078C194.586 206.276 194.549 208.905 193.92 210.924Z" fill="black"/>
<path d="M177.277 226.734C177.188 230.406 176.611 234.371 174.251 237.375C173.156 238.777 171.786 239.343 170.602 238.579C169.278 238.021 168.597 235.972 168.264 234.489C167.478 230.925 167.748 227.212 169.041 223.797C169.855 221.667 171.379 218.657 174.162 218.98C177.743 219.398 177.344 224.223 177.277 226.734Z" fill="black"/>
<path d="M190.96 223.826C192.64 224.862 191.604 229.627 190.427 231.963C188.947 234.951 186.246 238.432 183.59 237.514C182.243 237.044 181.673 233.644 184.004 229.018C186.18 224.737 189.591 222.975 190.96 223.826Z" fill="black"/>
<path d="M200.084 277.065H130.45C127.423 265.272 122.761 247.119 118.706 231.302C118.462 230.332 118.21 229.363 117.966 228.423C117.811 227.828 117.67 227.248 117.522 226.675C113.615 211.475 110.537 199.454 110.463 199.175L110.352 198.771C110.315 198.624 110.3 198.544 110.3 198.544H177.529L200.084 277.065Z" fill="#666666"/>
<path d="M175.346 198.485C175.346 198.529 175.346 198.61 175.346 198.712C175.346 199.498 175.346 200.284 175.346 201.07C175.346 203.067 175.227 205.064 175.094 207.062C174.563 214.873 173.535 222.643 172.016 230.325C170.049 240.456 167.444 250.455 164.216 260.263C163.928 261.115 163.757 261.593 163.743 261.644L158.378 264.273L157.941 264.493L147.3 269.751C145.82 270.485 144.732 271.021 144.429 271.183L144.347 271.227C144.347 271.227 144.229 273.599 144.081 277.065H71.4572C72.9372 264.846 73.1075 263.23 73.1075 263.23C72.6783 260.873 70.7764 254.8 71.4572 247.736C72.9372 232.22 82.5572 201.062 83.4156 199.204C83.6154 198.749 83.7412 198.514 83.7412 198.514H102.108H145.62H175.346V198.485Z" fill="#666666"/>
<path d="M144.421 271.021V271.183C144.421 273.144 144.37 275.111 144.34 277.057H143.6C143.763 275.089 143.896 273.114 144.133 271.146C144.133 270.97 144.133 270.794 144.185 270.617C144.185 270.588 144.196 270.56 144.217 270.54C144.238 270.519 144.266 270.507 144.296 270.507C144.325 270.507 144.353 270.519 144.374 270.54C144.395 270.56 144.407 270.588 144.407 270.617C144.414 270.764 144.421 270.896 144.421 271.021Z" fill="black"/>
<path d="M135.719 274.81C138.805 272.688 142.135 270.904 145.405 269.068C148.676 267.232 152.139 265.396 155.617 263.788C162.418 260.653 169.589 258.384 176.737 256.181C176.779 256.164 176.826 256.165 176.868 256.183C176.91 256.201 176.942 256.234 176.959 256.276C176.976 256.318 176.975 256.365 176.957 256.406C176.939 256.447 176.905 256.48 176.863 256.496C169.981 259.434 163.299 262.797 156.454 265.808C153.005 267.328 149.535 268.745 146.094 270.287C142.653 271.829 139.286 273.503 135.808 274.943C135.697 274.972 135.63 274.862 135.719 274.81Z" fill="black"/>
<path d="M154.56 241.355C154.648 237.999 154.885 234.65 155.048 231.302C155.448 223.4 155.788 215.448 156.528 207.568C156.538 207.51 156.569 207.458 156.614 207.42C156.659 207.382 156.717 207.361 156.776 207.361C156.835 207.361 156.893 207.382 156.938 207.42C156.983 207.458 157.014 207.51 157.024 207.568C157.127 213.685 156.891 219.817 156.765 225.926C156.698 228.989 156.609 232.043 156.528 235.106C156.357 238.025 156.337 240.952 156.469 243.873C156.632 246.076 157.12 250.365 160.021 250.629C162.751 250.879 164.246 247.956 164.927 245.805C166.659 240.363 167.273 234.489 167.835 228.827C168.168 225.471 168.501 222.13 168.701 218.767C168.901 215.404 169.175 210.366 168.99 206.974C168.99 206.761 169.293 206.768 169.33 206.974C169.87 209.911 169.892 215.785 169.818 219.259C169.152 250.446 164.194 252.223 161.575 252.729C161.253 252.792 160.926 252.826 160.598 252.832C160.598 253.566 160.472 254.257 160.42 254.954C160.346 256.063 160.206 257.157 160.058 258.266C159.897 259.346 159.67 260.415 159.377 261.468C159.141 262.536 158.757 263.566 158.237 264.53C158.217 264.56 158.187 264.582 158.153 264.594C158.119 264.606 158.081 264.607 158.046 264.596C158.012 264.585 157.981 264.564 157.96 264.535C157.938 264.506 157.927 264.471 157.927 264.434C157.901 263.375 157.99 262.317 158.193 261.277C158.341 260.205 158.489 259.074 158.711 258.053C158.933 257.032 159.125 255.953 159.347 254.91C159.488 254.176 159.592 253.486 159.725 252.773C158.877 252.628 158.08 252.275 157.404 251.746C156.728 251.218 156.196 250.531 155.855 249.748C154.589 247.192 154.493 244.152 154.56 241.355Z" fill="black"/>
<path d="M91.0602 235.429C95.4484 235.737 99.7774 236.295 104.18 235.781C108.324 235.359 112.273 233.82 115.599 231.331C122.836 225.765 126.01 216.645 127.964 208.104C127.97 208.064 127.992 208.027 128.025 208.002C128.059 207.977 128.1 207.966 128.142 207.972C128.183 207.978 128.22 208 128.245 208.033C128.27 208.066 128.281 208.108 128.275 208.149C127.453 215.565 125.848 223.232 121.023 229.194C118.948 231.821 116.322 233.968 113.327 235.487C110.146 236.954 106.665 237.666 103.159 237.566C99.0488 237.531 94.959 236.983 90.9862 235.935C90.9233 235.92 90.8682 235.883 90.8319 235.83C90.7955 235.777 90.7805 235.712 90.7898 235.648C90.7991 235.585 90.832 235.527 90.882 235.486C90.9321 235.446 90.9956 235.425 91.0602 235.429Z" fill="black"/>
<path d="M186.838 233.688C185.617 233.549 184.418 233.688 183.175 232.763C181.932 231.838 180.881 230.259 179.912 227.623C177.803 221.844 176.767 213.208 176.078 205.211C176.078 205.035 175.982 205.035 175.99 205.211C176.345 212.07 176.922 219.229 178.365 225.141C178.852 227.38 179.597 229.555 180.585 231.625C181.488 233.343 182.494 234.166 183.464 234.489C184.017 234.668 184.603 234.731 185.182 234.675C185.762 234.618 186.323 234.442 186.831 234.158C186.949 234.129 186.927 233.688 186.838 233.688Z" fill="black"/>
<path d="M90.3198 200.644C87.9592 213.458 85.1398 226.455 82.5868 239.232C81.9282 243.058 80.7812 246.833 81.0106 250.717C81.3442 254.642 81.9675 258.537 82.8754 262.371C82.461 264.838 82.0614 267.306 81.61 269.766C81.1586 272.226 80.759 274.642 80.2854 277.072C80.5148 274.605 80.796 272.152 81.0254 269.692C81.2548 267.232 81.5804 264.772 81.869 262.349C80.7779 258.588 80.0349 254.737 79.649 250.842C79.5182 249.489 79.5505 248.126 79.7452 246.781C80.5296 241.538 81.6322 236.42 82.7052 231.28C84.9252 220.999 87.4412 210.807 90.2458 200.68L90.3198 200.644Z" fill="black"/>
<path d="M75.8012 225.523C76.0972 225.882 183.686 225.758 184.966 224.443C185.188 224.216 191.271 212.51 191.056 208.237C190.723 201.525 185.684 193.491 185.95 188.902C186.402 181.221 156.158 105.652 151.607 94.578C147.056 83.5043 126.447 81.0811 115.872 89.8269C100.421 102.604 76.5412 198.925 74.4914 205.233C72.0272 212.789 75.52 225.185 75.8012 225.523Z" fill="white"/>
<path d="M138.731 195.658C138.39 194.578 158.222 190.745 160.368 190.429C162.514 190.113 181.429 190.26 181.629 190.642C181.829 191.024 164.261 191.92 162.84 191.891C161.419 191.861 138.894 196.186 138.731 195.658Z" fill="#999999"/>
<path d="M159.14 194.314C158.259 193.77 170.417 193.785 170.38 194.189C170.343 194.593 160.501 195.151 159.14 194.314Z" fill="#999999"/>
<path d="M123.339 84.9142C123.339 84.9142 123.775 164.008 122.865 170.948C121.955 177.887 106.089 273.085 106.089 273.085C106.089 273.085 72.0495 266.233 67.4319 262.98C62.8143 259.727 54.7261 240.951 54.7261 240.951C54.7261 240.951 74.9207 192.485 76.7559 187.411C79.3755 180.215 103.818 104.778 110.056 94.5926C113.056 89.7832 117.817 86.3143 123.339 84.9142Z" fill="#FEE3C5"/>
<path d="M100.295 103.096C72.4121 132.866 52.9353 158.126 54.1489 168.752C56.8647 192.559 69.9923 196.656 72.1827 195.672C95.3373 185.605 111.514 135.92 119.18 107.847C126.787 79.9722 108.28 94.5705 100.295 103.096Z" fill="#FFD3C9"/>
<path d="M52.728 150.71L94.2346 176.631C94.2346 176.631 116.324 129.201 120.579 104.322C124.027 84.1872 118.04 79.8841 99.1556 98.1247C81.2772 115.359 52.728 150.71 52.728 150.71Z" fill="#FEE3C5"/>
<path d="M94.02 164.574C91.582 162.598 89.0269 160.768 86.3684 159.096C83.697 157.267 80.9738 155.549 78.2284 153.808C75.483 152.068 64.42 145.569 61.6302 143.954C61.5044 143.88 61.3934 144.108 61.5118 144.189C64.1832 146.025 74.7652 153.302 77.444 154.991C80.1228 156.68 82.7868 158.398 85.5026 159.999C88.2184 161.6 91.0082 163.443 93.9164 164.706C93.9756 164.728 94.0644 164.662 94.02 164.574Z" fill="black"/>
<path d="M89.6538 173.621C91.452 174.612 93.2206 175.633 94.9966 176.653L94.6192 176.778C99.7992 162.253 105.431 147.905 111.143 133.585C113.038 128.812 114.999 124.039 116.856 119.266C112.638 134.107 106.903 148.47 101.146 162.775C99.1554 167.628 97.1204 172.46 94.967 177.248C93.191 176.051 91.4076 174.854 89.6538 173.621Z" fill="black"/>
<path d="M117.404 122.996C116.72 126.003 115.087 128.714 112.742 130.736C114.304 128.173 115.754 125.508 117.404 122.996Z" fill="black"/>
<path d="M191.182 183.468C185.654 173.085 182.014 149.895 195.03 105.167C196.836 98.9766 242.664 108.604 241.088 115.308C239.09 123.76 229.522 156.122 228.508 158.398C220.072 177.623 194.934 190.51 191.182 183.468Z" fill="#FFD3C9"/>
<path d="M187.497 174.942C186.35 171.574 185.562 168.097 185.144 164.566C184.936 162.804 184.759 161.034 184.685 159.257C184.613 157.47 184.652 155.679 184.803 153.897C185.061 150.357 185.499 146.833 186.113 143.337C186.697 139.842 187.511 136.388 188.548 132.998C187.926 136.478 187.475 139.974 187.068 143.469C186.661 146.965 186.328 150.475 186.083 153.977C185.987 155.725 185.898 157.48 185.965 159.206C186.032 160.931 186.113 162.708 186.254 164.456C186.52 167.922 186.875 171.418 187.497 174.942Z" fill="black"/>
<path d="M215.854 127.211C210.319 127.27 194.941 110.829 195.03 105.182C195.274 89.7975 207.795 73.6717 209.031 62.6495C210.089 53.3897 210.585 39.5256 215.624 39.8855C222.973 40.4142 224.467 58.0233 224.704 68.179C229.492 65.3592 233.873 63.3765 236.862 63.1488C246.764 62.4145 255.762 105.85 248.377 112.694C241.28 119.295 221.382 127.123 215.854 127.211Z" fill="#FFD3C9"/>
<path d="M261.001 124.127C254.341 99.8945 242.767 61.0928 239.593 57.9939C236.973 61.4452 230.469 99.5126 226.902 123.253L225.422 123.033C225.422 122.871 227.893 106.628 230.735 90.4584C236.566 57.3183 238.35 56.7382 239.208 56.4592C239.355 56.4123 239.509 56.3966 239.662 56.413C239.815 56.4294 239.963 56.4777 240.096 56.5546C244.351 58.8237 259.432 112.921 262.414 123.745L261.001 124.127Z" fill="black"/>
<path d="M221.011 122.585L219.576 122.24C219.613 122.086 223.527 106.026 227.827 90.0325C236.625 57.3037 238.379 56.7309 239.223 56.4592C239.374 56.4122 239.533 56.3977 239.69 56.4167C239.847 56.4357 239.998 56.4877 240.133 56.5694C244.166 58.9045 255.014 111.556 257.153 122.086L255.673 122.38C250.9 98.815 242.405 61.0634 239.526 57.9793C236.795 60.9606 226.776 98.9178 221.011 122.585Z" fill="black"/>
<path d="M208.794 112.951L284.548 112.672L295.611 239.864L207.869 244.255L208.794 112.951Z" fill="#FFB445"/>
<path d="M207.869 244.255L181.11 239.262L198.264 111.357L203.155 114.919L208.794 112.951L207.869 244.255Z" fill="#FFB445"/>
<path opacity="0.2" d="M207.869 244.255L181.11 239.262L198.264 111.357L203.155 114.919L208.794 112.951L207.869 244.255Z" fill="black"/>
<path opacity="0.1" d="M194.231 228.342L181.11 239.262L198.264 111.357L203.155 114.919L194.231 228.342Z" fill="black"/>
<g opacity="0.1">
<path d="M207.321 241.413C205.338 239.086 203.266 236.905 201.194 234.724C199.122 232.543 196.991 230.457 194.837 228.401L194.541 228.115L194.231 228.342C192.255 229.745 190.286 231.148 188.362 232.66C186.438 234.173 184.5 235.642 182.627 237.264C184.707 236.112 186.742 234.863 188.762 233.593C190.782 232.322 192.78 230.971 194.771 229.605L194.157 229.547C196.288 231.642 198.446 233.686 200.632 235.678C202.8 237.624 205.02 239.563 207.321 241.413Z" fill="black"/>
<path d="M194.445 229.282C195.422 219.773 196.258 210.256 197.08 200.724C197.901 191.193 198.612 181.669 199.389 172.137C200.166 162.606 200.787 153.045 201.409 143.499L202.319 129.172C202.578 124.391 202.881 119.626 203.103 114.831C202.6 119.582 202.186 124.377 201.72 129.098L200.469 143.366C199.648 152.913 198.93 162.422 198.16 171.954C197.391 181.485 196.762 191.046 196.14 200.592C195.518 210.138 194.919 219.736 194.445 229.282Z" fill="black"/>
</g>
<path d="M229.795 122.556L228.315 122.379C228.315 122.21 230.336 105.872 232.755 89.6873C237.728 56.4151 239.475 56.2021 240.525 56.0773C241.576 55.9524 243.36 55.7248 254.141 88.3068C259.373 104.139 264.235 120.22 264.287 120.382L262.866 120.808C255.873 97.6327 243.848 60.5934 240.666 57.6561C238.135 61.0486 232.689 98.9398 229.795 122.556Z" fill="black"/>
<path d="M224.704 121.718L223.224 121.425C223.224 121.263 226.532 105.152 230.21 89.1879C237.758 56.4077 239.549 56.1947 240.511 56.0773C241.672 55.9377 243.419 55.7321 250.56 88.013C254.023 103.661 257.094 119.589 257.124 119.728L255.644 120C251.27 97.2361 243.434 60.8136 240.622 57.656C237.861 60.9164 229.44 98.3449 224.704 121.718Z" fill="black"/>
<path d="M213.774 115.447L276.556 115.469L301.146 213.913L223.942 217.673L213.774 115.447Z" fill="#A9C297"/>
<path d="M213.774 115.447L206.315 119.986L199.211 118.715L199.174 225.926L223.942 217.673L213.774 115.447Z" fill="#A9C297"/>
<path opacity="0.1" d="M206.315 119.986L199.211 118.715L199.174 225.926L211.11 209.97L206.315 119.986Z" fill="black"/>
<path d="M301.146 213.913L223.942 217.673L199.174 225.926L275.046 222.079L301.146 213.913Z" fill="black"/>
<path d="M223.002 217.041C221.315 215.932 212.783 210.153 211.014 209.235L210.77 209.11L210.577 209.294C209.364 210.469 201.653 221.917 200.536 223.246C201.86 222.211 209.882 211.159 211.11 210.028L210.674 210.094C212.42 210.976 221.159 216.292 223.002 217.041Z" fill="black"/>
<path d="M210.599 209.874C210.466 202.391 210.207 194.916 209.933 187.441C209.66 179.965 209.29 172.49 208.971 165.014C208.653 157.539 208.231 150.071 207.758 142.595L207.055 131.397C206.781 127.659 206.544 123.929 206.233 120.198C206.293 123.936 206.418 127.681 206.507 131.419L206.899 142.632C207.173 150.107 207.536 157.583 207.861 165.058C208.187 172.534 208.601 180.002 209.082 187.47C209.563 194.938 210 202.413 210.599 209.874Z" fill="black"/>
<path d="M221.84 67.3345C220.427 72.2618 227.087 71.0869 227.087 71.0869C227.087 71.0869 217.911 75.0669 218.444 80.7065C218.969 86.1405 226.961 84.4369 227.538 84.3267C227.05 84.5397 218.718 88.4169 219.835 94.0272C221.004 99.865 228.715 96.7882 229.233 96.5826C228.841 96.9277 223.735 101.583 225.533 105.652C228.678 112.65 242.072 101.113 248.281 101.811C248.281 101.811 248.281 112.385 248.355 112.694C248.355 112.694 261.327 101.98 261.808 93.6012C261.897 92.3852 261.565 91.1753 260.867 90.1723C260.168 89.1692 259.145 88.4333 257.967 88.0865C257.967 88.0865 262.533 85.0904 261.793 80.6404C261.408 78.364 257.353 76.9688 257.353 76.9688C257.353 76.9688 260.912 74.4207 260.002 70.5068C259.262 67.3785 255.37 66.4459 255.37 66.4459C255.37 66.4459 257.634 62.4218 255.858 59.4699C252.38 53.4851 224.86 56.7822 221.84 67.3345Z" fill="#FFD3C9"/>
<path d="M254.829 66.1963C254.849 66.1963 254.868 66.1886 254.881 66.1748C254.895 66.161 254.903 66.1424 254.903 66.1229C254.903 66.1034 254.895 66.0847 254.881 66.071C254.868 66.0572 254.849 66.0495 254.829 66.0495C245.52 64.948 234.953 66.5635 226.709 71.109C226.435 71.2632 226.561 71.7625 226.894 71.6524C236.307 68.5755 244.891 66.5855 254.829 66.1963Z" fill="black"/>
<path d="M257.56 76.888C257.664 76.888 257.664 76.7117 257.56 76.6971C247.94 75.6103 236.1 77.7545 227.22 84.1064C226.917 84.3267 226.865 84.8407 227.22 84.5984C233.443 80.8166 248.599 77.1964 257.56 76.888Z" fill="black"/>
<path d="M228.767 97.2435C237.521 91.4717 247.267 89.0704 257.627 88.0277C257.76 88.0277 257.723 87.8294 257.627 87.8074C252.447 86.9482 245.89 88.2994 240.903 89.768C236.243 91.052 232.003 93.5227 228.604 96.935C228.434 97.1039 228.582 97.361 228.767 97.2435Z" fill="black"/>
<path d="M226.931 71.0134C226.606 71.1897 227.227 71.4614 226.931 71.6523C225.592 72.4527 217.94 77.9381 219.021 81.103C219.887 83.6365 223.92 84.2386 225.562 83.8641L229.684 82.9315L226.14 85.2373C224.551 86.2419 223.141 87.4998 221.966 88.9603C220.841 90.429 220.094 92.1252 220.419 93.7481C220.521 94.5456 220.894 95.2848 221.477 95.8431C222.059 96.4013 222.817 96.7452 223.624 96.8176C225.436 96.9412 227.25 96.6024 228.892 95.8336L233.503 93.8729L229.803 97.2068C228.775 98.1349 227.87 99.1884 227.109 100.342C226.34 101.418 225.91 102.696 225.873 104.014C225.881 104.603 226.053 105.178 226.372 105.675C226.691 106.172 227.144 106.571 227.679 106.826C228.958 107.222 230.324 107.245 231.616 106.893C234.405 106.32 237.106 105.145 239.844 104.109C241.213 103.581 242.59 103.045 243.988 102.582C245.365 102.033 246.843 101.783 248.325 101.848C246.866 101.946 245.441 102.325 244.129 102.964C242.782 103.529 241.465 104.161 240.14 104.792C237.501 106.142 234.738 107.241 231.889 108.075C230.351 108.553 228.705 108.576 227.153 108.141C226.337 107.811 225.635 107.252 225.134 106.532C224.633 105.811 224.355 104.962 224.334 104.087C224.337 102.464 224.829 100.878 225.747 99.5346C226.575 98.2345 227.57 97.0472 228.707 96.0025L229.625 97.3757C227.696 98.3141 225.553 98.7344 223.409 98.5946C222.222 98.4791 221.111 97.9604 220.264 97.126C219.472 96.2759 218.956 95.2089 218.784 94.0639C218.384 91.7581 219.457 89.5918 220.745 88.0057C222.061 86.4202 223.631 85.0606 225.392 83.9816L225.969 85.3474C223.868 85.7513 219.309 85.5677 217.445 81.8007C215.72 76.5429 225.141 71.7551 226.931 71.0134Z" fill="black"/>
<path d="M227.087 71.0868C226.025 71.0663 224.972 70.8855 223.964 70.5508C223.556 70.4257 223.188 70.1941 222.901 69.8803C222.613 69.5664 222.416 69.1818 222.329 68.7664C222.264 67.8343 222.472 66.9034 222.928 66.0861C223.387 65.1608 223.92 64.2062 224.504 63.2443C223.506 63.8204 222.641 64.5985 221.966 65.528C221.565 66.0147 221.265 66.5754 221.083 67.1779C220.901 67.7804 220.842 68.4126 220.908 69.0381C221.05 69.7199 221.399 70.3424 221.907 70.8225C222.407 71.2507 223.016 71.5329 223.668 71.6376C224.838 71.8191 226.035 71.6262 227.087 71.0868Z" fill="black"/>
<path d="M147.3 107.876C140.27 109.345 128.6 98.389 124.116 89.6799C123.812 89.0778 124.9 82.9095 125.862 75.3459C126.432 70.7564 126.957 65.6308 127.091 60.9164C127.091 59.9471 156.691 68.9426 156.691 68.9426C156.691 68.9426 153.435 78.7458 153.22 86.9556C153.212 87.6048 153.261 88.2536 153.368 88.8942C153.389 88.9982 153.402 89.1039 153.405 89.21C153.96 92.9036 154.078 106.481 147.3 107.876Z" fill="#FFD3C9"/>
<path d="M128.904 61.1221C130.051 69.1262 134.491 88.5124 150.364 89.3201C151.38 89.3824 152.4 89.3579 153.413 89.2467C153.429 89.1396 153.429 89.0307 153.413 88.9236C153.31 88.2824 153.258 87.6342 153.257 86.985C153.45 78.7605 156.669 68.9646 156.669 68.9646C156.669 68.9646 135.334 62.4512 128.904 61.1221Z" fill="black"/>
<path d="M123.331 27.9821C120.135 38.4756 125.781 68.737 133.307 75.4708C144.222 85.2373 162.056 86.1332 170.41 73.121C178.498 60.5126 170.41 21.1969 162.033 15.1094C149.653 6.04779 128.06 12.4878 123.331 27.9821Z" fill="#FFD3C9"/>
<path d="M123.331 27.9821C120.135 38.4756 125.781 68.737 133.307 75.4708C144.222 85.2373 162.056 86.1332 170.41 73.121C178.498 60.5126 170.41 21.1969 162.033 15.1094C149.653 6.04779 128.06 12.4878 123.331 27.9821Z" fill="#FFD3C9"/>
<path d="M148.824 47.3169C148.824 47.2434 148.676 47.4417 148.691 47.5225C149.039 49.5712 149.091 51.9725 147.307 52.9051C147.256 52.9051 147.307 53.0373 147.344 53.0152C149.587 52.391 149.52 49.2041 148.824 47.3169Z" fill="black"/>
<path d="M146.686 45.4222C143.319 45.6205 143.97 52.2881 147.086 52.1046C150.201 51.921 149.52 45.2607 146.686 45.4222Z" fill="black"/>
<path d="M161.36 45.995C161.36 45.9142 161.53 46.0831 161.53 46.1639C161.582 48.242 161.989 50.6065 163.92 51.1866C163.98 51.1866 163.98 51.3115 163.92 51.3041C161.589 51.1132 161.071 47.963 161.36 45.995Z" fill="black"/>
<path d="M163.106 43.726C166.444 43.2854 167.08 49.953 163.987 50.3349C160.894 50.7167 160.302 44.0931 163.106 43.726Z" fill="black"/>
<path d="M143.659 40.0323C144.565 39.836 145.459 39.5909 146.338 39.2979C147.367 39.0189 148.21 38.9014 148.936 38.0716C149.113 37.8141 149.201 37.5057 149.185 37.1939C149.169 36.8821 149.05 36.5842 148.847 36.3459C147.907 35.3766 146.568 35.4134 145.317 35.6998C144.052 35.9473 142.925 36.6543 142.157 37.6824C141.328 38.7619 142.431 40.2379 143.659 40.0323Z" fill="black"/>
<path d="M166.185 38.6738C165.262 38.6166 164.344 38.5112 163.432 38.358C162.381 38.2259 161.523 38.2332 160.687 37.5062C160.474 37.2767 160.343 36.9839 160.315 36.6732C160.287 36.3626 160.363 36.0514 160.531 35.7879C161.316 34.7011 162.648 34.5396 163.921 34.6497C165.21 34.7134 166.43 35.2529 167.339 36.1624C167.537 36.3804 167.666 36.6509 167.711 36.9406C167.755 37.2303 167.714 37.5267 167.591 37.7934C167.469 38.0601 167.27 38.2854 167.021 38.4418C166.771 38.5982 166.48 38.6788 166.185 38.6738Z" fill="black"/>
<path d="M149.402 65.9099C149.942 66.3507 150.504 66.9751 151.259 66.9678C152.044 66.8834 152.801 66.6329 153.479 66.2331C153.546 66.2331 153.62 66.2331 153.583 66.3286C153.326 66.7772 152.948 67.1459 152.492 67.3937C152.036 67.6415 151.519 67.7586 151 67.7319C150.566 67.6617 150.162 67.4651 149.841 67.1668C149.519 66.8686 149.295 66.4822 149.195 66.0568C149.165 65.9098 149.32 65.8511 149.402 65.9099Z" fill="black"/>
<path d="M151 59.536C151.604 60.3043 152.362 60.9408 153.225 61.4057C154.088 61.8707 155.039 62.1541 156.017 62.2383C156.872 62.3203 157.734 62.2807 158.578 62.1208C158.741 62.1046 158.902 62.0726 159.059 62.0254L159.51 61.9152C159.618 61.8833 159.713 61.8172 159.779 61.7271C159.846 61.637 159.881 61.5277 159.88 61.4159C159.888 61.3451 159.888 61.2737 159.88 61.2029V61.0193C159.776 59.4259 159.399 57.0246 159.399 57.0246C160.013 57.2596 163.099 58.3244 162.995 57.5019C161.952 50.6654 160.775 43.0578 158.304 36.4709C158.292 36.4212 158.261 36.3782 158.217 36.3514C158.173 36.3245 158.121 36.316 158.071 36.3277C158.021 36.3394 157.977 36.3703 157.95 36.4137C157.923 36.4571 157.915 36.5093 157.926 36.559C158.666 43.1679 160.576 49.6079 161.427 56.2389C160.435 55.9672 158.822 55.4385 157.986 55.5046C157.764 55.5927 158.8 60.1381 158.785 60.8578C158.791 60.8843 158.791 60.912 158.785 60.9386C156.128 61.5187 154.019 60.8945 151.244 59.3377C151.037 59.2276 150.882 59.3818 151 59.536Z" fill="black"/>
<path d="M157.579 61.4012C156.803 62.6161 155.725 63.6124 154.448 64.2945C153.744 64.6426 152.947 64.7633 152.169 64.6396C150.467 64.3605 150.282 62.8478 150.475 61.5261C150.579 60.8234 150.768 60.1356 151.037 59.4773C152.955 60.7953 155.247 61.4695 157.579 61.4012Z" fill="black"/>
<path d="M154.448 64.2944C153.744 64.6426 152.947 64.7632 152.169 64.6395C150.467 64.3605 150.282 62.8478 150.475 61.526C152.273 61.548 154.145 62.5908 154.448 64.2944Z" fill="#FF6868"/>
<path d="M130.014 53.911C131.583 52.3836 133.159 42.6831 133.159 42.6831C133.159 42.6831 151.111 34.6864 152.48 18.1567C152.48 18.1567 161.708 27.4459 169.5 29.223C169.5 29.223 168.457 12.2674 152.636 10.6886C152.636 10.6886 136.948 5.48962 124.516 20.602C112.084 35.7144 125.256 54.4837 125.256 54.4837L130.014 53.911Z" fill="black"/>
<path d="M151.895 15.0726C152.768 17.6795 152.376 20.7122 151.755 23.3485C151.087 26.0397 150.033 28.6216 148.624 31.0148C147.275 33.5002 145.525 35.7499 143.444 37.6751C141.002 39.79 137.998 41.1925 135.053 42.4849C134.964 42.529 135.053 42.6906 135.127 42.6538C138.242 41.3908 141.372 40.0837 144.059 38.0349C146.351 36.1695 148.312 33.9355 149.86 31.426C151.55 28.9682 152.695 26.1825 153.22 23.253C153.686 20.3598 153.101 17.7382 152.25 14.9845C152.154 14.7862 151.829 14.8597 151.895 15.0726Z" fill="black"/>
<path d="M155.44 7.23005C152.199 5.1666 144.451 1.08376 137.621 0.841435C130.658 0.599108 121.659 3.8595 118.514 4.88756C115.924 5.73203 107.244 6.58385 100.591 10.1967C96.2105 12.5686 94.2421 18.8838 94.8415 22.012C95.7369 26.719 105.475 23.9947 105.942 25.8158C106.238 27.0274 104.543 33.0342 107.503 35.8614C110.463 38.6885 110.337 38.2406 112.032 39.79C116.139 43.5571 121.326 21.3731 129.725 15.4251C138.124 9.47708 155.44 7.23005 155.44 7.23005Z" fill="#FF6868"/>
<path opacity="0.1" d="M154.7 7.56779C154.7 7.56779 138.058 9.47703 129.666 15.4324C121.274 21.3878 117.382 42.7052 113.268 38.9308C111.455 37.2639 110.796 35.1196 110.5 31.6389C112.468 25.544 116.575 16.2181 122.91 10.3435C128.83 4.82876 137.821 3.0003 147.041 3.40417C149.707 4.57781 152.269 5.97053 154.7 7.56779Z" fill="black"/>
<path d="M112.787 49.5051C117.5 42.7346 122.125 31.8813 129.666 24.0828C137.207 16.2843 156.047 14.0446 158.526 14.588C164.587 15.9024 165.467 18.9939 166.518 18.6268C167.569 18.2596 162.566 10.373 161.012 9.08057C158.591 7.34652 155.81 6.17 152.872 5.6366C150.201 5.27678 133.544 4.30012 126.469 10.2922C119.395 16.2843 107.836 34.4001 108.583 39.6285C108.761 40.8768 110.241 41.9049 110.478 43.6746C110.789 46.0097 110.848 48.6533 111.27 50.2835C111.647 51.6567 112.52 49.9237 112.787 49.5051Z" fill="#FF6868"/>
<path d="M131.708 20.3745C130.438 19.3029 129.262 18.1262 128.193 16.8571C127.093 15.5912 126.146 14.2011 125.374 12.7155C125.371 12.7019 125.366 12.689 125.357 12.6777C125.349 12.6665 125.339 12.6571 125.326 12.6503C125.314 12.6435 125.301 12.6395 125.287 12.6384C125.273 12.6373 125.259 12.6393 125.246 12.6442C125.232 12.6491 125.221 12.6567 125.211 12.6666C125.201 12.6765 125.193 12.6884 125.189 12.7015C125.184 12.7146 125.182 12.7286 125.184 12.7424C125.185 12.7562 125.189 12.7696 125.196 12.7816C125.761 14.4115 126.586 15.9411 127.638 17.3124C128.712 18.6543 130.03 19.785 131.523 20.6462C131.693 20.7343 131.841 20.492 131.708 20.3745Z" fill="black"/>
<path d="M113.356 46.1419C113.233 45.7112 113.087 45.2872 112.92 44.8715C112.764 44.3943 112.659 43.902 112.609 43.4029C112.644 42.4412 112.575 41.4785 112.402 40.5317C112.135 39.79 111.785 39.0805 111.358 38.4168C110.83 37.6935 110.569 36.8119 110.618 35.9201C110.618 35.8026 110.448 35.7659 110.433 35.9201C110.145 37.6458 111.121 39.063 111.647 40.6345C111.987 41.6405 111.795 42.6906 111.958 43.7186C112.04 44.6943 112.44 45.617 113.097 46.3475C113.179 46.3769 113.393 46.2961 113.356 46.1419Z" fill="black"/>
<path d="M116.331 40.2893C115.894 39.555 115.399 38.8794 115.029 38.0864C114.677 37.3324 114.38 36.5545 114.141 35.7586C113.889 34.9802 113.711 34.1798 113.482 33.394C113.208 32.4688 112.823 31.5656 112.594 30.6256C112.594 30.5008 112.387 30.5669 112.416 30.6917C112.646 31.661 112.712 32.6817 112.912 33.6657C113.103 34.5132 113.351 35.3472 113.652 36.1624C113.92 36.95 114.265 37.71 114.681 38.4315C115.074 39.1712 115.616 39.8234 116.272 40.3481C116.28 40.3494 116.288 40.3487 116.296 40.3462C116.304 40.3437 116.311 40.3394 116.317 40.3337C116.322 40.3279 116.327 40.3209 116.329 40.3132C116.332 40.3055 116.332 40.2974 116.331 40.2893Z" fill="black"/>
<path d="M119.321 35.0463C118.274 33.8424 117.409 32.4944 116.753 31.0442C116.124 29.627 115.584 28.1657 115.051 26.7117C115.051 26.6089 114.844 26.6456 114.866 26.7117C115.101 28.3069 115.531 29.8677 116.146 31.36C116.459 32.08 116.854 32.7624 117.323 33.3941C117.869 34.0461 118.49 34.6326 119.173 35.1417C119.254 35.2446 119.395 35.1344 119.321 35.0463Z" fill="black"/>
<path d="M122.451 30.0676C121.914 29.5657 121.482 28.9645 121.178 28.2979C120.779 27.5782 120.401 26.8439 120.046 26.0949C119.706 25.3606 119.35 24.685 119.01 23.9727C118.619 23.2788 118.382 22.5103 118.314 21.7183C118.314 21.693 118.304 21.6687 118.286 21.6508C118.268 21.6329 118.244 21.6229 118.218 21.6229C118.193 21.6229 118.168 21.6329 118.15 21.6508C118.132 21.6687 118.122 21.693 118.122 21.7183C118.063 22.509 118.166 23.3034 118.425 24.0535C118.666 24.892 118.98 25.7079 119.365 26.4914C119.749 27.2668 120.181 28.0173 120.66 28.7385C121.039 29.4094 121.614 29.9499 122.31 30.2879C122.444 30.3393 122.577 30.1704 122.451 30.0676Z" fill="black"/>
<path d="M125.181 23.554C124.73 22.9519 124.286 22.3498 123.886 21.7109C123.487 21.072 123.146 20.4258 122.761 19.7649C122.377 19.104 122.021 18.3917 121.666 17.6794C121.655 17.66 121.637 17.6451 121.615 17.6376C121.594 17.63 121.571 17.6302 121.549 17.6381C121.528 17.646 121.51 17.6611 121.499 17.6808C121.488 17.7005 121.484 17.7234 121.489 17.7455C121.676 18.498 121.924 19.2346 122.229 19.9485C122.542 20.6606 122.906 21.3501 123.316 22.012C123.718 22.6684 124.158 23.301 124.634 23.9065C125.082 24.5355 125.647 25.0738 126.299 25.4927C126.395 25.5441 126.535 25.4339 126.484 25.3311C126.11 24.6974 125.674 24.1021 125.181 23.554Z" fill="black"/>
<path d="M136.629 17.8337C136.178 17.0406 135.734 16.2696 135.208 15.5279C134.671 14.7597 134.088 14.024 133.462 13.325C132.276 11.9589 130.94 10.7275 129.481 9.65334C129.399 9.59459 129.266 9.65334 129.34 9.77817C131.686 12.5172 134.15 15.1681 136.474 17.9292C136.477 17.9438 136.484 17.9575 136.494 17.9689C136.504 17.9804 136.516 17.9894 136.531 17.9951C136.545 18.0008 136.56 18.0032 136.575 18.0019C136.59 18.0007 136.605 17.9959 136.618 17.988C136.631 17.98 136.642 17.9691 136.649 17.9562C136.657 17.9433 136.662 17.9287 136.663 17.9137C136.664 17.8986 136.662 17.8835 136.656 17.8696C136.65 17.8557 136.641 17.8434 136.629 17.8337Z" fill="black"/>
<path d="M140.892 13.5012C140.423 12.7284 139.869 12.0093 139.241 11.357C137.87 10.029 136.353 8.85663 134.72 7.86158C134.616 7.79549 134.498 7.92033 134.594 8.00111C135.926 9.22008 137.28 10.417 138.538 11.7168C139.172 12.3467 139.77 13.0111 140.329 13.7068C140.877 14.4411 141.254 15.2195 141.772 15.9098C141.781 15.9221 141.794 15.9312 141.809 15.9358C141.824 15.9404 141.84 15.9403 141.855 15.9354C141.869 15.9305 141.882 15.9212 141.891 15.9087C141.9 15.8961 141.905 15.8811 141.905 15.8657C141.723 15.0204 141.379 14.2177 140.892 13.5012Z" fill="black"/>
<path d="M146.035 12.0252C145.616 11.2692 145.12 10.558 144.555 9.90301C143.466 8.65616 142.172 7.60099 140.729 6.78214C140.633 6.72339 140.537 6.87025 140.618 6.93634C141.887 8.00699 143.06 9.18379 144.126 10.4538C144.658 11.0853 145.154 11.7388 145.665 12.385C146.123 13.0825 146.617 13.7565 147.145 14.4044C147.189 14.4485 147.263 14.4044 147.248 14.331C146.918 13.5261 146.512 12.7541 146.035 12.0252Z" fill="black"/>
<path d="M149.949 9.7194C149.431 9.13929 148.869 8.5812 148.314 8.03046C147.788 7.46179 147.173 6.98079 146.494 6.60587C146.39 6.54713 146.323 6.68665 146.39 6.76008C147.419 7.87625 148.425 9.01445 149.424 10.1527C150.289 11.2613 151.033 12.4576 151.644 13.7215C151.644 13.7729 151.762 13.7215 151.755 13.6774C151.569 12.2075 150.94 10.8278 149.949 9.7194Z" fill="black"/>
<path d="M154.412 9.49181C153.475 8.29294 152.317 7.28128 151 6.51045C150.904 6.45905 150.8 6.61325 150.889 6.672C152.069 7.56326 153.105 8.62807 153.96 9.8296C154.836 11.0198 155.58 12.3 156.18 13.6481C156.18 13.7142 156.321 13.6995 156.306 13.6481C156.013 12.134 155.364 10.71 154.412 9.49181Z" fill="black"/>
<path d="M159.651 12.9431C159.557 12.6198 159.441 12.3033 159.303 11.9959C159.019 11.3774 158.672 10.7893 158.267 10.2408C157.418 9.14532 156.461 8.13673 155.411 7.2301C155.391 7.21354 155.365 7.2054 155.34 7.20747C155.314 7.20953 155.29 7.22164 155.274 7.24111C155.257 7.26059 155.249 7.28584 155.251 7.31132C155.253 7.33679 155.265 7.36041 155.285 7.37696C156.285 8.29499 157.172 9.32786 157.926 10.4538C158.296 10.9996 158.625 11.5715 158.911 12.1648C159.051 12.4511 159.177 12.7522 159.296 13.0533C159.379 13.3575 159.493 13.6527 159.636 13.9345C159.645 13.9497 159.658 13.9623 159.674 13.971C159.689 13.9797 159.707 13.9843 159.725 13.9843C159.743 13.9843 159.76 13.9797 159.776 13.971C159.791 13.9623 159.804 13.9497 159.814 13.9345C159.823 13.5968 159.768 13.2604 159.651 12.9431Z" fill="black"/>
<path d="M163.062 13.7949C162.81 13.2882 162.526 12.7977 162.211 12.3263C161.908 11.8604 161.571 11.4163 161.205 10.9971C160.827 10.5639 160.465 10.1453 160.073 9.69739C160.065 9.68522 160.056 9.67479 160.044 9.66686C160.032 9.65893 160.019 9.65369 160.005 9.65152C159.99 9.64935 159.976 9.65031 159.962 9.65432C159.949 9.65833 159.936 9.66529 159.926 9.67471C159.915 9.68413 159.907 9.69576 159.901 9.70878C159.896 9.7218 159.893 9.73586 159.894 9.74997C159.894 9.76409 159.898 9.77789 159.905 9.79038C159.911 9.80287 159.921 9.81375 159.932 9.82222C160.313 10.2558 160.657 10.72 160.961 11.2101C161.249 11.6727 161.553 12.1207 161.841 12.5759C162.13 13.0312 162.433 13.4865 162.722 13.9418C162.983 14.4334 163.269 14.9114 163.58 15.3737C163.639 15.4471 163.736 15.3737 163.713 15.3003C163.554 14.7757 163.336 14.2706 163.062 13.7949Z" fill="black"/>
<path d="M130.813 52.9417C130.813 52.9417 123.694 43.3074 119.276 45.8481C114.858 48.3889 120.357 62.4659 125.655 64.287C126.318 64.5677 127.032 64.7122 127.753 64.7119C128.474 64.7116 129.188 64.5664 129.851 64.2851C130.514 64.0038 131.113 63.5922 131.611 63.0751C132.11 62.558 132.498 61.9461 132.752 61.2763L130.813 52.9417Z" fill="#FFD3C9"/>
<path d="M120.949 49.8429C120.867 49.8429 120.852 49.953 120.949 49.9824C124.649 51.385 126.684 54.7335 128.119 58.2142C126.994 56.8851 125.485 56.1801 123.679 57.5166C123.59 57.5827 123.679 57.7295 123.783 57.7075C124.427 57.4891 125.123 57.4735 125.776 57.6628C126.429 57.8521 127.007 58.237 127.431 58.7649C128.132 59.6528 128.735 60.6129 129.229 61.6288C129.407 61.9519 129.969 61.7683 129.866 61.3938C129.866 61.3938 129.866 61.3351 129.866 61.3057C129.806 56.6427 126.01 50.2027 120.949 49.8429Z" fill="black"/>
<path d="M127.172 116.042C129.807 126.572 122.991 138.307 122.991 138.307C104.78 146.23 79.7751 139.357 79.1831 138.175C79.1831 138.175 78.4431 130.229 77.1037 127.99C75.7643 125.75 65.9001 114.236 63.2287 111.357C60.5573 108.479 59.7063 95.5545 60.6091 93.1386C61.5119 90.7227 77.8881 91.0458 81.6325 92.7053C87.5155 95.1655 93.5666 97.2096 99.7403 98.8223C99.7403 98.8223 105.697 73.6423 117.626 74.0682C123.102 74.2665 116.487 85.0831 115.584 96.0979C115.058 102.509 125.204 108.185 127.172 116.042Z" fill="#FFD3C9"/>
<path d="M74.0845 102.185C75.8161 103.243 78.0139 103.324 80.0045 103.801L86.0799 105.071C90.1479 105.945 94.1567 107.07 98.0827 108.442C100.055 109.167 101.96 110.064 103.773 111.122C105.683 112.155 107.247 113.72 108.272 115.624C110.255 119.34 110.937 123.604 110.211 127.747C110.469 123.679 109.506 119.626 107.444 116.101C105.446 112.635 101.39 111.049 97.6387 109.617C93.7828 108.217 89.8583 107.011 85.8801 106.004C81.9285 104.792 77.6735 104.242 74.0845 102.185Z" fill="black"/>
<path d="M66.2702 115.873L64.9678 115.176C65.2712 114.625 72.3678 101.686 79.4718 99.2408C80.7816 98.7856 82.8684 98.2568 85.2882 97.6547C92.2738 95.8923 103.966 92.955 104.462 89.2907C104.676 87.6899 102.404 86.0597 100.466 84.9729L101.206 83.6952C104.654 85.6265 106.208 87.521 105.942 89.489C105.32 94.1373 93.961 96.9938 85.6656 99.0719C83.2828 99.6741 81.2256 100.195 79.9676 100.621C73.4186 102.883 66.3442 115.748 66.2702 115.873Z" fill="black"/>
<path d="M63.3176 113.597L62.1484 112.694C62.5406 112.194 71.7684 100.474 78.791 98.0439C80.271 97.5299 82.8314 96.9718 85.7692 96.3256C92.555 94.8569 103.899 92.3529 104.388 89.0851C104.565 87.9249 103.204 86.5076 100.466 84.9729L101.206 83.6952C104.617 85.6044 106.149 87.4329 105.868 89.2981C105.276 93.2487 96.5658 95.4664 86.1022 97.7648C83.2162 98.3964 80.715 98.9398 79.2942 99.4318C72.6786 101.715 63.4138 113.479 63.3176 113.597Z" fill="black"/>
<path d="M86.0649 82.9095C86.0649 82.9095 85.0585 78.4227 86.8049 75.2651C88.5513 72.1075 95.6109 71.2337 98.2157 71.7991C100.82 72.3646 111.136 78.9147 114.17 82.5937C117.204 86.2727 115.916 92.1399 110.152 90.6713C104.387 89.2026 86.0649 82.9095 86.0649 82.9095Z" fill="#FFD3C9"/>
<path d="M109.257 78.2025C113.46 80.4054 119.55 86.4783 114.266 90.73C110.759 92.7568 106.001 89.1439 102.471 88.3949C104.772 88.6445 106.955 89.5184 109.131 90.1059C111.129 90.6639 113.674 91.0017 114.807 88.9016C117.175 84.8114 112.15 80.589 109.257 78.2025Z" fill="black"/>
<path d="M82.2539 75.0742C82.2539 75.0742 84.4739 71.0575 87.9223 69.8459C91.3707 68.6342 97.2167 72.6216 98.7929 74.7511C100.369 76.8807 103.721 88.5711 103.536 93.3222C103.351 98.0733 98.4673 101.635 95.1151 96.7588C91.7629 91.8829 82.2539 75.0742 82.2539 75.0742Z" fill="#FFD3C9"/>
<path d="M94.3975 71.2191C96.7564 72.6249 98.7489 74.5619 100.214 76.8733C101.753 79.1865 102.434 82.0136 102.907 84.5764C103.525 87.2114 103.887 89.8991 103.988 92.6026C104.092 93.9924 103.72 95.3764 102.931 96.5296C102.143 97.6828 100.984 98.5374 99.6441 98.9545C100.863 98.4512 101.873 97.5525 102.51 96.4053C103.148 95.2582 103.374 93.9305 103.152 92.6393C102.805 90.012 102.311 87.4059 101.672 84.8334C101.131 82.1752 100.673 79.6932 99.3185 77.38C98.0542 75.0564 96.3885 72.9711 94.3975 71.2191Z" fill="black"/>
<path d="M70.9248 80.6331C70.9248 80.6331 72.094 75.9775 75.2834 73.8699C78.4728 71.7624 85.6434 74.3032 87.8634 76.0729C90.0834 77.8426 96.8692 88.8502 98.031 93.6967C99.1928 98.5432 95.1672 103.434 90.3276 99.3436C85.488 95.2535 70.9248 80.6331 70.9248 80.6331Z" fill="#FFD3C9"/>
<path d="M82.3501 73.6057C85.18 74.431 87.7821 75.8879 89.9573 77.8647C92.1773 79.8107 93.6573 82.5203 94.9153 84.995C96.2956 87.5092 97.4328 90.1474 98.3119 92.8743C98.8157 94.2491 98.8242 95.7545 98.3358 97.1348C97.8475 98.515 96.8924 99.6848 95.6331 100.445C96.7522 99.6242 97.5468 98.4408 97.8792 97.0997C98.2117 95.7586 98.0611 94.3444 97.4535 93.102C96.3686 90.5143 95.1332 87.9913 93.7535 85.5458C92.4363 82.983 91.2523 80.545 89.2099 78.577C87.2309 76.5379 84.9098 74.8557 82.3501 73.6057Z" fill="black"/>
<path d="M60.3794 95.5399C60.5274 91.6186 62.1628 84.1431 65.9368 80.075C69.7108 76.0068 83.5636 83.306 87.3154 86.7647C91.0672 90.2234 96.6098 101.965 93.3538 104.014C90.0978 106.063 80.5296 96.2595 78.1246 94.688C75.7196 93.1166 60.3794 95.5399 60.3794 95.5399Z" fill="#FFD3C9"/>
<path d="M69.23 97.8824C71.0134 95.7161 73.744 94.0051 76.7706 94.2842C79.849 94.7101 81.9506 96.9938 84.1706 98.7342C86.3906 100.475 88.4108 102.648 90.8306 103.874C92.0516 104.411 93.3392 104.609 93.5538 103.449C93.8189 102.146 93.7886 100.802 93.465 99.5126V99.5787C92.6496 96.9915 91.6071 94.4803 90.3496 92.0739C89.0694 89.6946 87.5746 87.4329 85.3842 85.9202C83.1555 84.3848 80.7958 83.0456 78.332 81.9182C75.8653 80.709 73.3765 79.5928 70.8654 78.5696C76.0454 80.2586 81.2254 82.0944 85.9466 85.1051C88.396 86.6105 90.0388 89.0999 91.3782 91.5084C92.708 93.9674 93.8173 96.5376 94.6934 99.1895V99.2262C95.0636 100.734 95.0636 102.308 94.6934 103.816C94.5528 104.266 94.298 104.673 93.9534 104.998C93.5772 105.316 93.1006 105.493 92.6066 105.497C91.7888 105.511 90.9812 105.316 90.2608 104.932C87.582 103.463 85.5618 101.414 83.4602 99.4905C81.3586 97.5666 79.294 95.3783 76.63 94.923C73.966 94.4678 71.1688 95.8483 69.23 97.8824Z" fill="black"/>
<path d="M67.8537 193.19C63.7615 182.175 63.2583 168.223 82.1505 125.632C84.7627 119.758 126.943 124.619 126.092 131.456C124.412 144.85 112.838 166.336 108.213 173.268C96.5435 190.745 70.6287 200.644 67.8537 193.19Z" fill="#FFD3C9"/>
<path d="M65.8999 185.722C65.2807 182.503 65.0325 179.224 65.1599 175.948C65.2265 174.318 65.3227 172.688 65.5151 171.065C65.7183 169.435 66.0323 167.821 66.4549 166.233C67.2491 163.064 68.22 159.941 69.3631 156.878C70.4742 153.795 71.8046 150.793 73.3443 147.897C72.1973 150.952 71.2131 154.043 70.2659 157.15C69.3187 160.256 68.4455 163.369 67.6907 166.505C67.3281 168.076 66.9507 169.648 66.7731 171.219C66.5955 172.791 66.3883 174.421 66.2551 176.029C65.966 179.252 65.8474 182.487 65.8999 185.722Z" fill="black"/>
</svg>
