<svg width="468" height="366" fill="none" xmlns="http://www.w3.org/2000/svg"><path d="m0 336.837 57.812-.274 57.812-.103 115.612-.182 115.613.182 57.811.103 57.812.274-57.812.286-57.811.103-115.613.182-115.612-.182-57.812-.103L0 336.837ZM129.192 77.86c-7.035-15.784-22.305-26.142-36.98-22.213-31.488 8.417-27.205 56.018-49.818 86.797-27.319 37.186-27.65 68.445-3.872 72.979 26.634 5.071 51.52-23.493 48.687-83.314-1.77-37.415 6.122-50.663 16.252-53.541 7.446-2.113 15.76 6.853 15.76 6.853l9.971-7.561Z" fill="#000"/><path d="M86.764 111.403c-.149 5.95.377 11.889.685 17.816.308 5.927.754 11.832.936 17.737.218 5.893.138 11.794-.24 17.679a86.532 86.532 0 0 1-2.729 17.325 45.397 45.397 0 0 1-7.287 15.704 51.12 51.12 0 0 1-13.03 11.763 38.926 38.926 0 0 1-16.664 5.848 35.306 35.306 0 0 1-8.976-.16 30.318 30.318 0 0 1-4.409-.96 15.858 15.858 0 0 1-4.168-1.713 22.832 22.832 0 0 0 8.428 3.426 36.53 36.53 0 0 0 9.217.777c3.099-.169 6.166-.709 9.136-1.61a41.49 41.49 0 0 0 8.532-3.758 49.025 49.025 0 0 0 7.56-5.379l1.714-1.553 1.656-1.61a34.794 34.794 0 0 0 3.094-3.495 47.512 47.512 0 0 0 7.87-16.549c3.106-11.798 3.186-23.984 2.432-35.804-.377-5.95-1.028-11.866-1.747-17.771-.72-5.904-1.53-11.797-2.01-17.713ZM122.294 68.723a48.903 48.903 0 0 0-8.623-8.816 26.672 26.672 0 0 0-22.842-4.774 34.784 34.784 0 0 0-5.71 2.021 29.693 29.693 0 0 0-5.185 2.924 34.401 34.401 0 0 0-7.995 8.714 58.372 58.372 0 0 0-5.31 10.861c-2.935 7.606-4.968 15.646-7.344 23.607a163.103 163.103 0 0 1-8.611 23.549 161.158 161.158 0 0 1-12.986 21.414c-4.705 6.853-9.593 13.511-13.328 20.82a48.747 48.747 0 0 0-4.465 11.421l-.662 3.004c-.137 1.016-.206 2.044-.309 3.06l-.114 1.485v1.553l.069 3.095c-1.36-8.223.49-16.822 4.054-24.371 3.563-7.55 8.234-14.528 12.677-21.506s8.874-13.922 12.289-21.345a166.962 166.962 0 0 0 8.268-23.161c2.422-7.892 4.466-15.99 7.607-23.79a61.163 61.163 0 0 1 5.79-11.318 34.582 34.582 0 0 1 9-9.137 31.633 31.633 0 0 1 5.71-2.969 35.014 35.014 0 0 1 6.099-1.93 26.941 26.941 0 0 1 23.846 6.099 43.908 43.908 0 0 1 8.075 9.49Z" fill="#000"/><path d="M135.302 80.795c0-3.004-2.284-6.852-4.192-7.298-1.907-.445-16.206 6.03-17.348 9.754-1.142 3.723 5.322 6.852 5.322 6.852l16.218-9.308Z" fill="#FFB445"/><path d="M121.163 199.354c8.268 49.509 20.637 89.025 33.725 99.235 10.565 8.246 25.811 14.664 41.629 19.575a402.623 402.623 0 0 0 51.61 11.718c5.368.891 9.845 1.53 13.02 2.021 7.858 1.142 25.046-49.965 19.964-56.784-1.142-1.564-6.282-3.106-13.511-4.636-24.338-5.083-75.286-9.069-77.947-12.061-2.661-2.992-27.25-39.082-47.019-66.857-13.842-19.438-26.051-19.666-21.471 7.789Z" fill="#FFD3C9"/><path d="M245.729 325.348c.948.537 14.402 7.732 22.784 10.564 6.259 2.124 24.441 7.743 27.41 1.085 2.067-4.568-8.234-9.137-15.452-12.494-3.792-1.782-8.383-6.053-7.138-8.486 2.193-4.26 11.969.548 18.353 4.648 12.346 7.926 28.643 21.94 36.672 15.852 3.027-2.284-.171-6.852-4.956-11.42 7.846 5.413 16.263 9.947 19.735 7.526 1.987-1.382 2.17-3.426 1.199-5.711 2.455.926 4.66.868 6.27-.696 2.741-2.627 1.644-6.727-1.039-11.01a3.155 3.155 0 0 0 2.455-1.462c5.927-8.211-20.786-33.759-30.299-36.466-27.981-7.995-58.178-6.853-58.178-6.853-11.455 8.338-17.839 54.9-17.816 54.923Z" fill="#FFD3C9"/><path d="M288.477 300.827a46.295 46.295 0 0 1 18.547 8.109c6.396 4.82 11.364 11.25 17.234 16.64.16.149-.08.389-.24.24-2.741-2.775-5.79-5.288-8.657-7.994-2.866-2.707-5.516-5.311-8.485-7.721a45.8 45.8 0 0 0-18.422-9.194c-.114.023-.046-.091.023-.08ZM294.29 289.064c7.332 2.364 14.847 4.762 21.608 8.577 7.378 4.18 13.008 10.724 18.547 17.017a418.5 418.5 0 0 1 9.72 11.558c.137.16-.092.4-.229.24a427.385 427.385 0 0 0-17.428-18.982 60.542 60.542 0 0 0-19.415-13.499c-4.18-1.816-8.486-3.301-12.791-4.774a.07.07 0 0 1-.051-.016.079.079 0 0 1-.024-.047c0-.009.001-.018.003-.026a.07.07 0 0 1 .034-.041.077.077 0 0 1 .026-.007ZM302.696 278.922c7.149 1.805 13.396 3.358 19.621 7.504 8.234 5.505 15.989 14.493 18.753 17.691 3.015 3.517 5.916 7.138 8.759 10.792.115.149-.148.354-.262.206a239.543 239.543 0 0 0-21.06-22.785 47.672 47.672 0 0 0-11.969-8.565 85.76 85.76 0 0 0-13.865-4.785s-.011-.058.023-.058Z" fill="#000"/><path d="m129.032 251.193 43.056-25.389s-18.376-29.694-34.079-43.707c-15.704-14.013-22.042-3.015-19.656 17.348 2.387 20.364 10.679 51.748 10.679 51.748Z" fill="#FFB445"/><path d="M143.159 238.276a18.055 18.055 0 0 1-1.53 4.945c-.126.251-.24.514-.366.765l-1.77 1.04c.263-.8.583-1.588.925-2.364a18.086 18.086 0 0 1 2.741-4.386Zm-17.531-22.693a17.645 17.645 0 0 0-4.945-1.53 19.937 19.937 0 0 0 9.331 4.282 18.455 18.455 0 0 0-4.386-2.752Zm14.767-25.126a17.975 17.975 0 0 0 2.41 4.569 19.848 19.848 0 0 0-3.574-9.628c.147 1.74.539 3.451 1.164 5.082v-.023Zm19.793 20.443a19.477 19.477 0 0 0-4.192 1.051 18.296 18.296 0 0 0-4.568 2.421 18.236 18.236 0 0 0 5.059-1.142 19.717 19.717 0 0 0 3.849-1.896 2.17 2.17 0 0 0-.148-.411v-.023Z" fill="#fff"/><path d="M165.304 219.352c-6.852 3.529-25.32 13.705-36.386 21.893-.069 0 .102.332.171.297 10.279-5.379 29.911-17.622 36.466-21.756.126-.08-.114-.503-.251-.434Z" fill="#000"/><path d="m168.548 227.906-39.505 23.287s-8.303-31.373-10.69-51.748c-1.53-13.145.56-22.384 6.465-23.515l43.73 51.976Z" fill="#000"/><path d="M170.626 336.803H28.278s30.916-119.404 59.536-153.038a36.89 36.89 0 0 1 1.965-2.182c.137-.16.25-.274.388-.411a30.35 30.35 0 0 1 7.64-5.916 19.226 19.226 0 0 1 1.53-.754c11.022-5.07 22.66-.868 31.065 6.328 2.661 2.284 32.835 41.537 35.507 56.498 2.285 13.214-6.624 27.41-6.624 27.41l11.341 72.065Z" fill="#FFB445"/><path d="M107.732 191.154a18.143 18.143 0 0 1-1.542 4.956 17.726 17.726 0 0 1-2.752 4.386c.272-1.714.791-3.38 1.542-4.945a18.142 18.142 0 0 1 2.752-4.397Zm-21.425 66.834a18.454 18.454 0 0 0-1.53 4.945 19.94 19.94 0 0 0 4.282-9.33 18.445 18.445 0 0 0-2.752 4.385Zm-17.588 69.747a17.629 17.629 0 0 0-1.53 4.956 20.35 20.35 0 0 0 4.282-9.342 18.454 18.454 0 0 0-2.752 4.386Zm71.699-85.074a18.194 18.194 0 0 0-1.542 4.957 17.61 17.61 0 0 0 2.753-4.397 18.055 18.055 0 0 0 1.53-4.945 18.1 18.1 0 0 0-2.741 4.385Zm22.556 45.569a18.289 18.289 0 0 0-1.507 4.888 15.841 15.841 0 0 0 1.861-2.649l-.354-2.239Zm-54.214 32.401a18.52 18.52 0 0 0-1.53 4.957 17.625 17.625 0 0 0 2.752-4.397 18.446 18.446 0 0 0 1.53-4.946 18.475 18.475 0 0 0-2.752 4.386Zm16.868-105.071a17.645 17.645 0 0 0-4.945-1.53 19.937 19.937 0 0 0 9.331 4.282 18.46 18.46 0 0 0-4.386-2.729v-.023Zm9.411 56.681a18.439 18.439 0 0 0-4.945-1.53 18.071 18.071 0 0 0 4.385 2.752 18.495 18.495 0 0 0 4.946 1.531 18.464 18.464 0 0 0-4.386-2.73v-.023Zm3.426 61.981a18.563 18.563 0 0 0-4.956-1.531 20.053 20.053 0 0 0 9.342 4.283 18.429 18.429 0 0 0-4.386-2.729v-.023Zm-68.856-52.17a18.561 18.561 0 0 0-4.956-1.531 17.947 17.947 0 0 0 4.397 2.753 18.442 18.442 0 0 0 4.945 1.53 18.428 18.428 0 0 0-4.386-2.729v-.023Zm92.566-27.935c.09 1.162.308 2.311.651 3.426.194-.48.4-.982.594-1.496a14.631 14.631 0 0 0-1.245-1.908v-.022Zm-2.764 66.126a18.362 18.362 0 0 0 2.41 4.568 18.082 18.082 0 0 0-1.142-5.048 18.396 18.396 0 0 0-2.421-4.568 18.68 18.68 0 0 0 1.153 5.071v-.023Zm-73.767-95.832a17.948 17.948 0 0 0 2.41 4.568 18.276 18.276 0 0 0-1.142-5.048 18.777 18.777 0 0 0-2.421-4.568 18.08 18.08 0 0 0 1.153 5.071v-.023ZM108.246 283a18.362 18.362 0 0 0 2.41 4.568 17.688 17.688 0 0 0-1.142-5.048 17.952 17.952 0 0 0-2.41-4.568 18.275 18.275 0 0 0 1.142 5.07V283Zm-61.387 23.903a18.28 18.28 0 0 0 2.41 4.569 18.275 18.275 0 0 0-1.142-5.06 18.78 18.78 0 0 0-2.421-4.568c.14 1.733.528 3.437 1.153 5.059Zm87.666-2.626a18.184 18.184 0 0 0 4.568-2.422c-1.729.131-3.43.516-5.048 1.142a17.985 17.985 0 0 0-4.568 2.41 18.258 18.258 0 0 0 5.048-1.13ZM52.01 259.13c-.183.537-.377 1.062-.56 1.599l.743-.251a17.666 17.666 0 0 0 4.568-2.421 17.497 17.497 0 0 0-4.75 1.073Zm101.828-46.22c-.856.417-1.671.915-2.433 1.485a14.099 14.099 0 0 0 3.038-.525c-.206-.32-.411-.64-.605-.96Zm-67.463 91.367a18.788 18.788 0 0 0 4.569-2.422 17.69 17.69 0 0 0-5.049 1.142 18.294 18.294 0 0 0-4.568 2.41 18.263 18.263 0 0 0 5.048-1.13Zm-54.294 25.742c-.765.297-1.519.605-2.284.971-.107.411-.21.792-.309 1.142a23.06 23.06 0 0 0 3.027-.88 18.29 18.29 0 0 0 4.568-2.409 18.02 18.02 0 0 0-5.002 1.176Zm77.661-89.322a18.737 18.737 0 0 0 4.568-2.421c-1.729.131-3.43.516-5.048 1.142a18.262 18.262 0 0 0-4.568 2.41 18.657 18.657 0 0 0 5.037-1.131h.011Z" fill="#fff"/><path d="M137.929 259.644a122.879 122.879 0 0 0-17.988 3.118c-2.924.777-5.79 1.679-8.657 2.65a94.143 94.143 0 0 1-4.317 1.347 18.867 18.867 0 0 1-4.626.914.116.116 0 0 0-.078.108.116.116 0 0 0 .078.109 32.32 32.32 0 0 0 4.466-.114c1.437-.19 2.86-.473 4.26-.845 2.969-.754 5.904-1.656 8.874-2.444 5.996-1.599 11.98-3.187 18.068-4.352.274-.045.205-.525-.08-.491ZM152.958 264.875a135.106 135.106 0 0 0-15.041-.583c-2.524 0-5.014.252-7.515.514-1.142.126-2.387.274-3.574.434-1.188.16-2.593.526-3.906.686-.137 0-.126.239 0 .217 1.233-.115 2.501 0 3.746-.058l3.757-.137c2.501-.079 5.002-.137 7.515-.239 5.014-.217 10.005-.377 15.018-.412.286-.011.263-.388 0-.422Z" fill="#000"/><path d="M84.251 185.809c-22.579 24.178-73.093 111.055-55.722 127.787 17.371 16.731 126.542 17.051 145.992 17.051 8.851 0-9.285-58.246-18.776-59.388-7.903-.971-65.361-2.832-66.526-5.162-1.325-2.627 6.179-23.824 12.814-59.628 7.115-38.385-7.846-31.338-17.782-20.66ZM187.243 259.267c19.621-2.741 25.126-.422 40.418-11.523 10.062-7.287 19.027-3.986 13.294 7.583-9.399 18.936-33.977 27.775-43.399 28.392l-10.313-24.452Z" fill="#FFD3C9"/><path d="M135.119 278.157s22.054-12.243 42.668-17.234c14.265-3.426 47.613-8.851 76.61 23.984 9.137 10.347 9.628 24.977-4.385 16.24-10.884-6.784-16.743-13.556-24.052-15.601 0 0 4.008 20.798-3.746 27.753a191.844 191.844 0 0 1-21.551 16.72 38.698 38.698 0 0 1-3.495-3.758s-7.857 5.814-22.647 4.409l-39.402-52.513Z" fill="#FFD3C9"/><path d="M191.926 259.815c6.852 3.552 21.14 11.33 30.653 21.768 10.553 11.593 27.764 36.775 19.13 44.484-6.338 5.642-13.705-3.426-13.705-3.426s4.923 11.912-1.918 15.761c-6.236 3.506-11.547-3.826-11.547-3.826s1.736 7.743-4.911 9.97c-7.994 2.673-10.347-13.979-20.797-18.273-2.387-.937 3.095-66.458 3.095-66.458Z" fill="#FFD3C9"/><path d="M208.143 290.857c5.871 4.397 16.629 17.794 19.598 31.67.069.32-.125.537-.251.263a154.024 154.024 0 0 0-19.415-31.83c-.091-.069.011-.16.068-.103ZM197.077 301.707c4.659 4.317 15.132 18.616 17.668 32.789.057.308-.16.514-.275.24a164.438 164.438 0 0 0-17.496-32.949c-.069-.08 0-.149.103-.08Z" fill="#000"/><path d="M178.861 330.864a52.381 52.381 0 0 0 6.943-.548 23.17 23.17 0 0 0 6.67-1.827h.057a45.295 45.295 0 0 1 6.11 6.852 35.605 35.605 0 0 1 2.467 3.906 13.542 13.542 0 0 0 2.696 3.609 6.405 6.405 0 0 0 3.974 1.747 5.712 5.712 0 0 0 3.997-1.564 7.504 7.504 0 0 0 2.033-3.849 15.44 15.44 0 0 0 .32-4.466l-.069-.982.617.765a12.018 12.018 0 0 0 5.916 4.249 6.99 6.99 0 0 0 3.598 0 6.475 6.475 0 0 0 3.083-1.793c1.599-1.828 1.862-4.5 1.702-6.944a28.272 28.272 0 0 0-1.565-7.321l-.674-1.953 1.314 1.599a15.054 15.054 0 0 0 5.939 4.568 7.5 7.5 0 0 0 3.631.514 7.346 7.346 0 0 0 3.37-1.37 6.046 6.046 0 0 0 2.032-2.958c.357-1.199.504-2.451.434-3.7a25.465 25.465 0 0 0-1.61-7.447 68.086 68.086 0 0 0-7.092-13.705 134.354 134.354 0 0 0-9.228-12.448l-1.028-1.222 1.588.479c1.784.594 3.5 1.379 5.116 2.342a63.579 63.579 0 0 1 4.671 2.969c3.038 2.09 5.859 4.466 8.783 6.624a47.202 47.202 0 0 0 9.205 5.71c1.599.64 3.426 1.143 4.819.32 1.394-.822 1.816-2.627 1.702-4.34a16.41 16.41 0 0 0-1.222-5.139 26.97 26.97 0 0 0-2.65-4.671 59.362 59.362 0 0 0-7.103-8.246 94.653 94.653 0 0 0-8.235-7.172 75.814 75.814 0 0 0-9.034-6.11l-.502-.286.411-.411a45.19 45.19 0 0 0 8.372-10.918 13.97 13.97 0 0 0 1.736-6.487 6.304 6.304 0 0 0-.834-3.141 4.051 4.051 0 0 0-2.513-1.85 9.965 9.965 0 0 0-6.464 1.233 66.955 66.955 0 0 0-6.007 3.427c-3.872 2.489-7.664 5.402-12.209 6.852a42.1 42.1 0 0 1-6.852 1.382c-2.285.32-4.626.594-6.933.879-4.568.56-9.228 1.143-13.819 1.896a130.834 130.834 0 0 0-26.964 6.944 131.05 131.05 0 0 1 26.907-7.286c4.568-.8 9.194-1.451 13.808-2.068l6.852-.947a39.708 39.708 0 0 0 6.784-1.394c4.408-1.393 8.12-4.271 12.026-6.852 1.964-1.268 3.963-2.467 6.053-3.541a10.62 10.62 0 0 1 7.012-1.313 4.89 4.89 0 0 1 2.97 2.17 7.043 7.043 0 0 1 .948 3.518 14.522 14.522 0 0 1-1.793 6.852 45.558 45.558 0 0 1-8.486 11.181l-.08-.685a77.145 77.145 0 0 1 9.137 6.133 96.456 96.456 0 0 1 8.348 7.217 59.624 59.624 0 0 1 7.264 8.349 28.129 28.129 0 0 1 2.775 4.842 17.513 17.513 0 0 1 1.325 5.494 7.8 7.8 0 0 1-.331 2.924 4.313 4.313 0 0 1-1.885 2.409 4.63 4.63 0 0 1-2.992.526 10.774 10.774 0 0 1-2.787-.743 45.668 45.668 0 0 1-9.467-5.801c-2.958-2.216-5.711-4.569-8.726-6.647a64.316 64.316 0 0 0-4.568-2.935 24.34 24.34 0 0 0-4.831-2.285l.514-.822a136.482 136.482 0 0 1 9.239 12.563 68.69 68.69 0 0 1 7.115 13.922 26.374 26.374 0 0 1 1.633 7.709 11.814 11.814 0 0 1-.491 3.986 6.85 6.85 0 0 1-2.284 3.346 8.08 8.08 0 0 1-3.769 1.519 8.488 8.488 0 0 1-3.997-.571 15.89 15.89 0 0 1-6.247-4.842l.64-.354a29.262 29.262 0 0 1 1.576 7.526 14.872 14.872 0 0 1-.229 3.883 7.55 7.55 0 0 1-1.69 3.552 7.455 7.455 0 0 1-7.344 1.941 12.73 12.73 0 0 1-6.235-4.5l.548-.217a16.055 16.055 0 0 1-.366 4.672 7.783 7.783 0 0 1-2.284 4.122 6.145 6.145 0 0 1-4.363 1.634 6.858 6.858 0 0 1-4.248-1.919 14.148 14.148 0 0 1-2.73-3.746 36.675 36.675 0 0 0-2.387-3.895 45.558 45.558 0 0 0-5.984-6.921h.091a23.336 23.336 0 0 1-6.738 1.759 54.513 54.513 0 0 1-6.932.537Z" fill="#000"/><path d="m48.858 228.134 47.02 16.937s11.123-33.12 11.888-54.134c.766-21.014-11.729-18.89-25.89-4.054-14.162 14.835-33.018 41.251-33.018 41.251Z" fill="#FFB445"/><path d="M107.732 191.154a18.143 18.143 0 0 1-1.542 4.956 17.744 17.744 0 0 1-2.752 4.386c.272-1.714.791-3.38 1.542-4.945a18.142 18.142 0 0 1 2.752-4.397Zm-51.69 39.573 1.245.445a17.293 17.293 0 0 0 1.416-4.648 17.037 17.037 0 0 0-2.661 4.203Zm29.602-6.293a17.948 17.948 0 0 0 2.41 4.568 18.276 18.276 0 0 0-1.142-5.048 18.784 18.784 0 0 0-2.421-4.568c.14 1.729.529 3.429 1.153 5.048Zm-14.116-23.538a22.98 22.98 0 0 0-2.97 1.359l-.764.959a19.331 19.331 0 0 0 4.214-1.073 17.669 17.669 0 0 0 4.568-2.422 18.3 18.3 0 0 0-5.048 1.177Z" fill="#fff"/><path d="M96.471 235.729c-7.115-3.061-26.679-10.77-40.075-14.036-.08 0-.194.286-.126.32 10.701 4.477 32.663 11.786 39.973 14.184.228.046.411-.411.228-.468Z" fill="#000"/><path d="M105.608 217.913c0-.069-.08-.103-.114 0a58.363 58.363 0 0 0-2.285 4.945 242.971 242.971 0 0 0 2.205-11.055.103.103 0 1 0-.206 0c-3.152 10.838-6.578 21.631-9.502 32.537-1.2-.057-2.41-.137-3.598-.297a.161.161 0 0 0-.166.125.16.16 0 0 0 .098.184c1.302.32 2.581.731 3.849 1.142a.614.614 0 0 0 .81-.274 161.923 161.923 0 0 0 5.711-18.959c.491-.982.971-1.964 1.393-2.981a37.275 37.275 0 0 0 1.805-5.367Z" fill="#000"/><path d="M108.2 177.221c.229 2.546 9.696 20.214 21.026 21.299 3.689.354 6.487-19.712 6.487-19.712l.548-1.439 7.606-20.078-22.122-19.129-3.22-2.57s-1.725 5.63-3.792 12.665c-.103.32-.206.651-.297.994-.091.343-.263.777-.354 1.142a129.752 129.752 0 0 0-.959 3.198c-.229.811-.457 1.599-.674 2.467a110.93 110.93 0 0 1-.685 2.57c-2.148 8.542-3.632 17.45-3.564 18.593Z" fill="#FFD3C9"/><path d="M114.744 148.246a43.031 43.031 0 0 0 21.529 29.112l7.606-20.078-22.122-19.13-3.221-2.57s-1.736 5.631-3.792 12.666Z" fill="#000"/><path d="M176.862 128.18c-1.942 37.688-24.703 40.726-32.812 40.292-7.366-.388-32.401-2.638-34.365-40.281-1.964-37.642 16.16-48.63 33.052-48.63 16.891 0 36.066 10.987 34.125 48.619Z" fill="#FFD3C9"/><path d="M171.848 121.407a23.395 23.395 0 0 1-2.501-.719 4.215 4.215 0 0 1-2.41-1.222 1.357 1.357 0 0 1 .114-1.633 3.361 3.361 0 0 1 3.335-.537 4.922 4.922 0 0 1 2.924 1.953 1.414 1.414 0 0 1-1.462 2.158ZM147.865 119.808c.879 0 1.701-.228 2.569-.354a4.19 4.19 0 0 0 2.57-.856 1.338 1.338 0 0 0 .114-1.633 3.31 3.31 0 0 0-3.209-1.017 4.945 4.945 0 0 0-3.186 1.496 1.441 1.441 0 0 0 1.142 2.364ZM151.645 129.116c0-.102-.217.114-.217.217 0 2.57-.525 5.494-2.89 6.236-.079 0-.079.148 0 .137 2.856-.251 3.472-4.169 3.107-6.59Z" fill="#000"/><path d="M149.486 126.33c-4.111-.526-4.842 7.72-1.039 8.211 3.803.491 4.477-7.777 1.039-8.211Z" fill="#000"/><path d="M147.865 126.615c-.766.4-1.542 1.142-2.422 1.142-.879 0-1.701-.925-2.284-1.816 0-.091-.137 0-.148.08-.16 1.576.297 3.255 1.976 3.643 1.678.389 2.763-.947 3.3-2.501.069-.194-.148-.708-.422-.548ZM165.658 129.824c0-.091.183.137.172.252-.332 2.535-.286 5.516 1.952 6.589.069 0 0 .16 0 .138-2.786-.697-2.786-4.614-2.124-6.979Z" fill="#000"/><path d="M168.194 127.38c4.134.092 3.654 8.36-.172 8.28-3.826-.079-3.3-8.348.172-8.28Z" fill="#000"/><path d="M169.884 128.02c.628.48 1.233 1.313 2.01 1.416.776.103 1.622-.742 2.284-1.576.069-.08.126 0 .126.103-.057 1.576-.674 3.198-2.205 3.426-1.53.228-2.341-1.222-2.626-2.821-.092-.308.16-.731.411-.548ZM149.738 148.817c.525.674 1.028 1.576 1.941 1.782a6.736 6.736 0 0 0 2.81-.274.091.091 0 0 1 .063-.007.097.097 0 0 1 .052.037c.012.018.018.04.016.061a.1.1 0 0 1-.028.057 3.43 3.43 0 0 1-3.427.937 2.714 2.714 0 0 1-1.701-2.513.145.145 0 0 1 .274-.08ZM160.645 141.633s.228 3.861.091 5.711c0 .16-6.693 1.005-9.217-3.655a.185.185 0 0 1-.039-.134.185.185 0 0 1 .202-.162c.048.006.093.03.123.068a12.999 12.999 0 0 0 7.652 2.855c.16-.491-.617-6.601-.331-6.601 1.39.23 2.742.649 4.02 1.245-.252-8.063-1.782-15.989-1.908-24.041a.254.254 0 0 1 .209-.225.25.25 0 0 1 .271.145c2.193 8.223 2.684 17.485 3.152 25.799.126.994-3.529-.651-4.225-1.005Z" fill="#000"/><path d="M110.108 127.38a15.257 15.257 0 0 0 11.26-10.016c32.253-.788 42.92-20.797 42.92-20.797 6.19 16.846 11.717 19.735 12.62 22.271 0 0 2.684-14.608-2.193-25.743-4.317-9.856-15.395-20.409-32.823-18.17-9.879 1.267-18.194 9.822-18.194 9.822s-10.678 1.142-15.052 9.73c-7.332 14.436 1.462 32.903 1.462 32.903Z" fill="#000"/><path d="M164.779 95.288a26.132 26.132 0 0 1-6.419 11.169 33.674 33.674 0 0 1-10.667 7.435l-3.06 1.143c-1.04.354-2.102.571-3.153.856-2.102.55-4.244.932-6.407 1.142-2.158.194-4.328.16-6.487.24-2.147-.194-4.294-.343-6.43-.571 2.159-.069 4.295 0 6.43-.069 2.125-.217 4.26-.297 6.362-.593a47.291 47.291 0 0 0 12.22-3.335 34.415 34.415 0 0 0 10.473-6.944 30.253 30.253 0 0 0 7.138-10.473Z" fill="#000"/><path d="M143.228 141.496a11.961 11.961 0 0 1-9.123-8.799 11.966 11.966 0 0 1 9.914-14.756 11.972 11.972 0 0 1 13.656 11.381 11.98 11.98 0 0 1-11.489 12.426 12.655 12.655 0 0 1-2.958-.252Zm4.637-21.847a10.348 10.348 0 1 0-4.3 20.245 10.348 10.348 0 0 0 4.3-20.245ZM170.581 143.906c-4.477-.959-7.561-6.407-6.979-12.62a14.252 14.252 0 0 1 3.29-8.097 7.455 7.455 0 0 1 10.239-1.727 7.458 7.458 0 0 1 2.472 2.869 14.26 14.26 0 0 1 1.736 8.566c-.617 6.567-5.094 11.546-9.982 11.089a2.917 2.917 0 0 1-.776-.08Zm3.426-22.019a3.411 3.411 0 0 0-.594-.091 6.364 6.364 0 0 0-5.345 2.444 12.723 12.723 0 0 0-2.901 7.195c-.537 5.71 2.284 10.621 6.316 10.998 4.031.377 7.709-3.952 8.234-9.639a12.702 12.702 0 0 0-1.519-7.606 6.585 6.585 0 0 0-4.168-3.301h-.023Z" fill="#666"/><path d="m157.15 130.658-.914-1.313c1.953-1.348 6.316-2.993 8.943.388l-1.268.982c-2.341-3.038-6.579-.171-6.761-.057ZM103.781 128.762l-1.348-.868c.4-.628 4.043-6.144 7.652-6.384 3.426-.217 24.532 3.78 25.434 3.952l-.297 1.564c-6.065-1.142-22.431-4.1-25.034-3.917-2.376.16-5.437 4.134-6.407 5.653Z" fill="#666"/><path d="M115.795 128.591s-6.532-12.78-12.22-10.61c-5.688 2.17-1.907 19.906 3.974 23.081a6.36 6.36 0 0 0 4.939.798 6.372 6.372 0 0 0 3.992-3.013l-.685-10.256Z" fill="#FFD3C9"/><path d="M104.785 123.04c-.102 0-.137.115-.057.16 4.112 2.364 5.836 6.716 6.853 11.124-1.074-1.793-2.707-2.912-5.082-1.679a.136.136 0 0 0-.004.226.14.14 0 0 0 .084.026 3.91 3.91 0 0 1 4.088 1.952 19.167 19.167 0 0 1 1.565 3.735c.148.423.879.308.799-.16a.356.356 0 0 1 0-.103c.868-5.539-2.364-13.899-8.246-15.281ZM266.229 336.826a96.436 96.436 0 0 1-11.032-1.679 94.178 94.178 0 0 1-10.816-2.798 108.918 108.918 0 0 1 21.848 4.477ZM298.002 327.084c-.445-4.374-.548-8.748-.571-13.123-.032-4.384.158-8.768.571-13.133.412 4.365.603 8.749.571 13.133-.023 4.375-.126 8.749-.571 13.123ZM286.844 327.267a119.492 119.492 0 0 1-6.91-10.279 116.662 116.662 0 0 1-5.927-10.896 133.448 133.448 0 0 1 12.837 21.209v-.034ZM246.825 307.075c2.536 1.953 4.991 3.997 7.435 6.053 2.444 2.055 4.831 4.157 7.218 6.281a268.39 268.39 0 0 1 7.047 6.476l3.426 3.3 3.426 3.426c-1.267-.97-2.501-1.987-3.746-2.98l-3.677-3.073c-2.444-2.044-4.831-4.157-7.218-6.281a268.39 268.39 0 0 1-7.047-6.476c-2.307-2.204-4.637-4.419-6.864-6.726ZM318.742 334.827a96.738 96.738 0 0 1 10.804-2.798 93.992 93.992 0 0 1 11.044-1.679 109.365 109.365 0 0 1-21.848 4.477ZM336.307 304.836c-2.215 2.284-4.568 4.511-6.852 6.704-2.284 2.193-4.683 4.34-7.047 6.476a238.148 238.148 0 0 1-7.229 6.281l-3.666 3.072c-1.256.994-2.479 2.01-3.758 2.981l3.427-3.426 3.426-3.301c2.284-2.204 4.682-4.34 7.046-6.475a238.218 238.218 0 0 1 7.23-6.282c2.455-2.044 4.899-4.077 7.423-6.03ZM440.156 325.782l3.244-.434-5.254-126.828-37.677-53.072-2.81 2.307 37.472 52.833 5.025 125.194Z" fill="#000"/><path d="M441.241 199.56a4.571 4.571 0 0 1-2.82 4.22 4.56 4.56 0 0 1-2.639.26 4.575 4.575 0 0 1-3.59-3.589 4.57 4.57 0 0 1 4.481-5.46 4.572 4.572 0 0 1 4.568 4.569ZM404.044 147.07a4.569 4.569 0 1 1-9.138 0 4.569 4.569 0 0 1 9.138 0Z" fill="#FF6868"/><path d="m368.16 148.863 17.759 27.147 11.74-10.701 7.15-6.521-13.328-20.329-8.84 3.94-14.481 6.464Z" fill="#FF6868"/><path opacity=".1" d="m368.16 148.863 17.759 27.147 11.74-10.701-15.018-22.91-14.481 6.464Z" fill="#000"/><path d="m335.336 155.932 30.985 47.328 29.591-27.844-23.218-35.473-37.358 15.989ZM412.141 336.837H468l-3.438-17.542h-48.995l-3.426 17.542Z" fill="#FF6868"/><path d="M229.911 38.55a34.563 34.563 0 0 1-22.142 28.738 34.572 34.572 0 0 1-35.624-6.867l-17.302 2.592 8.657-14.961a34.255 34.255 0 0 1-2.376-16.64 34.589 34.589 0 0 1 24.523-29.774 34.584 34.584 0 0 1 43.098 23.468 34.576 34.576 0 0 1 1.166 13.5v-.056Z" fill="#fff"/><path d="M229.911 38.55a34.757 34.757 0 0 1-6.978 17.52 31.105 31.105 0 0 1-6.784 6.703 34.867 34.867 0 0 1-17.645 6.853c-1.599.138-3.205.17-4.808.091a29.456 29.456 0 0 1-4.785-.502 34.83 34.83 0 0 1-17.131-8.44l.411.125-17.28 2.65-1.256.194.628-1.142 8.611-14.984v.594a34.985 34.985 0 0 1-2.524-15.667 34.982 34.982 0 0 1 4.66-15.17 35.406 35.406 0 0 1 10.827-11.534 34.925 34.925 0 0 1 54.077 32.652l-.023.057Zm0 0a34.27 34.27 0 0 0-10.42-28.334 34.26 34.26 0 0 0-28.787-9.092 33.947 33.947 0 0 0-14.288 5.642 35.563 35.563 0 0 0-10.347 11.283 34.256 34.256 0 0 0-4.385 14.63 34.616 34.616 0 0 0 2.432 15.064l.126.309-.16.285-8.714 14.927-.617-.913 17.314-2.422h.24l.171.16a33.98 33.98 0 0 0 16.56 8.52c1.546.322 3.116.513 4.694.571a32.68 32.68 0 0 0 4.729 0 34.262 34.262 0 0 0 9.239-2.033 32.352 32.352 0 0 0 8.337-4.5c1.28-.94 2.5-1.958 3.655-3.049a37.49 37.49 0 0 0 3.14-3.575 34.654 34.654 0 0 0 7.081-17.473Z" fill="#000"/><path d="M214.802 36.003a4.189 4.189 0 0 1-2.588 3.872 4.19 4.19 0 0 1-5.476-5.476 4.186 4.186 0 0 1 3.872-2.588 4.18 4.18 0 0 1 4.192 4.192ZM199.795 36.003a4.192 4.192 0 1 1-4.18-4.192 4.178 4.178 0 0 1 4.18 4.192ZM184.799 36.003a4.196 4.196 0 0 1-2.587 3.872 4.193 4.193 0 0 1-5.477-5.476 4.199 4.199 0 0 1 5.479-2.272 4.186 4.186 0 0 1 2.269 2.27c.21.51.318 1.055.316 1.606Z" fill="#000"/><path d="M288.066 85.055h-93.125v51.359h93.125V85.055Z" fill="#666"/><path d="M270.112 136.414h17.954V149.4l-17.954-12.986Z" fill="#666"/><path d="M248.493 94.534H206.27v1.154h42.223v-1.154ZM277.182 100.782H206.27v1.153h70.912v-1.153ZM277.182 107.029H206.27v1.153h70.912v-1.153ZM263.591 113.276H206.27v1.153h57.321v-1.153ZM277.182 119.523H206.27v1.153h70.912v-1.153ZM232.355 125.77H206.27v1.154h26.085v-1.154Z" fill="#fff"/><path d="M319.222 155.099h-92.497v38.099h92.497v-38.099Z" fill="#FFB445"/><path d="M319.222 205.43v-12.243h-18.57l18.57 12.243Z" fill="#FFB445"/><path d="M308.109 164.578h-70.135v1.153h70.135v-1.153ZM277.993 170.825h-40.019v1.154h40.019v-1.154ZM292.063 177.072h-54.089v1.154h54.089v-1.154ZM256.819 183.319h-18.845v1.154h18.845v-1.154ZM252.924 341.177h-9.285v6.064h9.285v-6.064ZM264.962 340.777h-9.285v6.065h9.285v-6.065ZM277.011 340.378h-9.286v6.064h9.286v-6.064ZM289.048 339.978h-9.285v6.064h9.285v-6.064ZM301.097 339.578h-9.285v6.065h9.285v-6.065ZM313.134 339.178h-9.285v6.065h9.285v-6.065ZM325.172 338.779h-9.285v6.064h9.285v-6.064ZM337.221 338.379h-9.285v6.064h9.285v-6.064ZM349.258 337.979h-9.285v6.065h9.285v-6.065Z" fill="#fff"/><path d="M351.531 350.736H241.366v-7.389l110.165-3.072v10.461Z" fill="#999"/><path d="M433.692 325.188H280.197l24.406-114.276h153.495l-24.406 114.276Z" fill="#fff"/><path d="M439.368 325.188H285.873l24.406-114.276h153.495l-24.406 114.276Z" fill="#999"/><path d="M384.556 267.842c4.165-3.848 4.876-9.852 1.588-13.41-3.287-3.557-9.329-3.322-13.493.526-4.165 3.849-4.876 9.853-1.588 13.41 3.287 3.558 9.329 3.323 13.493-.526ZM395.958 355.03h-75.491v-5.87l75.491-2.432v8.302Z" fill="#fff"/><path d="M416.481 355.019h-40.532l-24.418-64.036h40.532l24.418 64.036Z" fill="#fff"/><path d="M423.151 355.019h-40.533l-24.406-64.036h40.532l24.407 64.036ZM231.236 356.584h-77.787c-6.635 0 2.97-18.913 27.216-26.165 24.246-7.252 58.269 19.072 50.571 26.165Z" fill="#999"/><path d="M200.743 356.584a23.6 23.6 0 0 1 1.062-6.35 26.627 26.627 0 0 1 2.627-5.928 21.237 21.237 0 0 1 4.122-5.013 18.29 18.29 0 0 1 5.471-3.427c-.834.686-1.782 1.143-2.547 1.908l-1.142 1.016-1.142 1.142a27.15 27.15 0 0 0-3.769 4.968 37.33 37.33 0 0 0-2.764 5.631 46.957 46.957 0 0 0-1.918 6.053Z" fill="#000"/><path d="M209.971 338.585a47.976 47.976 0 0 1 6.715 2.741 46.735 46.735 0 0 1 6.259 3.723 27.94 27.94 0 0 1 5.424 4.911 17.206 17.206 0 0 1 2.01 3.095 9.133 9.133 0 0 1 .903 3.529 10.391 10.391 0 0 0-1.394-3.267 17.046 17.046 0 0 0-2.181-2.775 38.56 38.56 0 0 0-5.425-4.568c-1.93-1.394-3.974-2.638-6.019-3.872a75.43 75.43 0 0 0-3.129-1.781c-1.062-.572-2.101-1.154-3.163-1.736Z" fill="#000"/><path opacity=".6" d="M86.878 318.393s27.752-12.792 27.752-29.934c0-17.143-35.998-28.175-35.998-41.572 0-13.396 15.703-21.288 15.703-21.288s-24.805 8.474-24.805 25.423c0 16.948 23.732 28.426 26.005 39.218 3.152 14.973-8.657 28.153-8.657 28.153Z" fill="#fff"/><path opacity=".6" d="M88.248 318.393s-27.764-10.051-27.764-23.527c0-13.477 35.987-22.156 35.987-32.698 0-10.541-15.692-16.731-15.692-16.731s24.829 6.658 24.829 19.986-27.25 22.488-29.203 33.314c-1.93 10.61 11.843 19.656 11.843 19.656Z" fill="#fff"/><path d="M100.366 361.506H73.961v4.123h26.405v-4.123Z" fill="#A9C297"/><path d="M100.366 361.506H73.961v2.718h26.405v-2.718Z" fill="#000"/><path d="M42.622 350.416a14.917 14.917 0 0 0 14.847 6.362 14.344 14.344 0 0 0 2.673-.765 19.025 19.025 0 0 0 3.734-1.965l-3.357-4.979c-.62.446-1.281.828-1.976 1.142-6.293 2.855-10.279-2.113-11.056-3.244-3.551-5.093-4.888-16.708-1.267-21.185.24-.331 1.302-.857 5.55.057.788.171 1.68.365 2.684.651.78.265 1.59.438 2.41.514l.114-2.981.286-2.981c-.274 0-.697-.171-1.257-.331A38.096 38.096 0 0 0 50 319.466c-3.13-.331-6.407 0-8.417 2.524-5.916 7.298-3.495 22.054 1.04 28.426Z" fill="#A9C297"/><path d="M60.541 349.069a11.48 11.48 0 0 1-1.975 1.142l1.599 5.813a19.021 19.021 0 0 0 3.734-1.964l-3.358-4.991ZM50.046 319.466l1.77 6.373a41.8 41.8 0 0 1 2.684.651c.78.265 1.589.438 2.41.514l.114-2.981.285-2.981c-.274 0-.696-.171-1.256-.331a38.092 38.092 0 0 0-6.007-1.245Z" fill="#000"/><path d="M122.294 311.677s-3.175 26.907-8.646 38.248c-5.471 11.341-13.1 12.563-17.85 12.563H78.528c-4.74 0-12.38-1.268-17.85-12.563-5.471-11.295-8.635-38.248-8.635-38.248h70.25Z" fill="#A9C297"/><path d="M63.51 319.363a3.12 3.12 0 0 1-1.924 2.881 3.116 3.116 0 0 1-4.074-4.074 3.123 3.123 0 0 1 2.88-1.924 3.112 3.112 0 0 1 2.881 1.924c.157.379.238.784.238 1.193Zm24.407-3.768a3.115 3.115 0 0 0-3.058 3.726 3.115 3.115 0 0 0 2.45 2.449 3.112 3.112 0 0 0 3.2-1.325 3.12 3.12 0 0 0-.387-3.937 3.117 3.117 0 0 0-2.205-.913Zm0 39.161a3.116 3.116 0 0 0-2.88 1.925 3.12 3.12 0 0 0 2.272 4.251 3.112 3.112 0 0 0 3.2-1.326 3.115 3.115 0 0 0-.387-3.936 3.118 3.118 0 0 0-2.205-.914Zm22.613-17.645a3.114 3.114 0 0 0-2.88 1.925 3.12 3.12 0 0 0 .675 3.398 3.116 3.116 0 0 0 4.797-.473 3.112 3.112 0 0 0-.387-3.936 3.119 3.119 0 0 0-2.205-.914Zm-34.616 9.194a3.122 3.122 0 0 0-2.88 1.925 3.115 3.115 0 0 0 .675 3.398 3.116 3.116 0 0 0 4.797-.473 3.117 3.117 0 0 0-2.592-4.85Zm36.546-30.71a3.113 3.113 0 0 0-2.88 1.924 3.122 3.122 0 0 0 .675 3.398 3.12 3.12 0 0 0 4.798-.472 3.117 3.117 0 0 0-2.593-4.85Zm-24.954 21.014a3.122 3.122 0 0 0-2.88 1.925 3.116 3.116 0 0 0 4.073 4.073 3.115 3.115 0 0 0 1.925-2.88 3.119 3.119 0 0 0-3.084-3.118h-.034Zm-23.641.491a3.122 3.122 0 0 0-2.88 1.925 3.116 3.116 0 0 0 2.272 4.251 3.12 3.12 0 0 0 3.726-3.058 3.121 3.121 0 0 0-3.084-3.107l-.034-.011Zm36.466-10.439a3.115 3.115 0 0 0-2.88 1.925 3.117 3.117 0 1 0 2.915-1.925h-.035Zm-.845 20.158a3.122 3.122 0 0 0-2.889 1.917 3.117 3.117 0 1 0 2.923-1.917h-.034ZM74.36 326.661a3.122 3.122 0 0 0-2.888 1.917 3.118 3.118 0 1 0 2.934-1.917h-.046Z" fill="#A9C297"/></svg>