<svg width="196" height="200" fill="none" xmlns="http://www.w3.org/2000/svg"><path d="M103.454 60.547c-4.372 1.57-9.84 1.793-13.677-1.213-3.184-2.476-4.352-6.74-3.828-10.642a13.92 13.92 0 0 1 2.13-5.709c1.376-2.124 3.209-3.902 4.996-5.675 3.377-3.342 7.2-7.383 7.071-12.488-.114-4.486-3.783-7.983-7.893-9.2-2.909-.831-6.01-.694-8.834.39a7.939 7.939 0 0 0-.436-.609c-2.421-3.05-6.477-4.456-10.275-4.456a19.105 19.105 0 0 0-12.018 4.392 18.663 18.663 0 0 0-2.287 2.268c-.223.267.173.639.4.371 2.781-3.249 6.6-5.436 10.81-6.19 3.838-.693 8.003-.148 11.177 2.244a9.37 9.37 0 0 1 2.104 2.184 13.86 13.86 0 0 0-2.738 1.55c-1.525 1.128-3.773 3.12-2.892 5.253a3.65 3.65 0 0 0 4.16 1.981c1.94-.495 3.045-2.575 3.213-4.457a7.037 7.037 0 0 0-.92-4.065 13.473 13.473 0 0 1 8.378-.342c4.09 1.189 7.66 4.74 7.517 9.21-.075 2.397-1.144 4.665-2.476 6.611-1.332 1.946-3.14 3.69-4.858 5.393a32.728 32.728 0 0 0-4.724 5.472 14.255 14.255 0 0 0-2.07 5.447c-.574 3.64.218 7.606 2.753 10.398 3.056 3.343 7.923 4.061 12.182 3.298a19.533 19.533 0 0 0 3.218-.861c.312-.149.149-.674-.183-.555ZM83.864 18.26c.496 1.832.214 4.016-1.207 5.382a3.037 3.037 0 0 1-2.442.882 3.259 3.259 0 0 1-2.084-1.095c-1.565-1.871.737-4.02 2.183-5.115a13.096 13.096 0 0 1 2.872-1.639 6.62 6.62 0 0 1 .679 1.585ZM188.413 100.602c-4.952-1.56-9.577 2.02-12.935 5.209-3.357 3.189-6.997 7.022-11.973 6.784a7.303 7.303 0 0 1-5.749-2.971c-1.288-1.881-1.515-4.243-1.372-6.467.312-4.838 2.788-9.953.802-14.721a9.673 9.673 0 0 0-4.699-4.779c-2.392-1.198-5.08-1.575-7.73-1.708a60.072 60.072 0 0 0-2.119-.065.272.272 0 0 0 0 .545c2.788.05 5.64.178 8.284 1.144 2.194.802 4.254 2.238 5.398 4.313 1.253 2.283 1.198 4.986.822 7.492-.367 2.426-1.04 4.803-1.263 7.254-.198 2.189-.074 4.511.951 6.502a7.428 7.428 0 0 0 4.952 3.773c2.194.488 4.489.225 6.516-.747 2.169-.991 4.001-2.565 5.725-4.185 1.802-1.683 3.51-3.466 5.565-4.867 2.055-1.402 4.412-2.476 6.903-2.318.613.037 1.218.15 1.803.337.307.109.455-.416.119-.525ZM19.382 83.751c-.465-.896-.99-2.268-.337-3.209a.9.9 0 0 1 1.283-.208c.385.294.665.704.797 1.169.286.97.286 2.001 0 2.971a6.249 6.249 0 0 1-.39 1.094 7.62 7.62 0 0 1-1.353-1.817Zm13.529-.139a7.804 7.804 0 0 1-5.126 4.051 7.43 7.43 0 0 1-6.283-1.406c-.124-.094-.238-.203-.357-.307.221-.444.397-.908.525-1.387a5.941 5.941 0 0 0 0-3.189c-.277-.876-1.015-1.881-2.05-1.763-1.263.149-1.515 1.664-1.337 2.69a6.932 6.932 0 0 0 1.62 3.168c.177.208.366.406.564.595a7.13 7.13 0 0 1-3.16 2.97 8.596 8.596 0 0 1-6.392.134C6.067 87.43 3.403 82.35 2.59 77.542A21.342 21.342 0 0 1 4.6 64.4c.253-.496.53-.99.822-1.456.183-.297-.252-.624-.436-.327a21.823 21.823 0 0 0-3.07 14.236c.684 5.22 3.466 10.855 8.68 12.761a9.16 9.16 0 0 0 6.918-.084 7.66 7.66 0 0 0 3.363-3.08 8.111 8.111 0 0 0 5.278 1.98 8.377 8.377 0 0 0 6.304-3.09c.374-.457.694-.955.956-1.485.153-.356-.352-.56-.505-.243ZM5.59 61.825a50.847 50.847 0 0 0-5.16 3.778c-.247.208 0 .644.273.436a50.331 50.331 0 0 1 4.64-3.412 22.957 22.957 0 0 0-.708 5.323c0 .332.495.317.495 0 .02-1.97.307-3.93.852-5.823a.257.257 0 0 0-.392-.288v-.014ZM168.793 33.277c-.926.411-2.327.847-3.223.129a.887.887 0 0 1-.339-.62.888.888 0 0 1 .215-.672 2.284 2.284 0 0 1 1.218-.723 5.307 5.307 0 0 1 2.971.183c.37.135.728.3 1.07.495a7.505 7.505 0 0 1-1.912 1.208Zm.738-13.503a7.788 7.788 0 0 1 3.719 5.382 7.448 7.448 0 0 1-1.807 6.18c-.104.119-.223.228-.332.337a7.567 7.567 0 0 0-1.327-.624 5.942 5.942 0 0 0-3.179-.193c-.897.213-1.946.886-1.892 1.931.064 1.268 1.56 1.62 2.59 1.486a6.975 6.975 0 0 0 3.273-1.412c.223-.168.431-.346.639-.53a7.126 7.126 0 0 1 2.728 3.343 8.578 8.578 0 0 1-.287 6.383c-2.02 4.729-7.264 7.056-12.117 7.556a21.295 21.295 0 0 1-12.979-2.857c-.495-.282-.946-.59-1.401-.916-.282-.203-.639.208-.357.416a21.85 21.85 0 0 0 14.009 3.961c5.254-.346 11.057-2.738 13.301-7.838a9.178 9.178 0 0 0 .346-6.888 7.71 7.71 0 0 0-2.857-3.556 8.12 8.12 0 0 0 2.318-5.14 8.399 8.399 0 0 0-2.674-6.487 7.972 7.972 0 0 0-1.461-1.03c-.307-.173-.54.322-.238.496h-.015ZM146.03 45.622a50.074 50.074 0 0 0 3.451 5.417c.188.263.639 0 .446-.247a49.909 49.909 0 0 1-3.1-4.853c1.706.56 3.473.915 5.264 1.055.332.025.347-.495 0-.495a22.223 22.223 0 0 1-5.754-1.229.26.26 0 0 0-.253.087.26.26 0 0 0-.057.127.25.25 0 0 0 .018.138h-.015ZM154.849 135.003c-.99-.114-2.441-.446-2.852-1.52a.922.922 0 0 1 .025-.706.918.918 0 0 1 .524-.473 2.257 2.257 0 0 1 1.412 0c.965.3 1.825.87 2.476 1.644.253.299.48.618.678.956a7.44 7.44 0 0 1-2.263.099Zm7.428-11.29c.55.984.879 2.077.964 3.201a7.76 7.76 0 0 1-.469 3.31 7.432 7.432 0 0 1-4.68 4.422c-.153.05-.307.084-.455.124a7.463 7.463 0 0 0-.857-1.208 5.937 5.937 0 0 0-2.649-1.778c-.881-.262-2.129-.213-2.605.713-.584 1.129.525 2.189 1.486 2.615a7.007 7.007 0 0 0 3.536.426c.277-.03.549-.08.817-.134a7.043 7.043 0 0 1 .668 4.258 8.597 8.597 0 0 1-3.466 5.373c-4.135 3.06-9.835 2.427-14.276.406a21.313 21.313 0 0 1-9.765-9.012c-.273-.495-.52-.99-.748-1.486-.144-.317-.659-.138-.495.179a21.79 21.79 0 0 0 10.092 10.493c4.709 2.352 10.928 3.218 15.434-.055a9.154 9.154 0 0 0 3.774-5.769 7.66 7.66 0 0 0-.669-4.511 8.093 8.093 0 0 0 4.591-3.273 8.373 8.373 0 0 0 .965-6.933 8.014 8.014 0 0 0-.713-1.634c-.183-.336-.634-.029-.46.258l-.02.015Zm-33.331 10.458a51.354 51.354 0 0 0 .223 6.408c.035.321.545.341.495 0a50.957 50.957 0 0 1-.233-5.754 22.778 22.778 0 0 0 4.016 3.56c.273.188.545-.243.278-.431a21.906 21.906 0 0 1-4.353-3.961.255.255 0 0 0-.406.178h-.02Z" fill="#000"/><path d="M106.326 67.485c-1.129.034-2.758-.1-3.382-1.219a.989.989 0 0 1 .411-1.386 2.566 2.566 0 0 1 1.56-.233 5.89 5.89 0 0 1 2.971 1.426c.328.287.629.602.901.941a8.203 8.203 0 0 1-2.461.47Zm6.413-13.608a8.662 8.662 0 0 1 1.584 7.081 8.277 8.277 0 0 1-4.456 5.615c-.154.08-.322.144-.495.213a8.192 8.192 0 0 0-1.134-1.198 6.628 6.628 0 0 0-3.204-1.535c-.991-.153-2.377.104-2.758 1.203-.466 1.337.931 2.323 2.04 2.64a7.767 7.767 0 0 0 3.961-.09c.297-.079.59-.173.877-.282a7.93 7.93 0 0 1 1.416 4.596 9.537 9.537 0 0 1-2.971 6.467c-4.066 4.03-10.448 4.238-15.663 2.723a23.769 23.769 0 0 1-12.201-8.383 18.66 18.66 0 0 1-1.06-1.53c-.208-.327-.747-.055-.54.277a24.264 24.264 0 0 0 12.791 9.958c5.566 1.842 12.558 1.802 17.005-2.52a10.193 10.193 0 0 0 3.243-6.958 8.573 8.573 0 0 0-1.461-4.867 9 9 0 0 0 4.541-4.333 9.308 9.308 0 0 0-.044-7.814 8.826 8.826 0 0 0-1.045-1.689c-.218-.307-.664.1-.426.426Zm-.386-1.154a22.154 22.154 0 0 1-.109 5.888c-.05.322.45.42.495.094.273-1.776.331-3.578.173-5.368a51.799 51.799 0 0 1 4.021 4.125c.218.248.555-.139.342-.381a51.61 51.61 0 0 0-4.501-4.566.26.26 0 0 0-.389.049.257.257 0 0 0-.042.14l.01.02ZM131.323 61.394c-1.421-4.982-5.011-8.953-6.933-13.717a22.369 22.369 0 0 1-.451-15.558 22.37 22.37 0 0 1 9.805-12.088c.55-.327 1.115-.629 1.694-.911.312-.149.134-.669-.183-.495a22.912 22.912 0 0 0-12.38 26.022 27.022 27.022 0 0 0 3.016 7.249c1.277 2.233 2.704 4.392 3.788 6.73a16.417 16.417 0 0 1 1.674 7.63 17.475 17.475 0 0 1-2.348 7.869c-2.629 4.605-7.155 7.843-12.018 9.765-.599.237-1.203.45-1.807.653a.272.272 0 0 0 .178.495c4.883-1.609 9.528-4.382 12.687-8.507 3.258-4.234 4.768-9.898 3.278-15.137Z" fill="#000"/><path d="M51.713 107.926c-2.476.961-5.036 1.916-7.71 2.218-2.17.236-4.364.006-6.438-.673a18.137 18.137 0 0 1-10.101-8.502 22.783 22.783 0 0 1-2.615-7.794c-.05-.347-.6-.327-.545 0 .723 4.917 2.922 9.7 6.65 13.062a17.18 17.18 0 0 0 11.989 4.521c3.115-.128 6.076-1.223 8.953-2.332.307-.109.148-.629-.183-.5ZM159.311 105.91c-.08 2.674-.174 5.393-.931 7.973a15.38 15.38 0 0 1-3.115 5.699 18.11 18.11 0 0 1-11.726 6.032 22.66 22.66 0 0 1-8.2-.595c-.337-.089-.53.421-.193.496 4.818 1.233 10.082 1.044 14.622-1.095a17.166 17.166 0 0 0 8.8-9.314c1.084-2.922 1.218-6.076 1.302-9.156.01-.337-.55-.391-.559-.04ZM144.708 38.922a47.195 47.195 0 0 0-12.449-5.105 42.915 42.915 0 0 0-13.018-1.337c-4.155.267-8.285 1.396-11.662 3.907l-.119.09a29.63 29.63 0 0 0-5.709-1.15 37.349 37.349 0 0 0-10.84.347 37.926 37.926 0 0 0-19.163 9.458 34.567 34.567 0 0 0-1.852 1.862c-.297.322.178.817.495.495A36.742 36.742 0 0 1 87.683 37.09a37.445 37.445 0 0 1 10.101-1.337 31.529 31.529 0 0 1 9.028 1.243 14.762 14.762 0 0 0-3.308 3.877c-.991 1.709-1.699 3.779-1.164 5.76a4.638 4.638 0 0 0 1.352 2.257 4.712 4.712 0 0 0 2.808 1.07 7.491 7.491 0 0 0 5.194-1.644 6.39 6.39 0 0 0 2.332-4.813 6.13 6.13 0 0 0-2.144-4.63 11.489 11.489 0 0 0-3.61-2.134 20.204 20.204 0 0 1 9.023-3.383 38.254 38.254 0 0 1 12.339.58 46.397 46.397 0 0 1 11.989 4.095c.931.465 1.843.96 2.738 1.486a.345.345 0 0 0 .506-.385.342.342 0 0 0-.159-.21Zm-36.852-1.554a9.764 9.764 0 0 1 4.269 2.777 5.291 5.291 0 0 1 .946 4.952 5.987 5.987 0 0 1-3.675 3.783c-1.713.634-4.095.763-5.447-.658-1.351-1.421-1.297-3.595-.643-5.348a12.937 12.937 0 0 1 3.402-4.863c.282-.257.574-.495.871-.728l.277.084ZM114.63 17.481c-.43 1.847-1.554 3.65-3.515 4.085a3.008 3.008 0 0 1-2.659-.599 3.545 3.545 0 0 1-1.11-2.426c-.128-2.03 1.184-3.882 2.536-5.269a15.264 15.264 0 0 1 3.946-2.842 11.136 11.136 0 0 1 .802 7.051ZM130.531 7.33c-4.63-.055-9.409-.114-13.865 1.317-.894.284-1.768.628-2.615 1.03C110.733 2.903 102.494.15 95.274.007a32.152 32.152 0 0 0-13.123 2.52c-3.936 1.663-7.507 4.035-11.34 5.907-3.728 1.827-7.655 2.971-11.834 2.833A23.15 23.15 0 0 1 47.623 7.87a20.844 20.844 0 0 1-2.417-1.734c-.272-.217-.659.164-.386.387a23.491 23.491 0 0 0 21.08 4.456c3.867-1.109 7.358-3.169 10.85-5.11a61.019 61.019 0 0 1 5.476-2.773 31.437 31.437 0 0 1 6.289-1.941 30.855 30.855 0 0 1 12.81.139c3.823.871 7.571 2.624 10.196 5.61.807.92 1.491 1.94 2.035 3.035-2.476 1.268-4.709 3.085-6.007 5.527-.871 1.634-1.148 3.714-.024 5.303 1.064 1.486 3.01 1.768 4.625 1.03 1.703-.787 2.659-2.59 3.03-4.353.376-1.889.268-3.842-.312-5.68-.15-.54-.332-1.07-.545-1.589l.189-.099c3.961-1.842 8.358-2.189 12.651-2.218h3.388a.271.271 0 0 0 .199-.273.27.27 0 0 0-.219-.257ZM43.978 6.122a50.585 50.585 0 0 0 4.15 4.882c.222.233.638-.064.41-.302a50.801 50.801 0 0 1-3.753-4.362c1.77.315 3.57.418 5.363.307.327-.025.272-.535-.055-.496a22.283 22.283 0 0 1-5.872-.41.258.258 0 0 0-.243.38Z" fill="#FF6868"/><path d="M170.531 93.492a11.093 11.093 0 0 1 2.234-2.843c.99-.871 2.183-1.688 3.51-1.842a2.881 2.881 0 0 1 3.021 1.827 4.326 4.326 0 0 1-.243 3.724c-1.718 3.362-6.59 6.051-10.324 4.779.234-1.98.846-3.896 1.802-5.645Zm24.041 31.444a23.987 23.987 0 0 1-15.459-3.803 23.602 23.602 0 0 1-9.458-12.672 22.556 22.556 0 0 1-.99-8.77c3.59 1.134 8.046-1.094 10.21-4.026a5.843 5.843 0 0 0 1.307-3.659 4.2 4.2 0 0 0-1.406-2.971c-2.154-1.798-5.075-.035-6.724 1.604-2.244 2.224-3.402 5.225-3.808 8.34a5.467 5.467 0 0 1-1.753-1.254c-1.664-1.753-2.055-4.412-1.699-6.724.436-2.808 1.956-5.314 3.353-7.74 2.802-4.838 4.902-10.141 4.951-15.811a19.794 19.794 0 0 0-1.485-7.953 20.217 20.217 0 0 0-4.189-6.165c-3.675-3.763-8.463-6.284-13.341-8.13a55.415 55.415 0 0 0-22.322-3.506c-.352 0-.352.564 0 .544a55.112 55.112 0 0 1 18.896 2.372c5.402 1.664 10.805 4.095 15.068 7.873a20.964 20.964 0 0 1 4.907 6.235 18.88 18.88 0 0 1 1.922 8.314 26.847 26.847 0 0 1-1.456 8.611 44.184 44.184 0 0 1-3.838 8.042c-1.401 2.426-2.807 4.991-3.09 7.834-.232 2.332.288 4.902 1.981 6.635a6.096 6.096 0 0 0 2.035 1.397 22.09 22.09 0 0 0 .104 5.209 24.024 24.024 0 0 0 22.204 20.797c1.368.101 2.741.083 4.105-.054.322-.045.327-.594-.025-.555v-.014Zm.926.024a50.021 50.021 0 0 0-6.125-1.896c-.317-.075-.495.401-.183.495a50.451 50.451 0 0 1 5.511 1.669 22.67 22.67 0 0 0-4.684 2.624c-.268.193.049.594.317.401a22.064 22.064 0 0 1 5.199-2.807.267.267 0 0 0 .105-.103.252.252 0 0 0-.021-.281.254.254 0 0 0-.119-.087v-.015Z" fill="#FF6868"/><path d="M176.221 152.839c-2.827.822-6.507.47-8.418-1.981-1.698-2.169-1.287-5.1-.025-7.363a10.16 10.16 0 0 1 2.615-3.06c1.248-.991 2.634-1.758 3.907-2.694 1.173-.862 2.317-1.887 2.912-3.244a4.96 4.96 0 0 0-.05-4.08c-1.441-3.189-4.952-4.268-8.185-4.595-3.734-.377-7.502-.277-11.246-.594-3.407-.288-6.809-.912-9.904-2.412-2.763-1.337-5.293-3.367-6.749-6.12a12.944 12.944 0 0 1-.926-9.34 17.1 17.1 0 0 1 5.63-8.526 22.233 22.233 0 0 1 2.095-1.565c.292-.198-.035-.63-.327-.436a19.44 19.44 0 0 0-7.026 7.893 14.362 14.362 0 0 0-.991 9.488c1.659 6.492 8.146 9.928 14.291 11.037 3.749.674 7.566.689 11.36.847 3.515.149 7.893.134 10.443 2.971a5.007 5.007 0 0 1 1.386 4.115c-.257 1.56-1.356 2.753-2.55 3.704-1.277.991-2.698 1.817-4.011 2.773a11.122 11.122 0 0 0-2.832 2.971c-1.392 2.174-2.11 5.041-.926 7.468 1.372 2.797 4.61 3.842 7.541 3.624a10.677 10.677 0 0 0 2.194-.401c.342-.074.134-.579-.208-.48Z" fill="#000"/><path d="M148.491 96.522a50.691 50.691 0 0 0-6.338.956c-.317.069-.278.58.044.495a51.292 51.292 0 0 1 5.69-.891 22.622 22.622 0 0 0-3.08 4.402c-.154.287.307.495.46.223a22.264 22.264 0 0 1 3.437-4.779.259.259 0 0 0-.213-.406ZM41.646 75.69c-1.857 2.704-4.952 4.065-8.19 4.16a14.924 14.924 0 0 1-9.3-3.096c-2.971-2.228-5.259-5.248-7.25-8.363-.498-.782-.993-1.575-1.485-2.377-.183-.302.297-.56.495-.257 1.931 3.218 3.991 6.437 6.73 9.022 2.54 2.406 5.654 4.13 9.18 4.456 3.219.307 6.6-.584 8.775-3.094 2.312-2.67 2.812-6.547 2.129-9.904-.792-3.912-3.04-7.354-5.383-10.518a114.338 114.338 0 0 0-8.25-9.903c-2.604-2.793-5.446-5.447-7.452-8.73-1.733-2.828-2.654-6.071-2.1-9.384.496-3.046 2.368-5.774 5.383-6.754 3.239-1.06 6.829.133 9.533 1.98.682.47 1.328.992 1.93 1.56.253.243-.143.614-.395.376-2.442-2.312-5.913-4.07-9.354-3.728a7.086 7.086 0 0 0-4.313 2.04 8.25 8.25 0 0 0-2.105 3.961c-.792 3.308.074 6.66 1.788 9.533 1.98 3.327 4.867 5.996 7.487 8.809a113.457 113.457 0 0 1 8.25 9.904c2.322 3.134 4.53 6.506 5.447 10.359.757 3.288.425 7.076-1.55 9.948Z" fill="#000"/><path d="M185.06 95.16a5.483 5.483 0 0 0-1.055-2.6 8.59 8.59 0 0 0-2.688-2.044 10.458 10.458 0 0 1-2.902-2.19 7.927 7.927 0 0 1-1.59-2.896c-1.515-5.095 2.704-9.577 6.195-12.652 3.412-3 7.319-6.15 8.126-10.894.733-4.328-1.134-8.76-4.031-11.919-3.367-3.674-8.156-5.7-12.84-7.096-5.288-1.58-10.8-2.416-15.935-4.496-4.209-1.698-8.22-4.367-10.626-8.31-5.339-8.744 1.079-19.143 8.601-24.134a19.76 19.76 0 0 1 3.263-1.768c.322-.139.144-.654-.178-.495-4.407 1.862-8.235 5.333-10.864 9.304-2.476 3.763-4.007 8.418-3.076 12.914.877 4.264 3.823 7.76 7.339 10.186 4.268 2.971 9.344 4.313 14.326 5.532 5.095 1.247 10.319 2.406 14.9 5.07 4.125 2.397 7.551 6.185 8.497 10.978a11.018 11.018 0 0 1-.634 6.557c-.99 2.213-2.629 4.03-4.377 5.665-3.467 3.238-7.75 6.2-9.161 10.993a8.327 8.327 0 0 0 2.808 8.967 33.7 33.7 0 0 0 2.886 1.783 5.171 5.171 0 0 1 2.214 2.58c.335.99.413 2.05.228 3.08-.396 2.382-1.981 4.278-3.754 5.803a36.462 36.462 0 0 1-2.822 2.154c-.288.203 0 .659.302.451 3.456-2.506 7.527-5.754 6.848-10.523Z" fill="#FF6868"/><path d="M160.212 3.24a49.831 49.831 0 0 0-6.348.901c-.317.064-.283.58.039.495 1.883-.39 3.785-.67 5.7-.842a22.647 22.647 0 0 0-3.12 4.373c-.153.292.302.495.461.228a21.951 21.951 0 0 1 3.466-4.75.258.258 0 0 0-.198-.405ZM98.849 53.426a5.447 5.447 0 0 0-2.184 1.763 8.635 8.635 0 0 0-1.188 3.16 10.337 10.337 0 0 1-1.253 3.411 7.925 7.925 0 0 1-2.317 2.357c-4.457 2.922-9.953.174-13.9-2.282-3.858-2.402-8.002-5.23-12.78-4.63-4.353.544-8.057 3.614-10.251 7.299-2.545 4.283-3.1 9.453-3.09 14.36 0 5.521.807 11.037.297 16.554-.416 4.52-1.812 9.131-4.887 12.572-6.834 7.636-18.644 4.492-25.596-1.267a20.284 20.284 0 0 1-2.635-2.62c-.222-.267-.663.05-.44.322 3.06 3.684 7.487 6.343 12.043 7.715 4.322 1.302 9.195 1.411 13.25-.782 3.833-2.07 6.334-5.898 7.641-9.963 1.59-4.952 1.431-10.196 1.164-15.311-.277-5.24-.674-10.578.55-15.732 1.133-4.66 3.743-9.047 8.066-11.325a11.058 11.058 0 0 1 6.437-1.288c2.402.288 4.62 1.357 6.69 2.56 4.1 2.387 8.176 5.63 13.167 5.601a8.285 8.285 0 0 0 7.76-5.274c.347-1.076.638-2.17.871-3.278a5.194 5.194 0 0 1 1.832-2.862 6.144 6.144 0 0 1 2.887-1.104c2.392-.307 4.66.644 6.636 1.916.99.639 1.941 1.362 2.877 2.08.277.218.624-.208.346-.421-3.332-2.585-7.63-5.556-11.993-3.53Z" fill="#FF6868"/><path d="M18.006 103.747a51.534 51.534 0 0 0 2.698 5.813c.154.282.634.104.496-.183a50.64 50.64 0 0 1-2.476-5.214 22.574 22.574 0 0 0 5.09 1.708.256.256 0 0 0 .217-.381.257.257 0 0 0-.128-.114 22.13 22.13 0 0 1-5.55-1.981.257.257 0 0 0-.347.352ZM83.38 107.852a6.48 6.48 0 0 1-6.983-.372c-2.475-1.768-2.882-4.991-2.188-7.779 1.485-5.917 7.427-10.206 6.932-16.697-.203-2.67-1.669-4.952-4.209-5.943-2.664-1.03-5.72-.58-8.378.228a27.394 27.394 0 0 0-8.503 4.457c-2.698 2.04-5.199 4.412-8.284 5.883-2.822 1.346-6.115 1.817-8.973.311a10.592 10.592 0 0 1-4.991-6.14c-1.98-6.214 1.758-12.577 6.338-16.549a46.416 46.416 0 0 1 8.072-5.373c2.728-1.485 5.511-2.97 7.952-4.907a15.31 15.31 0 0 0 5.096-6.932c.881-2.58.842-5.447-.57-7.844-2.797-4.724-8.819-5.7-13.523-7.512-2.476-.95-4.996-2.228-6.63-4.372a7.788 7.788 0 0 1-1.025-7.547A7.565 7.565 0 0 1 45.8 17.62c.273-.218-.114-.604-.386-.382a8.418 8.418 0 0 0-3 6.933c.148 2.63 1.618 4.868 3.668 6.437 4.417 3.392 10.33 3.645 14.94 6.67 2.347 1.54 4.095 3.863 4.274 6.74.183 2.97-1.11 5.907-2.972 8.14-2.08 2.477-4.887 4.195-7.67 5.755-2.783 1.56-5.685 3.07-8.324 4.951-5.056 3.595-9.542 8.914-9.572 15.44 0 5.363 3.877 10.894 9.557 11.127 3.318.139 6.438-1.446 9.052-3.333 2.773-1.98 5.264-4.352 8.235-6.06 2.758-1.585 5.942-2.823 9.131-3.006 2.887-.169 5.987.708 7.28 3.535 1.232 2.694.494 5.888-.744 8.418-1.44 2.897-3.575 5.413-4.842 8.418-1.144 2.709-1.67 6.051-.05 8.691a6.978 6.978 0 0 0 6.011 3.149 6.434 6.434 0 0 0 3.279-.926c.287-.168.01-.644-.288-.465Z" fill="#FF6868"/><path d="M108.381 143.198a6.44 6.44 0 0 1-4.11-5.655c-.198-3.056 2.06-5.383 4.665-6.596 5.526-2.58 12.597-.669 17.331-5.135 1.951-1.837 2.803-4.422 1.981-7.012-.876-2.723-3.154-4.808-5.447-6.368a27.45 27.45 0 0 0-8.824-3.788c-3.283-.812-6.705-1.258-9.79-2.729-2.822-1.341-5.264-3.604-5.892-6.774a10.577 10.577 0 0 1 1.629-7.74c3.58-5.446 10.894-6.555 16.836-5.5 3.179.634 6.282 1.6 9.26 2.881 2.887 1.169 5.764 2.427 8.824 3.09a15.35 15.35 0 0 0 8.571-.396c2.561-.94 4.774-2.783 5.735-5.388 1.906-5.144-1.129-10.433-2.679-15.231-.817-2.511-1.421-5.284-.783-7.923a7.775 7.775 0 0 1 5.249-5.566 7.596 7.596 0 0 1 3.882-.203c.342.07.397-.47.055-.545a8.42 8.42 0 0 0-7.289 2.055c-1.951 1.768-2.763 4.318-2.694 6.903.144 5.57 3.674 10.32 4.229 15.811.282 2.788-.421 5.61-2.54 7.557-2.12 1.946-5.289 2.862-8.21 2.802-3.224-.06-6.334-1.154-9.3-2.332-2.966-1.178-5.942-2.476-9.087-3.347-5.971-1.664-12.939-1.793-18.019 2.287-4.184 3.363-6.022 9.904-2.625 14.435 1.981 2.664 5.175 4.08 8.29 4.952 3.298.896 6.695 1.347 9.903 2.58 2.971 1.143 5.942 2.822 8.087 5.199 1.946 2.134 3.213 5.095 1.837 7.878-1.317 2.654-4.249 4.11-7.017 4.729-3.159.708-6.437.634-9.577 1.535-2.827.817-5.749 2.516-6.779 5.447a6.99 6.99 0 0 0 1.337 6.656 6.435 6.435 0 0 0 2.788 1.98.29.29 0 0 0 .22-.019.282.282 0 0 0 .141-.169.286.286 0 0 0-.188-.361Z" fill="#666"/><path d="M63.934 134.592c-5.041 2.312-10.498 4.169-16.113 3.996-4.457-.144-8.993-1.753-12.212-4.908a13.498 13.498 0 0 1-3.466-5.63c-.718-2.263-1.02-4.635-1.763-6.888a9.554 9.554 0 0 0-9.695-7.071c-4.457.119-8.305 3.263-10.062 7.25-1.714 3.882-1.52 8.952 1.535 12.141.337.348.708.659 1.109.931a13.024 13.024 0 0 0-.372 5.873 12.601 12.601 0 0 0 8.196 9.567c.998.355 2.038.58 3.095.669.351.029.346-.496 0-.545a12.25 12.25 0 0 1-9.89-6.967 12.08 12.08 0 0 1-.534-8.275c2.63 1.53 6.21 1.52 8.586-.495 1.575-1.327 2.59-3.783 1.065-5.526a4.092 4.092 0 0 0-2.6-1.298 5.034 5.034 0 0 0-3.154.827c-1.931 1.204-3.303 3.254-4.095 5.353-.04.099-.07.198-.104.297a6.79 6.79 0 0 1-.584-.495c-3.13-2.921-3.427-7.888-1.828-11.656 1.644-3.878 5.319-7.002 9.651-7.111a9.648 9.648 0 0 1 5.809 1.718c1.822 1.293 2.872 3.263 3.51 5.363.64 2.099.991 4.392 1.655 6.536a14.156 14.156 0 0 0 3.07 5.353c2.817 3.031 6.843 4.833 10.894 5.378 5.115.688 10.31-.55 15.058-2.402a67.53 67.53 0 0 0 3.501-1.485c.332-.169.055-.639-.262-.5Zm-48.058-4.031c1.327-1.644 3.467-3.199 5.665-2.446a3.028 3.028 0 0 1 2.01 1.98c.298 1.129-.282 2.333-.99 3.17-2.104 2.406-5.982 2.54-8.63.93a11.574 11.574 0 0 1 1.945-3.624v-.01Z" fill="#FF6868"/><path d="M25.131 150.472a50.816 50.816 0 0 0-4.848-4.199c-.257-.193-.619.163-.356.366a50 50 0 0 1 4.372 3.749 22.462 22.462 0 0 0-5.343.495c-.322.069-.193.564.13.495a22.001 22.001 0 0 1 5.862-.495.254.254 0 0 0 .212-.152.256.256 0 0 0-.029-.259ZM106.722 128.01c-.435-5.531-.302-11.295 1.798-16.504 1.669-4.14 4.739-7.839 8.814-9.78a13.55 13.55 0 0 1 6.467-1.287c2.372.104 4.699.634 7.076.713a9.548 9.548 0 0 0 9.993-6.67c1.426-4.234-.203-8.914-3.337-11.944-3.061-2.946-7.884-4.511-11.929-2.739a7 7 0 0 0-1.258.718 13.024 13.024 0 0 0-5.388-2.376 12.578 12.578 0 0 0-11.8 4.397c-.68.814-1.25 1.715-1.693 2.679-.149.317.361.495.495.188a12.215 12.215 0 0 1 9.968-6.893 12.055 12.055 0 0 1 7.952 2.342c-2.342 1.941-3.56 5.309-2.5 8.23.703 1.936 2.659 3.734 4.823 2.902a4.103 4.103 0 0 0 2.114-1.98 5.05 5.05 0 0 0 .307-3.25c-.46-2.228-1.916-4.223-3.615-5.689l-.242-.198a6.55 6.55 0 0 1 .648-.386c3.818-1.931 8.587-.495 11.573 2.297 3.07 2.882 4.739 7.428 3.352 11.513a9.616 9.616 0 0 1-3.61 4.858c-1.847 1.268-4.06 1.575-6.249 1.456s-4.456-.609-6.705-.703a14.105 14.105 0 0 0-6.061 1.065c-3.817 1.599-6.893 4.758-8.809 8.388-2.406 4.565-3.035 9.864-2.931 14.964.024 1.268.099 2.536.198 3.798.039.337.579.238.549-.109Zm20.333-43.734c1.084 1.812 1.812 4.343.346 6.16a3.015 3.015 0 0 1-2.54 1.208c-1.164-.109-2.1-1.064-2.63-2.04-1.535-2.808-.326-6.492 2.1-8.418a11.465 11.465 0 0 1 2.724 3.09Z" fill="#FF6868"/><path d="M105.187 86.113a50.667 50.667 0 0 0 5.606-3.104c.272-.174.059-.64-.218-.46a49.939 49.939 0 0 1-5.026 2.812 22.362 22.362 0 0 0 1.347-5.195c.044-.326-.466-.376-.495-.05a21.97 21.97 0 0 1-1.56 5.676.256.256 0 0 0 .346.321Z" fill="#FF6868"/><path d="M123.593 87.014c9.537 6.274 19.312 13.435 29.503 19.718 3.377 2.085 6.858 3.784 10.27 5.7 6.74 3.585 13.836 8.418 19.877 7.774 8.864.609 6.14-30.973 1.203-42.452-3.397-11.19-13.692-30.612-25.487-35.87-12.899-6.012-23.868-2.536-29.557 2.5-5.725 5.517-3.561 9.607 2.149 18.356 4.615 7.19 9.463 14.53 12.652 22.383.713 1.936 2.476 6.289.693 7.002-5.705 2.263-14.905-2.54-21.293-5.11h-.01Z" fill="#666"/><path opacity=".6" d="M123.593 87.014c9.537 6.274 19.312 13.435 29.503 19.718 3.377 2.085 6.858 3.784 10.27 5.7 6.74 3.585 13.836 8.418 19.877 7.774 8.864.609 6.14-30.973 1.203-42.452-3.397-11.19-13.692-30.612-25.487-35.87-12.899-6.012-23.868-2.536-29.557 2.5-5.725 5.517-3.561 9.607 2.149 18.356 4.615 7.19 9.463 14.53 12.652 22.383.713 1.936 2.476 6.289.693 7.002-5.705 2.263-14.905-2.54-21.293-5.11h-.01Z" fill="#fff"/><path d="M152.383 62.384a6.435 6.435 0 0 1-4.234-3.64c-.643-1.673.208-2.822 1.981-2.53a6.243 6.243 0 0 1 4.328 3.72c.594 1.737-.357 2.812-2.075 2.45ZM159.979 78.507a6.256 6.256 0 0 1-3.679-4.065c-.416-1.718.569-2.763 2.253-2.273a6.035 6.035 0 0 1 3.768 4.155c.372 1.782-.698 2.733-2.342 2.183ZM165.387 95.294a6.112 6.112 0 0 1-3.105-4.457c-.188-1.743.916-2.66 2.51-1.98 1.595.678 3.046 2.748 3.184 4.55.139 1.803-1.039 2.624-2.589 1.887Z" fill="#000"/><path d="M46.79 55.308c-.03-.183-12.379 2.684-22.357 4.486-6.135.689-14.197 3.11-17.054-.614-1.555-1.98.95-9.903 6.997-17.697 5.888-7.844 15.316-15.524 23.972-18.575 8.7-3.322 16.727-1.857 21.293.872 4.67 2.763 5.892 6.784 3.203 9.339-2.782 2.555-9.968 6.07-15.771 10.117-5.883 3.892-10.399 8.324-9.651 9.155 2.857 3.298 9.393 2.828 9.369 2.917Z" fill="#fff"/><path d="M46.79 55.308c-3.51.025-6.7-.53-8.67-2.01-.366-.352-1.06-.66-.936-1.273.644-1.694 2.788-3.466 4.516-4.997 4.422-3.699 9.478-6.774 14.316-9.656 5.511-3.268 8.735-5.194 7.378-8.784-1.773-5.175-13.83-11.196-28.8-3.684-12.993 6.15-24.586 20.485-26.794 29.71-2.332 9.855 11.582 5.116 19.154 4.541 6.273-1.099 13.107-2.723 19.837-3.857v.01Z" fill="#999"/><path opacity=".2" d="M46.79 55.308c-3.51.025-6.7-.53-8.67-2.01-.366-.352-1.06-.66-.936-1.273.644-1.694 2.788-3.466 4.516-4.997 4.422-3.699 9.478-6.774 14.316-9.656 5.511-3.268 8.735-5.194 7.378-8.784-1.773-5.175-13.83-11.196-28.8-3.684-12.993 6.15-24.586 20.485-26.794 29.71-2.332 9.855 11.582 5.116 19.154 4.541 6.273-1.099 13.107-2.723 19.837-3.857v.01Z" fill="#fff"/><path d="M28.464 45.627c.664.292.342 1.238-.688 2.144-1.03.907-2.392 1.486-3.075 1.218-.684-.267-.407-1.227.643-2.178 1.05-.951 2.461-1.471 3.12-1.184ZM36.852 37.68c.624.366.193 1.262-.94 2.04-1.134.777-2.55 1.158-3.194.836-.644-.321-.263-1.272.89-2.084 1.155-.812 2.62-1.159 3.244-.793ZM46.167 30.787c.584.435.044 1.277-1.179 1.916s-2.689.847-3.298.45c-.609-.396-.109-1.292 1.14-1.98 1.247-.688 2.757-.822 3.337-.386Z" fill="#000"/><path d="M129.362 27.712c0-.035 6.784-.075 11.295-1.64 2.768-.99 6.146-3.263 6.482-5.729.57-2.897-13.211-10.953-21.194-11.854-7.868-1.09-11.26 3.773-8.289 6.353 3.036 2.386 17.198 6.63 16.713 9.364-.362 2.258-5.022 3.48-5.007 3.506Z" fill="#fff"/><path d="M129.362 27.712c5.809-.293 11.315-1.1 14.43-3.546a8.383 8.383 0 0 0 2.515-2.634c.629-.99.599-2.115-.842-3.466-3.387-3.774-17.177-10.736-23.64-9.295-3.788.703-5.659 3.174-4.327 5.353.698 1.154 2.748 1.98 4.535 2.778 3.818 1.683 8.072 3.214 11.211 5.477 3.521 2.629-1.134 4.456-3.882 5.333Z" fill="#fff"/><path d="M129.362 27.712c5.447-.441 11.711-.773 15.811-4.868 1.486-1.58 2.06-3.03.203-4.655a17.126 17.126 0 0 0-2.921-2.401c-5.13-3.377-15.034-8.215-21.199-6.725-2.223.426-5.175 2.575-3.615 5.036.713.99 1.981 1.53 3.055 2.065 2.298 1.07 4.66 1.98 6.978 3.05 5.848 2.69 11.146 5.596 1.673 8.498h.015Zm0 0c9.344-3.056 3.962-5.655-1.763-8.3-2.317-1.025-4.689-1.95-7.002-3.005-1.148-.56-2.406-1.06-3.189-2.15-1.713-2.654 1.377-5.045 3.784-5.52 6.353-1.59 16.157 3.317 21.426 6.813a17.33 17.33 0 0 1 2.937 2.441c.703.649 1.376 1.535 1.252 2.55-.633 2.61-3.892 4.61-6.274 5.447-3.585 1.248-7.427 1.52-11.171 1.709v.015Z" fill="#000"/><path d="M126.119 13.713a2.974 2.974 0 0 1-2.298-.208c-.693-.382-.797-.917-.223-1.194a2.848 2.848 0 0 1 2.318.208c.693.391.787.926.203 1.194ZM133.249 16.768a2.84 2.84 0 0 1-2.258-.322c-.663-.41-.738-.95-.153-1.198a2.804 2.804 0 0 1 2.278.317c.663.426.723.965.133 1.203ZM140.132 20.165a2.781 2.781 0 0 1-2.213-.431c-.634-.446-.678-.99-.089-1.203a2.765 2.765 0 0 1 2.238.43c.634.456.659.996.064 1.204ZM68.579 53.075s-8.141-4.432-15.376 0c-7.234 4.432-10.676 15.35-9.408 24.54 1.267 9.192-6.373 15.228-7.215 22.041-.842 6.814 3.719 9.968 5.244 13.544 1.743 4.095-5.244 18.633 12.538 22.006 22.238 4.218 30.746-9.26 28.478-20.407-1.114-5.447-4.229-9.334-4.17-13.751.06-4.417 3.224-7.923 1.57-13.538-1.654-5.616-3.837-4.838-4.744-13.633-.906-8.794.956-19.307-6.917-20.802Z" fill="#000"/><path d="M54.743 52.886A27.235 27.235 0 0 0 44.23 65.355a24.73 24.73 0 0 0-1.886 7.977c-.228 3.586.327 6.933-1.025 10.4-2.17 5.57-6.502 10.215-6.294 16.419a15.201 15.201 0 0 0 2.674 8.097c1.921 2.802 4.66 5.016 6.264 8.017.07.123.262 0 .203-.109-1.342-2.669-3.516-4.705-5.323-7.096a15.47 15.47 0 0 1-3.288-9.75c.173-5.898 4.456-10.434 6.437-15.807.906-2.436.96-4.793.882-7.343-.125-3 .266-6 1.153-8.869 1.818-5.724 5.695-10.666 10.77-14.36.055-.045-.01-.094-.054-.045ZM82.775 113.22c-.56-2.635-1.956-5.026-2.515-7.651-.669-3.164.139-6.318.753-9.408.871-4.457.772-8.617-1.209-12.79-1.282-2.695-2.847-5.22-3.803-8.057a32.959 32.959 0 0 1-1.698-9.552c0-.07-.114-.07-.114 0a29.938 29.938 0 0 0 2.971 13.582c1.208 2.476 2.719 4.833 3.417 7.522.837 3.234.495 6.358-.064 9.597-.382 2.164-.842 4.352-.823 6.551 0 2.293.748 4.318 1.57 6.437a22.374 22.374 0 0 1-.099 16.723c-.035.094.134.158.178.064a21.292 21.292 0 0 0 1.436-13.018Z" fill="#000"/><path d="M36.005 98.869c.198-4.858 3.63-8.156 5.715-12.38 1.575-3.184 2.644-6.58 2.124-10.087 0-.059-.114-.044-.109 0 .268 5.076-1.896 9.676-4.744 13.925-1.896 2.823-3.466 5.541-3.466 8.938 0 3.397 1.332 6.14 3.258 8.913 1.372 1.981 2.724 3.798 3.303 6.121.58 2.322.446 4.734.332 7.081 0 .124.198.119.208 0 .327-3.64.381-7.165-1.485-10.488-2.288-4.075-5.339-7.086-5.136-12.023ZM83.622 109.773a30.246 30.246 0 0 0-2.832-4.704c-1.887-2.729-2.199-4.952-1.575-8.19a.064.064 0 0 0-.049-.069.064.064 0 0 0-.075.039c-.9 2.669-1.119 4.892.496 7.348 2.243 3.437 4.456 6.566 4.902 10.662.817 7.274-3.353 14.058-10.112 17.742-.094.049 0 .183.09.134 5.67-2.754 9.645-7.73 10.472-13.608.446-3.18-.01-6.421-1.317-9.354Z" fill="#000"/><path d="M59.135 89.263C70.901 85.3 94.917 82.9 106.49 84.187c7.863.886 8.824 5.393 8.289 8.354-1.208 6.68-19.505 10.864-27.562 10.721a150.617 150.617 0 0 1-28.225-3.145c-7.2-1.495-4.907-9.16.143-10.854Z" fill="#FFD3C9"/><path d="m89.495 83.424-9.745 23.437s-15.846-3.263-24.645-7.744c-6.73-3.417-5.314-7.428-.575-9.072 15.806-5.432 34.965-6.62 34.965-6.62Z" fill="#A9C297"/><path d="m86.177 87.337.99 1.698-.534 1.287-2.828-.881-3.154 4.343-.614-5.299-3.843-1.233 3.501-1.708-.158-1.07 1.98-.262.219.124.118-.164a202.57 202.57 0 0 1 2.674-.307l.377 1.387 3.233-.258-1.96 2.343ZM59.462 93.07l.897-1.486-1.684.149-.584-1.387-.897 1.486-1.485-.362.886 1.283-1.119 1.09 1.778-.164.99 1.837.406-1.713 1.342.495-.53-1.228Zm13.761 4.15.04-1.03-.832.549-.693-.555-.04 1.04-.866.228.822.416-.273.876.872-.584 1.03.674-.273-.99.832-.125-.619-.5Zm-2.352 4.54-3.144.891-1.525-2.381-.446 2.867h-.203c1.486.495 2.971.906 4.402 1.297l-.07-.054.986-2.62Z" fill="#fff"/><path d="M76.288 104.435c1.243-3.709 4.913-13.682 8.146-19.847 0-.04.169 0 .154.06-1.917 5.536-6.517 16.281-8.077 19.871-.03.07-.247-.015-.222-.084Z" fill="#000"/><path opacity=".1" d="M55.105 99.097c8.829 4.457 24.645 7.74 24.645 7.74l6.001-14.425-35.222 1.322c-.198 1.684 1.11 3.6 4.576 5.363Z" fill="#000"/><path d="m72.822 130.462 3.373 14.132H23.77s8.977-39.297 18.089-50.429c6.165-7.532 12.142-7.537 17.356-2.832 1.322 1.193 14.29 17.331 16.296 24.729 1.753 6.546-2.689 14.4-2.689 14.4Z" fill="#FFD3C9"/><path d="m24.696 136.775 39.48-3.961 10.587 2.223-1.946-4.595s4.457-7.854 2.69-14.4c-2.006-7.428-14.98-23.53-16.292-24.73-5.225-4.709-11.201-4.699-17.356 2.833-6.319 7.735-14.45 30.295-17.163 42.63Z" fill="#A9C297"/><path d="m38.803 131.873-4.392-1.367-3.144 4.343-.63-5.298-3.738-1.204a.574.574 0 0 0 .03-.089l3.382-1.649-.381-2.589 2.44 1.381 2.125-2.936 1.04 3.852 3.239-.257-1.981 2.342 2.01 3.471Zm21.19-39.694a6.354 6.354 0 0 0-.496-.54l-.842.075-.54-1.278a.387.387 0 0 0-.074-.059l-.866 1.46-1.486-.36.886 1.282-1.119 1.09 1.778-.164.99 1.837.406-1.713 1.342.495-.53-1.228.55-.897ZM54.96 127.6l.773-.689-.99-.208-.085-.886-.777.693-.768-.465.272.876-.817.416 1.025.223.233 1.208.53-.891.669.495-.065-.772Zm-16.078-12.543.04-1.03-.828.549-.698-.554-.04 1.035-.866.233.822.415-.273.877.877-.584 1.025.673-.272-.99.831-.129-.618-.495Zm30.463 2.931.04-1.03-.827.55-.698-.555-.04 1.04-.867.228.822.416-.272.876.876-.584 1.026.674-.273-.991.832-.129-.619-.495Zm-22.422-17.762 1.486-2.887-3.095.466-1.233-2.51-1.486 2.9-2.777-.494 1.787 2.283-1.956 2.134 3.273-.495 2.03 3.292.56-3.218 2.54.757-1.129-2.228Zm21.045 2.362-.222.065-1.525-2.382-.446 2.867-2.897.029 2.595 2.055-.99 3.729 2.733-1.787 1.183 2.372.857-2.333 1.545-.436a164.543 164.543 0 0 0-2.833-4.179Zm-14.9 12.083 2.164.445-.876-1.946 1.416-1.272-2.179-.446-.178-1.916-1.163 1.594-1.758-.886.94 2.065-1.782 1.936 2.213-.223-.024 1.802 1.227-1.153Zm18.718 11.943 2.17.446-.877-1.946 1.411-1.273-2.179-.445-.178-1.917-1.164 1.595-1.763-.862.927 2.055-1.778 1.907 2.208-.228v1.802l1.223-1.134Z" fill="#fff"/><path d="M55.016 127.729c2.756.026 5.507.255 8.23.683 1.346.233 2.678.525 4.005.847.664.158 1.328.297 1.981.435a8.94 8.94 0 0 0 2.12.223c.013 0 .025.005.035.015a.05.05 0 0 1-.035.084c-.67.088-1.345.13-2.02.124a14.281 14.281 0 0 1-1.947-.208c-1.372-.223-2.733-.495-4.1-.743-2.763-.495-5.521-.955-8.314-1.233-.1-.01-.07-.227.045-.227ZM48.464 130.699a60.897 60.897 0 0 1 6.755-.876 41.125 41.125 0 0 1 3.401-.069c.545 0 1.09 0 1.63.054.54.055 1.193.134 1.787.154a.037.037 0 0 1 .023-.002.053.053 0 0 1 .022.008.05.05 0 0 1 .015.063.054.054 0 0 1-.015.018.075.075 0 0 1-.022.009.06.06 0 0 1-.023-.002c-.56 0-1.129.094-1.688.123l-1.699.095c-1.129.064-2.263.138-3.392.193-2.268.104-4.526.232-6.789.416-.123.01-.129-.164-.005-.184ZM64.181 135.735c-1.054.718-1.307 2.184-1.124 3.363.06.292.198.539.426.564.575.04.604-.926.555-1.367a1.878 1.878 0 0 0-.287-.896 2.035 2.035 0 0 1 .267 2.387.702.702 0 0 1-.575.216.708.708 0 0 1-.53-.31 2.476 2.476 0 0 1-.262-1.53c.055-.966.57-2.09 1.53-2.427Z" fill="#000"/><path d="M50.093 89.53c-.148 1.485 1.357 8.77 5.67 9.844 2.214.55 4.457-7.13 4.457-7.13l.272-.535 3.764-7.483-8.958-9.448s-5.165 14.34-5.205 14.752Z" fill="#FFD3C9"/><path d="M53.372 80.121a16.835 16.835 0 0 0 7.11 11.588l3.769-7.487-8.963-9.453-1.916 5.352Z" fill="#000"/><path d="M78.814 75.254c-2.778 14.444-11.74 14.41-14.855 13.81-2.828-.55-12.38-2.768-11.112-17.415C54.114 57 61.705 53.723 68.232 54.629c6.526.907 13.355 6.18 10.582 20.625Z" fill="#FFD3C9"/><path d="M53.753 71.48c2.525 1.13 5.02-4.689 5.02-4.689s11.771 1.486 15.48-7.333c0 0 .159 6.392 5.225 10.8 0 0 2.639-10.112-4.695-14.455 0 0-8.75-6.556-16.638-.426-7.888 6.13-6.086 15.336-4.392 16.104Z" fill="#000"/><path d="M74.496 58.799a10.302 10.302 0 0 1-1.768 3.991 10.757 10.757 0 0 1-3.228 3.04c-.32.198-.65.374-.99.53l-.496.248c-.173.07-.352.133-.525.193-.356.119-.703.248-1.06.352-.356.103-.722.153-1.084.222-.183.03-.361.075-.545.1l-.55.039-1.099.08c-.733 0-1.485-.07-2.188-.134.728-.085 1.45-.094 2.164-.189l1.064-.168.53-.084c.173-.04.347-.094.495-.144a29.19 29.19 0 0 1 1.03-.277c.342-.084.664-.258.99-.381l.496-.194.495-.242c.318-.147.627-.312.926-.495a12.321 12.321 0 0 0 3.17-2.783c.453-.554.86-1.143 1.217-1.763.375-.618.695-1.267.956-1.941Z" fill="#000"/><path d="M55.575 71.456s-1.837-5.289-4.154-4.759c-2.318.53-1.808 7.596.297 9.136a2.477 2.477 0 0 0 3.57-.376l.287-4.001Z" fill="#FFD3C9"/><path d="M51.619 68.733a.034.034 0 0 0-.037.019.034.034 0 0 0 .007.04c1.46 1.139 1.892 2.912 2.05 4.67-.317-.748-.886-1.273-1.872-.922-.05 0-.03.1 0 .104a1.53 1.53 0 0 1 1.486.99c.188.495.322 1.008.4 1.53.035.17.328.17.318 0a.094.094 0 0 0 0-.039c.644-2.149-.154-5.556-2.352-6.392Z" fill="#000"/><path d="M52.134 75.382a.633.633 0 1 0 1.26.113.633.633 0 0 0-1.26-.113Z" fill="#666"/><path d="M52.465 75.387a.301.301 0 1 0 .302-.292.295.295 0 0 0-.277.18.295.295 0 0 0-.025.112Z" fill="#000"/><path d="M51.282 74.343a.446.446 0 1 0 .891.01.446.446 0 0 0-.891-.01Z" fill="#666"/><path d="M78.135 72.387a9.807 9.807 0 0 0-.777-.664 1.679 1.679 0 0 0-.92-.495.535.535 0 0 0-.496.396 1.307 1.307 0 0 0 .55 1.199c.34.33.793.52 1.267.534a.56.56 0 0 0 .376-.97ZM67.33 70.015a9.86 9.86 0 0 1 .991-.208 1.689 1.689 0 0 1 1.06 0 .525.525 0 0 1 .257.59 1.296 1.296 0 0 1-1.054.791c-.458.129-.948.08-1.372-.133a.56.56 0 0 1 .119-1.04ZM64.602 81.156c.13.312.228.703.555.872a2.65 2.65 0 0 0 1.094.178.035.035 0 0 1 .022.032.035.035 0 0 1-.022.032 1.342 1.342 0 0 1-1.386 0 1.07 1.07 0 0 1-.391-1.123c.03-.035.108-.035.128.01ZM67.246 79.869a9.207 9.207 0 0 1 3.675.926c.114 0 .386 0 .43-.104 0-.035.451-2.055.451-2.055.233.198 1.451 1.164 1.525.773.61-3.234 1.288-6.824 1.213-10.167a.09.09 0 0 0-.178 0c-.708 3.08-.871 6.264-1.535 9.374a5.868 5.868 0 0 0-1.421-.852c-.109 0-.367 2.204-.495 2.526a5.64 5.64 0 0 0-3.754-.604c-.485.054-.56.163.09.183Z" fill="#000"/><path d="M68.643 81.666c.495 0 1.827-1.485 1.124-1.856-.703-.372-2.6-.57-3.644.302-.922.762 1.535.871 1.832 1.148.297.278.317.397.688.406Z" fill="#000"/><path d="M67.955 81.265c.059.055.099.1.143.134.238-.55.07-1.372-.946-1.793a2.601 2.601 0 0 0-1.03.496c-.916.772 1.535.881 1.833 1.163Z" fill="#FF6868"/><path d="M68.767 73.233c0-.04-.085.035-.09.08-.128.99-.445 2.129-1.4 2.317-.03 0-.035.055 0 .055 1.128.024 1.534-1.481 1.49-2.452ZM66.86 72.486c-.046.183-.072.37-.079.56-.082.126-.182.24-.297.336a.768.768 0 0 1-.812.169c-.57-.233-.639-.916-.495-1.52 0-.045.044-.06.06 0 .153.38.346.777.702.821.357.045.614-.218.906-.336h.025l-.01-.03Z" fill="#000"/><path d="M68.628 74.323c-.09.263-.249.497-.46.678a1.11 1.11 0 0 1-.862.218.99.99 0 0 1-.713-.544 1.752 1.752 0 0 1-.163-.793c.003-.166.02-.332.049-.495.054-.335.184-.654.381-.93-.051.24-.076.486-.074.732-.008.22.002.44.03.659.064.445.252.841.594.88.342.04.663-.172.881-.573.21-.42.376-.86.496-1.313.064.5.01 1.007-.159 1.48ZM74.709 74.486c0-.034.064.065.054.104-.242.99-.361 2.144.466 2.67.025 0 0 .064 0 .049-1.085-.386-.916-1.931-.52-2.823ZM76.754 74.481a2.99 2.99 0 0 1-.124.555c.03.147.08.288.149.421a.778.778 0 0 0 .698.45c.614 0 .926-.618 1.02-1.232 0-.045 0-.07-.044-.045-.283.297-.605.6-.951.495-.347-.104-.495-.426-.723-.644h-.025Z" fill="#000"/><path d="M74.441 75.551c-.012.277.05.552.179.797a1.115 1.115 0 0 0 .723.52.991.991 0 0 0 .866-.247c.196-.19.347-.422.44-.679.054-.154.097-.31.13-.47a2.2 2.2 0 0 0 0-.99c-.035.242-.096.479-.184.707-.076.208-.167.41-.272.605-.218.39-.535.693-.866.604-.332-.09-.56-.406-.614-.857a7.046 7.046 0 0 1 0-1.406 3.18 3.18 0 0 0-.402 1.416Z" fill="#000"/><path d="M178.227 199.228c2.074-.694.232-6.68-2.075-8.528-.733-.589-3.467-1.98-6.868-3.619-7.512-3.61-18.322-8.418-18.322-8.418l-7.77-33.326-37.5.203s6.735 30.954 6.794 33.232v.42c.322 10.335.832 18.817 1.684 19.313 2.293 1.45 61.972 1.421 64.057.723Z" fill="#FFD3C9"/><path d="M178.227 199.223c-2.08.703-61.764.713-64.037-.728-.857-.52-1.352-8.988-1.684-19.337v-.421c0-.495-.352-2.397-.871-5.051h38.198l1.134 4.977s10.795 4.833 18.322 8.442c3.411 1.649 6.13 3.036 6.868 3.615 2.302 1.808 4.144 7.814 2.07 8.503Z" fill="#fff"/><path opacity=".1" d="M156.909 199.683c-18.089.04-41.308-.302-42.709-1.188-.867-.52-1.362-8.988-1.694-19.337v-.421c-.059-2.273-6.794-33.232-6.794-33.232l31.291-.168 19.906 54.346Z" fill="#000"/><path d="M178.9 199.559c-2.124.713-62.888.644-65.201-.827-.886-.544-1.391-9.408-1.698-20.119v-.337l39.204-.391v.664s23.248 10.433 25.62 12.32c2.372 1.887 4.199 7.987 2.075 8.69Z" fill="#FEE3C5"/><path d="M178.202 197.202c-10.245-.262-51.583-.356-61.729.159-.085 0-.085.064 0 .064 10.146.495 51.498.243 61.729-.055.228-.005.233-.163 0-.168ZM155.562 177.999c-4.026-.752-8.958-.143-12.043 2.729-.119.109.04.277.174.237a56.794 56.794 0 0 1 11.854-2.475.26.26 0 0 0 .142-.393.263.263 0 0 0-.127-.098ZM158.474 179.757c-4.031-.758-8.963-.144-12.048 2.723-.119.114.04.283.173.243a56.473 56.473 0 0 1 11.855-2.476.256.256 0 0 0 .02-.49ZM161.366 181.515c-4.031-.758-8.963-.144-12.043 2.723-.124.114.04.282.168.238a56.558 56.558 0 0 1 11.875-2.451.258.258 0 0 0 0-.51Z" fill="#000"/><path d="M160.816 169.215c-1.58-2.184-4.531-1.204-6.215.208a21.48 21.48 0 0 0-6.219 9.24.101.101 0 0 0-.007.049.1.1 0 0 0 .053.081.102.102 0 0 0 .048.013.484.484 0 0 0 .046.228.495.495 0 0 0 .588.267c3.328-1.228 7.041-2.129 9.904-4.342 1.653-1.298 3.297-3.679 1.802-5.744Zm-7.041 7.19c-1.625.643-3.269 1.203-4.868 1.906a63.82 63.82 0 0 1 3.753-5.308 23.127 23.127 0 0 1 2.14-2.308c1.198-1.089 5.942-3.407 5.234.991-.397 2.466-4.323 3.951-6.259 4.719Z" fill="#000"/><path d="M138.137 177.583c3.322 1.421 7.14 1.352 10.671 1.699.366.039.549-.347.495-.644a.106.106 0 0 0 .07-.07.099.099 0 0 0 .004-.051.09.09 0 0 0-.02-.047 21.517 21.517 0 0 0-8.348-7.354c-1.981-.941-5.091-1.139-6.066 1.377-.936 2.377 1.257 4.263 3.194 5.09Zm-1.818-2.882c-1.807-4.095 3.373-3.055 4.809-2.302.923.5 1.81 1.064 2.654 1.688a64.975 64.975 0 0 1 4.952 4.184c-1.724-.277-3.467-.401-5.19-.614-2.05-.247-6.224-.688-7.225-2.956ZM168.709 186.868a10.39 10.39 0 0 0-7.764 3.144c-1.619 1.758-3.001 4.229-2.922 6.933 0 .079.149.079.159 0 .752-5.071 5.382-9.518 10.527-9.904a.09.09 0 0 0 .062-.025.086.086 0 0 0 .025-.061.09.09 0 0 0-.025-.062.09.09 0 0 0-.062-.025Z" fill="#000"/><path d="M119.805 188.829c-4.397 0-4.402 6.833 0 6.833s4.422-6.833 0-6.833Z" fill="#fff"/><path opacity=".1" d="M179.727 198.535a1.313 1.313 0 0 1-.827 1.025c-2.119.713-62.888.643-65.196-.827-.891-.55-1.401-9.409-1.698-20.12v-.336l37.396-.372 30.325 20.63Z" fill="#000"/><path d="M33.138 144.575s-7.021 23.798-3.283 35.212c2.808 8.576 12.256 14.533 19.55 18.178 4.516 2.258 32.796 3.55 40.229-2.511 10.369-8.452 26.739-54.247 26.739-55.574 0-5.145-15.712-14.821-15.712-14.821s-.089 13.826.991 19.699c1.213 6.521 7.997 26.69 7.997 26.69l40.263-.158s-7.205-44.339-19.436-71.128c-2.659-5.824-10.923-8.864-17.782-8.646a20.131 20.131 0 0 0-14.147 6.57c-9.656 10.519-30.275 45.736-30.275 45.736l-35.134.753Z" fill="#FFB445"/><path d="M107.525 164.426c-.897-3.615-3.521-11.503-5.725-22.531-.847-4.233-1.485-9.651-2.144-14.82-.317-2.476-.792-9.488-1.248-12.058a.099.099 0 1 0-.193 0c.035 2.565.54 8.175.723 10.429.084.99.173 1.946.263 2.916-.08-.213-1.932-4.763-2.526-6.774a.101.101 0 0 0-.018-.033.113.113 0 0 0-.03-.023.092.092 0 0 0-.036-.01.094.094 0 0 0-.037.004.087.087 0 0 0-.033.019.095.095 0 0 0-.03.103c.848 3.109 2.477 8.378 2.898 8.873.267 2.857.738 8.309 1.282 11.127 1.486 7.685 5.224 20.748 6.522 23.09.124.238.396-.049.332-.312ZM128.04 163.991c-5.393-.06-11.657-.174-16.168-.496-.099 0-.119-.163 0-.163 4.487-.139 10.731-.243 16.109-.178 5.377.064 10.77.337 16.162.525.139 0 .164.218 0 .218-5.363.029-10.73.148-16.103.094ZM68.272 143.822a48.539 48.539 0 0 1-4.809 8.101 28.827 28.827 0 0 1-6.115 4.135c1.431-1.426 3.14-2.818 4.674-4.12.507-.409.942-.9 1.288-1.451 1.584-2.248 3.164-4.531 4.977-6.655l-.015-.01Z" fill="#000"/><path d="M58.863 152.626a11.23 11.23 0 0 1 4.526-1.431 11.194 11.194 0 0 1-4.526 1.431Z" fill="#000"/><path d="M38.645 146.134c-.431 3.466-.797 6.972-1.03 10.468-.104 2.174-.312 4.383.05 6.537.816 2.515 5.62 3.213 7.922 3.58 2.598.35 5.23.378 7.834.084.857-.139 1.718-.109 2.313-.827 5.7-6.626 10.101-14.306 14.979-21.545 7.69-11.731 15.004-23.739 23.506-34.916a31.787 31.787 0 0 1 2.61-2.971c.658-.653 1.52-1.357 2.505-.802a9.549 9.549 0 0 1 2.971 2.664c.496.713 1.184 1.441 1.362 2.328.862 9.596.495 19.312 2.07 28.839 1.486 6.843 3.362 13.617 5.199 20.377a793.08 793.08 0 0 1-2.837-10.132c-1.322-5.08-2.922-10.156-3.303-15.42-.495-5.244-.718-10.503-.99-15.756-.178-2.704-.149-5.447-.565-8.136-.95-1.743-2.332-3.467-4.085-4.417a1.16 1.16 0 0 0-1.094-.045c-1.407.926-2.476 2.436-3.55 3.739-9.786 13.068-20.085 30.122-29.271 43.67-1.951 2.912-3.917 5.823-5.987 8.661a37.56 37.56 0 0 1-3.332 4.095c-.303.361-.721.608-1.184.698-4.456.817-13.122.495-16.608-2.545-.693-.624-.802-1.605-.827-2.476a46.71 46.71 0 0 1 .163-5.264c.273-3.496.679-6.982 1.15-10.458l.029-.03Z" fill="#000"/><path opacity=".1" d="m145.98 171.304-36.306.144s-.961-2.863-2.229-6.779c-5.14 12.562-12.622 26.551-17.826 30.79-7.428 6.051-35.708 4.764-40.224 2.506-7.294-3.645-16.742-9.607-19.55-18.183-3.733-11.39 3.284-35.208 3.284-35.208l35.157-.753s20.605-35.217 30.28-45.73a20.098 20.098 0 0 1 14.148-6.58c2.51-.067 5.016.255 7.428.955l25.838 78.838Z" fill="#000"/><path d="M168.863 199.228c2.075-.694.233-6.68-2.075-8.528-.733-.589-3.466-1.98-6.868-3.619-7.512-3.61-18.322-8.418-18.322-8.418l-7.769-33.326-37.5.203s6.734 30.954 6.794 33.232v.42c.321 10.335.831 18.817 1.683 19.313 2.293 1.45 61.972 1.421 64.057.723Z" fill="#FFD3C9"/><path d="M168.863 199.223c-2.09.703-61.764.713-64.037-.728-.852-.53-1.367-8.988-1.684-19.312v-.421c0-.495-.361-2.432-.886-5.12h38.193l1.154 5.021s10.805 4.833 18.322 8.443c3.416 1.649 6.135 3.035 6.868 3.614 2.302 1.808 4.145 7.814 2.07 8.503Z" fill="#fff"/><path d="M169.536 199.559c-2.124.713-62.888.644-65.2-.827-.887-.544-1.397-9.408-1.699-20.119v-.337l39.204-.391v.664s23.273 10.433 25.615 12.32c2.343 1.887 4.205 7.987 2.08 8.69Z" fill="#FEE3C5"/><path d="M168.848 197.202c-10.241-.262-51.578-.356-61.725.159-.084 0-.084.064 0 .064 10.147.495 51.499.243 61.73-.055.213-.005.213-.163-.005-.168ZM146.198 177.999c-4.03-.752-8.958-.143-12.043 2.729-.118.109.04.277.169.237a56.968 56.968 0 0 1 11.859-2.475.267.267 0 0 0 .133-.09.26.26 0 0 0-.118-.401ZM149.105 179.757c-4.031-.758-8.958-.144-12.043 2.723-.119.114.04.283.173.243a56.473 56.473 0 0 1 11.855-2.476.252.252 0 0 0 .132-.089.26.26 0 0 0 .01-.304.26.26 0 0 0-.127-.097ZM152.017 181.515c-4.031-.758-8.963-.144-12.048 2.723-.119.114.039.282.173.238a56.452 56.452 0 0 1 11.855-2.451.256.256 0 0 0 .233-.247.256.256 0 0 0-.213-.263Z" fill="#000"/><path d="M151.462 169.215c-1.585-2.184-4.531-1.204-6.219.208a21.512 21.512 0 0 0-6.225 9.24.101.101 0 0 0-.007.049.098.098 0 0 0 .016.047.11.11 0 0 0 .037.034.102.102 0 0 0 .048.013c0 .307.282.634.629.495 3.333-1.228 7.042-2.129 9.904-4.342 1.659-1.298 3.303-3.679 1.817-5.744Zm-7.041 7.19c-1.625.643-3.269 1.203-4.868 1.906a64.992 64.992 0 0 1 3.748-5.308 24.206 24.206 0 0 1 2.14-2.308c1.203-1.089 5.942-3.407 5.239.991-.406 2.466-4.338 3.951-6.269 4.719h.01Z" fill="#000"/><path d="M128.773 177.583c3.318 1.421 7.14 1.352 10.671 1.699.366.039.55-.347.495-.644a.118.118 0 0 0 .068-.071.121.121 0 0 0-.013-.097 21.544 21.544 0 0 0-8.339-7.354c-1.981-.941-5.086-1.139-6.066 1.377-.946 2.377 1.243 4.263 3.184 5.09Zm-1.817-2.882c-1.813-4.095 3.372-3.055 4.808-2.302a23.33 23.33 0 0 1 2.654 1.688c1.773 1.263 3.337 2.758 4.952 4.184-1.728-.277-3.467-.401-5.195-.614-2.025-.247-6.224-.688-7.219-2.956ZM159.583 186.868a10.39 10.39 0 0 0-7.764 3.144c-1.62 1.758-3.001 4.229-2.922 6.933 0 .079.149.079.159 0 .752-5.071 5.382-9.518 10.527-9.904a.086.086 0 0 0 .061-.025.083.083 0 0 0 .026-.061.087.087 0 0 0-.087-.087Z" fill="#000"/><path d="M110.679 188.829c-4.397 0-4.402 6.833 0 6.833s4.402-6.833 0-6.833Z" fill="#fff"/><path d="M23.77 144.574s-6.997 23.799-3.283 35.213c2.807 8.576 12.26 14.533 19.56 18.188 4.515 2.258 32.8 3.55 40.228-2.511 10.374-8.453 26.74-54.247 26.74-55.574 0-5.145-15.713-14.821-15.713-14.821s-.084 13.826.99 19.699c1.214 6.521 7.998 26.69 7.998 26.69l40.674-.159s-7.621-44.338-19.852-71.128c-2.654-5.823-10.918-8.863-17.782-8.645a20.125 20.125 0 0 0-14.142 6.57c-9.68 10.518-30.285 45.736-30.285 45.736l-35.133.742Z" fill="#FFB445"/><path d="M98.121 164.684c-.896-3.62-3.466-11.761-5.69-22.779-.841-4.234-1.485-9.651-2.144-14.821-.317-2.475-.792-9.487-1.243-12.057a.097.097 0 0 0-.029-.07.097.097 0 0 0-.07-.029.097.097 0 0 0-.07.029.097.097 0 0 0-.029.07c.035 2.565.54 8.175.728 10.428.08.991.174 1.946.258 2.917-.08-.213-1.926-4.764-2.52-6.774-.035-.124-.219-.065-.189.059.847 3.11 2.476 8.379 2.902 8.874.262 2.857.733 8.309 1.277 11.127 1.486 7.685 5.225 20.748 6.522 23.09.129.228.362.198.297-.064ZM118.676 163.991c-5.392-.06-11.656-.174-16.168-.496-.104 0-.118-.163 0-.163 4.492-.139 10.736-.243 16.109-.178 5.372.064 10.775.337 16.167.525.134 0 .159.218 0 .218-5.367.029-10.735.148-16.108.094ZM58.918 143.822a47.895 47.895 0 0 1-4.824 8.101 28.669 28.669 0 0 1-6.125 4.125c1.426-1.426 3.135-2.818 4.675-4.12a6.01 6.01 0 0 0 1.287-1.451c1.58-2.248 3.16-4.531 4.952-6.655h.035Z" fill="#000"/><path d="M49.504 152.626a11.27 11.27 0 0 1 4.531-1.431 11.217 11.217 0 0 1-4.53 1.431ZM29.41 161.079c.945-.327 4.991-1.154 5.976-1.54a22.726 22.726 0 0 0 5.26-2.872c1.643-1.233 2.658-2.872 3.525-4.704.46-.991 2.669-6.255 2.803-6.274a.138.138 0 0 1 .138.069c.179.337-.495 2.298-.718 2.946-.351 1.134-.698 2.268-1.094 3.387-.748 2.11-1.802 4.026-3.57 5.447a18.184 18.184 0 0 1-5.853 3.046c-1.084.355-2.198.61-3.328.762a8.805 8.805 0 0 1-3.16.06c-.177-.075-.113-.283.02-.327Z" fill="#000"/><path d="M29.281 146.134c-.43 3.466-.802 6.972-1.03 10.468-.104 2.174-.312 4.383.05 6.537.812 2.515 5.615 3.213 7.922 3.58 2.598.35 5.23.378 7.834.084.857-.139 1.718-.109 2.318-.827 5.7-6.626 10.101-14.306 14.979-21.545 7.69-11.731 15.004-23.739 23.501-34.916a32.666 32.666 0 0 1 2.615-2.971c.658-.653 1.52-1.357 2.505-.802a9.477 9.477 0 0 1 2.972 2.664c.52.713 1.188 1.441 1.361 2.328.862 9.596.495 19.312 2.07 28.839 1.486 6.843 3.367 13.617 5.204 20.377a706.783 706.783 0 0 1-2.837-10.132c-1.322-5.08-2.922-10.156-3.303-15.42-.495-5.244-.723-10.503-.99-15.756-.178-2.704-.149-5.447-.565-8.136-.955-1.743-2.332-3.467-4.09-4.417a1.16 1.16 0 0 0-1.094-.045c-1.402.926-2.476 2.436-3.546 3.739-9.79 13.068-20.084 30.122-29.27 43.67-1.956 2.912-3.922 5.823-5.987 8.661a37.546 37.546 0 0 1-3.332 4.095 2.06 2.06 0 0 1-1.184.698c-4.456.817-13.122.495-16.608-2.545-.698-.624-.802-1.605-.832-2.476-.04-1.757.016-3.514.168-5.264.273-3.496.679-6.982 1.15-10.458l.019-.03Z" fill="#000"/><path d="M48.96 144.193c-.274.455-.453.96-.525 1.486a.287.287 0 0 0 .198.327c.133.024.242-.089.267-.248.046-.306.132-.604.258-.886l.04-.08s.049-.108 0-.034a.74.74 0 0 1 .054-.109l.06-.104a.343.343 0 0 0-.036-.406.206.206 0 0 0-.176-.058.206.206 0 0 0-.155.102l.014.01ZM48.232 146.927a3.96 3.96 0 0 0-.525 1.485.286.286 0 0 0 .198.327c.128.025.242-.089.267-.243.046-.307.132-.607.258-.891l.04-.079s.049-.104 0-.035l.054-.109.06-.104a.351.351 0 0 0-.036-.406.216.216 0 0 0-.176-.058.208.208 0 0 0-.09.034.203.203 0 0 0-.065.069l.015.01ZM47.28 149.343a3.32 3.32 0 0 0-.905 1.189.336.336 0 0 0 .099.391c.028.016.06.026.092.028a.216.216 0 0 0 .224-.152c.13-.265.297-.51.496-.728l.054-.059.025-.025.084-.079.08-.075a.324.324 0 0 0 .079-.396.204.204 0 0 0-.055-.078.22.22 0 0 0-.179-.053.218.218 0 0 0-.088.037h-.005ZM45.652 151.462a2.904 2.904 0 0 0-1.114.877.34.34 0 0 0 0 .411c.019.026.044.046.073.061a.212.212 0 0 0 .258-.061c.173-.228.384-.424.624-.579l.065-.04s.089-.055.03 0l.093-.05.095-.044a.318.318 0 0 0 .158-.362c-.045-.143-.168-.242-.297-.193l.015-.02ZM43.686 152.948c-.454.104-.871.328-1.209.648a.345.345 0 0 0-.034.411.198.198 0 0 0 .065.068.203.203 0 0 0 .182.022.197.197 0 0 0 .08-.05c.2-.183.432-.328.683-.431l.07-.025s.093-.034.029 0l.104-.029.099-.03a.286.286 0 0 0 .198-.327c0-.148-.139-.272-.267-.242v-.015ZM41.532 154.007a2.545 2.545 0 0 0-1.248.535.335.335 0 0 0-.06.401.213.213 0 0 0 .327.074c.212-.163.452-.286.708-.361h.07s.099-.025.03 0h.203a.28.28 0 0 0 .218-.312c0-.153-.12-.282-.248-.267v-.07ZM39.348 154.894a2.477 2.477 0 0 0-1.273.456.342.342 0 0 0-.074.401.23.23 0 0 0 .056.077.22.22 0 0 0 .266.017c.218-.152.464-.261.723-.322h.307a.278.278 0 0 0 .233-.297c0-.154-.11-.292-.238-.282v-.05ZM37.135 155.696a2.504 2.504 0 0 0-1.268.461.334.334 0 0 0-.02.475.22.22 0 0 0 .18.052.218.218 0 0 0 .087-.037c.22-.148.465-.256.723-.317H37.145a.271.271 0 0 0 .233-.292c0-.154-.11-.292-.243-.287v-.055ZM34.778 156.523a2.47 2.47 0 0 0-1.268.456.334.334 0 0 0-.074.401.207.207 0 0 0 .137.128.21.21 0 0 0 .184-.034c.218-.151.461-.26.718-.322h.313a.27.27 0 0 0 .172-.1.27.27 0 0 0 .055-.192c0-.154-.104-.292-.237-.288v-.049ZM32.514 157.523a2.8 2.8 0 0 0-1.134.837.345.345 0 0 0 0 .411.213.213 0 0 0 .166.083.213.213 0 0 0 .166-.083c.18-.212.394-.391.634-.53l.07-.039s.089-.05.024 0l.1-.045.093-.039a.313.313 0 0 0 .169-.357c-.04-.148-.164-.252-.292-.203l.004-.035ZM30.529 159.281c-.411.28-.75.654-.99 1.089a.334.334 0 0 0 .069.402.2.2 0 0 0 .086.04.206.206 0 0 0 .236-.125c.146-.251.328-.479.54-.678l.059-.054.109-.109.089-.065a.336.336 0 0 0 .104-.386.221.221 0 0 0-.317-.134l.015.02ZM28.85 161.331a3.58 3.58 0 0 0-.812 1.293.326.326 0 0 0 .129.376.225.225 0 0 0 .307-.158 3.19 3.19 0 0 1 .48-.847l.025-.03.074-.089.08-.079a.344.344 0 0 0 .044-.406.203.203 0 0 0-.149-.111.216.216 0 0 0-.178.051ZM27.533 163.807a3.799 3.799 0 0 0-.688 1.396.314.314 0 0 0 .163.357.234.234 0 0 0 .19-.034.242.242 0 0 0 .102-.164 3.18 3.18 0 0 1 .357-.842.492.492 0 0 1 .04-.069s.064-.099 0-.035c.024-.03.044-.064.069-.099l.069-.089a.357.357 0 0 0 0-.411.213.213 0 0 0-.166-.083.213.213 0 0 0-.166.083l.03-.01ZM26.34 166.283a3.663 3.663 0 0 0-.748 1.342.31.31 0 0 0 .143.371.226.226 0 0 0 .189-.023.233.233 0 0 0 .109-.155 3.43 3.43 0 0 1 .396-.812l.05-.069s.064-.09 0-.03l.073-.094a.54.54 0 0 1 .07-.084.344.344 0 0 0 .03-.411.202.202 0 0 0-.067-.069.197.197 0 0 0-.09-.032.22.22 0 0 0-.096.012.213.213 0 0 0-.08.054h.02ZM25.037 168.759a3.232 3.232 0 0 0-.93 1.159.334.334 0 0 0 .093.396.223.223 0 0 0 .186.018.22.22 0 0 0 .131-.132c.13-.26.297-.5.495-.713l.055-.06s.08-.074 0-.024l.084-.075.084-.069a.337.337 0 0 0 .09-.396.218.218 0 0 0-.322-.104h.034ZM23.339 170.636a2.614 2.614 0 0 0-1.208.663.345.345 0 0 0-.035.411c.017.028.04.051.067.068a.195.195 0 0 0 .09.032.203.203 0 0 0 .094-.01.203.203 0 0 0 .08-.05 2.31 2.31 0 0 1 .679-.441l.07-.03h.03l.103-.034.1-.025a.293.293 0 0 0 .197-.332c0-.148-.139-.267-.267-.242v-.01ZM21.284 171.73a2.368 2.368 0 0 0-1.308-.252.28.28 0 0 0-.208.321.259.259 0 0 0 .164.235.24.24 0 0 0 .099.018 2.03 2.03 0 0 1 .763.089h.069s.094.035.03 0l.104.04.094.044c.03.015.061.022.094.022a.221.221 0 0 0 .17-.083.211.211 0 0 0 .043-.087.324.324 0 0 0-.114-.382v.035ZM19.154 171.091a3.47 3.47 0 0 0-.871-1.223.205.205 0 0 0-.088-.04.21.21 0 0 0-.239.125.344.344 0 0 0 .07.401c.212.194.393.42.54.668l.044.074s.054.104 0 .035l.06.109c0 .035.034.069.049.109a.213.213 0 0 0 .124.141.22.22 0 0 0 .188-.007.34.34 0 0 0 .109-.392h.014ZM17.857 168.759a4.191 4.191 0 0 0-.396-1.555.21.21 0 0 0-.143-.123.224.224 0 0 0-.096-.002.22.22 0 0 0-.088.041.332.332 0 0 0-.07.396c.131.282.223.58.273.886.003.03.003.06 0 .089v.164c.003.041.003.082 0 .124 0 .153.114.292.243.282a.284.284 0 0 0 .228-.302h.05ZM17.194 165.966a4.395 4.395 0 0 0 0-1.629.241.241 0 0 0-.099-.165.248.248 0 0 0-.09-.039.25.25 0 0 0-.098.001.302.302 0 0 0-.164.357c.052.31.067.626.045.94v.129a.992.992 0 0 1 0 .129.916.916 0 0 1 0 .124.305.305 0 0 0 .163.356.24.24 0 0 0 .192-.036.239.239 0 0 0 .1-.167h-.05ZM17.189 163.074c.19-.511.278-1.054.257-1.599a.252.252 0 0 0-.068-.185.252.252 0 0 0-.18-.082.282.282 0 0 0-.217.311c.007.316-.028.63-.104.936v.09c0 .029-.035.113 0 .034 0 .04-.025.084-.04.124a1.09 1.09 0 0 1-.064.114.33.33 0 0 0 .109.386.214.214 0 0 0 .266-.044.205.205 0 0 0 .046-.085h-.005ZM17.684 160.168c.213-.499.33-1.033.341-1.575a.267.267 0 0 0-.237-.287c-.134 0-.228.133-.233.292a3.733 3.733 0 0 1-.153.926.535.535 0 0 1 0 .084s-.04.114 0 .035l-.045.118-.044.114a.339.339 0 0 0 .084.397.223.223 0 0 0 .185.024.222.222 0 0 0 .136-.128h-.034ZM18.258 157.32c.323-.427.558-.913.694-1.431a.286.286 0 0 0-.159-.346.261.261 0 0 0-.191.048.256.256 0 0 0-.101.17 3.665 3.665 0 0 1-.367.861l-.044.075s-.06.099 0 .029c0 .035-.05.07-.07.104l-.069.094a.353.353 0 0 0 0 .411.218.218 0 0 0 .168.083.217.217 0 0 0 .169-.083l-.03-.015ZM19.308 154.894c.445-.31.825-.703 1.12-1.159a.232.232 0 0 0 .06-.193.235.235 0 0 0-.11-.169.23.23 0 0 0-.097-.035.256.256 0 0 0-.103.01.24.24 0 0 0-.147.14 3.693 3.693 0 0 1-.619.708l-.07.059s-.088.074 0 .025a.813.813 0 0 0-.098.079l-.1.069a.344.344 0 0 0-.139.382.225.225 0 0 0 .06.076.225.225 0 0 0 .18.046.217.217 0 0 0 .088-.038h-.025ZM21.23 152.725c.387-.389.695-.85.905-1.357a.24.24 0 0 0 .01-.192.247.247 0 0 0-.052-.084.229.229 0 0 0-.081-.055.3.3 0 0 0-.332.203c-.13.29-.297.563-.495.812l-.06.069s-.074.094 0 .03l-.089.099-.08.089a.314.314 0 0 0-.064.391.232.232 0 0 0 .174.08.225.225 0 0 0 .173-.08l-.01-.005Z" fill="#999"/><path d="m22.898 149.848-.054-.035a.888.888 0 0 0-1.164.421l-.139.228a.888.888 0 0 0 .174 1.228l.054.03a.88.88 0 0 0 1.164-.421l.138-.223a.887.887 0 0 0-.173-1.228Zm-.218 1.238a.527.527 0 0 1-.693.253h-.035a.533.533 0 0 1-.104-.733l.084-.139a.53.53 0 0 1 .699-.248h.03a.529.529 0 0 1 .103.714l-.084.153Z" fill="#fff"/><path opacity=".4" d="m22.74 150.031-.045-.024a.688.688 0 0 0-.906.327l-.11.178a.692.692 0 0 0 .135.955l.044.025a.688.688 0 0 0 .906-.327l.11-.178a.692.692 0 0 0-.134-.956Zm-.06 1.055a.524.524 0 0 1-.693.253h-.035a.532.532 0 0 1-.104-.733l.085-.139a.53.53 0 0 1 .698-.247h.03a.525.525 0 0 1 .103.713l-.084.153Z" fill="#999"/><path d="m21.378 152.15-.05-.044a.835.835 0 0 0-.951.015.828.828 0 0 0-.227.247l-.159.208a.946.946 0 0 0 0 1.273l.05.04a.831.831 0 0 0 1.178-.258l.159-.208a.942.942 0 0 0 0-1.273Zm-.357 1.228a.483.483 0 0 1-.32.231.49.49 0 0 1-.388-.077l-.025-.025a.567.567 0 0 1 0-.762l.1-.124a.49.49 0 0 1 .318-.228.481.481 0 0 1 .385.074h.03a.565.565 0 0 1 0 .758l-.1.153Z" fill="#fff"/><path opacity=".4" d="m21.2 152.314-.035-.03a.657.657 0 0 0-.742.008.667.667 0 0 0-.179.19l-.124.164a.741.741 0 0 0 0 .99l.04.03a.641.641 0 0 0 .74-.01.646.646 0 0 0 .176-.193l.124-.163a.734.734 0 0 0 0-.986Zm-.179 1.065a.503.503 0 0 1-.32.231.49.49 0 0 1-.388-.078l-.024-.024a.572.572 0 0 1 0-.763l.099-.124a.488.488 0 0 1 .318-.228.499.499 0 0 1 .385.075h.03a.56.56 0 0 1 0 .757l-.1.154Z" fill="#999"/><path d="m19.447 154.26-.06-.03a.758.758 0 0 0-.905.164.755.755 0 0 0-.16.287l-.103.237a1.021 1.021 0 0 0 .302 1.278l.054.035a.772.772 0 0 0 .906-.168.759.759 0 0 0 .164-.283l.104-.238a1.028 1.028 0 0 0-.302-1.282Zm-.07 1.297a.455.455 0 0 1-.638.273h-.035a.622.622 0 0 1-.178-.768l.064-.139a.444.444 0 0 1 .634-.272h.035a.615.615 0 0 1 .183.763l-.065.143Z" fill="#fff"/><path opacity=".4" d="m19.313 154.458-.044-.029a.6.6 0 0 0-.832.356l-.08.183a.8.8 0 0 0 .233.991l.045.03a.593.593 0 0 0 .831-.357l.085-.183a.797.797 0 0 0-.238-.991Zm.064 1.1a.455.455 0 0 1-.638.272h-.035a.618.618 0 0 1-.178-.767l.064-.139a.447.447 0 0 1 .634-.272h.035a.61.61 0 0 1 .183.762l-.065.144Z" fill="#999"/><path d="M18.218 156.766h-.064a.771.771 0 0 0-.327-.035.765.765 0 0 0-.546.337.751.751 0 0 0-.117.307l-.07.247a1.032 1.032 0 0 0 .496 1.219l.059.024a.744.744 0 0 0 .64-.07.763.763 0 0 0 .35-.539l.07-.247a1.027 1.027 0 0 0-.49-1.243Zm.13 1.292a.465.465 0 0 1-.215.316.458.458 0 0 1-.38.046h-.035a.613.613 0 0 1-.292-.728l.04-.149a.463.463 0 0 1 .21-.319.451.451 0 0 1 .38-.047h.034a.612.612 0 0 1 .297.728l-.04.153Z" fill="#fff"/><path opacity=".4" d="M18.115 156.979h-.045a.585.585 0 0 0-.688.248.591.591 0 0 0-.085.247l-.054.193a.808.808 0 0 0 .386.951h.05a.59.59 0 0 0 .5-.068.59.59 0 0 0 .267-.428l.055-.198a.801.801 0 0 0-.386-.945Zm.232 1.079a.465.465 0 0 1-.214.316.453.453 0 0 1-.38.046h-.035a.613.613 0 0 1-.292-.728l.04-.149a.457.457 0 0 1 .59-.366h.034a.612.612 0 0 1 .297.728l-.04.153Z" fill="#999"/><path d="M17.595 159.647h-.06a.817.817 0 0 0-.83.446c-.049.1-.076.21-.08.322l-.04.262a.99.99 0 0 0 .623 1.124h.06a.81.81 0 0 0 .911-.772l.04-.258a.991.991 0 0 0-.624-1.124Zm.272 1.258a.49.49 0 0 1-.176.343.498.498 0 0 1-.369.113h-.054a.587.587 0 0 1-.372-.674v-.153a.49.49 0 0 1 .348-.441.486.486 0 0 1 .197-.02h.035a.575.575 0 0 1 .376.669l.015.163Z" fill="#fff"/><path opacity=".4" d="M17.52 159.876h-.05a.618.618 0 0 0-.475.144.63.63 0 0 0-.222.445l-.035.203a.757.757 0 0 0 .495.871h.05a.642.642 0 0 0 .648-.347.636.636 0 0 0 .065-.252l.03-.203a.759.759 0 0 0-.506-.861Zm.347 1.03a.496.496 0 0 1-.545.455h-.054a.582.582 0 0 1-.372-.673v-.154a.5.5 0 0 1 .348-.441.486.486 0 0 1 .197-.019h.035a.57.57 0 0 1 .376.668l.015.164Z" fill="#999"/><path d="M17.164 162.53h-.065a.804.804 0 0 0-.628.189.818.818 0 0 0-.283.593l-.04.257a.992.992 0 0 0 .625 1.1h.064a.816.816 0 0 0 .63-.17.808.808 0 0 0 .296-.583l.04-.262a.99.99 0 0 0-.64-1.124Zm.267 1.257a.492.492 0 0 1-.348.441.486.486 0 0 1-.196.02h-.035a.583.583 0 0 1-.377-.669v-.158a.495.495 0 0 1 .545-.461h.04a.586.586 0 0 1 .371.674v.153Z" fill="#fff"/><path opacity=".4" d="M17.085 162.758h-.05a.625.625 0 0 0-.708.599l-.03.203a.752.752 0 0 0 .495.876h.05a.626.626 0 0 0 .645-.348.628.628 0 0 0 .063-.251l.03-.203a.753.753 0 0 0-.495-.876Zm.346 1.029a.49.49 0 0 1-.174.347.5.5 0 0 1-.37.114h-.035a.583.583 0 0 1-.377-.668v-.159a.502.502 0 0 1 .175-.346.5.5 0 0 1 .37-.114h.04a.582.582 0 0 1 .371.673v.153Z" fill="#999"/><path d="M16.926 165.501h-.064a.99.99 0 0 0-.585 1.168l.045.258a.796.796 0 0 0 .946.733h.064a.991.991 0 0 0 .59-1.149l-.045-.257a.792.792 0 0 0-.302-.596.788.788 0 0 0-.649-.157Zm.649 1.025a.59.59 0 0 1-.357.688h-.034a.49.49 0 0 1-.495-.25.49.49 0 0 1-.06-.186l-.03-.153a.59.59 0 0 1 .352-.688h.04a.495.495 0 0 1 .555.435l.029.154Z" fill="#fff"/><path opacity=".4" d="M16.926 165.748h-.05a.772.772 0 0 0-.46.897l.035.203a.628.628 0 0 0 .47.559.624.624 0 0 0 .258.01h.05a.768.768 0 0 0 .46-.896l-.035-.203a.619.619 0 0 0-.238-.446.616.616 0 0 0-.49-.124Zm.649.778a.59.59 0 0 1-.357.688h-.034a.491.491 0 0 1-.495-.25.496.496 0 0 1-.06-.186l-.03-.153a.59.59 0 0 1 .352-.689h.04a.51.51 0 0 1 .368.102.495.495 0 0 1 .186.334l.03.154Z" fill="#999"/><path d="m17.446 168.447-.054.04a1.09 1.09 0 0 0-.283 1.317l.11.228a.713.713 0 0 0 .448.437.712.712 0 0 0 .62-.091l.055-.039a1.1 1.1 0 0 0 .278-1.318l-.11-.232a.71.71 0 0 0-.447-.435.705.705 0 0 0-.617.093Zm.872.728a.655.655 0 0 1-.169.787l-.034.025a.412.412 0 0 1-.37.055.41.41 0 0 1-.264-.263l-.065-.134a.648.648 0 0 1 .164-.787l.034-.025a.43.43 0 0 1 .372-.055.427.427 0 0 1 .267.263l.065.134Z" fill="#fff"/><path opacity=".4" d="m17.506 168.68-.04.029a.862.862 0 0 0-.198 1.04l.084.179a.553.553 0 0 0 .6.359.546.546 0 0 0 .232-.092l.044-.03a.858.858 0 0 0 .218-1.03l-.089-.178a.544.544 0 0 0-.354-.358.553.553 0 0 0-.497.081Zm.812.495a.655.655 0 0 1-.169.787l-.034.025a.412.412 0 0 1-.37.055.41.41 0 0 1-.264-.263l-.065-.134a.648.648 0 0 1 .164-.787l.034-.025a.43.43 0 0 1 .372-.055.426.426 0 0 1 .267.263l.065.134Z" fill="#999"/><path d="m18.585 171.002-.03.069a1.086 1.086 0 0 0 .347 1.298l.188.119a.719.719 0 0 0 1.05-.426l.03-.07a1.078 1.078 0 0 0-.342-1.292l-.193-.124a.718.718 0 0 0-1.05.426Zm1.055.03a.648.648 0 0 1 .203.777v.04a.424.424 0 0 1-.44.309.426.426 0 0 1-.184-.057l-.119-.069a.645.645 0 0 1-.203-.772v-.045a.434.434 0 0 1 .444-.309.43.43 0 0 1 .185.056l.114.07Z" fill="#fff"/><path opacity=".4" d="M18.753 171.156v.054a.843.843 0 0 0 .268.991l.148.094a.555.555 0 0 0 .817-.332v-.054a.843.843 0 0 0-.267-.991l-.149-.089a.564.564 0 0 0-.488-.035.55.55 0 0 0-.329.362Zm.897-.124a.65.65 0 0 1 .203.778v.039a.43.43 0 0 1-.25.279.425.425 0 0 1-.374-.026l-.12-.07a.64.64 0 0 1-.202-.772v-.045a.43.43 0 0 1 .629-.252l.114.069Z" fill="#999"/><path d="M20.863 171.963v.079a.819.819 0 0 0 .28.589.825.825 0 0 0 .622.194l.212-.045a.99.99 0 0 0 .634-1.114v-.079a.81.81 0 0 0-.886-.783l-.213.045a.988.988 0 0 0-.649 1.114Zm.862-.728a.49.49 0 0 1 .49.278c.03.06.046.126.05.192v.025a.576.576 0 0 1-.382.664l-.124.029a.473.473 0 0 1-.197-.022.483.483 0 0 1-.294-.255.5.5 0 0 1-.049-.193v-.045a.574.574 0 0 1 .377-.663l.129-.01Z" fill="#fff"/><path opacity=".4" d="M21.06 171.973v.059c.06.411.372.684.704.609l.163-.034a.748.748 0 0 0 .496-.867v-.059a.631.631 0 0 0-.698-.609l-.169.034a.752.752 0 0 0-.495.867Zm.665-.738a.507.507 0 0 1 .37.12.5.5 0 0 1 .17.351v.024a.576.576 0 0 1-.382.664l-.124.03a.508.508 0 0 1-.37-.12.498.498 0 0 1-.17-.351v-.044a.576.576 0 0 1 .377-.664l.128-.01Z" fill="#999"/><path d="m23.166 171.235.044.054a.687.687 0 0 0 .552.281.68.68 0 0 0 .552-.281l.154-.188a1.112 1.112 0 0 0 0-1.357l-.045-.059a.687.687 0 0 0-.552-.281.687.687 0 0 0-.552.281l-.153.188a1.14 1.14 0 0 0 0 1.362Zm.356-1.228a.405.405 0 0 1 .659 0l.024.035a.667.667 0 0 1 0 .812l-.089.114a.403.403 0 0 1-.329.168.402.402 0 0 1-.33-.168l-.029-.035a.678.678 0 0 1 0-.812l.094-.114Z" fill="#fff"/><path opacity=".4" d="m23.334 171.111.035.04a.536.536 0 0 0 .862 0l.118-.149a.874.874 0 0 0 0-1.059l-.035-.045a.541.541 0 0 0-.43-.218.533.533 0 0 0-.431.218l-.12.144a.884.884 0 0 0 0 1.069Zm.188-1.094a.405.405 0 0 1 .659 0l.024.035a.666.666 0 0 1 0 .812l-.089.114a.402.402 0 0 1-.33.168.402.402 0 0 1-.33-.168l-.028-.035a.678.678 0 0 1 0-.812l.094-.114Z" fill="#999"/><path d="m24.918 169.254.05.045a.701.701 0 0 0 .607.144.69.69 0 0 0 .477-.402l.124-.218a1.109 1.109 0 0 0-.208-1.337l-.054-.044a.692.692 0 0 0-1.085.257l-.119.218a1.11 1.11 0 0 0 .208 1.337Zm.159-1.287a.415.415 0 0 1 .286-.24.403.403 0 0 1 .363.091l.03.025a.652.652 0 0 1 .123.797l-.07.134a.418.418 0 0 1-.286.239.402.402 0 0 1-.362-.091l-.03-.025a.65.65 0 0 1-.123-.797l.069-.133Z" fill="#fff"/><path opacity=".4" d="m25.062 169.066.04.035a.55.55 0 0 0 .472.111.54.54 0 0 0 .374-.31l.095-.168a.86.86 0 0 0-.164-1.045l-.04-.034a.535.535 0 0 0-.692-.001.54.54 0 0 0-.15.199l-.093.173a.857.857 0 0 0 .158 1.04Zm0-1.114a.414.414 0 0 1 .287-.24.403.403 0 0 1 .362.091l.03.025a.656.656 0 0 1 .123.797l-.069.134a.412.412 0 0 1-.649.148l-.03-.024a.654.654 0 0 1-.123-.798l.07-.133Z" fill="#999"/><path d="m26.29 166.862.055.04a.694.694 0 0 0 .893-.054.703.703 0 0 0 .176-.268l.114-.228a1.093 1.093 0 0 0-.262-1.322l-.055-.039a.694.694 0 0 0-1.07.321l-.113.223a1.108 1.108 0 0 0 .262 1.327Zm.11-1.297a.425.425 0 0 1 .27-.254.41.41 0 0 1 .191-.012c.064.01.124.035.177.073h.035a.665.665 0 0 1 .153.792l-.064.134a.42.42 0 0 1-.644.193l-.03-.025a.646.646 0 0 1-.158-.787l.07-.114Z" fill="#fff"/><path opacity=".4" d="m26.429 166.679.04.035a.545.545 0 0 0 .697-.044.548.548 0 0 0 .14-.209l.088-.173a.86.86 0 0 0-.203-1.035l-.044-.029a.543.543 0 0 0-.837.247l-.084.178a.85.85 0 0 0 .203 1.03Zm-.03-1.114a.42.42 0 0 1 .639-.193h.034a.664.664 0 0 1 .154.792l-.064.134a.427.427 0 0 1-.274.257.418.418 0 0 1-.37-.064l-.03-.025a.646.646 0 0 1-.158-.787l.069-.114Z" fill="#999"/><path d="m27.384 164.253.055.049a.68.68 0 0 0 .601.158.677.677 0 0 0 .483-.39l.124-.213a1.116 1.116 0 0 0-.183-1.347l-.054-.045a.694.694 0 0 0-1.09.233l-.124.213a1.114 1.114 0 0 0 .188 1.342Zm.179-1.278a.419.419 0 0 1 .484-.229c.063.017.12.048.17.091h.03a.665.665 0 0 1 .108.802l-.074.129a.411.411 0 0 1-.649.138l-.03-.025a.661.661 0 0 1-.114-.802l.075-.104Z" fill="#fff"/><path opacity=".4" d="m27.533 164.089.04.035a.53.53 0 0 0 .468.123.536.536 0 0 0 .379-.301l.098-.169a.87.87 0 0 0-.148-1.049l-.04-.035a.53.53 0 0 0-.468-.123.537.537 0 0 0-.379.301l-.099.169a.87.87 0 0 0 .149 1.049Zm.03-1.114a.419.419 0 0 1 .484-.229c.063.017.12.048.17.091h.029a.664.664 0 0 1 .109.802l-.074.128a.416.416 0 0 1-.29.234.411.411 0 0 1-.359-.095l-.03-.025a.661.661 0 0 1-.114-.802l.075-.104Z" fill="#999"/><path d="m28.627 161.827.045.059a.687.687 0 0 0 .552.281.687.687 0 0 0 .552-.281l.154-.183a1.125 1.125 0 0 0 0-1.362l-.045-.059a.673.673 0 0 0-.543-.294.68.68 0 0 0-.556.269l-.159.183a1.14 1.14 0 0 0 0 1.387Zm.372-1.218a.395.395 0 0 1 .144-.124.397.397 0 0 1 .37 0 .395.395 0 0 1 .144.124l.03.029a.685.685 0 0 1 0 .817l-.094.109a.405.405 0 0 1-.659 0v-.034a.675.675 0 0 1 0-.813l.065-.108Z" fill="#fff"/><path opacity=".4" d="m28.796 161.688.034.044a.534.534 0 0 0 .862 0l.119-.143a.879.879 0 0 0 0-1.06l-.035-.044a.534.534 0 0 0-.861 0l-.12.143a.879.879 0 0 0 0 1.06Zm.203-1.09a.403.403 0 0 1 .329-.168.402.402 0 0 1 .33.168l.029.03a.682.682 0 0 1 0 .817l-.094.109a.405.405 0 0 1-.659 0v-.035a.67.67 0 0 1 0-.812l.065-.109Z" fill="#999"/><path d="m30.276 159.702.035.065a.694.694 0 0 0 1.084.247l.179-.153a1.107 1.107 0 0 0 .198-1.337l-.035-.065a.703.703 0 0 0-.48-.396.692.692 0 0 0-.604.149l-.179.153a1.107 1.107 0 0 0-.198 1.337Zm.525-1.129a.42.42 0 0 1 .533-.003c.05.041.09.093.116.152v.04a.653.653 0 0 1-.119.797l-.104.094a.409.409 0 0 1-.17.086.411.411 0 0 1-.479-.235v-.039a.665.665 0 0 1 .12-.803l.103-.089Z" fill="#fff"/><path opacity=".4" d="m30.46 159.608.03.05a.545.545 0 0 0 .374.31.542.542 0 0 0 .472-.117l.134-.119a.872.872 0 0 0 .158-1.045l-.03-.049a.537.537 0 0 0-.624-.308.537.537 0 0 0-.222.115l-.139.118a.88.88 0 0 0-.154 1.045Zm.341-1.035a.42.42 0 0 1 .533-.003c.05.041.09.093.116.152v.04a.653.653 0 0 1-.119.797l-.104.094a.408.408 0 0 1-.17.086.411.411 0 0 1-.479-.235v-.039a.665.665 0 0 1 .12-.802l.103-.09Z" fill="#999"/><path d="M32.168 157.895v.074a.746.746 0 0 0 .373.493.727.727 0 0 0 .617.037l.203-.099a1.06 1.06 0 0 0 .431-1.253v-.074a.745.745 0 0 0-.7-.59.735.735 0 0 0-.32.06l-.198.099a1.058 1.058 0 0 0-.406 1.253Zm.713-.956a.436.436 0 0 1 .38.013.431.431 0 0 1 .229.304v.044a.634.634 0 0 1-.258.748l-.118.059a.433.433 0 0 1-.192.035.445.445 0 0 1-.418-.351v-.045a.628.628 0 0 1 .258-.748l.119-.059Z" fill="#fff"/><path opacity=".4" d="M32.366 157.865v.054a.574.574 0 0 0 .792.416l.154-.079a.822.822 0 0 0 .337-.99v-.06a.575.575 0 0 0-.793-.411l-.153.075a.824.824 0 0 0-.337.995Zm.495-.916a.436.436 0 0 1 .38.013.433.433 0 0 1 .23.304v.044a.634.634 0 0 1-.258.748l-.12.06a.447.447 0 0 1-.608-.317v-.045a.627.627 0 0 1 .257-.748l.12-.059Z" fill="#999"/><path d="M34.46 156.701v.079a.809.809 0 0 0 .907.773l.213-.045a.987.987 0 0 0 .629-1.119v-.079a.807.807 0 0 0-.282-.588.815.815 0 0 0-.625-.184l-.213.044a.993.993 0 0 0-.628 1.119Zm.852-.757a.486.486 0 0 1 .37.114.5.5 0 0 1 .175.346v.05a.576.576 0 0 1-.371.668l-.13.025a.497.497 0 0 1-.539-.461v-.044a.58.58 0 0 1 .376-.669l.12-.029Z" fill="#fff"/><path opacity=".4" d="M34.659 156.711v.06a.639.639 0 0 0 .222.457.624.624 0 0 0 .486.147l.163-.035a.755.755 0 0 0 .495-.876v-.06a.63.63 0 0 0-.45-.581.646.646 0 0 0-.258-.023l-.163.04a.755.755 0 0 0-.495.871Zm.653-.767a.503.503 0 0 1 .37.114.493.493 0 0 1 .175.346v.05a.574.574 0 0 1-.371.668l-.13.025a.497.497 0 0 1-.539-.46v-.045a.578.578 0 0 1 .377-.668l.118-.03Z" fill="#999"/><path d="M36.758 156.013v.079a.81.81 0 0 0 .906.778l.213-.05a.987.987 0 0 0 .63-1.119v-.079a.807.807 0 0 0-.282-.588.815.815 0 0 0-.625-.184l-.213.044a.993.993 0 0 0-.629 1.119Zm.852-.757a.485.485 0 0 1 .37.114.499.499 0 0 1 .175.346v.05a.578.578 0 0 1-.377.668l-.123.025a.486.486 0 0 1-.37-.115.488.488 0 0 1-.175-.346v-.044a.58.58 0 0 1 .376-.669l.124-.029Z" fill="#fff"/><path opacity=".4" d="M36.956 156.023v.059a.634.634 0 0 0 .708.605l.164-.035a.759.759 0 0 0 .495-.877v-.059a.639.639 0 0 0-.222-.457.624.624 0 0 0-.486-.147l-.163.039a.756.756 0 0 0-.496.872Zm.654-.768a.504.504 0 0 1 .37.115.5.5 0 0 1 .175.346v.049a.58.58 0 0 1-.377.669l-.123.025a.486.486 0 0 1-.37-.115.499.499 0 0 1-.175-.346v-.044a.58.58 0 0 1 .376-.669l.124-.03Z" fill="#999"/><path d="M38.952 155.211v.079a.773.773 0 0 0 .99.659l.208-.07a.99.99 0 0 0 .535-1.188v-.079a.784.784 0 0 0-.34-.563.777.777 0 0 0-.65-.101l-.208.074a.993.993 0 0 0-.535 1.189Zm.792-.857a.464.464 0 0 1 .512.21c.034.057.056.12.063.186v.045a.598.598 0 0 1-.322.708l-.124.044a.448.448 0 0 1-.196.008.448.448 0 0 1-.316-.217.463.463 0 0 1-.063-.187v-.044a.602.602 0 0 1 .322-.708l.124-.045Z" fill="#fff"/><path opacity=".4" d="M39.15 155.196v.059a.596.596 0 0 0 .496.508c.084.013.17.009.252-.013l.163-.054a.792.792 0 0 0 .42-.926v-.059a.609.609 0 0 0-.752-.52l-.158.059a.775.775 0 0 0-.421.946Zm.594-.842a.462.462 0 0 1 .574.396v.045a.598.598 0 0 1-.321.708l-.124.044a.449.449 0 0 1-.197.008.447.447 0 0 1-.181-.074.463.463 0 0 1-.196-.33v-.044a.6.6 0 0 1 .321-.708l.124-.045Z" fill="#999"/><path d="M41.175 154.428v.07a.75.75 0 0 0 .99.559l.199-.094a1.043 1.043 0 0 0 .455-1.238l-.025-.074a.747.747 0 0 0-.364-.51.749.749 0 0 0-.626-.05l-.203.095a1.045 1.045 0 0 0-.426 1.242Zm.728-.94a.44.44 0 0 1 .527.152.447.447 0 0 1 .077.179v.045a.624.624 0 0 1-.267.743l-.124.054a.436.436 0 0 1-.524-.152.445.445 0 0 1-.075-.18v-.044a.623.623 0 0 1 .272-.743l.114-.054Z" fill="#fff"/><path opacity=".4" d="M41.373 154.399v.059a.577.577 0 0 0 .291.403.584.584 0 0 0 .497.033l.153-.074a.812.812 0 0 0 .357-.991v-.054a.583.583 0 0 0-.532-.475.58.58 0 0 0-.25.039l-.16.074a.816.816 0 0 0-.356.986Zm.53-.901a.44.44 0 0 1 .527.152.445.445 0 0 1 .077.179v.045a.623.623 0 0 1-.267.743l-.124.054a.434.434 0 0 1-.379-.023.445.445 0 0 1-.22-.309v-.044a.623.623 0 0 1 .272-.743l.114-.054Z" fill="#999"/><path d="m43.374 153.408.034.065a.695.695 0 0 0 .79.418.697.697 0 0 0 .29-.136l.183-.144a1.105 1.105 0 0 0 .228-1.332l-.035-.064a.694.694 0 0 0-1.08-.282l-.177.143a1.113 1.113 0 0 0-.233 1.332Zm.554-1.109a.414.414 0 0 1 .533.013.421.421 0 0 1 .111.156v.039a.664.664 0 0 1-.139.797l-.103.085a.418.418 0 0 1-.537-.013.426.426 0 0 1-.112-.156v-.039a.666.666 0 0 1 .139-.798l.108-.084Z" fill="#fff"/><path opacity=".4" d="m43.562 153.305.03.049a.544.544 0 0 0 .611.329.555.555 0 0 0 .225-.106l.144-.114a.86.86 0 0 0 .178-1.04l-.03-.049a.546.546 0 0 0-.363-.319.54.54 0 0 0-.473.101l-.144.109a.863.863 0 0 0-.178 1.04Zm.366-1.02a.416.416 0 0 1 .644.168v.039a.665.665 0 0 1-.139.798l-.103.084a.418.418 0 0 1-.537-.013.422.422 0 0 1-.112-.155v-.04a.664.664 0 0 1 .139-.797l.108-.084Z" fill="#999"/><path d="m45.518 152.012.044.054a.673.673 0 0 0 .568.252.686.686 0 0 0 .537-.311l.143-.198a1.12 1.12 0 0 0-.044-1.357l-.05-.054a.673.673 0 0 0-.567-.252.686.686 0 0 0-.537.311l-.144.193a1.123 1.123 0 0 0 .05 1.362Zm.307-1.243a.4.4 0 0 1 .658-.035l.03.03a.68.68 0 0 1 .03.812l-.09.119a.406.406 0 0 1-.32.183.412.412 0 0 1-.338-.148l-.03-.035a.67.67 0 0 1-.024-.812l.084-.114Z" fill="#fff"/><path opacity=".4" d="m45.676 151.868.04.04a.527.527 0 0 0 .678.128.522.522 0 0 0 .179-.173l.114-.153a.878.878 0 0 0-.035-1.06l-.035-.04a.533.533 0 0 0-.681-.128.536.536 0 0 0-.18.173l-.114.154a.883.883 0 0 0 .034 1.059Zm.149-1.099a.401.401 0 0 1 .658-.035l.03.03a.678.678 0 0 1 .03.812l-.09.119a.406.406 0 0 1-.32.183.418.418 0 0 1-.338-.148l-.03-.035a.67.67 0 0 1-.024-.812l.084-.114Z" fill="#999"/><path d="m47.217 149.942.054.04a.708.708 0 0 0 1.07-.332l.123-.203a1.09 1.09 0 0 0-.267-1.317l-.055-.04a.703.703 0 0 0-.618-.103.7.7 0 0 0-.452.435l-.113.223a1.097 1.097 0 0 0 .258 1.297Zm.099-1.292a.422.422 0 0 1 .654-.194l.034.025a.654.654 0 0 1 .158.788l-.064.133a.414.414 0 0 1-.27.257.426.426 0 0 1-.369-.059l-.035-.024a.652.652 0 0 1-.158-.788l.05-.138Z" fill="#fff"/><path opacity=".4" d="m47.35 149.779.045.03a.555.555 0 0 0 .48.079.55.55 0 0 0 .352-.337l.089-.178a.852.852 0 0 0-.213-1.03l-.04-.03a.56.56 0 0 0-.482-.079.555.555 0 0 0-.355.337l-.084.178a.856.856 0 0 0 .208 1.03Zm-.035-1.114a.427.427 0 0 1 .274-.273.423.423 0 0 1 .38.065l.035.025a.649.649 0 0 1 .158.787l-.064.134a.43.43 0 0 1-.27.257.426.426 0 0 1-.369-.059l-.035-.025a.646.646 0 0 1-.158-.787l.05-.124Z" fill="#999"/><path d="M48.316 147.516h.064a.78.78 0 0 0 .631-.133.8.8 0 0 0 .32-.56l.05-.258a.989.989 0 0 0-.56-1.173h-.065a.763.763 0 0 0-.63.131.782.782 0 0 0-.315.562l-.055.257a.991.991 0 0 0 .56 1.174Zm-.203-1.278a.492.492 0 0 1 .374-.408.492.492 0 0 1 .195-.008h.04a.589.589 0 0 1 .331.699l-.03.153a.503.503 0 0 1-.197.327.486.486 0 0 1-.372.089h-.034a.587.587 0 0 1-.337-.698l.03-.154Z" fill="#fff"/><path opacity=".4" d="M48.405 147.293h.05a.623.623 0 0 0 .494-.101.606.606 0 0 0 .248-.439l.04-.203a.777.777 0 0 0-.436-.911h-.05a.605.605 0 0 0-.743.54l-.039.203a.777.777 0 0 0 .436.911Zm-.292-1.055a.492.492 0 0 1 .374-.409.51.51 0 0 1 .195-.007h.04a.59.59 0 0 1 .332.698l-.03.154a.492.492 0 0 1-.375.409.51.51 0 0 1-.194.007h-.035a.59.59 0 0 1-.337-.698l.03-.154Z" fill="#999"/><path d="M21.774 151.022a4.69 4.69 0 0 0-.99 1.485.265.265 0 0 0 .048.302.272.272 0 0 0 .09.06.33.33 0 0 0 .357-.223c.138-.313.315-.607.525-.877l.06-.079v-.03l.093-.104.09-.099a.343.343 0 0 0 .069-.421.246.246 0 0 0-.188-.086.247.247 0 0 0-.189.086l.035-.014Z" fill="#fff"/><path opacity=".4" d="M21.18 152.784a.273.273 0 0 1-.116.065.27.27 0 0 1-.132.005.272.272 0 0 1-.149-.151.259.259 0 0 1 .01-.211 4.69 4.69 0 0 1 .99-1.485.275.275 0 0 1 .228-.085 4.694 4.694 0 0 0-.99 1.486.26.26 0 0 0 .046.298.278.278 0 0 0 .088.059l.025.019Z" fill="#999"/><path d="M20.145 153.28c-.48.334-.89.758-1.209 1.247a.293.293 0 0 0 .055.402.287.287 0 0 0 .376-.134c.19-.282.414-.539.669-.763l.074-.064.03-.025a.863.863 0 0 1 .109-.084.515.515 0 0 1 .104-.074.38.38 0 0 0 .148-.416.23.23 0 0 0-.156-.132.232.232 0 0 0-.2.043Z" fill="#fff"/><path opacity=".4" d="M19.248 154.923a.227.227 0 0 1-.123.036.227.227 0 0 1-.124-.036.287.287 0 0 1-.055-.396 4.48 4.48 0 0 1 1.209-1.252.233.233 0 0 1 .232-.03c-.48.333-.89.757-1.208 1.248a.29.29 0 0 0 .05.401l.02.029Z" fill="#999"/><path d="M18.535 155.538a4.34 4.34 0 0 0-.772 1.549.303.303 0 0 0 .173.372c.134.039.273-.074.317-.238a3.726 3.726 0 0 1 .44-1.005s.065-.109 0-.035l.075-.114.075-.104a.363.363 0 0 0 0-.44.226.226 0 0 0-.08-.066.228.228 0 0 0-.199 0 .227.227 0 0 0-.078.066l.05.015Z" fill="#fff"/><path opacity=".4" d="M18.189 157.37a.238.238 0 0 1-.233.074.303.303 0 0 1-.173-.371c.145-.562.4-1.089.752-1.55a.218.218 0 0 1 .209-.095c-.35.463-.605.99-.753 1.55a.314.314 0 0 0 .178.372l.02.02Z" fill="#999"/><path d="M17.55 158.36a4.49 4.49 0 0 0-.371 1.704.258.258 0 0 0 .033.238.265.265 0 0 0 .214.111.263.263 0 0 0 .248-.349c.014-.336.068-.669.163-.991l.03-.089s.04-.124 0-.04a.941.941 0 0 1 .05-.128l.044-.119a.363.363 0 0 0-.09-.431.228.228 0 0 0-.096-.036.227.227 0 0 0-.193.063.228.228 0 0 0-.057.087l.025-.02Z" fill="#fff"/><path opacity=".4" d="M17.644 160.242a.255.255 0 0 1-.208.139.298.298 0 0 1-.257-.312 4.495 4.495 0 0 1 .371-1.704.24.24 0 0 1 .183-.148 4.601 4.601 0 0 0-.366 1.703.293.293 0 0 0 .257.312l.02.01Z" fill="#999"/><path d="M16.96 161.287a4.627 4.627 0 0 0-.277 1.733.282.282 0 0 0 .273.287.302.302 0 0 0 .233-.337 3.907 3.907 0 0 1 .113-.99v-.094c0-.03.035-.129 0-.04l.045-.134c.011-.041.024-.083.04-.123a.354.354 0 0 0-.114-.421.239.239 0 0 0-.342.138l.03-.019Z" fill="#fff"/><path opacity=".4" d="M17.154 163.154a.245.245 0 0 1-.198.153.28.28 0 0 1-.272-.287 4.63 4.63 0 0 1 .277-1.733.255.255 0 0 1 .178-.163 4.62 4.62 0 0 0-.282 1.728.289.289 0 0 0 .272.292l.025.01Z" fill="#999"/><path d="M16.689 164.268a4.688 4.688 0 0 0 0 1.763.254.254 0 0 0 .205.221.274.274 0 0 0 .107-.003.333.333 0 0 0 .173-.387 4.09 4.09 0 0 1-.05-1.02v-.406a.34.34 0 0 0-.178-.386.241.241 0 0 0-.107-.003.254.254 0 0 0-.205.221h.055Z" fill="#fff"/><path opacity=".4" d="M17.169 166.05a.277.277 0 0 1-.169.198.24.24 0 0 1-.106.003.246.246 0 0 1-.205-.221 4.688 4.688 0 0 1 0-1.763.277.277 0 0 1 .143-.203 4.688 4.688 0 0 0 0 1.763.26.26 0 0 0 .206.22.254.254 0 0 0 .106-.002l.025.005Z" fill="#999"/><path d="M16.96 167.308c.032.582.176 1.153.427 1.679a.22.22 0 0 0 .06.085.23.23 0 0 0 .291.009.37.37 0 0 0 .08-.431 3.527 3.527 0 0 1-.298-.955.695.695 0 0 1 0-.1v-.039a1.289 1.289 0 0 1 0-.139v-.133c0-.164-.123-.317-.262-.303a.3.3 0 0 0-.243.327h-.054Z" fill="#fff"/><path opacity=".4" d="M17.852 168.828a.32.32 0 0 1-.114.253.225.225 0 0 1-.2.041.245.245 0 0 1-.091-.05.22.22 0 0 1-.06-.085 4.462 4.462 0 0 1-.426-1.679.327.327 0 0 1 .089-.247 4.45 4.45 0 0 0 .43 1.683.223.223 0 0 0 .152.129.234.234 0 0 0 .195-.04l.025-.005Z" fill="#999"/><path d="M17.867 170.244c.21.506.532.958.94 1.323a.234.234 0 0 0 .199.042.218.218 0 0 0 .092-.048.216.216 0 0 0 .062-.084.356.356 0 0 0-.075-.43 3.202 3.202 0 0 1-.584-.728l-.045-.075v-.034l-.06-.119a1.19 1.19 0 0 1-.053-.114.238.238 0 0 0-.137-.154.245.245 0 0 0-.205.006.353.353 0 0 0-.114.42l-.02-.005Z" fill="#fff"/><path opacity=".4" d="M19.18 171.176a.346.346 0 0 1 0 .287.231.231 0 0 1-.154.132.243.243 0 0 1-.104.002.235.235 0 0 1-.094-.045 3.651 3.651 0 0 1-.941-1.322.348.348 0 0 1 0-.272c.213.505.534.958.94 1.327a.236.236 0 0 0 .29-.011.234.234 0 0 0 .062-.083v-.015Z" fill="#999"/><path d="M19.843 172.091c.435.223.924.319 1.41.278a.309.309 0 0 0 .224-.347.278.278 0 0 0-.277-.277c-.28.021-.56-.013-.828-.099l-.079-.025h-.03a.719.719 0 0 1-.108-.045l-.104-.044a.235.235 0 0 0-.202-.001.236.236 0 0 0-.13.154.354.354 0 0 0 .124.416v-.01Z" fill="#fff"/><path opacity=".4" d="M21.343 171.78a.314.314 0 0 1 .134.242.309.309 0 0 1-.223.347 2.622 2.622 0 0 1-1.411-.277.287.287 0 0 1-.139-.208c.435.225.924.321 1.412.277a.307.307 0 0 0 .222-.347.104.104 0 0 0 .005-.034Z" fill="#999"/><path d="M22.284 171.898a2.851 2.851 0 0 0 1.307-.718.37.37 0 0 0 .035-.44.217.217 0 0 0-.071-.074.224.224 0 0 0-.286.029 2.615 2.615 0 0 1-.737.495l-.075.03h-.034l-.11.035-.103.029a.312.312 0 0 0-.213.357c0 .163.148.292.287.262v-.005Z" fill="#fff"/><path opacity=".4" d="M23.408 170.631a.225.225 0 0 1 .218.109.371.371 0 0 1-.035.441 2.86 2.86 0 0 1-1.307.718.218.218 0 0 1-.208-.085 2.827 2.827 0 0 0 1.307-.718.37.37 0 0 0 .035-.44l-.01-.025Z" fill="#999"/><path d="M24.428 170.388a3.51 3.51 0 0 0 .99-1.253.357.357 0 0 0-.099-.426.238.238 0 0 0-.199-.022.234.234 0 0 0-.142.141 3.2 3.2 0 0 1-.545.773l-.064.059s-.084.084-.025.03l-.094.084-.09.074a.36.36 0 0 0-.093.426.228.228 0 0 0 .056.087.226.226 0 0 0 .193.063.227.227 0 0 0 .097-.036h.015Z" fill="#fff"/><path opacity=".4" d="M25.102 168.705a.202.202 0 0 1 .232 0 .354.354 0 0 1 .1.425 3.5 3.5 0 0 1-.991 1.253.193.193 0 0 1-.109.033.193.193 0 0 1-.109-.033c.42-.337.76-.765.99-1.253a.354.354 0 0 0-.099-.425h-.014Z" fill="#999"/><path d="M25.978 168.031c.369-.421.644-.916.807-1.451a.343.343 0 0 0-.153-.401.25.25 0 0 0-.283.095.254.254 0 0 0-.04.098 3.439 3.439 0 0 1-.43.877l-.05.074-.024.035a.8.8 0 0 1-.08.099l-.074.094a.37.37 0 0 0-.034.44.22.22 0 0 0 .072.075.227.227 0 0 0 .289-.035Z" fill="#fff"/><path opacity=".4" d="M26.399 166.229a.211.211 0 0 1 .233-.05.34.34 0 0 1 .153.401 3.962 3.962 0 0 1-.807 1.451.214.214 0 0 1-.098.061.206.206 0 0 1-.115.003c.372-.419.65-.914.812-1.451a.335.335 0 0 0-.153-.396l-.025-.019Z" fill="#999"/><path d="M27.25 165.56c.35-.446.603-.961.744-1.51a.337.337 0 0 0-.179-.386c-.133-.05-.272.054-.312.218a3.581 3.581 0 0 1-.386.906l-.044.079s-.07.104 0 .03a.534.534 0 0 1-.075.109.7.7 0 0 1-.07.099.365.365 0 0 0 0 .44c.022.028.049.051.08.066a.216.216 0 0 0 .199 0 .216.216 0 0 0 .078-.066l-.034.015Z" fill="#fff"/><path opacity=".4" d="M27.587 163.728a.21.21 0 0 1 .104-.068.21.21 0 0 1 .124.004.338.338 0 0 1 .178.386 4.113 4.113 0 0 1-.742 1.51.214.214 0 0 1-.208.079c.35-.446.6-.96.738-1.51a.33.33 0 0 0-.174-.386l-.02-.015Z" fill="#999"/><path d="M28.404 163.05c.393-.395.692-.872.877-1.397a.34.34 0 0 0-.139-.406c-.128-.069-.272 0-.331.169a3.27 3.27 0 0 1-.466.846.36.36 0 0 1-.054.07s-.075.094-.025.03l-.08.099-.084.084a.378.378 0 0 0-.054.44.223.223 0 0 0 .162.121c.035.006.07.004.104-.005a.24.24 0 0 0 .09-.051Z" fill="#fff"/><path opacity=".4" d="M28.91 161.277a.206.206 0 0 1 .111-.05.219.219 0 0 1 .121.02.343.343 0 0 1 .139.406 3.74 3.74 0 0 1-.877 1.396.209.209 0 0 1-.213.05c.388-.396.687-.871.877-1.392a.357.357 0 0 0-.139-.411l-.02-.019Z" fill="#999"/><path d="M29.846 160.88a3.39 3.39 0 0 0 1.06-1.178.366.366 0 0 0-.075-.431.222.222 0 0 0-.095-.041.226.226 0 0 0-.195.052.234.234 0 0 0-.062.083c-.155.271-.35.516-.579.728l-.064.06-.03.024-.094.08-.094.064a.358.358 0 0 0-.114.421.236.236 0 0 0 .341.138Z" fill="#fff"/><path opacity=".4" d="M30.593 159.247a.219.219 0 0 1 .238 0 .363.363 0 0 1 .074.431c-.255.47-.618.874-1.06 1.178a.2.2 0 0 1-.11.033.2.2 0 0 1-.112-.033c.44-.303.802-.705 1.06-1.173a.374.374 0 0 0-.075-.436h-.015Z" fill="#999"/><path d="M31.588 158.925c.481-.189.905-.498 1.233-.897a.385.385 0 0 0 0-.445.225.225 0 0 0-.078-.066.228.228 0 0 0-.2 0 .227.227 0 0 0-.078.066 2.726 2.726 0 0 1-.688.574l-.07.045s-.099.049-.034 0l-.104.054-.104.04a.343.343 0 0 0-.179.386c.045.159.179.267.312.218l-.01.025Z" fill="#fff"/><path opacity=".4" d="M32.584 157.503a.224.224 0 0 1 .227.08.385.385 0 0 1 0 .445 3.032 3.032 0 0 1-1.233.896.2.2 0 0 1-.212-.049 2.97 2.97 0 0 0 1.228-.896.382.382 0 0 0 0-.446l-.01-.03Z" fill="#999"/><path d="M33.609 157.598c.494-.034.97-.205 1.371-.495a.365.365 0 0 0 .085-.431.225.225 0 0 0-.06-.085.243.243 0 0 0-.092-.05.243.243 0 0 0-.104-.005.226.226 0 0 0-.096.041c-.236.161-.5.278-.777.346h-.08s-.108.025-.034 0h-.224a.292.292 0 0 0-.247.317c0 .169.114.317.258.307v.055Z" fill="#fff"/><path opacity=".4" d="M34.852 156.528a.25.25 0 0 1 .203.143.369.369 0 0 1-.084.431 2.637 2.637 0 0 1-1.372.495.211.211 0 0 1-.115-.028.227.227 0 0 1-.083-.085c.494-.035.969-.207 1.371-.496a.364.364 0 0 0 .085-.43l-.005-.03Z" fill="#999"/><path d="M35.956 156.776a2.695 2.695 0 0 0 1.372-.495.367.367 0 0 0 .024-.517.232.232 0 0 0-.292-.018 2.294 2.294 0 0 1-.777.347h-.332a.295.295 0 0 0-.252.316c0 .169.118.317.257.312v.055Z" fill="#fff"/><path opacity=".4" d="M37.209 155.701a.246.246 0 0 1 .203.149.364.364 0 0 1-.084.431 2.695 2.695 0 0 1-1.372.495.243.243 0 0 1-.198-.119c.494-.034.97-.206 1.372-.495a.361.361 0 0 0 .08-.431v-.03Z" fill="#999"/><path d="M38.165 155.968c.494-.035.969-.206 1.371-.495a.357.357 0 0 0 .084-.431.233.233 0 0 0-.351-.104 2.294 2.294 0 0 1-.778.347h-.332a.3.3 0 0 0-.252.322c0 .163.119.312.258.307v.054Z" fill="#fff"/><path opacity=".4" d="M39.417 154.894a.227.227 0 0 1 .203.144.364.364 0 0 1-.084.43 2.677 2.677 0 0 1-1.372.496.237.237 0 0 1-.198-.114 2.715 2.715 0 0 0 1.372-.495.359.359 0 0 0 .08-.431.08.08 0 0 0 0-.03Z" fill="#999"/><path d="M40.383 155.157a2.787 2.787 0 0 0 1.352-.58.371.371 0 0 0 .064-.436.228.228 0 0 0-.158-.128.236.236 0 0 0-.199.044 2.324 2.324 0 0 1-.762.396l-.08.025h-.029l-.114.025h-.109a.309.309 0 0 0-.237.337c0 .163.128.307.272.292v.025Z" fill="#fff"/><path opacity=".4" d="M41.586 154.007a.243.243 0 0 1 .213.134.37.37 0 0 1-.064.436c-.39.311-.858.511-1.352.579a.23.23 0 0 1-.203-.104 2.744 2.744 0 0 0 1.352-.579.37.37 0 0 0 .064-.436l-.01-.03Z" fill="#999"/><path d="M42.626 154.196a2.83 2.83 0 0 0 1.312-.703.376.376 0 0 0 .035-.441.226.226 0 0 0-.167-.113.225.225 0 0 0-.19.068 2.515 2.515 0 0 1-.737.466l-.075.029s-.104.035-.034 0l-.11.035h-.103a.319.319 0 0 0-.218.357c.025.163.148.292.287.262v.04Z" fill="#fff"/><path opacity=".4" d="M43.76 152.938a.23.23 0 0 1 .213.114.369.369 0 0 1-.035.44c-.366.348-.82.591-1.312.704a.203.203 0 0 1-.208-.08c.49-.113.942-.356 1.307-.703a.37.37 0 0 0 .04-.44l-.005-.035Z" fill="#999"/><path d="M44.765 152.913a3.105 3.105 0 0 0 1.204-.95.372.372 0 0 0 0-.441.222.222 0 0 0-.185-.077.226.226 0 0 0-.098.03.23.23 0 0 0-.074.072c-.19.234-.415.436-.669.599l-.074.044s-.094.055-.03 0l-.103.055-.1.049a.33.33 0 0 0-.168.392c.045.158.178.262.317.208l-.02.019Z" fill="#fff"/><path opacity=".4" d="M45.721 151.428a.219.219 0 0 1 .124 0c.04.013.077.037.104.069a.372.372 0 0 1 0 .441 3.105 3.105 0 0 1-1.203.95.207.207 0 0 1-.218-.044 3.106 3.106 0 0 0 1.208-.946.371.371 0 0 0 0-.441l-.015-.029Z" fill="#999"/><path d="M46.706 151.007c.424-.349.762-.789.99-1.288a.359.359 0 0 0-.108-.421.231.231 0 0 0-.289.04.23.23 0 0 0-.053.089 3.205 3.205 0 0 1-.53.792l-.06.065-.024.025-.089.089-.09.074a.362.362 0 0 0-.083.431.226.226 0 0 0 .147.137.213.213 0 0 0 .104.007.237.237 0 0 0 .095-.04h-.01Z" fill="#fff"/><path opacity=".4" d="M47.345 149.298a.21.21 0 0 1 .233 0 .363.363 0 0 1 .109.421 3.623 3.623 0 0 1-.99 1.288.195.195 0 0 1-.219.024 3.61 3.61 0 0 0 .99-1.287.367.367 0 0 0-.108-.426l-.015-.02Z" fill="#999"/><path d="M48.147 148.734a4.36 4.36 0 0 0 .57-1.619.313.313 0 0 0-.218-.352c-.139-.025-.263.099-.287.267a3.895 3.895 0 0 1-.283.961c0 .03 0 .059-.034.084-.035.025-.06.114 0 .04l-.06.119c-.02.037-.04.073-.064.109a.37.37 0 0 0 .04.44.223.223 0 0 0 .19.063.237.237 0 0 0 .096-.037.224.224 0 0 0 .07-.075h-.02Z" fill="#fff"/><path opacity=".4" d="M48.281 146.862a.214.214 0 0 1 .094-.082.211.211 0 0 1 .124-.017.312.312 0 0 1 .218.351 4.358 4.358 0 0 1-.57 1.62.231.231 0 0 1-.198.114 4.263 4.263 0 0 0 .565-1.62.306.306 0 0 0-.213-.351l-.02-.015Z" fill="#999"/><path d="M48.87 145.981a4.365 4.365 0 0 0 .57-1.62.307.307 0 0 0-.218-.351.275.275 0 0 0-.199.071.273.273 0 0 0-.088.191c-.044.342-.14.676-.282.991 0 0 0 .054-.035.084-.035.029-.055.114 0 .034l-.06.119a.761.761 0 0 1-.064.109.377.377 0 0 0 .04.441.216.216 0 0 0 .086.056c.033.012.068.016.103.012a.225.225 0 0 0 .097-.036.225.225 0 0 0 .07-.077l-.02-.024Z" fill="#fff"/><path opacity=".4" d="M49.004 144.129a.224.224 0 0 1 .095-.082c.038-.017.08-.023.123-.017a.307.307 0 0 1 .218.351 4.262 4.262 0 0 1-.57 1.619.226.226 0 0 1-.198.114 4.29 4.29 0 0 0 .565-1.619.316.316 0 0 0-.213-.357l-.02-.009Z" fill="#999"/><path d="M114.744 90.476c-.302 5.843-4.352 11.072-21.293 26.928-2.342 2.193-20.346-7.255-19.247-10.508 1.327-3.922 14.677-16.683 15.682-17.406 8.493-6.09 25.061-2.98 24.858.986Z" fill="#FFD3C9"/><path d="M75.848 104.336s-5.873 7.789-7.69 12.835c-2.442 6.754-1.763 13.593-1.303 16.44.951 5.942 7.369 19.664 11.642 18.5 3.867-1.045-3.397-14.737-3.397-14.737s5.105 15.183 9.513 13.063c4.407-2.119-4.918-17.529-4.918-17.529s5.596 15.474 9.815 12.568c3.184-2.199-4.487-16.629-4.487-16.629s4.903 13.271 8.275 11.152c3.729-2.342-2.516-16.108-2.516-16.108 7.67-6.834 8.528-13.222 8.597-17.827.04-1.129-23.531-1.728-23.531-1.728Z" fill="#FFD3C9"/><path d="M72.996 132.239c.534 1.803 1.064 3.635 1.758 5.388a62.267 62.267 0 0 0 2.302 5.155c2.095 4.12 4.05 6.368 3.962 6.214-2.501-3.595-5.081-9.824-5.774-11.577-.694-1.753-1.486-3.466-2.17-5.209-.029-.045-.093-.015-.078.029ZM79.27 129.64c.787 2.273 1.485 4.56 2.362 6.803.876 2.244 1.911 4.269 2.941 6.438.08.168.144.069.07-.099-.942-2.204-1.645-4.313-2.56-6.527-.917-2.213-1.927-4.392-2.759-6.63-.015-.065-.064-.04-.054.015ZM84.256 126.401c1.015 3.536 2.689 6.883 4.407 10.127.084.158.154 0 .074-.144-1.53-3.337-2.753-5.942-4.362-10.017-.025-.065-.144-.04-.12.034ZM102.588 85.885a24.008 24.008 0 0 0-10.85 2.263c-3.852 1.847-12.122 11.102-14.207 13.865-.034.05 0 .129.055.085 3.258-3.155 9.69-10.592 14.662-13.37 1.897-1.07 6.438-2.476 10.345-2.744a.05.05 0 0 0 .034-.016.052.052 0 0 0 .013-.035.05.05 0 0 0-.017-.035.047.047 0 0 0-.035-.013Z" fill="#000"/><path d="M41.908 101.34c-1.253 11.463-1.139 34.455 4.536 41.907 5.447 7.141 14.123-12.033 14.29-13.216 1.13-8.027-2.51-18.817-9.056-31.925-5.982-11.948-8.72-6.338-9.77 3.234Z" fill="#FFD3C9"/><path d="m39.551 128.649 21.169-11.458s-4.605-14.623-9.68-22.521c-3.878-6.026-7.547-4.303-8.622.327-3.57 15.454-2.867 33.652-2.867 33.652Z" fill="#A9C297"/><path d="m46.924 100.226 1.12 2.218-2.55-.757-.56 3.218-2.03-3.293-1.788.268c.089-.57.178-1.134.277-1.704l.193-.207-.128-.164c.104-.584.208-1.174.321-1.758l.798.149 1.485-2.902 1.233 2.51 3.095-.465-1.466 2.887Zm6.145 14.444 2.164.446-.876-1.946 1.416-1.273-2.179-.445-.178-1.917-1.163 1.595-1.758-.887.94 2.065-1.782 1.937 2.213-.223-.024 1.802 1.227-1.154Z" fill="#fff"/><path d="M58.14 114.165c-3.387 1.53-12.444 5.942-17.955 9.597-.035.025.034.158.07.143 5.04-2.342 14.746-7.719 17.984-9.542.065-.034-.034-.228-.099-.198ZM60.977 117.111c-.584-1.871-2.129-5.942-2.852-7.774a26.879 26.879 0 0 0-.322-1.649 11.102 11.102 0 0 0-.685-2.072.024.024 0 0 0-.018-.008.024.024 0 0 0-.017.008.023.023 0 0 0-.008.017c.085.337.203.669.293.991.089.321.173.678.262 1.015.09.336.173.698.248 1.049a88.151 88.151 0 0 0-2.313-5.288.044.044 0 0 0-.023-.015.043.043 0 0 0-.027.001.042.042 0 0 0-.022.017.045.045 0 0 0-.007.027c.599 1.98 1.282 3.902 2.03 5.813.748 1.911 2.199 6.012 3.05 7.824-.287.178-.569.351-.841.555a.078.078 0 0 0-.022.097.083.083 0 0 0 .038.037.08.08 0 0 0 .053.004c.366-.129.713-.287 1.07-.441a.19.19 0 0 0 .113-.208Z" fill="#000"/><path d="M39.11 129.417c-.074-.525.164-13.246.426-15.494-.05-.56-.104-1.119-.119-1.679a10.85 10.85 0 0 1 .114-2.159.03.03 0 0 1 .002-.028.039.039 0 0 1 .011-.01.034.034 0 0 1 .015-.003c.004 0 .01.001.014.003a.038.038 0 0 1 .01.01.029.029 0 0 1 .005.014c0 .005 0 .01-.002.014 0 .347.129 2.323.153 2.679.097-1.878.307-3.748.63-5.6 0-.05.088-.05.083 0-.445 6.175-.91 19.866-.876 21.451.292-.129 1.98-1.09 2.327-1.228.08-.035.05.178-.025.233-.564.411-2.753 1.906-2.768 1.797Z" fill="#000"/><path d="M47.152 143.728c-2.397-6.106 4.09-24.551 15.876-44.601 1.822-3.105 22.283 5.447 21.01 9.081-1.624 4.566-12.493 24.71-13.186 25.908-5.849 10.147-22.07 13.756-23.7 9.612Z" fill="#FFD3C9"/><path d="M69.123 89.456c-1.025 1.119-1.624.589-1.42-2.105.202-2.694 3.277-13.182-.471-13.944-3.749-.763-7.874 14.093-7.874 18.599s1.605 11.8 1.605 11.8c1.391-2.729 5.377-9.032 8.16-14.35Z" fill="#FFD3C9"/><path d="M82.072 111.729c4.69-8.057 8.592-17.366 7.621-27.052a4.808 4.808 0 0 0-1.248-2.897c-.356-4.347-2.52-5.486-2.52-5.486-1.57-3.962-3.962-4.808-3.962-4.808s-.718-3.467-3.169-3.13c-2.377.312-3.159 6.195-4.843 10.617-3.857 10.136-11.602 22.025-13.003 24.838l21.124 7.918Z" fill="#FFD3C9"/><path d="M77.962 91.016c1.075-3.006 2.209-5.943 2.872-9.067.728-3.437.852-6.868 1.06-10.36a.084.084 0 1 1 .168 0c.62 6.379-.99 13.806-3.961 19.481-.074.114-.193.074-.139-.054ZM83.741 94.21c.886-2.972 2.407-8.235 2.08-17.916 0-.03.054-.04.06 0A33.088 33.088 0 0 1 83.9 94.259c-.085.173-.213.148-.159-.05ZM86.88 95.878c1.313-5.125 1.486-8.527 1.54-14.078 0-.03.055-.04.06 0 .6 6.319.104 8.676-1.431 14.152-.05.184-.218.13-.169-.074ZM47.677 133.527a114.806 114.806 0 0 1 12.875-30.518v.158a67.49 67.49 0 0 1-1.402-9.408c-.292-3.184.495-6.348 1.313-9.409.42-1.53.9-3.04 1.485-4.525.901-2.194 1.783-4.571 3.65-6.16a2.085 2.085 0 0 1 3.297.767 7.82 7.82 0 0 1 .496 3.595 47.154 47.154 0 0 1-1.12 7.046c-.183.917-.861 4.348.105 4.715a5.48 5.48 0 0 0 .99-1.323 69.848 69.848 0 0 0 4.18-8.457c1.173-2.476 2.554-12.925 6.357-11.553-3.798-1.312-4.996 9.17-6.125 11.637a68.246 68.246 0 0 1-4.12 8.552 4.6 4.6 0 0 1-1.144 1.485c-1.678.233-.842-4.189-.653-5.13.554-3.01 1.386-6.24.93-9.294-.193-1.555-1.534-2.808-2.97-1.664-1.758 1.515-2.615 3.847-3.467 5.942a56.853 56.853 0 0 0-1.45 4.481c-.803 3.036-1.62 6.11-1.333 9.245a67.595 67.595 0 0 0 1.367 9.33v.084l-.045.074a120.337 120.337 0 0 0-13.24 30.295l.024.035Z" fill="#000"/><path d="M41.903 127.396c.495 4.318 2.13 14.856 6.12 17.02 2.828 1.248 6.14.653 9.023-.154a24.266 24.266 0 0 0 11.552-7.353c2.867-3.665 4.952-7.874 7.16-11.959 2.873-5.521 5.527-11.156 8.107-16.836a43.473 43.473 0 0 0 5.808-17.693c.19-2.08.19-4.174 0-6.254.227 2.08.264 4.177.11 6.264a42.62 42.62 0 0 1-5.582 17.827 327.385 327.385 0 0 1-8.007 16.925c-2.193 4.125-4.313 8.359-7.224 12.043a24.712 24.712 0 0 1-11.79 7.427c-2.972.798-6.349 1.367-9.285.035-4.165-2.303-5.541-12.83-5.977-17.302l-.015.01Z" fill="#000"/></svg>