<svg width="468" height="355" fill="none" xmlns="http://www.w3.org/2000/svg"><path d="m0 340.174 58.497-.256 58.508-.096L234 339.641l116.995.181 58.508.085 58.497.267-58.497.256-58.508.096-116.995.182-116.995-.182-58.508-.096L0 340.174Z" fill="#000"/><path d="M254.103 340.174h-82.717a33461.332 33461.332 0 0 1-7.301-79.69c-.067-.762-.143-1.523-.21-2.275-2.341-25.92-3.931-43.834-3.931-43.834h78.054a1.89 1.89 0 0 1 0 .238c.58 4.245 8.528 66.193 16.105 125.561Z" fill="#999"/><path d="M183.922 340.175h-1.323c-3.608-30.365-6.54-60.787-9.205-91.247a814.941 814.941 0 0 0-.476-5.473 6001.07 6001.07 0 0 1-1.58-18.8c0-.19.276-.19.304 0 .584 5.553 1.149 11.093 1.695 16.62a.097.097 0 0 1 0 .048c.19 2.018.4 4.026.599 6.054 2.123 21.017 4.227 42.015 6.53 63.004a2722.17 2722.17 0 0 0 3.456 29.794Z" fill="#000"/><path d="m226.727 214.375-10.47 69.22-.371 2.341-.952 6.235-.076.438-.248 1.675-6.968 45.89h-44.433c-4.559-25.7-9.224-52.048-13.088-73.913-.086-.495-.171-.952-.257-1.447l-8.929-50.449 85.792.01Z" fill="#000"/><path d="M238.074 214.308s0 .096-.048.305c-.619 4.036-7.339 47.317-18.504 75.721a8.036 8.036 0 0 1-.267.705s-1.57.485-4.407 1.608c-1.104.438-2.418.952-3.903 1.619l-1.618.723a174.535 174.535 0 0 0-11.774 5.844c-.438.229-.867.467-1.295.705v.514c-.228 2.979-1.39 18.266-2.856 38.075h-77.92c5.997-61.805 12.584-125.866 12.584-125.866l110.008.047Z" fill="#999"/><path d="M136.785 226.349c-2.218 28.994-4.34 57.988-6.663 86.944-.723 8.96-1.466 17.921-2.227 26.881h-1.143a13416.58 13416.58 0 0 0 9.395-113.806c.019-.419.667-.419.638-.019ZM223.196 289.001a171.35 171.35 0 0 0-26.938 12.546.303.303 0 0 0-.183.287.312.312 0 0 0 .196.28.312.312 0 0 0 .235-.006c9.071-3.902 18.323-7.615 27.175-12.022a.593.593 0 0 0-.03-1.098.598.598 0 0 0-.455.013ZM226.08 226.73c0-.314-.581-.381-.571 0 .067 10.775-.619 20.246-1.523 30.317-.428 4.674-4.188 30.507-12.289 28.623-1.361-.314-2.056-1.647-2.265-3.693-.257-2.456.666-5.474 1.075-7.92a181.548 181.548 0 0 0 2.085-16.296 148.41 148.41 0 0 0-.324-30.565.265.265 0 0 0-.523 0c0 14.117-.362 28.204-2.475 42.187-1.009 6.72-4.398 16.839 2.637 17.867 7.034 1.028 11.784-15.887 12.66-20.522 2.436-12.946 2.532-26.91 1.513-39.998Z" fill="#000"/><path d="M211.907 286.326a44.403 44.403 0 0 0-1.818 5.359 12.112 12.112 0 0 0-.762 4.398c.012.06.041.115.084.158a.31.31 0 0 0 .335.074.312.312 0 0 0 .143-.108 15.585 15.585 0 0 0 1.904-4.284c.618-1.656 1.266-3.303 1.837-4.978a.948.948 0 0 0-.628-.959.95.95 0 0 0-1.095.34ZM175.231 235.183c.015-1.126-.1-2.251-.343-3.351a.172.172 0 0 0-.166-.131.174.174 0 0 0-.167.131 13.355 13.355 0 0 0-.371 2.856c-.114 1.114-.267 2.218-.381 3.332a50.267 50.267 0 0 1-1.19 6.748 23.99 23.99 0 0 1-6.187 11.128 32.515 32.515 0 0 1-10.47 6.891c-4.35 1.847-8.938 2.532-13.431 3.855-.191.048-.134.324 0 .333a39.019 39.019 0 0 0 14.554-2.855 31.298 31.298 0 0 0 10.918-6.968 24.256 24.256 0 0 0 6.358-11.422c.52-2.221.814-4.488.876-6.768.075-1.259.075-2.52 0-3.779Z" fill="#000"/><path d="M204.615 114.581c6.273 14.049 51.935 79.138 88.629 87.001 6.187 1.323 25.387 7.396 36.495-8.472 15.011-21.427 24.587-62.462 22.483-84.345-1.742-18.086-51.192-4.522-54.104 5.777-2.199 7.796-6.111 33.373-7.71 32.964-10.395-2.684-41.359-29.508-72.219-46.023-14.307-7.71-18.4 2.237-13.574 13.098Z" fill="#FFD3C9"/><path d="M287.371 158.623c.215-1.6.51-3.189.886-4.759a50.904 50.904 0 0 1 3.179-8.805c.057-.123.285-.047.238.095-.952 2.923-1.647 5.959-2.427 8.939a142.82 142.82 0 0 0-1.076 4.454c-.333 1.495-.752 3.046-1.009 4.588 0 .086-.171.076-.162 0 .105-1.532.162-3.017.371-4.512Z" fill="#000"/><path d="M352.451 112.106s-.819-23.701-9.319-39.465c-5.873-10.899-21.303-33.182-58.226-34.61-8.757-.333-21.484 5.398-7.377 11.137 10.023 4.084 17.609 3.646 23.007 7.082 0 0-15.316 9.214-15.316 18 0 3.931-.581 12.441.809 20.76 0 0 2.732 2.39 5.159 2.285 0 0 .267 8.224 9.519 16.715l51.744-1.904Z" fill="#FFD3C9"/><path d="M239.711 62.656c-4.493 3.027-6.949 10.175-3.331 16.972 3.617 6.796 12.774 5.93 17.133 2.95 4.36-2.979 8.044-10.413 4.322-16.752-3.151-5.502-10.214-8.472-18.124-3.17Z" fill="#FF6868"/><path opacity=".1" d="M239.711 62.656c-4.493 3.027-6.949 10.175-3.331 16.972 3.617 6.796 12.774 5.93 17.133 2.95 4.36-2.979 8.044-10.413 4.322-16.752-3.151-5.502-10.214-8.472-18.124-3.17Z" fill="#000"/><path d="M241.082 64.436c-3.665 2.465-5.664 8.31-2.713 13.859 2.951 5.55 10.47 4.845 14.011 2.408 3.541-2.437 6.578-8.5 3.541-13.688-2.627-4.493-8.395-6.91-14.839-2.58Z" fill="#FF6868"/><path d="M248.754 67.52c.323.257 1.485-.714.847-1.171-.638-.457-1.266.847-.847 1.17ZM251.467 73.888c-.162.371 1.066 1.256 1.351.523.286-.733-1.133-1.018-1.351-.523ZM254.189 71.413c.066.4 1.58.466 1.418-.305-.162-.77-1.504-.228-1.418.305ZM248.678 64.73c.399-.066.475-1.57-.296-1.417-.771.152-.237 1.504.296 1.418ZM241.434 70.005c.105-.39-1.247-1.076-1.418-.305-.172.771 1.275.828 1.418.305ZM244.67 78.41c-.333-.238-1.447.78-.79 1.209.657.428 1.228-.886.79-1.21ZM247.326 77.905c-.4-.067-.952 1.342-.171 1.437.78.095.704-1.352.171-1.437ZM244.537 71.946c.286-.285-.552-1.551-1.075-.952-.524.6.694 1.333 1.075.952Z" fill="#fff"/><path d="M236.389 72.993s7.377-.818 8.348.676c.971 1.495-4.274 8.063-5.14 7.482-.867-.58-4.008-5.664-3.208-8.158Z" fill="#FF6868"/><path opacity=".1" d="M236.389 72.993s7.377-.818 8.348.676c.971 1.495-4.274 8.063-5.14 7.482-.867-.58-4.008-5.664-3.208-8.158Z" fill="#000"/><path d="M249.001 82.778s-2.18-7.1-.885-8.328c1.294-1.228 8.709 2.693 8.31 3.655-.4.961-4.826 4.988-7.425 4.673Z" fill="#FF6868"/><path opacity=".1" d="M249.001 82.778s-2.18-7.1-.885-8.328c1.294-1.228 8.709 2.693 8.31 3.655-.4.961-4.826 4.988-7.425 4.673Z" fill="#000"/><path d="M258.396 69.7s-7.215 1.751-8.367.39c-1.151-1.36 3.208-8.567 4.141-8.072.933.495 4.693 5.103 4.226 7.682Z" fill="#FF6868"/><path opacity=".1" d="M258.396 69.7s-7.215 1.751-8.367.39c-1.151-1.36 3.208-8.567 4.141-8.072.933.495 4.693 5.103 4.226 7.682Z" fill="#000"/><path d="M246.165 61.067s1.761 7.215.399 8.367c-1.361 1.151-8.566-3.208-8.081-4.14.485-.934 5.112-4.703 7.682-4.227Z" fill="#FF6868"/><path opacity=".1" d="M246.165 61.067s1.761 7.215.399 8.367c-1.361 1.151-8.566-3.208-8.081-4.14.485-.934 5.112-4.703 7.682-4.227Z" fill="#000"/><path d="M261.328 73.165c-3.474 1.323-20.103 4.635-20.103 4.635l.323-.79 17.829-5.55a.543.543 0 0 0-.15-1.046.531.531 0 0 0-.212.028l-16.667 4.57.523-1.267 18.238-5.958a.557.557 0 0 0 .451-.476.564.564 0 0 0-.134-.433.559.559 0 0 0-.414-.187.548.548 0 0 0-.226.049l-17.067 4.968.504-1.209 18.657-6.415a.527.527 0 0 0 .328-.265.535.535 0 0 0 .033-.42.515.515 0 0 0-.261-.322.527.527 0 0 0-.414-.03l-17.515 5.434.428-1.027s17.553-6.778 19.628-7.178c3.741-.733 1.485 10.89-3.779 12.889Z" fill="#666"/><path d="M265.193 63.55c2.436-1.113 12.44-5.52 13.621-5.977 1.37-.533 49.849-19.39 51.782-19.447 1.932-.057 1.056 6.578-.057 7.977-1.114 1.4-47.042 14.05-51.668 15.877-4.845 1.904-13.954 5.712-13.954 5.712l.276-4.141Z" fill="#666"/><path d="M340.476 71.413c-5.264-3.807-16.572-11.622-28.052-14.82-12.745-3.55-38.255-6.95-40.778 2.484-1.856 6.92 7.777 9.08 7.777 9.08s-10.842.81-11.146 7.425c-.276 6.035 7.262 7.254 7.262 7.254s-6.491 1.627-5.635 7.49c1.028 7.045 14.459 2.476 21.665 8.72 1.618 1.399 48.907-27.633 48.907-27.633Z" fill="#FFD3C9"/><path d="M310.92 70.69c-5.53-2.75-19.722-5.768-31.307-2.75-.266.066-.352.304-.104.294 10.535-.429 21.083.428 31.411 2.551.039.01.067-.066 0-.095ZM306.97 83.454c-5.026-1.904-19.789-4.34-31.411-.857-.267.077-.334.315-.086.296a139.23 139.23 0 0 1 31.478.675c.057.02.076-.095.019-.114Z" fill="#000"/><path d="m236.094 161.803 48.355-25.805s-47.927-29.203-70.039-37.599c-23.045-8.786-31.764-2.323-11.013 22.902 20.437 24.806 32.697 40.502 32.697 40.502Z" fill="#FFB445"/><path d="M280.48 133.619c-.925.245-1.829.563-2.704.951a15.24 15.24 0 0 0-3.607 2.199 15.076 15.076 0 0 0 4.045-1.199 15.34 15.34 0 0 0 2.856-1.609 3.588 3.588 0 0 1-.59-.342Zm-50.944 7.205a14.579 14.579 0 0 0-3.599 2.199 14.978 14.978 0 0 0 4.036-1.209 14.566 14.566 0 0 0 3.608-2.189c-1.4.199-2.763.603-4.045 1.199Zm22.902 4.341a14.799 14.799 0 0 0-2.19-3.598 14.819 14.819 0 0 0 1.2 4.045 14.473 14.473 0 0 0 2.189 3.589 14.555 14.555 0 0 0-1.199-4.036Zm-41.283-20.827a15.11 15.11 0 0 0-2.199-3.589c.21 1.396.617 2.755 1.209 4.036a14.335 14.335 0 0 0 2.189 3.598 14.842 14.842 0 0 0-1.199-4.045Zm-11.423-19.837a14.624 14.624 0 0 0-4.093-.952 14.894 14.894 0 0 0 3.703 2.008c1.313.507 2.691.828 4.093.952a14.877 14.877 0 0 0-3.703-2.008Zm33.249 14.278a14.729 14.729 0 0 0-4.102-1 14.82 14.82 0 0 0 3.712 2.018c1.313.507 2.691.828 4.093.952a14.774 14.774 0 0 0-3.636-2.018l-.067.048Zm-11.755-17.524a14.191 14.191 0 0 0-.952 3.95 13.762 13.762 0 0 0 1.904-3.503l-.952-.447Zm32.954 24.977a15.007 15.007 0 0 0-.952 4.093 16.267 16.267 0 0 0 2.998-7.796 14.888 14.888 0 0 0-2.046 3.674v.029Z" fill="#fff"/><path d="M234.952 151.703c1.075-.742 2.275-1.342 3.407-1.989 1.133-.648 2.342-1.323 3.513-1.99a367.247 367.247 0 0 1 7.177-3.94c4.759-2.58 9.585-5.188 14.43-7.682a158.88 158.88 0 0 1 4.017-2.028c1.352-.656 2.856-1.275 4.303-1.96a.074.074 0 0 1 .046.01.088.088 0 0 1 .031.035.076.076 0 0 1 .004.047.082.082 0 0 1-.024.041c-1.162.676-2.285 1.456-3.446 2.132-1.161.676-2.408 1.39-3.617 2.056a407.243 407.243 0 0 1-7.206 3.874c-4.759 2.513-9.519 5.045-14.278 7.453l-4.074 2.037c-1.399.705-2.789 1.495-4.255 2.066-.028.029-.143-.076-.028-.162Z" fill="#000"/><path d="M203.397 121.243c20.437 24.854 32.697 40.541 32.697 40.541l15.449-8.244-58.064-57.512c-4.008 3.075-1.542 11.29 9.918 25.215Z" fill="#000"/><path d="m247.107 256.638-128.16 8.091s11.87-123.496 56.465-168.32c5.511-5.53 18.752-5.187 27.604-1.456 3.17 1.323 15.154 16.039 19.209 30.46s25.196 130.768 24.882 131.225Z" fill="#FFB445"/><path d="M162.838 132.667a14.956 14.956 0 0 0-3.608 2.189 14.316 14.316 0 0 0 4.046-1.238 14.548 14.548 0 0 0 3.607-2.189 14.97 14.97 0 0 0-4.045 1.238Zm63.252 10.28a.954.954 0 0 0-.153.124.877.877 0 0 0 .162 0s-.009-.143-.009-.172v.048Zm-32.069 21.341a14.843 14.843 0 0 0-3.608 2.189 15.094 15.094 0 0 0 4.046-1.199 14.737 14.737 0 0 0 3.598-2.19 14.38 14.38 0 0 0-4.036 1.2Zm-14.088 54.199a14.863 14.863 0 0 0-3.598 2.199c1.4-.201 2.763-.605 4.046-1.199a15.048 15.048 0 0 0 3.598-2.199 14.859 14.859 0 0 0-4.046 1.199Zm-31.659-35.219a15.34 15.34 0 0 0-3.598 2.189c1.4-.2 2.763-.604 4.045-1.199a14.992 14.992 0 0 0 3.598-2.189c-1.401.22-2.763.64-4.045 1.247v-.048Zm-21.636 75.512a14.616 14.616 0 0 0-3.598 2.189c1.4-.2 2.762-.604 4.045-1.199a14.844 14.844 0 0 0 3.598-2.199 14.435 14.435 0 0 0-4.045 1.257v-.048Zm56.313-8.196a14.7 14.7 0 0 0-3.598 2.19 14.819 14.819 0 0 0 4.045-1.2 15.1 15.1 0 0 0 3.598-2.199 14.253 14.253 0 0 0-4.045 1.257v-.048Zm63.423 1.276c-.901.244-1.779.562-2.627.952a15.408 15.408 0 0 0-3.598 2.189 14.624 14.624 0 0 0 4.045-1.199 18.558 18.558 0 0 0 2.304-1.228c-.057-.248-.124-.486-.124-.714Zm-28.947-37.19a14.936 14.936 0 0 0-3.607 2.199 14.984 14.984 0 0 0 3.998-1.199 14.736 14.736 0 0 0 3.607-2.199 14.665 14.665 0 0 0-4.017 1.199h.019Zm-42.634-102.669a14.67 14.67 0 0 0-2.199-3.598 15.017 15.017 0 0 0 1.2 4.036 14.7 14.7 0 0 0 2.199 3.608 14.677 14.677 0 0 0-1.2-4.046Zm-19.161 145.208a14.706 14.706 0 0 0-2.189-3.607 14.624 14.624 0 0 0 1.199 4.045 14.887 14.887 0 0 0 2.189 3.608 14.006 14.006 0 0 0-1.199-4.046Zm-7.872-35.362a14.848 14.848 0 0 0-2.208-3.588 15.098 15.098 0 0 0 1.199 4.036 14.557 14.557 0 0 0 2.208 3.598 15.215 15.215 0 0 0-1.199-4.046Zm47.422-24.291a15.282 15.282 0 0 0-2.189-3.608c.198 1.4.602 2.764 1.199 4.045a14.57 14.57 0 0 0 2.19 3.608 15.078 15.078 0 0 0-1.2-4.045Zm-20.141-44.738a14.923 14.923 0 0 0-2.199-3.608c.198 1.4.602 2.764 1.199 4.046a14.705 14.705 0 0 0 2.199 3.607 14.677 14.677 0 0 0-1.199-3.998v-.047Zm30.203 102.954c.17 1.172.49 2.317.951 3.408l1.143-.076a15.054 15.054 0 0 0-2.094-3.284v-.048Zm34.648-28.87a14.719 14.719 0 0 0-2.209-3.598 15.597 15.597 0 0 0 1.2 4.036 14.961 14.961 0 0 0 2.198 3.598 14.737 14.737 0 0 0-1.189-4.036Zm-28.737-102.564a15.11 15.11 0 0 0-2.199-3.589 14.836 14.836 0 0 0 1.209 4.036 14.306 14.306 0 0 0 2.189 3.598 14.842 14.842 0 0 0-1.199-4.045Zm-11.423-19.837a14.624 14.624 0 0 0-4.093-.952 14.894 14.894 0 0 0 3.703 2.008c1.313.507 2.691.828 4.093.952a14.894 14.894 0 0 0-3.703-2.008Zm-35.885 98.652a14.28 14.28 0 0 0-4.093-1 14.966 14.966 0 0 0 3.712 2.018c1.314.504 2.691.824 4.093.952a14.336 14.336 0 0 0-3.674-1.97h-.038Zm-31.031 35.485a14.813 14.813 0 0 0-4.103-.999 16.249 16.249 0 0 0 7.805 2.998 14.886 14.886 0 0 0-3.664-1.999h-.038Zm87.182 2.856a14.778 14.778 0 0 0-4.103-.999 16.26 16.26 0 0 0 7.805 2.998 15.023 15.023 0 0 0-3.664-1.999h-.038Zm-6.102-52.791a14.403 14.403 0 0 0-4.093-.952 14.606 14.606 0 0 0 3.703 2.009 15.32 15.32 0 0 0 4.093.999 14.367 14.367 0 0 0-3.665-2.056h-.038Zm-11.651-44.395a14.302 14.302 0 0 0-4.093-.952 14.573 14.573 0 0 0 3.703 1.999c1.309.528 2.688.864 4.093.999a14.274 14.274 0 0 0-3.665-2.046h-.038Zm-52.01 15.782a14.369 14.369 0 0 0-.952 4.093 16.6 16.6 0 0 0 2.998-7.805 14.357 14.357 0 0 0-2.046 3.712Zm47.222 71.114a14.452 14.452 0 0 0-.952 4.093 14.904 14.904 0 0 0 2.018-3.702 15.41 15.41 0 0 0 .952-4.093 14.457 14.457 0 0 0-1.999 3.702h-.019Zm21.95-66.793a14.508 14.508 0 0 0-.951 4.113 16.343 16.343 0 0 0 2.998-7.815 14.806 14.806 0 0 0-2.028 3.702h-.019Zm-53.904 72.619a14.436 14.436 0 0 0-.952 4.102 15.232 15.232 0 0 0 2.008-3.722c.509-1.312.829-2.69.952-4.093a14.683 14.683 0 0 0-1.989 3.713h-.019Zm-35.619-33.573a15.031 15.031 0 0 0-.952 4.103 14.505 14.505 0 0 0 2.008-3.713c.518-1.309.839-2.689.952-4.093a15.433 15.433 0 0 0-1.989 3.703h-.019Zm44.148-22.788a14.138 14.138 0 0 0-.952 4.103 16.352 16.352 0 0 0 2.998-7.805 14.45 14.45 0 0 0-2.046 3.702Zm13.402-53.133a15.55 15.55 0 0 0-.952 4.103 14.796 14.796 0 0 0 2.018-3.703c.507-1.317.828-2.698.952-4.103a15.113 15.113 0 0 0-2.008 3.703h-.01Z" fill="#fff"/><path d="M177.268 99.97a44.246 44.246 0 0 0 14.364 17.942 24.197 24.197 0 0 0 10.471 4.645c2.004.396 4.082.187 5.968-.599a11.65 11.65 0 0 0 4.293-4.017 21.9 21.9 0 0 0 2.798-6.054 52.06 52.06 0 0 0 1.647-7.339.074.074 0 0 1-.004-.036.078.078 0 0 1 .075-.067c.013 0 .025.003.036.009.01.006.02.014.027.024.007.01.011.022.013.034a.089.089 0 0 1-.004.036c-.343 2.351-.495 4.759-1.019 7.044a23.718 23.718 0 0 1-2.094 5.939 14.08 14.08 0 0 1-3.807 4.646 9.276 9.276 0 0 1-5.921 1.789 21.89 21.89 0 0 1-11.518-3.922 38.76 38.76 0 0 1-8.909-8.11 41.036 41.036 0 0 1-6.663-11.917.122.122 0 0 1 .019-.094.127.127 0 0 1 .175-.034.123.123 0 0 1 .053.08Z" fill="#000"/><path d="M205.253 118.265c-7.5 1.256-19.446-10.871-23.854-20.351-.295-.648 1.095-7.206 2.418-15.23.781-4.883 1.542-10.338 1.904-15.364.067-1.037 31.031 9.729 31.031 9.729s-3.808 10.337-4.322 19.104a12.3 12.3 0 0 0 .086 2.075c.006.114.006.228 0 .342.362 3.951-.009 18.467-7.263 19.695Z" fill="#FFD3C9"/><path d="M209.251 98.523c1.08.094 2.166.094 3.246 0v-.343a10.587 10.587 0 0 1-.076-2.075c.523-8.767 4.302-19.094 4.302-19.094s-25.129-8.748-30.155-9.719c.581 5.902 4.122 29.594 22.683 31.23Z" fill="#000"/><path d="M181.228 32.92c-3.293 11.222 2.998 43.586 11.051 50.658 11.67 10.328 30.593 11.109 39.322-2.855 8.462-13.555-.485-55.495-9.461-61.948-13.212-9.538-36.057-2.465-40.912 14.145Z" fill="#FFD3C9"/><path d="M211.974 52.557c0-.086-.143.133-.124.219.476 2.17.666 4.759-1.162 5.825-.057 0 0 .143 0 .114 2.371-.79 2.095-4.188 1.286-6.158Z" fill="#000"/><path d="M209.603 50.653c-3.55.4-2.494 7.472.8 7.101 3.293-.371 2.18-7.434-.8-7.101ZM225.376 50.253c0-.086.19.076.2.162.257 2.208.952 4.683 3.017 5.111.067 0 .076.124 0 .124-2.475.029-3.322-3.274-3.217-5.397Z" fill="#000"/><path d="M226.994 47.664c3.484-.79 4.816 6.235 1.59 6.978-3.227.742-4.512-6.311-1.59-6.978ZM206.329 47.836a29.447 29.447 0 0 0 2.589-1.38 4.76 4.76 0 0 0 2.379-1.904 1.524 1.524 0 0 0-.504-1.78c-1.209-.781-2.58-.42-3.807.18a5.498 5.498 0 0 0-2.789 2.856 1.62 1.62 0 0 0 .415 1.698 1.621 1.621 0 0 0 1.717.33ZM229.24 43.695a27.635 27.635 0 0 1-2.922-.305 4.761 4.761 0 0 1-2.913-.885 1.51 1.51 0 0 1-.19-1.837c.828-1.17 2.237-1.352 3.589-1.257a5.585 5.585 0 0 1 3.645 1.59 1.619 1.619 0 0 1-1.209 2.694ZM213.058 72.46c.6.429 1.238 1.057 2.037 1.01a5.883 5.883 0 0 0 2.275-.905.078.078 0 0 1 .096.002.081.081 0 0 1 .026.043.079.079 0 0 1-.007.05 2.981 2.981 0 0 1-2.608 1.609 2.347 2.347 0 0 1-2.009-1.685c-.067-.114.095-.19.19-.124ZM214.372 65.55a7.539 7.539 0 0 0 5.483 2.58c.91.032 1.82-.064 2.703-.286a2.68 2.68 0 0 0 .495-.133c.162 0 .305-.086.476-.143a.554.554 0 0 0 .362-.562.828.828 0 0 0-.057-.219v-.19c-.21-1.694-.762-4.236-.762-4.236.667.21 4.017 1.162 3.808.286-1.523-7.234-3.218-15.23-6.273-22.15a.202.202 0 0 0-.252-.138.204.204 0 0 0-.122.097.208.208 0 0 0-.016.155c1.19 7.006 3.607 13.764 4.921 20.78a13.537 13.537 0 0 0-3.684-.543c-.228.105 1.152 4.892 1.18 5.663a.177.177 0 0 1 0 .086c-2.779.78-5.044.248-8.081-1.247-.19-.124-.333.048-.181.2Z" fill="#000"/><path d="M221.435 67.139a9.009 9.009 0 0 1-3.141 3.284 4.009 4.009 0 0 1-2.399.504c-1.818-.19-2.094-1.79-1.98-3.217.065-.755.221-1.5.467-2.218a11.59 11.59 0 0 0 7.053 1.647Z" fill="#000"/><path d="M218.294 70.423a4.01 4.01 0 0 1-2.399.504c-1.818-.19-2.094-1.789-1.98-3.217 1.904-.085 3.95.905 4.379 2.713Z" fill="#FF6868"/><path d="M217.818 26.38a12.093 12.093 0 0 1-9.69 6.663c-4.064.343-8.614-1.39-10.966-4.826-.066-.105-.228 0-.161.105 2.513 3.674 6.663 6.187 11.194 5.71a12.44 12.44 0 0 0 9.89-7.471c.057-.229-.191-.352-.267-.181ZM200.351 3.925c-5.188-.19-10.004 3.398-11.965 8.082a17.727 17.727 0 0 0-1.104 8.842.095.095 0 1 0 .19 0c-.228-4.759 1.58-10.127 5.388-13.211A10.898 10.898 0 0 1 205.444 6.4a11.031 11.031 0 0 1 4.759 5.597.217.217 0 0 0 .267.106.22.22 0 0 0 .142-.249 11.262 11.262 0 0 0-10.261-7.929ZM239.711 6.743A14.571 14.571 0 0 0 231.792.65c-4.541-1.447-8.9 0-13.203 1.57-.114 0-.048.22.067.181 3.664-1.304 7.453-2.417 11.356-1.513a14.28 14.28 0 0 1 8.081 5.178 13.947 13.947 0 0 1-1.399 18.219 14.202 14.202 0 0 1-10.576 3.807c-.152 0-.209.22-.047.229a14.278 14.278 0 0 0 13.64-21.58Z" fill="#000"/><path d="M180.571 35.804s-1.637-9.595.153-13.06c1.789-3.465 7.053-5.387 7.053-5.387s1.323-8.758 8.843-11.052c6.749-2.056 12.793 2.922 12.793 2.922s7.31-11.631 19.409-8.776c11.479 2.694 13.802 18.695 4.987 26.015-6.187 5.14-17.257 1.256-17.257 1.256-.885.352-8.9 8.31-18.086 1.666 0 0-5.254 6.51-9.775 3.808.028.038-4.369 3.531-8.12 2.608Z" fill="#000"/><path opacity=".2" d="M185.826 24.448c.771 4.921 2.855 18.962 1.761 22.398-1.095 3.436-3.456 12.298-5.026 13.25-2.218-10.47-2.999-21.503-1.333-27.176a23.113 23.113 0 0 1 4.598-8.472Z" fill="#000"/><path d="M186.977 58.896s-7.615-10.223-12.307-7.472c-4.693 2.751 1.313 17.753 6.958 19.647a5.65 5.65 0 0 0 6.302-1.35 5.663 5.663 0 0 0 1.189-1.934l-2.142-8.89Z" fill="#FFD3C9"/><path d="M176.488 55.679c-.02 0-.04.008-.054.022a.077.077 0 0 0 0 .108.076.076 0 0 0 .054.022c3.95 1.456 6.13 5.016 7.681 8.729-1.199-1.41-2.808-2.152-4.702-.705-.105.076 0 .229.114.2a3.495 3.495 0 0 1 3.874 1.095c.74.946 1.378 1.967 1.904 3.046.191.343.819.143.676-.257a.756.756 0 0 1 0-.095c-.086-4.979-4.179-11.832-9.547-12.165Z" fill="#000"/><path d="M267.62 170.941c-5.074.952-3.722-5.759-8.424-6.197-4.703-.438-6.111 4.76-9.005 4.017-2.894-.742-.819-5.93-6.577-5.978-5.759-.047-7.073 7.882-10.557 9.709-3.484 1.828-10.975-1.275-11.87 5.074-.894 6.349 11.965 8.462 21.199 12.907 9.233 4.445 19.218 11.204 27.547 10.728 8.928-.562 12.812-6.378 19.646-7.301 6.835-.923 22.541 3.303 29.232-2.684 6.692-5.988 17.496-10.814 17.658-17.305.161-6.492-8.367-3.636-11.099-3.951-2.732-.314-2.475-7.481-7.729-8.481-5.255-.999-6.549 2.256-11.118 2.58-4.569.323-6.53-8.567-12.936-6.968-6.406 1.599-4.76 5.216-7.53 6.796-2.769 1.581-8.157-2.008-11.898-.361-3.741 1.646-2.018 6.606-6.539 7.415Z" fill="#A9C297"/><path opacity=".1" d="M267.62 170.941c-5.074.952-3.722-5.759-8.424-6.197-4.703-.438-6.111 4.76-9.005 4.017-2.894-.742-.819-5.93-6.577-5.978-5.759-.047-7.073 7.882-10.557 9.709-3.484 1.828-10.975-1.275-11.87 5.074-.894 6.349 11.965 8.462 21.199 12.907 9.233 4.445 19.218 11.204 27.547 10.728 8.928-.562 12.812-6.378 19.646-7.301 6.835-.923 22.541 3.303 29.232-2.684 6.692-5.988 17.496-10.814 17.658-17.305.161-6.492-8.367-3.636-11.099-3.951-2.732-.314-2.475-7.481-7.729-8.481-5.255-.999-6.549 2.256-11.118 2.58-4.569.323-6.53-8.567-12.936-6.968-6.406 1.599-4.76 5.216-7.53 6.796-2.769 1.581-8.157-2.008-11.898-.361-3.741 1.646-2.018 6.606-6.539 7.415Z" fill="#666"/><path d="M288.323 175.196c5.293.257 3.065-6.197 7.805-7.234 4.741-1.038 6.835 3.95 9.7 2.856 2.865-1.095.076-5.978 5.94-6.768 5.863-.79 8.214 6.929 12.003 8.291 3.788 1.361 11.032-2.666 12.764 3.521 1.733 6.188-11.136 9.919-19.989 15.506-8.852 5.588-18.171 13.565-26.738 14.107-9.176.581-13.888-4.702-20.941-4.759-7.053-.057-22.578 6.149-30.165 1.056-7.586-5.092-19.209-8.49-20.208-14.906-1-6.415 8.072-4.683 10.813-5.34 2.742-.657 1.58-7.739 6.806-9.395 5.226-1.656 6.968 1.399 11.67 1.142 4.702-.257 5.568-9.309 12.308-8.566 6.739.742 5.501 4.569 8.567 5.777 3.065 1.209 8.071-3.027 12.088-1.903 4.017 1.123 2.865 6.387 7.577 6.615Z" fill="#A9C297"/><path d="M230.278 174.881c-4.493 3.027-6.949 10.176-3.332 16.972 3.617 6.797 12.774 5.93 17.134 2.951 4.36-2.979 8.043-10.413 4.321-16.753-3.188-5.502-10.251-8.472-18.123-3.17Z" fill="#FF6868"/><path opacity=".1" d="M230.278 174.881c-4.493 3.027-6.949 10.176-3.332 16.972 3.617 6.797 12.774 5.93 17.134 2.951 4.36-2.979 8.043-10.413 4.321-16.753-3.188-5.502-10.251-8.472-18.123-3.17Z" fill="#000"/><path d="M231.61 176.661c-3.664 2.466-5.711 8.31-2.712 13.859 2.998 5.55 10.47 4.845 14.011 2.409 3.541-2.437 6.578-8.501 3.541-13.688-2.627-4.493-8.395-6.911-14.84-2.58Z" fill="#FF6868"/><path d="M239.283 179.745c.323.257 1.485-.714.847-1.17-.638-.457-1.266.847-.847 1.17ZM241.995 186.113c-.162.372 1.066 1.257 1.352.524.285-.733-1.133-1.018-1.352-.524ZM244.718 183.639c.066.4 1.58.467 1.418-.304-.162-.772-1.504-.219-1.418.304ZM239.207 176.956c.399-.066.475-1.57-.296-1.418-.771.152-.238 1.504.296 1.418ZM231.963 182.23c.104-.39-1.247-1.075-1.419-.304-.171.771 1.276.828 1.419.304ZM235.199 190.645c-.333-.238-1.447.78-.79 1.209.657.428 1.228-.895.79-1.209ZM237.855 190.13c-.4-.066-.952 1.342-.172 1.438.781.095.705-1.352.172-1.438ZM235.066 184.172c.285-.286-.552-1.552-1.076-.952-.523.6.695 1.332 1.076.952Z" fill="#fff"/><path d="M226.918 185.219s7.377-.819 8.348.676c.971 1.494-4.274 8.062-5.14 7.481-.867-.58-4.008-5.663-3.208-8.157Z" fill="#FF6868"/><path opacity=".1" d="M226.918 185.219s7.377-.819 8.348.676c.971 1.494-4.274 8.062-5.14 7.481-.867-.58-4.008-5.663-3.208-8.157Z" fill="#000"/><path d="M239.53 195.004s-2.18-7.101-.885-8.329c1.294-1.228 8.709 2.694 8.31 3.655-.4.962-4.826 4.988-7.425 4.674Z" fill="#FF6868"/><path opacity=".1" d="M239.53 195.004s-2.18-7.101-.885-8.329c1.294-1.228 8.709 2.694 8.31 3.655-.4.962-4.826 4.988-7.425 4.674Z" fill="#000"/><path d="M248.925 181.926s-7.215 1.751-8.367.39c-1.152-1.361 3.208-8.567 4.141-8.072.933.495 4.693 5.064 4.226 7.682Z" fill="#FF6868"/><path opacity=".1" d="M248.925 181.926s-7.215 1.751-8.367.39c-1.152-1.361 3.208-8.567 4.141-8.072.933.495 4.693 5.064 4.226 7.682Z" fill="#000"/><path d="M236.693 173.292s1.761 7.216.4 8.367c-1.361 1.152-8.567-3.208-8.081-4.14.485-.933 5.111-4.703 7.681-4.227Z" fill="#FF6868"/><path opacity=".1" d="M236.693 173.292s1.761 7.216.4 8.367c-1.361 1.152-8.567-3.208-8.081-4.14.485-.933 5.111-4.703 7.681-4.227Z" fill="#000"/><path d="M269.01 158.119c-5.293-1.161-12.156 1.999-14.574 9.31-2.417 7.31 4.531 13.326 9.719 14.449 5.188 1.123 13.079-1.371 15.106-8.443 1.752-6.121-.98-13.279-10.251-15.316Z" fill="#FF6868"/><path opacity=".1" d="M269.01 158.119c-5.293-1.161-12.156 1.999-14.574 9.31-2.417 7.31 4.531 13.326 9.719 14.449 5.188 1.123 13.079-1.371 15.106-8.443 1.752-6.121-.98-13.279-10.251-15.316Z" fill="#000"/><path d="M268.648 160.27c-4.312-.951-9.919 1.638-11.899 7.615-1.98 5.978 3.703 10.899 7.939 11.804 4.236.904 10.689-1.114 12.374-6.892 1.399-4.978-.837-10.823-8.414-12.527Z" fill="#FF6868"/><path d="M271.713 167.99c0 .409 1.542.58 1.437-.2-.105-.781-1.494-.333-1.437.2ZM268.991 174.348c-.391.143-.181 1.637.542 1.342.724-.295-.047-1.523-.542-1.342ZM272.655 174.605c-.247.333.743 1.466 1.19.819.447-.647-.876-1.247-1.19-.819ZM273.674 165.982c.323.257 1.475-.733.828-1.181-.647-.447-1.257.876-.828 1.181ZM264.859 164.412c.362-.2-.085-1.647-.752-1.238-.666.409.286 1.495.752 1.238ZM261.014 172.569c-.057-.409-1.571-.514-1.428.257.143.771 1.495.266 1.428-.257ZM263.213 174.129c-.229-.342-1.628.238-1.162.866.467.629 1.457-.447 1.162-.866ZM265.592 168c.41 0 .743-1.476 0-1.457-.742.019-.533 1.447 0 1.457Z" fill="#fff"/><path d="M259.215 162.821s5.711 4.76 5.283 6.511c-.429 1.752-8.786 2.475-8.967 1.447-.181-1.028 1.314-6.806 3.684-7.958Z" fill="#FF6868"/><path opacity=".1" d="M259.215 162.821s5.711 4.76 5.283 6.511c-.429 1.752-8.786 2.475-8.967 1.447-.181-1.028 1.314-6.806 3.684-7.958Z" fill="#000"/><path d="M260.852 178.708s3.627-6.482 5.407-6.397c1.78.086 4.064 8.167 3.093 8.567-.971.4-6.939-.066-8.5-2.17Z" fill="#FF6868"/><path opacity=".1" d="M260.852 178.708s3.627-6.482 5.407-6.397c1.78.086 4.064 8.167 3.093 8.567-.971.4-6.939-.066-8.5-2.17Z" fill="#000"/><path d="M276.834 176.453s-6.254-4.017-6.064-5.788c.191-1.77 8.396-3.569 8.7-2.579.305.99-.485 6.948-2.636 8.367Z" fill="#FF6868"/><path opacity=".1" d="M276.834 176.453s-6.254-4.017-6.064-5.788c.191-1.77 8.396-3.569 8.7-2.579.305.99-.485 6.948-2.636 8.367Z" fill="#000"/><path d="M274.597 161.66s-4.008 6.254-5.778 6.064c-1.771-.19-3.57-8.386-2.58-8.7.99-.314 6.921.447 8.358 2.636Z" fill="#FF6868"/><path opacity=".1" d="M274.597 161.66s-4.008 6.254-5.778 6.064c-1.771-.19-3.57-8.386-2.58-8.7.99-.314 6.921.447 8.358 2.636Z" fill="#000"/><path d="M283.935 192.976c3.988 3.665 11.508 4.379 17.276-.723 5.769-5.102 2.78-13.812-1.142-17.372-3.921-3.56-12.003-5.387-17.305-.295-4.588 4.417-5.825 11.975 1.171 18.39Z" fill="#FF6868"/><path opacity=".1" d="M283.935 192.976c3.988 3.665 11.508 4.379 17.276-.723 5.769-5.102 2.78-13.812-1.142-17.372-3.921-3.56-12.003-5.387-17.305-.295-4.588 4.417-5.825 11.975 1.171 18.39Z" fill="#000"/><path d="M285.344 191.263c3.255 2.989 9.404 3.57 14.116-.59s2.275-11.28-.952-14.202c-3.227-2.922-9.804-4.398-14.135-.238-3.732 3.608-4.741 9.785.971 15.03Z" fill="#FF6868"/><path d="M286.562 183.116c.172-.372-1.047-1.276-1.342-.552-.295.723 1.133 1.009 1.342.552ZM292.111 178.955c.4.077.952-1.323.191-1.437-.762-.114-.724 1.342-.191 1.437ZM289.066 176.89c.38-.153.095-1.637-.619-1.304-.714.333.133 1.513.619 1.304ZM283.859 183.82c-.153-.381-1.637-.105-1.314.609.324.714 1.523-.124 1.314-.609ZM290.684 189.626c-.409 0-.752 1.456 0 1.447.752-.01.533-1.438 0-1.447ZM298.108 184.505c-.152.381 1.095 1.228 1.361.495.267-.733-1.161-.99-1.361-.495ZM296.985 182.049c0 .409 1.532.609 1.437-.171-.095-.781-1.475-.362-1.437.171ZM291.845 186.152c-.352-.209-1.38.904-.685 1.275.694.372 1.151-.999.685-1.275Z" fill="#fff"/><path d="M294.767 193.833s-2.522-6.987-1.294-8.281c1.228-1.295 8.833 2.275 8.481 3.246-.352.971-4.569 5.226-7.187 5.035Z" fill="#FF6868"/><path opacity=".1" d="M294.767 193.833s-2.522-6.987-1.294-8.281c1.228-1.295 8.833 2.275 8.481 3.246-.352.971-4.569 5.226-7.187 5.035Z" fill="#000"/><path d="M301.335 179.308s-6.396 3.807-7.891 2.808c-1.494-1 .581-9.1 1.609-8.929 1.028.172 5.977 3.484 6.282 6.121Z" fill="#FF6868"/><path opacity=".1" d="M301.335 179.308s-6.396 3.807-7.891 2.808c-1.494-1 .581-9.1 1.609-8.929 1.028.172 5.977 3.484 6.282 6.121Z" fill="#000"/><path d="M286.419 173.206s3.389 6.606 2.342 8.043c-1.047 1.438-9.053-1.132-8.824-2.141.228-1.009 3.874-5.759 6.482-5.902Z" fill="#FF6868"/><path opacity=".1" d="M286.419 173.206s3.389 6.606 2.342 8.043c-1.047 1.438-9.053-1.132-8.824-2.141.228-1.009 3.874-5.759 6.482-5.902Z" fill="#000"/><path d="M280.879 187.104s6.616-3.389 8.053-2.332c1.438 1.056-1.132 9.052-2.151 8.823-1.018-.228-5.759-3.874-5.902-6.491Z" fill="#FF6868"/><path opacity=".1" d="M280.879 187.104s6.616-3.389 8.053-2.332c1.438 1.056-1.132 9.052-2.151 8.823-1.018-.228-5.759-3.874-5.902-6.491Z" fill="#000"/><path d="M313.005 181.011c3.988 3.665 11.508 4.37 17.276-.732 5.769-5.103 2.78-13.803-1.142-17.372-3.921-3.57-12.003-5.388-17.305-.295-4.54 4.416-5.825 11.936 1.171 18.399Z" fill="#FF6868"/><path opacity=".1" d="M313.005 181.011c3.988 3.665 11.508 4.37 17.276-.732 5.769-5.103 2.78-13.803-1.142-17.372-3.921-3.57-12.003-5.388-17.305-.295-4.54 4.416-5.825 11.936 1.171 18.399Z" fill="#000"/><path d="M314.414 179.308c3.255 2.989 9.404 3.569 14.116-.6s2.275-11.28-.952-14.192c-3.227-2.913-9.804-4.408-14.135-.238-3.731 3.607-4.74 9.766.971 15.03Z" fill="#FF6868"/><path d="M315.632 171.113c.172-.372-1.047-1.266-1.342-.543-.295.724 1.114 1.028 1.342.543ZM321.182 166.99c.399.067.952-1.332.19-1.437-.761-.105-.752 1.38-.19 1.437ZM318.136 164.925c.38-.162.095-1.647-.619-1.314-.714.333.133 1.523.619 1.314ZM312.929 171.845c-.152-.381-1.637-.095-1.314.609.324.705 1.523-.114 1.314-.609ZM319.754 177.651c-.409 0-.752 1.466 0 1.447.752-.019.533-1.428 0-1.447ZM327.178 172.54c-.152.38 1.095 1.227 1.362.485.266-.742-1.162-.98-1.362-.485ZM326.055 170.075c0 .409 1.532.609 1.437-.162-.095-.771-1.475-.371-1.437.162ZM320.915 174.186c-.352-.209-1.38.895-.685 1.276.695.381 1.151-1 .685-1.276Z" fill="#fff"/><path d="M323.838 181.859s-2.523-6.987-1.295-8.272c1.228-1.285 8.833 2.266 8.481 3.246-.352.981-4.569 5.217-7.186 5.026Z" fill="#FF6868"/><path opacity=".1" d="M323.838 181.859s-2.523-6.987-1.295-8.272c1.228-1.285 8.833 2.266 8.481 3.246-.352.981-4.569 5.217-7.186 5.026Z" fill="#000"/><path d="M330.405 167.305s-6.396 3.807-7.891 2.855c-1.494-.952.581-9.1 1.609-8.938 1.028.162 6.016 3.484 6.282 6.083Z" fill="#FF6868"/><path opacity=".1" d="M330.405 167.305s-6.396 3.807-7.891 2.855c-1.494-.952.581-9.1 1.609-8.938 1.028.162 6.016 3.484 6.282 6.083Z" fill="#000"/><path d="M315.489 161.223s3.389 6.606 2.342 8.043c-1.047 1.437-9.052-1.123-8.824-2.142.228-1.018 3.874-5.749 6.482-5.901Z" fill="#FF6868"/><path opacity=".1" d="M315.489 161.223s3.389 6.606 2.342 8.043c-1.047 1.437-9.052-1.123-8.824-2.142.228-1.018 3.874-5.749 6.482-5.901Z" fill="#000"/><path d="M309.95 175.139s6.615-3.389 8.053-2.342c1.437 1.048-1.133 9.053-2.152 8.824-1.018-.228-5.759-3.864-5.901-6.482Z" fill="#FF6868"/><path opacity=".1" d="M309.95 175.139s6.615-3.389 8.053-2.342c1.437 1.048-1.133 9.053-2.152 8.824-1.018-.228-5.759-3.864-5.901-6.482Z" fill="#000"/><path d="m215.924 187.332 27.871 37.97 72.78-4.588 22.883-41.168-123.534 7.786Z" fill="#fff"/><path d="M157.783 123.928c-17.409 46.328-31.649 96.796-20.874 106.867 8.7 8.119 80.956 19.989 96.767 18.913 6.72-.437 13.545-52.352 1.904-54.171-3.313-.514-55.209-1.703-55.723-2.855-1.704-3.56-.342-28.728.295-58.721.8-38.55-15.001-29.641-22.369-10.033Z" fill="#FFD3C9"/><path d="M230.097 249.27c18.819 2.228 42.111 6.15 61.691-2.446a10.61 10.61 0 0 0 5.197-4.588c8.843-3.693 9.757-8.986 9.757-8.986 7.177-5.968 7.367-11.498 7.367-11.498s10.328-4.455 8.672-11.147c-1.837-7.519-15.992.21-26.367-.295-23.797-1.17-60.786-9.68-67.583-10.699l1.266 49.659Z" fill="#FFD3C9"/><path d="M270.656 226.568c7.006.2 13.888.591 20.884-.161 7.682-.819 14.935-2.856 22.369-4.817a.197.197 0 0 1 .142.011.188.188 0 0 1 .1.18.19.19 0 0 1-.064.126.178.178 0 0 1-.063.035c-12.908 5.616-29.508 7.263-43.387 4.94-.333-.047-.333-.323.019-.314ZM267.867 240.827c6.825-.181 18.829-.571 38.827-7.824.067 0 .124.076.057.114-12.374 6.435-25.081 8.824-38.874 8.034-.428-.029-.466-.314-.01-.324ZM266.506 248.509c11.604-.742 18.819-2.684 30.46-6.339.057 0 .114.086.048.114-12.784 5.55-18.086 6.111-30.536 6.663-.429-.019-.429-.409.028-.438Z" fill="#000"/><path d="M267.839 207.084c-3.037-1.38-2.342-2.98 3.427-4.388 5.768-1.409 29.755-2.104 28.803-10.471-.952-8.367-34.419-5.311-44.205-3.807a67.64 67.64 0 0 0-28.422 11.946c6.644 1.047 27.385 4.53 40.397 6.72Z" fill="#FFD3C9"/><path d="m181.313 181.592-50.63 11.27s17.315-53.352 28.557-74.16c11.803-21.684 22.635-22.455 23.359 10.156.637 32.212-1.286 52.734-1.286 52.734Z" fill="#FFB445"/><path d="M137.204 182.878c1.237-.419 2.551-.667 3.807-.952l3.922-.952a388.16 388.16 0 0 1 7.986-1.809c5.321-1.151 10.652-2.332 15.992-3.398 1.475-.285 2.941-.58 4.416-.828 1.476-.247 3.132-.428 4.684-.695.095 0 .104.124 0 .143-1.314.324-2.599.761-3.913 1.095-1.313.333-2.684.666-4.036.951-2.665.597-5.33 1.178-7.995 1.742-5.255 1.095-10.471 2.218-15.782 3.199l-4.427.818c-1.532.286-3.093.667-4.654.809-.048.019-.086-.095 0-.123Z" fill="#000"/><path d="M142.22 162.241c1.219-3.436 2.332-6.892 3.503-10.337 1.323-3.913 2.523-7.863 3.808-11.794 0-.095-.143-.152-.181-.057-1.59 4.188-7.006 18.142-7.863 20.513-2.503 6.901-5.006 13.802-7.453 20.722-1.37 3.884-2.855 8.367-4.207 12.25-.095.286 3.969-.818 6.101-1.456.115 0 .191-.428.048-.39-2.018.457-4.759.752-5.064.828 2.599-6.568 5.093-13.183 7.539-19.818a976.826 976.826 0 0 0 3.769-10.461Z" fill="#000"/><path d="M174.032 180.669a16.765 16.765 0 0 0-.809 2.723l.828-.181c.373-.695.707-1.41.999-2.142.504-1.314.824-2.691.952-4.093a14.468 14.468 0 0 0-1.97 3.693Zm-23.797-20.579a14.403 14.403 0 0 0-.952 4.093 16.613 16.613 0 0 0 2.999-7.805 14.36 14.36 0 0 0-2.047 3.712Zm24.749-7.225a14.917 14.917 0 0 0-2.199-3.607c.198 1.4.602 2.763 1.199 4.045a14.76 14.76 0 0 0 2.199 3.608 14.65 14.65 0 0 0-1.142-4.046h-.057Zm-.248-40.864a14.67 14.67 0 0 0-2.199-3.598 15.017 15.017 0 0 0 1.2 4.036 14.7 14.7 0 0 0 2.199 3.608 14.651 14.651 0 0 0-1.143-4.046h-.057Zm-26.519 71.315a15.307 15.307 0 0 0-3.598 2.189c1.4-.201 2.763-.605 4.045-1.199a14.989 14.989 0 0 0 3.599-2.19c-1.38.211-2.722.614-3.989 1.2h-.057Zm14.621-50.649a14.956 14.956 0 0 0-3.608 2.189 14.306 14.306 0 0 0 4.046-1.238 14.548 14.548 0 0 0 3.607-2.189 14.97 14.97 0 0 0-4.045 1.238Z" fill="#fff"/><path opacity=".8" d="M372.26 351.67v.006c0 .079-.039.215-.261.406-.224.192-.582.393-1.088.593-1.008.397-2.479.737-4.284 1.012-3.601.549-8.419.821-13.25.813-4.831-.007-9.649-.294-13.248-.854-1.805-.28-3.275-.626-4.282-1.026-.505-.202-.863-.405-1.086-.598-.221-.192-.261-.328-.261-.409l.19-44.809a7.881 7.881 0 0 0 2.126-.6l.001-.001a1.185 1.185 0 0 0 .703-1.081 1.187 1.187 0 0 0-.698-1.079 9.856 9.856 0 0 0-2.141-.717v-1.567a7.95 7.95 0 0 0 2.132-.59l.015-.006.014-.008a1.22 1.22 0 0 0 .666-1.09c0-.225-.062-.447-.18-.639l-.426.261.426-.261a1.22 1.22 0 0 0-.486-.451l-.018-.01-.019-.007a12.307 12.307 0 0 0-2.124-.664v-1.574a8.234 8.234 0 0 0 2.131-.597l.012-.005.012-.006a1.215 1.215 0 0 0 0-2.176l-.012-.006-.012-.005c-.686-.296-1.4-.524-2.131-.679v-1.608a9.393 9.393 0 0 0 2.115-.555l.021-.008.019-.01a1.213 1.213 0 0 0 0-2.175l-.015-.008-.016-.007a14.138 14.138 0 0 0-2.124-.686v-9.83c0-.33.144-.817.465-1.457.314-.628.771-1.352 1.338-2.143 1.132-1.581 2.668-3.384 4.272-5.141 3.201-3.506 6.635-6.787 7.561-7.664l.242-.221.163-.149V259.079h9.786V261.58l.158.148.342-.364-.342.364v.001l.002.001.007.007.03.028.116.11c.102.097.252.239.442.422.382.366.927.893 1.581 1.538 1.309 1.29 3.053 3.05 4.796 4.931 1.745 1.883 3.48 3.879 4.775 5.641.649.881 1.179 1.694 1.545 2.397.374.719.545 1.264.545 1.63v9.822a14.65 14.65 0 0 0-2.119.692 1.052 1.052 0 0 0-.514.433 1.219 1.219 0 0 0 .11 1.468.934.934 0 0 0 .409.309 9.408 9.408 0 0 0 2.104.555v1.608c-.665.141-1.316.34-1.946.595h-.104l-.105.052a1.215 1.215 0 0 0 0 2.176l.02.01.021.008.187.073a7.943 7.943 0 0 0 1.937.527v1.574a11.19 11.19 0 0 0-1.65.488h-.001l-.456.17-.024.009-.024.011a1.221 1.221 0 0 0-.674 1.088 1.216 1.216 0 0 0 .671 1.087c.206.104.421.187.644.245.491.175.999.298 1.514.368v1.569c-.443.094-.88.217-1.308.367l-.008.003a9.86 9.86 0 0 0-.815.346 1.18 1.18 0 0 0-.505 1.722c.125.192.302.344.512.437h.001c.318.141.647.256.983.344.377.113.762.198 1.151.254v23.024l-.256 21.802Z" fill="#fff" stroke="#999"/><path opacity=".8" d="m369.613 283.417-.054 42.376-.128 22.405c0 3.67-31.921 3.638-31.91-.064l.192-64.333c2.699.96 8.994 2.912 14.445 2.336 5.452-.576 12.408-2.507 17.401-2.923.03.064.048.132.054.203Z" fill="#FEE3C5"/><path d="m361.272 251.752-15.256-.022a.544.544 0 0 0-.545.544l-.008 5.761c-.001.3.243.544.543.545l15.257.021c.3 0 .544-.243.545-.543l.008-5.762c0-.3-.243-.544-.544-.544Z" fill="#FFB445"/><path d="M21.327 315.113a7.003 7.003 0 0 0 6.305-4.055s2.838 2.764 7.469.854c4.63-1.91 9.474-13.539 6.038-23.216-3.435-9.676-12.46-11.959-19.726-4.395-9.826-3.596-16.964 2.432-15.748 12.632 1.217 10.199 10.69 18.521 15.662 18.18Z" fill="#FF6868"/><path d="M13.08 273.269a14.527 14.527 0 0 1 10.136 11.107c.47 2.39-3.2 3.264-3.713.853-.8-4.033-4.268-5.825-8.194-6.999-2.347-.704-.586-5.665 1.771-4.961Z" fill="#A9C297"/><path d="M20.73 286.83s.715-11.128 11.426-12.579A15.403 15.403 0 0 1 20.73 286.83Z" fill="#A9C297"/><path d="M57.25 313.225a6.985 6.985 0 0 0 7.115 2.411s-.416 3.947 3.948 6.401c4.364 2.454 16.505-.928 21.988-9.602 5.484-8.674 1.697-17.187-8.737-18.233-3.201-9.943-12.398-11.832-19.663-4.577-7.266 7.255-8.012 19.866-4.652 23.6Z" fill="#FF6868"/><path d="M85.052 280.877a14.518 14.518 0 0 1-2.464 14.829c-1.59 1.857-4.567-.523-2.966-2.379 2.678-3.126 1.952-6.945.437-10.775-.907-2.273 4.086-3.959 4.993-1.675Z" fill="#A9C297"/><path d="M79.153 295.236s9.196-6.315 16.952 1.217a15.419 15.419 0 0 1-16.953-1.217Z" fill="#A9C297"/><path d="M50.208 320.095a6.996 6.996 0 0 1-5.58-5.004s-3.2 2.283-7.532-.33c-4.332-2.614-7.202-14.873-2.283-23.888 4.918-9.015 14.19-9.837 20.174-1.227 10.274-1.984 16.366 5.1 13.55 14.937-2.817 9.836-13.432 16.632-18.33 15.512Z" fill="#FFB445"/><path opacity=".1" d="M50.208 320.095a6.996 6.996 0 0 1-5.58-5.004s-3.2 2.283-7.532-.33c-4.332-2.614-7.202-14.873-2.283-23.888 4.918-9.015 14.19-9.837 20.174-1.227 10.274-1.984 16.366 5.1 13.55 14.937-2.817 9.836-13.432 16.632-18.33 15.512Z" fill="#000"/><path d="M64.974 280.076a14.53 14.53 0 0 0-11.736 9.367c-.843 2.283 2.678 3.734 3.531 1.43 1.42-3.852 5.121-5.079 9.197-5.612 2.4-.32 1.44-5.505-.992-5.185Z" fill="#A9C297"/><path d="M55.286 292.164s1.067-11.096-9.292-14.222a15.384 15.384 0 0 0 9.292 14.222Z" fill="#A9C297"/><path d="M106.636 318.185a7.015 7.015 0 0 1-7.223-2.038s-1.9 3.478-6.903 3.009c-5.004-.47-13.016-10.178-12.557-20.442.459-10.263 8.417-15.075 17.582-9.975 8.343-6.305 16.931-2.624 18.745 7.468 1.814 10.093-4.758 20.837-9.644 21.978Z" fill="#FFB445"/><path opacity=".1" d="M106.636 318.185a7.015 7.015 0 0 1-7.223-2.038s-1.9 3.478-6.903 3.009c-5.004-.47-13.016-10.178-12.557-20.442.459-10.263 8.417-15.075 17.582-9.975 8.343-6.305 16.931-2.624 18.745 7.468 1.814 10.093-4.758 20.837-9.644 21.978Z" fill="#000"/><path d="M102.283 275.756a14.528 14.528 0 0 0-6.402 13.581c.246 2.433 4.044 2.134 3.798-.267-.416-4.086 2.369-6.806 5.794-9.089 2.005-1.355-1.142-5.58-3.19-4.225Z" fill="#A9C297"/><path d="M98.922 290.905s-3.937-10.434-14.606-8.685a15.4 15.4 0 0 0 14.606 8.685Z" fill="#A9C297"/><path d="M116.088 303.611s-9.762 36.562-22.533 36.562H25.957c-12.802 0-22.521-36.562-22.521-36.562h112.652Z" fill="#FEE3C5"/></svg>