<svg width="703" height="1024" viewBox="0 0 703 1024" fill="none" xmlns="http://www.w3.org/2000/svg">
<path d="M0 0H234V256H468V512.5H701V768H468H234.5V1024H0V512.5H234V256H0V0Z" fill="#FEE3C5"/>
<path d="M701 768C701 626.615 596.682 512 468 512L468 768L701 768Z" fill="#FFB445"/>
<path d="M468 768C468 909.385 572.318 1024 701 1024V768H468Z" fill="#FFB445"/>
<path d="M234 768C234 626.615 129.682 512 1 512L1.00002 768L234 768Z" fill="#C7594D"/>
<path d="M468 256C338.765 256 234 370.615 234 512L468 512L468 256Z" fill="#C7594D"/>
<path d="M0 256C-1.24133e-05 114.615 104.765 6.13905e-06 234 -5.11072e-06L234 256L0 256Z" fill="#FFB445"/>
<path d="M234 256C234 397.385 129.235 512 0 512L0 256L234 256Z" fill="#FFB445"/>
<ellipse cx="350.5" cy="128" rx="117.5" ry="128" fill="#C7594D"/>
<ellipse cx="585.5" cy="384" rx="117.5" ry="128" fill="#FEE3C5"/>
<path d="M643 256C643 159.35 564.65 81 468 81V256H643Z" fill="#FFB445"/>
<path d="M528 -1.5299e-05C528 96.6498 606.35 175 703 175L703 0L528 -1.5299e-05Z" fill="#C7594D"/>
<ellipse cx="351" cy="895.5" rx="117" ry="127.5" fill="#FFB445"/>
<path d="M234 768L3.05277e-06 768L234 1024L234 768Z" fill="#C7594D"/>
<path d="M234 512L234 768L468 512L234 512Z" fill="#C7594D"/>
</svg>
