<svg width="448" height="463" viewBox="0 0 448 463" fill="none" xmlns="http://www.w3.org/2000/svg">
<rect x="26" width="422" height="411" rx="10" fill="#FFB445" fill-opacity="0.3"/>
<path d="M170.6 324.8L161.71 323.87C161.605 321.484 161.154 319.126 160.37 316.87C157.26 308.12 150.47 300.87 145.27 293.68C145.27 293.68 145.21 293.68 145.27 293.73C150.455 301.127 154.387 309.327 156.91 318C157.374 319.757 157.629 321.563 157.67 323.38L152.13 322.81C152.159 317.492 150.922 312.244 148.52 307.5C148.45 307.36 148.22 307.5 148.28 307.68C150.28 312.48 150.53 317.52 150.13 322.68L102.06 317.61C101.521 313.199 101.344 308.75 101.53 304.31C101.539 304.258 101.536 304.206 101.522 304.155C101.509 304.105 101.484 304.058 101.45 304.018C101.416 303.978 101.374 303.946 101.327 303.924C101.279 303.902 101.228 303.89 101.175 303.89C101.123 303.89 101.071 303.902 101.024 303.924C100.976 303.946 100.934 303.978 100.9 304.018C100.867 304.058 100.842 304.105 100.828 304.155C100.814 304.206 100.811 304.258 100.82 304.31C100.565 308.693 100.565 313.087 100.82 317.47L96.8202 317.03C96.6027 309.421 97.3622 301.816 99.0802 294.4C99.0924 294.375 99.099 294.348 99.0994 294.32C99.0999 294.292 99.0942 294.264 99.0827 294.239C99.0713 294.213 99.0544 294.191 99.0332 294.173C99.0121 294.154 98.9872 294.141 98.9603 294.134C98.9334 294.126 98.9053 294.125 98.8778 294.129C98.8503 294.134 98.8241 294.145 98.8012 294.161C98.7783 294.176 98.7592 294.197 98.7452 294.221C98.7312 294.245 98.7226 294.272 98.7202 294.3C96.5835 301.638 95.2424 309.185 94.7202 316.81L61.4402 313.32C63.7184 308.64 65.6081 303.78 67.0902 298.79C67.2302 298.38 66.6202 298.21 66.4802 298.63C64.7006 303.705 62.3523 308.563 59.4802 313.11L54.5402 312.6C58.9002 304.44 62.3102 295.84 63.5402 286.72C63.5402 286.35 63.0102 286.28 62.9402 286.65C61.0702 296.45 55.6902 304.31 50.3402 312.15L37.8102 310.84C42.6702 303.51 50.6902 297.07 52.3402 288.15C54.1602 278.15 45.2202 272.73 42.9802 264.06C39.2202 249.54 47.1002 239.46 56.7602 230.3C65.6402 221.84 65.4302 211.49 68.1902 200.16C70.1902 191.82 73.1902 182.63 78.1302 175.57C93.2702 153.77 117.56 158.57 117.56 158.85C123.234 159.308 128.671 161.326 133.27 164.68C133.293 164.675 133.317 164.675 133.34 164.68C133.66 164.902 133.964 165.146 134.25 165.41C139.467 169.711 143.53 175.244 146.07 181.51V181.59C146.949 183.607 147.716 185.67 148.37 187.77C149.55 191.58 149.52 196.77 150.37 202.77C150.35 202.886 150.35 203.004 150.37 203.12C151.666 213.957 157.014 223.903 165.34 230.96C178.04 242.18 173.39 258.64 161.58 274.68C156.58 281.48 156.16 286.05 157.73 290.09C157.73 290.09 157.73 290.09 157.73 290.15C157.97 290.7 158.19 291.15 158.46 291.7C160.81 296.18 165.31 300.25 168.2 306.35C170.91 311.96 171.23 318.41 170.6 324.8Z" fill="black"/>
<path d="M96.2302 160.7C85.8344 165.448 77.7463 174.126 73.7402 184.83C70.4502 193.38 69.6002 202.83 65.4302 211.05C61.4902 218.8 55.0402 224.45 49.7402 231.05C42.7402 239.76 37.9602 250.66 42.7402 261.37C45.7402 268.01 52.7402 274.85 51.8402 283.03C50.8402 292.58 42.0002 301.34 37.0802 309.03C36.8402 309.4 37.3702 309.85 37.6402 309.49C44.2202 300.9 55.5202 289.75 52.6402 277.8C51.3002 272.33 47.9602 268.02 45.3902 263.27C40.3902 254.05 42.0902 244.59 48.0302 235.78C56.0802 223.85 66.2302 216.47 70.3402 201.78C72.6802 193.38 73.9802 184.69 78.7102 177.24C83.0292 170.369 89.194 164.853 96.5002 161.32C96.7402 161.13 96.5202 160.56 96.2302 160.7Z" fill="black"/>
<path d="M164.43 303.78C161.05 298.52 156.75 294.54 159.12 287.02C160.77 281.81 164.69 277.49 167.46 272.94C174.39 261.59 178.76 247.05 173.19 234.61C170.05 227.61 164.19 225.61 159.4 220.3C153.61 213.89 151.84 204.47 150.31 195.79C148.02 182.79 145.04 167.92 131.86 164.18C131.75 164.18 131.7 164.34 131.86 164.38C148.58 170.25 147.38 191.93 151.49 207.24C152.89 212.44 155 217.49 158.49 221.34C164.01 227.44 170.98 229.79 173.49 238.89C175.88 247.42 174.19 256.62 170.63 264.81C167.55 271.91 162.21 277.68 159.26 284.81C157.49 289.05 156.89 293.51 158.84 297.58C160.37 300.77 163.14 303.01 164.84 306.11C166.99 310.365 167.865 315.15 167.36 319.89C167.36 320.38 168.01 320.35 168.06 319.89C168.737 314.262 167.455 308.574 164.43 303.78Z" fill="black"/>
<path d="M122.6 292.05C146.85 334.94 209.6 395.37 228.21 385.73C251.03 373.9 255.36 314.98 253.65 301.66C252.65 293.66 190.1 295.16 191.65 303.66C192.58 308.66 194.49 313.94 193.31 313.29C189.62 311.29 180.17 302.29 145.44 276.41C126.13 261.96 106.52 263.66 122.6 292.05Z" fill="#FFD3C9"/>
<path d="M197.52 349.58C195.3 343.83 190.34 327.71 193.72 312.7C193.72 312.53 193.95 312.55 193.94 312.7C192.6 325.22 195.94 343.65 197.71 349.46C197.73 349.63 197.52 349.73 197.52 349.58Z" fill="black"/>
<path d="M245.8 260.96C251.8 272.34 254.97 300.4 253.13 307.46C251.29 314.52 203.76 321.46 198.36 316.31C192.96 311.16 175.73 271.25 178.21 258.36C180.69 245.47 239.58 249.13 245.8 260.96Z" fill="#FFD3C9"/>
<path d="M183.29 229.11C180.15 224.04 167.12 210.35 162.73 213.11C158.34 215.87 165.07 227.44 167.95 232.05C173.9 241.53 176.84 256.72 178.13 264.1C179.42 271.48 195.13 260.78 195.13 260.78C195.13 260.78 191.44 242.26 183.29 229.11Z" fill="#FFD3C9"/>
<path d="M185.02 273.52C185.02 273.52 186.96 286.59 194.38 287.89C201.53 289.12 202.12 278.34 202.17 277.57C202.28 278.26 204.37 290.23 211.96 290.76C219.85 291.31 218.58 280.39 218.49 279.68C218.8 280.3 223 288.43 228.86 287.53C238.93 285.96 228.76 264.88 231.8 257.21C231.8 257.21 245.38 260.89 245.8 260.91C245.8 260.91 236.53 240.65 225.97 237.12C224.436 236.586 222.766 236.592 221.237 237.138C219.707 237.683 218.41 238.736 217.56 240.12C217.56 240.12 215.3 233.26 209.33 232.65C206.27 232.35 203.06 236.97 203.06 236.97C203.06 236.97 201.06 231.55 195.68 231.34C191.42 231.16 188.29 235.87 187.68 237.8C182.63 252.66 185.02 273.52 185.02 273.52Z" fill="#FFD3C9"/>
<path d="M188.35 236.48C188.35 236.36 188.21 236.3 188.17 236.42C183.52 247.89 181.94 261.96 184.93 273.96C185.02 274.35 185.71 274.36 185.69 273.91C184.99 260.9 185.41 249.27 188.35 236.48Z" fill="black"/>
<path d="M203.01 236.75C203.01 236.61 202.82 236.56 202.76 236.75C198.04 248.6 196.69 264.44 201.76 277.96C201.94 278.43 202.56 278.67 202.4 278.12C199.71 268.82 200.31 248.25 203.01 236.75Z" fill="black"/>
<path d="M219.17 280.5C214.8 267.35 215.09 254.12 217.33 240.57C217.33 240.39 217.11 240.37 217.05 240.51C214.14 246.84 213.61 255.62 213.77 262.51C213.807 268.893 215.51 275.157 218.71 280.68C218.84 280.88 219.27 280.79 219.17 280.5Z" fill="black"/>
<path d="M185.02 273.52C185.62 275.991 186.447 278.401 187.49 280.72C188.414 283.014 189.929 285.022 191.88 286.54C192.809 287.188 193.947 287.466 195.07 287.32C196.204 287.162 197.279 286.714 198.19 286.02C199.04 285.256 199.72 284.321 200.185 283.277C200.65 282.233 200.89 281.103 200.89 279.96L201.12 274.37L202.84 279.7C203.591 282.069 204.719 284.301 206.18 286.31C207.63 288.25 209.6 289.79 211.79 289.94C212.849 290.097 213.929 289.885 214.849 289.338C215.769 288.792 216.472 287.945 216.84 286.94C217.62 284.672 217.816 282.244 217.41 279.88L216.49 273.33L219.49 279.19C220.321 280.827 221.36 282.349 222.58 283.72C223.68 285.066 225.156 286.055 226.82 286.56C227.577 286.757 228.374 286.739 229.122 286.508C229.869 286.276 230.537 285.841 231.05 285.25C232.008 283.759 232.515 282.022 232.51 280.25C232.568 276.42 232.324 272.592 231.78 268.8C231.58 266.87 231.37 264.94 231.25 262.99C231.025 261.046 231.213 259.077 231.8 257.21C231.43 259.102 231.43 261.048 231.8 262.94C232.07 264.85 232.42 266.75 232.8 268.66C233.619 272.495 234.075 276.399 234.16 280.32C234.24 282.446 233.698 284.548 232.6 286.37C231.893 287.292 230.934 287.988 229.839 288.375C228.743 288.762 227.559 288.823 226.43 288.55C224.344 287.982 222.477 286.801 221.07 285.16C219.685 283.653 218.502 281.972 217.55 280.16L219.63 279.47C220.166 282.256 219.966 285.134 219.05 287.82C218.488 289.298 217.427 290.533 216.05 291.31C214.69 292.036 213.143 292.336 211.61 292.17C208.5 291.87 206.09 289.75 204.5 287.56C202.92 285.329 201.721 282.852 200.95 280.23L202.9 279.98C202.85 281.397 202.491 282.786 201.846 284.049C201.202 285.312 200.288 286.418 199.17 287.29C198.002 288.096 196.644 288.585 195.23 288.71C193.799 288.817 192.378 288.401 191.23 287.54C188.99 285.84 187.86 283.35 186.92 280.97C186.008 278.566 185.37 276.067 185.02 273.52Z" fill="black"/>
<path d="M194.23 309.96C194.23 309.96 151.84 275.62 173.38 265.63C179.78 262.63 209.62 258.1 210.65 264.08C211.98 271.79 199.88 276.02 191.86 277.46C191.86 277.46 207.93 287.12 204.54 300.31C202.42 308.6 194.23 309.96 194.23 309.96Z" fill="#FFD3C9"/>
<path d="M171.64 266.59C174.013 265.129 176.587 264.023 179.28 263.31C181.953 262.52 184.676 261.912 187.43 261.49C192.941 260.561 198.522 260.112 204.11 260.15C205.597 260.168 207.075 260.394 208.5 260.82C209.317 261.074 210.068 261.504 210.7 262.08C211.053 262.393 211.347 262.765 211.57 263.18C211.786 263.59 211.935 264.033 212.01 264.49C212.259 266.148 211.904 267.841 211.01 269.26C210.179 270.545 209.134 271.678 207.92 272.61C205.587 274.319 202.98 275.618 200.21 276.45C197.529 277.316 194.789 277.985 192.01 278.45L192.32 276.67C194.11 277.842 195.784 279.181 197.32 280.67C198.858 282.134 200.245 283.749 201.46 285.49C202.659 287.242 203.589 289.163 204.22 291.19C204.864 293.193 205.112 295.302 204.95 297.4C204.838 295.338 204.378 293.309 203.59 291.4C202.792 289.53 201.742 287.777 200.47 286.19C199.218 284.595 197.808 283.131 196.26 281.82C194.73 280.511 193.083 279.347 191.34 278.34L189.18 277.12L191.65 276.55C194.305 276.009 196.921 275.291 199.48 274.4C201.989 273.583 204.352 272.371 206.48 270.81C208.48 269.27 210.08 267.02 209.69 264.93C209.51 263.05 206.53 262.51 203.94 262.36C201.225 262.22 198.505 262.22 195.79 262.36C193.04 262.47 190.3 262.62 187.58 262.91C182.21 263.6 176.67 264.26 171.64 266.59Z" fill="black"/>
<path d="M153.18 348.12L180.87 299.48C180.87 299.48 148.65 273.48 129.13 263.74C118.19 258.25 113.78 266.67 116.88 277.29C127.71 314.44 153.18 348.12 153.18 348.12Z" fill="#FEE3C5"/>
<path d="M153.18 348.12L180.87 299.48C180.87 299.48 148.65 273.48 129.13 263.74C118.19 258.25 113.78 266.67 116.88 277.29C127.71 314.44 153.18 348.12 153.18 348.12Z" fill="#A9C297"/>
<path opacity="0.1" d="M174.59 310.51L153.18 348.12C153.18 348.12 127.71 314.44 116.88 277.29C115.72 273.29 115.61 269.66 116.5 266.92L174.59 310.51Z" fill="black"/>
<path d="M172.25 296.82C167.37 303.95 154.69 323.67 148.13 337.57C148.13 337.65 148.39 337.84 148.44 337.76C155.64 327.03 168.44 304.63 172.7 297.1C172.78 296.96 172.34 296.69 172.25 296.82Z" fill="black"/>
<path d="M12.2701 411.26L162.88 410.96L154.52 359.12C154.52 359.12 166.43 344.67 164.18 328.99C161.71 311.81 130.73 268.27 128.13 265.81C117.64 255.97 106.54 254.21 95.8801 257.76C46.6401 288.71 12.2701 411.26 12.2701 411.26Z" fill="#A9C297"/>
<path d="M130.72 355.16C124.557 355.704 118.444 356.706 112.43 358.16C109.43 358.92 106.53 359.82 103.61 360.78C102.15 361.26 100.69 361.69 99.2201 362.11C97.6915 362.594 96.1101 362.893 94.5101 363C94.481 363 94.453 363.012 94.4324 363.032C94.4117 363.053 94.4001 363.081 94.4001 363.11C94.4001 363.139 94.4117 363.167 94.4324 363.188C94.453 363.208 94.481 363.22 94.5101 363.22C96.0236 363.293 97.5402 363.267 99.0501 363.14C100.507 362.961 101.95 362.687 103.37 362.32C106.37 361.57 109.37 360.69 112.37 359.91C118.47 358.35 124.56 356.78 130.75 355.66C131.08 355.62 131.01 355.13 130.72 355.16Z" fill="black"/>
<path d="M145.94 360.62C140.865 360.084 135.763 359.836 130.66 359.88C128.11 359.88 125.58 360.09 123.03 360.34C121.82 360.46 120.61 360.6 119.4 360.75C118.19 360.9 116.76 361.27 115.4 361.42C115.26 361.42 115.26 361.65 115.4 361.64C116.66 361.53 117.95 361.64 119.21 361.64L123.02 361.54C125.57 361.48 128.11 361.44 130.66 361.36C135.75 361.18 140.82 361.06 145.92 361.07C146.22 361.04 146.2 360.64 145.94 360.62Z" fill="black"/>
<path d="M77.8301 271.32C39.4701 311.53 -8.22986 395.55 1.21014 412.32C11.7101 430.93 66.5901 374.03 64.8601 371.32C63.3801 368.96 82.9301 317.96 96.8101 280.96C110.69 243.96 87.3101 261.38 77.8301 271.32Z" fill="#FFD3C9"/>
<path d="M30.8301 319.53L85.9101 329.44C85.9101 329.44 99.6601 290.44 102.38 268.75C103.91 256.61 96.7801 256.11 87.8001 262.56C56.3701 285.15 30.8301 319.53 30.8301 319.53Z" fill="#A9C297"/>
<path d="M85.5201 320.43C77.1801 318.2 54.3601 312.81 39.0801 311.25C38.9801 311.25 38.9101 311.59 39.0001 311.61C51.5201 314.83 76.9001 319.44 85.4101 320.94C85.5901 320.96 85.7001 320.47 85.5201 320.43Z" fill="black"/>
<path d="M79.1902 328.24C81.4602 328.46 83.7302 328.72 85.9802 329.03L85.5102 329.31C87.1502 323.31 88.9702 317.37 90.9202 311.47C92.8702 305.57 94.9202 299.72 97.3402 293.95C95.9002 300.01 94.1602 305.95 92.3402 311.95C90.5202 317.95 88.5002 323.78 86.3402 329.61L86.2002 329.96L85.8602 329.89C83.6335 329.37 81.4102 328.82 79.1902 328.24Z" fill="black"/>
<path d="M93.6902 305.82C94.18 304.594 94.8109 303.43 95.5702 302.35C96.3162 301.255 97.1489 300.222 98.0602 299.26C97.9313 299.917 97.7126 300.553 97.4102 301.15C97.1196 301.747 96.7854 302.322 96.4102 302.87C95.6635 303.99 94.7456 304.985 93.6902 305.82Z" fill="black"/>
<path d="M2.45018 413.96C12.8502 425.22 36.8702 424.35 97.5402 427.85C105.94 428.33 125.29 370 116.35 369.02C105.09 367.79 61.1302 365.45 57.8902 365.69C30.5902 367.69 -4.60982 406.34 2.45018 413.96Z" fill="#FFD3C9"/>
<path d="M104.16 367.96C104.16 367.96 129.71 368.32 143.08 372.67C160.98 378.49 174.03 390.88 179.19 396.4C189.96 407.93 208.02 443.25 198.76 450.23C190.37 456.54 173.76 419.51 173.76 419.51C173.76 419.51 196.96 454.51 185.46 460.22C173.96 465.93 157.09 421.87 157.09 421.87C157.09 421.87 180.09 458.33 167.33 462.38C157.66 465.44 140.13 426.38 140.13 426.38C140.13 426.38 159.71 457.85 149.9 461.38C139.06 465.38 120.62 430.28 120.62 430.28C94.1601 435.17 79.5601 426.68 69.8901 419.41C67.5201 417.68 104.16 367.96 104.16 367.96Z" fill="#FFD3C9"/>
<path d="M166.52 406.9C169.4 410.9 172.33 414.95 174.84 419.2C177.35 423.45 179.71 427.79 181.84 432.25C186.99 443.2 188.5 450.86 188.36 450.4C184.93 439.45 176.19 424.09 173.68 419.84C171.17 415.59 168.89 411.23 166.39 406.99C166.25 406.88 166.41 406.8 166.52 406.9Z" fill="black"/>
<path d="M150.97 415.67C154.42 420.95 158.03 426.06 161.25 431.49C164.47 436.92 167.01 442.31 169.83 447.92C170.05 448.35 169.75 448.32 169.51 447.92C166.51 442.42 163.23 437.58 160.13 432.12C157.03 426.66 154.13 421.12 150.84 415.77C150.834 415.761 150.829 415.752 150.826 415.741C150.823 415.731 150.822 415.72 150.824 415.709C150.825 415.699 150.829 415.688 150.834 415.679C150.839 415.67 150.847 415.662 150.855 415.655C150.864 415.648 150.873 415.644 150.884 415.641C150.894 415.638 150.905 415.637 150.916 415.639C150.926 415.64 150.937 415.644 150.946 415.649C150.955 415.654 150.964 415.661 150.97 415.67Z" fill="black"/>
<path d="M136.31 420.81C141.99 428.61 146.22 437.44 150.17 446.2C150.37 446.64 149.98 446.56 149.75 446.13C145.3 437.6 141.87 430.88 136.03 421.01C135.94 420.85 136.19 420.65 136.31 420.81Z" fill="black"/>
<path d="M33.6601 374.96C38.4301 371.91 52.0101 364.63 65.7801 365.76C65.8093 365.76 65.8373 365.772 65.8579 365.792C65.8786 365.813 65.8901 365.841 65.8901 365.87C65.8901 365.899 65.8786 365.927 65.8579 365.948C65.8373 365.968 65.8093 365.98 65.7801 365.98C54.5101 366.5 38.6701 372.52 33.7801 375.13C33.6501 375.19 33.5201 375.02 33.6601 374.96Z" fill="black"/>
<path d="M102.94 266.44C103.68 268.99 116.94 285.1 128.66 283.92C132.49 283.54 131.3 262.52 131.3 262.52L131.57 260.95L135.29 238.95L108.88 223.95L105.08 221.95C105.08 221.95 104.46 228.04 103.76 235.62C103.76 235.98 103.69 236.33 103.66 236.7C103.63 237.07 103.56 237.54 103.53 237.94C103.41 239.07 103.29 240.23 103.2 241.38C103.13 242.26 103.05 243.11 103.01 244.04C102.97 244.97 102.89 245.87 102.83 246.79C102.36 255.96 102.64 265.35 102.94 266.44Z" fill="#FFD3C9"/>
<path d="M103.76 235.59C106.278 241.583 110.07 246.956 114.872 251.337C119.674 255.718 125.372 259.001 131.57 260.96L135.29 238.96L108.88 223.96L105.08 221.96C105.08 221.96 104.46 228.01 103.76 235.59Z" fill="black"/>
<path d="M160.52 196.41C171.75 233.93 150.52 244.89 142.45 247.3C135.11 249.49 109.81 256.02 94.7702 219.86C79.7302 183.7 93.6102 166.62 110.15 160.72C126.69 154.82 149.27 158.89 160.52 196.41Z" fill="#FFD3C9"/>
<path d="M150.64 188.63C149.799 188.958 148.941 189.242 148.07 189.48C147.21 189.908 146.232 190.038 145.29 189.85C145.005 189.734 144.766 189.527 144.611 189.261C144.455 188.995 144.392 188.685 144.43 188.38C144.6 187.788 144.925 187.253 145.372 186.829C145.818 186.405 146.37 186.108 146.97 185.97C148.146 185.507 149.454 185.507 150.63 185.97C150.88 186.091 151.09 186.279 151.238 186.514C151.386 186.748 151.465 187.02 151.466 187.297C151.467 187.574 151.39 187.846 151.244 188.082C151.098 188.317 150.889 188.507 150.64 188.63Z" fill="black"/>
<path d="M127.88 204.87C128.646 204.396 129.387 203.882 130.1 203.33C130.94 202.73 131.68 202.33 132.1 201.33C132.181 201.034 132.16 200.719 132.04 200.436C131.92 200.153 131.709 199.918 131.44 199.77C130.866 199.546 130.243 199.482 129.635 199.584C129.028 199.686 128.459 199.951 127.99 200.35C126.911 201.003 126.113 202.032 125.75 203.24C125.694 203.514 125.716 203.799 125.814 204.061C125.912 204.323 126.082 204.552 126.304 204.723C126.527 204.893 126.792 204.997 127.071 205.023C127.35 205.049 127.63 204.996 127.88 204.87Z" fill="black"/>
<path d="M134.12 206.3C134.07 206.21 133.96 206.48 134 206.58C134.94 209.08 135.59 212.1 133.59 213.71C133.53 213.76 133.59 213.89 133.66 213.85C136.31 212.51 135.41 208.51 134.12 206.3Z" fill="black"/>
<path d="M130.97 204.42C126.8 205.49 129.25 213.75 133.11 212.76C136.97 211.77 134.46 203.53 130.97 204.42Z" fill="black"/>
<path d="M129.52 205.34C128.93 206.02 128.52 207.05 127.63 207.4C126.74 207.75 125.63 207.16 124.73 206.52C124.64 206.45 124.59 206.52 124.62 206.66C125.07 208.25 126.16 209.66 127.92 209.42C129.68 209.18 130.23 207.42 130.15 205.74C130.1 205.43 129.71 205.07 129.52 205.34Z" fill="black"/>
<path d="M148.26 200.89C148.26 200.79 148.5 200.96 148.52 201.06C149.18 203.65 150.37 206.5 152.93 206.68C153.01 206.68 153.04 206.82 152.93 206.83C150.01 207.25 148.52 203.45 148.26 200.89Z" fill="black"/>
<path d="M149.78 197.56C153.78 196.06 156.51 204.23 152.78 205.62C149.05 207.01 146.4 198.82 149.78 197.56Z" fill="black"/>
<path d="M151.66 197.53C152.45 197.75 153.35 198.33 154.14 198.12C154.93 197.91 155.42 196.78 155.71 195.75C155.71 195.64 155.83 195.69 155.87 195.75C156.43 197.3 156.45 199.1 155.05 199.9C153.65 200.7 152.32 199.61 151.43 198.18C151.27 197.96 151.34 197.44 151.66 197.53Z" fill="black"/>
<path d="M141.21 228.07C141.98 228.53 142.81 229.21 143.77 229.07C144.73 228.818 145.624 228.36 146.39 227.73C146.406 227.715 146.426 227.707 146.448 227.706C146.469 227.705 146.491 227.711 146.507 227.725C146.524 227.738 146.536 227.757 146.54 227.778C146.544 227.799 146.541 227.821 146.53 227.84C146.287 228.442 145.885 228.966 145.368 229.357C144.85 229.748 144.235 229.991 143.59 230.06C143.029 230.051 142.482 229.876 142.02 229.558C141.557 229.239 141.199 228.791 140.99 228.27C140.91 228.11 141.1 228.01 141.21 228.07Z" fill="black"/>
<path d="M149.01 215.57C149.01 215.57 150.72 219.21 151.27 221.01C151.32 221.18 150.91 221.39 150.32 221.61C150.32 221.61 150.32 221.61 150.25 221.61C148.793 222.361 147.159 222.701 145.524 222.592C143.888 222.482 142.314 221.929 140.97 220.99C140.937 220.96 140.915 220.919 140.907 220.874C140.9 220.83 140.908 220.784 140.93 220.745C140.952 220.705 140.987 220.674 141.029 220.657C141.07 220.64 141.117 220.638 141.16 220.65C143.934 221.51 146.912 221.451 149.65 220.48C149.65 219.94 146.52 214.34 146.8 214.23C148.231 213.92 149.698 213.806 151.16 213.89C147.83 206.2 143.3 199.11 140.1 191.4C140.079 191.343 140.079 191.281 140.1 191.223C140.12 191.166 140.16 191.118 140.212 191.087C140.264 191.057 140.326 191.045 140.386 191.055C140.445 191.064 140.5 191.094 140.54 191.14C145.81 198.24 149.83 207 153.47 214.85C153.94 215.86 149.83 215.65 149.01 215.57Z" fill="black"/>
<path d="M98.7002 161.69C98.3502 165.02 82.1202 172.27 71.1702 163.2C60.2202 154.13 65.7602 137.45 81.1702 139.86C90.9802 141.39 99.4502 154.64 98.7002 161.69Z" fill="black"/>
<path d="M66.1501 147.86C68.0526 143.848 71.2611 140.601 75.2501 138.65C77.0963 137.703 79.1587 137.257 81.2313 137.357C83.3039 137.457 85.3138 138.099 87.0601 139.22C90.6701 141.41 93.3201 145.04 95.3401 148.91C96.3301 150.89 97.14 152.955 97.7601 155.08C98.4829 157.205 98.8017 159.447 98.7001 161.69C99.2817 159.446 99.3704 157.102 98.9601 154.82C98.6085 152.519 97.9876 150.266 97.1101 148.11C95.4181 143.623 92.3657 139.777 88.3801 137.11C86.2806 135.786 83.8614 135.057 81.3801 135C78.9163 135.016 76.5008 135.686 74.3801 136.94C72.3387 138.106 70.5561 139.675 69.1412 141.553C67.7262 143.43 66.7085 145.576 66.1501 147.86Z" fill="black"/>
<path d="M99.8302 222.83C107.6 220.06 101.83 202.08 101.83 202.08C101.83 202.08 114.18 195.08 116.56 184.28C116.56 184.28 115.56 193.28 111.5 198.28C110.82 199.12 136.67 187.28 132.17 165.85C132.17 165.85 143.05 184.75 156.69 184.71C157.34 184.71 148.58 166.88 143.16 163.9C140.038 162.142 136.7 160.797 133.23 159.9C123.118 156.651 112.134 157.498 102.64 162.26C87.0202 170.26 82.1702 191.26 83.3602 198.78C85.6802 213.56 96.1402 224.14 99.8302 222.83Z" fill="black"/>
<path d="M112.52 198.39C126.9 192.75 135.33 179.39 131.43 164.11C131.417 164.029 131.432 163.945 131.474 163.874C131.515 163.803 131.581 163.75 131.659 163.722C131.736 163.695 131.821 163.695 131.898 163.724C131.975 163.753 132.04 163.808 132.08 163.88C139.25 178.34 126.68 195.04 112.47 198.7C112.12 198.79 112.17 198.53 112.52 198.39Z" fill="black"/>
<path d="M99.5802 221.96C106.1 215.18 104.63 206.8 102.46 198.52C102.4 198.28 102.8 198.13 102.89 198.38C105.73 206.25 107.61 216.45 100.1 222.53C100.023 222.582 99.9288 222.605 99.836 222.594C99.7431 222.583 99.6573 222.538 99.5943 222.469C99.5313 222.4 99.4952 222.311 99.4926 222.217C99.49 222.124 99.5211 222.033 99.5802 221.96Z" fill="black"/>
<path d="M131.24 162.68C131.237 162.661 131.241 162.642 131.25 162.626C131.26 162.609 131.276 162.597 131.294 162.591C131.312 162.585 131.331 162.585 131.349 162.593C131.367 162.6 131.381 162.613 131.39 162.63C136.04 170.39 141.24 184.37 152.68 182.82C152.71 182.814 152.741 182.814 152.772 182.82C152.802 182.826 152.83 182.838 152.856 182.856C152.881 182.873 152.903 182.895 152.92 182.92C152.937 182.946 152.949 182.975 152.955 183.005C152.961 183.035 152.961 183.066 152.955 183.096C152.949 183.127 152.937 183.155 152.92 183.181C152.902 183.206 152.88 183.228 152.855 183.245C152.829 183.262 152.8 183.274 152.77 183.28C141.92 185.75 133.08 171.72 131.24 162.68Z" fill="black"/>
<path d="M84.7501 197.87L82.9801 201.65L95.5201 210.47L99.3201 201.96L84.7501 197.87ZM94.5701 206.61L85.9201 201.24L86.3101 200.35L95.9701 203.63L94.5701 206.61Z" fill="#FEE3C5"/>
<path d="M85.1502 191.23L84.9302 195.4L99.8502 198.85L100.18 189.53L85.1502 191.23ZM97.5402 195.63L87.5202 193.96V192.96L97.7002 192.36L97.5402 195.63Z" fill="#FEE3C5"/>
<path d="M101.57 220.96C101.57 220.96 90.7202 210.72 85.9102 214.83C81.1002 218.94 90.9802 234.99 97.8502 236.04C98.7242 236.239 99.6296 236.259 100.512 236.099C101.394 235.939 102.234 235.601 102.982 235.106C103.73 234.612 104.369 233.971 104.862 233.222C105.355 232.473 105.691 231.632 105.85 230.75L101.57 220.96Z" fill="#FFD3C9"/>
<path d="M88.8601 219.36C88.8363 219.36 88.8134 219.369 88.7965 219.386C88.7796 219.403 88.7701 219.426 88.7701 219.45C88.7701 219.474 88.7796 219.497 88.7965 219.514C88.8134 219.53 88.8363 219.54 88.8601 219.54C93.7001 220.42 96.9201 224.08 99.4601 228.04C97.7801 226.66 95.7901 226.13 93.9001 228.17C93.8001 228.28 93.9501 228.43 94.0701 228.38C94.8049 227.967 95.6498 227.792 96.4881 227.88C97.3264 227.968 98.1168 228.314 98.7501 228.87C99.8056 229.799 100.755 230.842 101.58 231.98C101.88 232.34 102.58 231.98 102.31 231.54L102.25 231.45C101.18 225.72 95.1001 218.67 88.8601 219.36Z" fill="black"/>
<path d="M163.71 212.84C164.061 214.55 164.189 216.297 164.09 218.04C164.028 219.795 163.691 221.53 163.09 223.18C163.09 221.43 163.23 219.73 163.3 218.01C163.37 216.29 163.52 214.58 163.71 212.84Z" fill="black"/>
</svg>
