<svg width="56" height="56" fill="none" xmlns="http://www.w3.org/2000/svg"><rect width="56" height="56" rx="28" fill="#C7594D"/><path d="M15.813 23.397c-.91 1.732-1.623 3.697-2.125 5.861-.979 4.21-.482 7.613 1.476 10.116 2.33 2.978 6.643 4.534 12.82 4.626h.031c6.178-.091 10.491-1.648 12.82-4.626 1.959-2.503 2.456-5.906 1.477-10.116-.503-2.165-1.216-4.13-2.125-5.86 4.817-2.221 5.552-8.933 5.583-9.24a1.042 1.042 0 0 0-.597-1.05c-.18-.083-4.47-2.043-8.348-.546-1.739.67-3.104 1.913-4.07 3.7-.78-.311-1.591-.546-2.424-.699a12.916 12.916 0 0 0-7.087.698c-.965-1.786-2.33-3.029-4.069-3.7-3.877-1.496-8.168.464-8.348.548a1.042 1.042 0 0 0-.597 1.049c.031.307.766 7.019 5.583 9.24Zm21.752-8.888c2.231-.867 4.79-.208 6.01.21-.32 1.676-1.385 5.595-4.462 6.874-1.195-1.771-2.642-3.298-4.488-4.408.723-1.3 1.709-2.199 2.94-2.676Zm-11.522 3.104c4.378-.8 8.828.985 11.74 5.766 1.096 1.791 1.937 3.928 2.5 6.35 2.039 8.773-3.31 12.052-12.283 12.188-5.508-.084-9.274-1.37-11.195-3.826-1.55-1.983-1.917-4.796-1.088-8.361 1.326-5.719 4.544-11.054 10.326-12.117Zm-7.618-3.108c1.236.477 2.225 1.376 2.95 2.68-1.842 1.106-3.308 2.656-4.487 4.407-3.066-1.277-4.138-5.201-4.462-6.875 1.215-.42 3.758-1.077 6-.212Z" fill="#fff"/><path d="M30.96 39.15c2.013-.952 3.065-2.61 2.964-4.668-.13-2.65-1.938-4.41-4.504-5.163a5.031 5.031 0 0 0-2.84 0c-.752.22-1.84.653-2.75 1.46-1.075.951-1.682 2.232-1.754 3.703-.213 4.319 4.963 6.523 8.885 4.668Zm-6.804-4.566c.099-1.998 1.692-2.88 3.01-3.267a2.952 2.952 0 0 1 1.667 0c1.32.388 2.912 1.269 3.01 3.267.06 1.213-.52 2.09-1.773 2.683a4.888 4.888 0 0 1-4.14 0c-1.253-.593-1.833-1.47-1.774-2.683Z" fill="#fff"/><path d="M26.227 35.505a1.042 1.042 0 1 0 0-2.083 1.042 1.042 0 0 0 0 2.083ZM29.773 35.505a1.042 1.042 0 1 0 0-2.083 1.042 1.042 0 0 0 0 2.083ZM20.95 28.317a1.042 1.042 0 1 0 0-2.083 1.042 1.042 0 0 0 0 2.083ZM35.05 28.317a1.042 1.042 0 1 0 0-2.083 1.042 1.042 0 0 0 0 2.083Z" fill="#fff"/></svg>