<svg width="56" height="56" fill="none" xmlns="http://www.w3.org/2000/svg"><rect width="56" height="56" rx="28" fill="#C7594D"/><path d="M32.75 17.625h-17a1.877 1.877 0 0 1-1.875-1.875c0-1.034.841-1.875 1.875-1.875h14.125a.938.938 0 0 0 0-1.875H15.75A3.754 3.754 0 0 0 12 15.75a3.754 3.754 0 0 0 3.75 3.75h1.919c.058.639.177 1.266.352 1.875h-3.209a.938.938 0 0 0 0 1.875h3.96c1.705 3.262 5.189 5.625 9.29 5.625h3.909a2.657 2.657 0 0 1 2.654 2.654c0 1.611-.577 2.006-5.829 5.106a645.4 645.4 0 0 0-1.982 1.174 4.695 4.695 0 0 0-4.439-3.184H20.5a.938.938 0 0 0-.938.938c0 1.531.74 2.894 1.879 3.75a4.683 4.683 0 0 0-1.878 3.75c0 .517.42.937.937.937h1.875a4.696 4.696 0 0 0 4.593-3.75h.275c4.82 0 10.542-.206 13.956-3.617C43.058 34.777 44 32.167 44 28.875c0-6.212-5.058-11.25-11.25-11.25ZM19.553 19.5H29a3.754 3.754 0 0 1 3.75 3.75A3.754 3.754 0 0 1 29 27h-.938c-4.4 0-8.034-3.287-8.509-7.5Zm13.512 7.634a5.606 5.606 0 0 0 1.56-3.884c0-1.434-.54-2.744-1.427-3.74 3.858.184 7.113 2.708 8.37 6.182a5.605 5.605 0 0 1-5.068 3.183c-.308 0-.615-.025-.917-.075a4.54 4.54 0 0 0-2.518-1.666Zm1.224 8.294a7.526 7.526 0 0 0 2.155 1.91c-2.111.726-4.563.946-6.862 1.011l.167-.099c2.096-1.237 3.541-2.09 4.54-2.822ZM21.6 36.5h.776c1.222 0 2.265.784 2.652 1.875h-.777a2.818 2.818 0 0 1-2.652-1.875Zm.776 5.625h-.777a2.819 2.819 0 0 1 2.652-1.876h.777a2.819 2.819 0 0 1-2.652 1.876Zm17.5-6.819c-.365.365-.77.686-1.205.969a5.634 5.634 0 0 1-2.99-2.121c.58-.737.82-1.535.82-2.625 0-.266-.024-.526-.069-.78a7.473 7.473 0 0 0 5.672-2.507c.014.21.022.42.022.633 0 2.815-.736 4.919-2.25 6.431Z" fill="#fff"/><path d="M26.125 23.25a.937.937 0 1 0 0-1.875.937.937 0 0 0 0 1.875Z" fill="#fff"/></svg>