<svg width="258" height="122" viewBox="0 0 258 122" fill="none" xmlns="http://www.w3.org/2000/svg">
<path d="M117.153 6.80469L111.655 7.8254L110.426 13.6168L109.198 7.8254L103.7 6.80469L109.176 5.46594L110.426 0L111.677 5.46594L117.153 6.80469Z" fill="#FFB445"/>
<path d="M40.8289 34.8075L37.7579 35.377L37.0697 38.6166L36.3815 35.377L33.3105 34.8075L36.3741 34.0605L37.0697 31.0057L37.7727 34.0605L40.8289 34.8075Z" fill="#FFB445"/>
<path d="M189.532 36.0131L186.461 36.5826L185.773 39.8223L185.092 36.5826L182.014 36.0131L185.077 35.2661L185.773 32.2114L186.476 35.2661L189.532 36.0131Z" fill="#FFB445"/>
<path d="M233.695 67.3961L230.624 67.9582L229.936 71.1978L229.255 67.9582L226.177 67.3887L229.24 66.6416L229.936 63.5869L230.639 66.6416L233.695 67.3961Z" fill="#FFB445"/>
<path d="M170.314 94.0749L167.243 94.6444L166.555 97.8767L165.867 94.6444L162.796 94.0749L165.852 93.3279L166.555 90.2657L167.251 93.3279L170.314 94.0749Z" fill="#FFB445"/>
<path d="M68.9861 86.2939L65.9151 86.8634L65.2269 90.103L64.5461 86.8634L61.4751 86.2939L64.5313 85.5468L65.2269 82.4921L65.9299 85.5468L68.9861 86.2939Z" fill="#FFB445"/>
<path d="M16.0912 113.986L13.0201 114.556L12.3319 117.788L11.6512 114.556L8.57275 113.986L11.6364 113.239L12.3319 110.177L13.035 113.239L16.0912 113.986Z" fill="#FFB445"/>
<path d="M157.572 75.9759C157.336 75.9759 157.11 76.0694 156.944 76.236C156.777 76.4025 156.684 76.6284 156.684 76.8639C156.684 77.0994 156.777 77.3253 156.944 77.4918C157.11 77.6583 157.336 77.7519 157.572 77.7519C157.807 77.7519 158.033 77.6583 158.2 77.4918C158.366 77.3253 158.46 77.0994 158.46 76.8639C158.46 76.6284 158.366 76.4025 158.2 76.236C158.033 76.0694 157.807 75.9759 157.572 75.9759Z" fill="#FFB445"/>
<path d="M74.9801 63.6313C74.7576 63.6516 74.5508 63.7543 74.4001 63.9193C74.2495 64.0843 74.166 64.2996 74.166 64.523C74.166 64.7464 74.2495 64.9617 74.4001 65.1267C74.5508 65.2917 74.7576 65.3944 74.9801 65.4147C75.2026 65.3944 75.4094 65.2917 75.5601 65.1267C75.7107 64.9617 75.7942 64.7464 75.7942 64.523C75.7942 64.2996 75.7107 64.0843 75.5601 63.9193C75.4094 63.7543 75.2026 63.6516 74.9801 63.6313Z" fill="#FFB445"/>
<path d="M1.30578 120.184C1.08331 120.204 0.876451 120.307 0.725829 120.472C0.575206 120.637 0.491699 120.853 0.491699 121.076C0.491699 121.299 0.575206 121.515 0.725829 121.68C0.876451 121.845 1.08331 121.947 1.30578 121.968C1.52826 121.947 1.73511 121.845 1.88573 121.68C2.03635 121.515 2.11987 121.299 2.11987 121.076C2.11987 120.853 2.03635 120.637 1.88573 120.472C1.73511 120.307 1.52826 120.204 1.30578 120.184Z" fill="#FFB445"/>
<path d="M60.3282 69.9848C60.1614 69.9848 60.0014 70.0511 59.8834 70.169C59.7655 70.287 59.6992 70.447 59.6992 70.6138C59.6992 70.7806 59.7655 70.9406 59.8834 71.0586C60.0014 71.1765 60.1614 71.2428 60.3282 71.2428C60.495 71.2428 60.655 71.1765 60.773 71.0586C60.8909 70.9406 60.9572 70.7806 60.9572 70.6138C60.9572 70.447 60.8909 70.287 60.773 70.169C60.655 70.0511 60.495 69.9848 60.3282 69.9848Z" fill="#FFB445"/>
<path d="M25.1041 76.2347C24.9373 76.2347 24.7773 76.301 24.6593 76.419C24.5414 76.5369 24.4751 76.6969 24.4751 76.8637C24.4751 77.0306 24.5414 77.1906 24.6593 77.3085C24.7773 77.4265 24.9373 77.4927 25.1041 77.4927C25.2709 77.4927 25.4309 77.4265 25.5489 77.3085C25.6668 77.1906 25.7331 77.0306 25.7331 76.8637C25.7331 76.6969 25.6668 76.5369 25.5489 76.419C25.4309 76.301 25.2709 76.2347 25.1041 76.2347Z" fill="#FFB445"/>
<path d="M100.258 13.6168C100.092 13.6168 99.9316 13.683 99.8136 13.801C99.6957 13.9189 99.6294 14.0789 99.6294 14.2458C99.6294 14.4126 99.6957 14.5726 99.8136 14.6905C99.9316 14.8085 100.092 14.8748 100.258 14.8748C100.425 14.8748 100.585 14.8085 100.703 14.6905C100.821 14.5726 100.887 14.4126 100.887 14.2458C100.887 14.0789 100.821 13.9189 100.703 13.801C100.585 13.683 100.425 13.6168 100.258 13.6168Z" fill="#FFB445"/>
<path d="M196.74 47.2556C196.573 47.2556 196.413 47.3219 196.295 47.4398C196.177 47.5578 196.111 47.7178 196.111 47.8846C196.111 48.0514 196.177 48.2114 196.295 48.3294C196.413 48.4473 196.573 48.5136 196.74 48.5136C196.907 48.5136 197.067 48.4473 197.185 48.3294C197.303 48.2114 197.369 48.0514 197.369 47.8846C197.369 47.7178 197.303 47.5578 197.185 47.4398C197.067 47.3219 196.907 47.2556 196.74 47.2556Z" fill="#FFB445"/>
<path d="M255.91 105.266C253.69 105.266 253.69 108.683 255.91 108.683C258.13 108.683 258.108 105.266 255.91 105.266Z" fill="#FFB445"/>
<path d="M145.51 15.9467C143.29 15.9467 143.29 19.3564 145.51 19.3564C147.73 19.3564 147.708 15.9467 145.51 15.9467Z" fill="#FFB445"/>
</svg>
