<svg width="56" height="20" viewBox="0 0 56 20" fill="none" xmlns="http://www.w3.org/2000/svg">
<path d="M24.2765 18.781H19.707L22.5629 1.22981H27.1329L24.2765 18.781ZM15.8629 1.22981L11.5066 13.3016L10.9911 10.7021L10.9915 10.7031L9.45399 2.8101C9.45399 2.8101 9.26808 1.22981 7.28639 1.22981H0.0845072L0 1.527C0 1.527 2.20235 1.98521 4.77981 3.5331L8.74977 18.7815H13.5108L20.7808 1.22981H15.8629ZM51.8042 18.781H56L52.3418 1.22934H48.6685C46.9723 1.22934 46.5592 2.53733 46.5592 2.53733L39.7441 18.781H44.5075L45.4601 16.1739H51.269L51.8042 18.781ZM46.7761 12.5725L49.177 6.00446L50.5277 12.5725H46.7761ZM40.1014 5.45047L40.7535 1.68146C40.7535 1.68146 38.7413 0.916199 36.6437 0.916199C34.3761 0.916199 28.9911 1.90728 28.9911 6.72653C28.9911 11.2608 35.3113 11.3171 35.3113 13.6988C35.3113 16.0805 29.6423 15.6538 27.7714 14.1519L27.092 18.0927C27.092 18.0927 29.1324 19.0838 32.2498 19.0838C35.3681 19.0838 40.0723 17.4693 40.0723 13.0749C40.0723 8.5115 33.6953 8.08662 33.6953 6.10258C33.6958 4.11808 38.146 4.37301 40.1014 5.45047Z" fill="#2566AF"/>
<path d="M10.9916 10.7026L9.45399 2.80962C9.45399 2.80962 9.26808 1.22934 7.28639 1.22934H0.0845072L0 1.52652C0 1.52652 3.4615 2.24389 6.78169 4.93169C9.95634 7.5007 10.9916 10.7026 10.9916 10.7026Z" fill="#E6A540"/>
</svg>
