<svg width="372" height="350" fill="none" xmlns="http://www.w3.org/2000/svg"><g clip-path="url(#a)"><path d="m222.621 209.783-2.964-2.388c2.263-2.817 4.858-6.419 5.268-7.55-.444-2.853-3.109-12.27-4.803-13.582h-11.104v-3.803h11.299c5.392 0 8.376 16.982 8.397 17.156.104.659.298 2.22-6.093 10.167Z" fill="#fff"/><path d="M203.341 234.968c-19.203 0-23.845-12.492-21.951-21.237 1.895-8.744 15.303-16.26 15.462-19.119.16-2.859 0-15.698-.694-16.573-.694-.874-5.087-2.568-6.246-2.568-1.158 0-1.193-1.471 0-1.471h22.139c1.194 0 1.194 1.471 0 1.471s-1.943 1.465-2.151 3.012c-.153 1.09-.368 13.748-.049 16.129.382 2.831 13.554 10.361 15.462 19.119 1.909 8.759-2.776 21.237-21.972 21.237Z" fill="#fff"/><path d="M202.869 232.011c-16.149 0-20.049-10.493-18.46-17.849 1.589-7.357 15.171-15.594 14.907-17.982-.049-.465-.083-9.834-.104-10.812h8.043c0 1.02.056 10.41.111 10.812.327 2.381 12.347 10.612 13.957 17.982 1.61 7.37-2.311 17.849-18.454 17.849Z" fill="#A9C297"/><path d="m-11 234.5 55.373-.24 55.382-.09L210.5 234l110.745.17 55.383.08 55.372.25-55.372.24-55.383.09L210.5 235l-110.745-.17-55.382-.09L-11 234.5Z" fill="#000"/><path d="M318.895 269.603v.163c0 .028 0 .109-.034.185v.122a2.034 2.034 0 0 0-.048.266c0 .062 0 .123-.034.191s-.048.287-.082.45c-.034.164-.102.553-.157.88l-.307 1.664c-.034.178-.068.368-.102.566-.034.198-.096.532-.15.812-.055.279-.109.627-.171.961-.041.232-.088.471-.129.717-.13.729-.266 1.507-.423 2.339a.208.208 0 0 0 0 .061c-.164.928-.341 1.923-.532 2.967-.048.273-.102.545-.157.818-.055.273-.109.573-.157.86 0 .177-.061.361-.102.545a780.96 780.96 0 0 1-.839 4.611c-.102.545-.198 1.098-.3 1.657a1478.15 1478.15 0 0 1-.614 3.362c-.054.266-.102.532-.143.805a869.082 869.082 0 0 0-.948 5.21c-.041.184-.068.369-.102.553-.157.845-.314 1.698-.464 2.571a1.1 1.1 0 0 0-.041.204l-.225 1.242a1890.574 1890.574 0 0 1-1.166 6.417c-.157.88-.321 1.767-.485 2.66-.204 1.112-.409 2.23-.613 3.369-.205 1.139-.41 2.278-.621 3.41-.109.58-.211 1.16-.32 1.739-.123.682-.253 1.364-.376 2.094h-58.945a6013.058 6013.058 0 0 1 13.401-54.56l55.386.089Z" fill="#666"/><path d="M309.988 276.423a12737.676 12737.676 0 0 1-8.948 47.74h-.832c3.13-15.952 6.356-31.877 9.548-47.809.061-.15.252-.088.232.069Z" fill="#000"/><path d="M318.888 269.603v.163c0 .028 0 .109-.034.185v.122a2.034 2.034 0 0 0-.048.266c0 .062 0 .123-.034.191s-.055.287-.082.45c-.027.164-.102.553-.157.88-.095.484-.191 1.037-.307 1.664-.034.177-.068.368-.102.566-.034.198-.095.532-.15.812-.055.279-.109.627-.171.961-.04.232-.088.471-.129.717-.137.729-.273 1.507-.423 2.339a.208.208 0 0 0 0 .061l-.539 2.953c-.054.273-.102.553-.15.832-.048.28-.109.573-.157.86-.041.177-.068.361-.102.545-.266 1.446-.546 2.987-.839 4.611-.102.545-.198 1.098-.3 1.657a383.323 383.323 0 0 0-.614 3.362c-.054.266-.102.532-.143.805-.314 1.678-.63 3.414-.948 5.21-.041.184-.068.369-.102.553-.157.845-.314 1.698-.464 2.571a1.1 1.1 0 0 0-.041.204l-.225 1.242c-.305 1.664-.614 3.366-.927 5.108-.082.43-.164.866-.239 1.309-.164.88-.321 1.767-.484 2.66-.205 1.112-.41 2.23-.614 3.369-.205 1.139-.416 2.278-.621 3.41-.109.58-.211 1.16-.32 1.739-.123.682-.253 1.364-.382 2.094h-29.579l-2.366-24.225-.082-.859-.095-.927-.464-4.74-.403-4.092-1.923-19.628h44.76Z" fill="#000"/><path d="M352.381 324.163h-63.569a2050.17 2050.17 0 0 0-.369-16.853v-.388s-7.42-4.392-11.416-7.836a14.12 14.12 0 0 1-1.869-1.855c-2.557-3.26-5.122-15.796-10.428-27.587h77.748c12.631 24.511 11.744 44.207 9.903 54.519Z" fill="#666"/><path d="M273.303 296.364c3.785 1.548 7.188 3.929 10.544 6.227 3.485 2.38 6.683 5.135 10.039 7.693.129.102 0 .314-.137.218-3.532-2.257-7.236-4.242-10.734-6.567-3.499-2.326-6.93-4.454-9.883-7.298-.116-.109.014-.341.171-.273Z" fill="#000"/><path d="M272.826 274.493c.45 2.421 1.036 4.821 1.561 7.229.491 2.257.853 4.556 1.446 6.82a11.539 11.539 0 0 0 3.165 5.688c.886.825 1.862 1.555 2.81 2.305.504.409 1.057.798 1.589 1.214-.075-.321-.13-.682-.185-.975a317 317 0 0 1-.47-2.728c-.341-2.046-.682-4.092-.982-6.138-.614-4.017-1.18-8.075-2.046-12.051a.13.13 0 0 1 .013-.1.128.128 0 0 1 .079-.061.132.132 0 0 1 .16.092c1.003 3.942 2.107 7.843 2.974 11.819.429 1.944 1.957 11.594 2.046 12.276.088.682.122 1.412.15 2.115a8.236 8.236 0 0 1 0 2.162.182.182 0 0 1-.164.109.18.18 0 0 1-.164-.109 8.792 8.792 0 0 1-.613-2.087 26.872 26.872 0 0 1-.457-2.087c-.041-.246-.075-.505-.11-.764-.948-.58-1.834-1.364-2.728-1.978a37.493 37.493 0 0 1-2.83-2.128 10.864 10.864 0 0 1-3.458-5.401 39.562 39.562 0 0 1-1.132-6.916c-.307-2.728-.525-5.456-.907-8.184-.02-.238.225-.286.253-.122ZM337.513 291.352c-1.009-.525-4.944.409-12.098-.812a8.118 8.118 0 0 1-3.861-1.569c-1.868-1.52-3.28-3.969-4.405-6.062a31.118 31.118 0 0 1-3.083-7.502c-.034-.164-.266-.082-.239.068.266 1.48.416 2.96.805 4.426a27.312 27.312 0 0 0 1.48 4.017c1.085 2.428 2.346 5.033 4.522 6.677 2.284 1.718 5.456 2.046 8.238 2.237 1.603.109 7.884-.062 8.723-.955a.356.356 0 0 0-.082-.525Z" fill="#000"/><path d="M280.3 185.662c-5.551 10.285-53.523 86.232-60.213 85.987-19.69-.682-38.192-5.77-33.289-20.767 5.654-17.425 57.895-59.832 83.627-77.244 18.434-12.473 15.352 1.849 9.875 12.024Z" fill="#FFD3C9"/><path d="m261.825 220.294-37.121-12.753s30.553-26.114 45.23-34.598c15.304-8.866 22.206-5.265 10.4 14.942-11.628 19.915-18.509 32.409-18.509 32.409Z" fill="#FFB445"/><path d="M269.988 179.088a.636.636 0 0 1-.163.5.656.656 0 0 1-.481.214.644.644 0 0 1-.481-.214.642.642 0 0 1-.164-.5.65.65 0 0 1 1.079-.415.644.644 0 0 1 .21.415ZM279.816 179.088a.654.654 0 0 1-.381.658.647.647 0 1 1 .381-.658ZM274.899 171.524a.653.653 0 0 1-.645.582.65.65 0 0 1-.616-.849.663.663 0 0 1 .353-.391.647.647 0 0 1 .908.658ZM284.726 171.524a.647.647 0 1 1-1.26-.267.656.656 0 0 1 .616-.447.644.644 0 0 1 .481.214.634.634 0 0 1 .135.233c.028.086.038.177.028.267ZM250.327 193.996a.65.65 0 0 1-.773.643.65.65 0 0 1-.231-1.178.657.657 0 0 1 .816.082c.12.12.188.283.188.453ZM260.154 193.996a.658.658 0 0 1-.106.363.653.653 0 0 1-.667.28.65.65 0 0 1-.231-1.178.658.658 0 0 1 .816.082c.12.12.188.283.188.453ZM269.988 193.996a.64.64 0 0 1-.163.501.656.656 0 0 1-.481.213.656.656 0 0 1-.616-.446.65.65 0 0 1 1.05-.682.644.644 0 0 1 .21.414ZM255.244 186.433a.653.653 0 0 1-.382.658.644.644 0 0 1-.744-.158.634.634 0 0 1-.135-.233c-.028-.086-.038-.177-.028-.267a.647.647 0 0 1 1.289 0ZM265.071 186.433a.653.653 0 0 1-.163.5.643.643 0 0 1-.481.214.648.648 0 1 1 .644-.714ZM274.899 186.433a.645.645 0 0 1-.397.604.645.645 0 0 1-.709-.139.65.65 0 0 1 .465-1.106.648.648 0 0 1 .641.641ZM230.644 208.905a.68.68 0 0 1-.348.566l-.886-.307a.777.777 0 0 1-.048-.252.656.656 0 0 1 .163-.501.656.656 0 0 1 .481-.214.648.648 0 0 1 .645.715l-.007-.007ZM240.499 208.905a.65.65 0 0 1-1.079.414.644.644 0 0 1-.182-.682.65.65 0 0 1 .879-.391.656.656 0 0 1 .353.391.656.656 0 0 1 .029.268ZM250.326 208.905a.644.644 0 0 1-.644.581.65.65 0 0 1-.481-1.082.656.656 0 0 1 .481-.214.644.644 0 0 1 .481.214.65.65 0 0 1 .163.501ZM260.154 208.905a.644.644 0 0 1-.645.581.646.646 0 0 1-.615-.849.656.656 0 0 1 .615-.447.648.648 0 0 1 .645.715ZM235.582 201.341a.65.65 0 0 1-.773.643.65.65 0 0 1-.472-.887.65.65 0 0 1 1.055-.207c.12.12.188.282.19.451ZM244.768 201.982a.641.641 0 1 0 0-1.282.641.641 0 0 0 0 1.282ZM254.596 201.982a.641.641 0 1 0 0-1.282.641.641 0 0 0 0 1.282ZM265.071 201.341a.656.656 0 0 1-.163.501.656.656 0 0 1-.481.214.648.648 0 1 1 .644-.715ZM254.596 216.898a.641.641 0 1 0 0-1.282.641.641 0 0 0 0 1.282ZM264.437 215.609c-.198.348-.382.682-.552.995a.614.614 0 0 1-.103-.347.64.64 0 0 1 .641-.648h.014Z" fill="#fff"/><path d="M261.518 213.044c-.846-.402-1.759-.682-2.639-1.016l-2.728-1.009c-1.835-.682-3.676-1.364-5.524-1.971-3.69-1.282-7.373-2.571-11.083-3.792-1.023-.334-2.046-.682-3.076-.975-1.03-.294-2.182-.573-3.267-.894-.061 0-.088.075 0 .103.908.341 1.787.763 2.688 1.111.9.348 1.855.682 2.789 1.037 1.819.664 3.665 1.307 5.538 1.93 3.642 1.234 7.284 2.482 10.953 3.642l3.069.955c1.07.341 2.148.743 3.246.982.048.007.089-.075.034-.103Z" fill="#000"/><path d="M280.335 187.892c-11.629 19.908-18.51 32.402-18.51 32.402l-11.867-4.092 34.564-47.283c3.144 1.719 2.332 7.809-4.187 18.973Z" fill="#000"/><path d="M257.658 282.67h92.002s-14.056-87.787-47.965-117.809c-4.188-3.71-13.64-2.864-19.813.198-2.202 1.098-10.107 12.153-12.364 22.615-2.258 10.462-12.106 94.682-11.86 94.996Z" fill="#FFB445"/><path d="M289.644 164.179a.66.66 0 0 1-.164.501.653.653 0 0 1-.481.213.656.656 0 0 1-.616-.446.649.649 0 0 1 1.05-.683.655.655 0 0 1 .211.415Zm9.186-.641a.654.654 0 0 0-.604.397.645.645 0 0 0 .139.709.653.653 0 0 0 .71.139.642.642 0 0 0 .396-.604.638.638 0 0 0-.627-.641h-.014Zm-19.662 14.909a.644.644 0 0 0-.581.644.646.646 0 0 0 .849.616.65.65 0 0 0 .391-.879.656.656 0 0 0-.391-.353c-.086-.028-.178-.038-.268-.028Zm9.828 0a.647.647 0 1 0 .267 1.26.643.643 0 0 0 .447-.616.644.644 0 0 0-.214-.481.634.634 0 0 0-.233-.135c-.086-.028-.177-.038-.267-.028Zm9.834 0a.651.651 0 0 0-.642.772.652.652 0 0 0 .177.334.652.652 0 0 0 1-.103.639.639 0 0 0 .106-.362.642.642 0 0 0-.627-.641h-.014Zm9.828 0a.642.642 0 0 0-.604.396.653.653 0 0 0 .472.887.645.645 0 0 0 .667-.28.65.65 0 0 0-.535-1.003Zm-24.552-7.571a.66.66 0 0 0-.5.164.644.644 0 0 0 0 .962.638.638 0 0 0 .5.163.649.649 0 0 0 .415-1.078.655.655 0 0 0-.415-.211Zm9.828 0a.652.652 0 0 0-.604.396.648.648 0 1 0 .583-.396h.021Zm9.827 0a.644.644 0 0 0-.598.4.65.65 0 0 0 .472.884.647.647 0 1 0 .106-1.284h.02Zm-34.4 22.506a.65.65 0 1 0 .268 1.261.65.65 0 0 0 .391-.879.656.656 0 0 0-.391-.353.66.66 0 0 0-.268-.029Zm9.828 0a.653.653 0 0 0-.582.645.65.65 0 0 0 .849.616.656.656 0 0 0 .447-.616.644.644 0 0 0-.214-.481.653.653 0 0 0-.5-.164Zm9.827 0a.65.65 0 0 0-.122 1.285.65.65 0 0 0 .77-.644.644.644 0 0 0-.408-.625.641.641 0 0 0-.26-.043l.02.027Zm9.835 0a.65.65 0 0 0-.643.773.65.65 0 0 0 1.178.231.658.658 0 0 0 .106-.363.636.636 0 0 0-.394-.619.653.653 0 0 0-.254-.049l.007.027Zm9.827 0a.65.65 0 0 0-.464 1.106.65.65 0 0 0 .709.14.651.651 0 0 0 .396-.605.645.645 0 0 0-.661-.668l.02.027Zm9.828 0a.645.645 0 0 0-.604.397.65.65 0 0 0 1.139.607.658.658 0 0 0 .106-.363.645.645 0 0 0-.661-.668l.02.027Zm-44.214-7.59a.642.642 0 0 0-.604.396.65.65 0 1 0 .604-.396Zm9.828 0a.642.642 0 0 0-.604.396.647.647 0 0 0 1.138.607.645.645 0 0 0-.314-.963.65.65 0 0 0-.255-.04h.035Zm9.827 0a.651.651 0 0 0-.642.772.64.64 0 0 0 .511.511.646.646 0 0 0 .772-.642.634.634 0 0 0-.199-.466.647.647 0 0 0-.476-.175h.034Zm9.828 0a.647.647 0 1 0 .267 1.26.643.643 0 0 0 .447-.616.647.647 0 0 0-.447-.616c-.086-.028-.177-.038-.267-.028Zm9.827 0a.644.644 0 0 0-.581.644.65.65 0 0 0 1.082.481.656.656 0 0 0 .214-.481.647.647 0 0 0-.447-.616c-.086-.028-.177-.038-.268-.028Zm-44.227 22.472a.648.648 0 1 0 .224.039.629.629 0 0 0-.258-.039h.034Zm9.827 0a.644.644 0 0 0-.573.422.647.647 0 1 0 1.255.226.633.633 0 0 0-.055-.265.637.637 0 0 0-.392-.355.644.644 0 0 0-.269-.028h.034Zm9.828 0a.65.65 0 0 0-.599.4.646.646 0 0 0 .141.706.649.649 0 1 0 .424-1.106h.034Zm9.834 0a.636.636 0 0 0-.5.163.656.656 0 0 0-.214.481.644.644 0 0 0 .214.481.642.642 0 0 0 .5.164.65.65 0 0 0 .415-1.079.644.644 0 0 0-.415-.21Zm9.828 0a.636.636 0 0 0-.5.163.644.644 0 0 0 0 .962.653.653 0 0 0 .5.164.653.653 0 0 0 .582-.645.65.65 0 0 0-.582-.644Zm9.828 0a.639.639 0 0 0-.501.163.656.656 0 0 0-.214.481.644.644 0 0 0 .214.481.65.65 0 0 0 .915-.047.646.646 0 0 0-.414-1.078Zm9.827 0a.644.644 0 0 0-.573.422.647.647 0 1 0 1.255.226.633.633 0 0 0-.055-.265.637.637 0 0 0-.392-.355c-.087-.028-.178-.038-.269-.028h.034Zm-54.055-7.543a.642.642 0 0 0-.604.396.65.65 0 1 0 .604-.396Zm9.828 0a.642.642 0 0 0-.604.396.647.647 0 0 0 1.138.607.647.647 0 0 0-.569-1.003h.035Zm9.827 0a.651.651 0 0 0-.642.772.64.64 0 0 0 .511.511.646.646 0 0 0 .772-.642.634.634 0 0 0-.199-.466.647.647 0 0 0-.476-.175h.034Zm9.828 0a.647.647 0 1 0 .267 1.26.643.643 0 0 0 .447-.616.644.644 0 0 0-.214-.481.634.634 0 0 0-.233-.135c-.086-.028-.177-.038-.267-.028Zm9.827 0a.644.644 0 0 0-.581.644.65.65 0 0 0 1.082.481.656.656 0 0 0 .214-.481.644.644 0 0 0-.214-.481.642.642 0 0 0-.233-.135c-.086-.028-.177-.038-.268-.028Zm9.794 0a.642.642 0 0 0-.604.396.65.65 0 1 0 .604-.396Zm-54.062 22.506a.648.648 0 1 0 .648.648.66.66 0 0 0-.382-.647.663.663 0 0 0-.259-.056l-.007.055Zm9.827 0a.644.644 0 0 0-.596.794.643.643 0 0 0 .886.448.646.646 0 0 0 .392-.594.655.655 0 0 0-.405-.657.641.641 0 0 0-.27-.046l-.007.055Zm9.828 0a.65.65 0 0 0-.599.4.646.646 0 0 0 .141.706.653.653 0 0 0 .706.14.652.652 0 0 0 .4-.598.64.64 0 0 0-.167-.492.636.636 0 0 0-.474-.211l-.007.055Zm9.835 0a.639.639 0 0 0-.501.163.656.656 0 0 0-.214.481.64.64 0 0 0 .214.481.642.642 0 0 0 .501.164.65.65 0 0 0 .414-1.079.644.644 0 0 0-.414-.21Zm9.827 0a.636.636 0 0 0-.5.163.643.643 0 0 0-.214.481.64.64 0 0 0 .214.481.653.653 0 0 0 .5.164.653.653 0 0 0 .582-.645.65.65 0 0 0-.582-.644Zm9.828 0a.64.64 0 0 0-.501.163.656.656 0 0 0-.214.481.657.657 0 0 0 .214.481.65.65 0 0 0 .915-.047.644.644 0 0 0 0-.868.644.644 0 0 0-.414-.21Zm9.827 0a.644.644 0 0 0-.573.422.647.647 0 1 0 1.255.226.655.655 0 0 0-.405-.657.641.641 0 0 0-.27-.046l-.007.055Zm-54.014-7.618a.64.64 0 0 0-.603.395.643.643 0 0 0 .136.708.644.644 0 0 0 .998-.095.642.642 0 0 0 .11-.36.64.64 0 0 0-.641-.648Zm9.828 0a.639.639 0 0 0-.501.163.656.656 0 0 0-.214.481.64.64 0 0 0 .214.481.65.65 0 0 0 .915-.047.644.644 0 0 0 0-.868.644.644 0 0 0-.414-.21Zm9.827 0a.64.64 0 0 0-.603.395.65.65 0 0 0 .136.708.647.647 0 0 0 1.108-.455.659.659 0 0 0-.049-.256.651.651 0 0 0-.368-.353.631.631 0 0 0-.258-.039h.034Zm9.828 0a.648.648 0 1 0 .597.39.64.64 0 0 0-.631-.39h.034Zm9.827 0a.644.644 0 0 0-.596.794.643.643 0 0 0 .886.448.646.646 0 0 0 .392-.594.635.635 0 0 0-.446-.622.633.633 0 0 0-.27-.026h.034Zm9.835 0a.656.656 0 0 0-.604.395.65.65 0 0 0 .468.888.65.65 0 0 0 .355-1.246.642.642 0 0 0-.26-.037h.041Zm-54.062 22.506a.647.647 0 1 0 .267 1.26.634.634 0 0 0 .233-.135.64.64 0 0 0 .158-.744.643.643 0 0 0-.658-.381Zm9.827 0a.644.644 0 0 0-.581.644.65.65 0 0 0 1.082.481.647.647 0 0 0-.233-1.097c-.086-.028-.177-.038-.268-.028Zm9.828 0a.647.647 0 0 0 0 1.289.66.66 0 0 0 .5-.164.64.64 0 0 0 .158-.744.652.652 0 0 0-.39-.353c-.087-.028-.178-.038-.268-.028Zm9.834 0a.64.64 0 0 0-.604.397.65.65 0 0 0 .473.886.646.646 0 0 0 .773-.642.657.657 0 0 0-.185-.479.651.651 0 0 0-.477-.19l.02.028Zm9.828 0a.648.648 0 1 0 .641.641.648.648 0 0 0-.675-.669l.034.028Zm9.828 0a.642.642 0 0 0-.604.397.642.642 0 0 0 .139.709.646.646 0 0 0 1.106-.465.648.648 0 0 0-.675-.669l.034.028Zm9.827 0a.644.644 0 0 0-.581.644.65.65 0 0 0 1.082.481.647.647 0 0 0-.233-1.097c-.086-.028-.177-.038-.268-.028Zm9.828 0a.647.647 0 1 0 .267 1.26.634.634 0 0 0 .233-.135.64.64 0 0 0 .158-.744.643.643 0 0 0-.658-.381Zm-73.717-7.57a.646.646 0 0 0-.636.774.653.653 0 0 0 .509.509.647.647 0 0 0 .774-.636.644.644 0 0 0-.417-.633.645.645 0 0 0-.265-.042l.035.028Zm9.834 0a.642.642 0 0 0-.658.381.644.644 0 0 0 .158.744.638.638 0 0 0 .5.164.65.65 0 0 0 0-1.289Zm9.828 0a.639.639 0 0 0-.501.163.656.656 0 0 0-.214.481.644.644 0 0 0 .214.481.65.65 0 0 0 .915-.047.646.646 0 0 0-.414-1.078Zm9.827 0a.648.648 0 1 0 .641.647.65.65 0 0 0-.412-.631.64.64 0 0 0-.263-.044l.034.028Zm9.828 0a.648.648 0 1 0 .648.647.644.644 0 0 0-.417-.633.65.65 0 0 0-.265-.042l.034.028Zm9.827 0a.644.644 0 0 0-.596.793.643.643 0 0 0 .886.449.647.647 0 0 0 .392-.595.64.64 0 0 0-.202-.502.65.65 0 0 0-.514-.173l.034.028Zm9.835 0a.642.642 0 0 0-.659.381.66.66 0 0 0 0 .526.656.656 0 0 0 .391.353.655.655 0 0 0 .683-.182.65.65 0 0 0-.415-1.078Zm9.828 0a.639.639 0 0 0-.501.163.656.656 0 0 0-.214.481.644.644 0 0 0 .214.481.642.642 0 0 0 .501.164.65.65 0 0 0 .414-1.079.644.644 0 0 0-.414-.21Zm-63.89 22.506a.647.647 0 1 0 .267 1.26.643.643 0 0 0 .447-.616.644.644 0 0 0-.214-.481.634.634 0 0 0-.233-.135c-.086-.028-.177-.038-.267-.028Zm9.827 0a.644.644 0 0 0-.581.644.646.646 0 0 0 .849.616.65.65 0 0 0 .391-.879.656.656 0 0 0-.391-.353c-.086-.028-.177-.038-.268-.028Zm9.828 0a.647.647 0 0 0 0 1.289.66.66 0 0 0 .5-.164.644.644 0 0 0 0-.962.638.638 0 0 0-.232-.135c-.087-.028-.178-.038-.268-.028Zm9.834 0a.651.651 0 0 0-.642.772.646.646 0 0 0 .887.473.651.651 0 0 0 .397-.604.652.652 0 0 0-.175-.497.629.629 0 0 0-.487-.199l.02.055Zm9.828 0a.651.651 0 0 0-.643.772.653.653 0 0 0 .512.511.642.642 0 0 0 .666-.28.654.654 0 0 0 .106-.362.653.653 0 0 0-.181-.5.65.65 0 0 0-.494-.196l.034.055Zm9.828 0a.642.642 0 0 0-.604.396.647.647 0 0 0 1.138.607.647.647 0 0 0 .107-.362.653.653 0 0 0-.181-.5.65.65 0 0 0-.494-.196l.034.055Zm9.827 0a.644.644 0 0 0-.581.644.646.646 0 0 0 .849.616.65.65 0 0 0 .391-.879.656.656 0 0 0-.391-.353c-.086-.028-.177-.038-.268-.028Zm9.828 0a.647.647 0 1 0 .267 1.26.643.643 0 0 0 .447-.616.644.644 0 0 0-.214-.481.634.634 0 0 0-.233-.135c-.086-.028-.177-.038-.267-.028Zm-73.717-7.571a.64.64 0 0 0-.36.11.645.645 0 0 0-.099.996.647.647 0 0 0 1.106-.458.652.652 0 0 0-.41-.659.646.646 0 0 0-.272-.043l.035.054Zm9.834 0a.66.66 0 0 0-.5.164.64.64 0 0 0-.158.744.638.638 0 0 0 .658.381.649.649 0 0 0 .415-1.078.655.655 0 0 0-.415-.211Zm9.828 0a.656.656 0 0 0-.501.164.656.656 0 0 0-.214.481.644.644 0 0 0 .214.481.65.65 0 0 0 .233.135c.086.028.177.038.268.028a.644.644 0 0 0 .581-.644.646.646 0 0 0-.581-.645Zm9.827 0a.65.65 0 0 0-.136 1.283.645.645 0 0 0 .777-.635.656.656 0 0 0-.178-.504.65.65 0 0 0-.497-.198l.034.054Zm9.828 0a.642.642 0 0 0-.36.11.645.645 0 0 0-.098.996.644.644 0 0 0 .997-.098.648.648 0 0 0 .109-.36.652.652 0 0 0-.41-.659.65.65 0 0 0-.272-.043l.034.054Zm9.827 0a.653.653 0 0 0-.573.423.644.644 0 0 0 .161.694.65.65 0 0 0 .987-.113.642.642 0 0 0 .107-.356.645.645 0 0 0-.433-.67c-.091-.032-.187-.043-.283-.032l.034.054Zm9.835 0a.66.66 0 0 0-.501.164.656.656 0 0 0-.213.481.656.656 0 0 0 .446.616.649.649 0 0 0 .683-1.05.655.655 0 0 0-.415-.211Zm9.828 0a.656.656 0 0 0-.501.164.656.656 0 0 0-.214.481.644.644 0 0 0 .214.481.642.642 0 0 0 .233.135c.086.028.177.038.268.028a.644.644 0 0 0 .581-.644.646.646 0 0 0-.581-.645Zm-73.718 22.506a.676.676 0 0 0-.286.069l-.123 1.07a.608.608 0 0 0 .409.15.647.647 0 0 0 0-1.289Zm9.828 0a.653.653 0 0 0-.582.645.65.65 0 0 0 .849.616.643.643 0 0 0 .447-.616.64.64 0 0 0-.214-.481.653.653 0 0 0-.5-.164Zm9.827 0a.65.65 0 0 0-.414 1.079.644.644 0 0 0 .682.182.65.65 0 0 0 .391-.879.656.656 0 0 0-.391-.353.656.656 0 0 0-.268-.029Zm9.828 0a.654.654 0 0 0-.635.777.656.656 0 0 0 .179.332.652.652 0 0 0 .998-.106.652.652 0 0 0 .106-.362.636.636 0 0 0-.682-.722l.034.081Zm9.834 0a.65.65 0 0 0-.464 1.106.65.65 0 0 0 .709.139.643.643 0 0 0 .397-.604.641.641 0 0 0-.662-.722l.02.081Zm9.828 0a.645.645 0 0 0-.604.397.65.65 0 0 0 1.139.607.658.658 0 0 0 .106-.363.647.647 0 0 0-.675-.722l.034.081Zm9.828 0a.65.65 0 0 0-.643.773.65.65 0 0 0 .887.472.65.65 0 0 0 .397-.604.65.65 0 0 0-.675-.722l.034.081Zm9.827 0a.65.65 0 0 0-.414 1.079.644.644 0 0 0 .682.182.65.65 0 0 0 .391-.879.656.656 0 0 0-.391-.353.656.656 0 0 0-.268-.029Zm9.828 0a.653.653 0 0 0-.582.645.65.65 0 0 0 .849.616.643.643 0 0 0 .447-.616.64.64 0 0 0-.214-.481.653.653 0 0 0-.5-.164Zm-73.752-7.645a.65.65 0 0 0-.414 1.079.644.644 0 0 0 .682.181.654.654 0 0 0 .391-.352.647.647 0 0 0-.659-.908Zm9.835 0a.658.658 0 0 0-.363.106.653.653 0 0 0-.28.667.65.65 0 0 0 1.178.231.658.658 0 0 0-.07-.804.639.639 0 0 0-.431-.2h-.034Zm9.827 0a.648.648 0 1 0-.012 1.296.648.648 0 0 0 .012-1.296Zm9.828 0a.652.652 0 0 0-.604.397.645.645 0 0 0 .139.709.65.65 0 1 0 .465-1.106Zm9.828 0a.653.653 0 0 0-.582.645.65.65 0 0 0 .582.644.646.646 0 0 0 .267-1.26.653.653 0 0 0-.267-.029Zm9.827 0a.65.65 0 0 0-.414 1.079.644.644 0 0 0 .682.181.656.656 0 0 0 .447-.615.648.648 0 0 0-.715-.645Zm9.835 0a.658.658 0 0 0-.363.106.653.653 0 0 0-.28.667.65.65 0 0 0 1.178.231.658.658 0 0 0-.084-.819.66.66 0 0 0-.458-.185h.007Zm9.827 0a.648.648 0 1 0-.012 1.296.648.648 0 0 0 .012-1.296Zm9.828 0a.652.652 0 0 0-.604.397.65.65 0 0 0 1.139.607.649.649 0 0 0-.535-1.004Zm-78.635 14.909a.644.644 0 0 0-.581.644.646.646 0 0 0 .849.616.642.642 0 0 0 .391-.353.644.644 0 0 0-.158-.744.642.642 0 0 0-.233-.135c-.086-.028-.177-.038-.268-.028Zm9.835 0a.642.642 0 0 0-.604.396.65.65 0 1 0 .638-.396h-.034Zm9.827 0a.651.651 0 0 0-.642.772.65.65 0 1 0 1.094-.583.648.648 0 0 0-.452-.189Zm9.828 0a.651.651 0 0 0-.642.772.64.64 0 0 0 .511.511.642.642 0 0 0 .666-.28.639.639 0 0 0 .106-.362.632.632 0 0 0-.188-.454.64.64 0 0 0-.453-.187Zm9.828 0a.647.647 0 1 0 .267 1.26.656.656 0 0 0 .447-.616.644.644 0 0 0-.214-.481.634.634 0 0 0-.233-.135c-.086-.028-.177-.038-.267-.028Zm9.827 0a.644.644 0 0 0-.581.644.646.646 0 0 0 .849.616.65.65 0 0 0 .391-.879.656.656 0 0 0-.391-.353c-.086-.028-.177-.038-.268-.028Zm9.835 0a.642.642 0 0 0-.604.396.647.647 0 0 0 .848.849.648.648 0 0 0-.251-1.245h.007Zm9.827 0a.651.651 0 0 0-.642.772.642.642 0 0 0 .511.511.646.646 0 0 0 .772-.642.644.644 0 0 0-.641-.641Zm9.828 0a.651.651 0 0 0-.643.772.65.65 0 1 0 .643-.772Z" fill="#fff"/><path d="m341.305 245.187-40.824-81.158c.434.245.841.536 1.214.866 19.246 17.002 32.095 52.644 39.61 80.292ZM268.747 191.998a78.47 78.47 0 0 0-1.732 7.195v-.286c-.041-1.364-.048-2.763-.191-4.092 0-.069-.123-.089-.136 0a21.118 21.118 0 0 0-.116 4.153c.041.682.082 1.303.136 1.957a69.492 69.492 0 0 0-.491 3.267c-.259 2.046-.955 9.746-1.009 11.274 0 .327.354.375.443.04.416-1.541 1.521-9.466 1.869-11.505a111.71 111.71 0 0 0 1.364-11.949c.027-.136-.109-.136-.137-.054Z" fill="#000"/><path d="M309.756 165.823c23.686 7.127 82.351 27.123 86.061 40.238 2.728 9.63-41.145 13.408-42.481 11.901-1.051-1.194-42.891-25.978-58.168-42.032-13.272-13.94 7.024-12.385 14.588-10.107Z" fill="#FFD3C9"/><path d="m329.704 204.813 29.19-23.004s-37.462-14.554-54.124-17.732c-17.363-3.294-22.696 2.366-4.883 17.541 17.562 14.936 29.817 23.195 29.817 23.195Z" fill="#FFB445"/><path d="M299.471 164.179a.642.642 0 0 1-.396.604.65.65 0 1 1 .207-1.055c.119.12.188.282.189.451Zm-.627 14.268a.642.642 0 0 0-.604.396.653.653 0 0 0 .472.887.645.645 0 0 0 .667-.28.654.654 0 0 0-.082-.816.64.64 0 0 0-.453-.187Zm9.828 0a.642.642 0 0 0-.605.396.654.654 0 0 0 .14.71.649.649 0 1 0 .451-1.106h.014Zm9.827 0a.651.651 0 0 0-.642.772.644.644 0 0 0 .886.473.648.648 0 0 0-.257-1.245h.013Zm9.828 0a.647.647 0 1 0 .267 1.26.643.643 0 0 0 .447-.616.644.644 0 0 0-.214-.481.634.634 0 0 0-.5-.163Zm9.827 0a.644.644 0 0 0-.581.644.646.646 0 0 0 .849.616.65.65 0 0 0 .391-.879.656.656 0 0 0-.391-.353c-.086-.028-.177-.038-.268-.028Zm9.835 0a.642.642 0 0 0-.604.396.647.647 0 0 0 .848.849.648.648 0 0 0 .397-.604.649.649 0 0 0-.424-.605.632.632 0 0 0-.258-.036h.041Zm-54.062-7.571a.652.652 0 0 0-.604.396.645.645 0 0 0 .843.851.645.645 0 0 0-.003-1.199.647.647 0 0 0-.25-.048h.014Zm9.827 0a.644.644 0 0 0-.598.4.65.65 0 0 0 .472.884.647.647 0 0 0 .774-.636.657.657 0 0 0-.194-.463.647.647 0 0 0-.467-.185h.013Zm9.828 0a.65.65 0 0 0-.597.794.646.646 0 0 0 .886.449.647.647 0 0 0-.04-1.208.67.67 0 0 0-.263-.035h.014Zm9.834 0a.653.653 0 0 0-.658.382.644.644 0 0 0 .158.744.642.642 0 0 0 .5.163.644.644 0 0 0 .582-.644.65.65 0 0 0-.582-.645Zm-4.917 22.506a.645.645 0 0 0-.604.397.646.646 0 0 0 .473.887.65.65 0 0 0 .666-.28.642.642 0 0 0 .106-.363.635.635 0 0 0-.185-.473.646.646 0 0 0-.469-.195l.013.027Zm9.828 0a.653.653 0 0 0-.582.645.65.65 0 0 0 .849.616.643.643 0 0 0 .447-.616.644.644 0 0 0-.214-.481.653.653 0 0 0-.5-.164Zm9.827 0a.65.65 0 0 0-.414 1.079.644.644 0 0 0 .682.182.65.65 0 0 0 .391-.879.656.656 0 0 0-.391-.353.656.656 0 0 0-.268-.029Zm-24.552-7.563a.644.644 0 0 0-.581.644c0 .161.059.315.167.434a.64.64 0 0 0 .682.182.656.656 0 0 0 .447-.616.647.647 0 0 0-.447-.615c-.086-.029-.177-.038-.268-.029Zm9.835 0a.658.658 0 0 0-.363.106.653.653 0 0 0-.28.667.65.65 0 0 0 1.178.231.658.658 0 0 0 .106-.363.644.644 0 0 0-.418-.63.64.64 0 0 0-.264-.038l.041.027Zm9.827 0a.648.648 0 1 0 .642.641.642.642 0 0 0-.414-.625.654.654 0 0 0-.262-.043l.034.027Zm9.828 0a.652.652 0 0 0-.604.397.645.645 0 0 0 .139.709.65.65 0 0 0 1.106-.465.648.648 0 0 0-.675-.668l.034.027Zm9.828 0a.64.64 0 0 0-.594.881.622.622 0 0 0 .137.203l1.002-.791a.682.682 0 0 0-.579-.32l.034.027Zm-19.69 14.902a.636.636 0 0 0-.5.163.656.656 0 0 0-.214.481.64.64 0 0 0 .214.481.642.642 0 0 0 .5.164h.034l.58-.464a.568.568 0 0 0 0-.184.637.637 0 0 0-.614-.641Z" fill="#fff"/><path d="M350.396 180.874c-.791.498-1.521 1.112-2.264 1.685l-2.298 1.753a267.012 267.012 0 0 0-4.624 3.614c-3.049 2.435-6.138 4.863-9.125 7.345-.832.682-1.655 1.364-2.469 2.046-.853.744-1.651 1.549-2.503 2.285-.048.048 0 .116.075.075.777-.579 1.596-1.098 2.38-1.671a92.428 92.428 0 0 0 2.367-1.807c1.534-1.2 3.069-2.421 4.583-3.649 2.994-2.421 5.994-4.828 8.927-7.311l2.455-2.087c.86-.723 1.773-1.418 2.558-2.223.041.014-.007-.089-.062-.055ZM326.745 202.548c-.901-.682-1.753-1.411-2.633-2.114-.88-.702-1.773-1.364-2.66-2.08-1.732-1.364-3.478-2.694-5.21-4.051a788.251 788.251 0 0 1-10.503-8.286c-1.978-1.582-3.921-3.226-5.954-4.74 0 0-.068 0-.041.041 1.617 1.555 3.342 2.994 5.054 4.44-.348-.198-.682-.396-1.044-.607a20.156 20.156 0 0 1-1.125-.73c-.368-.252-.736-.553-1.125-.791-.062-.034-.109.047-.068.102a8.952 8.952 0 0 0 2.257 1.705c.408.25.829.478 1.262.682l.47.184a471.46 471.46 0 0 0 4.611 3.819 285.689 285.689 0 0 0 10.543 8.225c.982.737 1.985 1.453 2.981 2.176.995.723 2.1 1.398 3.116 2.135.048.006.13-.075.069-.11ZM300.528 167.487a31.696 31.696 0 0 1-9.466 13.456 17.292 17.292 0 0 1-7.297 3.798 7.44 7.44 0 0 1-4.297-.163 8.404 8.404 0 0 1-3.253-2.674 15.923 15.923 0 0 1-2.271-4.201 37.87 37.87 0 0 1-1.518-5.194.044.044 0 0 0-.01-.016.044.044 0 0 0-.016-.01.037.037 0 0 0-.018-.004.04.04 0 0 0-.018.004.054.054 0 0 0-.016.01.062.062 0 0 0-.01.016.053.053 0 0 0-.004.018c.348 1.664.567 3.355 1.044 4.992a16.95 16.95 0 0 0 1.766 4.153 10.181 10.181 0 0 0 2.953 3.151 6.733 6.733 0 0 0 4.317 1.01 15.798 15.798 0 0 0 8.062-3.329 27.786 27.786 0 0 0 5.994-6.199 29.188 29.188 0 0 0 4.222-8.825c.034-.061-.13-.095-.164.007Z" fill="#000"/><path d="M281.344 181.829c5.456.566 13.415-8.647 16.136-15.624.184-.478-1.105-5.102-2.415-10.79-.777-3.457-1.568-7.324-2.046-10.912-.088-.729-21.742 8.362-21.742 8.362s3.178 7.215 3.949 13.462c.055.496.067.996.034 1.494v.246c-.082 2.857.839 13.217 6.084 13.762Z" fill="#FFD3C9"/><path d="M277.593 167.896a13.45 13.45 0 0 1-2.319.177v-.252a7.86 7.86 0 0 0-.041-1.487c-.771-6.24-3.942-13.462-3.942-13.462s17.575-7.38 21.142-8.307c-.177 4.221-1.637 21.326-14.84 23.331Z" fill="#000"/><path d="M289.923 116.746c4.706 6.95 7.502 30.363 3.554 36.985-5.709 9.596-18.414 14.274-27.458 6.643-8.743-7.4-11.826-37.974-7.113-44.33 6.936-9.392 24.068-9.562 31.017.702Z" fill="#FFD3C9"/><path d="M273.242 137.656c0-.061.136.062.143.123.143 1.582.573 3.369 2.046 3.717.048 0 .048.088 0 .088-1.753-.027-2.305-2.407-2.189-3.928Z" fill="#000"/><path d="M274.449 135.835c2.51-.504 3.335 4.556 1.009 5.027-2.325.47-3.117-4.604-1.009-5.027ZM263.598 139.02c0-.061-.109.096-.095.157.306 1.555.388 3.41-.942 4.147-.041 0 0 .102 0 .088 1.719-.532 1.576-2.966 1.037-4.392Z" fill="#000"/><path d="M261.934 137.608c-2.551.225-1.923 5.313.437 5.102 2.359-.212 1.691-5.286-.437-5.102ZM276.065 133.203a19.19 19.19 0 0 1-2.046-.369 3.407 3.407 0 0 1-2.046-.777 1.088 1.088 0 0 1-.041-1.323c.682-.798 1.671-.853 2.633-.682a3.912 3.912 0 0 1 2.516 1.316 1.156 1.156 0 0 1 .082 1.244 1.16 1.16 0 0 1-.462.457 1.163 1.163 0 0 1-.636.134ZM259.561 135.385c.682-.232 1.275-.559 1.923-.852a3.405 3.405 0 0 0 1.8-1.242 1.082 1.082 0 0 0-.279-1.295c-.819-.621-1.821-.43-2.728-.069a3.968 3.968 0 0 0-2.135 1.883 1.154 1.154 0 0 0 .197 1.249 1.155 1.155 0 0 0 1.222.326ZM276.87 151.467c-.314.429-.607.995-1.166 1.139a4.253 4.253 0 0 1-1.753-.116.057.057 0 0 0-.034.002.051.051 0 0 0-.026.022.054.054 0 0 0 .005.064 2.153 2.153 0 0 0 2.128.525 1.691 1.691 0 0 0 1.01-1.589c-.014-.095-.116-.109-.164-.047ZM274.456 147.047a5.43 5.43 0 0 1-3.172 2.96 6.71 6.71 0 0 1-1.909.396 1.75 1.75 0 0 1-.369 0h-.354a.403.403 0 0 1-.369-.3.75.75 0 0 1 0-.164v-.136c-.225-1.201-.409-3.056-.409-3.056-.402.293-2.489 1.671-2.557 1.037-.539-5.272-1.139-11.13-.566-16.484a.148.148 0 0 1 .146-.118c.035 0 .068.011.094.033a.145.145 0 0 1 .053.085c.716 5.04.545 10.175 1.193 15.256.74-.503 1.545-.9 2.394-1.18.178 0 .287 3.595.437 4.092a.17.17 0 0 0 0 .055c2.046-.075 3.498-.934 5.244-2.619.075-.061.219.007.144.143Z" fill="#000"/><path d="M269.989 149.68a6.432 6.432 0 0 0 2.857 1.548 2.882 2.882 0 0 0 1.746-.177c1.2-.532 1.043-1.685.648-2.633a6.716 6.716 0 0 0-.805-1.412 8.313 8.313 0 0 1-4.446 2.674Z" fill="#000"/><path d="M272.846 151.228a2.882 2.882 0 0 0 1.746-.177c1.2-.532 1.043-1.685.648-2.633-1.316.362-2.496 1.487-2.394 2.81Z" fill="#FF6868"/><path d="M293.934 136.51c-5.866 1.146-9.119-9.268-9.119-9.268s-10.4.348-13.367-6.936c0 0-8.341 7.993-16.368 6.765-8.027-1.227-8.184-10.045-7.7-12.023.485-1.978 5.313.559 5.313.559s-.484-4.904.682-5.647c1.166-.743 3.158 1.889 3.158 1.889s9.036-5.169 17.868-6.663c8.832-1.493 14.936 6.493 14.936 6.493s4.897.061 7.072 3.048c2.176 2.987 1.262 21.06-2.475 21.783Z" fill="#000"/><path d="M287.195 126.846c-7.577 2.578-13.769-1.568-16.368-8.804a.076.076 0 0 0-.036-.039.075.075 0 0 0-.053-.004.073.073 0 0 0-.043.032.073.073 0 0 0-.011.052c1.61 6.902 9.637 13.36 16.675 9.091.15-.109.034-.396-.164-.328ZM289.098 111.576a.084.084 0 0 0-.058.024.086.086 0 0 0-.024.058.083.083 0 0 0 .082.082c2.38.58 5.027.839 6.957 2.524 2.325 2.046 2.55 5.258 2.407 8.122-.232 4.433-1.316 10.36-4.603 13.592-.191.185.102.457.293.28 4.003-3.567 5.224-11.212 4.856-16.313-.423-5.709-4.522-8.191-9.91-8.369ZM263.38 124.173c-3.021 2.728-8.095 3.846-11.921 2.162-4.665-2.046-4.734-6.943-3.738-11.226.048-.211-.273-.361-.368-.15-1.739 3.942-.894 9.241 3.048 11.553 4.092 2.387 10.067 1.091 13.395-1.937.266-.238-.171-.654-.416-.402Z" fill="#000"/><path d="M288.962 137.097s2.973-8.655 6.758-7.795c3.785.859 2.987 12.398-.443 14.929a4.084 4.084 0 0 1-3.042.93 4.103 4.103 0 0 1-2.789-1.531l-.484-6.533Z" fill="#FFD3C9"/><path d="M295.434 132.603a.045.045 0 0 1 .036.003.049.049 0 0 1 .026.025.05.05 0 0 1 .005.036.063.063 0 0 1-.019.031c-2.381 1.862-3.083 4.774-3.335 7.638.518-1.22 1.452-2.08 3.055-1.514.089 0 .048.164 0 .171a2.485 2.485 0 0 0-2.407 1.596 11.937 11.937 0 0 0-.682 2.496c-.055.279-.526.273-.512 0v-.068c-1.071-3.444.225-9.01 3.833-10.414Z" fill="#000"/><path d="M275.124 169.581c-.621.088-3.137 1.302-3.472 1.841-.334.539-14.158 105.144-14.615 109.625-.457 4.48-9.057 43.116-9.057 43.116h98.208s-9.2-60.16-9.2-61.176c0 0 11.724-1.023 11.594-1.364-.13-.341-1.944-8.279-1.944-8.279l-11.341-1.364s-24.914-58.652-26.046-63.842c-1.132-5.19-6.997-24.791-7.209-24.88-.211-.088-3.771-.463-3.771-.463s.157 22.506 0 22.506-22.827 3.287-22.827 3.287l-.32-19.007Z" fill="#fff"/><path d="M264.955 271.219c-9.466 3.997-8.027 13.817-5.094 19.403 2.932 5.586 11.86 10.359 17.377 8.027 5.517-2.332 7.12-11.539 5.156-17.541-1.964-6.002-7.993-13.879-17.439-9.889Z" fill="#999"/><path d="m268.297 271.99-4.747 2.087-28.916-61.264 7.972-3.513 25.691 62.69Z" fill="#999"/><path d="M380.807 263.417c-8.723 21.872-29.04 38.281-33.064 40.286-3.41 1.725-5.203 2.584-5.203 2.584-6.084 3.22-9.903 1.794-9.903 1.794s-5.933 5.79-10.032 2.783c-4.604-3.356 4.631-10.83 7.195-18.053 5.879-16.532 9.609-41.684 10.823-46.621l40.184 17.227Z" fill="#FFD3C9"/><path d="M348.139 279.833c-1.828 4.828-3.492 9.623-5.968 14.185-2.728 5.006-6.138 9.364-9.548 13.886a.137.137 0 0 0 .011.194.138.138 0 0 0 .194-.01c7.454-7.216 13.435-18.019 15.741-28.112.061-.252-.335-.396-.43-.143ZM358.635 281.92c-2.046 4.603-5.668 12.671-16.218 24.265-.034.041 0 .109.061.075a53.661 53.661 0 0 0 16.614-24.115c.102-.266-.321-.532-.457-.225Z" fill="#000"/><path d="M335.624 272.453c-.089-2.455-1.364-2.427-3.956 1.105-2.591 3.533-9.779 19.683-15.201 16.696-5.422-2.988 5.067-25.637 9.807-31.188 4.74-5.552 14.322-12.863 14.322-12.863-1.125 4.815-2.824 16.771-4.972 26.25Z" fill="#FFD3C9"/><path d="M395.817 206.061c6.329 20.514-10.639 47.146-15.004 57.356-1.902 4.447-42.604-12.071-40.538-16.811 4.229-9.712 14.404-27.137 13.067-28.644-1.057-1.194 38.458-24.927 42.475-11.901ZM216.172 230.326c-7.693 3.206-31.897 17.05-29.94 27.846 1.957 10.796 17.623 13.94 40.32 14.704l-10.38-42.55Z" fill="#FFD3C9"/><path d="M269.573 222.586c2.366 3.846-.682 7.379-.682 7.379a9.613 9.613 0 0 1 4.514 4.74c1.426 3.703-3.757 7.563-3.757 7.563a11.85 11.85 0 0 1 3.969 5.756c1.009 3.683-3.669 8.321-3.669 8.321a10.396 10.396 0 0 1 .3 7.263c-2.326 6.274-12.331 8.334-18.68 9.712-6.35 1.377-25.637-.682-29.326-.682l-9.18-40.661s26.707-14.261 34.4-14.82c6.445-.478 19.451 1.112 22.111 5.429Z" fill="#FFD3C9"/><path d="M268.447 229.365c-7.011-1.153-13.974-.171-20.985.409a.123.123 0 1 0 0 .245c6.963-.682 13.974.069 20.951-.313a.174.174 0 0 0 .126-.038.171.171 0 0 0-.092-.303ZM269.388 241.763a18.581 18.581 0 0 0-4.835.307c-1.701.232-3.396.489-5.088.771a208.307 208.307 0 0 0-10.121 1.957c-.15.034-.136.266 0 .246 3.41-.559 6.766-1.071 10.169-1.487 1.698-.211 3.41-.402 5.108-.586a21.848 21.848 0 0 0 4.774-.744.242.242 0 0 0 .118-.091.251.251 0 0 0 .044-.143.25.25 0 0 0-.169-.23ZM269.791 256.365c-1.364-.239-2.974.259-4.331.512-1.541.295-3.083.577-4.624.845-3.083.553-6.138 1.098-9.262 1.535-.156 0-.136.266 0 .238 3.151-.429 6.309-.811 9.46-1.275 1.541-.225 3.089-.457 4.631-.682 1.316-.211 2.98-.314 4.139-1.002a.089.089 0 0 0 .045-.036.096.096 0 0 0 .014-.055.091.091 0 0 0-.072-.08ZM190.72 247.608a44.37 44.37 0 0 1 6.547-6.254c2.373-1.882 4.863-3.608 7.406-5.244 2.544-1.637 5.204-3.097 7.878-4.515a371.428 371.428 0 0 0 4.051-2.046l4.092-1.971 8.184-3.867c2.728-1.282 5.456-2.599 8.231-3.785 1.364-.6 2.79-1.18 4.215-1.698a18.037 18.037 0 0 1 4.454-1.092 70.471 70.471 0 0 1 9.063.185 80.997 80.997 0 0 0-9.016.32 17.267 17.267 0 0 0-4.269 1.194 90.05 90.05 0 0 0-4.126 1.807c-5.456 2.564-10.858 5.231-16.286 7.857l-4.092 1.93c-1.364.682-2.728 1.302-4.045 1.991a147.622 147.622 0 0 0-7.89 4.351 83.414 83.414 0 0 0-7.502 4.972 49.152 49.152 0 0 0-6.895 5.865Z" fill="#000"/><path d="M307.553 331.985c-.048.28-.102.559-.157.846.048-.28.103-.566.15-.846h.007Z" fill="#fff"/><path d="m239.277 305.687 33.459 2.087v-7.052l-33.459-.075v5.04Z" fill="#999"/><path d="M173.655 300.661s2.578 14.104 7.734 14.097h55.242c5.169 0 7.727-14.104 7.727-14.104l-70.703.007Z" fill="#FFB445"/><path d="M340.663 197.679c-.682 5.565-4.719 9.896-9.384 12.658-2.728 1.616-6.206 2.155-8.675 4.14-2.326 1.868-3.13 5.019-2.796 7.884.736 6.349 6.52 10.952 10.857 15.051 6.684 6.316 15.079 16.171 9.671 25.916-2.53 4.549-7.502 7.557-12.194 9.426-5.258 2.086-10.912 2.939-16.545 3.212-6.514.307-13.791-.621-17.951 5.551-3.723 5.504-3.369 9.548-1.364 15.482 0 0-1.664.416-1.793.245-1.91-2.496-4.386-7.502-5.525-10.421-2.543-5.96-3.205-12.242 1.971-17.439 3.028-3.041 7.086-4.726 10.551-7.188 4.494-3.178 6.718-7.59 5.013-13.101-1.76-5.695-6.261-9.875-9.037-15.045a15.636 15.636 0 0 1-.286-14.929 24.432 24.432 0 0 1 9.739-10.23c4.74-2.728 9.861-3.212 15.222-3.349 6.056-.17 13.34-.518 17.05-6.097 3.649-5.456 2.251-12.412.73-18.318-.062-.205.259-.314.347-.123 2.401 5.197 5.122 10.769 4.399 16.675Z" fill="#fff" opacity=".5"/><path d="M347.04 287.921h-23.999v2.046h23.999v-2.046Z" fill="#999"/><path d="M329.772 292.143h21.346v-6.404h-21.346v6.404Z" fill="#FFB445"/><path d="M256.832 281.047s2.305 33.711 13.067 33.711h56.961c10.762 0 13.067-33.711 13.067-33.711h-83.095Z" fill="#666"/><path d="M275.212 287.989h-24v1.917h24v-1.917Z" fill="#999"/><path d="M268.48 292.15h-21.346v-6.404h21.346v6.404Z" fill="#FFB445"/><path d="M254.759 324.142h1.82l3.902-7.761h77.284l3.908 7.761h1.821l-4.72-9.384h-79.289l-4.726 9.384Z" fill="#000"/><path d="M268.576 324.142h1.719l2.666-7.761h52.323l2.674 7.761h1.718l-2.673-7.761-.559-1.623h-54.635l-.56 1.623-2.673 7.761ZM163.248 324.142h1.828l3.901-7.761h77.277l3.908 7.761h1.821l-4.72-9.384h-79.289l-4.726 9.384Z" fill="#000"/><path d="M177.065 324.142h1.719l2.666-7.761h52.33l2.667 7.761h1.719l-2.667-7.761-.566-1.623h-54.635l-.559 1.623-2.674 7.761Z" fill="#000"/><path d="m2 324.5 55.373-.24 55.382-.09L223.5 324l110.745.17 55.383.08 55.372.25-55.372.24-55.383.09L223.5 325l-110.745-.17-55.382-.09L2 324.5ZM119.319 349.827l-1.215-.659 3.685-6.788h57.117l3.692 6.788-1.222.659-3.296-6.059h-55.465l-3.296 6.059Z" fill="#000"/><path d="m129.389 349.744-1.305-.486 2.554-6.878h39.419l2.554 6.878-1.298.486-2.221-5.976h-37.489l-2.214 5.976ZM248.333 349.827l-3.296-6.059h-55.465l-3.296 6.059-1.215-.659 3.685-6.788h57.117l3.692 6.788-1.222.659Z" fill="#000"/><path d="m238.27 349.744-2.221-5.976H198.56l-2.214 5.976-1.305-.486 2.554-6.878h39.419l2.554 6.878-1.298.486Z" fill="#000"/><path d="M252.699 348.009H115.307v3.581h137.392v-3.581Z" fill="#666"/><path d="M47.316 209.695c-4.858-4.664-21.194-4.331-28.197 3.47-9.653 10.722 3.047 31.854 18.391 26.58 15.345-5.275 13.533-26.455 9.806-30.05Z" fill="#000"/><path d="M20.132 234.075c-2.727-3.949-4.768-8.418-5.253-12.964a10.778 10.778 0 0 1 5.69-11.007c2-1.133 4.143-1.994 6.372-2.561a30.578 30.578 0 0 1 6.822-1.138 23.851 23.851 0 0 1 13.526 3.29c-3.568-3.304-8.571-5.032-13.534-5.122a28.287 28.287 0 0 0-7.404.826 26.718 26.718 0 0 0-7.003 2.706 13.364 13.364 0 0 0-5.344 5.608 12.651 12.651 0 0 0-.944 7.634c.91 5.011 3.665 9.334 7.072 12.728Z" fill="#000"/><path d="M66.311 241.403c11.75 14.109 21.472 32.098 26.684 36.456 2.72 2.277 42.334 5.781 46.825 6.67 6.849 1.346-2.839 36.435-7.454 35.137-3.012-.84-48.525-7.134-56.908-16.615-6.44-7.293-16.614-38.732-19.32-52.542-2.999-15.358 5.489-14.734 10.173-9.106Z" fill="#FFD3C9"/><path d="M149.334 321.338a95.858 95.858 0 0 1-23.269-3.13c-4.164-1.186-2.082-33.881 2.193-35.102 13.186-3.796 31.306-1.09 37.358 3.748 6.051 4.837-8.419 34.477-16.282 34.484Z" fill="#FFD3C9"/><path d="M246.966 264.937c-7.384 4.393-16.572 6.336-24.775 8.654a401.585 401.585 0 0 1-13.554 3.553c-2.082.514-4.164.993-6.246 1.465-1.263.291-3.234 1.103-4.567.735a.761.761 0 0 1-.583-.645 1.662 1.662 0 0 1 0-.264c-.048-.77 21.514-7.085 27.76-14.99 3.158-4.018 5.927-10.632 2.887-15.476-1.818-2.887-5.496-3.338-8.543-2.485-3.178.895-6.537 4.539-3.539 6.01.291-.527 1.27-.305 1.068.354-.61 1.569-3.983 2.512-5.76.437-2.852-3.31-.812-8.605 1.465-11.173 6.364-7.218 21.833-7.107 26.996 2.443 3.012-2.249 6.996-1.284 8.467 2.172 2.832-2.602 6.94.361 7.634 3.977 1.277 6.385-3.574 12.193-8.71 15.233ZM208.921 241.313c-.694-.819-6.995.653-5.489 3.616 1.506 2.963 6.537-2.429 5.489-3.616ZM205.416 249.169c-.839-.298-3.678 3.38-1.755 4.463 1.922 1.082 2.456-4.213 1.755-4.463Z" fill="#FF6868"/><path d="M240.352 241.174c.812-.36.334-4.989-1.804-4.448-2.137.541 1.117 4.733 1.804 4.448ZM203.397 247.42c-.326-.43-1.971.111-1.346 1.048.624.937 1.742-.52 1.346-1.048ZM239.561 235.039c.521-.131.694-1.853-.437-1.644-1.131.208-.167 1.797.437 1.644Z" fill="#FF6868"/><path d="m183.188 285.951-60.51 19.876-2.2-7.724 61.141-17.683 1.569 5.531Z" fill="#999"/><path d="M253.49 259.968s1.596 16.247-4.067 17.864l-30.244 8.605-30.245 8.606c-5.663 1.61-12.86-13.041-12.86-13.041l77.416-22.034Z" fill="#666"/><path d="M131.859 282.308s32.375-13.11 31.681.881c-.208 4.164-6.023 20.987-9.424 19.883-4.393-1.422-3.276-8.897-1.832-13.484 0 0-9.452 5.739-15.414.347a18.632 18.632 0 0 1-5.011-7.627Z" fill="#FFD3C9"/><path d="M163.54 282.023a16.837 16.837 0 0 1-.381 4.893 37.593 37.593 0 0 1-1.291 4.754 56.69 56.69 0 0 1-3.886 9.077 9.294 9.294 0 0 1-1.555 2.082 3.34 3.34 0 0 1-1.284.805 2.321 2.321 0 0 1-.812.153 2.448 2.448 0 0 1-.805-.132 4.162 4.162 0 0 1-2.228-1.811 7.92 7.92 0 0 1-.902-2.533c-.252-1.69-.215-3.41.111-5.087a33.272 33.272 0 0 1 1.222-4.858l.846.652a19.975 19.975 0 0 1-3.47 1.52 18.721 18.721 0 0 1-3.657.84 12.983 12.983 0 0 1-3.734-.118 9.777 9.777 0 0 1-3.47-1.333c1.097.502 2.27.819 3.47.937 1.195.097 2.398.029 3.574-.201a17.451 17.451 0 0 0 3.47-.999 19.148 19.148 0 0 0 3.165-1.611l1.228-.791-.381 1.444a35.254 35.254 0 0 0-1.021 4.677 14.34 14.34 0 0 0-.048 4.65c.257 1.444.985 2.915 2.186 3.29 1.027.423 2.13-.986 2.915-2.297a46.283 46.283 0 0 0 2.221-4.268c.694-1.465 1.387-2.936 1.97-4.442 1.159-2.95 2.36-6.031 2.547-9.293Z" fill="#000"/><path d="M154.81 281.308c-3.435 2.082.985 4.942.985 4.942s-7.356-2.582-10.07.937c-2.609 3.4 2.86 6.669 3.248 6.905-.395-.132-7.217-2.325-9.577 1.492-2.457 3.97 3.595 6.302 3.991 6.454-.41 0-5.809-.048-6.94 3.262-1.95 5.684 11.853 6.163 15.025 9.862 0 0-2.575 5.989-2.7 6.197 0 0 10.049.819 14.789-3.727a4.161 4.161 0 0 0 .764-5.205s4.205.694 6.155-2.248c1-1.513-.534-4.463-.534-4.463s3.394.424 4.969-2.304c1.263-2.179-.472-4.795-.472-4.795s3.47-1.104 4.011-3.748c1.153-5.323-16.302-18.016-23.644-13.561Z" fill="#FFD3C9"/><path d="M174.221 298.159a.057.057 0 0 0 .08.003.053.053 0 0 0 .018-.039.053.053 0 0 0-.015-.041c-4.712-5.552-11.596-10.25-18.738-12.013-.236-.055-.43.299-.18.41 7.009 3.22 12.964 6.634 18.835 11.68ZM170.05 305.716c.07.056.16-.048.097-.118-4.858-5.718-12.79-10.77-21.25-11.832-.284-.035-.583.222-.25.284 5.566 1.159 16.143 7.128 21.403 11.666ZM142.769 302.17c8.071 1.326 14.9 5.108 21.361 10.008.084.062.167-.063.112-.139-2.513-3.255-6.94-5.941-10.584-7.745a21.503 21.503 0 0 0-10.84-2.408c-.153.007-.222.249-.049.284Z" fill="#000"/><path d="M155.796 286.284a24.902 24.902 0 0 0-4.442-.694 8.175 8.175 0 0 0-4.24.694 2.68 2.68 0 0 0-1.284 1.451 3.981 3.981 0 0 0-.181 1.992 4.828 4.828 0 0 0 2.429 3.067l2.853 1.659-3.255-.562a13.394 13.394 0 0 0-4.372-.077 4.86 4.86 0 0 0-3.436 1.93 2.78 2.78 0 0 0 .181 3.47 8.321 8.321 0 0 0 3.532 2.234l3.671 1.319-3.886-.042a12.605 12.605 0 0 0-3.213.368 5.254 5.254 0 0 0-2.651 1.437 2.493 2.493 0 0 0-.472 2.574 5.485 5.485 0 0 0 2.221 2.082 42.145 42.145 0 0 0 6.183 2.776c1.062.424 2.131.847 3.172 1.319a8.08 8.08 0 0 1 2.873 1.881 8.677 8.677 0 0 0-2.991-1.583c-1.069-.388-2.159-.728-3.248-1.068a36.721 36.721 0 0 1-6.461-2.499 6.41 6.41 0 0 1-2.735-2.47 3.53 3.53 0 0 1 .556-3.824 6.422 6.422 0 0 1 3.24-1.867 14.051 14.051 0 0 1 3.575-.465l-.216 1.277a9.584 9.584 0 0 1-4.164-2.603 4.025 4.025 0 0 1-1.013-2.505c-.001-.91.27-1.799.777-2.554a6.097 6.097 0 0 1 4.352-2.45 14.707 14.707 0 0 1 4.809.16l-.402 1.089a5.7 5.7 0 0 1-2.776-3.955 4.784 4.784 0 0 1 .34-2.443 3.522 3.522 0 0 1 1.721-1.791 8.43 8.43 0 0 1 4.608-.444c1.486.207 2.943.582 4.345 1.117Z" fill="#000"/><path d="m124.857 280.17-5.663 38.233s-40.662-6.94-47.303-14.574c-6.642-7.634-13.401-37.976-16.656-53.265-3.255-15.289 5.233-20.077 14.615-7.37 9.383 12.707 20.064 32.07 22.549 33.208 2.484 1.138 32.458 3.768 32.458 3.768Z" fill="#fff"/><path opacity=".1" d="M108.52 316.349c-12.533-2.617-32.188-7.405-36.63-12.492-6.648-7.634-13.393-37.976-16.655-53.258-1.652-7.794-.257-12.86 2.776-14.262 7.044 10.903 35.859 55.548 50.509 80.012Z" fill="#000"/><path d="M129.625 279.816c-.097-.208-11.639-2.214-11.639-2.214s-10.41 18.398-10.41 20.605c0 2.207-.229 18.967-.055 19.176.173.208 14.039 3.844 14.324 3.47.284-.375 1.221-18.447 1.27-19.828.049-1.381 6.51-21.209 6.51-21.209Z" fill="#FEE3C5"/><path d="m86.263 351.59-8.328-45.52s8.328-7.634 7.468-21.264c-.458-7.342-13.769-33.624-20.903-42.827-6.697-8.626-21.167-8.161-30.092 2.665C5.586 279.608-3.318 326.009-7.024 351.59h93.287Z" fill="#fff"/><path d="M43.874 243.909a29.366 29.366 0 0 0 8.328 6.704 23.745 23.745 0 0 0 10.153 2.97c1.774.077 3.55-.049 5.295-.375l1.298-.284h.139a.38.38 0 0 1 .264.132l.041.055c.04.054.078.109.111.167l.174.305c.111.208.208.41.305.618.382.826.729 1.658 1.062 2.491a100.725 100.725 0 0 1 3.394 10.251 92.452 92.452 0 0 1 2.276 10.555c.558 3.567.79 7.177.694 10.785a33.268 33.268 0 0 1-1.922 10.653 19.04 19.04 0 0 1-6.33 8.703l.125-.278 2.485 22.056 2.387 22.069-2.776-22.021-2.685-22.034v-.174l.138-.104a18.429 18.429 0 0 0 6.121-8.46 32.535 32.535 0 0 0 1.853-10.445c.16-7.134-1.082-14.254-2.935-21.153a100.455 100.455 0 0 0-3.345-10.188c-.327-.832-.694-1.658-1.041-2.463-.098-.202-.188-.403-.292-.597-.048-.09-.097-.188-.153-.278-.055-.09-.055-.083-.069-.111.042.025.09.039.139.042l-1.333.284a22.95 22.95 0 0 1-5.427.306 23.849 23.849 0 0 1-10.32-3.2 29.4 29.4 0 0 1-8.154-6.981Z" fill="#000"/><path d="M52.5 271.933a2.08 2.08 0 0 1-2.488 2.042 2.089 2.089 0 0 1-1.636-1.636 2.082 2.082 0 1 1 4.124-.406ZM72.134 273.015a2.084 2.084 0 0 1-2.488 2.042 2.082 2.082 0 1 1 2.488-2.042ZM49.724 287.492a2.084 2.084 0 0 1-1.285 1.924 2.09 2.09 0 0 1-2.269-.452 2.08 2.08 0 1 1 3.554-1.472ZM43.194 306.07a2.082 2.082 0 1 1-4.164 0 2.082 2.082 0 0 1 4.164 0ZM42.528 324.364a2.081 2.081 0 1 1-4.163.001 2.081 2.081 0 0 1 4.163-.001ZM70.92 289.06a2.081 2.081 0 1 1-4.163.001 2.081 2.081 0 0 1 4.162-.001ZM64.257 323.976a2.08 2.08 0 0 1-2.488 2.042 2.088 2.088 0 0 1-1.636-1.636 2.081 2.081 0 1 1 4.124-.406ZM41.577 344.587a2.06 2.06 0 1 0 .001-4.121 2.06 2.06 0 0 0-.001 4.121ZM65.367 342.138a2.08 2.08 0 0 1-2.488 2.042 2.088 2.088 0 0 1-1.636-1.636 2.081 2.081 0 1 1 4.124-.406ZM64.743 306.771a2.081 2.081 0 1 1-4.163.001 2.081 2.081 0 0 1 4.163-.001Z" fill="#000"/><path d="M65.88 235.845s2.777 12.63.466 13.227c-7.023 1.853-16.587-6.641-17.28-8.12-.174-.381-1.243-10.361-2.083-18.127-.527-4.99-.937-9.064-.937-9.064L66 221.173l-.132 13.693.014.979Z" fill="#FFD3C9"/><path d="m66.026 221.173-.131 13.693a27.463 27.463 0 0 1-18.884-12.041c-.528-4.99-.937-9.064-.937-9.064l2.498.833 17.454 6.579Z" fill="#000"/><path d="M82.3 200.791c2.777 23.88-11.214 28.232-16.364 28.821-4.677.542-20.66 1.777-25.886-21.687-5.226-23.464 5.004-32.306 15.636-34.096 10.632-1.791 23.88 3.081 26.615 26.962Z" fill="#FFD3C9"/><path d="M77.984 198.938a16.195 16.195 0 0 1-1.638-.271 2.699 2.699 0 0 1-1.617-.59.867.867 0 0 1-.048-1.048 2.149 2.149 0 0 1 2.082-.59c.769.078 1.481.44 1.998 1.013a.91.91 0 0 1-.777 1.486ZM61.599 199.992c.536-.135 1.064-.3 1.582-.492a2.699 2.699 0 0 0 1.527-.812.861.861 0 0 0-.104-1.041 2.127 2.127 0 0 0-2.124-.299 3.13 3.13 0 0 0-1.846 1.277.915.915 0 0 0 .965 1.367ZM65.492 204.483c0-.063-.125.083-.118.152.167 1.624.077 3.519-1.388 4.164-.048 0-.034.104 0 .091 1.832-.375 1.923-2.894 1.506-4.407Z" fill="#000"/><path d="M63.917 202.873c-2.644 0-2.485 5.267-.042 5.281 2.443.014 2.249-5.261.042-5.281Z" fill="#000"/><path d="M62.91 203.185c-.45.312-.888.853-1.436.923-.548.069-1.145-.451-1.582-.972-.05-.055-.09 0-.09.063 0 1.013.437 2.04 1.526 2.158 1.09.118 1.673-.812 1.895-1.832.014-.194-.153-.465-.313-.34ZM74.584 203.796c0-.063.131.076.131.145 0 1.638.236 3.512 1.728 4.026.05 0 .05.097 0 .09-1.818-.195-2.137-2.714-1.86-4.261Z" fill="#000"/><path d="M76.006 202.054c2.63-.257 2.95 5.017.514 5.253-2.436.236-2.714-5.038-.514-5.253Z" fill="#000"/><path d="M77.13 202.31c.431.25.875.736 1.389.736.513 0 .971-.597 1.304-1.166.035-.055.084 0 .084.056.09 1.006-.174 2.082-1.132 2.332-.957.249-1.575-.597-1.88-1.59-.07-.152.055-.444.236-.368ZM65.534 217.377c.388.389.77.923 1.388.979a4.322 4.322 0 0 0 1.763-.382.052.052 0 0 1 .036-.005.057.057 0 0 1 .044.053.055.055 0 0 1-.011.035 2.196 2.196 0 0 1-2.082.854 1.726 1.726 0 0 1-1.263-1.464c-.056-.098.07-.125.125-.07ZM72.127 211.18s.437 2.429.486 3.581c0 .104-.271.166-.66.208h-.048a5.481 5.481 0 0 1-5.4-1.825.12.12 0 0 1 .013-.148.118.118 0 0 1 .07-.035.115.115 0 0 1 .077.016 8.27 8.27 0 0 0 5.066 1.222c.063-.32-.895-4.13-.694-4.164.9.044 1.788.208 2.644.485-.77-5.087-2.345-10.007-3.032-15.08a.157.157 0 0 1 .03-.099.155.155 0 0 1 .086-.059.154.154 0 0 1 .104.006c.033.013.06.038.078.069 2.013 5.038 3.026 10.868 3.956 16.1.104.667-2.277-.125-2.776-.277Z" fill="#000"/><path d="M71.35 214.462a6.11 6.11 0 0 1-2.207 2.173 2.775 2.775 0 0 1-1.645.298c-1.242-.173-1.388-1.27-1.29-2.235.06-.514.18-1.02.36-1.506a7.937 7.937 0 0 0 4.782 1.27Z" fill="#000"/><path d="M69.156 216.635a2.776 2.776 0 0 1-1.644.298c-1.243-.173-1.388-1.27-1.291-2.235 1.284-.02 2.665.694 2.935 1.937Z" fill="#FF6868"/><path d="M39.773 208.147c4.046.312 4.969-8.161 4.969-8.161s8.21 0 10.923-11.798c0 0-.18 5.496-3.636 9.764 0 0 14.476-1.534 20.577-13.651 0 0-2.436 6.17-4.712 8.37 0 0 6.072-1.701 9.021-6.628 0 0 2.54 6.996 4.49 8.925 0 0-.596-25.331-24.067-22.638 0 0-14.7.971-19.974 12.61-5.274 11.638 2.409 23.207 2.409 23.207Z" fill="#000"/><path d="M44.062 209.313s-5.462-7.343-8.814-5.379c-3.352 1.964.909 12.728 4.948 14.102a4.072 4.072 0 0 0 3.19-.026 4.073 4.073 0 0 0 2.188-2.319l-1.512-6.378Z" fill="#FFD3C9"/><path d="M36.538 206.988a.057.057 0 0 0-.039.016.058.058 0 0 0-.016.04c0 .014.006.028.016.039.01.01.025.016.04.016 2.838 1.048 4.386 3.609 5.496 6.246-.86-1.006-2.013-1.548-3.373-.514-.07.056 0 .167.083.146a2.497 2.497 0 0 1 2.776.798 12.275 12.275 0 0 1 1.388 2.186c.14.243.583.098.48-.187v-.062c-.077-3.554-2.999-8.474-6.85-8.724Z" fill="#000"/><path d="M42.417 216.884a.83.83 0 0 1-.833.847.844.844 0 0 1-.776-.518.84.84 0 0 1 .776-1.161.83.83 0 0 1 .833.832ZM40.057 215.455a.533.533 0 1 1-.527-.528.528.528 0 0 1 .527.528ZM36.768 198.931c-.285-.188-26.234-35.915-28.454-39.211-.993-1.465 6.94-24.29 20.077-30.536 9.48-4.546 26.712-.805 29.89.597 3.783 1.679 18.246 47.774 18.246 47.774l-22.597 9.328-17.162 12.048Z" fill="#fff"/><g opacity=".1" fill="#000"><path d="M38.391 192.185a5.775 5.775 0 0 1-1.249-1.499 47.53 47.53 0 0 0-1.173-1.645 27.088 27.088 0 0 0-2.692-3.019 5.049 5.049 0 0 0-2.776-1.693 2.382 2.382 0 0 0-1.388.271 2.593 2.593 0 0 0-.764.513c-.152.194-.243.507-.381.694-.042.07.076.132.11.063a1.39 1.39 0 0 1 .632-.799c.247-.127.508-.225.777-.291a2.377 2.377 0 0 1 1.694.285 10.04 10.04 0 0 1 2.463 2.297c.77.867 1.555 1.735 2.332 2.602.778.868 1.34 1.853 2.318 2.325.084.069.18-.048.097-.104ZM41.07 191.9c-1.61-2.253-3.23-4.501-4.858-6.745a36.6 36.6 0 0 1-4.365-7.135c0-.076-.153 0-.118.035a37.036 37.036 0 0 0 3.782 7.495 53.114 53.114 0 0 0 5.441 6.475.087.087 0 0 0 .062.024.09.09 0 0 0 .06-.027.087.087 0 0 0-.004-.122ZM47.795 184.96c-1.444-1.887-3.074-3.629-4.684-5.371a23.955 23.955 0 0 0-4.775-4.004c-.07-.042-.132.062-.07.111 1.721 1.249 2.998 2.984 4.414 4.552 1.54 1.714 3.096 3.47 4.796 5.018a.222.222 0 0 0 .319-.306ZM53.396 163.183a2.433 2.433 0 0 0-2.062.067 2.421 2.421 0 0 0-1.262 1.633c-.424 1.749.312 3.741.902 5.372a23.46 23.46 0 0 0 2.568 5.017 23.995 23.995 0 0 0 4.254 4.733c.055.056.145 0 .09-.083a28.117 28.117 0 0 1-5.31-8.411 26.475 26.475 0 0 1-1.47-4.692c-.285-1.339 0-3.692 1.894-3.47 1.798.236 2.707 2.311 4.046 3.297 0 0 .063 0 0-.049-1.325-1.027-1.992-2.727-3.65-3.414ZM66.651 161.934c-.84 2.648-.77 5.502.201 8.105a22.441 22.441 0 0 0 1.957 4.164 24.178 24.178 0 0 0 2.638 3.97.064.064 0 0 0 .076.01.061.061 0 0 0 .028-.072c-.583-1.388-1.479-2.617-2.082-3.977a30.586 30.586 0 0 1-1.603-4.213 27.722 27.722 0 0 1-.785-3.9 18.98 18.98 0 0 1-.083-4.018c0-.181-.285-.264-.347-.069ZM63.362 172.26a50.265 50.265 0 0 0-3.27-6.378.187.187 0 0 0-.33.046.19.19 0 0 0 .005.135c1.034 2.13 1.936 4.323 2.838 6.51.902 2.186 1.645 4.413 2.672 6.509.035.07.125 0 .118-.048a27.31 27.31 0 0 0-2.033-6.774Z"/></g><path d="M76.097 172.468c-1.52-.534-19.988.188-26.421 4.164-5.712 3.505-15.733 13.36-18.245 17.461-.417.694 4.164 7.954 5.649 8.578.881.368 12.305-9.757 18.675-13.921 5.434-3.554 19.432-4.858 22.979-5.053.541-.055-1.735-10.923-2.637-11.229ZM62.001 251.924s-.957-6.565-1.52-7.12c-.562-.555-8.473-4.331-12.22-10.278-.945-1.499-4.65 3.81-4.65 3.81s2.775 7.585 9.195 11.645 14.102 3.22 15.726 2.082c.527-.361-1.284-11.333-1.471-10.84a9.254 9.254 0 0 1-2.221 3.47c-.285.292.853 6.725.853 6.725l-3.692.506Z" fill="#FEE3C5"/><path d="M35.317 242.493c-13.394 11.049-54.02 55.589-51.474 70.163 1.895 10.82 13.832 14.054 24.117 9.501 8.96-3.962 29.8-51.807 35.505-65.236 5.427-12.811 5.017-25.275-8.148-14.428Z" fill="#FFD3C9"/><path d="M35.317 242.493c-13.394 11.049-54.02 55.589-51.474 70.163 1.895 10.82 13.832 14.054 24.117 9.501 8.96-3.962 29.8-51.807 35.505-65.236 5.427-12.811 5.017-25.275-8.148-14.428Z" fill="#fff"/><path d="M42.327 260.676a.08.08 0 0 0-.103-.105.08.08 0 0 0-.043.042 387.626 387.626 0 0 1-4.525 10.126c-1.562 3.352-3.06 6.739-4.63 10.091a366.577 366.577 0 0 1-9.965 19.744c-.985 1.818-1.999 3.616-3.005 5.42-1.006 1.804-2.082 3.609-3.054 5.455 0 .055.049.104.084.055 1.09-1.499 2.082-3.088 3.053-4.656.972-1.569 1.93-3.123 2.86-4.713 1.86-3.171 3.692-6.371 5.42-9.618 1.728-3.248 3.47-6.614 5.059-9.973 1.312-2.721 2.596-5.476 3.768-8.266.264-.375.528-.756.785-1.145.513-.784 1.013-1.582 1.513-2.38.985-1.562 1.853-3.186 2.776-4.768.055-.097-.111-.208-.174-.104-.992 1.554-2.082 3.06-3.005 4.643l-1.187 1.985c1.596-3.915 3.033-7.863 4.373-11.833Z" fill="#000"/><path d="M-12.971 318.861c-8.828-9.543 2.776-19.724 11.84-20.008 21.298-.66 52.243 5.059 69.309 11.02 5.85 2.041 7.273 35.596.645 35.394-11.756-.305-63.882-7.051-81.794-26.406Z" fill="#FFD3C9"/><path d="M59.801 307.479s2.235.319 14.317.056c8.329-.181 28.808 4.719 37.837 26.372 3.47 8.328-.853 14.359-5.982 6.371-3.609-5.629-5.628-9.841-7.322-11.347 0 0-1.04 10.181-6.197 13.109a108.802 108.802 0 0 1-14.026 6.704 23.254 23.254 0 0 1-1.485-2.512 12.491 12.491 0 0 1-13.186-1.783l-3.956-36.97Z" fill="#FFD3C9"/><path d="M82.113 308.638c3.36 2.776 10.41 8.876 14.4 15.837 4.463 7.738 10.973 23.839 5.227 27.066-4.206 2.374-7.232-3.56-7.232-3.56s1.284 7.225-2.984 8.536c-3.9 1.194-5.962-3.532-5.962-3.532s0 4.511-3.948 4.941c-4.775.514-4.053-9.022-9.342-12.693-1.186-.812 9.841-36.595 9.841-36.595Z" fill="#FFD3C9"/><path d="M87.554 327.827c2.728 3.158 7.08 11.923 7.051 20.001 0 .188-.145.285-.18.118a87.662 87.662 0 0 0-6.94-20.077c-.028-.042.042-.076.07-.042ZM79.879 332.56c2.082 2.964 6.155 12.201 5.843 20.39 0 .181-.152.271-.18.097a93.818 93.818 0 0 0-5.74-20.452c-.02-.042.049-.076.077-.035Z" fill="#000"/><path d="m57.504 302.85-6.426 22.902-.965 21.604s-68.012-17.065-66.353-35.914c.569-6.357 6.634-14.824 20.82-15.31 14.185-.485 52.924 6.718 52.924 6.718Z" fill="#fff"/><path d="M57.692 303.398c-1.472-.416-2.915-.895-4.4-1.276a163.42 163.42 0 0 0-4.352-1.069c-2.928-.694-5.906-1.222-8.869-1.714a176.424 176.424 0 0 0-17.71-2.048c-2.173-.694-4.422-1.186-6.629-1.783-.062 0-.076.083 0 .104 1.805.513 3.595 1.117 5.407 1.61-1.388-.083-2.776-.16-4.123-.208-1.665-.07-3.338 0-5.003 0-.056 0-.063.104 0 .104 1.478.076 2.963.257 4.434.395 1.472.139 3.026.25 4.532.396 2.998.291 5.99.618 8.966 1.006 5.941.784 11.882 1.687 17.753 2.866 1.645.334 3.297.625 4.941.958 1.645.333 3.352.618 5.011.986.18.007.222-.278.042-.327ZM48.4 346.815c-2.84-.833-5.643-1.77-8.475-2.63a258.138 258.138 0 0 1-8.515-2.728c-5.67-1.929-11.25-4.087-16.857-6.19-3.248-1.222-6.538-2.318-9.786-3.533-.083-.034-.145.091-.055.125 1.388.597 2.838 1.236 4.254 1.86 1.416.625 2.776 1.18 4.164 1.784 2.776 1.214 5.635 2.346 8.467 3.47a176.695 176.695 0 0 0 17.024 5.809c3.22.916 6.475 1.603 9.75 2.255.132.028.16-.187.028-.222Z" fill="#000"/><path d="M60.988 302.94c-.11-.236-12.325-1.957-12.325-1.957s-9.716 21.237-9.577 23.714c.138 2.478.964 21.403 1.158 21.625.195.222 14.95 3.686 15.227 3.234.277-.451.097-20.854.062-22.423-.034-1.568 5.455-24.193 5.455-24.193Z" fill="#FEE3C5"/><path d="M138.331 199.166v29.655c0 2.082-.791 3.852-1.755 3.852h-22.833c-.965 0-1.742-1.714-1.742-3.831v-29.676c0-2.116.777-3.83 1.742-3.83h1.055v-2.776h20.723v2.776h1.055c.964 0 1.755 1.714 1.755 3.83ZM172.33 199.166v29.655c0 2.082-.791 3.852-1.755 3.852h-22.833c-.965 0-1.742-1.714-1.742-3.831v-29.676c0-2.116.777-3.83 1.742-3.83h1.055v-2.776h20.723v2.776h1.055c.964 0 1.755 1.714 1.755 3.83Z" fill="#A9C297"/><path d="M136.243 188h-22.188v4.99h22.188V188ZM170.241 188h-22.187v4.99h22.187V188Z" fill="#666"/><path d="M138.331 205.454h-26.33v18.731h26.33v-18.731ZM172.33 205.454H146v18.731h26.33v-18.731Z" fill="#fff"/><path d="M109.072 227.447c0 3.886-1.457 5.226-2.2 5.226H94.214c-.743 0-2.207-1.333-2.214-5.226 0-4.608 3.296-7.37 3.296-9.896 0-1.638-1.589-6.739-.909-6.739h12.249c.694 0-.888 5.094-.888 6.739.007 2.533 3.317 5.26 3.324 9.896Z" fill="#999"/><path d="m95.327 207.425 10.32-.014a1.493 1.493 0 0 1 1.494 1.49l.004 3.033a.105.105 0 0 1-.104.104l-13.096.018a.106.106 0 0 1-.073-.03.106.106 0 0 1-.031-.074l-.004-3.032a1.492 1.492 0 0 1 1.49-1.495Z" fill="#666"/></g><defs><clipPath id="a"><rect width="372" height="350" rx="10" fill="#fff"/></clipPath></defs></svg>