<svg width="372" height="350" fill="none" xmlns="http://www.w3.org/2000/svg"><g clip-path="url(#a)"><path d="M-91.522 350.174c164.692-.475 349.376-.483 514.044 0-164.692.483-349.376.475-514.044 0Z" fill="#999"/><path d="M270.028 350.174h71.251c.236-1.262.465-2.509.685-3.763.221-1.254.505-2.703.788-4.044.19-1.075.386-2.142.583-3.194.095-.53.197-1.052.284-1.558.394-2.08.788-4.137 1.135-6.131.094-.499.189-.998.268-1.496 0-.078 0-.164.055-.242.181-1.052.378-2.08.567-3.116.04-.226.079-.444.126-.663.394-2.165.788-4.246 1.151-6.232.047-.335.11-.655.173-.974.252-1.387.489-2.727.741-4.044.134-.67.244-1.324.362-1.986.363-1.948.71-3.802 1.025-5.548.047-.225.071-.451.126-.662.055-.343.126-.693.189-1.028.063-.335.134-.655.197-.974.229-1.262.441-2.454.638-3.568a.34.34 0 0 1 0-.078l.268-1.449.252-1.356c.048-.296.103-.592.158-.865.087-.389.15-.779.213-1.145s.126-.67.181-.982c.055-.311.079-.467.126-.677.142-.78.26-1.411.37-2.003.071-.389.134-.74.197-1.052 0-.194.063-.381.095-.545.011-.076.027-.152.047-.226.007-.108.026-.215.055-.319v-.148c0-.094 0-.172.04-.226.039-.055 0-.055 0-.078v-.109h-67.272s-6.784 26.497-15.074 60.481Z" fill="#000"/><path d="M330.719 350.174h.993c3.341-17.462 6.648-34.932 9.921-52.41 0-.156-.205-.226-.236-.07a13129.857 13129.857 0 0 0-10.678 52.48Z" fill="#666"/><path d="m298.01 289.576 2.324 23.583v.055l.497 4.939.567 5.688.11 1.114.103 1.028 2.364 24.152h37.28c.236-1.262.465-2.509.686-3.763.22-1.254.504-2.703.788-4.043.189-1.076.386-2.143.583-3.195.094-.53.197-1.052.283-1.558.394-2.08.788-4.137 1.135-6.131.095-.499.189-.998.268-1.496 0-.078 0-.164.055-.242.181-1.052.378-2.08.568-3.116.039-.226.078-.444.126-.662.386-2.159.788-4.239 1.15-6.233.047-.335.11-.655.173-.974.253-1.387.489-2.727.741-4.044.134-.67.244-1.324.363-1.986.362-1.948.709-3.802 1.024-5.547.047-.226.071-.452.126-.663.055-.342.126-.693.189-1.028.063-.335.118-.662.181-.99.237-1.254.45-2.43.655-3.544a.34.34 0 0 1 0-.078l.267-1.449.253-1.356c.047-.296.102-.592.157-.865.087-.389.15-.779.213-1.145s.126-.67.181-.982c.055-.311.079-.467.126-.678.142-.779.26-1.41.371-2.002.071-.389.134-.74.197-1.052 0-.194.063-.381.094-.545.011-.076.027-.152.047-.226.008-.108.026-.215.056-.319v-.148c0-.094 0-.172.039-.226.039-.055 0-.055 0-.078v-.109l-54.34-.086Z" fill="#000"/><path d="M286.552 289.576c6.454 14.164 9.566 29.224 12.679 33.143a17.562 17.562 0 0 0 2.277 2.228c4.854 4.137 13.877 9.419 13.877 9.419v.468c.134 4.892.252 10.003.355 15.278h78.067c1.339-12.957.11-33.424-8.589-60.575l-98.666.039Z" fill="#000"/><path d="M297.04 321.737c4.602 1.862 8.731 4.721 12.813 7.479 4.24 2.867 8.124 6.179 12.206 9.256.158.117 0 .374-.165.265-4.303-2.719-8.802-5.103-13.05-7.9-4.247-2.797-8.423-5.353-12.009-8.765-.173-.132-.015-.413.205-.335Z" fill="#666"/><path d="M296.426 295.458c.551 2.906 1.261 5.789 1.899 8.679.599 2.711 1.032 5.454 1.757 8.165a13.908 13.908 0 0 0 3.846 6.841c1.079.989 2.269 1.869 3.412 2.773.622.491 1.292.958 1.93 1.449-.079-.381-.15-.779-.22-1.168a414.568 414.568 0 0 1-.576-3.311c-.409-2.447-.788-4.901-1.19-7.363-.788-4.823-1.434-9.7-2.45-14.483a.149.149 0 0 1 .02-.118.155.155 0 0 1 .098-.069.156.156 0 0 1 .189.117c1.214 4.729 2.553 9.419 3.617 14.195.52 2.337 2.364 13.907 2.451 14.725.086.818.157 1.69.189 2.539a9.888 9.888 0 0 1 0 2.595c-.048.218-.308.179-.394.039a10.155 10.155 0 0 1-.741-2.517 33.668 33.668 0 0 1-.552-2.501 16.775 16.775 0 0 1-.141-.919c-1.151-.693-2.223-1.613-3.302-2.384-1.08-.771-2.364-1.636-3.444-2.548a13.044 13.044 0 0 1-4.208-6.482 47.19 47.19 0 0 1-1.379-8.313c-.37-3.287-.638-6.591-1.103-9.863-.039-.195.26-.273.292-.078ZM375.052 315.715c-1.237-.631-6.012.498-14.712-.974a10.089 10.089 0 0 1-4.728-1.886c-2.261-1.831-3.94-4.768-5.35-7.284a37.197 37.197 0 0 1-3.743-8.999c-.047-.187-.323-.093-.292.086.323 1.784.505 3.56.977 5.321a33.381 33.381 0 0 0 1.797 4.831c1.316 2.913 2.853 6.045 5.516 8.016 2.774 2.073 6.651 2.455 10.016 2.688 1.946.133 9.574-.07 10.598-1.145a.424.424 0 0 0 .121-.346.426.426 0 0 0-.2-.308Z" fill="#666"/><path d="M325.298 183.447c-19.818 12.341-55.467 29.606-69.005 30.705-15.059 1.199-36.382-38.519-50.724-63.107-2.844-4.877 34.113-29.123 36.887-23.755 7.241 14.024 21.15 45.141 24.625 46.021 2.844.725 32.308-3.568 48.919-6.178 26.429-4.129 23.254 7.62 9.298 16.314Z" fill="#FFD3C9"/><path d="m248.358 136.39-38.068 30.026s27.02 45.609 41.046 48.593c14.027 2.984 58.785-20.257 73.718-30.658 14.932-10.401 15.326-20.194-4.507-18.044-19.834 2.151-50.724 6.015-53.19 4.893-2.467-1.122-18.999-34.81-18.999-34.81Z" fill="#fff"/><path d="M219.273 176.677c13.672-14.102 30.204-26.879 32.922-29.309.134-.117.3.101.166.21-2.798 2.244-20.086 18.87-32.907 29.333-.15.124-.307-.101-.181-.234Z" fill="#000"/><path d="M240.107 207.451c3.996 3.974 7.88 6.849 11.245 7.558 14.05 2.984 58.785-20.257 73.718-30.658 6.382-4.456 10.118-8.788 10.732-12.138-22.907 8.515-76.373 28.156-95.695 35.238Z" fill="#fff"/><path d="M210.613 159.771c-1.829-4.371-16.667-23.848-17.163-39.991-.189-6.163-.607-23.918 4.113-24.768 4.72-.849 5.177 4.348 5.177 4.348s1.143-8.235 5.981-7.94c3.862.242 4.894 7.534 4.894 7.534s1.733-8.967 6.493-8.063c4.342.826 3.444 8.96 3.444 8.96s2.828-4.34 6.855-2.743c4.838 1.909.394 11.632 1.45 18.371.236 1.558 15.579 24.674 15.579 24.674l-36.823 19.618Z" fill="#FFD3C9"/><path d="M223.922 99.671c-1.891 9.832-2.364 13.954.268 23.21.055.187-.205.303-.276.116-3.436-8.835-3.207-13.766-.441-23.481.134-.468.536-.297.449.155ZM213.694 99.009c-2.049 9.98-1.427 14.803.63 24.729 0 .14-.205.21-.244.07-2.837-9.544-4.066-15.232-.694-24.931.126-.452.402-.351.308.132ZM202.843 99.858c-1.277 9.809-1.072 15.278 2.175 24.635a.183.183 0 0 1-.173.247.203.203 0 0 1-.069-.015.199.199 0 0 1-.059-.04.193.193 0 0 1-.038-.059c-4.248-9.217-4.563-16.042-2.144-24.776.166-.6.387-.615.308.008Z" fill="#000"/><path d="M247.436 140.153s-.229-12.925-2.002-18.153c-1.773-5.228-.701-16.361-5.224-17.919-5.083-1.737-10.953 8.165-7.88 17.506 0 0-13.396 9.248-10.835 18.356 2.561 9.107 25.941.21 25.941.21Z" fill="#FFD3C9"/><path d="M232.314 122.631c-5.335 3.42-10.74 9.747-10.654 16.018a.147.147 0 0 1-.145.115.148.148 0 0 1-.146-.115c-1.017-6.708 5.169-14.093 10.126-16.859.929-.507 2.198-.047.819.841Z" fill="#000"/><g opacity=".7"><path d="M192.299 142.677V93.719s33.672 18.262 34.207 18.262h18.873v12.528h-18.873c-.559 0-34.207 18.168-34.207 18.168Z" fill="#fff"/><path d="M192.299 142.677 192 93.719v-.499l.449.234 22.482 12.084c3.759 1.987 7.509 4.02 11.284 5.921l.339.156h.039a.119.119 0 0 0-.079 0H245.749V124.859h-19.195l-.339.148c-3.798 1.878-7.549 3.896-11.316 5.851l-22.6 11.819Zm0 0c7.447-4.098 14.878-8.219 22.356-12.255 3.751-2.01 7.47-4.051 11.276-5.983.126-.055.237-.117.386-.172H245.379l-.347.351V112.09l.379.366h-18.92a.514.514 0 0 1-.166 0h-.055l-.394-.179c-3.814-1.932-7.533-3.966-11.292-5.976-7.486-4.035-14.972-8.071-22.426-12.17l.441-.256-.3 48.802Z" fill="#000"/><path d="M244.063 112.113c.215-.206.496-.333.794-.358.299-.026.598.051.845.218.248.167.429.414.514.698.085.284.068.589-.048.862a1.292 1.292 0 0 1-.589.638 1.313 1.313 0 0 1-1.613-.318 1.275 1.275 0 0 1-.297-.812 1.298 1.298 0 0 1 .394-.928ZM242.598 112.113a1.294 1.294 0 0 1 .395.924 1.273 1.273 0 0 1-.395.923 1.272 1.272 0 0 1-.293-1.425c.068-.158.167-.302.293-.422ZM241.14 112.113a1.294 1.294 0 0 1 .395.924 1.273 1.273 0 0 1-.395.923 1.272 1.272 0 0 1-.403-.923 1.263 1.263 0 0 1 .403-.924ZM239.792 112.113c.269.579.404 1.21.394 1.847a3.97 3.97 0 0 1-.394 1.839 3.97 3.97 0 0 1-.394-1.839 4.003 4.003 0 0 1 .394-1.847ZM237.877 112.113a1.282 1.282 0 0 1 .396.924 1.273 1.273 0 0 1-.396.923 1.276 1.276 0 0 1-.394-.919 1.298 1.298 0 0 1 .394-.928ZM236.412 112.113a1.27 1.27 0 0 1 .402.924 1.255 1.255 0 0 1-.402.923 1.272 1.272 0 0 1-.293-1.425c.068-.158.167-.302.293-.422ZM234.954 112.113a1.294 1.294 0 0 1 .395.924 1.273 1.273 0 0 1-.395.923 1.272 1.272 0 0 1-.403-.923 1.263 1.263 0 0 1 .403-.924Z" fill="#000"/></g><path d="M194.805 137.855v-32.418l31.039 16.703-31.039 15.715Z" fill="#A9C297"/><path d="m280.358 301.87 113.929 6.716s-10.685-101.984-47.918-141.305c-4.594-4.861-16.012-4.916-23.75-1.971-2.758 1.052-12.718 14.024-16.603 26.186-3.885 12.161-25.918 109.992-25.658 110.374Z" fill="#666"/><path d="M346.369 167.297s-15.09 44.735-15.91 51.373c-.819 6.638-18.124 131.473-18.124 131.473h88.603s-6.651-94.146-27.162-140.074c-19.692-44.089-27.407-42.772-27.407-42.772Z" fill="#fff"/><path d="M347.063 167.904c.575 2.93 1.111 5.875 1.647 8.812l1.576 8.819c1.05 5.89 2.054 11.78 3.01 17.67l.086.538-.504.241a854.91 854.91 0 0 1-10.338 4.901l.401-1.083 5.769 12.543.197.413-.26.382a1189.384 1189.384 0 0 1-11.245 16.205 823.138 823.138 0 0 1-5.737 8.025c-1.93 2.657-3.853 5.337-5.831 7.962 1.71-2.804 3.483-5.57 5.232-8.359 1.75-2.789 3.546-5.54 5.335-8.298a1479.654 1479.654 0 0 1 10.89-16.446l-.063.779-5.792-12.536-.338-.74.74-.343a941.015 941.015 0 0 1 10.418-4.745l-.418.779c-.872-5.915-1.71-11.834-2.514-17.755l-1.166-8.882c-.37-2.953-.756-5.913-1.095-8.882ZM373.736 291.056a176.199 176.199 0 0 1-20.204 1.558c-9.456 0-18.841-.903-21.544-.942-.252 0-.37.779-.205.779 3.531.444 14.373 1.511 21.576 1.511 7.202 0 16.823-1.129 19.7-1.838-.04 1.978-.04 3.521-.04 5.5-6.666 1.27-19.526 3.483-40.298.841-.063-.841.055-5.235-.134-6.451 0-.179-.788-.218-.827.063-.166 1.192-.654 11.788-.67 13.938 0 5.305.315 20.256 1.655 23.194 3.026 6.575 15.965 6.591 19.55 6.622 3.585.031 15.137.382 19.464-3.802 2.308-2.236 2.813-14.382 2.474-25.118-.181-5.119-.189-15.761-.497-15.855Zm-20.425 43.45c-11.441 0-16.421-2.337-18.187-4.721-2.056-2.758-2.23-7.549-2.364-12.847-.118-4.153 0-17.14 0-17.444 6.675 1.332 24.279 3.116 40.275-.53 0 6.17.039 11.102.047 17.28 0 4.48-.283 11.975-2.576 14.585-1.939 2.205-8.913 3.662-17.195 3.677Z" fill="#999"/><path d="M321.374 165.653s-12.711 42.726-13.483 49.021c-.772 6.295-25.161 135.5-25.161 135.5h-16.374s34.624-145.621 38.911-159.45c4.287-13.829 16.107-25.071 16.107-25.071Z" fill="#fff"/><path d="M320.397 167.904c-1.245 2.198-2.53 4.379-3.806 6.56a549.812 549.812 0 0 1-3.861 6.522 860.282 860.282 0 0 1-7.88 12.956l-.04-.912a572.93 572.93 0 0 1 5.24 6.334l.41.515-.386.545-6.793 9.513.166-.491c-.173 5.983-.418 11.959-.694 17.919a665.992 665.992 0 0 1-.472 8.968c-.182 2.983-.347 5.983-.583 8.975-.079-2.992-.079-5.984-.111-8.975-.031-2.992 0-5.984 0-8.976.048-5.983.126-11.967.276-17.919v-.28l.158-.219 6.792-9.504v1.051a452.475 452.475 0 0 1-5.114-6.451l-.339-.436.292-.467c2.726-4.244 5.479-8.469 8.258-12.676 1.379-2.112 2.79-4.2 4.192-6.288 1.403-2.088 2.861-4.191 4.295-6.264Z" fill="#999"/><path d="m326.693 192.306-2.837-8.43-7.762 5.867.812 6.147 6.115 1.566 3.672-5.15Z" fill="#FFB445"/><path d="m323.021 197.456-5.926 69.401-11.119 20.724-6.036-24.097 16.966-67.594 6.115 1.566Z" fill="#FFB445"/><g opacity=".7"><path d="M279.752 230.123a25.728 25.728 0 0 1-3.985 13.682 26.14 26.14 0 0 1-10.688 9.543 26.497 26.497 0 0 1-27.56-2.719 25.97 25.97 0 0 1-8.571-11.442 25.668 25.668 0 0 1-1.172-14.191 25.842 25.842 0 0 1 6.578-12.665 26.302 26.302 0 0 1 12.349-7.326l.071-21.036h-2.12v-4.121l17.982.039v4.121h-2.127l-.087 21.036a26.24 26.24 0 0 1 13.964 9.301 25.735 25.735 0 0 1 5.366 15.778Z" fill="#fff"/><path d="M279.752 230.123a25.736 25.736 0 0 1-3.966 13.7 26.145 26.145 0 0 1-10.683 9.564 26.661 26.661 0 0 1-14.242 2.562 26.568 26.568 0 0 1-13.468-5.248 26.134 26.134 0 0 1-8.643-11.482 25.822 25.822 0 0 1-1.219-14.261c.94-4.8 3.232-9.24 6.611-12.809a26.693 26.693 0 0 1 12.466-7.44l-.228.296v-10.502l.063-10.502.299.303h-2.419V179.599h.292l17.982.124h.205V184.227h-2.309l.173-.172-.204 21.036-.04-.047a26.26 26.26 0 0 1 13.964 9.327 25.763 25.763 0 0 1 5.35 15.799l.016-.047Zm0 0a25.737 25.737 0 0 0-5.384-15.752 26.24 26.24 0 0 0-13.954-9.28v-21.199H262.707l-.181.179v-4.122l.205.203-17.982.047.291-.289v4.122l-.299-.296h2.427V194.542l-.055 10.502v.234l-.229.062a26.17 26.17 0 0 0-9.602 4.849 25.838 25.838 0 0 0-6.796 8.277 25.503 25.503 0 0 0-1.194 20.827 25.748 25.748 0 0 0 5.805 8.984 26.105 26.105 0 0 0 8.987 5.891 26.33 26.33 0 0 0 21.082-.828 26.077 26.077 0 0 0 10.696-9.517 25.665 25.665 0 0 0 3.992-13.669l-.102-.031Z" fill="#000"/></g><path d="M231.983 230.03s-.575-14.725 14.602-19.657Z" fill="#fff"/><path d="M275.142 232.211a21.412 21.412 0 0 1-7.062 13.758 21.88 21.88 0 0 1-14.565 5.536c-5.38 0-10.57-1.972-14.565-5.536a21.415 21.415 0 0 1-7.061-13.758h43.253Z" fill="#A9C297"/><path d="M270.248 225.628c0 .386-.116.765-.333 1.086a1.969 1.969 0 0 1-.887.72 1.988 1.988 0 0 1-2.156-.424 1.938 1.938 0 0 1-.429-2.131 1.96 1.96 0 0 1 .729-.877c.325-.215.707-.33 1.099-.33a1.99 1.99 0 0 1 1.4.571 1.932 1.932 0 0 1 .577 1.385ZM260.115 230.03a1.256 1.256 0 0 1-.788 1.166 1.282 1.282 0 0 1-1.392-.274 1.256 1.256 0 0 1 .194-1.942 1.293 1.293 0 0 1 1.614.155 1.254 1.254 0 0 1 .372.895ZM244.426 223.119a1.27 1.27 0 0 1-.79 1.167 1.288 1.288 0 0 1-1.392-.277 1.253 1.253 0 0 1 .202-1.943 1.28 1.28 0 0 1 .711-.209 1.289 1.289 0 0 1 .9.37 1.246 1.246 0 0 1 .369.892ZM263.093 220.891a.959.959 0 0 1-.597.898.993.993 0 0 1-1.068-.205.956.956 0 0 1-.215-1.053.978.978 0 0 1 .903-.598.978.978 0 0 1 .691.277.953.953 0 0 1 .286.681ZM237.838 230.03a.955.955 0 0 1-.165.537.978.978 0 0 1-1.006.41.986.986 0 0 1-.5-.267.96.96 0 0 1 .157-1.487.995.995 0 0 1 .918-.086.972.972 0 0 1 .525.523.96.96 0 0 1 .071.37ZM241.092 229.227a.397.397 0 0 1-.027.152.4.4 0 0 1-.651.129.395.395 0 0 1-.087-.432.388.388 0 0 1 .371-.238c.105 0 .205.041.279.114a.386.386 0 0 1 .115.275Z" fill="#FFB445"/><path d="M344.037 186.875c-3.523 9.513-16.95 76.142-14.476 82.242 3.854 9.536 17.439 32.971 35.799 17.023 12.718-11.04 4.208-68.623-1.71-93.741-3.672-15.566-13.317-22.516-19.613-5.524Z" fill="#fff"/><path d="M316.031 228.986c-5.658-1.185-37.233 28.265-30.535 33.454 31.52 24.401 61.89 28.157 69.77 27.377 10.322-1.02 15.76-12.66 14.121-19.181-2.341-9.45-47.753-40.443-53.356-41.65Z" fill="#FFD3C9"/><path d="M320.452 231.401s-13.569-11.78-22.726-19.626c-5.114-4.37-14.554-11.094-19.795-12.613-7.88-2.267-42.087-6.794-43.379 1.394-1.166 7.41 28.762 7.604 28.762 7.604s-30.18-2.836-29.944 6.342c.236 9.178 34.097 4.955 34.097 4.955s-31.071-2.228-29.298 7.199c1.34 7.121 32.213 5.002 32.213 5.002s-26.721-1.73-25.665 5.656c1.174 8.157 29.794 7.97 29.794 7.97 5.895 18.317 17.581 27.806 27.927 27.985 2.136.039 18.014-41.868 18.014-41.868Z" fill="#FFD3C9"/><path d="M273.81 208.48c-3.53-.46-7.092-.943-10.661-1.091-3.57-.148-7.092-.179-10.694 0-8.731.444-14.128 2.072-13.79 2.01 8.148-1.558 20.914-1.192 24.476-1.044 3.561.148 7.092.117 10.669.265.095 0 .087-.125 0-.14ZM273.503 221.21c-4.531-.397-9.023-.95-13.577-1.145-4.555-.195-8.85 0-13.396.125-.347 0-.229.187.118.194 4.539.063 8.731.476 13.262.593 4.531.116 9.078.062 13.585.342a.053.053 0 0 0 .04-.013.054.054 0 0 0 .019-.037.057.057 0 0 0-.013-.04.056.056 0 0 0-.038-.019ZM275.228 232.18c-6.902-.951-13.971-.647-20.905-.187-.339 0-.158.249.189.241 6.95-.07 12.403-.171 20.685.18.126.007.181-.211.031-.234Z" fill="#000"/><path d="m320.089 227.646-30.866 46.441s54.601 20.709 68.344 16.362c13.742-4.348 15.2-18.076 11.284-23.015-8.463-10.635-48.762-39.788-48.762-39.788Z" fill="#fff"/><path d="M303.652 274.719c9.763-16.985 22.623-33.377 24.664-36.384.095-.148.315 0 .213.163-2.159 2.852-14.799 23.155-24.641 36.408-.118.148-.331-.024-.236-.187ZM328.411 233.769c10.425 7.168 20.693 14.71 29.825 23.467l-1.843-1.504c-9.047-7.191-19.015-14.639-27.982-21.963Z" fill="#000"/><path d="M321.39 284.839a189.316 189.316 0 0 0 22.521 5.407c2.525.434 5.081.671 7.643.709a20.714 20.714 0 0 0 13.743-5.586 17.403 17.403 0 0 0 4.121-6.233c.851-2.337.875-4.955 1.119-7.425a268.575 268.575 0 0 0-.126-30.533 277.281 277.281 0 0 0-3.191-30.384 263.637 263.637 0 0 1 4.397 45.663c.063 5.103 0 10.214-.3 15.324-.236 2.571-.275 5.166-1.19 7.643-2.797 7.394-10.732 12.131-18.573 12.146-10.354-.475-20.346-3.677-30.164-6.731Z" fill="#000"/><path d="M368.748 213.131a10.787 10.787 0 0 1-.181 5.828c.15-1.956 0-3.896.181-5.828ZM333.099 237.267a345.465 345.465 0 0 1 6.47-32.722 344.216 344.216 0 0 1-6.47 32.722Z" fill="#000"/><path d="M337.678 207.467a41.85 41.85 0 0 1 0 6.194 9.907 9.907 0 0 1 0-6.194Z" fill="#000"/><path d="M325.093 184.639c6.415 1.356 17.155-8.531 21.276-16.438.284-.538-.67-6.171-1.505-13.066-.496-4.184-.938-8.85-1.04-13.143 0-.881-27.076 7.136-27.076 7.136s2.876 8.937 3.003 16.416a9.786 9.786 0 0 1-.15 1.768 2.322 2.322 0 0 0 0 .289c-.497 3.381-.709 15.73 5.492 17.038Z" fill="#FFD3C9"/><path d="M344.21 148.521c-9.456 14.67-21.812 13.852-24.672 13.431a74.387 74.387 0 0 0-2.798-12.785s27.068-8.017 27.076-7.136c.087 2.08.221 4.3.394 6.49Z" fill="#000"/><path d="M354.895 112.394c1.411 9.879-7.943 36.345-15.697 41.37-11.229 7.284-27.469 5.625-33.182-7.238-5.516-12.465 7.273-46.746 15.76-51.085 12.419-6.404 31.023 2.353 33.119 16.953Z" fill="#FFD3C9"/><path d="M325.156 126.332c.04-.07.118.132.087.202-.678 1.769-1.158 3.896.276 5.049.039 0 0 .125-.055.094-1.892-.951-1.238-3.787-.308-5.345Z" fill="#000"/><path d="M327.418 125.015c2.986.779 1.206 6.607-1.576 5.89-2.782-.717-.922-6.536 1.576-5.89ZM314.55 122.764c0-.078-.166 0-.189.117-.497 1.823-1.364 3.833-3.208 3.942-.055 0-.078.093 0 .101 2.089.327 3.223-2.353 3.397-4.16Z" fill="#000"/><path d="M313.494 120.387c-2.876-1.098-4.886 4.675-2.222 5.688 2.663 1.013 4.633-4.768 2.222-5.688ZM330.775 123.255a24.513 24.513 0 0 1-2.262-1.122c-.867-.444-1.576-.702-2.088-1.559a1.271 1.271 0 0 1 .402-1.558c1.024-.693 2.214-.413 3.278.078a4.704 4.704 0 0 1 2.458 2.337 1.367 1.367 0 0 1-.283 1.498 1.403 1.403 0 0 1-1.505.326ZM311.674 117.131c.841.074 1.685.105 2.529.093a4.075 4.075 0 0 0 2.6-.389 1.28 1.28 0 0 0 .387-1.558c-.56-1.091-1.742-1.411-2.908-1.489a4.77 4.77 0 0 0-3.302.889 1.367 1.367 0 0 0-.048 2.131c.21.178.468.29.742.323ZM322.319 142.997a2.923 2.923 0 0 1-1.859.607 5.097 5.097 0 0 1-1.829-1.043c-.055-.039-.133 0-.11.07.154.433.423.818.779 1.113.357.295.787.489 1.246.562.403.014.8-.09 1.142-.3a2.01 2.01 0 0 0 .781-.877c.063-.093-.071-.195-.15-.132ZM322.044 137.013a6.587 6.587 0 0 1-4.988 1.504 8.498 8.498 0 0 1-2.27-.569 2.202 2.202 0 0 1-.418-.179 3.343 3.343 0 0 1-.378-.179.468.468 0 0 1-.244-.514.602.602 0 0 1 .079-.18l.055-.155c.386-1.411 1.166-3.483 1.166-3.483-.591.101-3.57.483-3.309-.226 2.198-5.913 4.641-12.465 8.092-17.919a.18.18 0 0 1 .099-.089.183.183 0 0 1 .134.007.171.171 0 0 1 .082.23c-1.883 5.765-4.783 11.164-6.768 16.93a11.39 11.39 0 0 1 3.215 0c.181.117-1.576 3.981-1.71 4.628a.206.206 0 0 0 0 .07c2.277 1.005 4.271.826 7.092-.063.118-.124.228.078.071.187Z" fill="#000"/><path d="M350.27 132.97c-6.927-.834-8.92-9.575-6.044-15.753 0 0-18.644-1.107-16.682-15.699 0 0-5.65 5.687-13.94 4.316l-2.222 4.823c-1.765-.896-2.719-6.514 2.648-9.747 0 0 1.725-7.129 7.935-10.416a10.227 10.227 0 0 1 10.985.568 15.447 15.447 0 0 1 11.481-.569c6.532 2.135 8.1 8.695 8.1 8.695s8.668 3.436 8.968 10.051a13.207 13.207 0 0 1-.819 5.517 13.316 13.316 0 0 1-3.027 4.704s1.766 2.922-.441 8.095c-1.418 3.335-4.862 5.672-6.942 5.415Z" fill="#000"/><path d="M328.198 100.31a16.955 16.955 0 0 0-.733 3.522 13.894 13.894 0 0 0 0 3.529 9.201 9.201 0 0 0 3.152 5.991c1.718 1.621 4.098 2.275 6.375 2.945 1.182.195 2.364.468 3.57.592 1.205.125 2.411.187 3.632.328-1.213.054-2.443.054-3.672.085-1.229.031-2.443-.249-3.672-.366-2.364-.561-4.87-1.247-6.8-2.945a9.643 9.643 0 0 1-3.278-6.56 14.503 14.503 0 0 1 1.426-7.121Z" fill="#000"/><path d="M317.189 106.855a19.47 19.47 0 0 0 6.092-1.878 11.533 11.533 0 0 0 2.553-1.784 13.854 13.854 0 0 0 2.064-2.439 7.628 7.628 0 0 1-1.576 2.883 8.635 8.635 0 0 1-2.632 2.088c-.988.515-2.051.875-3.152 1.067a10.285 10.285 0 0 1-3.349.063Z" fill="#000"/><path d="M337.882 124.384s14.87 5.719 17.336 8.726c1.001 1.231-1.371 6.513-2.474 7.012-.693.312-8.376-4.94-17.155-7.791-.008.008 2.514-4.308 2.293-7.947Z" fill="#999"/><path opacity=".2" d="M305.291 126.721c.175.315.372.617.591.904.874 1.138 2.096 1.738 4.287 1.371 1.434-.241 2.631-1.503 4.893-1.075a7.84 7.84 0 0 1 3.83 1.745c.714.589 1.39 1.221 2.025 1.894.165.155.323.327.481.49.147.158.305.307.472.445.249.215.512.412.788.592 3.239 2.064 8.85 2.594 11.135 1.192 2.088-1.286 3.94-5.384 4.05-9.482a13.125 13.125 0 0 0-.189-2.618 10.218 10.218 0 0 0-.788-2.462c-.071-.14-.134-.28-.213-.413a6.08 6.08 0 0 0-.717-1.044c-1.875-2.259-5.681-4.261-9.889-5.609-.426-.14-.851-.273-1.285-.397a46.886 46.886 0 0 0-2.829-.702 38.564 38.564 0 0 0-3.246-.537c-3.751-.452-7.092-.187-8.952 1.052a8.92 8.92 0 0 0-2.979 3.708 15.775 15.775 0 0 0-.866 2.174 20.724 20.724 0 0 0-.954 7.339c.031.495.151.98.355 1.433Z" fill="#fff"/><g opacity=".2" fill="#fff"><path d="M305.291 126.721c.175.315.372.617.591.904l9.18-3.662c.31-.123.558-.362.69-.666.132-.304.136-.647.011-.954a1.278 1.278 0 0 0-.559-.631 1.298 1.298 0 0 0-.835-.148 1.483 1.483 0 0 0-.253.07l-9.14 3.646c.017.495.123.984.315 1.441ZM318.892 129.69c.714.589 1.39 1.221 2.025 1.893l16.95-6.763a13.19 13.19 0 0 0-.189-2.617l-18.786 7.487ZM324.51 123.738a.854.854 0 0 0 .376.424.872.872 0 0 0 .735.051l11.284-4.496c-.071-.14-.134-.28-.212-.413a6.086 6.086 0 0 0-.718-1.044l-10.992 4.418a.846.846 0 0 0-.473 1.06ZM305.929 117.949l16.044-6.397a38.586 38.586 0 0 0-3.247-.537l-11.93 4.76a15.907 15.907 0 0 0-.867 2.174ZM308.86 119.063a.438.438 0 0 0 .465.257h.095l16.658-6.646a36.07 36.07 0 0 0-1.284-.397l-15.697 6.233a.417.417 0 0 0-.237.553ZM321.87 132.495c.249.215.512.412.788.592l8.597-3.428a.42.42 0 0 0-.228-.779h-.095l-9.062 3.615Z"/></g><path d="M321.098 132.354c-2.868-2.812-3.94-3.739-6.091-4.02a5.98 5.98 0 0 0-3.152.577 7.58 7.58 0 0 1-1.576.498c-2.585.437-4.681-.568-5.351-2.555-.985-2.914-.22-11.874 4.642-15.138 2.955-1.979 9.054-1.449 13.782-.288 5.106 1.239 11.764 4.004 13.758 7.682 2.955 5.453.221 13.174-3.002 15.504a6.273 6.273 0 0 1-2.656 1.028 12.914 12.914 0 0 1-5.548-.5 12.798 12.798 0 0 1-4.806-2.788Zm15.224-12.847c-1.529-2.828-6.714-5.68-13.215-7.269-5.807-1.418-10.827-1.348-13.096.171-4.46 2.992-5.217 11.523-4.318 14.18.646 1.901 2.695 2.275 4.404 1.995a7.25 7.25 0 0 0 1.411-.452 6.817 6.817 0 0 1 3.617-.631c2.466.327 3.798 1.558 6.572 4.253 3.152 3.062 9.117 4.161 11.867 2.174 3.002-2.158 5.429-9.481 2.758-14.421Z" fill="#999"/><path d="M343.004 136.304s7.786-7.689 11.418-4.799c3.633 2.891-3.317 14.803-8.36 15.722a4.941 4.941 0 0 1-3.792-.582 4.843 4.843 0 0 1-2.197-3.111l2.931-7.23Z" fill="#FFD3C9"/><path d="M352.342 134.871a.08.08 0 0 1 .035.025.074.074 0 0 1 .013.041.074.074 0 0 1-.013.041.073.073 0 0 1-.035.025c-3.562.779-5.847 3.483-7.636 6.42 1.198-1.044 2.664-1.472 4.098 0 .079.078 0 .195-.118.164a3.025 3.025 0 0 0-3.444.452 14.083 14.083 0 0 0-2.025 2.337c-.205.265-.717 0-.544-.304a.325.325 0 0 0 .04-.07c.678-4.231 5.019-9.505 9.629-9.131Z" fill="#000"/><path d="m319.759 166.035 4.491 15.332 21.985-15.924 3.31 7.463s-22.19 25.344-22.064 24.059l-4.216-12.925-10.031 7.05 3.94-20.887 2.585-4.168Z" fill="#666"/><path d="M314.518 180.651c.788-3.421 1.45-6.895 2.364-10.285 0-.116.237-.14.252 0 .213 3.452-2.813 16.541-3.286 19.712h.048c.417-.304 9.235-6.14 9.298-6.015 1.025 2.103 4.121 11.523 4.303 12.364 3.514-4.028 18.21-19.781 22.205-23.49.111-.101.3 0 .197.156-3.215 4.324-22.284 25.165-22.489 25.072-.173.085-4.043-11.523-4.389-13.658-1.576 1.324-10.575 8.048-10.52 7.526a105.088 105.088 0 0 1 2.017-11.382ZM116.124 238.156a67.668 67.668 0 0 1-11.733 8.57c5.461-11.056 1.166-33.852.788-30.471-1.821 16.166-10.662 34.771-14.83 36.174a.17.17 0 0 0-.071 0c-11.332 2.804-22.167 1.457-31.52-1.652a.201.201 0 0 1 0-.062c7.265-12.645 3.6-35.917 3.199-34.421-4.366 16.065-16.595 26.715-18.912 26.996-9.677-6.093-15.28-12.699-14.184-13.588 8.219-6.497 13.916-21.222 18.754-36.617 4.791-15.192 5.816-37.031 13.593-51.046 7.092-12.832 24.334-17.335 35.098-12.661 28.281 12.255 24.838 104.259 19.818 108.778Z" fill="#000"/><path d="M94.422 128.646a17.69 17.69 0 0 1 6.36 3.381 37.382 37.382 0 0 1 5.011 4.869 59.496 59.496 0 0 1 7.281 11.492c4.043 8.048 6.824 24.503 8.259 33.213a135.91 135.91 0 0 1 1.284 26.419c-.079 2.205-.299 4.41-.441 6.615l-.662 6.599-.93 6.567-1.174 6.545.725-6.584.575-6.591.426-6.583c.063-2.197.204-4.394.204-6.583a148.24 148.24 0 0 0-1.623-26.186c-1.276-8.648-4.082-24.931-7.762-33.002a60.207 60.207 0 0 0-6.776-11.515 36.378 36.378 0 0 0-4.665-5.002 23.515 23.515 0 0 0-2.814-2.096 12.843 12.843 0 0 0-3.278-1.558ZM27.498 227.474a113.187 113.187 0 0 0 6.359-10.128 129.936 129.936 0 0 0 5.445-10.487c1.639-3.56 3.152-7.144 4.413-10.798 1.26-3.654 2.364-7.378 3.577-11.071 2.482-7.37 4.46-22.547 7.431-29.808 1.505-3.623 3.089-7.238 4.94-10.752a53.71 53.71 0 0 1 3.153-5.126 15.003 15.003 0 0 1 4.286-4.41 15.771 15.771 0 0 0-3.94 4.597 49.37 49.37 0 0 0-2.75 5.22c-1.686 3.537-3.152 7.168-4.475 10.814-2.703 7.292-4.681 22.438-7.037 29.839-1.253 3.685-2.364 7.37-3.736 11.063a94.027 94.027 0 0 1-4.727 10.853 109.954 109.954 0 0 1-12.94 20.194Z" fill="#000"/><path d="M145.501 237.057c4.011-3.412 43.757 1.005 40.7 8.087-14.358 33.291-39.96 51.794-46.618 54.607-8.723 3.685-17.257-3.958-18.873-9.887-2.348-8.593 20.827-49.426 24.791-52.807Z" fill="#FFD3C9"/><path d="m140.985 240.695 43.86 15.356s-28.675 40.295-47.713 44.728c-6.832 1.559-17.186-4.674-17.848-13.198-.662-8.523 21.701-46.886 21.701-46.886Z" fill="#fff"/><path d="M176.059 263.881c-17.123-4.885-34.372-12.582-37.477-13.72-.15-.046 0-.28.102-.218 2.987 1.27 23.64 7.955 37.485 13.697.158.054.056.288-.11.241Z" fill="#000"/><path d="M97.59 204.569c6.438 6.739 52.197 57.224 55.16 58.915 0 0-.867 43.084-22.481 37.459-14.05-3.654-43.884-65.327-48.92-89.931-2.316-11.297 2.735-20.553 16.241-6.443Z" fill="#fff"/><path d="M12.628 350.174h104.134l-7.21-49.987H23.589c-11.166 30.767-10.961 49.987-10.961 49.987Z" fill="#000"/><path d="m112.704 313.245-4.035-41.214s9.638-7.051 8.077-22.594c-.567-5.719-22.024-47.011-23.915-48.764-7.628-7.012-20.977-4.791-25.768-.272-25.13 23.684-38.675 66.753-48.54 112.844h94.181Z" fill="#FFB445"/><path d="M96.865 266.281a78.871 78.871 0 0 0-11.654 1.036c-1.915.335-3.798.779-5.682 1.223-.937.234-1.875.437-2.82.631a12.2 12.2 0 0 1-3.01.335.072.072 0 0 0-.051.021.07.07 0 0 0 0 .099.072.072 0 0 0 .05.021c.95.114 1.905.166 2.86.155a20.547 20.547 0 0 0 2.766-.311c1.939-.327 3.862-.74 5.8-1.083 3.94-.701 7.817-1.395 11.773-1.808.173-.023.15-.327-.032-.319ZM106.195 270.371a86.132 86.132 0 0 0-9.582-1.153c-1.615-.101-3.215-.101-4.823-.07-.788 0-1.576.055-2.308.094-.733.039-1.687.202-2.538.233-.087 0-.094.141 0 .141.788 0 1.576.116 2.404.155l2.364.109c1.576.078 3.207.172 4.814.234 3.215.125 6.415.281 9.622.522a.138.138 0 0 0 .101-.022.134.134 0 0 0 .034-.187.133.133 0 0 0-.088-.056Z" fill="#000"/><path d="M6.679 350.174h80.983L74.644 195.438s-8.77 1.761-16.422 10.821C27.994 242.067 6.679 350.174 6.679 350.174ZM91.247 196.762l20.346 153.412h6.509s-8.353-76.92-8.274-77.691c.079-.772 11.52-11.991 8.896-26.014-2.624-14.024-25.665-48.429-27.477-49.707Z" fill="#fff"/><path d="M109.828 272.459c6.075-7.051 10.567-16.68 8.337-26.037a66.319 66.319 0 0 0-4.807-13.362c-1.986-4.331-4.216-8.57-6.588-12.691a110.898 110.898 0 0 1 7.14 12.465 63.106 63.106 0 0 1 5.027 13.455c2.206 9.568-2.451 19.423-9.109 26.194v-.024Z" fill="#000"/><path d="M109.497 222.652a17.065 17.065 0 0 1 2.364 6.77 28.792 28.792 0 0 1-2.364-6.77Z" fill="#000"/><path d="M95.589 204.086c.993 2.298 2.033 4.573 3.065 6.856a336.175 336.175 0 0 0 3.152 6.825c2.101 4.539 4.237 9.066 6.406 13.579l.19-.872a366.958 366.958 0 0 0-6.557 5.453l-.52.437.331.584 5.824 10.128-.103-.498a847.208 847.208 0 0 0-1.994 17.467c-.309 2.914-.598 5.83-.866 8.749-.245 2.914-.536 5.836-.733 8.757.536-2.882.985-5.781 1.473-8.671.489-2.891.922-5.797 1.356-8.695a970.413 970.413 0 0 0 2.443-17.413v-.257l-.134-.233-5.808-10.129-.181 1.021a590.593 590.593 0 0 0 6.446-5.571l.433-.381-.252-.491a1186.24 1186.24 0 0 0-6.879-13.362c-1.151-2.22-2.364-4.433-3.515-6.645a300.211 300.211 0 0 0-3.577-6.638Z" fill="#999"/><path d="M74.163 199.715c.276 1.878 5.737 14.717 14.223 13.463 3.846-.561 6.517-13.463 6.517-13.463l.347-1.091 4.846-15.247-17.462-13.244-2.537-1.777s-1.048 4.262-2.301 9.575c-.063.242-.119.491-.182.78-.063.288-.157.576-.22.864a90.521 90.521 0 0 0-.576 2.408c-.133.615-.275 1.215-.401 1.87-.127.654-.26 1.285-.402 1.932-1.23 6.404-1.923 13.128-1.852 13.93Z" fill="#FFD3C9"/><path d="m100.096 183.377-4.13 13.003a36.352 36.352 0 0 1-21.378-1.558c.324-2.586.788-5.866 1.434-9.076.142-.647.26-1.278.402-1.94.142-.662.268-1.247.41-1.862.173-.779.37-1.621.567-2.408.064-.28.142-.568.221-.864.079-.296.118-.507.181-.779 1.253-5.314 2.301-9.576 2.301-9.576l2.538 1.769 17.454 13.291Z" fill="#000"/><path d="M55.133 164.476c.874 28.048 17.958 30.689 24.081 30.494 5.516-.171 24.428-1.464 26.493-29.45 2.064-27.985-11.403-36.446-24.121-36.711-12.718-.264-27.328 7.62-26.453 35.667Z" fill="#FFD3C9"/><path d="M59.64 160.76a19.134 19.134 0 0 0 1.844-.685 3.16 3.16 0 0 0 1.726-1.076.987.987 0 0 0-.205-1.199 2.539 2.539 0 0 0-2.53-.172 3.666 3.666 0 0 0-2.064 1.644 1.058 1.058 0 0 0 .143 1.125 1.08 1.08 0 0 0 1.086.363ZM78.355 158.135c-.655.009-1.31-.017-1.962-.078a3.228 3.228 0 0 1-1.978-.46.985.985 0 0 1-.197-1.208c.268-.358.63-.637 1.047-.807.416-.17.871-.225 1.317-.159a3.655 3.655 0 0 1 2.49.889 1.056 1.056 0 0 1 .256 1.147c-.076.195-.21.364-.383.484-.173.12-.378.187-.59.192ZM75.802 165.739c0-.078.165.062.173.14.213 1.901.788 4.043 2.6 4.425.056 0 .064.109 0 .109-2.119 0-2.907-2.844-2.773-4.674Z" fill="#000"/><path d="M77.244 163.518c3.042-.662 4.16 5.399 1.34 6.015-2.821.615-3.909-5.454-1.34-6.015Z" fill="#000"/><path d="M78.489 163.619c.599.25 1.237.78 1.891.709.654-.07 1.214-.779 1.576-1.503.04-.07.102 0 .118.054.237 1.161 0 2.431-1.221 2.836-1.221.405-2.136-.514-2.648-1.636-.087-.202.047-.553.284-.46ZM64.73 166.931c0-.07-.141.101-.133.179.268 1.893.252 4.106-1.419 4.924-.047 0 0 .117 0 .101 2.12-.522 2.112-3.49 1.553-5.204Z" fill="#000"/><path d="M62.8 165.123c-3.152.101-2.695 6.233.19 6.163 2.883-.07 2.434-6.241-.19-6.163Z" fill="#000"/><path d="M61.602 165.528c-.52.382-1.016 1.029-1.662 1.138-.647.109-1.371-.476-1.907-1.068-.056-.054-.11 0-.103.078.063 1.185.607 2.338 1.891 2.454 1.285.117 1.947-1.02 2.16-2.228.039-.21-.174-.522-.379-.374ZM78.284 180.331c-.347.538-.654 1.239-1.324 1.449a5.191 5.191 0 0 1-2.135 0 .07.07 0 0 0-.043.007.07.07 0 0 0-.03.029.07.07 0 0 0 .01.081 2.64 2.64 0 0 0 2.632.468c.359-.189.654-.478.849-.832.194-.353.28-.754.246-1.155 0-.109-.15-.117-.205-.047ZM69.151 174.877s.087 2.883.315 4.208c0 .124.363.132.788.077h.055a6.515 6.515 0 0 0 3.375-.895 6.423 6.423 0 0 0 2.41-2.501.14.14 0 0 0-.145-.183.138.138 0 0 0-.084.035 9.792 9.792 0 0 1-5.516 2.633c-.158-.358 0-4.94-.205-4.916a11.865 11.865 0 0 0-2.931 1.192c-.37-5.991.236-11.99-.221-17.919 0-.211-.339-.226-.362 0-1.088 6.232-.788 13.151-.6 19.352.032.694 2.617-.771 3.121-1.083Z" fill="#000"/><path d="M106.006 168.31a11.752 11.752 0 0 1-5.11-3.095A11.557 11.557 0 0 1 98 160.028a30.622 30.622 0 0 1-13.908-7.838c.276.546 2.309 4.464 3.412 6.428-18.36-.452-26.075-13.05-26.075-13.05-4.846 6.622-5.658 10.354-6.202 12.302 0 0-1.639-10.682 2.798-18.815 5.43-9.957 15.09-9.778 15.09-9.778a25.796 25.796 0 0 1 13.401-1.741 25.676 25.676 0 0 1 12.422 5.27c13.616 10.643 7.068 35.504 7.068 35.504Z" fill="#000"/><path d="M73.485 157.862a33.487 33.487 0 0 0 9.685 1.854 28.483 28.483 0 0 1-14.365-5.726 27.012 27.012 0 0 1-4.728-4.675 18.463 18.463 0 0 1-3.468-6.342.143.143 0 0 0-.068-.064.145.145 0 0 0-.172.045.142.142 0 0 0-.028.09 21.392 21.392 0 0 0 2.546 6.715 19.752 19.752 0 0 0 4.917 5.197 22.667 22.667 0 0 0 5.665 2.968" fill="#000"/><path d="M61.28 177.004c-3.224.257-6.17-3.451-6.565-8.266-.394-4.815 1.907-8.952 5.13-9.209 3.223-.257 6.162 3.452 6.564 8.266.402 4.815-1.907 8.944-5.13 9.209Zm-1.372-16.306c-2.569.21-4.381 3.771-4.043 7.939.34 4.168 2.72 7.401 5.288 7.191 2.569-.21 4.381-3.763 4.035-7.939-.347-4.176-2.68-7.394-5.28-7.191ZM81.09 175.407c-4.555.366-8.574-3.256-8.976-8.071-.402-4.815 2.987-9.038 7.533-9.404 4.547-.366 8.582 3.257 8.976 8.079.394 4.823-2.987 9.03-7.534 9.396Zm-1.34-16.298c-3.9.311-6.793 3.957-6.446 8.133.347 4.176 3.79 7.308 7.69 7.012 3.901-.296 6.786-3.965 6.447-8.134-.34-4.168-3.798-7.331-7.691-7.011Z" fill="#999"/><path d="M72.445 166.518c-4.547-1.177-6.43.413-6.446.428l-.788-.865c.087-.085 2.309-2.064 7.557-.701l-.323 1.138ZM87.96 165.295l-.306-1.138c.788-.203 12.395-3.825 14.349-4.09 1.954-.265 7.092 2.002 7.659 2.259l-.496 1.068c-1.426-.655-5.398-2.291-6.919-2.174h-.086c-1.505.218-7.825 2.368-14.2 4.075Z" fill="#999"/><path d="M100.23 166.853s4.294-9.801 8.668-8.453c4.373 1.347 2.364 14.701-1.891 17.334a4.844 4.844 0 0 1-5.458.114 4.77 4.77 0 0 1-1.359-1.345l.04-7.65Z" fill="#FFD3C9"/><path d="M108.236 162.209a.067.067 0 0 1 .05-.002.07.07 0 0 1 .037.033.067.067 0 0 1 .002.05.063.063 0 0 1-.034.036c-2.978 1.956-4.074 5.275-4.633 8.57.725-1.379 1.899-2.298 3.743-1.488.094.047.039.195-.055.195a2.97 2.97 0 0 0-1.749.35c-.533.293-.96.743-1.222 1.286-.44.911-.776 1.867-1.001 2.852-.095.319-.646.272-.607-.078v-.078c-.914-4.052 1.119-10.417 5.469-11.726Z" fill="#000"/><path d="M70.562 217.891c-3.404 35.363-17.084 78.525-23.262 86.098-7.785 9.606-51.945 25.274-54.845 25.975-7.187 1.675-28.368-41.292-24.065-41.876 11.906-1.683 44.459-12.131 46.689-15.076a554.95 554.95 0 0 0 35.286-55.806c10.536-19.314 22.316-21.254 20.197.685Z" fill="#FFD3C9"/><path d="m-21.642 282.338 22.56 48.873s43.025-16.361 49.715-27.728c5.24-8.905 18.62-59.173 20.307-83.745 1.686-24.573-9.243-21.659-19.7-5.836-11.245 16.977-35.034 56.633-36.492 57.653-1.458 1.021-36.39 10.783-36.39 10.783Z" fill="#fff"/><path d="M1.486 306.7c-2.467-5.227-4.98-10.432-7.25-15.753-1.292-3.023-2.6-6.038-3.861-9.076-.047-.117.15-.211.205-.102 2.687 5.142 5.374 10.308 7.825 15.582 2.45 5.275 4.917 10.471 7.28 15.746a156.11 156.11 0 0 1 3.76 9.115c0 .063-.08.109-.11.055-2.87-5.064-5.375-10.269-7.85-15.567Z" fill="#000"/><path d="M3.046 330.369c13.01-5.453 26.004-11.18 37.942-18.698 3.404-2.337 7.092-4.674 9.275-8.235 1.828-3.755 2.963-7.83 4.176-11.819 6.107-21.55 10.914-43.473 15.91-65.304a1099.5 1099.5 0 0 1-6.934 32.902c-2.53 10.907-5.083 21.814-8.25 32.613-.789 2.695-1.64 5.375-2.617 8.016-.977 2.642-2.206 5.384-4.405 7.246-4.2 3.849-9.188 6.638-14.184 9.349a285.34 285.34 0 0 1-30.945 13.915l.032.015ZM68.773 236.426a39.416 39.416 0 0 1 2.411-7.627 20.093 20.093 0 0 1-2.411 7.627Z" fill="#000"/><path d="M74.4 196.248c-1.112 2.906-2.184 5.828-3.255 8.741l-3.2 8.758a2047.783 2047.783 0 0 0-6.225 17.576l-.189.53.48.343a914.08 914.08 0 0 0 9.772 6.793l-.22-1.184-8.164 11.866-.268.397.197.428c2.852 6.197 5.742 12.37 8.668 18.52a832.806 832.806 0 0 0 4.484 9.209c1.52 3.061 3.018 6.115 4.594 9.154-1.269-3.171-2.609-6.311-3.94-9.466a1028.88 1028.88 0 0 0-4.02-9.404 1529.146 1529.146 0 0 0-8.297-18.698l-.07.818 8.242-11.866.48-.701-.709-.475a879.73 879.73 0 0 0-9.873-6.646l.291.865a1346.234 1346.234 0 0 0 5.729-17.74l2.774-8.897c.922-2.969 1.844-5.937 2.718-8.921Z" fill="#999"/><path d="M80.514 285.883 64.81 250.606l8.66-12.544-10.582-7.121 11.41-33.517 6.217 88.459Z" fill="#fff"/><path d="M107.369 349.987h8.203s1.954-29.816 20.205-31.312c9.653-.779 18.565 6.015 25.491 13.658-6.863-7.706-19.03-17.647-30.629-17.647-17.478 0-23.27 35.301-23.27 35.301ZM161.458 257.641l-12.569-25.329-4.255 5.688 10.78 19.641h6.044Z" fill="#000"/><path d="m137.264 237.394 14.334 26.868 6.524-3.402-14.334-26.869-6.524 3.403Z" fill="#666"/><path d="m151.576 264.255-3.908-1.051-11.805-21.613 1.371-4.207 14.342 26.871ZM190.594 278.196l1.03-.452a2.054 2.054 0 0 0 1.061-2.724l-6.197-13.808a2.098 2.098 0 0 0-2.756-1.05l-1.03.452a2.055 2.055 0 0 0-1.062 2.724l6.198 13.809a2.097 2.097 0 0 0 2.756 1.049ZM175.659 287.022l1.03-.451a2.056 2.056 0 0 0 1.062-2.725l-6.195-13.809a2.098 2.098 0 0 0-2.755-1.05l-1.031.452a2.056 2.056 0 0 0-1.062 2.724l6.195 13.809a2.098 2.098 0 0 0 2.756 1.05ZM185.878 289.059l1.563-.685a2.785 2.785 0 0 0 1.439-3.691l-7.866-17.534c-.634-1.412-2.305-2.049-3.733-1.423l-1.563.686a2.784 2.784 0 0 0-1.439 3.691l7.866 17.533c.634 1.412 2.305 2.049 3.733 1.423ZM157.346 215.368l1.563-.686a2.785 2.785 0 0 0 1.439-3.691l-7.87-17.532c-.633-1.412-2.305-2.049-3.733-1.422l-1.563.686a2.784 2.784 0 0 0-1.438 3.691l7.869 17.532c.634 1.412 2.305 2.049 3.733 1.422ZM146.326 220.164l1.563-.685a2.786 2.786 0 0 0 1.439-3.691l-7.866-17.534c-.634-1.412-2.305-2.049-3.733-1.423l-1.563.686a2.784 2.784 0 0 0-1.439 3.691l7.866 17.534c.633 1.412 2.305 2.049 3.733 1.422Z" fill="#999"/><path d="m186.532 260.82-26.39-54.319s-7.534.257-20.575 9.201l28.029 54.225a52.871 52.871 0 0 0 18.936-9.107Z" fill="#999"/><path d="M162.348 274.423s24.861-7.246 31.693-13.9l-2.175-4.846a67.312 67.312 0 0 0-31.693 13.9l2.175 4.846ZM138.621 217.245s9.835-8.29 23.199-10.783l-2.285-4.799c-14.113-.242-23.199 10.782-23.199 10.782l2.285 4.8ZM156.942 249.912s10.875-7.113 20.252-9.411a1.013 1.013 0 0 0 .579-.591.986.986 0 0 0-.067-.819l-2.553-5.376a1.173 1.173 0 0 0-.623-.515 1.19 1.19 0 0 0-.811.008c-12.608 3.163-20.244 9.412-20.244 9.412-.257.12-.455.336-.551.6a1.05 1.05 0 0 0 .039.81l2.553 5.376c.121.254.34.45.607.545.268.095.562.081.819-.039ZM139.417 243.298l-1.97-.865s-27.438 12.029-26.004 44.408c.938 21.433 16.753 36.244 16.753 36.244s-19.235-24.526-12.041-47.237c7.195-22.71 23.262-32.55 23.262-32.55Z" fill="#666"/><path d="M113.65 289.038c1.576 19.758 14.538 34.008 14.538 34.008h19.7c9.015-11.733 23.372-18.589 23.372-18.589l-15.72 2.719-1.403-.709-2.821-1.395s-3.987 6.023-9.984 5.89a9.367 9.367 0 0 1-3.546-.779c-7.005-2.992-10.544-21.371-7.265-32.348 3.278-10.978 17.643-17.771 17.643-17.771l-8.747-16.766c-15.681 6.941-27.336 25.982-25.767 45.74Z" fill="#999"/><path d="M141.364 310.97s5.145 1.722 12.749-4.503l-2.797-1.395s-3.987 6.023-9.984 5.89l.032.008ZM115.572 349.987h58.675c-1.466-2.259-4.003-6.334-7.368-10.822l-.213-.288-.268-.35-.165-.226-.512-.655c0-.062-.095-.125-.142-.187l-.552-.693a52.938 52.938 0 0 0-.977-1.208 16.937 16.937 0 0 0-.788-.919 80.678 80.678 0 0 0-1.292-1.496 8.492 8.492 0 0 0-.725-.779c-6.927-7.643-15.839-14.445-25.492-13.658-18.227 1.465-20.181 31.281-20.181 31.281Z" fill="#666"/><path d="m158.057 307.443 57.679-4.758-.61-7.221-57.678 4.759.609 7.22Z" fill="#000"/><path d="m145.224 308.563 12.784-1.057-.611-7.221-12.784 1.057.611 7.221Z" fill="#999"/><path d="M164.657 347.174a1.975 1.975 0 0 0 1.986-1.963 1.975 1.975 0 0 0-1.986-1.963 1.975 1.975 0 0 0-1.986 1.963c0 1.084.889 1.963 1.986 1.963ZM123.413 347.174a1.975 1.975 0 0 0 1.986-1.963 1.975 1.975 0 0 0-1.986-1.963 1.975 1.975 0 0 0-1.986 1.963c0 1.084.889 1.963 1.986 1.963ZM137.786 325.009c0 .389.117.768.335 1.091a2 2 0 0 0 3.055.297 1.946 1.946 0 0 0 .43-2.139 1.963 1.963 0 0 0-.731-.881 1.996 1.996 0 0 0-2.507.244 1.95 1.95 0 0 0-.582 1.388ZM153.042 219.652c0 .388.116.768.334 1.091.219.323.529.574.892.723a1.995 1.995 0 0 0 2.164-.426 1.94 1.94 0 0 0 .43-2.139 1.964 1.964 0 0 0-.731-.881 2.003 2.003 0 0 0-2.508.244 1.952 1.952 0 0 0-.581 1.388ZM170.228 255.677c0 .389.116.768.335 1.091a2 2 0 0 0 3.055.298 1.953 1.953 0 0 0-.301-3.021 2 2 0 0 0-2.507.244 1.95 1.95 0 0 0-.582 1.388ZM133.877 256.363c0 .388.117.768.335 1.091.218.323.528.574.891.723.363.149.762.187 1.148.112a1.988 1.988 0 0 0 1.016-.538 1.948 1.948 0 0 0-.301-3.02 1.998 1.998 0 0 0-2.507.244 1.953 1.953 0 0 0-.582 1.388ZM148.731 313.105c0 .388.117.768.335 1.09a2.003 2.003 0 0 0 3.055.298 1.952 1.952 0 0 0-.301-3.021 1.998 1.998 0 0 0-2.507.244 1.957 1.957 0 0 0-.582 1.389Z" fill="#000"/><path d="M165.815 209.22c5.958 2.127 15.823 2.337 19.511 5.267a5.342 5.342 0 0 1 1.96 2.738 5.282 5.282 0 0 1-.077 3.354s4.949-1.605 7.88 1.558c1.498 1.636.174 5.454.174 5.454s4.027-1.114 6.438 1.862c1.923 2.376.307 5.828.307 5.828s4.366.709 5.516 3.747c2.364 6.163-16.382 24.518-26.122 20.522-4.539-1.87.291-6.101.291-6.101s-8.431 4.433-12.363.701c-3.932-3.731 2.687-8.858 2.687-8.858s-8.211 4.231-11.883-.039c-3.83-4.448 3.672-8.461 3.672-8.461s-6.974 1.286-9.031-2.618c-3.396-6.451 10.717-7.97 13.877-12.972l-4.452-8.928 1.615-3.054Z" fill="#FFD3C9"/><path d="M175.421 211.378c-5.461-2.501-5.39-12.263-10.244-15.403-6.596-4.246-7.447 7.075-.954 16.26l6.304 6.233 4.894-7.09Z" fill="#FFD3C9"/><path d="M201.811 235.842a.08.08 0 0 1 .042-.015c.015 0 .03.005.042.013a.07.07 0 0 1 .027.036.074.074 0 0 1-.001.044c-4.68 7.526-12.158 14.374-20.488 17.771-.275.117-.575-.273-.299-.452 7.911-5.127 14.491-10.292 20.677-17.397ZM195.373 227.529c.063-.078.197 0 .134.124-4.87 7.721-13.506 15.208-23.545 18.013-.347.094-.749-.164-.363-.304 6.509-2.36 18.242-11.414 23.774-17.833ZM163.01 236.753c9.519-3.054 17.092-8.819 24.01-15.847.095-.093.213.047.158.141-2.435 4.347-7.321 8.375-11.387 11.187a26.504 26.504 0 0 1-12.655 4.846c-.205.024-.331-.257-.126-.327Z" fill="#000"/><path d="M96.818 345.694H-.05v4.293h96.87v-4.293Z" fill="#666"/><path d="M96.818 345.702H48.065v4.293h48.753v-4.293ZM44.282 349.987l-94.402-.016-13.325-63.395 94.402.016 13.325 63.395Z" fill="#000"/><path d="m39.727 349.987-94.402-.016L-68 286.576l94.402.016 13.325 63.395Z" fill="#666"/><path d="M367.795 347.346h4.137V261.77h-4.137v85.576ZM332.052 264.59v4.091H364.1v-4.091h-32.048Z" fill="#999"/><path d="M364.108 270.691h3.687v-8.095h-3.687v8.095Z" fill="#666"/><path d="M363.335 350.151H376.4v-2.805h-13.065v2.805ZM248.067 261.77h-4.137v85.576h4.137V261.77ZM251.755 264.59v4.091h32.048v-4.091h-32.048Z" fill="#999"/><path d="M251.763 262.588h-3.688v8.095h3.688v-8.095Z" fill="#666"/><path d="M239.47 350.151h13.065v-2.805H239.47v2.805Z" fill="#999"/><g opacity=".7"><path d="M325.756 298.956a22.64 22.64 0 0 0 3.507 12.037 23.002 23.002 0 0 0 9.404 8.395 23.32 23.32 0 0 0 12.469 2.224 23.229 23.229 0 0 0 11.778-4.616 22.843 22.843 0 0 0 7.541-10.066 22.576 22.576 0 0 0 1.034-12.485 22.742 22.742 0 0 0-5.786-11.144 23.139 23.139 0 0 0-10.862-6.448l-.071-18.48h1.867v-3.63h-15.823v3.63h1.876l.071 18.48a23.096 23.096 0 0 0-12.295 8.2 22.65 22.65 0 0 0-4.71 13.903Z" fill="#fff"/><path d="M330.452 285.057a23.166 23.166 0 0 1 12.293-8.219v.046l-.197-18.48.181.179h-2.064v-4.035h.212l15.831-.117h.276v4.254h-2.191l.324-.32.063 9.24v9.24l-.245-.311a23.48 23.48 0 0 1 11.032 6.56c2.981 3.146 5 7.063 5.824 11.297a22.772 22.772 0 0 1-1.09 12.598 23.043 23.043 0 0 1-7.657 10.128 23.335 23.335 0 0 1-11.867 4.581 23.666 23.666 0 0 1-12.498-2.267 23.157 23.157 0 0 1-7.86-6.29 22.84 22.84 0 0 1-4.407-8.998 22.684 22.684 0 0 1-.116-9.997 22.806 22.806 0 0 1 4.196-9.097l-.04.008Zm-1.174 25.928a22.806 22.806 0 0 0 7.909 7.637 23.111 23.111 0 0 0 10.604 3.09c3.736.16 7.455-.586 10.833-2.173a22.897 22.897 0 0 0 8.547-6.933 22.537 22.537 0 0 0 4.272-10.081c.571-3.654.23-7.391-.994-10.885a22.657 22.657 0 0 0-6.031-9.161 23.004 23.004 0 0 0-9.664-5.306l-.244-.07v-.25l-.055-9.263v-9.536h2.19l-.315.319v-3.63l.307.303-15.823-.054.213-.218v3.63l-.189-.195h2.057v.18l-.095 18.495v.055a23.077 23.077 0 0 0-9.361 5.013 22.727 22.727 0 0 0-6.074 8.644 22.487 22.487 0 0 0-1.485 10.422 22.546 22.546 0 0 0 3.422 9.967h-.024Z" fill="#999"/></g><path d="M367.788 298.871s.512-12.957-12.853-17.296Z" fill="#fff"/><path d="M329.806 300.795a18.841 18.841 0 0 0 6.209 12.12 19.252 19.252 0 0 0 12.825 4.879c4.739 0 9.309-1.738 12.825-4.879a18.841 18.841 0 0 0 6.209-12.12h-38.068ZM334.132 294.998c0 .341.102.674.294.957.191.283.463.504.781.634a1.758 1.758 0 0 0 1.898-.373 1.705 1.705 0 0 0 .377-1.877 1.723 1.723 0 0 0-.641-.772 1.756 1.756 0 0 0-.967-.29 1.738 1.738 0 0 0-1.611 1.061c-.088.21-.132.434-.131.66ZM344.155 299.977c.618 0 1.119-.496 1.119-1.107s-.501-1.106-1.119-1.106-1.119.495-1.119 1.106c0 .611.501 1.107 1.119 1.107ZM356.834 292.786a1.11 1.11 0 0 0 .69 1.035 1.145 1.145 0 0 0 1.231-.237 1.104 1.104 0 0 0-.167-1.716 1.137 1.137 0 0 0-1.421.135 1.108 1.108 0 0 0-.333.783ZM340.436 290.83a.85.85 0 0 0 .525.79.863.863 0 0 0 1.176-.613.838.838 0 0 0-.048-.492.856.856 0 0 0-.794-.526.864.864 0 0 0-.605.246.845.845 0 0 0-.254.595ZM362.634 298.87a.85.85 0 0 0 .53.785.87.87 0 0 0 .936-.184.846.846 0 0 0 .187-.925.862.862 0 0 0-1.401-.276.844.844 0 0 0-.252.6ZM359.75 298.169a.354.354 0 1 0 .691-.149.349.349 0 0 0-.34-.253.358.358 0 0 0-.341.253.342.342 0 0 0-.01.149Z" fill="#A9C297"/><path d="M242.803 305.563h6.398c1.367 0 2.475-1.095 2.475-2.446v-26.272c0-1.351-1.108-2.446-2.475-2.446h-6.398c-1.367 0-2.474 1.095-2.474 2.446v26.272c0 1.351 1.107 2.446 2.474 2.446Z" fill="#fff"/><path d="M239.982 299.961v-19.906c-.03-.8.105-1.598.394-2.346.29-.748.729-1.43 1.291-2.007a6.027 6.027 0 0 1 1.982-1.348 6.087 6.087 0 0 1 6.696 1.348 5.969 5.969 0 0 1 1.291 2.007c.289.748.424 1.546.394 2.346V300a5.931 5.931 0 0 1-1.839 4.075 6.068 6.068 0 0 1-4.185 1.67 6.068 6.068 0 0 1-4.185-1.67 5.931 5.931 0 0 1-1.839-4.075v-.039Zm.701-19.945v19.945c0 1.395.56 2.733 1.558 3.719a5.349 5.349 0 0 0 3.761 1.54 5.349 5.349 0 0 0 3.761-1.54 5.227 5.227 0 0 0 1.558-3.719v-19.906c0-1.394-.56-2.732-1.558-3.718a5.346 5.346 0 0 0-3.761-1.541 5.346 5.346 0 0 0-3.761 1.541 5.227 5.227 0 0 0-1.558 3.718v-.039Z" fill="#999"/><path d="M243.079 300.156c0 .572.171 1.131.492 1.606.322.475.778.846 1.312 1.064a2.958 2.958 0 0 0 1.689.165 2.937 2.937 0 0 0 1.497-.791 2.872 2.872 0 0 0-.443-4.447 2.942 2.942 0 0 0-1.624-.487 2.94 2.94 0 0 0-2.067.846 2.874 2.874 0 0 0-.856 2.044Z" fill="#FFB445"/><path d="M245.522 299.759h.961c.204 0 .37-.164.37-.366v-20.834a.368.368 0 0 0-.37-.366h-.961a.369.369 0 0 0-.371.366v20.834c0 .202.166.366.371.366Z" fill="#fff"/><path d="M245.522 299.759h.961c.204 0 .37-.164.37-.366v-12.918a.368.368 0 0 0-.37-.366h-.961a.369.369 0 0 0-.371.366v12.918c0 .202.166.366.371.366Z" fill="#FFB445"/><path d="M233.867 349.886h2.451v-47.307h-2.451v47.307Z" fill="#999"/><path d="M181.591 349.886h52.276v-3.311h-52.276v3.311Z" fill="#999"/><path d="m215.995 299.439.181 39.602a4.635 4.635 0 0 0 1.402 3.298c.441.432.964.774 1.539 1.006a4.778 4.778 0 0 0 3.619-.018 4.743 4.743 0 0 0 1.528-1.021 4.647 4.647 0 0 0 1.368-3.312l-.181-39.601-9.456.046Z" fill="#fff"/><path d="m216.602 310.892.126 28.118c0 1.095.44 2.145 1.223 2.919a4.199 4.199 0 0 0 2.953 1.21c1.108 0 2.17-.435 2.953-1.21a4.101 4.101 0 0 0 1.224-2.919l-.126-28.126-8.353.008Z" fill="#A9C297"/><path d="m214.529 302.119 12.411-.056-.028-6.155-12.411.056.028 6.155Z" fill="#FFB445"/><path d="m186.721 299.439.181 39.602a4.635 4.635 0 0 0 1.402 3.298c.441.432.964.774 1.539 1.006a4.778 4.778 0 0 0 3.618-.018 4.736 4.736 0 0 0 1.529-1.021 4.654 4.654 0 0 0 1.368-3.312l-.181-39.601-9.456.046Z" fill="#fff"/><path d="m187.32 310.892.134 28.118c0 1.095.44 2.145 1.223 2.919a4.199 4.199 0 0 0 2.953 1.21c1.108 0 2.17-.435 2.953-1.21a4.101 4.101 0 0 0 1.224-2.919l-.134-28.126-8.353.008Z" fill="#A9C297"/><path d="m185.247 302.12 12.41-.056-.028-6.155-12.411.056.029 6.155Z" fill="#FFB445"/><path d="m201.441 299.439.173 39.602a4.644 4.644 0 0 0 1.402 3.298 4.754 4.754 0 0 0 3.35 1.353 4.753 4.753 0 0 0 3.336-1.386 4.648 4.648 0 0 0 1.368-3.312l-.181-39.601-9.448.046Z" fill="#fff"/><path d="m202.04 310.892.126 28.118c0 1.095.44 2.145 1.223 2.919a4.197 4.197 0 0 0 2.953 1.21c1.108 0 2.17-.435 2.953-1.21a4.104 4.104 0 0 0 1.223-2.919l-.126-28.126-8.352.008Z" fill="#FF6868"/><path d="m199.967 302.124 12.41-.056-.028-6.155-12.411.056.029 6.155Z" fill="#FFB445"/><path d="M181.591 320.249v4.425h52.26v-4.425h-8.463v1.48c0 .733-2.088 1.317-4.657 1.317s-4.657-.584-4.657-1.317v-1.48h-5.248v1.48c0 .733-2.088 1.317-4.657 1.317s-4.649-.584-4.649-1.317v-1.48h-5.288v1.48c0 .733-2.08 1.317-4.649 1.317s-4.649-.584-4.649-1.317v-1.48h-5.343Z" fill="#666"/><path d="M181.591 326.451h52.276v-1.785h-52.276v1.785Z" fill="#999"/><path d="M179.148 349.886h2.451v-47.307h-2.451v47.307Z" fill="#999"/><path d="M340.302 349.886h16.753v-8.944h-16.753v8.944Z" fill="#fff"/><path d="M348.3 340.942h.741v-3.592h-.741v3.592Z" fill="#999"/><path d="M348.679 338.207c4.838 0 0-9.637 0-9.637s-4.854 9.637 0 9.637Z" fill="#FFB445"/><path opacity=".2" d="M348.679 338.207c4.838 0 0-9.637 0-9.637s-4.854 9.637 0 9.637Z" fill="#000"/><path d="M348.671 338.207c2.986 0 0-5.937 0-5.937s-2.987 5.937 0 5.937Z" fill="#FFB445"/></g><defs><clipPath id="a"><rect width="372" height="350" rx="10" fill="#fff"/></clipPath></defs></svg>