<svg width="297" height="180" fill="none" xmlns="http://www.w3.org/2000/svg"><path d="M272.881.341H23.831v166.6h249.05V.341Z" fill="#fff"/><path d="M271.077 2.372H25.644v162.533h245.433V2.372Z" fill="#666"/><path d="M260.204 12.82H36.508v141.636h223.696V12.821Z" fill="#fff"/><path d="M296.303 19.717H.413L23.254.272H272.54l23.763 19.445Z" fill="#FFB445"/><path d="M64.866.272 45.935 19.717h-22.76L43.84.272h21.026ZM105.145.272l-13.69 19.445h-22.76L84.964.272h20.181ZM139.337.272l-2.361 19.445h-22.761L121.478.272h17.859ZM250.782 19.717 231.139.272h21.022l21.382 19.445h-22.761ZM205.262 19.717 193.118.272h18.522l16.382 19.445h-22.76ZM159.741 19.717 156.401.272h17.87l8.23 19.445h-22.76Z" fill="#fff"/><path d="M11.791 31.238A11.363 11.363 0 0 1 .43 19.875v-.138h22.76v.138A11.363 11.363 0 0 1 11.79 31.238Z" fill="#FFB445"/><path opacity=".1" d="M11.791 31.238A11.363 11.363 0 0 1 .43 19.875v-.138h22.76v.138A11.363 11.363 0 0 1 11.79 31.238Z" fill="#000"/><path d="M34.552 31.238a11.363 11.363 0 0 1-11.363-11.363v-.138h22.76v.138a11.363 11.363 0 0 1-11.397 11.363Z" fill="#fff"/><path d="M57.317 31.238a11.363 11.363 0 0 1-11.363-11.363v-.138h22.76v.138a11.363 11.363 0 0 1-11.397 11.363Z" fill="#FFB445"/><path opacity=".1" d="M57.317 31.238a11.363 11.363 0 0 1-11.363-11.363v-.138h22.76v.138a11.363 11.363 0 0 1-11.397 11.363Z" fill="#000"/><path d="M80.078 31.238a11.363 11.363 0 0 1-11.363-11.363v-.138h22.76v.138a11.363 11.363 0 0 1-11.397 11.363Z" fill="#fff"/><path d="M102.838 31.238a11.363 11.363 0 0 1-11.363-11.363v-.138h22.76v.138a11.367 11.367 0 0 1-7.038 10.508c-1.383.57-2.864.86-4.359.855Z" fill="#FFB445"/><path opacity=".1" d="M102.838 31.238a11.363 11.363 0 0 1-11.363-11.363v-.138h22.76v.138a11.367 11.367 0 0 1-7.038 10.508c-1.383.57-2.864.86-4.359.855Z" fill="#000"/><path d="M125.598 31.238a11.363 11.363 0 0 1-11.363-11.363v-.138h22.761v.138a11.356 11.356 0 0 1-7.039 10.508c-1.382.57-2.864.86-4.359.855Z" fill="#fff"/><path d="M148.358 31.238a11.362 11.362 0 0 1-11.362-11.363v-.138h22.725v.138a11.363 11.363 0 0 1-11.363 11.363Z" fill="#FFB445"/><path opacity=".1" d="M148.358 31.238a11.362 11.362 0 0 1-11.362-11.363v-.138h22.725v.138a11.363 11.363 0 0 1-11.363 11.363Z" fill="#000"/><path d="M171.119 31.238a11.363 11.363 0 0 1-11.363-11.363v-.138h22.76v.138a11.367 11.367 0 0 1-7.038 10.508c-1.383.57-2.864.86-4.359.855Z" fill="#fff"/><path d="M193.879 31.238a11.363 11.363 0 0 1-11.363-11.363v-.138h22.761v.138a11.356 11.356 0 0 1-7.039 10.508c-1.382.57-2.864.86-4.359.855Z" fill="#FFB445"/><path opacity=".1" d="M193.879 31.238a11.363 11.363 0 0 1-11.363-11.363v-.138h22.761v.138a11.356 11.356 0 0 1-7.039 10.508c-1.382.57-2.864.86-4.359.855Z" fill="#000"/><path d="M216.639 31.238a11.362 11.362 0 0 1-11.363-11.363v-.138h22.761v.138a11.367 11.367 0 0 1-7.039 10.508c-1.382.57-2.864.86-4.359.855Z" fill="#fff"/><path d="M239.4 31.238a11.363 11.363 0 0 1-11.363-11.363v-.138h22.76v.138a11.367 11.367 0 0 1-7.038 10.508c-1.383.57-2.864.86-4.359.855Z" fill="#FFB445"/><path opacity=".1" d="M239.4 31.238a11.363 11.363 0 0 1-11.363-11.363v-.138h22.76v.138a11.367 11.367 0 0 1-7.038 10.508c-1.383.57-2.864.86-4.359.855Z" fill="#000"/><path d="M262.165 31.238a11.363 11.363 0 0 1-11.363-11.363v-.138h22.76v.138a11.367 11.367 0 0 1-7.038 10.508c-1.383.57-2.864.86-4.359.855Z" fill="#fff"/><path d="M284.925 31.238a11.362 11.362 0 0 1-11.363-11.363v-.138h22.761v.138a11.367 11.367 0 0 1-7.039 10.508c-1.382.57-2.864.86-4.359.855Z" fill="#FFB445"/><path opacity=".1" d="M284.925 31.238a11.362 11.362 0 0 1-11.363-11.363v-.138h22.761v.138a11.367 11.367 0 0 1-7.039 10.508c-1.382.57-2.864.86-4.359.855Z" fill="#000"/><path d="m294.801 26.372.04.074a.09.09 0 0 1-.04-.035.45.45 0 0 1-.064-.039h.064Z" fill="#FFB445"/><path d="M136.976 51.01H59.432v77.544h77.544V51.01Z" fill="#C7594D"/><path d="M120.114 100.705H86.92a1.446 1.446 0 0 1-1.379-.988l-9.485-29h-7.732a1.452 1.452 0 0 1 0-2.9h8.79a1.448 1.448 0 0 1 1.377.988L87.972 97.8h32.147a1.452 1.452 0 0 1 0 2.9l-.005.005ZM116.893 111.752a4.668 4.668 0 0 1-4.309-2.879 4.664 4.664 0 1 1 8.973-1.785 4.667 4.667 0 0 1-4.664 4.664Zm0-6.423a1.763 1.763 0 1 0 .001 3.526 1.763 1.763 0 0 0-.001-3.526ZM89.479 111.752a4.663 4.663 0 1 1 4.659-4.664 4.674 4.674 0 0 1-4.659 4.664Zm0-6.423a1.767 1.767 0 0 0-1.633 1.087 1.763 1.763 0 1 0 1.633-1.087Z" fill="#fff"/><path d="m128.093 73.014-7.391 23.18H89.356l-7.386-23.18 24.469.025 21.654-.025Z" fill="#fff"/><path d="M59.432 63.973c7.16 0 12.963-5.804 12.963-12.963 0-7.16-5.804-12.964-12.963-12.964-7.16 0-12.964 5.804-12.964 12.964s5.804 12.963 12.964 12.963Z" fill="#A9C297"/><path d="m57.95 58.406-5.568-5.642 1.872-1.848 3.25 3.295 6.764-10.602 2.219 1.418-8.537 13.379Z" fill="#fff"/><path d="M236.994 117.147h-38.086v12.405h38.086v-12.405Z" fill="#FFB445"/><path d="M208.503 126.286v-5.864a.546.546 0 0 1 .548-.543h1.408a1.876 1.876 0 0 1 1.686 1.04 1.875 1.875 0 0 1-.179 1.973 2.128 2.128 0 0 1 .919 2.387 2.123 2.123 0 0 1-2.041 1.541h-1.783a.556.556 0 0 1-.558-.534Zm1.101-3.71h.855a.802.802 0 0 0 .726-1.105.795.795 0 0 0-.426-.423.79.79 0 0 0-.3-.058h-.84l-.015 1.586Zm0 3.157h1.24a1.027 1.027 0 1 0 0-2.055h-1.225l-.015 2.055ZM217.272 126.82a2.87 2.87 0 0 1-2.028-.838 2.863 2.863 0 0 1-.838-2.028v-3.532a.532.532 0 0 1 .334-.505.521.521 0 0 1 .21-.038.554.554 0 0 1 .558.543v3.532a1.763 1.763 0 0 0 .483 1.311 1.77 1.77 0 0 0 3.049-1.311v-3.532a.554.554 0 0 1 1.102 0v3.532a2.87 2.87 0 0 1-2.87 2.866ZM227.301 120.812l-2.036 2.787v2.687a.521.521 0 0 1-.156.388.545.545 0 0 1-.77-.005.55.55 0 0 1-.161-.383v-2.677l-2.015-2.787a.506.506 0 0 1-.096-.189.512.512 0 0 1 .204-.567.536.536 0 0 1 .756.119l1.695 2.322 1.694-2.322a.548.548 0 0 1 .761-.124.548.548 0 0 1 .124.761v-.01Z" fill="#fff"/><path d="M236.999 110.734c-19.762.059-59.507.173-79.264.178h-.173v-.178l-.074-60.44v-.248h.247l79.417.094c.158.06-.272 60.5-.153 60.594Zm0 0c0 .059-.331-61.108 0-60.273l-79.254.08.247-.248c-.039-.074.163 61.207-.247 60.273 19.762 0 59.512.114 79.264.173l-.01-.005Z" fill="#999"/><path d="M193.968 55.95h-30.912v6.284h30.912V55.95Z" fill="#fff"/><path d="M232.715 103.239h-24.519v4.052h24.519v-4.052ZM163.056 67.94a552.791 552.791 0 0 1 33.13 0 544.73 544.73 0 0 1-33.13 0ZM163.056 71.942a552.791 552.791 0 0 1 33.13 0 552.791 552.791 0 0 1-33.13 0ZM163.056 75.934a552.791 552.791 0 0 1 33.13 0 552.791 552.791 0 0 1-33.13 0ZM163.056 79.93a544.73 544.73 0 0 1 33.13 0 544.73 544.73 0 0 1-33.13 0ZM163.056 83.922a552.791 552.791 0 0 1 33.13 0 552.791 552.791 0 0 1-33.13 0ZM163.056 87.92a552.791 552.791 0 0 1 33.13 0 552.791 552.791 0 0 1-33.13 0ZM163.056 91.916a544.73 544.73 0 0 1 33.13 0 552.791 552.791 0 0 1-33.13 0ZM198.849 67.94c4.729-.336 9.475-.336 14.204 0-4.729.341-9.475.341-14.204 0ZM198.849 71.942c4.737-.337 9.492-.337 14.228 0-4.728.336-9.475.336-14.203 0h-.025ZM198.849 75.934c4.729-.336 9.475-.336 14.204 0-4.729.336-9.475.336-14.204 0ZM198.849 79.93c4.729-.34 9.475-.34 14.204 0-4.729.337-9.475.337-14.204 0ZM198.849 83.922c4.729-.335 9.475-.335 14.204 0-4.729.336-9.475.336-14.204 0ZM198.849 87.92c4.729-.337 9.475-.337 14.204 0-4.729.335-9.475.335-14.204 0ZM220.458 67.94a73.916 73.916 0 0 1 12.242 0c-4.073.341-8.168.341-12.242 0ZM220.458 71.942a73.938 73.938 0 0 1 12.242 0c-4.073.341-8.168.341-12.242 0ZM220.458 75.934c4.074-.341 8.169-.341 12.242 0a73.938 73.938 0 0 1-12.242 0ZM220.458 79.93c4.074-.34 8.169-.34 12.242 0-4.073.342-8.168.342-12.242 0ZM220.458 83.922a73.938 73.938 0 0 1 12.242 0c-4.073.341-8.168.341-12.242 0ZM220.458 87.92c4.074-.342 8.169-.342 12.242 0a73.938 73.938 0 0 1-12.242 0ZM220.458 91.916c4.074-.34 8.169-.34 12.242 0a73.916 73.916 0 0 1-12.242 0Z" fill="#999"/><path d="M157.735 132.274h42.379l-6.181-43.164h-30.017l-6.181 43.164Z" fill="#FF6868"/><path d="m163.916 89.11 4.708 43.169-10.889-.005 6.181-43.164Z" fill="#FF6868"/><path opacity=".1" d="m163.916 89.11 4.708 43.169-10.889-.005 6.181-43.164Z" fill="#000"/><path d="m185.48 92.089 1.324-.282c0-.034-.775-3.665-1.595-7.326-.89-3.953-4.783-5.775-8.033-5.252-2.431.395-5.133 2.293-4.723 6.353.434 4.343.76 6.388.775 6.472l1.339-.217s-.341-2.095-.771-6.393c-.311-3.117 1.655-4.565 3.597-4.876 2.628-.425 5.78 1.033 6.492 4.21.82 3.655 1.586 7.271 1.595 7.311Z" fill="#FEE3C5"/><path d="M168.051 131.943c-.87-.617-1.774-1.186-2.673-1.754a73.468 73.468 0 0 0-2.747-1.63l-.128-.074-.119.089c-.716.538-1.433 1.072-2.124 1.64-.692.568-1.398 1.126-2.065 1.724.77-.459 1.516-.958 2.257-1.482.742-.524 1.483-1.018 2.199-1.546h-.242a78.5 78.5 0 0 0 2.786 1.561 38.39 38.39 0 0 0 2.856 1.472Z" fill="#fff"/><path d="M162.517 128.756c.188-2.751.327-5.508.455-8.26s.222-5.508.336-8.265c.114-2.757.168-5.514.227-8.27l.079-4.135c0-1.379.035-2.757.03-4.135-.099 1.373-.168 2.751-.252 4.13l-.203 4.13c-.133 2.752-.222 5.508-.336 8.265-.113 2.757-.168 5.514-.227 8.27a386.167 386.167 0 0 0-.109 8.27Z" fill="#fff"/><path d="M184.344 91.946a1.803 1.803 0 0 0 1.11 1.661 1.798 1.798 0 1 0-1.11-1.661ZM172.235 91.946a1.803 1.803 0 0 0 1.11 1.661 1.8 1.8 0 1 0-1.11-1.661Z" fill="#FEE3C5"/><path d="M220.888 91.837c-.067.402-.237.78-.494 1.097v-.242c0-.08 0-.168-.04-.257a4.685 4.685 0 0 0-.701-1.636l-.114-.167-.029-.045a.485.485 0 0 1-.055-.079c-3.033-4.98-7.346 1.976-7.44 2.13 0 0 .697-7.372 4.639-7.1 3.058.237 4.689 4.051 4.234 6.299Z" fill="#A9C297"/><path d="M220.384 92.934c-.107.116-.23.216-.365.296-2.041 1.206-7.668-.494-8.019-.583 5.336 1.176 7.055-.607 7.495-2.055l.03.044.113.169c.334.496.572 1.05.702 1.635 0 .089.029.173.039.257.01.084 0 .158.005.237Z" fill="#000"/><path d="M203.295 90.552c.013.407.13.804.341 1.152 0-.075.03-.153.055-.237.024-.085.044-.159.074-.243a4.749 4.749 0 0 1 .914-1.496l.133-.149.04-.034.064-.07c3.73-4.485 6.981 3.02 7.05 3.192 0 0 .385-7.41-3.552-7.697-3.068-.267-5.217 3.275-5.119 5.582Z" fill="#A9C297"/><path d="M203.636 91.704c.087.132.194.25.317.35 1.847 1.483 7.652.643 8.013.593-5.435.386-6.917-1.63-7.114-3.122l-.04.034-.133.149a4.81 4.81 0 0 0-.934 1.521c-.03.084-.054.163-.074.242-.02.08-.02.158-.035.233Z" fill="#000"/><path d="M201.794 132.274h20.764l-.761-38.362-17.928-.637-2.075 38.999Z" fill="#FEE3C5"/><path opacity=".6" d="M201.794 132.274h20.764l-.761-38.362-17.928-.637-2.075 38.999Z" fill="#fff"/><path d="M197.545 132.274h5.904l.899-39-6.082 1.132-.721 37.868ZM222.84 93.329v5.128l-18.492-.632V91.95l18.492 1.378Z" fill="#FEE3C5"/><path opacity=".4" d="M222.84 93.329v5.128l-18.492-.632V91.95l18.492 1.378Z" fill="#fff"/><path d="m197.397 98.457 6.951-.632V91.95l-7.347 1.378.396 5.128Z" fill="#FEE3C5"/><path opacity=".1" d="m197.397 98.457 6.951-.632V91.95l-7.347 1.378.396 5.128Z" fill="#000"/><path d="m216.881 92.884-.182 39.39h-4.901l-.079-39.775 5.162.385ZM201.418 92.499l-1.843.346v39.429h1.542l.301-39.775Z" fill="#A9C297"/><path d="M208.068 108.007c.321-1.072-.168-2.525-2.747-3.236-3.928-1.082-6.749 2.964-7.089 3.493.36-.588 3.784-5.929 7.751-4.876 3.142.83 2.959 3.25 2.085 4.619Z" fill="#FFB445"/><path d="M208.068 108.007a2.13 2.13 0 0 1-1.028.904c-1.383.425-4.515.687-8.571-.494l-.272-.079.034-.054v-.03h.035c4.264.617 7.233.163 8.453-.277a1.63 1.63 0 0 0 .924-1.452 1.994 1.994 0 0 0-.025-.494 2.026 2.026 0 0 1 .45 1.976Z" fill="#FFB445"/><path opacity=".2" d="M208.068 108.007a2.13 2.13 0 0 1-1.028.904c-1.383.425-4.515.687-8.571-.494l-.272-.079.034-.054v-.03h.035c4.264.617 7.233.163 8.453-.277a1.63 1.63 0 0 0 .924-1.452 1.994 1.994 0 0 0-.025-.494 2.026 2.026 0 0 1 .45 1.976Z" fill="#000"/><path d="M205.519 102.39c-.529-1.245-1.977-2.406-4.486-1.645-3.834 1.156-3.088 6.788-2.964 7.484-.149-.79-1.364-8.043 2.499-9.228 3.034-.944 4.649 1.556 4.951 3.389Z" fill="#FFB445"/><path d="M205.519 102.39a2.267 2.267 0 0 1-.154 1.482c-.76 1.205-3.008 3.246-7.03 4.362l-.271.074V108.195h.024c3.765-1.809 5.746-3.953 6.378-5.074.247-.44.124-1.235-.336-1.937a2.868 2.868 0 0 0-.365-.464 3.057 3.057 0 0 1 1.754 1.67Z" fill="#FFB445"/><path opacity=".2" d="M205.519 102.39a2.267 2.267 0 0 1-.154 1.482c-.76 1.205-3.008 3.246-7.03 4.362l-.271.074V108.195h.024c3.765-1.809 5.746-3.953 6.378-5.074.247-.44.124-1.235-.336-1.937a2.868 2.868 0 0 0-.365-.464 3.057 3.057 0 0 1 1.754 1.67Z" fill="#000"/><path d="M188.025 108.007c-.321-1.072.168-2.525 2.747-3.236 3.927-1.082 6.753 2.964 7.089 3.493-.361-.588-3.784-5.929-7.751-4.876-3.133.83-2.96 3.25-2.085 4.619Z" fill="#FFB445"/><path d="M188.025 108.007c.234.408.597.726 1.032.904 1.379.425 4.511.687 8.567-.494l.272-.079-.035-.054v-.03h-.035c-4.263.617-7.232.163-8.453-.277a1.625 1.625 0 0 1-.909-1.432 1.994 1.994 0 0 1 .025-.494 2.042 2.042 0 0 0-.464 1.956Z" fill="#FFB445"/><path opacity=".2" d="M188.025 108.007c.234.408.597.726 1.032.904 1.379.425 4.511.687 8.567-.494l.272-.079-.035-.054v-.03h-.035c-4.263.617-7.232.163-8.453-.277a1.625 1.625 0 0 1-.909-1.432 1.994 1.994 0 0 1 .025-.494 2.042 2.042 0 0 0-.464 1.956Z" fill="#000"/><path d="M190.312 102.39c.529-1.245 1.976-2.406 4.486-1.645 3.834 1.156 3.088 6.788 2.964 7.484.148-.79 1.364-8.043-2.47-9.228-3.063-.944-4.679 1.556-4.98 3.389Z" fill="#FFB445"/><path d="M190.312 102.39a2.3 2.3 0 0 0 .153 1.482c.766 1.205 3.009 3.246 7.035 4.362l.267.074V108.195h-.029c-3.765-1.809-5.746-3.953-6.378-5.074-.248-.44-.119-1.235.335-1.937.108-.165.23-.321.366-.464a3.047 3.047 0 0 0-1.749 1.67Z" fill="#FFB445"/><path opacity=".2" d="M190.312 102.39a2.3 2.3 0 0 0 .153 1.482c.766 1.205 3.009 3.246 7.035 4.362l.267.074V108.195h-.029c-3.765-1.809-5.746-3.953-6.378-5.074-.248-.44-.119-1.235.335-1.937.108-.165.23-.321.366-.464a3.047 3.047 0 0 0-1.749 1.67Z" fill="#000"/><path d="M207.668 132.274h-20.785l-.849-22.874 22.553.761-.919 22.113Z" fill="#C7594D"/><path d="M214.96 132.274h-7.292l.301-22.113 7.885.879-.894 21.234Z" fill="#C7594D"/><path d="m184.344 109.025.504 7.257h23.121v-8.739l-23.625 1.482ZM216.264 116.065l-8.295.217v-8.739l9.061 1.857-.766 6.665Z" fill="#C7594D"/><path d="m213.927 108.768-1.522 23.506h-1.827l1.012-23.99 2.337.484Z" fill="#FFB445"/><path opacity=".1" d="m213.927 108.768-1.522 23.506h-1.827l1.012-23.99 2.337.484Z" fill="#000"/><path d="M198.908 108.125v24.149h-4.807l-.548-23.808 5.355-.341Z" fill="#FFB445"/><path d="M214.065 171.105h-65.959a1.32 1.32 0 0 1-1.314-1.319v-7.865a.457.457 0 0 1 0-.074 1.588 1.588 0 0 1 0-.138l7.989-29.292-10.33-64.022-3.459-1.196a1.32 1.32 0 0 1 .741-2.53l4.254 1.434a1.314 1.314 0 0 1 .934 1.067l10.498 65.079c.022.146.022.294 0 .44l-7.741 28.061 61.448 4.368c.341.024.66.18.889.435l3.034 3.349a1.325 1.325 0 0 1 .225 1.424 1.32 1.32 0 0 1-1.213.779h.004Zm-64.644-2.638h61.68l-.681-.751-60.994-4.342-.005 5.093Z" fill="#000"/><path d="M238.224 89.194h-88.927a1.32 1.32 0 0 1-.933-2.252 1.32 1.32 0 0 1 .933-.386h88.927a1.32 1.32 0 0 1 .933 2.252 1.32 1.32 0 0 1-.933.386Z" fill="#000"/><path d="M156.125 132.882a.438.438 0 0 1-.302-.724.436.436 0 0 1 .277-.151l65.578.129 14.372-44.385a.436.436 0 0 1 .806-.065.44.44 0 0 1 .029.332L222.42 132.71a.43.43 0 0 1-.396.301l-65.875-.113-.024-.015Z" fill="#000"/><path d="M223.946 126.346h-69.481a.44.44 0 0 1 0-.88h69.481a.447.447 0 0 1 .311.129.431.431 0 0 1 .095.143.42.42 0 0 1 0 .336.442.442 0 0 1-.406.272ZM225.7 121.005h-72.05a.436.436 0 0 1-.311-.129.436.436 0 0 1 0-.622.44.44 0 0 1 .311-.128h72.05a.441.441 0 0 1 .44.439.44.44 0 0 1-.44.44ZM227.335 115.665h-74.506a.44.44 0 0 1 0-.88h74.506c.117 0 .229.046.311.129a.436.436 0 0 1 0 .622.44.44 0 0 1-.311.129ZM229.104 110.319h-77.07a.438.438 0 0 1-.44-.44.441.441 0 0 1 .44-.439h77.07a.441.441 0 0 1 .44.439.44.44 0 0 1-.44.44ZM230.794 104.978h-79.6a.443.443 0 0 1-.311-.128.443.443 0 0 1 0-.622.44.44 0 0 1 .311-.129h79.6a.44.44 0 0 1 0 .879ZM232.607 99.633h-82.228a.44.44 0 0 1 0-.88h82.228a.442.442 0 0 1 .439.44.441.441 0 0 1-.439.44ZM234.321 94.292h-84.762a.436.436 0 0 1-.406-.271.442.442 0 0 1 .095-.48.437.437 0 0 1 .311-.128h84.762a.436.436 0 0 1 .406.272.442.442 0 0 1-.095.479.435.435 0 0 1-.311.128Z" fill="#000"/><path d="M162.117 132.323a.432.432 0 0 1-.434-.405l-3.365-44.009a.441.441 0 0 1 .405-.494.46.46 0 0 1 .494.405l3.36 44.009a.44.44 0 0 1-.405.494h-.055ZM215.824 132.842h-.113a.427.427 0 0 1-.266-.205.424.424 0 0 1-.041-.333l11.941-44.553a.443.443 0 0 1 .806-.106.43.43 0 0 1 .044.334l-11.946 44.532a.437.437 0 0 1-.425.331ZM169.172 132.551a.445.445 0 0 1-.44-.43l-1.106-44.236a.444.444 0 0 1 .262-.413.44.44 0 0 1 .168-.037.438.438 0 0 1 .439.43l1.107 44.236a.443.443 0 0 1-.43.45ZM176.341 132.615a.441.441 0 0 1-.4-.281.44.44 0 0 1-.03-.169l.805-44.3a.442.442 0 0 1 .44-.43.43.43 0 0 1 .308.136.44.44 0 0 1 .122.314l-.806 44.3a.44.44 0 0 1-.439.43ZM208.483 132.59h-.089a.439.439 0 0 1-.341-.519l8.932-44.275a.443.443 0 0 1 .801-.154.446.446 0 0 1 .064.332l-8.937 44.275a.433.433 0 0 1-.43.341ZM200.183 132.842h-.069a.432.432 0 0 1-.361-.494l6.902-44.542a.44.44 0 1 1 .869.143l-6.882 44.528a.441.441 0 0 1-.459.365ZM183.712 132.561h-.03a.445.445 0 0 1-.309-.161.442.442 0 0 1-.101-.333l3.211-44.247a.449.449 0 0 1 .47-.405.447.447 0 0 1 .309.16.444.444 0 0 1 .096.334l-3.207 44.247a.44.44 0 0 1-.439.405ZM191.947 132.808h-.049a.43.43 0 0 1-.385-.494l5.103-44.498a.44.44 0 0 1 .781-.225.435.435 0 0 1 .093.323l-5.103 44.493a.442.442 0 0 1-.44.401ZM160.134 176.521a4.92 4.92 0 1 0-6.957-6.959 4.92 4.92 0 0 0 6.957 6.959Z" fill="#000"/><path d="M158.891 173.042a2.235 2.235 0 0 1-1.381 2.068 2.244 2.244 0 0 1-2.439-.485 2.236 2.236 0 0 1 .339-3.444 2.237 2.237 0 0 1 3.481 1.861Z" fill="#fff"/><path d="M205.607 173.042a4.941 4.941 0 0 1-5.904 4.846 4.944 4.944 0 0 1-3.6-6.737 4.941 4.941 0 0 1 9.504 1.891Z" fill="#000"/><path d="M202.925 173.042a2.235 2.235 0 0 1-1.382 2.068 2.244 2.244 0 0 1-2.439-.485 2.235 2.235 0 0 1-.485-2.439 2.245 2.245 0 0 1 2.068-1.382 2.236 2.236 0 0 1 2.238 2.238Z" fill="#fff"/><path d="M144.653 68.627a1.517 1.517 0 0 1-.524-.099l-6.916-2.628a1.47 1.47 0 0 1-.86-.771 1.495 1.495 0 0 1-.14-.573 1.5 1.5 0 0 1 .409-1.08 1.482 1.482 0 0 1 1.638-.347l6.917 2.628a1.48 1.48 0 0 1 .938 1.656 1.478 1.478 0 0 1-1.467 1.214h.005Z" fill="#FFB445"/><path d="m84.627 126.78-11.99 15.246c-2.445 3.241-4.535 6.122-5.479 7.712v.025c-.253.35-.422.754-.494 1.181v.034c.47 1.384 25.77 21.708 26.89 22.118 1.122.41 2.382-2.751 2.031-4.322-.35-1.571-6.56-13.69-6.56-13.69l11.278-15.706-15.675-12.598Z" fill="#FFD3C9"/><path d="M93.52 173.106c-1.121-.41-26.421-20.749-26.89-22.118v-.034c.074-.424.243-.826.494-1.176v-.03c.938-1.591 3.028-4.476 5.479-7.707 0 0 .588-.751 1.506-1.912l16.304 12.89-1.483 2.075s6.255 12.114 6.616 13.68c.36 1.566-.91 4.747-2.026 4.332Z" fill="#fff"/><path d="M93.52 173.106c-1.121-.41-26.421-20.749-26.89-22.118-.188-.523 2.559-4.382 6.012-8.947.034-.05.07-.097.109-.143l16.466 12.929-.227.272s6.2 12.109 6.56 13.684c.361 1.576-.913 4.738-2.03 4.323Z" fill="#FFB445"/><path d="M94.014 171.896c-4.18-3.532-21.377-17.375-25.774-20.547-.04-.025-.054 0-.024.03 4.066 3.586 21.372 17.291 25.739 20.586.099.069.148.005.06-.069ZM90.314 156.25c-1.428-1.665-3.686-3.053-5.929-2.89-.084 0-.074.133 0 .158a30.176 30.176 0 0 1 5.756 2.934.14.14 0 0 0 .087.01.142.142 0 0 0 .076-.046.139.139 0 0 0 .01-.166ZM90.941 157.949c-1.427-1.66-3.685-3.053-5.928-2.885-.09 0-.08.128 0 .158 2.02.77 3.95 1.754 5.76 2.935a.14.14 0 0 0 .089.008.142.142 0 0 0 .075-.048.137.137 0 0 0 .004-.168ZM91.544 159.654c-1.428-1.66-3.685-3.053-5.928-2.886-.084 0-.075.129 0 .154a30.141 30.141 0 0 1 5.77 2.959.14.14 0 0 0 .104.023.142.142 0 0 0 .089-.058.137.137 0 0 0-.035-.192Z" fill="#fff"/><path d="M94.632 172.509c.311.538-.988 1.976-1.433 1.842-.445-.133-27.908-22.419-28.293-22.903-.386-.484 1.14-2.026 1.753-1.675.613.351 27.973 22.736 27.973 22.736ZM74.648 148.083c-1.102-2.386-4.817-.686-3.715 1.71 1.102 2.396 4.802.701 3.715-1.71Z" fill="#fff"/><path d="m77.163 135.772 16.16 13.448s25.877-30.537 26.826-35.122c1.077-5.212 4.076-46.049 4.007-48.084-.084-2.47-2.802-13.315-2.802-13.315h-19.386s-2.712 53.401-3.275 55.056c-.608 1.779-21.53 28.017-21.53 28.017Z" fill="#999"/><path d="m75.453 138.326 2.273-4.288 16.792 14.727-3.3 2.895-15.765-13.334Z" fill="#A9C297"/><path d="M94.85 145.168c-2.5-2.41-12.248-10.152-13.458-10.784-.03 0-.065.029-.045.054.88 1.047 9.174 7.855 13.438 10.814.044.03.104-.044.064-.084ZM122.313 60.727a6.307 6.307 0 0 0-.791-.187 4.58 4.58 0 0 1-.815-.312 6.084 6.084 0 0 1-1.482-1.057 5.645 5.645 0 0 1-1.151-1.847c-.168-.39-.959-2.47-.988-2.47-.03 0-.079 0-.069.034.054.287.597 2.08.756 2.53a5.826 5.826 0 0 0 1.2 2.144c.466.485 1.03.866 1.655 1.116.283.118.58.198.884.237.269.065.551.05.811-.044.054-.04.024-.129-.01-.144ZM105.165 53.663l-.405 10.725-.465 10.72-1.032 21.442c-.193 3.577-.386 7.144-.613 10.721-.025.439-.059.899-.104 1.358a.636.636 0 0 1-.039.203 2.17 2.17 0 0 1-.089.173c-.059.109-.119.202-.178.301-.124.188-.252.376-.385.558a78.448 78.448 0 0 1-1.596 2.164 253.924 253.924 0 0 1-3.31 4.229 774.617 774.617 0 0 1-6.739 8.355l-6.837 8.275 6.664-8.399c2.223-2.806 4.447-5.607 6.64-8.433a499.906 499.906 0 0 0 3.266-4.254 73.25 73.25 0 0 0 1.581-2.154c.128-.183.252-.365.37-.553.119-.188.262-.366.252-.524.035-.43.069-.864.094-1.319.207-3.567.385-7.139.568-10.71l1.131-21.437.588-10.716.638-10.725Z" fill="#000"/><path d="M120.534 111.253c-.138 1.314-.267 2.292-.385 2.845-.534 2.574-8.932 13.339-16.19 22.277l-4.975-31.308c.885-11.11 2.964-52.368 2.964-52.368h9.659l8.927 58.554Z" fill="#666"/><path d="M108.139 148.157s3.749 19.016 3.749 19.031c.86 3.952 1.685 7.41 2.278 9.179a.076.076 0 0 0 0 .03c.095.424.286.821.558 1.161h.03c1.354.543 33.254-5.395 34.296-5.978 1.042-.583-.529-3.597-1.951-4.358-1.423-.76-14.659-3.952-14.659-3.952l-4.56-18.773-19.741 3.66Z" fill="#FFD3C9"/><path d="M149.065 171.6c-1.043.582-32.948 6.526-34.306 5.977h-.025a2.848 2.848 0 0 1-.558-1.161.07.07 0 0 1 0-.029c-.598-1.749-1.423-5.212-2.283-9.18l-.464-2.386 20.419-3.982.602 2.471s13.231 3.191 14.659 3.952c1.427.761 3.003 3.759 1.956 4.338Z" fill="#fff"/><path d="M149.065 171.6c-1.047.582-32.947 6.526-34.301 5.977-.524-.197-1.66-4.797-2.87-10.374 0-.06-.025-.119-.04-.178l20.537-4.061.059.35s13.226 3.187 14.659 3.953c1.432.766 2.998 3.754 1.956 4.333Z" fill="#FFB445"/><path d="M148.472 170.434c-5.4.864-27.108 4.881-32.379 6.15-.045 0-.04.04 0 .035 5.37-.741 27.043-4.94 32.389-6.101.119-.025.104-.104-.01-.084ZM134.189 163.038c-2.188 0-4.713.81-6.051 2.618-.05.069.049.144.113.109a30.24 30.24 0 0 1 5.983-2.47.14.14 0 0 0 .057-.061.14.14 0 0 0 .011-.083.132.132 0 0 0-.038-.075.138.138 0 0 0-.075-.038ZM135.889 163.675c-2.189 0-4.718.805-6.052 2.614-.054.074.049.143.113.108a30.002 30.002 0 0 1 5.983-2.47.137.137 0 0 0 .062-.141.134.134 0 0 0-.036-.072.143.143 0 0 0-.07-.039ZM137.588 164.327c-2.188 0-4.718.806-6.052 2.614-.054.069.05.143.114.108a30.197 30.197 0 0 1 5.978-2.47.134.134 0 0 0 .053-.06.142.142 0 0 0 .011-.079.14.14 0 0 0-.104-.113Z" fill="#fff"/><path d="M149.347 170.364c.612.114.844 2.056.464 2.288-.38.232-35.195 6.551-35.813 6.531-.617-.02-.79-2.184-.123-2.421.667-.237 35.472-6.398 35.472-6.398ZM117.787 169.604c-2.529-.727-3.66 3.201-1.126 3.927 2.534.726 3.661-3.201 1.126-3.927Z" fill="#fff"/><path d="M117.496 52.7s-.494 8.284-2.796 14.188c0 0-3.301 2.06-3.646 2.381l20.705 88.547-21.674 3.952s-7.445-42.981-8.117-45.945c-1.082-4.718-9.633-44.834-10.009-47.112-.795-4.767 3.606-16.051 3.606-16.051l21.931.04Z" fill="#999"/><path d="M128.636 153.33c-5.538.83-16.125 3.078-17.429 3.616-.03 0 0 .07 0 .07 1.408-.025 14.327-2.584 17.439-3.587.069-.015.05-.104-.01-.099ZM98.046 60.727c.4-.088.83-.059 1.24-.113a9.48 9.48 0 0 0 3.572-1.176 4.867 4.867 0 0 0 1.66-1.764c.237-.38 1.309-2.416 1.319-2.43.009-.015.128 0 .118.04-.064.286-.766 2.054-.988 2.494a4.795 4.795 0 0 1-1.714 2.065 7.501 7.501 0 0 1-2.545.988c-.46.095-.928.148-1.398.158-.437.042-.878 0-1.299-.123-.044-.035-.044-.124.035-.139ZM115.179 66.666a33.344 33.344 0 0 0-5.311 2.416.056.056 0 0 0-.031.033.06.06 0 0 0 .001.046.062.062 0 0 0 .034.03.058.058 0 0 0 .045 0c1.789-.747 3.612-1.483 5.356-2.313a.12.12 0 0 0-.015-.202.12.12 0 0 0-.079-.01ZM115.856 54.453c0-.064-.114-.079-.114 0 0 2.115-.158 3.953-.351 5.929-.094.914-.879 5.977-2.47 5.592-.267-.064-.4-.326-.435-.726a6.204 6.204 0 0 1 .223-1.556c.187-1.057.336-2.125.439-3.192a29.37 29.37 0 0 0 0-6.002.052.052 0 0 0-.019-.028.057.057 0 0 0-.033-.01.056.056 0 0 0-.032.01.052.052 0 0 0-.019.028 55.206 55.206 0 0 1-.559 8.275c-.212 1.319-.894 3.3.494 3.512 1.389.213 2.342-3.097 2.52-4.006.458-2.582.577-5.213.356-7.826Z" fill="#000"/><path d="M112.966 66.122a9.704 9.704 0 0 0-.366 1.048c-.104.276-.158.569-.158.864.005.01.014.02.024.025a.063.063 0 0 0 .066 0 .07.07 0 0 0 .024-.025c.165-.26.292-.543.375-.84.124-.32.257-.647.371-.988a.18.18 0 0 0-.252-.165.177.177 0 0 0-.084.081ZM97.216 52.7c-.549 2.099-1.068 4.209-1.542 6.328-.474 2.12-.919 4.244-1.186 6.393l-.074.805c-.024.267 0 .534-.024.8l.237 1.596.608 3.197 1.294 6.388 5.326 25.512 5.325 25.532 2.643 12.741 2.609 12.766-2.826-12.722-2.747-12.731-5.434-25.492c-1.759-8.508-3.537-17.015-5.217-25.537l-1.235-6.423-.578-3.206-.228-1.63c.007-.549.047-1.097.119-1.64.306-2.164.795-4.284 1.3-6.393.503-2.11 1.047-4.195 1.63-6.285Z" fill="#000"/><path d="m110.372 163.547-1.996-4.422 23.462-4.303.267 4.382-21.733 4.343ZM93.416 57.017l30.102 1.789a4.941 4.941 0 0 0 1.018-3.068c.044-7.658-1.626-27.494-3.794-31.678-.573-1.107-3.33-4.886-8.147-1.512-6.516 4.57-16.012 22.484-19.183 30.453a4.97 4.97 0 0 0 .004 4.016Z" fill="#A9C297"/><path d="M119.21 27.662c-1.66-.124-4.298-2.965-4.703-5.5-.03-.172.746-1.634 1.606-3.457.494-1.107 1.062-2.352 1.482-3.523.084-.242 6.704 4.407 6.704 4.407a19.892 19.892 0 0 0-2.312 4.244c-.056.16-.098.326-.124.494v.084c-.183.973-.899 3.379-2.653 3.25Z" fill="#FFD3C9"/><path d="M117.837 15.28c1.24.653 6.422 4.314 6.422 4.314a21.62 21.62 0 0 0-2.129 3.76c-.044.172-5.084-1.413-4.293-8.073Z" fill="#000"/><path d="M117.782 6.28c-1.255 2.603-1.017 10.72.657 12.78 2.426 2.965 7.006 3.953 9.693.88 2.604-2.965 2.115-13.537.188-15.469-2.841-2.845-8.685-2.045-10.538 1.809Z" fill="#FFD3C9"/><path d="M124.763 12.164s-.044.03-.039.049c.029.548-.03 1.18-.519 1.373v.03c.608-.08.672-.919.558-1.452Z" fill="#000"/><path d="M124.259 11.625c-.879-.044-.909 1.72-.089 1.764.82.044.83-1.72.089-1.764ZM127.925 12.322s.044.03.044.049c-.024.548.035 1.176.529 1.368v.03c-.608-.094-.682-.934-.573-1.447Z" fill="#000"/><path d="M128.424 11.758c.879-.054.924 1.715.109 1.764-.816.05-.845-1.72-.109-1.764ZM123.577 10.81c.243-.06.455-.153.687-.232.253-.05.484-.18.657-.37a.364.364 0 0 0-.054-.45.93.93 0 0 0-.934-.114c-.325.09-.606.295-.79.578a.403.403 0 0 0 .434.588ZM129.121 10.88a6.555 6.555 0 0 1-.697-.194 1.149 1.149 0 0 1-.677-.33.363.363 0 0 1-.064-.233.361.361 0 0 1 .094-.222.924.924 0 0 1 .924-.163c.329.072.62.262.82.533a.393.393 0 0 1-.174.583.394.394 0 0 1-.226.025Z" fill="#000"/><path d="M124.778 15.622a1.862 1.862 0 0 0 1.23.845c.221.047.447.06.672.04a.546.546 0 0 0 .129 0h.118a.148.148 0 0 0 .114-.124.246.246 0 0 0 0-.055v-1.111c.153.084.933.444.924.227a28.295 28.295 0 0 0-.638-5.647c0-.06-.103-.05-.098 0 0 1.754.326 3.498.36 5.262a3.262 3.262 0 0 0-.874-.282c-.06 0 .084 1.24.059 1.428a2.582 2.582 0 0 1-1.917-.628c-.064-.034-.109.005-.079.045Z" fill="#000"/><path d="M126.433 16.299a2.245 2.245 0 0 1-.894.672.989.989 0 0 1-.603 0c-.435-.12-.44-.494-.356-.865.05-.172.118-.337.203-.494.462.4 1.041.64 1.65.687Z" fill="#000"/><path d="M125.539 16.97a.989.989 0 0 1-.603 0c-.435-.118-.44-.493-.356-.864a1.03 1.03 0 0 1 .959.864Z" fill="#FF6868"/><path d="M130.425 7.772c-2.964 1.902-6.872-1.26-6.872-1.26a3.177 3.177 0 0 1-3.291 1.902s-.741 4.94-2.04 4.866c-1.976-.079-2.371-6.837-1.699-8.137.671-1.3 2.366-1.586 2.366-1.586a3.243 3.243 0 0 1 1.413-1.916c1.393-.989 6.022.563 6.022.563a4.358 4.358 0 0 1 1.25-1.576 1.221 1.221 0 0 1 1.759.217c-.252.36-.421.772-.494 1.206-.287 1.437.894 1.482.929.163a2.053 2.053 0 0 0-.415-1.369c.612-.835 1.576-1.082 2.139-.603.998.87 1.418 5.949-1.067 7.53Z" fill="#000"/><path d="M120.035 6.838c0-.084-.133-.06-.123.03.185.993.25 2.004.192 3.013-.098.988-.711 3.483-2.134 3.142a.055.055 0 0 0-.042.003.056.056 0 0 0-.027.032.05.05 0 0 0 .003.042.053.053 0 0 0 .032.027c.928.494 1.62-.702 1.976-1.532.593-1.506.459-3.21.123-4.757ZM131.393.173c1.448 1.976 1.719 4.718.257 6.788-1.843 2.599-5.321.766-7.411-.44-.098-.059-.202.09-.103.154 2.015 1.235 5.553 2.994 7.46.637 1.709-2.065 1.447-5.118-.203-7.139ZM119.309 3.567c-1.976.139-3.384 1.013-3.646 3.073a7.54 7.54 0 0 0 1.848 5.785.073.073 0 0 0 .051.026.076.076 0 0 0 .081-.07.078.078 0 0 0-.019-.055 8.499 8.499 0 0 1-1.773-4.337c-.099-1.2.089-2.535.958-3.458.628-.653 1.67-.776 2.515-.91.044.01.029-.059-.015-.054ZM126.892 2.638c-2.381-1.57-7.148-3.147-7.983.895 0 .03.049.044.059 0 1.067-4.037 5.435-2.06 7.87-.8.059.044.109-.06.054-.095Z" fill="#000"/><path d="M118.78 13.107s-1.452-2.796-2.697-2.312-.395 4.377.904 5.064a1.404 1.404 0 0 0 1.095.18 1.393 1.393 0 0 0 .881-.674l-.183-2.258Z" fill="#FFD3C9"/><path d="M116.355 11.902s-.03.03 0 .04c.904.493 1.289 1.481 1.521 2.43a.775.775 0 0 0-.478-.436.783.783 0 0 0-.643.075c-.025 0 0 .06 0 .055a.86.86 0 0 1 .899.424c.147.26.265.535.351.82.034.09.192.065.173-.039.192-1.24-.529-3.073-1.823-3.37Z" fill="#000"/><path d="M113.563 22.494s.771-3.676 1.211-3.74c.439-.064 2.208 3.458 3.888 4.2 1.68.74 3.621.543 3.898.597.276.055-.692 3.3-1.038 4.007-.41.83-1.131 1.59-2.425 1.294-2.392-.543-5.376-4.614-5.534-6.358Z" fill="#A9C297"/><path d="M115.026 19.737a8.207 8.207 0 0 1-.914 2.836 8.072 8.072 0 0 1 .914-2.836ZM122.13 23.848a8.272 8.272 0 0 1-.736 2.885 8.091 8.091 0 0 1 .736-2.886ZM121.092 24.312a14.284 14.284 0 0 1-.988 3.834 14.28 14.28 0 0 1 .988-3.834ZM119.704 24.13a14.32 14.32 0 0 1-.988 3.833c.15-1.318.482-2.608.988-3.834ZM118.247 23.354a14.357 14.357 0 0 1-.988 3.833 14.32 14.32 0 0 1 .988-3.834ZM117.046 22.405a12.914 12.914 0 0 1-.933 3.646c.129-1.255.444-2.483.933-3.646ZM115.949 21.145a10.109 10.109 0 0 1-.953 3.201c.14-1.112.462-2.193.953-3.2Z" fill="#000"/><path d="M110.965 27.508c-1.3 3.928-4.615 19.762-1.043 23.892 4.328 5.02 10.958 9.174 14.041 10.869.751.41 7.86-9.51 6.086-10.558-2.756-1.63-10.221-7.41-10.681-7.904-.805-.885-1.778-9.802-2.781-15.498-.909-5.163-4.861-3.118-5.622-.8Z" fill="#FFD3C9"/><path d="M129.832 51.637s4.599 1.23 7.569 2.179c1.66.528 4.416 1.685 5.459 2.633 1.546 1.413 7.158 8.315 5.498 9.713-1.482 1.26-5.548-5.281-5.548-5.281s4.679 6.24 2.609 7.41c-2.07 1.171-5.677-6.813-5.677-6.813s4.664 6.517 2.332 7.411c-1.759.672-5.434-6.393-5.434-6.393s3.952 5.632 2.188 6.423c-1.976.85-5.765-5.46-5.765-5.46-4.861 1.196-7.663-.227-9.535-1.482-.44-.296 6.304-10.34 6.304-10.34Z" fill="#FFD3C9"/><path d="M141.343 58.603c.578.712 1.166 1.428 1.675 2.194.509.765.988 1.541 1.433 2.346a15.712 15.712 0 0 1 1.408 3.3 33.962 33.962 0 0 0-3.054-5.513c-.494-.76-.988-1.551-1.482-2.312-.024-.015.005-.015.02-.015ZM138.557 60.411c.696.944 1.423 1.853 2.08 2.826.657.973 1.185 1.947 1.768 2.964.045.08 0 .08-.059 0-.622-.988-1.275-1.847-1.912-2.83-.637-.983-1.23-1.977-1.902-2.935-.01-.025.015-.04.025-.025ZM135.889 61.523a26.064 26.064 0 0 1 2.85 4.565c.04.079-.034.069-.079 0-.918-1.537-1.63-2.747-2.816-4.516-.019-.04.025-.079.045-.05Z" fill="#000"/><path d="m129.229 50.822-5.795 12.983s-12.207-8.428-14.421-12.924c-2.213-4.495-.415-15.468 1.137-21.406 1.551-5.939 5.78-8.187 7.173 1.368 1.393 9.555 1.729 12.49 2.045 12.934.316.445 9.861 7.045 9.861 7.045Z" fill="#A9C297"/><path d="M119.166 60.58c-.178-.258-9.422-7.737-10.612-11.2-.519-1.512-.593-5.998-.336-8.78.099-1.062.296-2.12.459-3.176.336-2.135.712-4.264.904-6.423 0 0-.034-.03-.039 0a43.264 43.264 0 0 0-.904 4.061v-.227c-.069-.657-.163-1.314-.168-1.976 0-.045-.074-.04-.074 0 .029.652 0 1.304 0 1.976 0 .316 0 .627.039.944 0 .118.025.247.04.375-.064.425-.129.845-.188 1.27-.153 1.082-.237 2.169-.366 3.25-.355 2.965-.36 6.956.312 9.066 1.131 3.572 10.775 10.83 10.868 10.923.094.094.109-.024.065-.084ZM121.117 60.797c.494-.875.889-1.833 1.304-2.752.415-.92.811-1.818 1.206-2.732.8-1.843 1.65-3.68 2.332-5.573a.047.047 0 0 0-.002-.026.042.042 0 0 0-.019-.02.039.039 0 0 0-.048.011c-.988 1.774-1.794 3.651-2.609 5.504-.41.929-.81 1.867-1.195 2.806a25.85 25.85 0 0 0-1.043 2.757c-.015.044.054.06.074.025ZM117.506 31.668c.795 3.878 1.383 7.86 2.03 11.768.045.178 0 .237.158.38 1.389 1.26 2.965 2.298 4.447 3.459a42.39 42.39 0 0 1-3.878-2.406c-.45-.38-1.142-.677-1.211-1.354-.696-3.927-1.195-7.904-1.561-11.857l.015.01Z" fill="#000"/><path d="M118.267 32.68c.229.835.175 1.72-.154 2.52-.005-.842.046-1.684.154-2.52Z" fill="#000"/><path d="M226.056 166.936h53.247l-7.766-54.236h-37.72l-7.761 54.236Z" fill="#FEE3C5"/><path d="m233.817 112.695 5.919 54.246h-13.685l7.766-54.246Z" fill="#FEE3C5"/><path opacity=".1" d="m233.817 112.695 5.919 54.246h-13.685l7.766-54.246Z" fill="#000"/><path d="m260.915 116.435 1.665-.351c0-.044-.988-4.599-2.006-9.203-1.116-4.97-5.997-7.273-10.093-6.601-3.058.494-6.447 2.885-5.928 7.984.548 5.434.963 8.028.988 8.132l1.679-.272c0-.025-.424-2.633-.988-8.033-.395-3.918 2.075-5.736 4.516-6.131 3.305-.534 7.262 1.299 8.161 5.296 1.033 4.59 1.996 9.15 2.006 9.179Z" fill="#000"/><path d="M239.015 166.521c-1.097-.776-2.229-1.482-3.36-2.204a75.723 75.723 0 0 0-3.458-2.05l-.158-.089-.149.109a82.226 82.226 0 0 0-2.672 2.06c-.875.711-1.754 1.418-2.594 2.169.988-.583 1.907-1.206 2.836-1.838.929-.632 1.852-1.28 2.761-1.942h-.301c1.151.677 2.322 1.334 3.498 1.977a52.984 52.984 0 0 0 3.597 1.808Z" fill="#fff"/><path d="M232.063 162.509c.233-3.458.405-6.916.569-10.375.163-3.458.281-6.916.419-10.374.139-3.459.218-6.917.287-10.375l.099-5.197c0-1.735.044-3.459.039-5.198-.123 1.729-.212 3.459-.316 5.188l-.257 5.192c-.163 3.458-.276 6.917-.415 10.375-.138 3.458-.217 6.916-.291 10.375a485.889 485.889 0 0 0-.134 10.389Z" fill="#fff"/><path d="M259.487 116.262a2.262 2.262 0 1 0 4.524 0 2.262 2.262 0 0 0-4.524 0ZM244.276 116.262a2.262 2.262 0 1 0 4.524 0 2.262 2.262 0 0 0-4.524 0Z" fill="#000"/><path d="M247.981 166.936h46.316l-6.753-47.176h-32.809l-6.754 47.176Z" fill="#A9C297"/><path d="m254.735 119.76 5.148 47.181h-11.902l6.754-47.181Z" fill="#A9C297"/><path opacity=".1" d="m254.735 119.76 5.148 47.181h-11.902l6.754-47.181Z" fill="#000"/><path d="m278.291 123.011 1.447-.306c0-.04-.85-4.002-1.744-8.004-.988-4.323-5.222-6.314-8.779-5.741-2.658.43-5.607 2.505-5.163 6.942.494 4.747.835 6.98.85 7.074l1.482-.237s-.365-2.292-.835-6.986c-.346-3.408 1.804-4.989 3.928-5.33 2.875-.465 6.319 1.126 7.094 4.604.89 3.992 1.72 7.944 1.72 7.984Z" fill="#000"/><path d="M259.255 166.575c-.953-.677-1.936-1.294-2.925-1.917a73.487 73.487 0 0 0-2.998-1.783l-.144-.079-.123.094a67.074 67.074 0 0 0-2.327 1.798c-.761.622-1.522 1.23-2.258 1.882.845-.494 1.66-1.047 2.47-1.596a78.603 78.603 0 0 0 2.401-1.694h-.261a60.672 60.672 0 0 0 3.043 1.709 49.43 49.43 0 0 0 3.122 1.586Z" fill="#fff"/><path d="M253.208 163.087c.203-3.008.356-6.017.494-9.031.138-3.013.237-6.022.361-9.031.123-3.009.188-6.027.252-9.036l.084-4.52c0-1.512.039-3.014.034-4.526-.108 1.507-.182 3.009-.276 4.516l-.223 4.515c-.138 3.009-.242 6.023-.36 9.031a494.976 494.976 0 0 0-.252 9.041 425.925 425.925 0 0 0-.114 9.041Z" fill="#fff"/><path d="M277.06 122.858a1.977 1.977 0 1 0 3.955 0 1.977 1.977 0 0 0-3.955 0ZM263.83 122.858a1.977 1.977 0 0 0 3.373 1.397 1.976 1.976 0 1 0-3.373-1.397Z" fill="#000"/></svg>