<svg width="300" height="92" viewBox="0 0 300 92" fill="none" xmlns="http://www.w3.org/2000/svg">
<rect x="0.5" y="0.5" width="299" height="91" rx="45.5" fill="white"/>
<path d="M37 23.08H43.32V24.46H38.48V36.02H37V23.08ZM61.36 26.6L60.18 27.46C59.64 26.62 58.48 25.36 57.5 24.5L58.6 23.76C59.58 24.58 60.8 25.8 61.36 26.6ZM51.94 33.22L49.28 34V39.64C49.28 40.48 49.08 40.88 48.56 41.1C48.04 41.34 47.22 41.38 45.84 41.38C45.78 41 45.58 40.4 45.38 40C46.34 40.04 47.2 40.02 47.44 40.02C47.72 40.02 47.84 39.92 47.84 39.64V34.44C46.88 34.74 45.98 34.98 45.18 35.22L44.74 33.78C45.6 33.58 46.68 33.28 47.84 32.96V28.68H44.98V27.28H47.84V23.28H49.28V27.28H51.72V28.68H49.28V32.56C50.08 32.34 50.92 32.08 51.76 31.86L51.94 33.22ZM60.52 30.72L61.74 31.46C60.9 33.28 59.68 35.08 58.22 36.64C58.96 38.48 59.9 39.6 61.04 39.72C61.58 39.76 61.9 38.68 62.1 36.46C62.4 36.8 63.04 37.16 63.36 37.28C62.9 40.52 62.12 41.52 61.12 41.44C59.34 41.3 58 40 57.04 37.8C55.66 39.06 54.1 40.12 52.52 40.84C52.24 40.46 51.78 39.98 51.36 39.68C53.2 38.96 54.96 37.76 56.48 36.34C55.88 34.58 55.48 32.42 55.16 29.98L52.1 30.3L51.96 28.9L55.02 28.58C54.86 26.92 54.72 25.18 54.64 23.34H56.12C56.2 25.12 56.32 26.82 56.48 28.42L62.6 27.8L62.76 29.16L56.64 29.82C56.9 31.82 57.26 33.6 57.68 35.08C58.88 33.74 59.86 32.22 60.52 30.72ZM76.36 34.58V30.02H71.52V34.58H76.36ZM70.1 28.68H77.82V35.9H70.1V28.68ZM67.22 39.04H80.72V25.58H67.22V39.04ZM65.72 24.1H82.3V41.52H80.72V40.44H67.22V41.52H65.72V24.1ZM100.56 26.04H98.48V27.58H100.56V26.04ZM100.56 30.36V28.74H98.48V30.36H100.56ZM97.2 27.58V26.04H94.7V24.94H97.2V23.36H98.48V24.94H101.74V27.58H103.16V28.74H101.74V31.48H98.48V32.98H102.06V34.16H98.48V35.7H102.7V36.92H98.48V39.34H97.2V36.92H93.86V35.7H97.2V34.16H94.38V32.98H97.2V31.48H94.7V30.36H97.2V28.74H93.78V27.58H97.2ZM88.32 23.32L89.66 23.66C89.28 24.98 88.8 26.32 88.28 27.58V41.5H86.96V30.28C86.48 31.12 86 31.88 85.48 32.56C85.38 32.2 84.98 31.4 84.74 31.04C86.26 29.14 87.54 26.24 88.32 23.32ZM93.14 30.52L93.92 30.7C93.66 33.54 93.16 35.8 92.4 37.56C94.26 39.56 96.8 39.96 99.52 39.98C100.14 39.98 102.38 39.98 103.18 39.96C102.98 40.28 102.74 40.88 102.68 41.26H99.48C96.48 41.26 93.82 40.8 91.84 38.78C91.2 39.94 90.4 40.84 89.52 41.52C89.3 41.24 88.8 40.76 88.52 40.58C89.5 39.88 90.3 38.94 90.94 37.68C90.28 36.7 89.68 35.46 89.24 33.9L90.32 33.52C90.62 34.66 91.04 35.6 91.5 36.38C92 35.1 92.32 33.56 92.54 31.74H90.34C90.06 31.9 89.78 32.06 89.78 32.22C89.66 31.96 89.38 31.38 89.18 31.12C89.52 31.04 90 30.52 90.38 29.9C90.7 29.4 91.6 27.78 92.3 26.02H89.7V24.72H92.8L93.22 24.52L94.12 25.1C93.3 27.08 92.36 29.02 91.42 30.54H92.88L93.14 30.52ZM115.88 31.6V33.22H119.74V31.6H115.88ZM115.88 28.94V30.48H119.74V28.94H115.88ZM115.88 34.3V36.5C116.34 36.68 116.8 36.84 117.3 37.04C118.38 36.38 119.8 35.32 120.62 34.56L121.74 35.42C120.76 36.18 119.58 36.96 118.56 37.58C120.16 38.24 121.72 38.96 122.7 39.52L122.04 40.62C120.66 39.8 118.1 38.6 115.88 37.7V39.82C115.88 40.76 115.64 41.1 115.02 41.32C114.36 41.54 113.3 41.54 111.64 41.54C111.56 41.16 111.36 40.64 111.16 40.26C112.38 40.32 113.6 40.3 113.92 40.28C114.28 40.26 114.4 40.16 114.4 39.82V37.72C112.28 38.66 110.1 39.6 108.4 40.32L107.8 39.1C109.44 38.52 111.96 37.52 114.4 36.54V34.3H109.12V33.22H114.4V31.6H108.34V30.48H114.4V28.94H109.3V27.86H114.4V26.34H107.86V30.9C107.86 34 107.6 38.52 105.92 41.54C105.66 41.28 105.04 40.88 104.72 40.74C106.28 37.86 106.44 33.8 106.44 30.9V25.02H114.28C114.02 24.52 113.7 23.94 113.4 23.5L114.82 23.08C115.24 23.68 115.7 24.44 116 25.02H122.9V26.34H115.88V27.86H121.16V30.38H123.12V31.68H121.16V34.3H115.88ZM108.86 35.26L109.7 34.44C110.68 35.02 111.98 35.9 112.64 36.48L111.78 37.4C111.16 36.8 109.88 35.88 108.86 35.26ZM139.82 29.04L141.14 29.48C139.5 32.5 136.6 35.36 133.22 37.06C133.06 36.76 132.68 36.28 132.42 36C134.32 35.08 136.12 33.74 137.54 32.24C134.18 32.48 133.64 32.58 133.3 32.72C133.24 32.36 133.08 31.66 132.96 31.34C133.32 31.26 133.84 31.14 134.12 30.78C134.5 30.36 135.58 28.5 136.22 27.36H132.78V25.98H137.62C137.42 25.3 137.06 24.36 136.66 23.64L137.96 23.26C138.42 24.04 138.9 25.12 139.02 25.82L138.58 25.98H143.08V27.36H137.76C137.08 28.48 136.18 30.06 135.48 31.16L138.6 30.98C139.08 30.36 139.5 29.7 139.82 29.04ZM129.74 25.74L128.6 26.44C128.3 25.7 127.68 24.58 127.14 23.76L128.24 23.18C128.82 24 129.44 25.04 129.74 25.74ZM132.38 26.66V27.88H124.96V26.66H132.38ZM125.78 33.06V31.88H131.64V33.06H125.78ZM125.78 29.28H131.62V30.46H125.78V29.28ZM130.38 39.08V35.78H127.06V39.08H130.38ZM141.18 32.6L142.62 33.1C141.82 34.56 140.78 35.9 139.5 37.1C140.84 38.22 142.34 39.66 143.14 40.6L141.98 41.54C141.26 40.6 139.82 39.16 138.5 37.98C136.7 39.48 134.54 40.7 132.14 41.58C131.98 41.24 131.58 40.7 131.32 40.42L131.6 40.32H127.06V41.26H125.78V34.54H131.64V40.3C136 38.72 139.56 35.9 141.18 32.6ZM152.3 26.8H149.76C148.84 28.54 147.72 30.08 146.5 31.2C146.24 30.96 145.64 30.44 145.28 30.22C147.2 28.58 148.76 26.02 149.62 23.22L151.12 23.58C150.9 24.22 150.66 24.88 150.38 25.48H162.46V26.8H153.78V28.56H161.44V29.78H153.78V31.58H161.92V32.86H153.78V34.62H153.46C154.6 35.42 155.94 36.46 156.68 37.12L155.66 38.16C154.9 37.4 153.32 36.14 152.12 35.24L152.78 34.62H152.3V26.8ZM146.6 40.76L145.24 40.16C146 38.9 146.7 36.94 147.1 35.56L148.4 36.06C147.96 37.46 147.28 39.48 146.6 40.76ZM152.48 39.92H156.92C157.98 39.92 158.16 39.64 158.26 37.74C158.6 38 159.2 38.2 159.64 38.28C159.42 40.68 158.94 41.26 157.04 41.26H152.42C150.1 41.26 149.48 40.84 149.48 39.26V35.66H150.94V39.24C150.94 39.8 151.18 39.92 152.48 39.92ZM159 35.68L160.42 35.28C161.3 36.84 162.44 38.96 163 40.24L161.5 40.74C161 39.48 159.92 37.3 159 35.68ZM181.38 32.66H182C182.2 32.66 182.56 32.64 182.74 32.58C182.74 32.82 182.76 33.08 182.78 33.32C182.64 33.38 182.32 33.38 182.04 33.38H181.16C180.32 33.38 180.18 33.02 180.18 32.16V29.86H181.12V32.18C181.12 32.56 181.14 32.66 181.38 32.66ZM179.3 33.66H178.12V29.14H175.52V27.96H178.12V26.82H179.3V27.96H182.4V29.14H179.3V33.66ZM177.12 29.9V30.74C177.12 31.78 176.96 32.94 176.02 33.76C175.86 33.56 175.46 33.24 175.22 33.12C176.04 32.5 176.18 31.48 176.18 30.72V29.9H177.12ZM182.72 26.16H167.78V30.48C167.78 33.66 167.54 38.44 165.98 41.66C165.74 41.38 165.12 40.94 164.82 40.78C166.24 37.74 166.36 33.48 166.36 30.48V24.84H173.98C173.86 24.4 173.7 23.9 173.56 23.48L175.02 23.2C175.24 23.7 175.48 24.34 175.62 24.84H182.72V26.16ZM172.4 33.78H171.22V29.14H168.7V27.96H171.22V26.82H172.4V27.96H174.96V29.14H172.4V33.78ZM174.56 33.14H174.12C173.38 33.14 173.22 32.8 173.22 31.98V29.98H174.16V32C174.16 32.36 174.18 32.44 174.36 32.44H174.54C174.66 32.44 174.96 32.42 175.14 32.38L175.2 33.08C175.04 33.14 174.78 33.14 174.56 33.14ZM170.12 29.9V30.84C170.12 31.94 169.96 33.16 168.92 34.08C168.74 33.86 168.36 33.56 168.12 33.42C169.04 32.74 169.16 31.64 169.16 30.8V29.9H170.12ZM178.14 37.22L179.24 36.68C180.32 37.96 181.68 39.76 182.4 40.8L181.26 41.46C181.02 41.08 180.7 40.62 180.34 40.1C170.42 40.86 169.44 40.9 168.84 41.12C168.78 40.84 168.62 40.18 168.48 39.82C169.02 39.78 169.78 39.46 170.78 38.96C171.32 38.72 172.44 38.14 173.74 37.36C170.56 37.54 170.06 37.62 169.74 37.72C169.7 37.46 169.52 36.86 169.38 36.52C169.74 36.48 170.16 36.28 170.64 35.98C171.18 35.72 172.96 34.56 174.24 33.34L175.3 33.98C174.12 34.98 172.88 35.86 171.66 36.52L175.4 36.36C176.34 35.76 177.32 35.08 178.2 34.4L179.32 35.18C176.86 36.96 174.36 38.42 171.9 39.58L179.54 39.02C179.08 38.4 178.58 37.78 178.14 37.22ZM188.72 23.38L190.08 23.76C189.64 25.1 189.08 26.46 188.48 27.76V41.54H187.1V30.3C186.52 31.28 185.86 32.18 185.22 32.94C185.08 32.62 184.68 31.8 184.44 31.44C186.16 29.46 187.76 26.44 188.72 23.38ZM200.9 28.42H198.14C198.1 28.54 198.06 28.68 198.02 28.8C198.26 30.84 198.64 33.08 199.4 35.12C200.18 33.24 200.62 31.02 200.9 28.42ZM194.54 38.04V33.58H191.34V38.04H194.54ZM203.14 28.42H202.22C201.82 31.74 201.2 34.44 200.1 36.66C200.88 38.16 201.92 39.46 203.36 40.36C203.08 40.64 202.62 41.16 202.44 41.54C201.12 40.62 200.12 39.38 199.36 37.98C198.42 39.42 197.24 40.6 195.72 41.56C195.54 41.3 195.06 40.78 194.78 40.54C196.5 39.56 197.76 38.24 198.68 36.6C197.92 34.82 197.46 32.88 197.18 31.02C196.88 31.68 196.56 32.28 196.22 32.8C196.14 32.68 196 32.52 195.86 32.32V39.34H191.34V40.64H190.02V32.28H192.26V28.5H189.5V27.14H192.26V23.5H193.68V27.14H196.26V28.5H193.68V32.28H195.82C195.64 32.04 195.42 31.8 195.28 31.68C196.62 29.62 197.44 26.48 197.9 23.28L199.24 23.5C199.04 24.72 198.8 25.94 198.48 27.12H203.14V28.42ZM212.9 35.16C212.28 31.84 217 30.94 217 28.66C217 27.28 216 26.28 213.96 26.28C212.6 26.28 211.34 26.88 210.18 28.1L209.1 27.1C210.42 25.7 211.98 24.78 214.16 24.78C216.98 24.78 218.78 26.22 218.78 28.52C218.78 31.54 214 32.16 214.54 35.16H212.9ZM213.76 40.1C213.04 40.1 212.46 39.58 212.46 38.78C212.46 37.98 213.04 37.44 213.76 37.44C214.46 37.44 215.04 37.98 215.04 38.78C215.04 39.58 214.46 40.1 213.76 40.1ZM229.84 23.34L231.24 23.78C230.7 25.16 230.02 26.58 229.28 27.86V41.5H227.82V30.18C227.12 31.16 226.38 32.08 225.64 32.86C225.48 32.52 225.06 31.76 224.8 31.4C226.8 29.44 228.7 26.42 229.84 23.34ZM243.02 30.14V31.6H237.64V41.54H236.14V31.6H230.56V30.14H236.14V23.48H237.64V30.14H243.02ZM261.38 32.66H262C262.2 32.66 262.56 32.64 262.74 32.58C262.74 32.82 262.76 33.08 262.78 33.32C262.64 33.38 262.32 33.38 262.04 33.38H261.16C260.32 33.38 260.18 33.02 260.18 32.16V29.86H261.12V32.18C261.12 32.56 261.14 32.66 261.38 32.66ZM259.3 33.66H258.12V29.14H255.52V27.96H258.12V26.82H259.3V27.96H262.4V29.14H259.3V33.66ZM257.12 29.9V30.74C257.12 31.78 256.96 32.94 256.02 33.76C255.86 33.56 255.46 33.24 255.22 33.12C256.04 32.5 256.18 31.48 256.18 30.72V29.9H257.12ZM262.72 26.16H247.78V30.48C247.78 33.66 247.54 38.44 245.98 41.66C245.74 41.38 245.12 40.94 244.82 40.78C246.24 37.74 246.36 33.48 246.36 30.48V24.84H253.98C253.86 24.4 253.7 23.9 253.56 23.48L255.02 23.2C255.24 23.7 255.48 24.34 255.62 24.84H262.72V26.16ZM252.4 33.78H251.22V29.14H248.7V27.96H251.22V26.82H252.4V27.96H254.96V29.14H252.4V33.78ZM254.56 33.14H254.12C253.38 33.14 253.22 32.8 253.22 31.98V29.98H254.16V32C254.16 32.36 254.18 32.44 254.36 32.44H254.54C254.66 32.44 254.96 32.42 255.14 32.38L255.2 33.08C255.04 33.14 254.78 33.14 254.56 33.14ZM250.12 29.9V30.84C250.12 31.94 249.96 33.16 248.92 34.08C248.74 33.86 248.36 33.56 248.12 33.42C249.04 32.74 249.16 31.64 249.16 30.8V29.9H250.12ZM258.14 37.22L259.24 36.68C260.32 37.96 261.68 39.76 262.4 40.8L261.26 41.46C261.02 41.08 260.7 40.62 260.34 40.1C250.42 40.86 249.44 40.9 248.84 41.12C248.78 40.84 248.62 40.18 248.48 39.82C249.02 39.78 249.78 39.46 250.78 38.96C251.32 38.72 252.44 38.14 253.74 37.36C250.56 37.54 250.06 37.62 249.74 37.72C249.7 37.46 249.52 36.86 249.38 36.52C249.74 36.48 250.16 36.28 250.64 35.98C251.18 35.72 252.96 34.56 254.24 33.34L255.3 33.98C254.12 34.98 252.88 35.86 251.66 36.52L255.4 36.36C256.34 35.76 257.32 35.08 258.2 34.4L259.32 35.18C256.86 36.96 254.36 38.42 251.9 39.58L259.54 39.02C259.08 38.4 258.58 37.78 258.14 37.22ZM28.82 55.16V60.12H27.4V54.04H40.66V60.12H39.18V55.16H28.82ZM38.3 56.36V57.36H29.7V56.36H38.3ZM29.7 59.58V58.58H38.26V59.58H29.7ZM31.84 63.46V62.16H28.24V63.46H31.84ZM28.24 67.02V68.66C29.38 68.54 30.6 68.42 31.84 68.28V67.02H28.24ZM31.84 65.9V64.56H28.24V65.9H31.84ZM42.72 62.16H33.28V71.52H31.84V69.48C29.38 69.76 26.94 70.06 25.12 70.26L24.96 68.96C25.52 68.92 26.16 68.86 26.86 68.78V62.16H25.2V60.92H42.72V62.16ZM40.26 64.58H36.08C36.54 65.7 37.24 66.72 38.1 67.58C38.98 66.72 39.74 65.72 40.26 64.58ZM41.16 63.36L42.06 63.72C41.44 65.64 40.4 67.22 39.12 68.46C40.24 69.32 41.58 69.96 43.1 70.34C42.8 70.62 42.4 71.16 42.22 71.5C40.64 71.04 39.26 70.32 38.1 69.36C36.9 70.28 35.54 70.98 34.14 71.46C33.96 71.14 33.6 70.58 33.32 70.32C34.64 69.92 35.94 69.28 37.1 68.42C36.14 67.4 35.38 66.2 34.84 64.84L35.7 64.58H33.82V63.4H40.9L41.16 63.36ZM54.46 58.2H57.78C58.1 57.62 58.5 56.76 58.76 56.14H54.32C54.68 56.72 55.02 57.5 55.14 58L54.46 58.2ZM58.36 65.64V64.12H55.22V65.64H58.36ZM53.02 56.32L53.7 56.14H50.32V54.94H55.8C55.56 54.48 55.26 54 54.96 53.6L56.14 53.14C56.6 53.66 57.04 54.36 57.32 54.94H62.9V56.14H59.72L60.22 56.28C59.9 56.96 59.52 57.64 59.16 58.2H62.2V66.94C62.2 67.68 62.08 68.04 61.56 68.28C61.04 68.5 60.2 68.52 59.02 68.52C58.96 68.12 58.76 67.6 58.58 67.22C59.48 67.26 60.24 67.26 60.52 67.26C60.76 67.24 60.82 67.16 60.82 66.94V59.38H57.34V60.74H60.32V61.76H57.34V63.18H59.46V66.58H55.22V67.34H54.12V63.18H56.2V61.76H53.2V60.74H56.2V59.38H52.7V68.6H51.34V58.2H53.8C53.68 57.66 53.36 56.9 53.02 56.32ZM49.4 56.34L48.26 57.14C47.74 56.32 46.64 54.94 45.76 53.96L46.86 53.3C47.76 54.26 48.86 55.54 49.4 56.34ZM49.44 62.76L50.18 63.04C49.9 64.8 49.46 66.28 48.88 67.56C50.2 69.62 52.7 69.92 56.32 69.92C58.38 69.92 61.3 69.82 63.34 69.66C63.12 69.98 62.92 70.66 62.84 71.08C60.98 71.18 58.48 71.24 56.32 71.24C52.32 71.24 49.86 70.82 48.28 68.68C47.54 69.92 46.66 70.88 45.64 71.58C45.42 71.28 44.94 70.76 44.66 70.56C46.56 69.34 48 67.14 48.66 64.02H46.48C45.96 64.02 45.44 64.14 45.3 64.3C45.2 63.94 44.92 63.26 44.76 62.94C45.04 62.86 45.36 62.74 45.72 62.36C46.18 61.92 47.36 60.32 48.22 59.1H45.02V57.88H49.16L49.42 57.78L50.4 58.24C49.56 59.4 48.04 61.46 46.92 62.8H49.18L49.44 62.76ZM78.74 64.86H69.46V69H78.74V64.86ZM67.96 71.5V63.54H80.28V71.42H78.74V70.38H69.46V71.5H67.96ZM69.54 59.76H78.98C77.22 58.68 75.62 57.42 74.12 55.82C72.82 57.32 71.24 58.64 69.54 59.76ZM74.32 53.22L75.62 53.86C75.42 54.18 75.2 54.46 74.98 54.76C77.32 57.24 80.1 58.88 83.28 60.22C82.9 60.54 82.48 61.1 82.26 61.56C81.12 61 80.04 60.44 79.02 59.78V61.14H69V60.12C68 60.72 66.98 61.28 65.94 61.74C65.68 61.34 65.28 60.78 64.86 60.44C68.64 58.94 72.3 56.3 74.32 53.22ZM92.9 65.16C92.28 61.84 97 60.94 97 58.66C97 57.28 96 56.28 93.96 56.28C92.6 56.28 91.34 56.88 90.18 58.1L89.1 57.1C90.42 55.7 91.98 54.78 94.16 54.78C96.98 54.78 98.78 56.22 98.78 58.52C98.78 61.54 94 62.16 94.54 65.16H92.9ZM93.76 70.1C93.04 70.1 92.46 69.58 92.46 68.78C92.46 67.98 93.04 67.44 93.76 67.44C94.46 67.44 95.04 67.98 95.04 68.78C95.04 69.58 94.46 70.1 93.76 70.1ZM111 71.72H104.68V70.34H109.52V58.78H111V71.72Z" fill="#666666"/>
<rect x="0.5" y="0.5" width="299" height="91" rx="45.5" stroke="#666666"/>
</svg>
