<svg width="300" height="92" viewBox="0 0 300 92" fill="none" xmlns="http://www.w3.org/2000/svg">
<rect x="0.5" y="0.5" width="299" height="91" rx="45.5" fill="white"/>
<path d="M37 23.1H43.3V24.48H38.48V36.02H37V23.1ZM59.94 23.24L61.06 24.46C57.44 25.52 51.52 26.06 46.66 26.26C46.62 25.88 46.44 25.28 46.3 24.94C51.06 24.72 56.9 24.18 59.94 23.24ZM46.32 28.88H61.92V30.32H46.32V28.88ZM44.98 33.58H63.04V35.04H44.98V33.58ZM53.24 25.36H54.8V39.52C54.8 40.58 54.48 41.04 53.72 41.28C52.96 41.52 51.66 41.56 49.54 41.54C49.44 41.12 49.16 40.44 48.92 40.04C50.58 40.1 52.18 40.08 52.62 40.06C53.08 40.06 53.24 39.92 53.24 39.5V25.36ZM70.04 28.08H77.68V29.48H70.04V28.08ZM73.02 23.38H74.34V41.56H73.02V23.38ZM78.12 24.8H82.9V26.16H78.12V24.8ZM77.64 29.48H83.18V30.86H77.64V29.48ZM75.06 24.86L76.02 24.32C76.74 25.12 77.5 26.2 77.84 26.94L76.84 27.54C76.52 26.82 75.76 25.68 75.06 24.86ZM79.96 30.18H81.38V39.62C81.38 40.46 81.22 40.88 80.66 41.14C80.1 41.38 79.18 41.4 77.78 41.4C77.72 40.98 77.54 40.36 77.34 39.94C78.36 39.96 79.3 39.96 79.58 39.96C79.88 39.94 79.96 39.88 79.96 39.62V30.18ZM68.22 23.22L69.62 23.7C68.64 25.36 67.04 27.2 65.54 28.38C65.36 28.08 64.96 27.54 64.72 27.26C66.06 26.24 67.5 24.58 68.22 23.22ZM66.98 31.18L68.2 29.98L68.38 30.04V41.62H66.98V31.18ZM68.74 27.24L70.1 27.68C68.92 30.18 67.08 32.7 65.24 34.32C65.08 34.02 64.64 33.32 64.34 33.02C66.06 31.6 67.74 29.46 68.74 27.24ZM70.8 30.78H71.94C71.9 34.68 71.68 37.28 70.12 38.86C69.96 38.58 69.6 38.16 69.32 37.96C70.6 36.6 70.76 34.32 70.8 30.78ZM75.5 30.78H76.64V36.44C76.64 36.96 76.66 37.08 76.84 37.08C77 37.08 77.44 37.08 77.6 37.08C77.78 37.08 78.04 37.06 78.24 37.02C78.26 37.32 78.32 37.84 78.36 38.12C78.16 38.18 77.88 38.2 77.58 38.2C77.42 38.2 77.02 38.2 76.86 38.2C75.7 38.2 75.5 37.76 75.5 36.4V30.78ZM95.04 31.28L96.4 31.66C95.2 34.14 93.2 36.4 91.18 37.86C90.96 37.58 90.46 37.02 90.14 36.76C92.14 35.48 94 33.48 95.04 31.28ZM98.58 28.82L99.74 28.22C100.92 29.54 102.38 31.4 103.04 32.56L101.82 33.28C101.18 32.1 99.76 30.2 98.58 28.82ZM92.14 33.48C94.04 36.96 98 39.42 102.92 40.34C102.6 40.66 102.2 41.24 102 41.64C97 40.56 93.04 37.88 90.9 33.92L92.14 33.48ZM94.56 33.5H100.46V34.76H93.46L94.56 33.5ZM99.94 33.5H100.24L100.5 33.44L101.46 33.9C99.56 38.28 95.06 40.62 90.42 41.66C90.28 41.3 89.96 40.7 89.68 40.38C94.04 39.54 98.36 37.34 99.94 33.74V33.5ZM89.34 27.28L90.7 27.76C89.42 30.16 87.46 32.6 85.6 34.2C85.44 33.88 85 33.18 84.72 32.86C86.46 31.5 88.24 29.4 89.34 27.28ZM88.88 23.22L90.22 23.72C89.14 25.42 87.36 27.28 85.74 28.5C85.56 28.2 85.16 27.68 84.92 27.4C86.4 26.34 88.04 24.62 88.88 23.22ZM87.5 31L88.72 29.78L88.92 29.86V41.68H87.5V31ZM91.32 28.86C91.24 28.54 91 27.82 90.84 27.42C91.22 27.36 91.64 27.08 92.16 26.72C92.68 26.34 94.46 24.9 95.68 23.4L97.16 24.08C95.62 25.66 93.88 27.14 92.24 28.1V28.16C92.24 28.16 91.32 28.56 91.32 28.86ZM91.32 28.86L91.3 27.86L92.1 27.44L97.36 27.26C97.14 27.62 96.9 28.16 96.78 28.44C92.32 28.62 91.7 28.72 91.32 28.86ZM90.86 32.44C90.8 32.14 90.58 31.4 90.42 31.02C90.98 30.94 91.7 30.6 92.64 30.04C93.66 29.5 97.1 27.36 99.58 25.14L100.94 25.9C98 28.34 94.82 30.34 91.82 31.72V31.78C91.82 31.78 90.86 32.14 90.86 32.44ZM90.86 32.44L90.84 31.38L91.72 30.94L101.1 30.42C101.12 30.78 101.2 31.3 101.28 31.6C92.36 32.14 91.44 32.2 90.86 32.44ZM113.98 25.04H121.02V26.42H113.98V25.04ZM111.22 32.56H120.94V33.94H111.22V32.56ZM120.44 25.04H121.94C121.94 25.04 121.92 25.46 121.9 25.68C121.66 29.18 121.4 30.56 120.86 31.12C120.52 31.48 120.12 31.62 119.52 31.64C119.02 31.68 118.02 31.68 116.98 31.62C116.94 31.22 116.78 30.62 116.52 30.24C117.54 30.32 118.52 30.34 118.9 30.34C119.24 30.34 119.44 30.32 119.62 30.16C119.98 29.82 120.22 28.52 120.44 25.26V25.04ZM113.74 23.2L115.28 23.4C114.78 27.26 113.56 30.2 111.4 32.12C111.16 31.88 110.5 31.38 110.14 31.16C112.26 29.48 113.34 26.72 113.74 23.2ZM120.44 32.56H120.76L121.02 32.5L122 32.94C120.16 37.98 115.6 40.5 110.6 41.6C110.46 41.2 110.12 40.58 109.84 40.24C114.52 39.4 118.9 37.04 120.44 32.8V32.56ZM113.92 33.82C115.56 37 119.02 39.36 123.28 40.26C122.94 40.58 122.52 41.2 122.3 41.6C117.94 40.5 114.48 37.92 112.6 34.28L113.92 33.82ZM105.84 24.46L106.66 23.38C107.96 23.92 109.56 24.84 110.32 25.56L109.46 26.78C108.68 26.04 107.12 25.06 105.84 24.46ZM104.76 29.88L105.56 28.76C106.86 29.26 108.48 30.14 109.3 30.82L108.44 32.06C107.66 31.36 106.06 30.44 104.76 29.88ZM105.4 40.34C106.42 38.8 107.88 36.18 109 33.9L110.12 34.86C109.12 36.96 107.8 39.48 106.68 41.32L105.4 40.34ZM133.14 23.28H134.8C134.72 26.82 134.56 36.98 126.06 41.54C125.8 41.14 125.3 40.68 124.84 40.36C133.18 36.14 133.06 26.36 133.14 23.28ZM134.62 25.74C134.8 27.18 135.62 36.76 143.3 40.18C142.86 40.52 142.42 41.04 142.2 41.46C134.28 37.76 133.46 27.64 133.18 25.9L134.62 25.74ZM145.84 24.08H147.26V36.54H145.84V24.08ZM146.6 24.08H151.68V35.54H146.6V34.16H150.28V25.42H146.6V24.08ZM146.58 28.92H151V30.26H146.58V28.92ZM152.54 24.04H161.5V25.38H152.54V24.04ZM161.02 24.04H162.46C162.46 24.04 162.46 24.42 162.44 24.62C162.24 27.52 162.06 28.72 161.62 29.18C161.32 29.5 160.96 29.6 160.44 29.64C159.98 29.68 159.1 29.68 158.18 29.64C158.14 29.26 158 28.74 157.8 28.38C158.66 28.46 159.48 28.48 159.8 28.48C160.1 28.48 160.28 28.44 160.42 28.3C160.72 28 160.88 26.98 161.02 24.24V24.04ZM156.02 24.46H157.52C157.16 27.38 156.18 29.3 152.74 30.34C152.6 30 152.22 29.48 151.9 29.22C154.96 28.38 155.76 26.82 156.02 24.46ZM154.56 31.88V34.92H160.4V31.88H154.56ZM153.14 30.62H161.88V36.18H153.14V30.62ZM150.8 37.52L152.18 37.36C152.44 38.66 152.66 40.32 152.68 41.32L151.2 41.54C151.2 40.52 151.04 38.82 150.8 37.52ZM155.08 37.46L156.48 37.2C157.02 38.44 157.56 40.12 157.76 41.16L156.28 41.48C156.1 40.46 155.6 38.74 155.08 37.46ZM159.16 37.34L160.5 36.8C161.46 38.1 162.62 39.88 163.12 41L161.68 41.64C161.22 40.52 160.1 38.68 159.16 37.34ZM147.48 36.94L148.9 37.34C148.2 38.84 147.2 40.56 146.28 41.7L144.84 41.08C145.76 40.06 146.8 38.4 147.48 36.94ZM174.74 24.16H182.98V25.46H174.74V24.16ZM176.58 31.48V33.36H180.98V31.48H176.58ZM176.58 34.5V36.38H180.98V34.5H176.58ZM176.58 28.5V30.34H180.98V28.5H176.58ZM175.32 27.32H182.28V37.58H175.32V27.32ZM178.06 24.8L179.64 24.98C179.36 26.12 179.1 27.36 178.88 28.2L177.64 27.96C177.82 27.06 178 25.7 178.06 24.8ZM177.1 38.16L178.36 38.88C177.52 39.88 176.2 40.98 175.06 41.62C174.84 41.36 174.4 40.94 174.08 40.7C175.22 40.08 176.46 39.02 177.1 38.16ZM179.54 38.86L180.66 38.18C181.58 38.92 182.68 39.98 183.24 40.7L182.1 41.48C181.58 40.74 180.46 39.64 179.54 38.86ZM170.36 31.46L171.38 31.14C171.76 31.78 172.16 32.62 172.34 33.18L171.26 33.56C171.08 32.98 170.72 32.1 170.36 31.46ZM168.38 35.04H174.16V35.98H168.38V35.04ZM168.38 37.12H174.22V38.08H168.38V37.12ZM171 33.38H172.08V39.8H171V33.38ZM168.96 32.9H174.38V33.92H168.96V41.38H167.8V33.92L168.7 32.9H168.96ZM168.66 31.08L169.76 31.38C169.18 33.2 168.22 35.08 167.18 36.3C167.04 36.08 166.66 35.58 166.4 35.34C167.38 34.28 168.18 32.68 168.66 31.08ZM166.32 26.76H174.12V30.92H166.32V29.72H172.78V27.96H166.32V26.76ZM172.8 23.58L173.94 24.62C171.86 25.24 168.74 25.68 166.14 25.88C166.1 25.56 165.9 25.08 165.74 24.78C168.24 24.54 171.2 24.12 172.8 23.58ZM165.74 24.78H167.02V31.5C167.02 34.42 166.86 38.66 165.78 41.5C165.54 41.3 164.96 41 164.64 40.88C165.66 38.14 165.74 34.26 165.74 31.5V24.78ZM168.4 39.22H174.52V40.28H168.4V39.22ZM192.36 36.24L191.9 35.18C193.54 34.52 194.44 33.5 194.44 31.98L194.06 30.3L195.14 31.82C194.86 32.18 194.46 32.28 194.08 32.28C193.26 32.28 192.58 31.78 192.58 30.84C192.58 29.9 193.3 29.4 194.1 29.4C195.22 29.4 195.82 30.32 195.82 31.72C195.82 33.88 194.46 35.52 192.36 36.24ZM204.58 31.42L220.44 26.56L220.82 27.88L205 32.78L204.58 31.42ZM213.88 23.24H215.38V37.34H213.88V23.24ZM208.26 24.58H209.74V38.12C209.74 39.56 210.12 39.88 212.1 39.88C213.06 39.88 217.98 39.88 219.18 39.88C221.06 39.88 221.36 39.22 221.64 36.34C222 36.6 222.62 36.84 223.04 36.94C222.72 40.2 222.14 41.26 219.2 41.26C218.46 41.26 212.86 41.26 212.16 41.26C209.18 41.26 208.26 40.64 208.26 38.06V24.58ZM220.08 26.82H219.84L220.48 26.32L221.6 26.7L221.54 26.96C221.42 29.74 221.16 33.38 220.74 35.64L219.5 35.3C219.82 33.2 220.02 29.54 220.08 26.82ZM233.98 25.04H241.02V26.42H233.98V25.04ZM231.22 32.56H240.94V33.94H231.22V32.56ZM240.44 25.04H241.94C241.94 25.04 241.92 25.46 241.9 25.68C241.66 29.18 241.4 30.56 240.86 31.12C240.52 31.48 240.12 31.62 239.52 31.64C239.02 31.68 238.02 31.68 236.98 31.62C236.94 31.22 236.78 30.62 236.52 30.24C237.54 30.32 238.52 30.34 238.9 30.34C239.24 30.34 239.44 30.32 239.62 30.16C239.98 29.82 240.22 28.52 240.44 25.26V25.04ZM233.74 23.2L235.28 23.4C234.78 27.26 233.56 30.2 231.4 32.12C231.16 31.88 230.5 31.38 230.14 31.16C232.26 29.48 233.34 26.72 233.74 23.2ZM240.44 32.56H240.76L241.02 32.5L242 32.94C240.16 37.98 235.6 40.5 230.6 41.6C230.46 41.2 230.12 40.58 229.84 40.24C234.52 39.4 238.9 37.04 240.44 32.8V32.56ZM233.92 33.82C235.56 37 239.02 39.36 243.28 40.26C242.94 40.58 242.52 41.2 242.3 41.6C237.94 40.5 234.48 37.92 232.6 34.28L233.92 33.82ZM225.84 24.46L226.66 23.38C227.96 23.92 229.56 24.84 230.32 25.56L229.46 26.78C228.68 26.04 227.12 25.06 225.84 24.46ZM224.76 29.88L225.56 28.76C226.86 29.26 228.48 30.14 229.3 30.82L228.44 32.06C227.66 31.36 226.06 30.44 224.76 29.88ZM225.4 40.34C226.42 38.8 227.88 36.18 229 33.9L230.12 34.86C229.12 36.96 227.8 39.48 226.68 41.32L225.4 40.34ZM253 31.88H263V33.02H253V31.88ZM252.76 40.04H263.2V41.22H252.76V40.04ZM255.9 23.22H257.12V25.54H255.9V23.22ZM258.58 23.22H259.82V25.54H258.58V23.22ZM254.58 28.28V29.76H261.26V28.28H254.58ZM254.58 25.84V27.28H261.26V25.84H254.58ZM253.4 24.74H262.48V30.82H253.4V24.74ZM255.28 35.02V36.7H260.62V35.02H255.28ZM253.96 34H262.02V37.7H253.96V34ZM259.78 37.76L261.14 38.14C260.68 39.04 260.18 40.04 259.76 40.68L258.76 40.32C259.12 39.62 259.56 38.5 259.78 37.76ZM254.94 38.16L256.1 37.8C256.46 38.58 256.84 39.6 257.02 40.24L255.82 40.64C255.66 39.98 255.28 38.94 254.94 38.16ZM256.12 25.28H257.14V30.36H256.12V25.28ZM258.64 25.28H259.68V30.36H258.64V25.28ZM246.62 31.9H251.22V32.98H246.62V31.9ZM250.46 31.9H251.76V40.08C251.76 40.72 251.62 41.06 251.18 41.28C250.72 41.46 250.04 41.48 248.9 41.48C248.84 41.16 248.66 40.66 248.5 40.32C249.28 40.34 249.98 40.34 250.18 40.34C250.4 40.34 250.46 40.26 250.46 40.06V31.9ZM245.88 23.92H251.82V30H250.54V25.06H247.08V30H245.88V23.92ZM245.04 29.48H252.68V32.36H251.48V30.58H246.2V32.36H245.04V29.48ZM248.34 26.36H251.34V27.32H249.24V29.9H248.34V26.36ZM246.04 31.9H247.3V35.66C247.3 37.48 247.1 39.96 245.92 41.68C245.7 41.42 245.16 41.02 244.86 40.88C245.92 39.34 246.04 37.26 246.04 35.66V31.9ZM247.2 38C248.2 37.56 249.6 36.84 251.04 36.08L251.32 36.92C250.08 37.68 248.86 38.42 247.78 39.06L247.2 38ZM247.42 34.42L248.12 33.72C248.92 34.24 249.84 34.9 250.32 35.36L249.56 36.2C249.1 35.7 248.18 34.92 247.42 34.42ZM25.64 57.58H41.16V59.1H25.64V57.58ZM40.58 57.58H42.14C42.14 57.58 42.12 58.14 42.1 58.38C41.64 66.66 41.22 69.64 40.34 70.64C39.86 71.22 39.38 71.38 38.62 71.44C37.92 71.52 36.64 71.48 35.4 71.4C35.38 70.96 35.18 70.3 34.9 69.86C36.26 69.98 37.54 70 38.04 70C38.48 70 38.72 69.94 38.98 69.7C39.74 68.96 40.18 65.84 40.58 57.9V57.58ZM32.18 53.24H33.76V56.72C33.76 61.28 33.2 67.46 26.2 71.68C25.98 71.32 25.42 70.76 25.06 70.5C31.7 66.54 32.18 60.86 32.18 56.72V53.24ZM48.26 60.38H59.88V61.78H48.26V60.38ZM48.26 64.72H59.88V66.12H48.26V64.72ZM48.26 69.1H59.88V70.5H48.26V69.1ZM47.24 55.94H61.04V71.52H59.48V57.38H48.76V71.62H47.24V55.94ZM53.1 53.18L54.84 53.4C54.4 54.6 53.88 55.9 53.44 56.76L52.1 56.5C52.46 55.56 52.9 54.16 53.1 53.18ZM67.82 60.92H79.62V62.4H67.82V60.92ZM66.8 54.4H80.58V63.66H79V55.92H66.8V54.4ZM67.04 60.92H68.58V68.38C68.58 69.44 69.04 69.68 71.24 69.68C72.3 69.68 77.54 69.68 78.9 69.68C81.04 69.68 81.36 69.1 81.6 66.02C82.02 66.28 82.68 66.54 83.12 66.64C82.78 70.22 82.12 71.18 78.88 71.18C78.12 71.18 72.04 71.18 71.3 71.18C68.08 71.18 67.04 70.66 67.04 68.4V60.92ZM91.96 53.22H93.48V58.64H91.96V53.22ZM86.9 54.78H97.98V56.06H86.9V54.78ZM85.14 57.98H102.88V59.26H85.14V57.98ZM100.44 53.86L101.68 54.6C97.78 58.76 91.42 61.56 85.28 63.22C85.14 62.88 84.76 62.22 84.5 61.9C90.62 60.44 96.9 57.7 100.44 53.86ZM90.1 64.46V66.04H98.88V64.46H90.1ZM90.1 61.82V63.4H98.88V61.82H90.1ZM88.64 60.72H100.4V67.14H88.64V60.72ZM90.78 68.1L92.18 67.98C92.42 69.04 92.62 70.4 92.64 71.22L91.16 71.42C91.16 70.58 91 69.18 90.78 68.1ZM94.98 68.08L96.36 67.82C96.86 68.84 97.4 70.2 97.58 71.04L96.1 71.38C95.94 70.5 95.46 69.12 94.98 68.08ZM99.12 68L100.46 67.48C101.38 68.54 102.5 70.02 102.98 70.98L101.58 71.58C101.12 70.62 100.04 69.1 99.12 68ZM87.48 67.48L88.9 67.88C88.3 69.22 87.34 70.66 86.32 71.54L84.94 70.86C85.94 70.1 86.9 68.76 87.48 67.48ZM106.76 70.28C106.04 70.28 105.46 69.7 105.46 68.88C105.46 68.04 106.04 67.48 106.76 67.48C107.5 67.48 108.1 68.04 108.1 68.88C108.1 69.7 107.5 70.28 106.76 70.28ZM112.326 70.28C111.606 70.28 111.026 69.7 111.026 68.88C111.026 68.04 111.606 67.48 112.326 67.48C113.066 67.48 113.666 68.04 113.666 68.88C113.666 69.7 113.066 70.28 112.326 70.28ZM117.893 70.28C117.173 70.28 116.593 69.7 116.593 68.88C116.593 68.04 117.173 67.48 117.893 67.48C118.633 67.48 119.233 68.04 119.233 68.88C119.233 69.7 118.633 70.28 117.893 70.28ZM127.679 71.72H121.379V70.34H126.199V58.8H127.679V71.72Z" fill="#666666"/>
<rect x="0.5" y="0.5" width="299" height="91" rx="45.5" stroke="#666666"/>
</svg>
