<svg xmlns="http://www.w3.org/2000/svg" width="13" height="21" fill="none"><path fill="#DFDFDF" d="M0 0h13v21H0z"/><g clip-path="url(#a)"><path fill="#fff" d="M-1113-312H327v3327h-1440z"/><path fill="#FEE3C5" fill-opacity=".1" d="M-1113-232H327v2512h-1440z"/><path fill="#C7594D" d="M-127.88 20.52h19.44c-3.68-2.6-7-5.68-9.6-8.76-2.64 3.08-6.2 6.2-9.84 8.76Zm12.24 12.88v4.84h14.8v4.24h-34.04v-4.24h14.28V33.4h-10.36v-4.12h10.36v-4.56h-8.4v-3.44a49.402 49.402 0 0 1-5.08 3c-.68-1.16-1.84-2.8-2.92-3.84 4.44-1.8 9.4-5.12 13.16-8.68h-5.32v-4.4h13.68c3.44 5.04 9.84 10.08 16.64 12.56-1 1.04-2.48 3-3.2 4.36-1.72-.8-3.4-1.76-5.04-2.84v3.28h-8.56v4.56h10.48v4.12h-10.48Zm55.52-16.24H-80.4c-.12 1.6-.2 3.2-.4 4.84h17.16s-.04 1.44-.16 2.08c-.72 10.84-1.56 15.28-3.2 17-1.2 1.32-2.48 1.72-4.28 1.88-1.56.16-4.2.16-6.92.04-.08-1.4-.76-3.4-1.68-4.68 2.72.24 5.52.28 6.72.28.88 0 1.4-.08 1.96-.52 1.04-.92 1.76-4.32 2.32-11.48h-12.6C-82.84 33.28-85.8 39.52-93 43.64c-.72-1.28-2.2-2.92-3.48-3.92 9.6-5.12 10.36-14.12 10.76-22.56H-95.8v-4.64h16.88c-.64-1.56-1.6-3.56-2.4-5.16l4.68-1.76c1.08 1.8 2.28 4.2 2.88 5.72l-2.76 1.2h16.4v4.64Zm16.64-4.32h9.36c-.28-1.72-1.08-4.28-1.76-6.16l4.52-1.12c.8 1.92 1.6 4.44 2.04 6.08l-4.2 1.2h12.32v4.6h-22.28v-4.6Zm9.4 22.04-4.68 1.32c-.32-4.16-1.28-11.16-2.36-16.52l4.32-.96c1.2 5.24 2.32 12.12 2.72 16.16ZM-47.6 6.28l4.48 1.4c-1.04 2.72-2.28 5.48-3.72 8.08V43.4h-4.8V23.24a64.75 64.75 0 0 1-2.52 2.96c-.44-1.2-1.76-3.8-2.56-4.96 3.6-3.6 7.08-9.28 9.12-14.96Zm20.96 31.04h6.8v4.6h-25.08v-4.6H-31c1.36-5.2 2.72-12.96 3.28-18.72l4.96.76c-1 6-2.48 12.96-3.88 17.96Zm-77.52 18.44 4.08 1.36c-1.36 1.56-2.72 3.16-3.76 4.2l-2.88-1.16c.92-1.24 2-3.08 2.56-4.4Zm-17.36 5.36-2.76-1.08c.88-1.2 1.92-2.96 2.48-4.16l3.08 1 2.84-2.12c1.08 1.16 2.52 2.72 3.2 3.72l-2.96 2.4c-.56-.92-1.68-2.32-2.6-3.48-1.2 1.44-2.4 2.84-3.28 3.72Zm-8.04-2.56-3 2.36c-.64-1.04-2-2.76-3.08-3.96l2.84-2.12c1.08 1.16 2.56 2.72 3.24 3.72Zm21.44 28.64v-2.28h-19.08v2.28h19.08ZM-124.44 75v2.12h12.52V75h-12.52Zm6.92 5-.92 1.64h15.04v9.84h-4.72v-.92h-19.08v.96h-4.48v-9.88h9.2c.2-.52.44-1.08.64-1.64h-7v-7.92h21.6V80h-10.28Zm2.16-12.96h10.92c-1.52-1-3.6-2.16-5.52-3.16-1.16 1.28-2.92 2.36-5.4 3.16Zm4.04-12.92h4.28c-.12 2.52-.36 4.6-.96 6.4 2.6 1.24 5.84 2.96 7.64 4.12l-2.08 2.4h1.6v7.68h-4.76v-4.08h-24.96v4.08h-4.56v-7.68h.72c-.48-.96-1.32-2.04-1.96-2.68 6.84-1.6 7.68-4.48 8-10.24h4.12c-.12 2.56-.4 4.68-1 6.52 2 1.08 4.32 2.52 5.68 3.44l-2.92 2.92c-1-.84-2.84-2.04-4.56-3.12-1.16 1.24-2.72 2.32-4.96 3.16h14.8c-.48-1.04-1.36-2.32-2.12-3 6.96-1.52 7.72-4.2 8-9.92Zm24.56 20.12H-69c-1.16-1.08-2.24-2.2-3.2-3.4v2.04h-11.6v-1.8c-.88 1.12-1.92 2.2-2.96 3.16Zm19.64 9.72h-9.2c1.88.48 4 1.08 6.16 1.72 1-.52 2.04-1.12 3.04-1.72Zm-11.72 1.36v.64l1.44-2h-7.48v2.44l6.04-1.08Zm-6.04-5.16v1.28h13.08v-1.28h-13.08Zm0-3.4V78h13.08v-1.24h-13.08Zm11.64-7.32h-9.32c-.28.4-.56.8-.84 1.16h11c-.28-.4-.6-.8-.84-1.16Zm12.92 0h-7.84c2.4 2.36 5.68 4.24 9.16 5.32-1.04.92-2.36 2.6-3.04 3.72-1.76-.64-3.4-1.56-4.96-2.64v8.08c1.08-.64 2.04-1.28 2.84-1.88l3.08 2.44c-1.56.84-3.32 1.68-4.96 2.44 1.88.6 3.56 1.16 4.88 1.64l-2 3.2c-3.52-1.4-10.48-3.68-15.64-5.12.08.84.16 1.64.28 2.2-9.04 1.88-10.44 2.28-11.36 2.84-.32-1.08-1.24-3-1.96-3.8.84-.48 1.76-1.44 1.76-3.24v-7.76c-1.24.84-2.48 1.56-3.76 2.2-.68-.92-2.24-2.64-3.28-3.48 3.48-1.36 6.8-3.56 9.08-6.16h-7.6v-3.16h15.12v-1.36h-11.16v-2.84h11.16v-1.32h-13.04v-3.08h6.4c-.44-.76-.92-1.56-1.36-2.2l4.28-1.32c.84 1.08 1.72 2.48 2.28 3.52h8.24c.64-1.16 1.36-2.56 1.72-3.6l5.28 1.04c-.68.92-1.32 1.8-1.96 2.56h6.24v3.08H-75.6v1.32h11.28v2.84H-75.6v1.36h15.28v3.16Zm13.88-9.64h-3.88V65h3.88v-5.2Zm-3.88 15.16h3.88v-5.8h-3.88v5.8Zm15.08-2.48v4.28h8.96v-4.28h-8.96Zm-15.08 6.72v1.88h-4.48V55.64h12.72v9.88c4.52-1.24 6.12-3.16 6.84-5.84h-5.68v-4.16h20.6s-.04 1.04-.08 1.6c-.32 5.44-.68 7.96-1.6 8.96-.76.84-1.68 1.16-2.76 1.28-1 .12-2.8.16-4.6.08-.08-1.2-.52-2.76-1.16-3.8 1.52.12 2.84.16 3.48.16.56 0 .88-.08 1.2-.4.36-.36.6-1.44.8-3.72h-5.52c-.84 4.16-2.76 7.12-8.12 9h17.12V80.6h-18.16V69l-.08.04c-.4-1-1.36-2.44-2.28-3.32V79.2h-8.24ZM-52 91.68l-4.6-2c1.64-1.96 3.68-5.28 4.92-8.24l4.6 1.28c-1.32 3.04-3.24 6.6-4.92 8.96Zm6.96-8.72 4.4-.52c.52 2.64 1 6.04 1.04 8.16l-4.68.72c0-2.08-.32-5.64-.76-8.36Zm8.44-.08 4.48-.8c1 2.56 2 5.92 2.36 8.12l-4.76.96c-.24-2.08-1.16-5.6-2.08-8.28Zm8.24-.04 4.32-1.68c1.64 2.56 3.72 6.08 4.64 8.36l-4.6 1.96c-.8-2.24-2.72-5.92-4.36-8.64ZM8.6 67.76V66.4H4.4v1.36h4.2Zm0 3.72v-1.36H4.4v1.36h4.2Zm0 3.8v-1.44H4.4v1.44h4.2Zm-4.84-14V59.6h-5.52v-3.52h5.52v-1.96h4.16v7.36H4.48l.96.28c-.24.6-.48 1.24-.76 1.8H8.2c-.2-.64-.4-1.32-.6-1.88l3.32-.8v-6.76h4.2v1.92h5.28v3.52h-5.28v1.92h-3c.28.68.52 1.4.72 2.08h6.56v2.84h-6.84v1.36h5.76v2.36h-5.76v1.36h5.76v2.36h-5.76v1.44h7.64v2.76H4.4v.6H.48v-8.16C.04 71-.44 71.52-.92 72c-.4-.8-1.52-2.48-2.24-3.36v1.24h-11.8v-3.6h11.8v2.08c2.04-1.92 3.8-4.76 4.8-7.72l2.12.64Zm-18.72 13.96v-3.6h11.8v3.6h-11.8ZM-1.8 60.72v3.76h-14.88v-3.76h6.72c-.6-1.52-1.6-3.52-2.52-5.04l3.56-1.72C-7.84 55.6-6.64 57.8-6 59.28l-2.6 1.44h6.8Zm14.4 21.72H6.4c.76.8 1.76 1.52 2.92 2.12 1.24-.6 2.32-1.32 3.28-2.12Zm-19.56 3v-4.48h-4.2v4.48h4.2Zm23.36-6.36 2.8 1.32c-1.32 2.4-3.16 4.32-5.48 5.96 2.24.64 4.76 1.08 7.4 1.32-.92.92-2.08 2.68-2.6 3.76-3.52-.48-6.64-1.36-9.32-2.64-3.08 1.28-6.56 2.16-10.24 2.72-.32-1.04-1.2-2.72-1.96-3.68v1.44h-8.16v1.68h-3.88v-13.8H-3V87.8c2.8-.32 5.6-.84 8.04-1.6a17.54 17.54 0 0 1-3.16-3.28l1.52-.48H-.96v-3.2h16.64l.72-.16Zm27.84-5.84v1.4l5.04-.04c-.56-.24-1.12-.52-1.64-.72l.8-.64h-4.2Zm-11.72-2.92h7.08V68.8h-7.08v1.52Zm0-5.72v1.48h7.08V64.6h-7.08Zm19.16 0h-7.44v1.48h7.44V64.6Zm-7.44 5.72h7.44V68.8h-7.44v1.52Zm15.96 8.92V83h-8.92v3.88c0 2.2-.4 3.32-2.04 3.96-1.6.6-3.84.64-6.88.64-.2-1.28-.8-2.96-1.36-4.16 1.92.08 4.2.08 4.84.08.64-.04.84-.16.84-.68V83H35.4c1.68 1.2 3.36 2.6 4.28 3.68l-3.52 3.04c-1.16-1.56-3.84-3.84-6-5.32l1.68-1.4h-8v-3.76h22.84v-1.48c-7.88.16-15.44.28-21.04.32l-.12-3.4c3.76.04 8.68 0 14.08 0v-1.44H28.08V61.72H39.6v-1.44H24.92v-3.6H39.6v-2.52h4.64v2.52h14.6v3.6h-14.6v1.44h12.08v11.52h-2.68c2 1.04 3.88 2.24 5.16 3.2l-2.92 2.44c-.48-.4-1.04-.88-1.68-1.32l-2.92.08v1.6h8.92Zm9.32-17.64v4.72h-4.68v-9.04h14.48c-.28-.76-.64-1.52-.96-2.12l5.04-1.44c.64 1.08 1.32 2.4 1.72 3.56h14.24v9.04h-4.88V61.6H69.52Zm23.4 6.84 3.96 3.16c-1.6 1.24-3.4 2.52-5.16 3.72 1.56 4.72 4.76 8.68 9.36 10.52-1.08.88-2.48 2.72-3.16 3.88-4.8-2.28-7.96-6.56-9.92-12-.4.28-.84.52-1.24.76 1.12 4.8.16 9.4-1.88 11.08-1.4 1.44-2.68 1.84-4.76 1.88-.88.04-2.08 0-3.24-.04-.08-1.32-.48-3.2-1.28-4.52 1.4.16 2.68.2 3.6.2.96 0 1.6-.12 2.16-.96.68-.64 1.16-2.12 1.16-4.04-4.56 3.12-10.84 6.08-16.16 7.68-.52-1.16-1.56-2.88-2.48-3.96 6.32-1.36 14-4.8 17.96-8.16-.16-.48-.36-1-.6-1.52-4 2.52-9.84 5.12-14.4 6.52-.52-1.08-1.52-2.68-2.36-3.68 4.92-1.04 11.48-3.56 14.96-5.88-.36-.44-.72-.88-1.12-1.32-3.48 1.84-7.36 3.2-11.12 4.2-.44-.92-1.64-2.8-2.4-3.72 4.52-.92 9.24-2.44 12.84-4.4h-6.88V63.8h22.36v4.04h-8.88c-.72.64-1.52 1.28-2.4 1.84 1.56 1.44 2.72 3.12 3.52 4.84 2.76-1.88 5.64-4.12 7.56-6.08ZM6.364 11.214a.354.354 0 0 0-.109-.264c-.036-.07-.109-.106-.217-.106-1.632 0-3.028-.494-4.189-1.481C.69 8.375.11 7.053.11 5.395c0-1.586.58-2.874 1.74-3.861C3.046.511 4.515 0 6.255 0 8.431 0 10.1.723 11.26 2.169 12.42 3.615 13 5.607 13 8.146c0 2.75-.798 5.237-2.393 7.458-1.56 2.258-3.79 3.985-6.69 5.184A2.851 2.851 0 0 1 2.882 21a2.58 2.58 0 0 1-1.142-.265 2.748 2.748 0 0 1-1.578-1.64 2.477 2.477 0 0 1 .109-2.01c.326-.67.852-1.18 1.577-1.533 2.466-1.129 3.971-2.575 4.515-4.338Z"/></g><defs><clipPath id="a"><path fill="#fff" d="M-1113-312H327v3327h-1440z"/></clipPath></defs></svg>