<svg width="13" height="21" viewBox="0 0 13 21" fill="none" xmlns="http://www.w3.org/2000/svg">
<rect width="13" height="21" fill="#DFDFDF"/>
<g clip-path="url(#clip0_0_1)">
<rect width="1440" height="3327" transform="translate(-1113 -312)" fill="white"/>
<rect x="-1113" y="-232" width="1440" height="2512" fill="#FEE3C5" fill-opacity="0.1"/>
<path d="M-127.88 20.52H-108.44C-112.12 17.92 -115.44 14.84 -118.04 11.76C-120.68 14.84 -124.24 17.96 -127.88 20.52ZM-115.64 33.4V38.24H-100.84V42.48H-134.88V38.24H-120.6V33.4H-130.96V29.28H-120.6V24.72H-129V21.28C-130.72 22.44 -132.44 23.44 -134.08 24.28C-134.76 23.12 -135.92 21.48 -137 20.44C-132.56 18.64 -127.6 15.32 -123.84 11.76H-129.16V7.36H-115.48C-112.04 12.4 -105.64 17.44 -98.84 19.92C-99.84 20.96 -101.32 22.92 -102.04 24.28C-103.76 23.48 -105.44 22.52 -107.08 21.44V24.72H-115.64V29.28H-105.16V33.4H-115.64ZM-60.12 17.16H-80.4C-80.52 18.76 -80.6 20.36 -80.8 22H-63.64C-63.64 22 -63.68 23.44 -63.8 24.08C-64.52 34.92 -65.36 39.36 -67 41.08C-68.2 42.4 -69.48 42.8 -71.28 42.96C-72.84 43.12 -75.48 43.12 -78.2 43C-78.28 41.6 -78.96 39.6 -79.88 38.32C-77.16 38.56 -74.36 38.6 -73.16 38.6C-72.28 38.6 -71.76 38.52 -71.2 38.08C-70.16 37.16 -69.44 33.76 -68.88 26.6H-81.48C-82.84 33.28 -85.8 39.52 -93 43.64C-93.72 42.36 -95.2 40.72 -96.48 39.72C-86.88 34.6 -86.12 25.6 -85.72 17.16H-95.8V12.52H-78.92C-79.56 10.96 -80.52 8.96 -81.32 7.36L-76.64 5.6C-75.56 7.4 -74.36 9.8 -73.76 11.32L-76.52 12.52H-60.12V17.16ZM-43.48 12.84H-34.12C-34.4 11.12 -35.2 8.56 -35.88 6.68L-31.36 5.56C-30.56 7.48 -29.76 10 -29.32 11.64L-33.52 12.84H-21.2V17.44H-43.48V12.84ZM-34.08 34.88L-38.76 36.2C-39.08 32.04 -40.04 25.04 -41.12 19.68L-36.8 18.72C-35.6 23.96 -34.48 30.84 -34.08 34.88ZM-47.6 6.28L-43.12 7.68C-44.16 10.4 -45.4 13.16 -46.84 15.76V43.4H-51.64V23.24C-52.48 24.28 -53.32 25.28 -54.16 26.2C-54.6 25 -55.92 22.4 -56.72 21.24C-53.12 17.64 -49.64 11.96 -47.6 6.28ZM-26.64 37.32H-19.84V41.92H-44.92V37.32H-31C-29.64 32.12 -28.28 24.36 -27.72 18.6L-22.76 19.36C-23.76 25.36 -25.24 32.32 -26.64 37.32ZM-104.16 55.76L-100.08 57.12C-101.44 58.68 -102.8 60.28 -103.84 61.32L-106.72 60.16C-105.8 58.92 -104.72 57.08 -104.16 55.76ZM-121.52 61.12L-124.28 60.04C-123.4 58.84 -122.36 57.08 -121.8 55.88L-118.72 56.88L-115.88 54.76C-114.8 55.92 -113.36 57.48 -112.68 58.48L-115.64 60.88C-116.2 59.96 -117.32 58.56 -118.24 57.4C-119.44 58.84 -120.64 60.24 -121.52 61.12ZM-129.56 58.56L-132.56 60.92C-133.2 59.88 -134.56 58.16 -135.64 56.96L-132.8 54.84C-131.72 56 -130.24 57.56 -129.56 58.56ZM-108.12 87.2V84.92H-127.2V87.2H-108.12ZM-124.44 75V77.12H-111.92V75H-124.44ZM-117.52 80L-118.44 81.64H-103.4V91.48H-108.12V90.56H-127.2V91.52H-131.68V81.64H-122.48C-122.28 81.12 -122.04 80.56 -121.84 80H-128.84V72.08H-107.24V80H-117.52ZM-115.36 67.04H-104.44C-105.96 66.04 -108.04 64.88 -109.96 63.88C-111.12 65.16 -112.88 66.24 -115.36 67.04ZM-111.32 54.12H-107.04C-107.16 56.64 -107.4 58.72 -108 60.52C-105.4 61.76 -102.16 63.48 -100.36 64.64L-102.44 67.04H-100.84V74.72H-105.6V70.64H-130.56V74.72H-135.12V67.04H-134.4C-134.88 66.08 -135.72 65 -136.36 64.36C-129.52 62.76 -128.68 59.88 -128.36 54.12H-124.24C-124.36 56.68 -124.64 58.8 -125.24 60.64C-123.24 61.72 -120.92 63.16 -119.56 64.08L-122.48 67C-123.48 66.16 -125.32 64.96 -127.04 63.88C-128.2 65.12 -129.76 66.2 -132 67.04H-117.2C-117.68 66 -118.56 64.72 -119.32 64.04C-112.36 62.52 -111.6 59.84 -111.32 54.12ZM-86.76 74.24H-69C-70.16 73.16 -71.24 72.04 -72.2 70.84V72.88H-83.8V71.08C-84.68 72.2 -85.72 73.28 -86.76 74.24ZM-67.12 83.96H-76.32C-74.44 84.44 -72.32 85.04 -70.16 85.68C-69.16 85.16 -68.12 84.56 -67.12 83.96ZM-78.84 85.32V85.96L-77.4 83.96H-84.88V86.4L-78.84 85.32ZM-84.88 80.16V81.44H-71.8V80.16H-84.88ZM-84.88 76.76V78H-71.8V76.76H-84.88ZM-73.24 69.44H-82.56C-82.84 69.84 -83.12 70.24 -83.4 70.6H-72.4C-72.68 70.2 -73 69.8 -73.24 69.44ZM-60.32 69.44H-68.16C-65.76 71.8 -62.48 73.68 -59 74.76C-60.04 75.68 -61.36 77.36 -62.04 78.48C-63.8 77.84 -65.44 76.92 -67 75.84V83.92C-65.92 83.28 -64.96 82.64 -64.16 82.04L-61.08 84.48C-62.64 85.32 -64.4 86.16 -66.04 86.92C-64.16 87.52 -62.48 88.08 -61.16 88.56L-63.16 91.76C-66.68 90.36 -73.64 88.08 -78.8 86.64C-78.72 87.48 -78.64 88.28 -78.52 88.84C-87.56 90.72 -88.96 91.12 -89.88 91.68C-90.2 90.6 -91.12 88.68 -91.84 87.88C-91 87.4 -90.08 86.44 -90.08 84.64V76.88C-91.32 77.72 -92.56 78.44 -93.84 79.08C-94.52 78.16 -96.08 76.44 -97.12 75.6C-93.64 74.24 -90.32 72.04 -88.04 69.44H-95.64V66.28H-80.52V64.92H-91.68V62.08H-80.52V60.76H-93.56V57.68H-87.16C-87.6 56.92 -88.08 56.12 -88.52 55.48L-84.24 54.16C-83.4 55.24 -82.52 56.64 -81.96 57.68H-73.72C-73.08 56.52 -72.36 55.12 -72 54.08L-66.72 55.12C-67.4 56.04 -68.04 56.92 -68.68 57.68H-62.44V60.76H-75.6V62.08H-64.32V64.92H-75.6V66.28H-60.32V69.44ZM-46.44 59.8H-50.32V65H-46.44V59.8ZM-50.32 74.96H-46.44V69.16H-50.32V74.96ZM-35.24 72.48V76.76H-26.28V72.48H-35.24ZM-50.32 79.2V81.08H-54.8V55.64H-42.08V65.52C-37.56 64.28 -35.96 62.36 -35.24 59.68H-40.92V55.52H-20.32C-20.32 55.52 -20.36 56.56 -20.4 57.12C-20.72 62.56 -21.08 65.08 -22 66.08C-22.76 66.92 -23.68 67.24 -24.76 67.36C-25.76 67.48 -27.56 67.52 -29.36 67.44C-29.44 66.24 -29.88 64.68 -30.52 63.64C-29 63.76 -27.68 63.8 -27.04 63.8C-26.48 63.8 -26.16 63.72 -25.84 63.4C-25.48 63.04 -25.24 61.96 -25.04 59.68H-30.56C-31.4 63.84 -33.32 66.8 -38.68 68.68H-21.56V80.6H-39.72V69L-39.8 69.04C-40.2 68.04 -41.16 66.6 -42.08 65.72V79.2H-50.32ZM-52 91.68L-56.6 89.68C-54.96 87.72 -52.92 84.4 -51.68 81.44L-47.08 82.72C-48.4 85.76 -50.32 89.32 -52 91.68ZM-45.04 82.96L-40.64 82.44C-40.12 85.08 -39.64 88.48 -39.6 90.6L-44.28 91.32C-44.28 89.24 -44.6 85.68 -45.04 82.96ZM-36.6 82.88L-32.12 82.08C-31.12 84.64 -30.12 88 -29.76 90.2L-34.52 91.16C-34.76 89.08 -35.68 85.56 -36.6 82.88ZM-28.36 82.84L-24.04 81.16C-22.4 83.72 -20.32 87.24 -19.4 89.52L-24 91.48C-24.8 89.24 -26.72 85.56 -28.36 82.84ZM8.6 67.76V66.4H4.4V67.76H8.6ZM8.6 71.48V70.12H4.4V71.48H8.6ZM8.6 75.28V73.84H4.4V75.28H8.6ZM3.76 61.28V59.6H-1.76V56.08H3.76V54.12H7.92V61.48H4.48L5.44 61.76C5.2 62.36 4.96 63 4.68 63.56H8.2C8 62.92 7.8 62.24 7.6 61.68L10.92 60.88V54.12H15.12V56.04H20.4V59.56H15.12V61.48H12.12C12.4 62.16 12.64 62.88 12.84 63.56H19.4V66.4H12.56V67.76H18.32V70.12H12.56V71.48H18.32V73.84H12.56V75.28H20.2V78.04H4.4V78.64H0.48V70.48C0.0400014 71 -0.44 71.52 -0.919999 72C-1.32 71.2 -2.44 69.52 -3.16 68.64V69.88H-14.96V66.28H-3.16V68.36C-1.12 66.44 0.640001 63.6 1.64 60.64L3.76 61.28ZM-14.96 75.24V71.64H-3.16V75.24H-14.96ZM-1.8 60.72V64.48H-16.68V60.72H-9.96C-10.56 59.2 -11.56 57.2 -12.48 55.68L-8.92 53.96C-7.84 55.6 -6.64 57.8 -6 59.28L-8.6 60.72H-1.8ZM12.6 82.44H6.4C7.16 83.24 8.16 83.96 9.32 84.56C10.56 83.96 11.64 83.24 12.6 82.44ZM-6.96 85.44V80.96H-11.16V85.44H-6.96ZM16.4 79.08L19.2 80.4C17.88 82.8 16.04 84.72 13.72 86.36C15.96 87 18.48 87.44 21.12 87.68C20.2 88.6 19.04 90.36 18.52 91.44C15 90.96 11.88 90.08 9.2 88.8C6.12 90.08 2.64 90.96 -1.04 91.52C-1.36 90.48 -2.24 88.8 -3 87.84V89.28H-11.16V90.96H-15.04V77.16H-3V87.8C-0.199999 87.48 2.6 86.96 5.04 86.2C3.84 85.24 2.8 84.16 1.88 82.92L3.4 82.44H-0.959999V79.24H15.68L16.4 79.08ZM44.24 73.24V74.64L49.28 74.6C48.72 74.36 48.16 74.08 47.64 73.88L48.44 73.24H44.24ZM32.52 70.32H39.6V68.8H32.52V70.32ZM32.52 64.6V66.08H39.6V64.6H32.52ZM51.68 64.6H44.24V66.08H51.68V64.6ZM44.24 70.32H51.68V68.8H44.24V70.32ZM60.2 79.24V83H51.28V86.88C51.28 89.08 50.88 90.2 49.24 90.84C47.64 91.44 45.4 91.48 42.36 91.48C42.16 90.2 41.56 88.52 41 87.32C42.92 87.4 45.2 87.4 45.84 87.4C46.48 87.36 46.68 87.24 46.68 86.72V83H35.4C37.08 84.2 38.76 85.6 39.68 86.68L36.16 89.72C35 88.16 32.32 85.88 30.16 84.4L31.84 83H23.84V79.24H46.68V77.76C38.8 77.92 31.24 78.04 25.64 78.08L25.52 74.68C29.28 74.72 34.2 74.68 39.6 74.68V73.24H28.08V61.72H39.6V60.28H24.92V56.68H39.6V54.16H44.24V56.68H58.84V60.28H44.24V61.72H56.32V73.24H53.64C55.64 74.28 57.52 75.48 58.8 76.44L55.88 78.88C55.4 78.48 54.84 78 54.2 77.56L51.28 77.64V79.24H60.2ZM69.52 61.6V66.32H64.84V57.28H79.32C79.04 56.52 78.68 55.76 78.36 55.16L83.4 53.72C84.04 54.8 84.72 56.12 85.12 57.28H99.36V66.32H94.48V61.6H69.52ZM92.92 68.44L96.88 71.6C95.28 72.84 93.48 74.12 91.72 75.32C93.28 80.04 96.48 84 101.08 85.84C100 86.72 98.6 88.56 97.92 89.72C93.12 87.44 89.96 83.16 88 77.72C87.6 78 87.16 78.24 86.76 78.48C87.88 83.28 86.92 87.88 84.88 89.56C83.48 91 82.2 91.4 80.12 91.44C79.24 91.48 78.04 91.44 76.88 91.4C76.8 90.08 76.4 88.2 75.6 86.88C77 87.04 78.28 87.08 79.2 87.08C80.16 87.08 80.8 86.96 81.36 86.12C82.04 85.48 82.52 84 82.52 82.08C77.96 85.2 71.68 88.16 66.36 89.76C65.84 88.6 64.8 86.88 63.88 85.8C70.2 84.44 77.88 81 81.84 77.64C81.68 77.16 81.48 76.64 81.24 76.12C77.24 78.64 71.4 81.24 66.84 82.64C66.32 81.56 65.32 79.96 64.48 78.96C69.4 77.92 75.96 75.4 79.44 73.08C79.08 72.64 78.72 72.2 78.32 71.76C74.84 73.6 70.96 74.96 67.2 75.96C66.76 75.04 65.56 73.16 64.8 72.24C69.32 71.32 74.04 69.8 77.64 67.84H70.76V63.8H93.12V67.84H84.24C83.52 68.48 82.72 69.12 81.84 69.68C83.4 71.12 84.56 72.8 85.36 74.52C88.12 72.64 91 70.4 92.92 68.44Z" fill="#C7594D"/>
<path d="M6.36402 11.2141C6.36402 11.1083 6.32775 11.0202 6.25523 10.9496C6.21897 10.8791 6.14644 10.8438 6.03766 10.8438C4.40586 10.8438 3.00976 10.3501 1.84937 9.36272C0.688982 8.37531 0.108787 7.0529 0.108787 5.39547C0.108787 3.80856 0.688982 2.52141 1.84937 1.53401C3.04603 0.511335 4.51464 0 6.25523 0C8.43096 0 10.099 0.722922 11.2594 2.16877C12.4198 3.61461 13 5.60705 13 8.1461C13 10.8967 12.2022 13.3829 10.6067 15.6045C9.04742 17.8615 6.81729 19.5894 3.91632 20.7884C3.5537 20.9295 3.2092 21 2.88285 21C2.48396 21 2.10321 20.9118 1.74059 20.7355C0.979079 20.4181 0.453278 19.8715 0.16318 19.0957C0.0543933 18.8136 0 18.5139 0 18.1965C0 17.8086 0.0906555 17.4383 0.271967 17.0856C0.598326 16.4156 1.12413 15.9043 1.84937 15.5516C4.3152 14.4232 5.82008 12.9773 6.36402 11.2141Z" fill="#C7594D"/>
</g>
<defs>
<clipPath id="clip0_0_1">
<rect width="1440" height="3327" fill="white" transform="translate(-1113 -312)"/>
</clipPath>
</defs>
</svg>
