<svg width="56" height="56" fill="none" xmlns="http://www.w3.org/2000/svg"><rect width="56" height="56" rx="28" fill="#C7594D"/><path d="M39.314 16.686A15.895 15.895 0 0 0 28 12a15.895 15.895 0 0 0-11.314 4.686A15.895 15.895 0 0 0 12 28c0 4.274 1.664 8.292 4.686 11.314A15.895 15.895 0 0 0 28 44c4.274 0 8.292-1.664 11.314-4.686A15.895 15.895 0 0 0 44 28c0-4.274-1.664-8.292-4.686-11.314ZM28 42.125c-7.789 0-14.125-6.336-14.125-14.125S20.211 13.875 28 13.875 42.125 20.211 42.125 28 35.789 42.125 28 42.125Z" fill="#fff"/><path d="M33.708 19.531H22.292a2.764 2.764 0 0 0-2.76 2.76v11.417a2.764 2.764 0 0 0 2.76 2.76h11.416a2.764 2.764 0 0 0 2.76-2.76V22.292a2.764 2.764 0 0 0-2.76-2.76Zm.886 14.177a.886.886 0 0 1-.886.886H22.292a.886.886 0 0 1-.886-.886V22.292c0-.489.397-.886.886-.886h11.416c.489 0 .886.397.886.886v11.416Z" fill="#fff"/><path d="M31.429 30.28c-.99 1.999-4.229 2.838-6.084-.103" stroke="#fff" stroke-linecap="round"/></svg>