<svg width="56" height="56" fill="none" xmlns="http://www.w3.org/2000/svg"><rect width="56" height="56" rx="28" fill="#C7594D"/><path d="M24.248 27.125a.937.937 0 1 0 0-1.875.937.937 0 0 0 0 1.875ZM31.748 27.125a.937.937 0 1 0 0-1.875.937.937 0 0 0 0 1.875Z" fill="#fff"/><path d="M37.962 34.287c-1.351-2.373-1.525-5.32-1.525-7.623v-.602c0-1.97-.68-3.786-1.816-5.224a3.747 3.747 0 0 0 1.816-3.213c0-2.45-2.318-4.216-4.619-3.643A4.693 4.693 0 0 0 28 12a4.693 4.693 0 0 0-3.818 1.982c-2.304-.574-4.62 1.195-4.62 3.643 0 1.334.702 2.541 1.817 3.213a8.397 8.397 0 0 0-1.817 5.224v.602c0 2.303-.173 5.25-1.524 7.623-.644 1.13-.46 2.562 1.05 3.733.61.473 1.398.882 2.35 1.222v.07A4.693 4.693 0 0 0 26.125 44c.647 0 1.276-.136 1.875-.405.6.27 1.228.405 1.875.405a4.693 4.693 0 0 0 4.688-4.688v-.07c.951-.34 1.74-.75 2.349-1.222 1.51-1.171 1.694-2.603 1.05-3.733ZM24.165 15.968a.938.938 0 0 0 1.283-.443A2.818 2.818 0 0 1 28 13.875c1.093 0 2.095.648 2.552 1.65a.938.938 0 0 0 1.283.443c1.3-.671 2.727.307 2.727 1.657 0 .856-.562 1.578-1.355 1.803A8.396 8.396 0 0 0 28 17.625a8.396 8.396 0 0 0-5.207 1.803 1.864 1.864 0 0 1-1.355-1.803c0-1.347 1.424-2.33 2.727-1.657Zm5.71 26.157c-.483 0-.956-.132-1.403-.393a.938.938 0 0 0-.944 0c-.447.26-.92.393-1.403.393a2.816 2.816 0 0 1-2.813-2.813c0-.742 0-.771 1.85-3.829.166-.274.346-.57.54-.893l1.635 1.635a.937.937 0 0 0 1.326 0l1.635-1.635.54.893c1.85 3.058 1.85 3.087 1.85 3.83a2.816 2.816 0 0 1-2.813 2.812Zm-4.3-10.313L28 29.389l2.424 2.424L28 34.237l-2.424-2.425Zm8.547 5.593c-.386-.783-1.097-1.921-2.458-4.18l.749-.75a.937.937 0 0 0 0-1.325l-3.75-3.75a.937.937 0 0 0-1.326 0l-3.75 3.75a.937.937 0 0 0 0 1.325l.749.75c-1.34 2.223-2.07 3.391-2.458 4.18-1.584-.604-2.316-1.348-2.316-1.843a.7.7 0 0 1 .105-.347c1.57-2.755 1.77-6.017 1.77-8.55v-.602A6.57 6.57 0 0 1 28 19.5a6.57 6.57 0 0 1 6.563 6.563v.601c0 2.534.2 5.796 1.77 8.55.07.124.105.238.105.348 0 .495-.732 1.239-2.316 1.843Z" fill="#fff"/></svg>