<svg width="56" height="56" fill="none" xmlns="http://www.w3.org/2000/svg"><rect width="56" height="56" rx="28" fill="#C7594D"/><path d="M36.004 24.444a.937.937 0 1 0 0 1.875.937.937 0 0 0 0-1.875Z" fill="#fff"/><path d="M43.987 30.859c-1.093-7.121-4.87-12.545-11.942-13.915-.489-.953-1.396-2.354-2.886-3.42-2.645-1.895-5.821-1.862-8.93-.778-.932.326-.81 1.623.11 1.809 2.21.497 3.139 1.604 3.675 2.568-1.89.422-3.04.939-4.362 1.812-6.63 4.376-8.524 10.31-7.302 15.292v.001c1.432 5.833 7.42 9.486 7.675 9.638a.939.939 0 0 0 .49.134c.263 0 1.911-.056 3.056-1.404 1.011-1.19 1.3-2.964.855-5.27a.94.94 0 0 0-1.298-.681 8.828 8.828 0 0 1-3.467.606c-2.279-.086-4.07-1.183-5.331-3.263.325-.565 1.007-1.614 2.028-2.505 1.863-1.625 3.984-1.997 6.307-1.105.198.079 3.308 1.298 7.374 2.108 4.175.832 9.144 1.205 13.077-.48.327-.14.56-.221.735-.497a.937.937 0 0 0 .136-.65Zm-21.254 7.89c.087 1.16-.108 2.053-.578 2.619-.449.54-1.07.695-1.401.74-.636-.421-2.44-1.697-4.035-3.593 1.906.785 4.04.77 6.014.235Zm9.99-7.714c-.804-1.505-2.1-4.542-1.305-7.341.452-1.597 1.552-2.923 3.271-3.947 4.274 1.985 6.448 6.017 7.322 10.685-2.828 1.085-6.298 1.01-9.288.603Zm-3.046-14.383a20.615 20.615 0 0 0-3.729.134c-.393-.82-1.02-1.967-2.362-2.881 3.144-.26 5.03 1.29 6.091 2.747Zm-6.324 11.983c-3.303-1.321-6.768-.536-9.452 2.698.026-2.8 1.158-7.12 6.784-10.834.669-.442 1.23-.743 1.817-.976 1.404-.555 3.157-.863 4.657-.975 1.797-.132 3.635-.021 5.352.423-3.726 2.94-3.93 7.327-2.049 11.684-3.955-.785-7.048-1.996-7.11-2.02Z" fill="#fff"/></svg>