<svg width="467" height="333" fill="none" xmlns="http://www.w3.org/2000/svg"><path d="M413.448 253.762c-.027.058-.05.117-.069.177-.157.355-.531 1.24-1.102 2.588-.384.984-.876 2.116-1.437 3.484-.561 1.368-1.161 2.785-1.84 4.428-.797 1.968-1.693 4.133-2.657 6.515l-.462 1.141a.118.118 0 0 0 0 .059c-.109.266-.217.532-.335.797-6.997 17.31-17.221 43.456-24.601 66.07h-60.333c9.841-31.903 25.074-73.135 29.748-85.613.522-1.397.906-2.431 1.142-3.051l.265-.698 9.014.6 7.332.492 12.91.856 10.412.699 13.511.895 3.306.227h.059l5.137.334Z" fill="#666"/><path d="M403.991 260.168v.099a846.71 846.71 0 0 0-4.29 10.096 618.104 618.104 0 0 0-3.336 8.03 1165.897 1165.897 0 0 0-8.748 21.836 1141.841 1141.841 0 0 0-12.714 34.068c-.237.63-.453 1.259-.679 1.889l-.325.915c-.118.335-.236.67-.345.984-.108.315-.216.611-.315.916h-1.121c.482-1.378.984-2.756 1.466-4.124.108-.334.236-.679.354-.984l.679-1.899c.089-.246.177-.502.276-.748a1097.048 1097.048 0 0 1 20.33-52.45c1.312-3.07 2.624-6.13 3.936-9.181 1.378-3.208 2.769-6.413 4.173-9.614a.383.383 0 0 1 .669-.049.315.315 0 0 1-.01.216Z" fill="#000"/><path d="M435.038 310.286s-.177 12.793-.344 28.715h-60.815V333.864c.226-19.012.502-35.111.551-38.191v-.531l-.246-.099-6.514-2.578c-.411-.3-.799-.629-1.162-.984a17.828 17.828 0 0 1-1.121-1.24 40.477 40.477 0 0 1-5.245-9.349 86.383 86.383 0 0 1-1.86-4.723 142.863 142.863 0 0 1-4.527-15.341c-.62-2.687-1.122-5.157-1.456-7.204a49.233 49.233 0 0 1-.443-3.218c0-.262-.02-.508-.059-.738l8.984.591 7.332.492 12.91.856 10.412.699 13.511.895 3.306.217h.059l5.147.344 19.73 1.319s.089.315.236.895l.207.827c.138.531.295 1.191.472 1.968.256 1.102.551 2.421.856 3.936.005.059.005.118 0 .177 2.372 11.396 5.531 32.927.079 47.402Z" fill="#666"/><path d="M365.82 291.235a139.852 139.852 0 0 1 18.51 8.06c.226.118.049.393-.197.295-6.249-2.539-12.626-4.999-18.697-7.794-.482-.207-.118-.728.384-.561ZM366.036 257.344c0-.167.423-.187.404 0a128.152 128.152 0 0 0 0 16.513c.128 2.548 1.84 16.729 7.616 16.089.984-.108 1.496-.797 1.722-1.899.276-1.319-.275-2.952-.472-4.34a88.614 88.614 0 0 1-.876-8.935 62.018 62.018 0 0 1 1.338-16.552c0-.177.374-.138.365 0a117.253 117.253 0 0 0 .216 22.988c.463 3.69 2.48 9.329-2.499 9.565-4.98.236-7.725-9.172-8.168-11.72a65.06 65.06 0 0 1 .354-21.709Z" fill="#000"/><path d="M373.859 290.31c.437.955.799 1.942 1.083 2.952.316.766.444 1.596.374 2.421 0 .158-.295.148-.394 0a7.612 7.612 0 0 1-1.171-2.411c-.374-.925-.777-1.85-1.112-2.785-.226-.541.935-.777 1.22-.177Z" fill="#000"/><path d="M374.922 339.021h-1.348v-8.384c.039-5.583.082-11.16.128-16.729 0-5.275.079-12.862.472-18.314v-.669a.188.188 0 0 1 0-.128.206.206 0 0 1 .354.148V295.801c.384 6.121.079 14.338.099 20.272 0 5.058.023 10.116.069 15.174v3.483c.216 1.427.216 2.854.226 4.291ZM424.223 283.786c-5.629-1.132-11.641-2.264-15.194-7.253a21.002 21.002 0 0 1-3.257-7.744c-.699-3.12-.817-6.348-1.505-9.447a.11.11 0 0 0-.109-.109.11.11 0 0 0-.108.109c-.42 3.441-.25 6.928.502 10.313a20.252 20.252 0 0 0 3.474 7.872c3.828 5.038 10.175 6.19 16.138 6.524.167.03.217-.226.059-.265ZM431.633 294.64a60.898 60.898 0 0 1-2.795 11.503c-2.263 7.135-2.302 14.436-2.361 21.846l-.089 11.031h-.984c0-5.313.079-10.637.167-15.951.013-3.477.263-6.949.748-10.392a66.176 66.176 0 0 1 2.746-10.066c2.273-7.096 2.391-14.643 2.066-22.024-.2-4.505-.647-8.995-1.338-13.452a114.35 114.35 0 0 0-.896-5.146 46.269 46.269 0 0 0-.423-2.077 43.062 43.062 0 0 0-.226-1.102c-.079-.364.354-.364.413-.098l.236.984c.187.797.365 1.584.542 2.381.334 1.555.629 3.11.895 4.675a129.198 129.198 0 0 1 1.644 15.626c.213 4.09.098 8.19-.345 12.262Z" fill="#000"/><path d="M381.033 167.972c-6.357 11.15-31.844 51.171-48.563 57.164-11.258 4.025-51.515-9.083-60.765-14.662-3.789-2.293 10.519-33.035 15.223-32.631 5.127.442 34.757 14.062 38.211 13.314 3.454-.748 28.537-20.508 44.115-29.984 9.348-5.678 15.351.521 11.779 6.799Z" fill="#FFD3C9"/><path d="M282.982 215.483c-7.607-1.633-31.746-13.481-35.977-16.867-4.231-3.385-15.745-14.042-13.442-17.545 2.303-3.503 5.904-.66 5.904-.66s-4.605-5.687-1.525-8.581c2.46-2.302 7.744 1.437 7.744 1.437s-4.713-6.504-1.299-8.974c3.12-2.254 7.804 3.217 7.804 3.217s-3.395-5.845 0-7.439c4.113-1.919 9.998 8.197 14.958 11.592 1.121.768 32.296 10.421 32.296 10.421l-16.463 33.399Z" fill="#FFD3C9"/><path d="M252.27 167.166c5.176 7.124 7.528 9.919 15.046 13.776.148.079.069.315-.089.246-7.715-3.149-10.736-6.268-15.331-13.875-.217-.324.128-.482.374-.147ZM245.745 173.247c5.186 7.321 8.67 9.841 16.247 14.515.108.059 0 .246-.108.197-7.814-3.937-12.193-6.603-16.414-14.604-.197-.354.039-.443.275-.108ZM239.821 180.647c5.531 6.721 9.162 9.89 17.103 13.472a.158.158 0 1 1-.118.295c-8.443-2.864-13.009-6.78-17.172-13.58-.285-.443-.167-.61.187-.187Z" fill="#000"/><path d="M299.435 182.084s-8.177-6.101-11.907-9.201c-3.729-3.1-13.088-13.275-17.152-12.36-4.566 1.034.64 12.498 7.263 18.058 0 0-5.59 13.058.521 18.697 1.329 1.23 10.047 4.379 11.986 3.66l9.289-18.854Z" fill="#FFD3C9"/><path d="M278.121 179.407c-2.352 5.009-3.405 12.232-.423 16.867.021.027.03.062.025.096a.134.134 0 0 1-.05.086.127.127 0 0 1-.096.025.126.126 0 0 1-.086-.05c-3.867-4.546-2.726-12.91-.354-17.26.452-.856 1.584-1.082.984.236Z" fill="#000"/><path d="m299.435 182.083-16.453 33.399a9.486 9.486 0 0 0 7.223 8.06c6.75 1.771 34.353 7.095 44.154 1.968 9.802-5.127 35.328-35.18 45.405-54.123 10.076-18.943-8.217-12.596-11.543-10.421-3.326 2.174-42.315 28.616-43.82 28.823-1.506.206-12.458-5.698-17.428-7.282-4.969-1.585-7.538-.424-7.538-.424Z" fill="#FFB445"/><path d="M319.235 227.626c6.13.157 11.71-.345 15.115-2.126 9.84-5.137 35.337-35.19 45.414-54.123a40.584 40.584 0 0 0 1.584-3.287l-62.113 59.536Z" fill="#000"/><path d="M439.84 263.249c.059-.099-90.769-9.988-90.769-9.988-.177-.374 11.199-72.004 21.492-90.464 3.483-6.259 14.584-10.274 24.463-1.86 26.816 22.82 44.745 102.4 44.814 102.312Z" fill="#FFB445"/><path opacity=".1" d="M438.344 257.216c-.059-.246-.128-.502-.187-.758l-3.395-.344-1.328-.138-20.035-2.037-5.078-.521h-.059l-3.346-.345-13.678-1.387-10.776-1.102-11.562-1.171-6.712-.679-12.231-1.25c-.059.325-.109.64-.168.935-.059.295-.088.59-.137.866-.05.275-.089.59-.128.866l1.968.197h.325l8.128.826 7.429.758 14.633 1.486 10.264 1.072 13.688 1.398 6.367.639 18.648 1.9 3.168.324 4.753.483a33.79 33.79 0 0 1-.551-2.018Zm-2.243-8.472-.384-1.427-34.137-3.474-12.911-1.309-13.373-1.358-.531-.059-2.579-.266-20.753-2.105c-.177.925-.325 1.81-.473 2.666l17.625 1.791 4.271.433 4.034.414 12.429 1.289 13.285 1.348 33.89 3.444c-.128-.482-.265-.935-.393-1.387Zm-44.883 2.952-10.756-1.112.551.984.984 1.86 10.274 1.062c-.276-.738-.541-1.466-.797-2.194l-.256-.6Zm41.852-13.502-34.836-3.542-5.579-.571h-.335l-39.362-4.005c-.167.905-.335 1.771-.482 2.637l32.798 3.346 3.238.325 10.726 1.092 34.649 3.533c-.286-.955-.522-1.87-.817-2.824v.009Zm-2.391-7.774c0-.127-.079-.255-.128-.393a20.08 20.08 0 0 0-.315-.984L409 226.839l-5.747-.581-1.388-.138h-.364l-46.939-4.773c-.089.463-.167.916-.256 1.368-.088.453-.167.866-.246 1.289l45.267 4.596h.374l.984.098 3.532.355 26.934 2.745c-.167-.453-.315-.925-.502-1.387l.03.009Zm-3.523-10.598-2.579-.266-3.217-.324-1.103-.109-1.18-.127-.581-.059h-.276l-61.857-6.298c-.069.314-.128.62-.197.925l-.089.393c-.088.433-.177.876-.275 1.319l56.799 5.786 1.644.167 1.624.158 2.647.275 9.584.984a63.985 63.985 0 0 0-.944-2.834v.01Zm-3.336-9.22-10.087-.984-.767-.079-1.536-.158h-.373l-52.854-5.373c-.059.296-.128.591-.187.886 0 .148-.069.285-.098.433-.099.443-.197.876-.286 1.319l55.452 5.638.472.05 1.417.147.827.079 9.063.925a75.744 75.744 0 0 0-1.043-2.893v.01Zm-3.681-9.26-13.107-1.339-.846-.088-1.457-.148h-.167l-41.065-4.162-.62-.059-2.706-.276c0 .167-.079.325-.108.492-.167.699-.335 1.407-.492 2.126l1.437.147h.531l44.971 4.576h.197l1.535.158.797.078 12.252 1.25c-.374-.895-.758-1.82-1.152-2.765v.01Zm-21.708-8.375 1.703.168h.236c-.61-.984-1.22-1.968-1.811-2.893h-.305l-28.616-2.913c-.601.836-1.201 1.673-1.821 2.509l30.014 3.06.6.069Zm18.363.768a53.906 53.906 0 0 0-.768-1.683l-15.332-1.564-1.535-.158-.58-.059h-.305l-28.636-2.942-.886-.099-6.426-.649c-.059.197-.108.393-.167.6a66.89 66.89 0 0 0-.531 2.027l5.363.551.816.079 30.014 3.06.581.06 1.702.167h.236l.984.088 1.23.128 14.761 1.506a81.165 81.165 0 0 0-.521-1.122v.01Zm-5.511-11.041-16.483-1.683-1.683-.167-17.821-1.821-.984-.098-3.828-.384-5.747-.59c-.256.866-.521 1.722-.787 2.627l3.936.404 4.714.482.984.098 21.039 2.136 1.85.187 16.256 1.653c-.423-.974-.934-1.929-1.446-2.854v.01Zm-4.379-7.42a75.082 75.082 0 0 0-1.348-2.057l-15.745-1.594-1.043-.108-8.63-.876-.66-.088-.639-.069-11.169-1.132c-.325.827-.63 1.702-.984 2.618l9.643.984 1.653.167.817.089 11.15 1.131 1.151.118 16.325 1.654a9.155 9.155 0 0 0-.521-.847v.01Zm-8.729-11.415-.315-.325-7.783-.797-1.969-.187-.767-.078-4.596-.473-1.23-.128-9.594-.984-.384.463-.059.078c-.089.109-.167.227-.256.345a2.955 2.955 0 0 0-.216.325 5.594 5.594 0 0 0-.433.688 19.54 19.54 0 0 0-.345.64l.719.069 11.119 1.151h.433l2.382.246 2.273.227 1.545.157 11.808 1.201a56.56 56.56 0 0 0-2.332-2.618Z" fill="#000"/><path d="M399.986 163.407c23.509 11.739 67.467 48.484 66.424 59.899-1.968 21.049-53.336 44.568-62.98 50.187-4.123 2.371-18.805-34.964-14.446-37.601 3.799-2.293 31.49-12.625 31.392-16.434 0-1.564-14.958-19.927-27.672-42.078-9.791-17.004.315-17.447 7.282-13.973Z" fill="#FFD3C9"/><path d="M397.3 232.064s-4.094 2.283-15.273 4.694c-8.738 1.889-27.947 12.409-32.562 37.089-1.762 9.457 4.103 14.83 7.685 5.324 2.519-6.692 3.69-11.543 5.127-13.492 0 0 3.356 10.421 9.408 12.321a116.195 116.195 0 0 0 16.158 3.867c.385-.964.713-1.95.984-2.952a13.313 13.313 0 0 0 13.363-4.802l8.63-4.596-13.52-37.453Z" fill="#FFD3C9"/><path d="M375.05 240.743c-2.893 3.681-8.856 11.592-11.533 19.77-2.952 9.092-6.17 27.386.561 29.521 4.92 1.545 6.78-5.333 6.78-5.333s.266 7.872 5.019 8.266c4.339.374 5.451-5.029 5.451-5.029s.984 4.734 5.226 4.291c5.117-.522 2.224-10.352 6.947-15.351 1.053-1.171-18.451-36.135-18.451-36.135Z" fill="#FFD3C9"/><path d="M373.633 262.068c-2.145 3.936-4.753 14.042-2.952 22.495 0 .187.206.256.206.079a93.136 93.136 0 0 1 2.835-22.574h-.089ZM382.716 265.265c-1.506 3.563-3.72 14.131-1.565 22.634 0 .187.217.256.217.069a100.383 100.383 0 0 1 1.436-22.634s-.069-.118-.088-.069Z" fill="#000"/><path d="m397.3 232.064 13.53 37.443s9.349 4.261 15.804-.089c6.456-4.349 42.787-34.491 40.238-47.697-2.548-13.206-44.095-46.929-62.123-56.789-18.028-9.861-22.131-4.98-12.793 13.55 9.339 18.53 27.199 40.858 27.17 41.33-.03.473-10.392 2.401-14.161 4.084-3.768 1.683-7.665 8.168-7.665 8.168Z" fill="#FFB445"/><path d="M396.837 191.216c1.319 1.476 2.736 2.883 4.172 4.26.65.63 1.309 1.25 1.969 1.89-2.441-3.651-4.852-7.312-7.155-11.031-.078-.118.119-.237.197-.128a398.337 398.337 0 0 1 12.34 16.729c3.966 5.668 8.109 11.06 11.307 17.083.098.177-.157.325-.275.177-4.626-5.156-8.365-11.09-12.311-16.729-.984-1.387-1.889-2.795-2.834-4.202a31.154 31.154 0 0 1-1.565-1.23 27.8 27.8 0 0 1-2.125-2.037 60.09 60.09 0 0 1-3.877-4.615c-.109-.108.059-.246.157-.167Z" fill="#000"/><path d="M397.093 231.906a24.118 24.118 0 0 1 6.268-7.39c2.687-1.968 6.003-2.686 9.191-3.473a125.639 125.639 0 0 1 10.776-2.146c.245-.175.517-.308.807-.393.344-.148.708-.266 1.072-.384a25.99 25.99 0 0 1 4.31-1.063.072.072 0 0 1 .032.025.069.069 0 0 1-.032.103 49.824 49.824 0 0 0-3.099.856 33.88 33.88 0 0 0-1.595.512l-.649.236c3.188-.462 6.406-.797 9.624-.984.138 0 .177.187 0 .207-6.751.984-13.452 2.194-20.075 3.828-3.286.807-6.888 1.436-9.594 3.641a83.762 83.762 0 0 0-6.889 6.593c-.049.147-.216-.04-.147-.168Z" fill="#000"/><path d="M389.388 161.202c-.787 1.447-10.923 9.457-17.89 7.184-2.273-.738 1.23-13.314 1.23-13.314l.049-.984.659-13.826 20.557-6.298s-4.28 26.628-4.605 27.238Z" fill="#FFD3C9"/><path d="m373.436 140.271-.659 13.777-.049.984s-.63 2.273-1.181 4.92c10.018 1.211 16.414-4.812 19.681-9.27 1.279-7.685 2.736-16.787 2.736-16.787l-20.528 6.376Z" fill="#000"/><path d="M356.333 113.564c-11.808 27.19 3.159 37.325 9.024 39.864 5.334 2.303 23.755 9.467 38.299-16.355 14.545-25.821 5.629-39.913-6.268-45.827-11.897-5.914-29.256-4.881-41.055 22.318Z" fill="#FFD3C9"/><path d="M362.149 119.311c-2.952-1.171-5.048 4.733-2.352 5.826 2.697 1.092 4.793-4.842 2.352-5.826ZM360.84 114.46c.67.128 1.347.216 2.027.265a3.332 3.332 0 0 0 2.126-.118 1.052 1.052 0 0 0 .423-1.22 2.597 2.597 0 0 0-2.224-1.427 3.816 3.816 0 0 0-2.726.473 1.116 1.116 0 0 0-.48 1.136 1.12 1.12 0 0 0 .854.891ZM379.478 122.056c-.629-.314-1.151-.698-1.741-1.062-.591-.364-1.24-.679-1.585-1.427a1.079 1.079 0 0 1 .433-1.22 2.618 2.618 0 0 1 2.637.285 3.869 3.869 0 0 1 1.821 2.086 1.126 1.126 0 0 1-.343 1.183c-.166.142-.37.233-.588.26a1.111 1.111 0 0 1-.634-.105ZM368.949 141.216a3.006 3.006 0 0 1-1.968.669 5.151 5.151 0 0 1-1.968-1.082c-.049 0-.138 0-.108.078a2.707 2.707 0 0 0 2.155 1.752 2.137 2.137 0 0 0 2.017-1.279c.098-.099-.039-.187-.128-.138Z" fill="#000"/><path d="M362.602 135.263a8.296 8.296 0 0 0 1.87 3.749 3.738 3.738 0 0 0 1.968 1.112c1.663.325 2.352-.984 2.637-2.303.15-.685.217-1.385.197-2.086a10.728 10.728 0 0 1-6.672-.472Z" fill="#fff"/><path d="M363.281 137.27c.059.118.118.255.197.383.515.15 1.047.236 1.584.256a41.217 41.217 0 0 1-1.781-.639ZM366.745 138.077c.408.076.825.102 1.24.079a5.604 5.604 0 0 0 1.052-.187v-.138c0-.078 0-.147.05-.216-.77.204-1.553.359-2.342.462Z" fill="#fff"/><path d="M363.379 131.553s-1.377 2.706-1.85 4.044c0 .128.256.305.709.492a6.765 6.765 0 0 0 7.026-.226c.147-.098 0-.295-.128-.256a10.219 10.219 0 0 1-6.416-.364c0-.403 2.549-4.615 2.322-4.645-.984-.167-2.657-.314-3.286-.374.856-1.781 3.552-6.721 5.117-9.958.088-.207-.207-.384-.325-.217a95.646 95.646 0 0 0-6.574 10.825c-.098.315 2.775.718 3.405.679ZM375.985 123.926c3.021.856 1.072 6.83-1.722 6.032-2.795-.797-.807-6.76 1.722-6.032ZM400.911 138.195c-7.321-2.549-4.163-16.365-4.163-16.365s-11.887-6.386-10.45-16.522c0 0-14.594 3.513-22.82-3.139-8.227-6.653-2.588-16.611-.758-18.53 1.83-1.919 5.579 4.113 5.579 4.113s2.667-5.815 4.488-5.904c1.82-.088 2.312 4.182 2.312 4.182s13.521.118 24.405 4.212c10.883 4.094 12.507 17.064 12.507 17.064s5.452 3.276 5.904 8.049c.453 4.773-12.33 24.473-17.004 22.84Z" fill="#000"/><path d="M399.691 122.942c-10.195-2.066-14.426-10.765-12.626-20.596a.097.097 0 0 0-.093-.068.1.1 0 0 0-.094.068c-2.716 8.788 2.067 21.285 12.793 21.098a.247.247 0 0 0 .18-.066.25.25 0 0 0 .014-.355.252.252 0 0 0-.174-.081ZM411.814 107.069a.108.108 0 0 0-.176.094.103.103 0 0 0 .038.073c2.293 2.205 5.088 4.232 6.151 7.381 1.289 3.798-.571 7.567-2.618 10.687-3.159 4.822-8.246 10.755-14.052 12.231-.335.089-.187.581.148.512 6.819-1.387 13.196-9.171 16.118-15.125 3.287-6.672.315-12.133-5.609-15.853ZM374.686 104.343c-5.186 1.112-11.592-.984-14.761-5.363-3.936-5.353-.757-10.883 3.159-15.046.187-.206-.069-.58-.315-.403-4.536 3.286-7.046 9.781-4.133 14.947 3.001 5.344 10.569 7.814 16.286 6.594.443-.099.236-.827-.236-.729Z" fill="#000"/><path d="M397.398 137.339s9.073-6.731 12.32-3.208c3.248 3.523-5.609 14.701-10.874 14.869a4.999 4.999 0 0 1-4.992-2.746 5.002 5.002 0 0 1-.518-1.938l4.064-6.977Z" fill="#FFD3C9"/><path d="M407.101 137.27c.078 0 .059.128 0 .137-3.72.227-6.465 2.687-8.719 5.442 1.378-.885 2.952-1.112 4.163.591.068.088-.059.197-.148.147a3.088 3.088 0 0 0-3.562-.059 15.618 15.618 0 0 0-2.411 2.087c-.246.246-.728-.089-.502-.384v-.069c1.348-4.212 6.554-8.965 11.179-7.892ZM115.457 93.401c20.557 21.826 23.706 58.059-1.348 88.86-22.791 27.977-65.194 34.442-84.845 20.232-20.853-15.115-20.538-42.855-5.55-55.215 14.485-11.927 32.542-11.523 40.995-23.795 4.045-5.904 5-17.909 10.598-26.845 6.25-9.978 26.934-17.26 40.15-3.237Z" fill="#000"/><path d="M52.133 211.557c12.192 1.161 24.601-1.319 35.869-6.279a80.352 80.352 0 0 0 28.96-22.436c7.814-9.496 13.521-20.941 15.381-33.163a68.57 68.57 0 0 0-4.349-36.124 71.835 71.835 0 0 1 3.237 35.937 66.97 66.97 0 0 1-5.56 17.221 73.219 73.219 0 0 1-9.84 15.194 88.26 88.26 0 0 1-12.872 12.744 78.572 78.572 0 0 1-32.631 15.311 69.841 69.841 0 0 1-18.195 1.595ZM19.098 149.699a36.048 36.048 0 0 1 8.404-7.489 47.286 47.286 0 0 1 10.047-5.019 183.67 183.67 0 0 0 10.608-4.152 49.292 49.292 0 0 0 10.038-5.609 32.185 32.185 0 0 0 4.359-3.858 21.859 21.859 0 0 0 3.218-4.92 95.33 95.33 0 0 0 4.084-10.667 44.597 44.597 0 0 1 4.851-10.126 31.107 31.107 0 0 1 7.872-8.06 29.867 29.867 0 0 0-8.413 7.656 44.288 44.288 0 0 0-5.314 10.136c-1.427 3.523-2.549 7.154-4.241 10.46a20.84 20.84 0 0 1-3.07 4.547 30.344 30.344 0 0 1-4.193 3.601c-5.953 4.498-13.186 7.007-20.173 9.841a48.104 48.104 0 0 0-10.047 5.491 33.716 33.716 0 0 0-8.03 8.168Z" fill="#000"/><path d="M122.099 339.021h-61.08c-.256-1.083-.512-2.185-.778-3.287-.137-.61-.285-1.21-.432-1.82 0-.158-.07-.305-.109-.453-.334-1.417-.679-2.844-.984-4.271-.236-.984-.472-1.899-.699-2.863l-.708-2.874c-.236-.984-.472-1.968-.718-2.893-.246-.925-.483-1.968-.719-2.893-1.25-4.989-2.51-9.978-3.779-14.889-.806-3.159-1.623-6.278-2.42-9.338a150.14 150.14 0 0 0-.6-2.283 920.96 920.96 0 0 0-1.181-4.507c-.985-3.553-1.85-6.987-2.726-10.274-.394-1.456-.778-2.873-1.142-4.261-.167-.64-.344-1.279-.511-1.909a.307.307 0 0 1 0-.079c0-.137-.07-.265-.109-.393 0-.217-.108-.423-.167-.63-.394-1.447-.777-2.854-1.142-4.212-.305-1.132-.61-2.224-.895-3.287-.226-.836-.443-1.643-.66-2.42-.61-2.244-1.17-4.311-1.672-6.141a.165.165 0 0 0 0-.098c-.266-.984-.512-1.86-.738-2.687-.118-.433-.236-.836-.335-1.23a.755.755 0 0 0-.059-.197c-.58-2.106-.984-3.68-1.28-4.625l-.058-.216c-.089-.295-.148-.512-.187-.65v-.069h68.716l.315 1.752c.217 1.181.541 2.952.984 5.147 2.805 15.745 10.126 56.179 15.873 88.85Z" fill="#FF6868"/><path d="M99.495 243.085v.187l-2.952 10.067-.266.906-3.936 13.245-.197.659-3.208 10.825-1.16 3.936-16.73 56.111H61.02c-.256-1.083-.512-2.185-.777-3.287-.148-.61-.286-1.22-.433-1.82 0-.158-.07-.305-.109-.453-.334-1.417-.679-2.834-.984-4.271-.236-.984-.472-1.899-.699-2.863l-.708-2.874c-.236-.984-.472-1.968-.718-2.893-.246-.925-.483-1.968-.719-2.893-1.25-4.989-2.509-9.978-3.779-14.889-.806-3.159-1.613-6.278-2.42-9.339-.197-.767-.394-1.525-.6-2.283a951.003 951.003 0 0 0-1.181-4.506c-.935-3.553-1.85-6.987-2.726-10.274-.384-1.456-.768-2.873-1.142-4.261-.167-.64-.344-1.279-.511-1.909v-.089l-.118-.413c0-.216-.109-.423-.168-.63a394.373 394.373 0 0 0-1.141-4.211l-.886-3.307c-.226-.826-.443-1.624-.66-2.401a797.24 797.24 0 0 0-1.682-6.14.169.169 0 0 0 0-.099 131.34 131.34 0 0 0-.738-2.706l-.335-1.21a.743.743 0 0 0-.059-.197c-.57-2.106-.984-3.681-1.279-4.625l-.059-.217c-.079-.295-.138-.521-.187-.649a.139.139 0 0 0 0-.069l63.294-.158Z" fill="#000"/><path d="M104.927 243.204c0 .285-.088.59-.137.925a86.12 86.12 0 0 1-2.421 9.663 71.95 71.95 0 0 1-.797 2.568c-1.22 3.789-2.697 7.873-4.32 11.632l-.463 1.053a65.306 65.306 0 0 1-4.408 8.532 17.234 17.234 0 0 1-4.635 5.304l-11.809 4.851s-4.044 24.601-8.561 51.289H4.554c4.005-21.393 7.685-41.025 7.685-41.025-2.952-12.419-1.78-24.68.364-34.442.256-1.181.532-2.313.807-3.415.08-.285.158-.58.227-.856a89.576 89.576 0 0 1 1.112-3.857c.295-.984.6-1.909.895-2.785a78.384 78.384 0 0 1 3.799-9.428l85.484-.009Z" fill="#FF6868"/><path d="M83.544 168.524c10.303 10.588 49.97 46.191 69.011 41.891 23.077-5.216 49.715-16.729 61.258-28.813 5.619-5.905-27.711-37.502-32.917-32.287-11.316 11.356-26.717 17.782-30.643 19.445-3.927 1.663-40.405-9.526-60.086-15.922-17.664-5.747-16.474 5.56-6.623 15.686Z" fill="#FFD3C9"/><path d="M208.371 186.443c3.848-2.352 21.039-17.545 24.906-22.023 3.868-4.477 14.082-18.156 10.953-21.462-3.129-3.306-6.436.453-6.436.453s3.818-7.017 0-9.506c-3.09-1.968-8.03 3.07-8.03 3.07s3.779-7.872-.374-9.841c-3.788-1.8-7.734 4.99-7.734 4.99s2.499-6.938-1.486-7.971c-4.793-1.24-9.103 10.765-13.777 15.381-1.063 1.043-22.889 19.681-22.889 19.681l24.867 27.228Z" fill="#FFD3C9"/><path d="m171.725 156.026 31.942 33.763c9.201-4.035 25.733-20.901 29.601-25.359 3.867-4.458 14.081-18.156 10.972-21.462-2.952-3.159-6.111.078-6.416.403.295-.551 3.631-7.075-.079-9.466-3.09-1.969-8.02 3.07-8.02 3.07s3.779-7.873-.374-9.841c-3.789-1.81-7.735 4.989-7.735 4.989s2.49-6.937-1.505-7.98c-4.773-1.23-9.103 10.824-13.777 15.39-.413.404-3.936 3.474-8.128 7.066 4.841-7.449 7.036-18.195 2.47-18.372-4.566-.178-12.567 12.595-15.962 16.65-3.395 4.054-12.989 11.149-12.989 11.149Z" fill="#FFD3C9"/><path d="M221.43 131.73c-4.153 8.66-6.121 12.124-13.423 17.792-.138.108 0 .344.157.246 7.647-4.921 10.274-8.857 13.698-17.91.168-.433-.246-.531-.432-.128ZM229.627 136.965c-4.124 8.857-7.361 12.271-14.564 18.766-.099.098 0 .276.157.197 7.597-5.786 11.809-9.486 14.761-18.894.098-.423-.167-.472-.354-.069ZM237.44 143.735c-4.605 8.296-7.872 12.409-15.686 17.822a.164.164 0 0 0-.078.105.18.18 0 0 0 .019.131.176.176 0 0 0 .106.078.152.152 0 0 0 .067.003.169.169 0 0 0 .063-.022c8.503-4.743 12.616-9.841 15.745-17.949.217-.551.099-.689-.236-.168ZM196.12 149.945c3.513 4.92 6.071 12.438 3.788 17.998a.163.163 0 0 0-.015.052.124.124 0 0 0 .006.054.132.132 0 0 0 .068.081.12.12 0 0 0 .052.015.14.14 0 0 0 .054-.005.14.14 0 0 0 .081-.069c3.257-5.638.384-14.387-3.021-18.579-.689-.807-1.919-.816-1.013.453Z" fill="#000"/><path d="m174.657 154.403 29.394 36.813s-36.764 21.748-54.654 21.177c-17.89-.571-49.449-24.66-65.568-39.529-16.119-14.869-16.09-31.962 16.355-20.301 32.444 11.661 47.441 15.292 49.35 15.046 1.91-.246 25.123-13.206 25.123-13.206Z" fill="#FF6868"/><path d="M83.83 172.883c6.819 6.278 40.168 38.044 65.576 39.529 11.032.64 33.055-3.247 45.542-9.722 6.751-3.503 9.093-11.454 9.093-11.454l-29.384-36.834s-6.475-.501-11.208 2.097c-6.82 3.729-12.793 10.982-13.915 11.129-1.919.246-16.896-3.395-49.33-15.046-32.435-11.651-32.484 5.432-16.375 20.301Z" fill="#fff"/><path d="M195.067 194.316a107.645 107.645 0 0 0-6.475-8.729 944.462 944.462 0 0 0-6.594-8.394c-4.467-5.619-8.856-11.385-13.648-16.729-.118-.118-.315 0-.217.158 3.936 6.081 8.502 11.809 12.97 17.467a363.333 363.333 0 0 0 6.829 8.473 95.2 95.2 0 0 0 6.889 7.872c.167.187.324 0 .246-.118Z" fill="#000"/><path d="M125.494 195.015a1.532 1.532 0 0 0-.335-.522 1.553 1.553 0 0 0-.502-.374 1.488 1.488 0 0 0-.619-.167 1.654 1.654 0 0 0-.817.157l-.207.108a1.704 1.704 0 0 0-.787 1.339 1.785 1.785 0 0 0 .699 1.476c.064.049.133.092.206.128.216.117.454.184.699.197.144.02.289.02.433 0a1.84 1.84 0 0 0 .305-.099.889.889 0 0 0 .275-.138c.089-.057.171-.123.246-.196.233-.219.4-.499.483-.807v-.187a.409.409 0 0 0 0-.148c.04-.258.013-.523-.079-.767Zm18.795 1.505a.118.118 0 0 0 0-.059 1.542 1.542 0 0 0-.236-.581 2.453 2.453 0 0 0-.187-.255l-.236-.207a2.123 2.123 0 0 0-.423-.226l-.236-.069a.932.932 0 0 0-.236 0 1.318 1.318 0 0 0-.443 0 1.121 1.121 0 0 0-.305.098 1.67 1.67 0 0 0-1.063 1.466c-.02.144-.02.29 0 .433.054.236.151.459.285.66.044.063.093.123.148.177.147.149.317.275.502.374.195.101.41.158.63.167.124.015.249.015.373 0h.119a.981.981 0 0 0 .246-.079.499.499 0 0 0 .177-.088.628.628 0 0 0 .108-.059h.069l.177-.148.059-.059a1.65 1.65 0 0 0 .492-1.082c.016-.155.009-.31-.02-.463Zm17.084-.285a1.699 1.699 0 0 0-1.636.952 1.702 1.702 0 0 0 2.086 2.356 1.705 1.705 0 0 0 .709-2.748 1.705 1.705 0 0 0-1.189-.56h.03Zm18.697 1.141a1.709 1.709 0 0 0-1.629.96 1.703 1.703 0 1 0 3.233.841 1.73 1.73 0 0 0-.456-1.254 1.714 1.714 0 0 0-1.217-.547h.069Zm18.697 1.152a1.694 1.694 0 0 0-1.801 1.594c-.032.404.091.805.344 1.122a17.188 17.188 0 0 0 2.45-2.313 1.606 1.606 0 0 0-1.092-.403h.099Zm-65.814 9.309-.305-.049h-.295c.502.216.984.433 1.496.629a1.624 1.624 0 0 0-.994-.58h.098Zm19.681 1.968a1.149 1.149 0 0 0-.246-.325 1.402 1.402 0 0 0-.482-.334h-.079l-.236-.089h-.315a1.372 1.372 0 0 0-.443 0 1.619 1.619 0 0 0-.6.246.444.444 0 0 0-.128.108.75.75 0 0 0-.187.168.333.333 0 0 0-.079.088l-.059.099c-.087.122-.16.254-.216.393a1.792 1.792 0 0 0-.089.453c-.015.14-.015.282 0 .423a.877.877 0 0 0 .079.275c.037.089.079.174.128.256.049.079.098.158.157.237.061.07.127.136.197.196l.236.177.237.119.255.068c.039.01.08.01.119 0h.127c.141.021.283.021.424 0l.246-.078h.068c.109-.048.211-.107.306-.177a1.69 1.69 0 0 0 .738-1.29 1.645 1.645 0 0 0-.227-1.043l.069.03Zm17.29.295a1.74 1.74 0 0 0-1.506.758 73.646 73.646 0 0 0 2.401-.433c-.27-.214-.6-.338-.944-.354l.049.029Zm-25.635-41.812a1.712 1.712 0 1 0 1.604 1.81 1.719 1.719 0 0 0-1.604-1.81Zm18.697 1.151a1.705 1.705 0 0 0-1.635.953 1.702 1.702 0 1 0 1.635-.953Zm18.697 1.112a1.71 1.71 0 0 0-1.4 2.84 1.718 1.718 0 0 0 1.842.488 1.718 1.718 0 0 0 1.153-1.517 1.722 1.722 0 0 0-1.595-1.811Zm-46.339 10.952a1.73 1.73 0 0 0-.364-.295 1.436 1.436 0 0 0-.452-.197l-.325-.049a1.733 1.733 0 0 0-1.634.984 1.62 1.62 0 0 0 0 1.358c.04.098.086.194.138.286a.782.782 0 0 0 .197.246c.302.319.713.512 1.151.541.144.02.29.02.433 0a1.724 1.724 0 0 0 1.191-.925c.097-.197.154-.411.167-.63a1.604 1.604 0 0 0-.531-1.289l.029-.03Zm17.526.601a1.695 1.695 0 0 0-1.628.96 1.702 1.702 0 1 0 3.232.841 1.702 1.702 0 0 0-1.633-1.772l.029-.029Zm18.697 1.151a1.705 1.705 0 0 0-1.635.953 1.702 1.702 0 1 0 3.229.848 1.708 1.708 0 0 0-1.653-1.771l.059-.03Zm18.697 1.142a1.697 1.697 0 0 0-1.635.952 1.704 1.704 0 0 0 1.098 2.393 1.698 1.698 0 0 0 1.788-.617 1.71 1.71 0 0 0 .344-.928 1.703 1.703 0 0 0-1.693-1.771l.098-.029Zm-17.014-27.938a1.705 1.705 0 0 0-1.635.953 1.703 1.703 0 1 0 3.229.848 1.718 1.718 0 0 0-.473-1.242 1.722 1.722 0 0 0-1.219-.529l.098-.03Z" fill="#666"/><path d="M125.494 195.015a1.897 1.897 0 0 0-.334-.522 2.112 2.112 0 0 0-.502-.374 1.644 1.644 0 0 0-.63-.157 1.709 1.709 0 0 0-.807.147l-.207.108a1.717 1.717 0 0 0-.787 1.339 1.785 1.785 0 0 0 .699 1.476c.064.05.133.092.206.128.208.127.446.198.689.206.147.025.296.025.443 0 .104-.023.206-.056.305-.098a.905.905 0 0 0 .276-.138c.088-.057.17-.123.246-.197.232-.219.399-.498.482-.806v-.187a.637.637 0 0 0 0-.138 1.67 1.67 0 0 0-.079-.787Zm18.796 1.446a1.545 1.545 0 0 0-.237-.58 2.236 2.236 0 0 0-.187-.256l-.236-.207a2.123 2.123 0 0 0-.423-.226l-.236-.069h-.246a1.57 1.57 0 0 0-.433 0 1.121 1.121 0 0 0-.305.098 1.674 1.674 0 0 0-1.063 1.466 1.707 1.707 0 0 0 .463 1.27c.138.159.309.287.501.374.196.101.411.158.63.167.124.015.25.015.374 0h.118a.968.968 0 0 0 .246-.079.483.483 0 0 0 .177-.088.637.637 0 0 0 .109-.059h.069l.177-.148.059-.059c.278-.295.445-.678.472-1.082a1.605 1.605 0 0 0-.029-.522Zm-11.386 11.376-.305-.049h-.295c.502.216.984.433 1.496.629-.24-.295-.573-.5-.945-.58h.049Zm19.101 2.765c0-.492-.069-.984-.119-1.486h-.078l-.236-.089h-.394a1.652 1.652 0 0 0-.433 0 1.614 1.614 0 0 0-.6.247.429.429 0 0 0-.128.108.71.71 0 0 0-.187.167.293.293 0 0 0-.079.089 1.288 1.288 0 0 0-.276.492 1.294 1.294 0 0 0-.108.462c-.02.137-.02.276 0 .413a.883.883 0 0 0 .079.276c.037.088.079.174.128.256.049.079.098.157.157.236.061.07.127.136.197.197l.236.177.237.118.255.069c.039.009.08.009.118 0h.109c.146.024.296.024.443 0l.246-.079h.068c.107-.042.209-.095.305-.157.079-.541.05-1.024.01-1.496h.05Zm-63.62-45.739a1.7 1.7 0 0 0-1.78 1.936 1.7 1.7 0 0 0 2.243 1.372 1.7 1.7 0 0 0-.512-3.308h.05Zm18.697 1.142a1.709 1.709 0 0 0-1.812 1.933 1.716 1.716 0 0 0 3.061.811 1.72 1.72 0 0 0 .346-.934 1.725 1.725 0 0 0-1.673-1.81h.078Zm18.697 1.151a1.705 1.705 0 0 0-1.635.953 1.705 1.705 0 0 0 2.086 2.355 1.703 1.703 0 0 0 1.043-2.191 1.707 1.707 0 0 0-1.612-1.117h.118Zm-28.92 11.553a1.7 1.7 0 0 0-1.782 1.935 1.7 1.7 0 0 0 2.244 1.373 1.71 1.71 0 0 0 1.141-1.507 1.713 1.713 0 0 0-1.604-1.801Zm18.696 1.141a1.705 1.705 0 0 0-1.635.953 1.703 1.703 0 1 0 2.791-.395 1.7 1.7 0 0 0-1.195-.558h.039Zm19.799 1.683a1.67 1.67 0 0 0-.364-.295 1.436 1.436 0 0 0-.452-.197l-.325-.049a1.733 1.733 0 0 0-1.634.984 1.623 1.623 0 0 0 0 1.358c.04.098.086.193.138.285a.76.76 0 0 0 .197.246 1.63 1.63 0 0 0 1.132.551c.149.025.302.025.452 0a1.711 1.711 0 0 0 1.191-.925 1.74 1.74 0 0 0-.374-1.958h.039Zm-35.83-29.187-1.21-.423a1.69 1.69 0 0 0-1.553 2.044 1.69 1.69 0 0 0 2.256 1.228 1.693 1.693 0 0 0 1.089-1.481 1.679 1.679 0 0 0-.581-1.368Z" fill="#FF6868"/><path d="M79.883 150.782a1.697 1.697 0 0 0-1.635.952 1.703 1.703 0 1 0 1.635-.952Z" fill="#666"/><path d="M74.146 159.815c1.525 3.995 4.871 8.63 9.674 13.058 6.819 6.288 40.178 38.054 65.577 39.54a83.167 83.167 0 0 0 15.932-1.073l-91.183-51.525Z" fill="#000"/><path d="M17.346 244.995c.06.098 88.565 5.993 89.274 5.481.334-.256 6.977-5.678 6.593-13.127-1.063-20.665-11.858-61.11-20.94-81.47-2.313-5.186-14.456-13.846-24.936-5.747-22.102 17.093-43.014 56.711-50.374 79.059-3.208 9.604.03 15.263.383 15.804Z" fill="#fff"/><path d="M27.453 241.816a1.701 1.701 0 1 0 1.594 1.811 1.713 1.713 0 0 0-1.594-1.811Zm18.648 1.142a1.704 1.704 0 0 0-1.782 1.932 1.7 1.7 0 0 0 1.252 1.413 1.699 1.699 0 0 0 2.134-1.535 1.7 1.7 0 0 0-1.604-1.81Zm18.697 1.141a1.713 1.713 0 0 0-.207 3.415 1.713 1.713 0 0 0 .207-3.415Zm18.697 1.151a1.71 1.71 0 0 0-1.634.951 1.703 1.703 0 1 0 3.134.184 1.705 1.705 0 0 0-1.57-1.135h.07Zm18.697 1.142a1.696 1.696 0 0 0-1.634.984 1.82 1.82 0 0 0-.167.64c-.01.108-.01.216 0 .324a1.71 1.71 0 0 0 1.584 1.486 1.666 1.666 0 0 0 1.27-.472c.166-.15.297-.335.383-.541.088-.185.139-.386.148-.591a1.694 1.694 0 0 0-.448-1.284 1.712 1.712 0 0 0-1.245-.546h.109ZM29.204 215.02a1.705 1.705 0 0 0-1.635.953 1.702 1.702 0 1 0 3.23.848 1.714 1.714 0 0 0-1.703-1.801h.108Zm20.233 2.578a1.641 1.641 0 0 0-.443-.895 1.702 1.702 0 0 0-2.947 1.058 1.707 1.707 0 0 0 1.599 1.806c.348.023.694-.071.984-.266a1.674 1.674 0 0 0 .787-1.338 1.127 1.127 0 0 0-.089-.365h.108Zm17.083-.295a1.714 1.714 0 0 0-1.346 2.817c.285.337.69.552 1.13.598a1.714 1.714 0 0 0 1.344-2.817 1.717 1.717 0 0 0-1.128-.598Zm18.697 1.152a1.697 1.697 0 0 0-1.635.952 1.702 1.702 0 1 0 2.174-.826 1.703 1.703 0 0 0-.687-.126h.148Zm18.697 1.141a1.71 1.71 0 0 0-1.802 1.941 1.716 1.716 0 0 0 1.262 1.424 1.71 1.71 0 0 0 1.799-.621 1.71 1.71 0 0 0-1.446-2.744h.187Zm-83.222 9.526a.238.238 0 0 0 0-.158 1.67 1.67 0 0 0-1.515-1.249 1.7 1.7 0 0 0-1.81 1.594c-.012.189.01.379.068.561a.434.434 0 0 0 0 .098 1.681 1.681 0 0 0 1.506 1.142 1.623 1.623 0 0 0 1.473-.729 1.69 1.69 0 0 0 .288-.866 1.309 1.309 0 0 0-.197-.393h.187Zm18.432.541a1.688 1.688 0 0 0-1.432-.799 1.687 1.687 0 0 0-1.432.799c-.165.238-.26.518-.276.807a1.704 1.704 0 0 0 2.83 1.388c.34-.298.547-.72.575-1.172a1.613 1.613 0 0 0-.452-1.023h.187Zm18.697 1.181a1.285 1.285 0 0 0-.246-.315 1.422 1.422 0 0 0-.67-.413 1.222 1.222 0 0 0-.452-.109 1.655 1.655 0 0 0-1.358.551.427.427 0 0 0-.138.197c-.189.244-.299.539-.315.847A1.713 1.713 0 0 0 56 233.373h.236a1.693 1.693 0 0 0 1.585-2.559v.03Zm17.29.305a1.697 1.697 0 0 0-1.636.952 1.706 1.706 0 0 0 1.098 2.394 1.707 1.707 0 0 0 1.789-.618 1.701 1.701 0 0 0-1.438-2.728h.186Zm18.697 1.151a1.708 1.708 0 0 0-1.63.96 1.704 1.704 0 0 0 2.891 1.768c.203-.269.322-.591.343-.927a1.71 1.71 0 0 0-1.83-1.801h.226Zm19.435 2.805c0-.482-.079-.984-.128-1.486a1.48 1.48 0 0 0-.65-.177 1.696 1.696 0 0 0-1.422.636c-.169.211-.286.46-.339.726a1.703 1.703 0 0 0 2.637 1.738c-.256-.463-.285-.955-.325-1.437h.227Zm-63.63-45.739a1.708 1.708 0 0 0-1.644.959 1.711 1.711 0 1 0 3.249.852 1.707 1.707 0 0 0-.502-1.324 1.698 1.698 0 0 0-1.329-.487h.227Zm18.698 1.151a1.705 1.705 0 0 0-1.38 2.828 1.707 1.707 0 0 0 1.83.481 1.7 1.7 0 0 0 1.144-1.508 1.69 1.69 0 0 0-1.127-1.713 1.707 1.707 0 0 0-.723-.088h.256Zm18.697 1.142a1.697 1.697 0 0 0-1.635.952 1.705 1.705 0 0 0 1.097 2.394 1.707 1.707 0 0 0 1.789-.618c.203-.268.323-.591.343-.927a1.703 1.703 0 0 0-1.89-1.801h.296Zm18.037 1.24a1.698 1.698 0 0 0-.907.706 1.697 1.697 0 0 0 .267 2.148c.287.272.66.435 1.054.462.152.013.306-.003.452-.049-.58-1.083-.866-2.185-1.161-3.267h.295Zm-65.793 9.142a1.72 1.72 0 0 0-1.811 1.594 1.703 1.703 0 1 0 1.81-1.594Zm18.697 1.151a1.7 1.7 0 0 0-1.782 1.936 1.702 1.702 0 0 0 3.386-.135 1.714 1.714 0 0 0-1.644-1.781l.04-.02Zm18.697 1.141a1.71 1.71 0 0 0-1.634.951 1.704 1.704 0 0 0 2.078 2.36 1.7 1.7 0 0 0 1.15-1.5 1.71 1.71 0 0 0-1.673-1.791l.079-.02Zm18.697 1.152a1.697 1.697 0 0 0-1.636.952 1.704 1.704 0 0 0 2.086 2.356 1.705 1.705 0 0 0 1.144-1.507 1.719 1.719 0 0 0-.473-1.252 1.702 1.702 0 0 0-1.23-.53l.109-.019Zm-43.141-40.159c-.089.137-.197.265-.295.403.084-.047.164-.103.236-.167a1.33 1.33 0 0 0 .197-.207c.121-.158.218-.334.285-.521l-.423.492Zm17.604-1.624h-.403a1.59 1.59 0 0 0-.56.207 1.693 1.693 0 0 0-.777 1.023.981.981 0 0 0-.06.335.833.833 0 0 0 0 .314.685.685 0 0 0 .049.246.128.128 0 0 0 0 .059c.016.067.042.13.079.187a.18.18 0 0 0 .049.109.72.72 0 0 0 .128.187.631.631 0 0 0 .128.157c.039.056.089.103.147.138h.06a.264.264 0 0 0 .157.098.397.397 0 0 0 .167.089.822.822 0 0 0 .276.098c.098.035.2.055.305.059a1.702 1.702 0 0 0 1.805-1.599 1.707 1.707 0 0 0-1.599-1.806l.05.099Zm18.698 1.141a1.715 1.715 0 0 0-1.801 1.595.562.562 0 0 0 0 .127.512.512 0 0 0 0 .246 1.694 1.694 0 0 0 1.564 1.437c.253.023.508-.021.738-.128a1.664 1.664 0 0 0 .962-2.14 1.705 1.705 0 0 0-1.611-1.117l.148-.02Zm-28.951 11.612a1.7 1.7 0 0 0-1.782 1.936 1.7 1.7 0 0 0 2.245 1.372 1.7 1.7 0 0 0 .181-3.141 1.7 1.7 0 0 0-.644-.167Zm18.697 1.142a1.698 1.698 0 0 0-1.234.425 1.716 1.716 0 0 0-.572 1.174 1.706 1.706 0 1 0 1.806-1.599Zm18.697 1.151a1.69 1.69 0 0 0-1.565.836 1.646 1.646 0 0 0-.246.758 1.711 1.711 0 0 0 2.775 1.427 1.704 1.704 0 0 0-.984-3.021h.02Zm-15.834-27.357a1.686 1.686 0 0 0-1.18-.58 1.71 1.71 0 0 0-1.811 1.574 1.704 1.704 0 0 0 2.833 1.38c.338-.299.544-.722.572-1.173a1.772 1.772 0 0 0-.483-1.24l.07.039Z" fill="#FF6868"/><path d="M67.533 173.759c-3.749 11.169-25.772 63.826-35.908 78.597C20.387 268.72-.455 260.1.008 244.218c.738-24.936 34.146-64.692 56.76-86.341 14.879-14.249 14.603 4.398 10.765 15.882Z" fill="#FFD3C9"/><path d="M67.533 173.759c-3.749 11.169-25.772 63.826-35.908 78.597C20.387 268.72-.455 260.1.008 244.218c.738-24.936 34.146-64.692 56.76-86.341 14.879-14.249 14.603 4.398 10.765 15.882Z" fill="#fff"/><path d="M8.785 240.665a1.7 1.7 0 0 0-.543 3.344 1.703 1.703 0 1 0 .543-3.344Zm18.697 1.151a1.701 1.701 0 1 0 1.595 1.811 1.718 1.718 0 0 0-.973-1.647 1.712 1.712 0 0 0-.651-.164h.03ZM17.347 254.51a.98.98 0 0 0-.374 0 1.683 1.683 0 0 0-1.437 1.565c-.027.417.106.829.374 1.151a1.61 1.61 0 0 0 1.22.65 1.693 1.693 0 0 0 1.277-.392 1.7 1.7 0 0 0-.396-2.852 1.695 1.695 0 0 0-.664-.151v.029Zm-6.397-40.523c-.56.984-1.131 1.968-1.653 2.903.276.235.622.373.984.393a1.71 1.71 0 0 0 1.8-1.594 1.692 1.692 0 0 0-1.17-1.702h.04Zm18.185 1.033a1.705 1.705 0 0 0-1.635.953 1.7 1.7 0 0 0 1.098 2.393 1.707 1.707 0 0 0 1.789-.618c.203-.268.323-.591.343-.927a1.715 1.715 0 0 0-1.634-1.801h.04Zm20.233 2.578a1.641 1.641 0 0 0-.443-.895 1.702 1.702 0 0 0-2.947 1.058 1.707 1.707 0 0 0 1.599 1.805c.348.023.694-.07.984-.265a1.668 1.668 0 0 0 .787-1.339 1.123 1.123 0 0 0-.02-.364h.04Zm-28.823 11.524a.238.238 0 0 0 0-.158 1.677 1.677 0 0 0-2.176-1.162 1.699 1.699 0 0 0-1.15 1.507c-.012.189.011.379.069.56a.443.443 0 0 0 0 .099 1.686 1.686 0 0 0 1.505 1.141c.267.02.534-.028.777-.137a1.697 1.697 0 0 0 .985-1.457 1.305 1.305 0 0 0-.05-.393h.04Zm18.431.541a1.687 1.687 0 0 0-1.432-.799 1.687 1.687 0 0 0-1.432.799c-.165.238-.26.517-.275.807a1.704 1.704 0 0 0 2.83 1.388c.34-.299.546-.72.575-1.172a1.611 1.611 0 0 0-.305-1.023h.039Zm-8.236-41.399a1.697 1.697 0 0 0-1.636.952 1.702 1.702 0 1 0 1.636-.952Zm18.647 1.141a1.708 1.708 0 0 0-1.644.959 1.711 1.711 0 1 0 3.248.852 1.697 1.697 0 0 0-.947-1.679 1.687 1.687 0 0 0-.657-.171v.039Zm-28.793 11.514a1.697 1.697 0 0 0-1.635.952 1.702 1.702 0 1 0 3.23.848 1.712 1.712 0 0 0-1.595-1.8Zm18.697 1.141a1.724 1.724 0 0 0-1.81 1.594 1.703 1.703 0 1 0 1.81-1.594Zm12.497-39.264-2.292 2.323a1.713 1.713 0 0 0 1.377.866c.326.02.651-.055.935-.217.085-.046.164-.103.236-.167a1.33 1.33 0 0 0 .197-.207c.141-.159.245-.347.305-.551.05-.135.078-.278.079-.423a1.637 1.637 0 0 0-.837-1.624Zm17.88.925h-.324a1.631 1.631 0 0 0-.561.207 1.164 1.164 0 0 0-.226.157 1.698 1.698 0 0 0-.551.866c-.031.113-.048.228-.05.345a1.046 1.046 0 0 0 0 .305.69.69 0 0 0 .05.246.128.128 0 0 0 0 .059.636.636 0 0 0 .078.187c.004.041.021.079.05.108a.703.703 0 0 0 .127.187.655.655 0 0 0 .128.158c.04.055.09.102.148.137h.06a.266.266 0 0 0 .157.099.384.384 0 0 0 .167.088.846.846 0 0 0 .275.099.424.424 0 0 1 0-.108 27.96 27.96 0 0 0 .374-2.795v-.443l.099.098Zm-28.773 11.553a1.7 1.7 0 0 0-1.629.96 1.703 1.703 0 1 0 3.233.841 1.714 1.714 0 0 0-1.604-1.801Zm18.697 1.142a1.7 1.7 0 0 0-1.781 1.935 1.7 1.7 0 0 0 2.244 1.373 1.71 1.71 0 0 0 1.141-1.507 1.707 1.707 0 0 0-.457-1.222 1.716 1.716 0 0 0-1.186-.54l.039-.039Z" fill="#FF6868"/><path d="M38.996 237.191c2.243-4.645 4.585-9.25 6.82-13.905a870.372 870.372 0 0 0 12.85-28.222c2.353-5.393 4.606-10.825 7.037-16.208 0-.059.128 0 .098 0a223.035 223.035 0 0 1-4.92 13.393c.256-.482.512-.984.777-1.446.758-1.407 1.575-2.775 2.392-4.153.088-.148.354 0 .275.148-.984 1.968-2.106 3.936-3.218 5.806-.275.472-.531.984-.826 1.407l-.256.393a452.132 452.132 0 0 1-5.717 13.462c-4.212 9.506-8.572 18.963-13.334 28.213-2.647 5.147-5.639 10.077-8.453 15.125-.08.138-.325 0-.246-.128 2.342-4.536 4.457-9.25 6.72-13.885Z" fill="#000"/><path d="M62.869 247.209c-21.974-10.992-53.08-22.004-60.027-7.686-6.357 13.039 15.37 31.894 35.8 46.143l24.227-38.457Z" fill="#FFD3C9"/><path d="M104.406 274.861c-.679 4.497-5.334 5.235-5.334 5.235a9.71 9.71 0 0 1 .404 6.593c-1.31 3.769-7.804 3.385-7.804 3.385a11.969 11.969 0 0 1-.679 7.017c-1.624 3.483-8.236 4.024-8.236 4.024a10.511 10.511 0 0 1-4.478 5.797c-5.904 3.316-14.918-1.595-20.665-4.655-5.747-3.06-21.757-18.107-24.601-20.537l22.712-37.207s28.832 7.193 35.12 11.749c5.314 3.838 14.309 13.521 13.561 18.599Z" fill="#FFD3C9"/><path d="M99.102 279.83c-4.655-5.442-10.657-9.211-16.444-13.314-.128-.089-.265.118-.138.206 5.797 4.015 10.727 9.123 16.346 13.354a.177.177 0 0 0 .211-.034.176.176 0 0 0 .025-.212ZM91.712 289.739a18.461 18.461 0 0 0-3.937-2.903 158.784 158.784 0 0 0-4.418-2.706 185.028 185.028 0 0 0-9.073-5.068c-.128-.069-.276.118-.138.207 2.952 1.761 5.904 3.562 8.798 5.452 1.45.944 2.89 1.899 4.32 2.863 1.29 1 2.69 1.852 4.172 2.539a.244.244 0 0 0 .282-.088.25.25 0 0 0-.007-.296ZM82.638 301.007a13.061 13.061 0 0 0-3.67-2.421l-4.113-2.342c-2.736-1.584-5.462-3.169-8.139-4.842-.127-.078-.275.119-.137.207 2.706 1.712 5.392 3.464 8.118 5.157a211.64 211.64 0 0 0 4.025 2.47 12.305 12.305 0 0 0 3.838 1.909c.078.019.118-.079.078-.138Z" fill="#000"/><path d="M60.842 244.208 30.789 286.67s-6.82-.935-11.12-5.275c-5.708-5.766-11.602-16.404-15.588-23.853-7.144-13.354-5.176-27.947 18.186-25.979 8.728.718 20.537 1.161 27.947 4.113a21.797 21.797 0 0 1 10.628 8.532Z" fill="#fff"/><path d="M25.642 277.813c2.372-2.716 4.38-5.796 6.475-8.729a674.35 674.35 0 0 0 6.13-8.738c4.085-5.904 8.336-11.74 12.036-17.9a.137.137 0 0 0-.047-.164.137.137 0 0 0-.17.007c-4.684 5.51-8.856 11.542-12.97 17.466a469.47 469.47 0 0 0-6.12 8.995 95.188 95.188 0 0 0-5.58 8.925c-.069.138.148.197.246.138ZM60.153 245.182l.65-.984v.049a17.855 17.855 0 0 0-3.592-4.104 22.05 22.05 0 0 0-4.527-3.001 21.666 21.666 0 0 0-5.117-1.811c-1.761-.452-3.572-.748-5.383-1.062-3.611-.611-7.252-.984-10.903-1.467-3.651-.482-7.312-.787-10.943-1.358l5.501.374 5.5.423c3.662.315 7.319.752 10.973 1.309 1.81.315 3.631.65 5.422 1.122a21.322 21.322 0 0 1 5.225 1.968 19.387 19.387 0 0 1 7.922 7.597l-.728.945ZM34.951 232.546c-1.426-.354-2.814-.817-4.192-1.269-1.377-.453-2.745-.984-4.143-1.407.735.037 1.464.149 2.175.334.719.158 1.427.374 2.126.6 1.39.469 2.74 1.051 4.034 1.742Z" fill="#000"/><path d="M35.965 255.622a1.701 1.701 0 1 0-.21 3.396 1.701 1.701 0 0 0 .21-3.396ZM46.1 242.928a1.7 1.7 0 0 0-1.78 1.935 1.705 1.705 0 0 0 2.243 1.373 1.71 1.71 0 0 0 1.142-1.508 1.703 1.703 0 0 0-1.605-1.8Zm-13.314 40.277c-.165.238-.26.518-.275.807a.797.797 0 0 0 0 .216l1.25-1.741a1.638 1.638 0 0 0-.975.718Zm-6.977-14.633a1.714 1.714 0 1 0 .442 3.328 1.713 1.713 0 0 0 1.152-1.517 1.733 1.733 0 0 0-1.594-1.811Zm-8.463-14.062a.98.98 0 0 0-.373 0 1.683 1.683 0 0 0-1.437 1.565c-.028.417.106.829.374 1.151a1.61 1.61 0 0 0 1.22.649 1.692 1.692 0 0 0 1.277-.391 1.702 1.702 0 0 0-1.06-3.004v.03Zm10.146-12.694a1.7 1.7 0 0 0-1.382 2.824c.222.252.514.433.84.52a1.697 1.697 0 0 0 1.158-3.183 1.724 1.724 0 0 0-.655-.161h.04Zm-18.697-1.152a1.71 1.71 0 0 0-1.634.951 1.702 1.702 0 1 0 1.624-.951h.01Z" fill="#FF6868"/><path d="M73.35 153.537c.718 1.682 6.612 14.613 14.7 15.567 2.638.305 4.921-14.003 4.921-14.003l.413-.984 5.767-14.249-17.772-15.961s-9.26 26.756-8.03 29.63Z" fill="#FFD3C9"/><path d="M78.958 131.189c.16 1.846.42 3.683.778 5.501 2.371 12.31 8.856 16.601 13.412 18.087l.266-.689 5.767-14.249-17.802-15.912s-1.053 3.06-2.42 7.262Z" fill="#000"/><path d="M127.846 123.572c-2.952 28.43-20.311 29.876-26.442 29.237-5.56-.581-24.444-3.277-24.453-31.864-.01-28.587 14.2-36.203 26.992-35.544 12.793.66 26.845 9.732 23.903 38.171Z" fill="#FFD3C9"/><path d="M123.674 120.197c-.65-.197-1.221-.482-1.841-.738a3.159 3.159 0 0 1-1.722-1.102.982.982 0 0 1 .217-1.22 2.512 2.512 0 0 1 2.549-.158 3.783 3.783 0 0 1 2.066 1.693 1.078 1.078 0 0 1-.135 1.178 1.086 1.086 0 0 1-1.134.347ZM105.252 116.202a18.336 18.336 0 0 0 1.919-.473 3.158 3.158 0 0 0 1.86-.846.984.984 0 0 0 0-1.24 2.53 2.53 0 0 0-2.5-.512 3.675 3.675 0 0 0-2.283 1.388 1.083 1.083 0 0 0 1.004 1.683ZM104.189 138.865c.355.551.66 1.269 1.329 1.485.71.153 1.445.153 2.155 0a.073.073 0 0 1 .043.007.062.062 0 0 1 .03.03.073.073 0 0 1 .007.043.075.075 0 0 1-.021.039 2.614 2.614 0 0 1-2.647.452 2.056 2.056 0 0 1-1.093-2.027.103.103 0 0 1 .019-.074.1.1 0 0 1 .139-.021.1.1 0 0 1 .039.066ZM113.439 133.363s-.108 2.953-.354 4.291c0 .118-.364.128-.826.069h-.05a6.514 6.514 0 0 1-5.806-3.513c-.068-.148.128-.256.237-.148a9.84 9.84 0 0 0 5.56 2.726c.167-.354.049-5.078.246-5.009.875.315 2.381.984 2.952 1.25.118-1.909.187-7.331.413-10.825 0-.216.354-.226.374 0 .398 4.058.529 8.137.394 12.212-.02.325-2.638-.718-3.14-1.053Z" fill="#000"/><path d="M112.337 136.67a7.866 7.866 0 0 1-3.336 2.263 3.514 3.514 0 0 1-2.184 0c-1.555-.511-1.506-1.968-1.132-3.168a8.61 8.61 0 0 1 .817-1.85 10.36 10.36 0 0 0 5.835 2.755Z" fill="#000"/><path d="M109.001 138.933a3.514 3.514 0 0 1-2.184 0c-1.555-.511-1.506-1.968-1.132-3.168 1.673.275 3.267 1.525 3.316 3.168Z" fill="#FF6868"/><path d="M121.528 124.389c.443.413.827 1.082 1.407 1.21.581.128 1.28-.433 1.821-.984.059-.059.098 0 .089.089-.158 1.19-.748 2.361-1.969 2.411-1.22.049-1.672-1.102-1.761-2.323.02-.256.236-.561.413-.403Z" fill="#000"/><path d="M122.129 125.983a2.74 2.74 0 0 0-.463-1.397 1.97 1.97 0 0 0-1.378-.807 1.757 1.757 0 0 0-1.505.59c-.317.37-.546.808-.669 1.28a5.16 5.16 0 0 0-.148.856 3.79 3.79 0 0 0 .197 1.791c.018-.437.088-.869.207-1.289.104-.385.232-.763.383-1.132.325-.738.847-1.329 1.457-1.22.61.108 1.063.63 1.24 1.427.154.827.226 1.667.216 2.509a5.707 5.707 0 0 0 .463-2.608ZM105.104 121.909c-.6.246-1.249.758-1.909.699-.659-.059-1.21-.827-1.584-1.545 0-.069-.098 0-.118.059-.246 1.181 0 2.48 1.21 2.893 1.211.413 2.155-.502 2.687-1.633.088-.217-.04-.571-.286-.473Z" fill="#000"/><path d="M104.229 122.962a2.78 2.78 0 0 1 .984-1.112 2.012 2.012 0 0 1 1.584-.206 1.827 1.827 0 0 1 1.161 1.131c.15.467.191.962.118 1.447-.041.287-.107.57-.197.846a3.884 3.884 0 0 1-.875 1.575c.152-.414.258-.843.315-1.28.05-.391.076-.786.078-1.181 0-.807-.265-1.554-.866-1.692-.6-.138-1.23.157-1.692.836a12.836 12.836 0 0 0-1.181 2.224 5.753 5.753 0 0 1 .571-2.588ZM77.6 122.332c7.016 1.575 14.633-19.258 15.538-21.826-.482 1.643-3.03 10.382-2.45 10.903.75.18 1.525.233 2.293.158a21.732 21.732 0 0 1 1.082-3.08c.177-.473-.098 1.112-.325 3.08h1.378a26.187 26.187 0 0 1 2.411-6.515c.423-.777-.334 3.021-.394 6.495 5.137 0 12.508.079 19.032 1.555a55.15 55.15 0 0 1 4.556 1.22c.689-2.598 1.112-5.442 1.142-4.802a25.233 25.233 0 0 1-.177 5.117c.708.226 1.358.453 1.968.659 1.141-3.621.925-9.929 1.279-8.856a26.844 26.844 0 0 1 1.181 9.958c2.371 1.142 2.952 1.811 3.178 1.181.424-1.141 1.683-11.808-4.339-21.403-6.544-10.45-23.342-17.054-36.41-7.006 0 0-9.418 3.148-12.901 11.277-3.484 8.128-2.086 20.97 1.958 21.885Z" fill="#000"/><path d="m87.795 116.142-6.613-6.918-1.692 1.899 7.33 6.062.975-1.043ZM86.319 118.091l-7.745-5.629-1.318 2.165 8.295 4.664.768-1.2Z" fill="#FFB445"/><path d="M81.251 123.602s-4.448-9.939-8.856-8.522c-4.409 1.417-2.224 15.007 2.106 17.644a4.847 4.847 0 0 0 5.528.066 4.833 4.833 0 0 0 1.36-1.395l-.138-7.793Z" fill="#FFD3C9"/><path d="M73.123 118.957c-.07 0-.109.089-.05.128 3.022 1.968 4.163 5.314 4.763 8.699-.738-1.407-1.968-2.322-3.778-1.476-.099.049 0 .197.049.197a2.95 2.95 0 0 1 3.02 1.633 14.94 14.94 0 0 1 1.044 2.893c.088.325.65.266.6-.088a.188.188 0 0 0 0-.079c.876-4.162-1.25-10.618-5.648-11.907Z" fill="#000"/><path d="M185.994 339.415v-.394h-46.31a20655.557 20655.557 0 0 1-5.904-64.83c-.069-.787-.148-1.584-.217-2.381-.413-4.615-.807-8.984-1.171-13.058-.079-.817-.157-1.624-.226-2.421-.059-.64-.118-1.27-.168-1.899-1.574-17.497-2.558-28.607-2.558-28.607h81.893v.246c.049.423.177 1.378.354 2.824.099.798.217 1.742.354 2.825 0 .216.059.452.089.688.029.237 0 .227.049.345.049.118 0 .266.049.403.63 4.921 1.545 12.075 2.677 20.892 0 .344.089.689.138 1.043l.118.984c0 .167.049.335.069.512.374 2.952.767 6.012 1.19 9.25.138 1.131.286 2.273.433 3.434l.325 2.5v.324c0 .109.059.473.099.709.262 2.139.541 4.317.836 6.534 0 .344.089.699.138 1.053.118.984.256 1.968.384 3.051l3.936 30.682.236 1.831 1.073 8.394c.62 4.831 1.239 9.722 1.869 14.633 0 .127 0 .255.049.393l-39.804.04Z" fill="#666"/><path d="M152.349 339.021h-1.299c-2.785-25.084-5.167-50.187-7.371-75.369-.049-.521-.088-1.053-.138-1.574 0-.364-.068-.728-.098-1.093-.138-1.544-.266-3.089-.403-4.644l-.148-1.762a7995.037 7995.037 0 0 1-1.516-17.959c0-.206.296-.206.325 0 .604 5.813 1.197 11.625 1.781 17.438v.049c0 .157 0 .315.05.472.187 1.968.393 3.937.58 5.905 0 .275.059.541.079.816.098.916.187 1.821.285 2.736 2.096 20.872 4.202 41.714 6.485 62.556.453 4.133.915 8.276 1.388 12.429Z" fill="#000"/><path d="m199.485 225.825-.079.522v.128l-.315 2.066-.049.355-.581 3.798-3.326 21.944-.708 4.635-.335 2.214-1.584 10.362-.089.63-.984 6.525-1.574 10.352-1.378 9.102-.384 2.451-.984 6.544-.078.452-.256 1.762-1.968 12.792-2.519 16.542h-52.765l-10.402-58.767c-.088-.522-.177-.984-.266-1.516-1.604-9.053-3.07-17.349-4.349-24.552-.246-1.407-.492-2.775-.728-4.104-.128-.767-.266-1.515-.394-2.243a4622.703 4622.703 0 0 0-3.936-22.004l90.031.01Z" fill="#000"/><path d="M211.382 225.747v.324a227.47 227.47 0 0 1-.443 2.825 68.86 68.86 0 0 1-.295 1.83c-.049.285-.098.59-.147.895 0 .089 0 .178-.05.276a.466.466 0 0 1 0 .118 83.49 83.49 0 0 0-.177 1.073 610.225 610.225 0 0 1-4.054 21.373c-.295 1.437-.61 2.953-.935 4.409a494.624 494.624 0 0 1-3.149 13.59c-.128.541-.256 1.082-.394 1.614a321.02 321.02 0 0 1-1.879 7.154 239.314 239.314 0 0 1-7.873 24.296 9.153 9.153 0 0 1-.285.728s-1.132.354-3.208 1.142l-1.417.551a98.96 98.96 0 0 0-3.119 1.279l-.984.413-1.693.768a180.752 180.752 0 0 0-12.36 6.13l-.59.315-.768.424v.541c-.157 2.076-.757 9.958-1.604 21.196H84.597c3.188-32.474 6.347-63.875 8.522-85.337.531-5.255.984-9.909 1.407-13.846a1.896 1.896 0 0 0 0-.236c0-.137 0-.275.049-.413.05-.482.089-.984.148-1.407.767-7.636 1.22-12.035 1.22-12.035l115.439.01Z" fill="#666"/><path d="m105.114 238.391-.383 5.058-.148 1.9-.65 8.62c-1.968 25.221-3.788 50.433-5.815 75.634l-.768 9.418H96.19c2.42-28.348 4.756-56.705 7.006-85.072.237-2.952.473-5.973.719-8.955l.147-1.899c.128-1.564.246-3.129.374-4.694.03-.443.709-.443.679-.01ZM195.775 304.126c-9.791 3.366-19.238 8.148-28.272 13.157a.317.317 0 0 0-.157.423.314.314 0 0 0 .179.166c.079.03.167.027.244-.008 9.526-4.084 19.228-8.001 28.538-12.606a.626.626 0 0 0-.532-1.132ZM198.796 238.785c0-.325-.6-.403-.6 0a316.307 316.307 0 0 1-1.594 31.805c-.443 4.92-4.389 32.011-12.891 30.033-1.427-.325-2.156-1.732-2.382-3.877-.266-2.578.709-5.747 1.132-8.315a199.929 199.929 0 0 0 2.194-17.093c.99-10.671.871-21.415-.354-32.061a.276.276 0 0 0-.271-.224.273.273 0 0 0-.175.064.268.268 0 0 0-.095.16c0 14.81-.374 29.591-2.588 44.283-1.073 7.045-4.616 17.663 2.755 18.746 7.371 1.082 12.37-16.67 13.285-21.541 2.558-13.6 2.657-28.243 1.584-41.98Z" fill="#000"/><path d="M183.937 301.312a47.161 47.161 0 0 0-1.968 5.619 12.915 12.915 0 0 0-.797 4.625.332.332 0 0 0 .258.244.333.333 0 0 0 .332-.126 16.093 16.093 0 0 0 1.968-4.487c.65-1.742 1.329-3.464 1.968-5.216a.978.978 0 0 0-.637-.979.98.98 0 0 0-1.124.32ZM145.451 247.651c.013-1.181-.11-2.36-.365-3.513a.177.177 0 0 0-.344 0 13.68 13.68 0 0 0-.394 3.041c-.118 1.161-.275 2.322-.403 3.493a52.298 52.298 0 0 1-1.24 7.085 25.178 25.178 0 0 1-6.495 11.661 33.73 33.73 0 0 1-10.982 7.233c-4.566 1.968-9.378 2.657-14.091 4.045a.177.177 0 0 0 .049.344 40.44 40.44 0 0 0 15.262-3.001 32.606 32.606 0 0 0 11.455-7.302 25.588 25.588 0 0 0 6.682-12.005c.54-2.332.846-4.712.915-7.105.067-1.325.05-2.653-.049-3.976Z" fill="#000"/><path d="M175.228 107.267c.177 17.929 4.045 84.156 20.399 102.823 11.012 12.616 43.525 28.361 55.924 31.313 6.013 1.437 24.405-49.203 18.373-51.87-6.554-2.952-38.477-12.664-42.187-15.922-3.71-3.257-20.852-44.449-33.458-66.63-7.587-13.304-19.14-9.81-19.051.286Z" fill="#FFD3C9"/><path d="M249.386 240.34c9.427 5.412 47.008 13.521 54.576 13.964 7.567.443 29.443.138 30.368-5.619.925-5.757-5.481-6.19-5.481-6.19s10.116-1.594 9.624-7.469c-.394-4.694-9.378-5.766-9.378-5.766s10.991-2.333 9.752-8.099c-1.122-5.255-11.101-3.936-11.101-3.936s8.995-2.884 6.938-7.735c-2.48-5.845-18.048-.856-26.373-1.968-1.889-.256-43.298-19.425-43.298-19.425l-15.627 52.243Z" fill="#FFD3C9"/><path d="M327.953 216.743c-12.054 2.538-17.103 3.237-28.537.246-.227-.06-.364.255-.138.344 10.952 3.936 17.014 3.552 28.901-.049.552-.177.335-.66-.226-.541ZM329.026 229.161c-12.242 2.736-18.225 2.106-30.447-.157a.16.16 0 0 0-.108.028.16.16 0 0 0-.046.205.163.163 0 0 0 .085.072c11.809 3.218 18.835 4.566 30.693.226.541-.197.384-.492-.177-.374ZM328.248 242.387c-12.045 1.791-18.775 1.673-30.358-2.037a.226.226 0 0 0-.167.413c11.445 4.92 19.848 5.147 30.506 1.968.757-.187.777-.452.019-.344Z" fill="#000"/><path d="M265.033 188.057s14.2 1.319 20.98 1.614c6.78.295 26.008-1.535 29.364 3.228 3.769 5.343-12.37 12.359-24.444 11.936 0 0-6.436 18.786-18.057 18.924-2.52 0-14.525-4.871-15.863-7.43l8.02-28.272Z" fill="#FFD3C9"/><path d="M289.683 205.229c-2.243 7.4-7.872 15.873-15.351 17.9a.18.18 0 1 0 .069.354c8.276-1.092 14.918-10.824 16.522-17.575.315-1.299-.659-2.598-1.24-.679Z" fill="#000"/><path d="m264.196 184.879-15.43 57.803s-47.234-20.498-55.707-33.408c-8.473-12.911-19.199-66.985-18.628-96.94.571-29.954 18.599-9.771 21.187-4.92 2.588 4.852 32.178 63.737 33.881 65.007 1.702 1.269 34.697 12.458 34.697 12.458Z" fill="#FFB445"/><path d="M250.695 185.174c-.502 1.535-1.132 3.031-1.604 4.586-.472 1.554-.925 3.001-1.348 4.516-.876 3.081-1.712 6.161-2.559 9.241-1.692 6.17-3.355 12.36-4.831 18.589a542.703 542.703 0 0 1-1.26 5.304 35.112 35.112 0 0 0-1.043 5.107c0 .026.01.051.029.069a.094.094 0 0 0 .069.029.099.099 0 0 0 .099-.098 32.399 32.399 0 0 0 1.565-4.596l1.358-4.517c.925-3.063 1.813-6.13 2.666-9.2 1.673-6.082 3.336-12.153 4.921-18.264.439-1.759.872-3.523 1.299-5.295.413-1.781.669-3.582 1.052-5.373.03-.216-.324-.364-.413-.098Z" fill="#000"/><path d="M217.749 253.625c-2.067 2.204-129.393.561-130.062-.276-1.811-2.253 34.855-132.631 64.947-156.002C159.099 92.32 181.9 94.09 185 95.92c7.164 4.251 13.55 12.616 18.214 27.554 9.319 29.876 16.336 128.212 14.535 130.151Z" fill="#A9C297"/><path d="M218.458 243.371c.068-3.317 0-6.643-.089-9.949-.128-6.574-.453-13.137-.866-19.681-.846-13.196-2.116-26.363-3.936-39.441-1.063-7.38-2.332-14.761-3.936-22.043a.107.107 0 0 0-.032-.076.106.106 0 0 0-.077-.032.105.105 0 0 0-.076.032.103.103 0 0 0-.032.076c1.516 13.078 3.129 26.146 4.399 39.264 1.269 13.117 2.224 26.136 2.814 39.254.167 3.68.345 7.361.473 11.041.127 3.68.403 7.597.501 11.395 0 .433.65.522.65.069.069-3.296.147-6.613.207-9.909Z" fill="#000"/><path d="M133.77 122.135c-25.054 49.016-37.148 118.894-17.231 128.124 19.474 8.995 67.545-15.646 92.501-47.628 4.035-5.166-30.899-39.667-36.341-35.239-7.577 6.17-15.587 16.965-16.414 17.152-1.781.384 3.306-44.942 3.238-67.034-.069-30.8-16.346-13.776-25.753 4.625Z" fill="#FFD3C9"/><path d="M127.787 221.436a51.36 51.36 0 0 1 3.72-8.512 60.597 60.597 0 0 1 4.723-7.872 101.349 101.349 0 0 1 20.38-20.833c.098-.068.197 0 .108.138-1.25 1.142-13.954 14.092-18.697 20.478-1.811 2.441-3.385 5.039-4.92 7.646-.896 1.486-1.762 2.953-2.578 4.517-.817 1.565-1.536 3.1-2.402 4.596a.184.184 0 0 1-.246.088.187.187 0 0 1-.095-.104.189.189 0 0 1 .007-.142Z" fill="#000"/><path d="M169.875 169.882s12.389-15.745 20.97-25.585c4.792-5.531 13.846-14.259 19.219-16.729 8.039-3.661 43.997-13.836 46.653-5.176 2.402 7.872-10.244 9.319-10.244 9.319s13.669-2.953 13.659 5.599c-.01 8.551-16.67 8.856-16.67 8.856s14.308-4.093 13.433 4.989c-.758 7.873-19.908 10.333-19.908 10.333s14.545-5.904 14.554 2.214c0 9.014-28.232 16.286-28.232 16.286-7.558 15.401-16.001 25.881-23.46 31.943-1.82 1.485-29.974-42.049-29.974-42.049Z" fill="#FFD3C9"/><path d="M247.841 145.467c-1.299.079-2.607.197-3.936.276a65.419 65.419 0 0 0-7.597.816c-2.45.443-4.861.984-7.272 1.634-2.411.649-5.028 1.604-7.587 2.204a.149.149 0 0 0-.034.272.153.153 0 0 0 .113.014 66.77 66.77 0 0 1 7.646-1.437c2.509-.413 5.028-.797 7.538-1.181 2.509-.384 4.92-.905 7.321-1.348 1.22-.227 2.45-.394 3.68-.561a21.054 21.054 0 0 0 3.494-.551c.108 0 .069-.187 0-.207a15.984 15.984 0 0 0-3.366.069ZM249.288 131.189c-2.194-.266-11.72.777-14.141 1.181a71.85 71.85 0 0 0-13.718 3.719c-.157.059-.088.315.069.286 4.694-.768 9.378-1.614 14.053-2.451 2.292-.403 12.733-1.968 13.776-2.243.256-.108.197-.492-.039-.492ZM246.838 158.958c-2.106-.147-11.022.906-13.275 1.358a91.55 91.55 0 0 0-12.901 4.468c-.148.079-.089.325.079.276 4.398-1.152 8.758-2.382 13.206-3.317 2.165-.462 10.913-1.791 12.94-2.411a.2.2 0 0 0 .115-.205.2.2 0 0 0-.164-.169Z" fill="#000"/><path d="m167.513 169.449 41.143 46.25s-29.679 24.129-56.494 36.528c-13.245 6.141-27.859 5.727-35.8.984-24.04-14.229.128-102.45 14.525-128.744 14.396-26.293 30.279-38.082 29.944.355-.334 38.437-2.45 54.703-2.45 54.703l9.132-10.076Z" fill="#A9C297"/><path d="M198.56 218.996c-1.161-1.348-2.214-2.785-3.405-4.113a225.041 225.041 0 0 0-3.503-3.828 985.525 985.525 0 0 0-7.272-7.646c-4.862-5.098-9.752-10.166-14.761-15.086-1.437-1.397-2.874-2.785-4.291-4.192a37.425 37.425 0 0 0-4.231-3.877c-.108-.089-.217.059-.148.157a36.785 36.785 0 0 0 3.445 4.084l3.493 3.838a322.394 322.394 0 0 0 7.184 7.725c4.772 5.028 9.565 10.037 14.436 14.967 1.407 1.427 2.834 2.824 4.261 4.222 1.426 1.397 3.001 2.676 4.477 4.044.167.197.512-.059.315-.295ZM129.706 216.703a51.088 51.088 0 0 1 3.729-8.512 60.536 60.536 0 0 1 4.714-7.872 101.587 101.587 0 0 1 20.38-20.912c.108-.068.196 0 .108.138-1.24 1.142-13.954 14.092-18.697 20.478-1.811 2.431-3.385 5.039-4.92 7.637a104.77 104.77 0 0 0-2.588 4.516c-.817 1.526-1.536 3.11-2.392 4.606a.171.171 0 0 1-.313.051.17.17 0 0 1-.021-.13Z" fill="#000"/><path d="M169.117 170.738a8.001 8.001 0 0 0-1.781-1.85c-.591.196-7.016 7.872-8.64 10.096.413-2.568.718-5.363.984-7.951.236-2.841.456-5.685.659-8.532.315-4.527.61-9.073.738-13.619.601-2.411 1.073-4.852 1.526-7.282 0-.099-.128-.138-.148 0a151.57 151.57 0 0 0-1.329 5.146v-1.279c0-3.247.06-6.504-.078-9.752a.099.099 0 0 0-.187 0c-.925 11.327-1.181 22.702-1.968 34.039-.217 3.198-.601 10.037-.571 10.037.029 0 8.689-9.782 8.955-9.949.57.318 1.11.687 1.614 1.102.108.109.324-.039.226-.206ZM118.015 253.684a18.22 18.22 0 0 1-4.92-4.35 25.335 25.335 0 0 1-3.189-5.668 48.824 48.824 0 0 1-3.011-14.072c-1.033-11.435.286-22.928 2.332-34.186 1.162-6.416 2.559-12.793 3.789-19.169a.167.167 0 0 0-.315-.079c-1.751 6.121-3.326 12.31-4.605 18.559.256-3.444.502-6.888.836-10.342 0 0-.079-.05-.079 0a84.812 84.812 0 0 0-1.151 12.3c-.915 4.734-1.643 9.506-2.125 14.299a93.035 93.035 0 0 0-.148 17.526 52.903 52.903 0 0 0 3.129 14.869c1.713 4.28 4.753 8.856 9.398 10.48.089 0 .128-.118.059-.167ZM203.657 209.529c-.383-.315-.629 0-.285.325 1.791 1.87 3.326 3.759 4.989 5.629-7.685 5.491-15.381 10.972-23.263 16.177-8.069 5.324-16.247 10.461-24.601 15.332-2.303 1.348-4.615 2.667-6.889 3.985a36.235 36.235 0 0 1-7.351 3.523c-.098 0-.049.177 0 .148 4.586-1.299 8.729-3.671 12.882-5.904 4.152-2.234 8.413-4.694 12.556-7.145a394.15 394.15 0 0 0 24.552-15.803c4.478-3.13 9.477-6.594 13.689-10.077.167-.167-4.183-4.438-6.279-6.19Z" fill="#000"/><path d="M181.31 122.441c-8.139.669-19.819-13.393-23.677-23.942-.256-.719 1.831-7.607 3.936-16.09 1.28-5.146 2.579-10.913 3.386-16.266.167-1.092 32.316 13.236 32.316 13.236s-4.989 10.706-6.347 20.045a11.491 11.491 0 0 0-.099 2.224v.374c.079 4.27-1.643 19.769-9.515 20.419Z" fill="#FFD3C9"/><path d="M167.041 66.595c.187 9.28 2.499 31.982 20.34 35.092 1.142.215 2.302.327 3.464.334a1.67 1.67 0 0 0 0-.374c-.025-.743.008-1.486.098-2.224 1.358-9.348 6.357-20.055 6.357-20.055s-23.184-10.342-30.259-12.773ZM223.083 24.32s8.177 8.247 5.786 19.042c-2.391 10.795-9.093 20.38-10.185 20.537-1.093.157 4.399-39.579 4.399-39.579Z" fill="#000"/><path d="M174.628 19.174c-7.587 10.145-13.442 45.266-7.981 55.51 7.872 14.889 26.786 22.85 40.927 11.976 13.708-10.53 20.527-56.416 13.885-66.355-9.801-14.633-35.613-16.118-46.831-1.131Z" fill="#FFD3C9"/><path d="M167.907 53.449c3.867 1.722 9.948-9.841 11.808-14.289 1.654-3.936 4.547-16.729 4.852-17.644.305-.915 16.128 13.61 26.569 11.878 10.441-1.732 18.353-9.998 19.012-14.23.659-4.231-10.618-16.512-21.433-18.382-10.814-1.87-27.219 10.185-27.219 10.185s5.728-5.373 5.619-5.904c-.108-.532-7.478 1.446-9.378 6.298 0 0 2.146-6.121 1.634-6.298-.512-.178-6.633 4.536-5.904 8.768 0 0-6.987 4.713-8.296 10.637-1.309 5.924-1.781 26.924 2.736 28.98Z" fill="#000"/><path d="M218.674 32.114c-3.257 1.043-6.524 2.224-9.988 2.263a23.061 23.061 0 0 1-10.707-3.07 34.695 34.695 0 0 1-8.856-6.83c-2.283-2.39-4.222-5.175-6.702-7.36-.619-.551-1.525.325-1.18.984a36.602 36.602 0 0 0 16.729 15.745c7.085 3.228 14.209 2.42 20.753-1.683.02.01 0-.069-.049-.05Z" fill="#000"/><path opacity=".3" d="M220.062 62.659c-2.864 10.54-7.135 19.927-12.449 24.001-14.141 10.874-33.015 2.952-40.927-11.976-2.263-4.26-2.588-12.792-1.633-22.072l11.277-6.672s.689 9.486 2.598 12.143c1.909 2.657 6.947 6.249 11.081 6.8 3.936.522 10.086.925 12.103-.276l3.73 1.388s2.372 3.769 5.324 3.887c2.952.118 5.038-.413 6.366-2.214a26.547 26.547 0 0 0 2.53-5.009Z" fill="#000"/><path d="M199.308 52.317c0-.099-.207.079-.217.177-.334 2.372-1.112 5.038-3.385 5.452-.069 0-.078.138 0 .138 2.706.078 3.69-3.464 3.602-5.767Z" fill="#000"/><path d="M197.625 49.512c-3.749-.984-5.363 6.633-1.889 7.499 3.473.866 5.028-6.74 1.889-7.499ZM212.74 54.63c0-.08.158.157.138.246-.571 2.332-.837 5.097 1.122 6.327.059 0 0 .157 0 .128-2.559-.915-2.175-4.586-1.26-6.701Z" fill="#000"/><path d="M215.358 52.632c3.828.511 2.519 8.138-1.034 7.665-3.552-.472-2.135-8.098 1.034-7.665ZM195.372 45.389a28.439 28.439 0 0 0 3.149-.414c1.21-.167 2.184-.177 3.139-.984a1.648 1.648 0 0 0 .147-1.968c-.915-1.25-2.45-1.407-3.936-1.26a5.904 5.904 0 0 0-3.936 1.811 1.742 1.742 0 0 0 1.437 2.815ZM219.077 49.443a27.544 27.544 0 0 1-2.844-1.427 5.1 5.1 0 0 1-2.627-1.968 1.621 1.621 0 0 1 .512-1.968c1.279-.876 2.775-.521 4.103.089a5.953 5.953 0 0 1 3.09 2.952 1.738 1.738 0 0 1-.338 1.91 1.747 1.747 0 0 1-1.896.412ZM191.839 72.47c.453.66.846 1.536 1.683 1.792a6.16 6.16 0 0 0 2.647-.06.088.088 0 0 1 .078.148 3.224 3.224 0 0 1-3.247.64 2.553 2.553 0 0 1-1.407-2.47c0-.138.187-.148.246-.05ZM195.795 65.966a8.169 8.169 0 0 0 4.576 4.684c.906.386 1.864.638 2.844.748.186.013.374.013.56 0 .177.01.355.01.532 0a.59.59 0 0 0 .58-.423 1.683 1.683 0 0 0 0-.246v-.207c.433-1.801.837-4.576.837-4.576.59.463 3.631 2.696 3.779 1.742 1.2-7.873 2.519-16.73 2.037-24.828a.23.23 0 0 0-.079-.129.23.23 0 0 0-.285 0 .224.224 0 0 0-.079.13c-1.447 7.557-1.555 15.31-2.883 22.928a14.37 14.37 0 0 0-3.523-1.969c-.276 0-.699 5.393-.984 6.18v.089c-3.12-.256-5.216-1.663-7.725-4.32-.069-.138-.286-.02-.187.197Z" fill="#000"/><path d="M202.349 70.256a9.676 9.676 0 0 1-4.419 2.136 4.416 4.416 0 0 1-2.627-.394c-1.762-.886-1.447-2.618-.788-4.015a10.28 10.28 0 0 1 1.319-2.076 12.49 12.49 0 0 0 6.515 4.35Z" fill="#000"/><path d="M197.93 72.391a4.417 4.417 0 0 1-2.627-.393c-1.762-.886-1.447-2.618-.788-4.015 1.929.63 3.661 2.42 3.415 4.408Z" fill="#FF6868"/><path d="M173.329 50.31s-3.877-13.266-9.644-12.233c-5.766 1.034-5.393 18.48-.394 22.535a6.134 6.134 0 0 0 8.857-.492l1.181-9.81Z" fill="#FFD3C9"/><path d="M163.97 43.077a.08.08 0 0 0-.061-.012.085.085 0 0 0-.052.036.088.088 0 0 0-.011.062c.005.021.018.04.036.051 3.464 2.952 4.31 7.41 4.487 11.809-.689-1.89-2.037-3.248-4.507-2.5-.128 0-.078.237 0 .246a3.768 3.768 0 0 1 3.513 2.579c.406 1.24.677 2.52.807 3.818.069.423.778.452.778 0v-.099c1.82-5.136.265-13.629-4.99-15.99Z" fill="#000"/><path d="m190.943 99.05-7.36 20.084-25.438-24.355-6.741 8.276s25.349 39.155 25.448 37.394l7.656-17.359 12.172 11.543-1.879-29.846-3.858-5.737Z" fill="#fff"/><path d="M196.582 119.774c-.472-4.921-.817-9.841-1.515-14.761 0-.177-.296-.246-.335 0-.846 4.792 1.073 23.617 1.191 28.104h-.059c-.502-.502-11.258-10.135-11.356-9.978-1.693 2.775-7.312 15.41-7.696 16.562-4.005-6.22-19.336-28.813-24.03-34.669a.179.179 0 0 0-.227-.031.175.175 0 0 0-.074.097.168.168 0 0 0 .006.121c3.611 6.485 23.883 36.912 24.178 36.794.206.148 7.193-15.43 7.99-18.352 1.84 2.115 12.734 13.028 12.793 12.3a156.57 156.57 0 0 0-.866-16.187ZM309.118 39.829c11.337 13.6 13.01 34.442 13.01 34.442s10.067 21.748 5.678 32.592a20.499 20.499 0 0 1-14.259 12.517l1.761-6.082s-4.753 7.588-18.48 9.546c-13.728 1.958-31.096-3.848-39.904-9.388a35.592 35.592 0 0 1-12.458-13.206l2.628 9.319s-12.99-1.673-19.435-16.257c-6.446-14.583 17.653-32.473 19.936-36.547 2.283-4.074 7.607-35.17 40.002-26.708-.01.03 13.718.404 21.521 9.772Z" fill="#000"/><path d="M318.369 119.055c3.936-1.417 7.321-4.92 9.545-8.305a19.102 19.102 0 0 0 3.228-12.124c-.433-5.156-2.687-9.84-4.921-14.465-2.263-4.753-4.871-9.349-7.045-14.141-.119-.256.275-.433.433-.217a118.497 118.497 0 0 1 7.163 11.533 55.492 55.492 0 0 1 5.472 11.652 20.742 20.742 0 0 1 .443 11.661 20.151 20.151 0 0 1-4.921 8.266c-2.706 2.785-5.973 4.438-9.24 6.426a.183.183 0 0 1-.06.019.172.172 0 0 1-.12-.035.169.169 0 0 1-.061-.109.167.167 0 0 1 .084-.161ZM226.212 78.818c5.019-11.15 16.05-17.487 23.293-26.934 3.936-5.117 7.114-10.894 11.995-15.204.138-.108.335.118.207.237-4.035 3.936-6.623 8.856-9.713 13.442a83.931 83.931 0 0 1-11.051 12.655c-7.252 7.223-15.931 15.744-15.459 26.815.226 5.127 2.686 10.992 7.715 13.059.197.078 0 .393-.148.295a16.327 16.327 0 0 1-8.187-9.92 20.67 20.67 0 0 1 1.348-14.445Z" fill="#000"/><path d="M225.435 81.868a21.284 21.284 0 0 1 4.054-12.222c2.617-3.493 6.436-5.845 10.224-7.872 4.369-2.362 8.955-4.557 11.976-8.65.128-.168.364.049.246.216-4.822 6.77-13.019 9.368-18.913 14.889-6.741 6.318-7.686 16.345-4.222 24.601a34.932 34.932 0 0 0 9.841 12.98.08.08 0 0 1-.002.099.083.083 0 0 1-.045.026.078.078 0 0 1-.052-.007c-7.272-5.845-13.383-14.318-13.107-24.06Z" fill="#000"/><path d="m237.981 228.905.059.236c0 .109.069.246.109.424.196.797.59 2.312 1.131 4.448l5.619 22.072.837 3.218c.118.502.255.984.373 1.515 3.888 15.223 8.788 34.521 13.935 54.714.088.364.177.718.275 1.092l1.968 7.607.059.275c0 .089.05.187.069.285 1.24 4.862 2.48 9.752 3.72 14.624h73.351a8928.72 8928.72 0 0 0-9.289-32.947c-5.048-17.841-9.841-34.53-13.619-47.825-4.252-14.76-7.322-25.408-8.266-28.675-.187-.689-.296-1.043-.296-1.043l-70.035-.02Z" fill="#FFD3C9"/><path d="M262.376 324.791s70.625-18.697 71.944-19.681c1.319-.984-26.353-75.998-26.353-75.998h-69.986l24.395 95.679Z" fill="#FEE3C5"/><path d="M261.776 311.556c21.009-6.938 42.314-13.088 63.835-18.245a.209.209 0 0 1 .217.279.203.203 0 0 1-.089.105c-21 7.017-42.314 13.088-63.826 18.323a.246.246 0 0 1-.137-.462Z" fill="#666"/><path d="M305.723 228.876v.236c.004.072.004.144 0 .217v.806c0 .345-.059.748-.088 1.221a2.02 2.02 0 0 0 0 .246v.059c0 .305-.059.63-.089.984-.029.354-.078.905-.118 1.417v.315c0 .246-.049.511-.069.787-.019.276 0 .335-.049.512s-.059.659-.098.984c-.04.325-.079.895-.128 1.358-.099.977-.207 2.02-.325 3.129l-.118 1.083a406.635 406.635 0 0 1-.876 7.222c-.069.532-.138 1.073-.216 1.624-.049.335-.089.669-.138.984a300.926 300.926 0 0 1-.807 5.511c-.059.384-.118.767-.187 1.151a269.682 269.682 0 0 1-.561 3.425 356.56 356.56 0 0 1-.649 3.7c-.138.777-.286 1.555-.433 2.332l-.414 2.076a230.97 230.97 0 0 1-1.81 8.276c-.197.866-.414 1.722-.63 2.578l-.531 2.067c-.325 1.22-.67 2.44-.985 3.641a103.1 103.1 0 0 1-.551 1.88 117.031 117.031 0 0 1-1.564 4.92c-.168.482-.335.984-.512 1.427H293.61l-.837.315c-.423.167-.984.383-1.653.669l-.492.206-2.125.935-.758.345-.414.196a156.915 156.915 0 0 0-11.572 6.052c-.187.109-.384.217-.581.345l-.157.098h-.108a2.24 2.24 0 0 0-.256.148l-.758.443-.157.098h-.089l-.128.079s0 .59-.078 1.692v.896c0 .403 0 .836-.05 1.318-.049.483 0 .886-.059 1.378v1.88c0 .374 0 .728-.049 1.112 0 .639 0 1.299-.079 1.968 0 1.122-.088 2.312-.137 3.582v2.785a.784.784 0 0 1 0 .137c0 .591 0 1.211-.069 1.831v.305c-.158 4.123-.335 8.758-.532 13.777V339.08h-70.733v-.394c.413-5.432.826-10.85 1.239-16.256.237-3.018.466-6.023.689-9.014v-.541l.325-4.192c0-.542.089-1.083.118-1.614v-.492c.187-2.293.364-4.576.541-6.82.059-.885.128-1.751.197-2.627.217-2.749.427-5.452.63-8.109.249-3.195.492-6.321.728-9.378 0-.403.059-.807.099-1.21.262-3.497.524-6.862.787-10.097l.147-1.83c.128-1.643.256-3.257.364-4.822 0-.492.079-.984.128-1.476.05-.669.109-1.328.158-1.968.108-1.338.207-2.637.305-3.936v-.276c.059-.679.108-1.338.157-1.968.345-4.438.65-8.354.925-11.671l.059-.718c0-.649.099-1.269.138-1.87.177-2.243.335-4.123.453-5.579.059-.876.118-1.594.167-2.165.079-.984.118-1.496.118-1.496h95.385l.127.315Z" fill="#FFD3C9"/><path d="M271.439 332.694c.046-2.263.131-4.52.256-6.77.236-4.557.502-9.093.905-13.639.227-2.559.364-5.147.679-7.705a.119.119 0 0 1 .202-.084.118.118 0 0 1 .034.084c.059 2.253-.049 4.516-.078 6.77-.03 2.253 0 4.507-.109 6.76a316.005 316.005 0 0 1-.728 13.649c-.088 1.27-.206 2.529-.324 3.789a17.906 17.906 0 0 1-.542 3.69.07.07 0 0 1-.029.037.077.077 0 0 1-.089 0 .07.07 0 0 1-.029-.037 17.605 17.605 0 0 1-.177-3.228c-.02-1.122.009-2.214.029-3.316Z" fill="#000"/><path d="M305.723 228.875s-2.036 33.458-10.037 59.91a97.255 97.255 0 0 1-2.076 6.386s-8.03 2.805-20.311 10.116c0 0-.295 7.479-.738 18.924-20.419.984-68.097-.453-74.001-2.096 3.7-48.485 11.809-93.22 11.809-93.22l95.354-.02Z" fill="#FEE3C5"/><path d="M264.462 308.958c3.208-2.233 6.682-4.103 10.087-6.022 3.404-1.919 7.006-3.857 10.637-5.54a173.626 173.626 0 0 1 21.994-7.991c.187-.059.315.256.128.335-7.174 3.08-14.121 6.613-21.256 9.771-3.592 1.595-7.203 3.12-10.824 4.704-3.622 1.585-7.095 3.376-10.717 4.921a.082.082 0 0 1-.035.002.09.09 0 0 1-.078-.066c-.003-.012-.004-.024-.003-.036a.098.098 0 0 1 .067-.078Z" fill="#666"/><path d="M284.084 273.876c.089-3.513.335-7.036.512-10.549.403-8.285.728-16.63 1.496-24.906a.265.265 0 0 1 .521 0c.099 6.416-.147 12.852-.275 19.268-.069 3.208-.158 6.416-.246 9.624a89.36 89.36 0 0 0-.069 9.201c.177 2.312.689 6.809 3.7 7.095 2.844.255 4.408-2.815 5.117-5.058 1.801-5.718 2.44-11.888 3.031-17.822.344-3.523.689-7.026.895-10.559.324-3.598.443-7.212.355-10.824 0-.236.344-.226.354 0 .197 3.621.699 7.233.817 10.874.118 3.641.128 7.242-.099 10.824-.226 3.464-.521 6.948-1.043 10.372a37.113 37.113 0 0 1-2.224 9.181c-1.053 2.431-2.854 4.675-5.579 5.206a5.17 5.17 0 0 1-.984.098c0 .748-.138 1.496-.187 2.234-.079 1.161-.227 2.313-.384 3.474a24.328 24.328 0 0 1-.709 3.356 12.347 12.347 0 0 1-1.181 3.217.174.174 0 0 1-.199.072.178.178 0 0 1-.091-.064.183.183 0 0 1-.034-.106 15.692 15.692 0 0 1 .275-3.316c.158-1.122.315-2.273.541-3.385.227-1.112.433-2.205.66-3.297.157-.738.256-1.496.393-2.244a5.374 5.374 0 0 1-4.024-3.168c-1.309-2.687-1.398-5.846-1.339-8.798ZM273.201 304.579a.14.14 0 0 1 .049-.073.14.14 0 0 1 .167 0 .14.14 0 0 1 .049.073c.089 1.634.069 16.149-.551 19.248a.187.187 0 0 1-.177.128.187.187 0 0 1-.177-.128c-.531-3.129.384-17.634.64-19.248ZM202.86 313.239c22.122.128 44.283 1.112 66.326 3.09.054 0 .107.021.146.06a.207.207 0 0 1-.146.353c-22.142-.059-44.283-1.122-66.335-3.021a.245.245 0 0 1 .009-.482ZM207.948 271.83c5.038.344 9.998.984 15.046.393a26.146 26.146 0 0 0 13.108-5.136c8.295-6.436 11.936-16.965 14.18-26.845a.178.178 0 0 1 .202-.153.18.18 0 0 1 .148.132.166.166 0 0 1 .004.07c-.935 8.571-2.785 17.427-8.315 24.326a26.528 26.528 0 0 1-8.856 7.272 25.85 25.85 0 0 1-11.661 2.401 56.61 56.61 0 0 1-13.964-1.88.295.295 0 1 1 .108-.58Z" fill="#666"/><path d="M315.338 236.049c.502-.206-2.706-27.71-2.706-27.71s12.084-17.359 7.163-31.018c-2.479-6.888-25.742-47.963-36.341-57.183-9.948-8.65-26.402-2.077-32.375 3.779-18.943 18.569-35.652 65.931-46.644 108.462l110.903 3.67Z" fill="#fff"/><path d="M301.738 198.449a61.184 61.184 0 0 0-15.745 2.608c-5.127 1.446-16.453 5.904-19.297 7.045a.06.06 0 0 0-.059.059c0 .016.006.031.017.042a.059.059 0 0 0 .042.017 98.03 98.03 0 0 0 10.982-3.227c5.029-1.712 10.087-3.257 15.233-4.586a70.541 70.541 0 0 1 8.857-1.594.182.182 0 0 0 .167-.197.182.182 0 0 0-.197-.167ZM311.087 201.155a48.567 48.567 0 0 0-16.493 1.456c-.069 0-.049.128 0 .119 2.736-.325 5.461-.64 8.207-.876 2.745-.236 5.52-.364 8.276-.551a.081.081 0 0 0 .056-.071.075.075 0 0 0-.011-.046.08.08 0 0 0-.035-.031Z" fill="#000"/><path d="M260.103 122.047c.561 2.273 11.809 20.665 23.922 18.225 5.078-.984 1.171-20.665 1.171-20.665l4.35-20.597-25.969-16.04s-3.691 38.113-3.474 39.077Z" fill="#FFD3C9"/><path d="m289.546 99.02-2.707 12.793a60.615 60.615 0 0 1-26.156 2.224c.984-11.445 2.893-31.097 2.893-31.097l25.97 16.08Z" fill="#000"/><path d="M240.54 67.353c-8.857 33.32 10.106 42.383 17.29 44.283 6.524 1.722 28.96 6.77 41.212-25.458 12.251-32.228-.433-46.88-15.155-51.613-14.721-4.734-34.481-.532-43.347 32.788Z" fill="#FFD3C9"/><path d="M248.038 63.909c.807.059 1.575 0 2.382 0a3.83 3.83 0 0 0 2.421-.512 1.21 1.21 0 0 0 .275-1.466 3.023 3.023 0 0 0-2.804-1.26 4.389 4.389 0 0 0-3.051.984 1.295 1.295 0 0 0-.351 1.382 1.298 1.298 0 0 0 1.128.872ZM270.691 71.32a22.555 22.555 0 0 1-2.194-.926 3.809 3.809 0 0 1-2.057-1.368 1.219 1.219 0 0 1 .286-1.466 3.028 3.028 0 0 1 3.07-.138 4.475 4.475 0 0 1 2.46 2.087 1.313 1.313 0 0 1-.193 1.414 1.313 1.313 0 0 1-1.372.396ZM264.285 76.594c0-.079.148.148.128.246-.571 2.273-.837 4.98 1.073 6.19.059 0-.001.157-.05.128-2.45-.906-2.076-4.498-1.151-6.564Z" fill="#000"/><path d="M266.853 74.645c3.75.512 2.431 7.98-1.043 7.498-3.473-.482-2.105-7.94 1.043-7.498Z" fill="#000"/><path d="M268.28 75.295c.581.531 1.093 1.397 1.86 1.614.768.216 1.722-.414 2.45-1.063.069-.07.128 0 .109.108-.227 1.437-1.043 2.805-2.608 2.746-1.565-.06-2.214-1.487-2.322-2.953-.059-.315.246-.65.511-.452ZM250.882 73.209c0-.089-.196.078-.216.177-.315 2.322-1.063 4.92-3.287 5.353-.069 0-.088.138 0 .138 2.608.069 3.572-3.415 3.503-5.668Z" fill="#000"/><path d="M249.219 70.443c-3.68-.905-5.225 6.515-1.82 7.351 3.405.837 4.9-6.583 1.82-7.35Z" fill="#000"/><path d="M247.615 70.61c-.659.276-1.397.867-2.106.768-.708-.098-1.249-1.043-1.613-1.919 0-.098-.109-.049-.128 0-.335 1.417-.178 2.952 1.131 3.543 1.309.59 2.362-.522 2.952-1.86.109-.197-.009-.64-.236-.531ZM260.919 94.346c-.629.482-1.279 1.151-2.135 1.122a6.31 6.31 0 0 1-2.431-.916.077.077 0 0 0-.096.012.076.076 0 0 0-.023.046.08.08 0 0 0 .011.05 3.142 3.142 0 0 0 2.785 1.644 2.483 2.483 0 0 0 2.096-1.82c.059-.128-.118-.207-.207-.138ZM252.841 84.2s-1.122 3.356-1.427 4.98c0 .147.354.295.895.432h.059a7.872 7.872 0 0 0 8.05-1.466c.147-.138 0-.344-.197-.275a11.876 11.876 0 0 1-7.439.698c0-.472 2.115-5.688 1.869-5.757a13.953 13.953 0 0 0-3.847.148c2.135-7.065 5.392-13.718 7.41-20.783a.23.23 0 0 0-.125-.26.227.227 0 0 0-.279.073c-3.936 6.74-6.544 14.81-8.935 22.043-.276.905 3.267.315 3.966.167Z" fill="#000"/><path d="M252.437 88.993a9.665 9.665 0 0 0 2.952 3.936 4.489 4.489 0 0 0 2.51.876c1.968 0 2.499-1.654 2.568-3.199a10.39 10.39 0 0 0-.207-2.45 12.535 12.535 0 0 1-7.823.837Z" fill="#000"/><path d="M255.36 92.939a4.484 4.484 0 0 0 2.509.875c1.968 0 2.499-1.653 2.568-3.198-1.997-.354-4.369.443-5.077 2.323Z" fill="#FF6868"/><path d="M298.402 92.525a14.759 14.759 0 0 1-5.619-13.491 38.482 38.482 0 0 1-12.793-15.578c.089.778.689 6.347 1.083 9.172-21.354-8.808-24.68-27.249-24.68-27.249-8.709 5.678-11.11 9.988-12.635 12.065 0 0 2.686-13.679 11.611-21.344 10.923-9.378 22.191-4.812 22.191-4.812a32.1 32.1 0 0 1 28.705 15.863c11.218 18.795-7.863 45.374-7.863 45.374Z" fill="#000"/><path d="M264.974 65.454a41.93 41.93 0 0 0 10.519 6.573 35.565 35.565 0 0 1-14.249-13.285 33.913 33.913 0 0 1-3.395-7.705 23.252 23.252 0 0 1-1.18-9.092.178.178 0 0 0-.303-.126.178.178 0 0 0-.052.126 27.365 27.365 0 0 0-.069 9.132 24.93 24.93 0 0 0 3.405 8.384 28.438 28.438 0 0 0 5.304 6.081l.02-.088Z" fill="#000"/><path d="M293.315 84.988s9.269-9.31 13.619-5.826c4.35 3.484-3.936 17.88-9.929 18.992a5.834 5.834 0 0 1-7.154-4.438l3.464-8.728Z" fill="#FFD3C9"/><path d="M304.464 83.226a.08.08 0 0 1 .056.023.082.082 0 0 1 .023.056c0 .02-.009.04-.023.055a.08.08 0 0 1-.056.023c-4.241.916-6.967 4.222-9.093 7.775 1.437-1.26 3.179-1.782 4.921 0 .088.088 0 .236-.148.196a3.584 3.584 0 0 0-4.104.551c-.901.85-1.71 1.793-2.411 2.815-.246.325-.856 0-.649-.364a.507.507 0 0 0 .049-.08c.768-5.106 5.924-11.483 11.435-11.05Z" fill="#000"/><path d="M288.621 128.483c-.177 2.617-.807 17.319 3.208 25.762a27.69 27.69 0 0 0 14.997 14.151c10.509 4.241 16.729-2.46 12.655-7.823-4.921-6.367-10.599-12.045-12.852-16.306-2.746-5.196-4.842-14.682-5.383-16.139-1.132-3.09-12.389-2.912-12.625.355Z" fill="#FFD3C9"/><path d="M301.364 129.034c1.083-1.053 2.598-4.812 3.533-5.501.935-.689 3.661-1.85 2.657-3.228-1.004-1.378-4.832.837-5.698 1.348-.866.512.719-9.594-1.673-10.017-2.391-.424-2.794 6.603-3.277 6.524-.482-.079-.836-7.42-2.952-7.558-2.116-.137-.984 7.715-1.131 7.725-.148.01.905-5.904-.896-6.337-1.801-.433-1.968 7.636-2.332 7.666-.364.029-1.762-4.468-3.503-3.828-1.742.639 1.259 7.262 1.436 7.872.177.61.669 5.599 1.565 6.239.895.64 11.504-.148 12.271-.905Z" fill="#FFD3C9"/><path d="M299.957 122.992a19.449 19.449 0 0 0-4.871-.748c-1.666.022-3.321.27-4.92.738-.118 0-.089.227 0 .187a21.746 21.746 0 0 1 4.851-.531 19.555 19.555 0 0 1 4.852.502c.137.019.177-.128.088-.148ZM292.882 117.412v-2.942c0-.433-.079-.925-.059-1.476 0-.167 0-.187-.069 0-.13.956-.199 1.919-.207 2.883 0 .492.049.984.079 1.466.023.528.075 1.053.157 1.575 0 .069.118.069.118 0-.019-.522-.019-.994-.019-1.506Z" fill="#000"/><path d="M306.826 168.396a27.693 27.693 0 0 1-14.997-14.151c-3.051-6.426-3.425-16.463-3.346-22.062l13.472-1.555c.984 3.543 2.637 9.772 4.674 13.649 2.253 4.251 7.961 9.939 12.852 16.296 4.113 5.363-2.155 12.054-12.655 7.823Z" fill="#FF6868"/><path d="M323.574 225.865c-.167.679 1.309 6.022.473 7.075-.837 1.053-28.164 2.509-28.863-1.053-.757-3.848 11.711-7.794 11.366-8.433 0 0-3.601-6.042-4.773-17.005-.984-9.092.315-13.717 5.6-21.649 7.666-11.533 25.733-6.406 25.959 6.357.158 8.394-8.856 16.562-9.683 19.76-1.033 4.064-.03 14.741-.079 14.948Z" fill="#000"/><path d="M301.403 184.81c.256-.531 9.477 1.191 19.504.128 12.163-1.289 19.554-5.048 19.937-4.34 1.496 2.697 4.32 12.675 1.968 20.951-2.351 8.276-15.695 11.11-24.798 10.657-9.102-.453-23.273-5.373-16.975-25.359a3.95 3.95 0 0 1 .364-2.037Z" fill="#FF6868"/><path d="M341.1 181.1c-13.284 7.252-38.575 5.097-39.696 3.71 0 0 2.529-19.366 7.016-26.845.787-1.299 14.682-3.936 18.825-.896 7.134 5.216 14.091 23.903 13.855 24.031Z" fill="#FF6868"/><path d="M318.201 231.001c-.423.551-1.161 6.042-2.342 6.682-1.18.64-26.894-8.738-26.136-12.291.807-3.828 13.777-2.558 13.777-3.286 0 0-.935-6.968 2.283-17.517 2.666-8.758 5.668-12.497 13.658-17.713 11.573-7.606 26.176 4.192 21.384 16.021-3.159 7.784-14.653 11.808-16.66 14.387-2.578 3.326-5.855 13.58-5.964 13.717Z" fill="#FF6868"/><path d="M307.022 156.42c0-.61-2.696-6.888-2.135-7.41.561-.521 13.078-2.617 13.915-1.633.836.984 2.883 6.799 2.794 8.256-.088 1.456-9.151 8.984-12.231 8.394-3.081-.591-2.283-2.844-2.343-7.607Z" fill="#FFD3C9"/><path d="M334.291 156.774c-6.889 5.127-14.86 4.212-19.022 2.952-6.455-1.968-22.633-10.185-20.527-22.456 1.436-8.295 12.044-23.676 18.018-26.077 8.325-3.336 23.41 1.368 30.505 12.084 5.708 8.581-2.086 28.321-8.974 33.497Z" fill="#FFD3C9"/><path d="M321.035 130.205c-.395-.349-.77-.72-1.121-1.112a2.552 2.552 0 0 1-.925-1.358.812.812 0 0 1 .541-.827 1.969 1.969 0 0 1 1.968.689c.552.485.903 1.159.984 1.889a.865.865 0 0 1-1.447.719ZM306.265 122.382c.501.145 1.01.26 1.525.344a2.485 2.485 0 0 0 1.624.059.805.805 0 0 0 .413-.895 2.033 2.033 0 0 0-1.594-1.25 2.957 2.957 0 0 0-2.116.177.859.859 0 0 0-.256 1.286.86.86 0 0 0 .404.279ZM312.396 139.868a5.663 5.663 0 0 1-.148.669c-.246.886-.876 2.322-2.332 2.185a2.602 2.602 0 0 1-1.457-.699 6.89 6.89 0 0 1-1.584-2.952 6.178 6.178 0 0 0 5.521.797Z" fill="#000"/><path d="M312.248 140.537c-.246.886-.876 2.323-2.332 2.185a2.595 2.595 0 0 1-1.457-.699 3.808 3.808 0 0 1 1.899-1.348 3.947 3.947 0 0 1 1.89-.138Z" fill="#FF6868"/><path d="M318.064 131.553c2.43 1.24-.207 6.002-2.46 4.861-2.254-1.142.423-5.895 2.46-4.861ZM306.658 125.727c-1.968-1.348-4.792 3.1-2.952 4.34 1.84 1.24 4.556-3.218 2.952-4.34Z" fill="#000"/><path d="M311.136 126.928c-1.85 2.804-1.092 1.86-3.061 4.576-.679-.276-3.709-1.712-3.621-1.339a30.114 30.114 0 0 0 1.86 4.183c-.738.639-2.529.836-2.49.935 1.86 5.579 6.584 5.313 8.444 4.713.374-.118.265-.167.059-.138-1.693.256-6.072-.255-7.43-4.113a4.794 4.794 0 0 0 2.027-1.141c.069-.059-1.102-2.382-1.466-3.504.984.394 2.047.984 2.736 1.27.157.069 1.781-2.037 3.208-5.304a.151.151 0 0 0-.178-.212.15.15 0 0 0-.088.074ZM349.809 130.893a6.889 6.889 0 0 0-1.968-2.745 8.885 8.885 0 0 0-1.486-1.083 2.523 2.523 0 0 0 0-.275c.11-.766.156-1.539.138-2.313a22.546 22.546 0 0 0-.551-4.064 22.287 22.287 0 0 0-2.549-7.095h-.069c1.24 2.224 1.476 4.743 1.88 7.203.108.699.206 1.408.275 2.126a14.617 14.617 0 0 0-.334-1.063 18.414 18.414 0 0 0-.591-2.086 17.345 17.345 0 0 0-3.798-6.367 13.663 13.663 0 0 0-6.003-3.641c-1.247-.37-2.52-.65-3.808-.836a33.244 33.244 0 0 0-1.703-.246l-2.027-.256a23.79 23.79 0 0 1-8.955-2.441c2.746 1.624 5.816 2.116 8.906 2.569l1.968.305c.551.088 1.112.177 1.663.295.551.118 1.152.226 1.722.374a15.563 15.563 0 0 1 6.574 3.326 17.09 17.09 0 0 1 3.365 4.182 19.463 19.463 0 0 0-9.84-6.888 19.844 19.844 0 0 0-2.067-.522 30.216 30.216 0 0 0-1.633-.275 40.446 40.446 0 0 0-2.037-.217c-1.083-.098-2.165-.177-3.258-.265-3.424-.286-6.809-.984-9.486-3.287 0 0-.098 0-.059.069 3.208 3.287 8.01 3.523 12.458 4.103.679.089 1.339.178 1.968.296.492.088.984.177 1.447.295h.089a22.008 22.008 0 0 1 10.352 5.776 24.894 24.894 0 0 0-10.746-5.225 24.942 24.942 0 0 0-1.476-.315c-.492-.089-1.279-.246-1.968-.335a34.42 34.42 0 0 0-2.628-.314c-12.409-1.083-11.582-6.328-11.582-6.328a7.613 7.613 0 0 0-.373 3.955 7.614 7.614 0 0 0 1.672 3.603 13.353 13.353 0 0 0 4.005 3.306 7.322 7.322 0 0 0-2.339 2.16 7.324 7.324 0 0 0-1.204 2.947 8.35 8.35 0 0 0 0 3.159 8.318 8.318 0 0 1 .266-3.228 8.68 8.68 0 0 1 3.484-4.92l.147.089a9.081 9.081 0 0 0-3.375 4.713 8.948 8.948 0 0 0-.177 4.301s1.437-5.678 6.18-5.846c.252-.02.505-.02.757 0h.148c3.11.443 4.497 3.7 6.731 5.826-1.722-1.171-2.854-2.952-4.507-4.241a4.495 4.495 0 0 0-2.736-1.083h-.383a1.314 1.314 0 0 0-.266 0 6.525 6.525 0 0 0-1.968.699 7.077 7.077 0 0 0-3.464 3.936h.049a7.265 7.265 0 0 1 3.572-3.789c.298-.137.608-.249.925-.334l.354-.079a3.935 3.935 0 0 1 3.297.817c.83.699 1.6 1.466 2.303 2.293a9.84 9.84 0 0 0 4.694 3.257c.403.102.815.171 1.23.207a7.35 7.35 0 0 0 3.277-.177l-.443.511a18.881 18.881 0 0 0-7.026 9.418 18.453 18.453 0 0 0-.187 10.283 19.24 19.24 0 0 0 1.259 3.444c.069.158.148.305.227.453.04.095.086.187.137.275h.089l-.148-.324c-.078-.168-.147-.335-.216-.502a18.64 18.64 0 0 1-1.161-3.809 19.614 19.614 0 0 1 6.612-18.382l-.373.492c-2.618 2.805-4.921 5.905-5.56 9.782a10.554 10.554 0 0 0 1.22 6.888l.216.345c.572.889 1.199 1.74 1.88 2.548l.216.266.089.217.413.934c.059.138.118.256.177.384.797 1.801 1.565 3.425 2.037 4.635.236.532.392 1.096.463 1.673a3.938 3.938 0 0 1-1.417 3.336c.256 0 4.861-.856 8.62-6.475.128-.177.236-.354.354-.541a33.318 33.318 0 0 0 3.868-5.314c2.175-3.72 4.28-8.473 3.601-12.882a7.995 7.995 0 0 0-1.348-3.335 8.904 8.904 0 0 1 1.653 2.194c.984 1.968.985 4.231 1.034 6.357a17.864 17.864 0 0 0-.768-6.879Zm-20.517 12.695a.7.7 0 0 1-.069-.118 11.441 11.441 0 0 1-.856-6.889 17.696 17.696 0 0 1 2.952-7.272 18.699 18.699 0 0 0-2.726 7.223 16.588 16.588 0 0 0 1.21 6.888c.286.817.601 1.644.935 2.451a16.645 16.645 0 0 1-1.446-2.283Zm19.346-8.857a22.457 22.457 0 0 1-2.214 8.02 31.917 31.917 0 0 1-2.431 4.369c5.127-9.309 4.438-15.134 3.435-17.939a10.729 10.729 0 0 1 1.19 5.501l.02.049Z" fill="#000"/><path d="M326.871 144.828s6.475-3.936 9.949-2.165c3.68 1.909.688 8.857-3.317 10.165-4.694 1.526-8.462-2.174-8.462-2.174l1.83-5.826Z" fill="#FFD3C9"/><path d="M333.543 145.871a9.804 9.804 0 0 1 2.391-.236c.089 0 .098-.148 0-.168-3.169-.413-7.075.984-8.394 4.114 0 .108.098.206.177.118.079-.089.433-.443.64-.669a6.394 6.394 0 0 1 2.647-.935 5.51 5.51 0 0 1 2.824.6c.099.049.167-.098.069-.157a5.297 5.297 0 0 0-4.34-.66 8.294 8.294 0 0 1 1.968-1.328 9.86 9.86 0 0 1 1.969-.679h.049ZM301.03 123.503a61.135 61.135 0 0 0-2.736 4.832 41.894 41.894 0 0 0-2.224 5.068 15.406 15.406 0 0 0-.354 10.657 14.964 14.964 0 0 0 2.657 4.704 23.588 23.588 0 0 0 3.985 3.749c1.466 1.102 3.06 2.076 4.586 3.139a20.43 20.43 0 0 1 2.184 1.752 5.541 5.541 0 0 1 1.545 2.302c-.748-1.742-2.411-2.765-3.936-3.749s-3.169-1.909-4.713-2.952a18.341 18.341 0 0 1-7.007-8.67 15.795 15.795 0 0 1 .522-11.1 43.984 43.984 0 0 1 5.491-9.732Z" fill="#000"/><path d="M280.374 171.535c1.968 1.437 13.059 10.283 21.65 11.307 9.122 1.092 17.348-3.543 20.438-5.767 8.483-6.111 2.273-14.554-3.936-13.983-7.38.679-12.576 3.631-17.014 3.287-5.412-.424-13.777-4.566-15.194-4.862-2.972-.61-8.374 8.266-5.944 10.018Z" fill="#FFD3C9"/><path d="M287.085 161.901c-.295-1.368-2.489-4.398-2.558-5.461-.069-1.063.364-3.769-1.21-3.671-1.575.099-1.732 4.182-1.752 5.117-.02.935-7.134-5.294-8.64-3.631-1.506 1.663 3.769 5.422 3.474 5.767-.296.344-6.2-3.002-7.332-1.437-1.131 1.565 5.531 4.556 5.472 4.684-.059.128-4.133-3.592-5.393-2.421-1.259 1.171 4.989 5.304 4.832 5.6-.158.295-4.35-.827-4.704.846-.354 1.673 6.288 2.588 6.888 2.755.601.167 4.704 2.244 5.639 1.86.935-.384 5.491-9.034 5.284-10.008Z" fill="#FFD3C9"/><path d="M270.308 160.612c-.099-.059-.168 0-.079.069a19.237 19.237 0 0 0 5.796 3.139c-.925-.551-4.655-2.539-5.717-3.208Z" fill="#000"/><path d="M322.403 177.095c-3.09 2.244-11.316 6.888-20.439 5.776-6.612-.797-14.878-6.465-19.159-9.269l5.471-11.475c3.169.984 9.044 3.937 13.187 4.271 4.428.345 9.643-2.598 17.014-3.267 6.249-.58 12.448 7.863 3.926 13.964Z" fill="#FF6868"/><path d="M260.526 144.178c-.846 11.169-9.162 92.668-8.296 96.654 0 0-39.214 34.274-51.564 10.598-8.02-15.381 23.096-91.91 41.035-116.364 8.237-11.238 20.596-14.328 18.825 9.112Z" fill="#FFD3C9"/><path d="m211.441 182.359 47.235-3.936a306.225 306.225 0 0 0 3.405-36.302c.738-20.606-8.729-25.014-25.822-3.089a176.597 176.597 0 0 0-24.818 43.327Z" fill="#fff"/><path d="M258.105 171.466c-3.533-.108-7.105.315-10.628.512-3.365.177-6.74.364-10.096.659-6.98.61-13.934 1.365-20.862 2.264-.128 0-.118.216 0 .206a809.243 809.243 0 0 0 20.665-1.328c3.435-.266 6.889-.62 10.274-.984 3.385-.364 7.114-.483 10.598-1.112.177-.03.177-.217.049-.217ZM259.995 173.651c.275-1.703.482-3.415.669-5.137l.118-1.063a63.11 63.11 0 0 0 1.781-6.229c0-.078-.089-.118-.118 0-.59 1.545-1.063 3.139-1.506 4.743a76.24 76.24 0 0 0 .483-7.921.074.074 0 0 0-.026-.032.074.074 0 0 0-.038-.012.075.075 0 0 0-.039.012.072.072 0 0 0-.025.032c-.601 3.414-.984 6.888-1.447 10.293-.236 1.663-1.181 9.841-1.279 9.841a9.103 9.103 0 0 0-1.457.236c-.265.118-.098.147 0 .147.099 0 2.126.099 2.126.099s.531-3.543.758-5.009Z" fill="#000"/><path d="M353.214 167.205a5.902 5.902 0 0 1 .984 7.016s5.658-.875 8.237 3.12c1.328 2.056-.788 5.983-.788 5.983s4.566-.512 6.643 3.188c1.653 2.952-.719 6.436-.719 6.436s4.606 1.555 5.324 5.097c1.466 7.174-22.171 23.962-32.001 17.841-4.586-2.844 1.417-6.632 1.417-6.632s-9.939 3.365-13.531-1.427c-3.592-4.793 4.448-9.231 4.448-9.231s-9.664 3.169-12.872-2.165c-3.355-5.55 5.501-8.62 5.501-8.62s-7.784.177-9.309-4.477c-2.529-7.676 15.479-8.67 19.799-13.59l-5.648-8.758s19.041 2.391 22.515 6.219Z" fill="#FFD3C9"/><path d="M367.237 193.558a.079.079 0 0 1 .05-.011c.018.003.034.01.046.023a.075.075 0 0 1 .023.046.082.082 0 0 1-.011.051c-6.426 7.41-15.745 13.589-25.379 15.833-.315.079-.571-.403-.246-.551 9.467-4.212 17.536-8.709 25.517-15.391ZM361.765 183.344c.089-.079.207.069.128.157-6.672 7.607-17.378 14.269-28.764 15.558-.393 0-.787-.305-.334-.394 7.488-1.476 21.806-9.319 28.97-15.321ZM325.021 187.644c10.825-1.653 20.114-6.623 28.882-13.098.108-.078.216.089.138.187-3.425 4.33-9.437 7.873-14.348 10.234a29.006 29.006 0 0 1-14.613 3.061c-.207-.01-.295-.345-.059-.384Z" fill="#000"/><path d="M282.608 261.773c19.622-1.791 40.445-6.475 55.934-19.996a10.228 10.228 0 0 0 3.464-5.708c7.055-5.904 6.367-11.061 6.367-11.061 4.871-7.537 3.454-12.674 3.454-12.674s8.207-7.066 4.753-12.734c-3.838-6.367-14.614 4.802-24.297 7.322-22.171 5.766-55.313 7.774-61.867 8.797l12.192 46.054Z" fill="#FFD3C9"/><path d="M313.301 229.299c6.495-1.83 12.911-3.454 19.13-6.15 6.809-2.953 12.871-6.958 19.149-10.825a.179.179 0 0 1 .126-.02.172.172 0 0 1 .106.07.175.175 0 0 1-.025.235c-10.234 8.857-25.024 15.165-38.378 17.024-.354.01-.433-.236-.108-.334ZM314.836 243.194c6.219-2.136 17.122-5.904 33.399-18.353.059-.049.147 0 .088.089a69.93 69.93 0 0 1-33.389 18.559c-.403.098-.511-.118-.098-.295ZM315.8 250.643c10.441-4.025 16.513-7.872 26.137-14.583.059 0 .137 0 .078.088-10.135 8.768-14.81 10.825-26.126 14.869-.374.148-.492-.216-.089-.374Z" fill="#000"/><path d="M305.123 212.186c-3.188-.394-3.001-2.066 1.88-5.019 4.881-2.952 26.717-10.499 23.44-17.919-3.277-7.42-33.92 3.69-41.675 9.23-7.754 5.54-18.352 17.211-18.352 17.211 6.396-.925 22.131-1.781 34.707-3.503Z" fill="#FFD3C9"/><path d="M310.664 189.248a49.37 49.37 0 0 1 9.584-2.638 24.242 24.242 0 0 1 5.009-.393c.868.019 1.73.142 2.568.364a5.141 5.141 0 0 1 2.392 1.328 3.702 3.702 0 0 1 .984 2.647 5.504 5.504 0 0 1-.778 2.598 13.743 13.743 0 0 1-3.454 3.759 36.651 36.651 0 0 1-8.6 4.98c1.417-.847 2.824-1.703 4.172-2.647a35.961 35.961 0 0 0 3.877-2.953 14.213 14.213 0 0 0 3.08-3.611 4.576 4.576 0 0 0 .61-2.096 2.619 2.619 0 0 0-.688-1.88c-.984-.984-2.638-1.308-4.202-1.397a28.71 28.71 0 0 0-4.852.187c-1.623.167-3.237.443-4.851.758-1.614.315-3.238.58-4.851.994ZM328.721 207.797a38.339 38.339 0 0 0 5.452-1.682 47.223 47.223 0 0 0 5.048-2.608c1.653-.984 3.326-1.889 5.009-2.785 1.682-.895 3.326-1.83 5.127-2.647a10.956 10.956 0 0 1 2.853-.837 6.052 6.052 0 0 1 3.061.286 3.937 3.937 0 0 1 2.234 2.194c.368.962.5 1.998.383 3.021a11.907 11.907 0 0 1-2.017 5.491 18.12 18.12 0 0 1-3.936 4.232l.049-.177a6.9 6.9 0 0 1 .197 1.968 8.68 8.68 0 0 1-.295 1.968c.103-.651.143-1.31.118-1.968a7.194 7.194 0 0 0-.315-1.899v-.099l.088-.079a20.194 20.194 0 0 0 3.612-4.32 11.802 11.802 0 0 0 1.702-5.215 5.447 5.447 0 0 0-.354-2.598 3.041 3.041 0 0 0-1.752-1.683c-1.623-.59-3.523-.108-5.215.561-3.405 1.565-6.751 3.484-10.165 5.186a44.203 44.203 0 0 1-5.226 2.401 32.445 32.445 0 0 1-5.658 1.289Z" fill="#000"/><path d="M269.894 215.444c6.278.757 34.294 39.48 25.517 42.54-41.331 14.387-78.439 6.81-86.302 3.218-10.313-4.713-11.75-18.795-7.754-25.044 5.796-9.063 62.33-21.472 68.539-20.714Z" fill="#FFD3C9"/><path d="M221.252 225.884c20.99-9.398 49.105-10.825 49.203-10.825.413-.108 1.043.581.807.65-4.35 1.161-33.733 5.422-49.655 10.736-.197.01-.502-.502-.355-.561Z" fill="#000"/><path d="M106.591 56.932c1.702 9.575 10.125 17.418 10.125 17.418s11.307-2.077 17.891-9.23c5.491-5.964 5.51-14.151.541-17.389-7.125-4.645-13.108 8.384-13.108 8.384s1.968-14.2-6.544-14.121c-5.924.059-10.323 6.957-8.905 14.938ZM4.948 87.014c5.904 4.025 14.377 3.622 14.377 3.622s4.723-7.036 4.34-14.18c-.325-5.905-4.626-10.166-8.857-9.211-6.111 1.358-2.322 11.208-2.322 11.208S6.02 70.118 1.66 74.645c-3.011 3.149-1.644 9.014 3.287 12.37ZM416.361 135.755c-.502 7.134 4.103 14.249 4.103 14.249s8.443.541 14.426-3.385c4.99-3.277 6.466-9.113 3.504-12.311-4.251-4.595-10.825 3.622-10.825 3.622s3.936-9.772-2.135-11.248c-4.281-1.024-8.65 3.119-9.073 9.073ZM89.242 18.406c2.39 4.084 7.557 6.249 7.557 6.249s4.822-2.854 6.623-7.233c1.505-3.65.138-7.39-2.677-8.03-4.044-.925-4.585 6.033-4.585 6.033s-1.486-6.82-5.364-5.354c-2.696 1.063-3.582 4.92-1.554 8.335ZM437.065 111.557c2.391 4.093 7.558 6.258 7.558 6.258s4.822-2.854 6.622-7.233c1.506-3.65.138-7.39-2.676-8.03-4.045-.925-4.586 6.033-4.586 6.033s-1.486-6.82-5.363-5.354c-2.696 1.024-3.543 4.921-1.555 8.326Z" fill="#C7594D"/></svg>