<svg width="56" height="56" fill="none" xmlns="http://www.w3.org/2000/svg"><rect width="56" height="56" rx="28" fill="#C7594D"/><path d="M35.563 23.25a.937.937 0 1 0 0-1.875.937.937 0 0 0 0 1.875ZM20.438 21.375a.937.937 0 1 0 0-1.875.937.937 0 0 0 0 1.875ZM31.813 21.375a.937.937 0 1 0 0-1.875.937.937 0 0 0 0 1.875Z" fill="#fff"/><path d="M43.063 25.125h-1.034a4.693 4.693 0 0 0-1.351-2.443 4.684 4.684 0 0 0-.437-3.65 4.684 4.684 0 0 0-2.944-2.204 4.684 4.684 0 0 0-2.203-2.944 4.683 4.683 0 0 0-3.651-.437A4.684 4.684 0 0 0 28.063 12a5.025 5.025 0 0 0-3.497 1.45 4.684 4.684 0 0 0-3.66.434 4.684 4.684 0 0 0-2.204 2.943 4.684 4.684 0 0 0-2.943 2.204 4.684 4.684 0 0 0-.437 3.651 4.695 4.695 0 0 0-1.351 2.443h-1.034a.938.938 0 0 0-.937.938 15.962 15.962 0 0 0 7.5 13.516v1.608A2.816 2.816 0 0 0 22.313 44h11.375a2.816 2.816 0 0 0 2.812-2.813V39.58A15.962 15.962 0 0 0 44 26.062a.938.938 0 0 0-.938-.937Zm-26.095-1.374a.938.938 0 0 0 .314-1.171 2.816 2.816 0 0 1 .1-2.611 2.816 2.816 0 0 1 2.212-1.393c.457-.037.82-.4.857-.857a2.816 2.816 0 0 1 1.393-2.211 2.816 2.816 0 0 1 2.61-.1.937.937 0 0 0 1.172-.315c.505-.728 1.484-1.218 2.436-1.218.92 0 1.784.456 2.312 1.219a.937.937 0 0 0 1.171.313 2.816 2.816 0 0 1 2.611.1 2.816 2.816 0 0 1 1.393 2.212c.037.457.4.82.857.857a2.816 2.816 0 0 1 2.211 1.393c.46.796.497 1.772.1 2.61a.938.938 0 0 0 .314 1.172 2.83 2.83 0 0 1 1.055 1.374H15.914a2.829 2.829 0 0 1 1.054-1.374Zm17.657 17.436c0 .517-.42.938-.938.938H22.313a.939.939 0 0 1-.938-.938v-1.062h13.25v1.063Zm.444-2.937H20.93a14.114 14.114 0 0 1-7.025-11.262h28.188a14.114 14.114 0 0 1-7.025 11.262Z" fill="#fff"/></svg>