<svg width="56" height="56" fill="none" xmlns="http://www.w3.org/2000/svg"><rect width="56" height="56" rx="28" fill="#C7594D"/><path d="M13.857 28.504c-.42.966-.512 1.992-.252 2.964a4.67 4.67 0 0 0 2.957 3.185c.584 1.332 1.834 3.47 3.475 5.52 3.31 4.135 7.975 3.81 8.046 3.826 1.52 0 2.983-.718 3.913-1.921.93-1.205 1.265-2.89.872-4.397-.13-.5-.18-.874-.18-1.335 0-2.77 2.594-4.882 5.345-4.332l2.97.594a.937.937 0 0 0 1.097-.712c.207-.913.326-2.12-.587-3.367a3.837 3.837 0 0 0-.35-.413 5.61 5.61 0 0 0 2.835-4.864 5.607 5.607 0 0 0-3.76-5.297 5.63 5.63 0 0 0-5.614-5.951 5.714 5.714 0 0 0-4.61 2.34l-.035-.016a5.607 5.607 0 0 0-6.011-2.134 5.637 5.637 0 0 0-3.789 3.437 4.566 4.566 0 0 0-2.064.072 4.54 4.54 0 0 0-2.818 2.197 4.701 4.701 0 0 0-.574 2.693c-1.985.938-3.165 3.198-2.564 5.442.26.973.862 1.837 1.698 2.469ZM30.541 16.56a.938.938 0 0 0 .636-.515c.617-1.316 1.97-2.167 3.447-2.167a3.754 3.754 0 0 1 3.75 3.75c0 .258-.032.525-.096.816a.938.938 0 0 0 .752 1.127 3.737 3.737 0 0 1 3.093 3.681c0 1.963-1.544 3.598-3.515 3.722a.937.937 0 0 0-.02 1.87 1.954 1.954 0 0 1 1.413.793c.217.297.335.586.362.93l-1.962-.391c-3.912-.783-7.589 2.218-7.589 6.17 0 .625.07 1.15.242 1.807.245.944.033 2.035-.542 2.778a3.038 3.038 0 0 1-.535.536s-2.306-9.353-2.335-9.489l2.652-1.326a.937.937 0 1 0-.838-1.677l-2.034 1.017c-.015-.924.088-1.85.313-2.75a7.124 7.124 0 0 1 3.894-4.731l3.385 2.439a.937.937 0 1 0 1.096-1.521l-2.236-1.611 1.91-.467a.937.937 0 0 0-.445-1.822l-2.866.701a8.995 8.995 0 0 0-5.084 3.415l-.35-1.538a.937.937 0 1 0-1.828.416l.852 3.745a8.96 8.96 0 0 0-.147.52 12.549 12.549 0 0 0 0 6.05l2.226 9.017c-2.672-2.911-4.348-6.69-4.741-10.727a.937.937 0 0 0-.485-.733 2.806 2.806 0 0 1-1.477-2.456c0-.81.345-1.558.972-2.106a.937.937 0 0 0 0-1.412 2.768 2.768 0 0 1-.973-2.106 2.815 2.815 0 0 1 2.813-2.812c.517 0 .937-.42.937-.938A2.815 2.815 0 0 1 28 15.753c.627 0 1.23.217 1.743.627.225.179.519.245.798.18Zm-14.52 5.546a.937.937 0 0 0 .663-1.148 2.868 2.868 0 0 1 .252-2.147 2.682 2.682 0 0 1 1.664-1.297 2.773 2.773 0 0 1 1.846.154.937.937 0 0 0 1.298-.694 3.761 3.761 0 0 1 2.709-2.97 3.747 3.747 0 0 1 2.194.075 4.702 4.702 0 0 0-3.255 3.628 4.695 4.695 0 0 0-3.828 4.608c0 1.018.34 2.004.954 2.812a4.649 4.649 0 0 0-.954 2.812 4.67 4.67 0 0 0 2.022 3.835 20.617 20.617 0 0 0 4.054 10.012 8.286 8.286 0 0 1-4.139-2.784c-1.633-2.04-2.928-4.284-3.364-5.447a.938.938 0 0 0-.658-.582 2.807 2.807 0 0 1-2.063-1.99c-.265-.99.178-1.857.466-2.287a.937.937 0 0 0-.365-1.363c-.783-.384-1.347-1.034-1.547-1.783-.4-1.493.54-3.04 2.05-3.444Z" fill="#fff"/></svg>