<svg width="372" height="350" fill="none" xmlns="http://www.w3.org/2000/svg"><g clip-path="url(#a)"><path d="M116.011 177.986H0v95.844h116.011v-95.844Z" fill="#FFB445"/><path d="M161.964 177.986h-45.965v95.856h45.965v-95.856Z" fill="#FFB445"/><path opacity=".1" d="M161.964 177.986h-45.965v95.856h45.965v-95.856Z" fill="#000"/><path d="M158.799 267.242a3205.5 3205.5 0 0 1-10.121-20.523l-9.973-20.609-9.813-20.707a1725.193 1725.193 0 0 1-9.692-20.854 2503.845 2503.845 0 0 1 10.121 20.523l9.961 20.609 9.814 20.707a2417.826 2417.826 0 0 1 9.703 20.854Z" fill="#FFB445"/><path d="M158.799 184.586a2419.515 2419.515 0 0 1-9.691 20.854l-9.814 20.707-9.961 20.609a2273.397 2273.397 0 0 1-10.12 20.523 1976.635 1976.635 0 0 1 9.691-20.854l9.813-20.707 9.974-20.609c3.345-6.87 6.714-13.711 10.108-20.523Z" fill="#FFB445"/><path d="M66.206 198.705h-3.214l-.785-1.607-1.104 1.607-1.485-3.287-1.422 3.287H52.294l-.662-2.195-.638 2.195h-1.203v-20.719h16.414v20.719Z" fill="#fff"/><path d="M229.311 177.986h-86.545v95.844h86.545v-95.844Z" fill="#FFB445"/><path d="M274 177.986h-44.689v95.844H274v-95.844Z" fill="#FFB445"/><path opacity=".1" d="M274 177.986h-44.689v95.844H274v-95.844Z" fill="#000"/><g opacity=".1" fill="#000"><path d="M222.968 267.23a2201.647 2201.647 0 0 1-18.891-20.511l-18.622-20.609-18.4-20.707a1648.127 1648.127 0 0 1-18.107-20.854 2439.193 2439.193 0 0 1 18.892 20.511l18.621 20.621 18.401 20.707a2203.783 2203.783 0 0 1 18.106 20.842Z"/><path d="M222.968 184.586a2343.835 2343.835 0 0 1-18.106 20.854l-18.401 20.707-18.621 20.609a2011.296 2011.296 0 0 1-18.892 20.511 2906.037 2906.037 0 0 1 18.107-20.854l18.4-20.707 18.622-20.622a2301.59 2301.59 0 0 1 18.891-20.498Z"/></g><path d="M267.707 257.613h-7.827v11.052h7.827v-11.052Z" fill="#fff"/><path d="M118.146 116H19.333v61.974h98.813V116Z" fill="#FFB445"/><path opacity=".1" d="M118.146 116H19.333v61.974h98.813V116Z" fill="#000"/><path d="M162.847 116.012h-44.689v61.986h44.689v-61.986Z" fill="#FFB445"/><path opacity=".2" d="M162.847 116.012h-44.689v61.986h44.689v-61.986Z" fill="#000"/><path d="M159.768 174.331a924.404 924.404 0 0 1-9.814-12.832l-9.703-12.905-9.569-12.954a1148.642 1148.642 0 0 1-9.421-13.028c3.271 4.269 6.543 8.546 9.814 12.832l9.691 12.905 9.568 12.966c3.182 4.318 6.326 8.657 9.434 13.016Z" fill="#FFB445"/><path d="M159.768 122.612c-3.116 4.351-6.26 8.693-9.434 13.028l-9.568 12.954-9.691 12.905a4339.267 4339.267 0 0 1-9.814 12.832c3.1-4.359 6.24-8.698 9.421-13.016l9.569-12.966 9.703-12.905a888.676 888.676 0 0 1 9.814-12.832Z" fill="#FFB445"/><path d="M303.512 262.494s1.026 32.074 5.835 47.879c0 0 5.245 2.813 6.82 3.741 0 0-39.85 95.421-37.586 132.178.745 12.036 14.385 31.821 28.123 40.384 24.354 15.159 143.272 1.856 143.272 1.856l-17.253-71.488s-75.187 4.218-77.085.112c-2.405-5.16 12.557-45.292 24.523-77.9 1.195-3.291 13.232-15.468 11.826-37.432a113.919 113.919 0 0 0-10.349-39.274l-78.126-.056Z" fill="#666"/><path d="M418.999 424.932c-16.41-.309-29.768 1.083-46.178 1.097h-18.505a18.233 18.233 0 0 1-4.219-.394 5.304 5.304 0 0 1-3.304-1.954c-1.083-1.631-.506-3.699-.127-5.456a205.4 205.4 0 0 1 2.813-11.502c4.134-15.468 9.533-30.626 14.61-45.827l7.705-23.426c.633-1.899 1.266-3.811 2.067-5.625a46.956 46.956 0 0 1 2.588-4.921 45.334 45.334 0 0 0 4.443-9.675c4.444-14.581.183-29.669-5.006-43.436-.703-1.842-1.406-3.684-2.179-5.512 0-.126-.253-.07-.197.071 4.724 14.525 10.363 29.641 7.185 45.137a37.29 37.29 0 0 1-3.782 10.434c-.914 1.659-1.913 3.276-2.813 4.949a42.071 42.071 0 0 0-2.292 5.287c-2.812 7.692-5.231 15.468-7.832 23.286-5.189 15.468-10.644 30.823-14.961 46.53a262.64 262.64 0 0 0-2.953 11.797c-.647 2.925-2.109 6.89.436 9.309 1.87 1.772 4.795 1.983 7.227 2.011h12.262c16.635 0 50.987-1.406 53.054-1.477a.349.349 0 0 0 .242-.118.352.352 0 0 0-.284-.585Z" fill="#000"/><path d="m292.235 379.387 84.369-30.57c1.181-3.248 2.362-6.468 3.515-9.618 1.153-3.149 13.232-15.467 11.84-37.445a113.46 113.46 0 0 0-10.35-39.26h-78.097s1.012 32.074 5.835 47.809c0 0 5.245 2.812 6.82 3.754 0 .057-13.161 31.554-23.932 65.33Z" fill="#000"/><path d="M198.838 463.798h70.603s-12.571-96.11-8.437-102.381c1.842-2.813 93.495 6.426 120.31-22.611 24.509-26.562-.436-76.312-.436-76.312h-75.229s-1.532 21.331-5.624 29.852c-1.73 3.656-85.775-1.56-98.937 22.499-17.493 32.046-2.25 148.953-2.25 148.953Z" fill="#666"/><path d="M308.757 285.527c.323-2.264.619-4.528.886-6.778.604-5.161 1.139-10.363 1.293-15.552 0-.408-.562-.366-.604 0-.492 4.008-.858 8.029-1.308 12.037-.45 4.007-.802 8.015-1.547 11.952-.225 1.181-.731 3.164-2.236 3.192-2.038 0-2.432-2.728-2.601-4.219a67.941 67.941 0 0 1-.211-11.249c.225-4.218.759-8.521 1.238-12.754 0-.154-.239-.182-.268 0-1.757 8.255-3.445 16.874-1.982 25.311a4.687 4.687 0 0 0 2.728 3.98h.084a1.634 1.634 0 0 0 0 .14v.717a4.363 4.363 0 0 0 0 .605v1.251a.31.31 0 0 0 .528.219.31.31 0 0 0 .091-.219.251.251 0 0 0 .211-.211 6.533 6.533 0 0 0 0-2.446 2.942 2.942 0 0 0 2.503-1.406 10.592 10.592 0 0 0 1.195-4.57Z" fill="#000"/><path d="M301.276 291.629a120.41 120.41 0 0 1 16.185 13.317.218.218 0 0 1 .08.143.216.216 0 0 1-.347.194c-5.513-4.218-11.25-8.437-16.438-12.993a.426.426 0 0 1-.135-.276.422.422 0 0 1 .655-.385ZM363.119 295.721a31.331 31.331 0 0 1-4.866-.365 40.563 40.563 0 0 1-4.218-1.083c-2.602-.759-5.78-1.673-7.678-3.741a27.455 27.455 0 0 1-4.359-7.508 30.216 30.216 0 0 1-2.559-8.972c0-.126-.239-.126-.225 0a46.2 46.2 0 0 0 1.603 9.492 30.663 30.663 0 0 0 1.772 4.486 16.113 16.113 0 0 0 2.517 4.021c2.109 2.264 5.54 3.375 8.437 3.965 3.166.577 6.41.577 9.576 0 .267.029.196-.281 0-.295Z" fill="#000"/><path d="M253.439 356.861a4.123 4.123 0 0 1 3.459-3.277 33.997 33.997 0 0 1 6.103-.126c4.696 0 9.407.098 14.061.112 18.533 0 37.221-.478 55.445-4.134a130.174 130.174 0 0 0 26.028-7.748c7.03-3.065 14.131-7.255 18.547-13.766 5.076-7.481 5.47-17.282 5.287-26.042a99.866 99.866 0 0 0-4.528-27.87 88.222 88.222 0 0 0-2.447-6.777c0-.141.155-.268.211-.127a96.667 96.667 0 0 1 7.284 26.773c.55 4.558.757 9.15.619 13.738a52.723 52.723 0 0 1-1.73 13.345c-4.809 16.395-23.173 23.159-37.966 27.321-17.886 5.02-36.56 6.412-55.022 6.679-9.281.141-18.59 0-27.884-.126-1.772 0-4.697-.521-5.751 1.336a10.308 10.308 0 0 0-.83 3.388 52.413 52.413 0 0 0-.45 3.938c-.258 4.944-.192 9.899.197 14.834.59 10.022 1.284 20.048 2.081 30.078.801 10.068 1.926 20.122 2.657 30.204.183 2.475.422 4.936.661 7.396 0 .282-.464.338-.506 0-2.573-19.925-4.415-39.92-5.723-59.958-.323-4.949-.689-9.913-.829-14.863-.304-4.8.041-9.62 1.026-14.328Z" fill="#000"/><path d="M298.647 360.545c6.27-.086 12.53-.556 18.743-1.406 5.864-.732 11.7-1.533 17.521-2.517 10.124-1.73 20.474-3.628 30.021-7.481a52.625 52.625 0 0 0 14.47-8.437c.112-.098.281.07.168.169-7.227 7.03-16.395 11.15-26.041 13.766a210.415 210.415 0 0 1-33.748 5.92c-7.046.614-14.121.82-21.191.618a.351.351 0 0 1-.122-.145.355.355 0 0 1-.033-.187.36.36 0 0 1 .212-.3Z" fill="#000"/><path d="M320.569 177.619c.211 23.103-6.061 58.158-14.709 75.144-6.187 12.135-43.014 36.012-62.573 41.383-6.919 1.913-10.364-26.843-7.031-33.888 2.025-4.218 38.824-24.65 42.592-30.274 5.723-8.564 17.324-32.862 25.902-53.631 4.569-10.954 15.65-13.091 15.819 1.266Z" fill="#FFD3C9"/><path d="M248.363 253.705s-10.842-1.307-15.721-.829-22.498 8.957-20.839 12.852c2.095 5.034 13.19 2.137 18.449 0 0 0 4.809 11.643 13.231 11.249 8.423-.393 4.88-23.272 4.88-23.272Z" fill="#FFD3C9"/><path d="M249.67 291.714c-3.824 1.715-22.02 8.001-27.476 8.619-5.456.619-21.289 1.266-22.189-2.812-.9-4.078 3.712-4.682 3.712-4.682s-6.721-.788-7.241-5.034c-.521-4.247 6.679-4.88 6.679-4.88s-6.848-1.307-7.031-5.624c-.183-4.317 7.143-3.699 7.143-3.699s-6.313-.899-5.02-4.499c1.561-4.317 13.021-1.322 18.998-2.461 1.406-.267 27.124-7.185 27.124-7.185l5.301 32.257Z" fill="#FFD3C9"/><path d="M202.592 273.574c8.437 2.18 12.501 1.674 20.671-.956.168 0 .281.183.112.253-7.762 3.291-12.768 4.655-20.909 1.097-.394-.169-.267-.506.126-.394ZM202.452 282.63c8.957 1.505 13.372.998 22.133-1.125.126 0 .182.183 0 .225-8.437 2.812-13.443 4.036-22.189 1.406-.31-.098-.31-.506.056-.506ZM204.168 292.656c8.774.829 13.639.478 21.879-2.672.197-.07.324.211.141.295-8.1 4.022-14.16 4.514-22.02 2.644-.535-.127-.549-.323 0-.267ZM212.829 266.923c5.217 3.22 11.924 0 17.183-1.715a.5.5 0 0 1 .462.064.507.507 0 0 1 .213.414c2.349 4.739 7.031 10.757 12.557 11.587a.126.126 0 1 1 0 .253c-6.046-.085-11.136-5.625-13.372-10.982-5.358 1.814-12.234 4.766-17.057.421-.042-.014-.014-.056.014-.042Z" fill="#000"/><path d="m289.352 202.184 29.332 19.377s3.895-38.472 1.842-50.101c-2.306-13.091-8.437-9.056-15.833 1.237-7.396 10.293-15.341 29.487-15.341 29.487Z" fill="#fff"/><path opacity=".2" d="m289.352 202.184 29.332 19.377s3.895-38.472 1.842-50.101c-2.306-13.091-8.437-9.056-15.833 1.237-7.396 10.293-15.341 29.487-15.341 29.487Z" fill="#000"/><path d="M293.852 197.572c4.077 1.955 15.467 9.548 17.337 10.785.999.661 4.866 3.431 5.864 4.078.127.084 0 .267-.141.183-1.912-1.224-3.951-2.264-5.877-3.473-1.927-1.21-13.781-8.522-17.268-11.432-.056-.057.085-.197.085-.141Z" fill="#000"/><path d="M392.577 273.757s-94.634 13.134-94.634 13.148c.268 1.856-5.005-74.864 13.359-122.968 1.251-3.276 15.664-8.62 23.061-3.487 32.411 22.498 58.383 114.516 58.214 113.307Z" fill="#fff"/><path opacity=".1" d="m336.599 162.123-26.042 3.797c.044-.15.1-.296.169-.436l25.423-3.755c.157.123.307.255.45.394Zm7.171 6.89-35.941 5.343a2.499 2.499 0 0 0-.127.422l36.392-5.343-.324-.422Zm5.99 7.481-44.265 6.524c0 .141 0 .282-.099.422l44.702-6.567-.338-.379Zm5.133 7.607-51.297 7.551-.084.436 51.606-7.607-.225-.38Zm4.556 7.692-57.399 8.437c0 .14 0 .281-.071.421l57.652-8.436-.182-.422Zm4.218 7.748-62.827 9.252v.422l63.08-9.281c-.169-.126-.239-.267-.309-.393h.056Zm3.853 7.79-67.692 9.969v.422l67.917-9.998-.225-.393Zm3.6 7.832-72.094 10.616v.422l72.164-10.644a3.47 3.47 0 0 1-.127-.422l.057.028Zm3.388 7.86-76.1 11.249v.422l76.283-11.249a1.454 1.454 0 0 1-.239-.422h.056Zm3.221 7.889-79.771 11.741v.408l79.953-11.77a.817.817 0 0 1-.239-.379h.057Zm3.051 7.916-83.118 12.234a3.966 3.966 0 0 0 0 .408l83.259-12.262-.141-.38Zm2.911 7.931-86.169 12.655a1.987 1.987 0 0 0 0 .408l86.309-12.655c-.112-.155-.154-.281-.197-.408h.057Zm2.812 7.945-88.967 13.105v.394l89.094-13.105-.127-.394Zm2.658 7.959-91.499 13.471v.421l91.611-13.485-.112-.407Zm2.531 8.001-93.748 13.794v.408l93.846-13.809c-.098-.126-.141-.267-.183-.393h.085Z" fill="#000"/><path opacity=".1" d="m319.739 193.902 14.891-2.109s2.812 15.285 2.812 15.706c0 .422-7.157 6.23-7.804 5.991-.647-.239-7.691-2.194-7.916-2.63-.225-.436-1.983-16.958-1.983-16.958Z" fill="#000"/><path d="M297.859 220.338h-92.145v102.03h92.145v-102.03Z" fill="#FFB445"/><path opacity=".1" d="M297.859 220.338h-92.145v102.03h92.145v-102.03Z" fill="#000"/><path d="M158.144 322.368h47.57v-102.03h-47.57v102.03Z" fill="#FFB445"/><path d="M243.976 242.386h3.402l.844-1.701 1.167 1.701 1.603-3.487 1.505 3.487h6.285l.703-2.334.675 2.334h1.28v-22.048h-17.464v22.048Z" fill="#fff"/><g opacity=".1" fill="#000"><path d="M161.421 315.337c3.534-7.256 7.026-14.53 10.475-21.823l10.322-21.95 10.194-22.049a2255.478 2255.478 0 0 0 10.026-22.147 3164.058 3164.058 0 0 0-10.476 21.838l-10.321 21.936-10.124 22.048a1614.475 1614.475 0 0 0-10.096 22.147Z"/><path d="M161.421 227.368a2489.705 2489.705 0 0 0 10.04 22.147l10.18 22.049 10.321 21.95a2586.764 2586.764 0 0 0 10.476 21.823 2748.641 2748.641 0 0 0-10.026-22.147l-10.194-22.048-10.322-21.936a2254.916 2254.916 0 0 0-10.475-21.838Z"/></g><path d="M313.158 242.4h-92.131l-15.299-22.077h92.131l15.299 22.077Z" fill="#FFB445"/><path d="M313.158 242.4h-92.131l-15.299-22.077h92.131l15.299 22.077Z" fill="#000" opacity=".2"/><path d="M190.443 242.414H143l15.299-22.076h47.429l-15.285 22.076Z" fill="#FFB445"/><path opacity=".1" d="M190.443 242.414H143l15.299-22.076h47.429l-15.285 22.076Z" fill="#000"/><path d="M316.195 176.297c4.655.436 13.302-6.187 15.623-13.063.154-.478-1.308-4.894-2.813-10.349-.914-3.319-1.856-7.031-2.46-10.476-.127-.703-20.685 9.112-20.685 9.112a56.23 56.23 0 0 1 4.444 12.866c.072.465.104.935.098 1.406-.007.08-.007.16 0 .239.028 2.798.816 9.731 5.793 10.265Z" fill="#FFD3C9"/><path d="M310.374 165.821c-.007.08-.007.16 0 .239a15.152 15.152 0 0 0 2.236-.281c12.655-2.545 13.189-19.067 13.119-23.216-3.74 1.224-19.911 8.958-19.911 8.958a56.23 56.23 0 0 1 4.444 12.866c.078.474.115.954.112 1.434Z" fill="#000"/><path d="M325.743 114.862c3.473 7.369 2.643 30.218-2.109 35.97-6.905 8.352-19.813 10.939-27.308 2.278-7.284-8.437-5.624-38.163-.197-43.591 8.044-7.917 24.439-5.47 29.614 5.343Z" fill="#FFD3C9"/><path d="M305.972 131.342s.113.085.113.141c-.099 1.547 0 3.319 1.406 3.881v.084c-1.687-.295-1.856-2.657-1.519-4.106Z" fill="#000"/><path d="M307.393 129.782c2.489-.113 2.517 4.865.225 4.963-2.292.099-2.306-4.865-.225-4.963ZM297.058 131.666s-.127.07-.127.14c.07 1.533-.127 3.305-1.519 3.825v.099c1.716-.254 1.941-2.616 1.646-4.064Z" fill="#000"/><path d="M295.666 130.063c-2.475-.169-2.63 4.809-.338 4.964 2.292.154 2.419-4.824.338-4.964ZM309.319 127.49a16.57 16.57 0 0 1-1.926-.661 3.348 3.348 0 0 1-1.842-1.055 1.042 1.042 0 0 1 .168-1.266 2.568 2.568 0 0 1 2.616-.295c.92.251 1.713.838 2.222 1.645a1.112 1.112 0 0 1-1.238 1.632ZM293.725 127.574a18.516 18.516 0 0 0 1.969-.52 3.324 3.324 0 0 0 1.912-.928 1.058 1.058 0 0 0-.07-1.28 2.58 2.58 0 0 0-2.601-.464 3.73 3.73 0 0 0-2.321 1.406 1.11 1.11 0 0 0 1.111 1.786ZM307.506 145.629c-.366.365-.732.858-1.294.914a3.81 3.81 0 0 1-1.659-.38s-.099 0-.071.085a2.102 2.102 0 0 0 1.969.829 1.642 1.642 0 0 0 1.195-1.406c.028-.056-.098-.098-.14-.042Z" fill="#000"/><path d="M305.846 141.031a5.237 5.237 0 0 1-3.487 2.362 6.44 6.44 0 0 1-1.884.098 1.382 1.382 0 0 1-.352 0h-.337a.408.408 0 0 1-.324-.351.683.683 0 0 0 0-.169v-3.136c-.436.225-2.629 1.238-2.601.619a78.91 78.91 0 0 1 1.912-15.889c0-.169.296-.127.281 0 0 4.935-.998 9.843-1.139 14.792a9.217 9.217 0 0 1 2.475-.759c.169 0-.253 3.473-.197 4.008a7.258 7.258 0 0 0 5.414-1.73c.211-.07.338.028.239.155Z" fill="#000"/><path d="M301.178 142.887a6.203 6.203 0 0 0 2.517 1.94 2.897 2.897 0 0 0 1.701.099c1.224-.338 1.252-1.406 1.013-2.433a6.527 6.527 0 0 0-.563-1.406 8.032 8.032 0 0 1-4.668 1.8Z" fill="#000"/><path d="M303.695 144.827a2.897 2.897 0 0 0 1.701.099c1.224-.338 1.252-1.406 1.013-2.433a2.9 2.9 0 0 0-2.714 2.334Z" fill="#FF6868"/><path d="M292.896 117.126c.829-1.968 1.785-3.937 2.952-4.331 1.168-.393 1.983 2.461 4.655 2.616 3.614.211 5.329-3.122 10.377-3.53 7.256-.562 10.504 5.47 10.771 15.763.239 9.196 5.808 10.012 5.808 10.012s3.192-20.305-2.588-26.97c-5.779-6.665-18.926-9.52-27.673-3.023-3.192 2.362-4.302 9.463-4.302 9.463Z" fill="#000"/><path d="M322.79 134.07s4.148-7.846 7.65-6.454c3.501 1.392 1.012 12.332-2.658 14.244a3.937 3.937 0 0 1-5.498-1.406l.506-6.384Z" fill="#FFD3C9"/><path d="M329.638 130.766v.098c-2.559 1.406-3.67 4.106-4.345 6.82a2.175 2.175 0 0 1 1.352-1.229 2.173 2.173 0 0 1 1.812.231.086.086 0 0 1 .051.077.083.083 0 0 1-.014.046.08.08 0 0 1-.037.031 2.417 2.417 0 0 0-2.545 1.182 11.875 11.875 0 0 0-.999 2.292c-.098.253-.548.182-.492-.099-.492-3.529 1.575-8.676 5.217-9.449Z" fill="#000"/><path d="M346.934 178.167c9.421 20.98 30.26 63.98 24.903 80.151-7.031 21.232-43.83 44.645-53.349 51.212-4.149 2.812-24.791-23.61-23.525-28.841 1.265-5.23 39.948-35.87 42.03-39.372 2.081-3.501-6.666-38.317-8.142-57.792-1.884-24.51 10.096-23.118 18.083-5.358Z" fill="#FFD3C9"/><path d="M285.415 294.878c1.125-2.307-.085-2.911-4.219-.914-4.134 1.996-18.673 13.386-22.217 7.972-3.543-5.413 17.24-21.19 24.341-23.988 7.101-2.799 19.545-4.852 19.545-4.852-3.389 3.909-10.799 14.09-17.45 21.782Z" fill="#FFD3C9"/><path d="M328.555 301.318c-10.068 10.588-21.936 24.368-37.769 28.896a8.21 8.21 0 0 1-5.343-.155c-7.031 2.152-10.195-.534-10.195-.534-7.199 0-10.026-3.192-10.026-3.192s-8.324 2.447-10.63-2.334c-2.601-5.358 9.59-7.748 15.468-13.148 13.527-12.402 29.29-33.747 32.833-37.755l25.662 28.222Z" fill="#FFD3C9"/><path d="M293.388 307.828a119.856 119.856 0 0 1-12.459 10.167 117.872 117.872 0 0 1-15.636 8.155c-.169.071-.071.31.112.267a62.406 62.406 0 0 0 28.123-18.42c.197-.197.056-.352-.14-.169ZM302.049 314.971c-4.134 3.249-11.446 8.915-26.871 14.47v.084a55.975 55.975 0 0 0 26.998-14.357c.267-.295.113-.492-.127-.197ZM306.634 318.782c-7.242 5.273-12.473 7.678-21.092 11.249v.099c10.293-2.995 13.695-5.259 21.359-11.095.211-.225.014-.45-.267-.253Z" fill="#000"/><path d="m330.411 210.354 35.154 1.687s-16.269-35.069-23.904-44.026c-8.662-10.096-11.924-3.459-12.993 9.14-1.069 12.599 1.743 33.199 1.743 33.199Z" fill="#fff"/><path d="M332 204.054c4.5-.393 18.154.352 20.418.45 1.181 0 5.934.464 7.115.507.154 0 .112.239 0 .239-2.278-.085-4.556.07-6.834 0-2.278-.071-16.185-.31-20.685-1.027a.1.1 0 0 1-.055-.08.1.1 0 0 1 .041-.089Z" fill="#000"/><path d="M349.859 181.176c-.071-.14.154-.239.225-.098a204.53 204.53 0 0 1 4.949 8.535 28.585 28.585 0 0 0-1.842-4.823s.071-.112.113 0a23.461 23.461 0 0 1 2.109 5.625 305.93 305.93 0 0 1 3.262 6.06c2.7 5.147 5.484 10.293 7.889 15.608a.41.41 0 0 1-.408.563 62.958 62.958 0 0 1-3.642-.408c-.127 0-.141-.225 0-.239 1.012-.084 2.011-.098 3.023-.126-2.812-4.908-5.245-9.97-7.846-14.962a456.711 456.711 0 0 1-7.832-15.735ZM328.302 195.449c-.365-1.814-.745-3.628-1.054-5.456.323 1.322.618 2.657.914 3.993-.155-2.728-.254-5.441-.225-8.155h.07c.562 4.077.9 8.197 1.406 12.289.506 4.092.858 8.044 1.237 12.065.788.169 1.589.31 2.391.45a.128.128 0 0 1 .085.12.12.12 0 0 1-.024.073.122.122 0 0 1-.061.046h-2.658a.392.392 0 0 1-.45-.323c-.731-5.02-1.293-10.068-1.631-15.102Z" fill="#000"/><path opacity=".2" d="m330.411 210.354 35.154 1.687s-16.269-35.069-23.904-44.026c-8.662-10.096-11.924-3.459-12.993 9.14-1.069 12.599 1.743 33.199 1.743 33.199Z" fill="#000"/><path d="M82.829 181.445c-5.544-.969-19.494 3.575-23.887 11.118-4.393 7.543-3.469 19.449-1.015 20.418 2.454.969 12.89-.303 19.888-4.544 6.998-4.241 7.755-26.522 5.014-26.992Z" fill="#000"/><path d="M82.844 181.475c.181 0 .197-.363 0-.348-4.817.091-9.891 1.939-14.405 3.469a27.796 27.796 0 0 0-10.27 5.301 12.9 12.9 0 0 0-4.271 9.997 26.67 26.67 0 0 0 3.12 13.011c0 .106.273 0 .227 0-2.56-7.906-4.938-17.6 2.772-23.417 6.544-5.074 15.162-5.998 22.827-8.013Z" fill="#000"/><path d="M58.654 210.861c-4.771.833-16.844 10.602-18.54 19.691-1.697 9.088 6.331 22.387 8.725 23.265 2.393.879 12.617-8.346 15.798-14.935 2.12-4.392 0-9.33-1.197-14.253-1.878-7.225-3.998-13.89-4.786-13.768Z" fill="#000"/><path d="M67.454 237.671c1.015-9.376-4.665-18.343-8.21-26.614 0-.09-.181 0-.15 0 2.105 7.983 7.285 15.011 7.8 23.433a15.435 15.435 0 0 1-5.21 13.238c-3.47 2.817-7.892 4.241-11.982 5.892-.258.106 0 .5.197.409 8.149-3.014 16.51-6.695 17.555-16.358ZM57.654 211.769a.212.212 0 0 0-.182-.378c-6.68 3.544-14.692 8.618-18.04 15.707-3.635 7.664.682 15.329 4.544 21.933h.137c-3.787-6.71-7.831-15.147-3.65-22.569 3.559-6.513 10.89-11.254 17.191-14.693Z" fill="#000"/><path d="M49.702 252.666c3.302 1.515 8.285 6.68 9.74 13.057 2.453 10.906 6.482 8.497 18.676 10.739 10.3 1.878 13.117 13.132 8.028 19.07 0 0 2.741-7.195-4.302-10.239-8.422-3.636-26.659 6.058-36.656-4.984-12.935-14.268 4.514-27.643 4.514-27.643Z" fill="#000"/><path d="M54.322 257.453c-.136-.152.09-.394.242-.258a16.241 16.241 0 0 1 3.59 4.544c1.166 2.272 1.363 4.802 2.348 7.119 2.544 5.907 9.815 5.286 15.147 5.362 7.119.091 13.056 4.09 13.935 11.527a.091.091 0 0 1-.04.116.093.093 0 0 1-.043.011.093.093 0 0 1-.076-.041.092.092 0 0 1-.008-.086 12.675 12.675 0 0 0-8.149-10.118c-4.256-1.515-8.876-.318-13.223-1.106-3.03-.53-6.059-1.621-7.573-4.408a24.733 24.733 0 0 1-1.621-4.968 17.55 17.55 0 0 0-4.53-7.694Z" fill="#000"/><path d="M47.915 254.105s.166 0 .106.106c-3.787 4.196-7.801 8.422-8.619 14.284-.894 6.301 2.681 12.36 7.8 15.843 5.741 3.908 11.497 1.515 17.571 0 4.378-1.12 8.876-1.908 13.314-.636.137 0 0 .258 0 .243-7.104-1.227-13.405 1.226-20.22 2.741a13.847 13.847 0 0 1-13.981-4.635c-8.604-9.164-4.348-20.448 4.029-27.946Z" fill="#000"/><path d="M78.406 176.598c-1.621-1.878-4.545.667-2.878 2.545 1.666 1.878 4.483-.682 2.877-2.545Z" fill="#FFB445"/><path d="M80.026 179.764c-1.605-1.863-4.544.681-2.863 2.545 1.682 1.863 4.484-.591 2.863-2.545Z" fill="#FFB445"/><path d="M82.162 182.642c-1.62-1.863-4.544.666-2.878 2.544 1.666 1.879 4.53-.666 2.878-2.544Z" fill="#FFB445"/><path d="M84.66 185.126c-1.605-1.863-4.543.681-2.862 2.545 1.681 1.863 4.484-.667 2.863-2.545Z" fill="#FFB445"/><path d="M87.585 187.201c-1.62-1.863-4.544.682-2.878 2.545 1.666 1.863 4.484-.667 2.878-2.545Z" fill="#FFB445"/><path d="M90.705 188.67c-1.62-1.863-4.544.667-2.878 2.545 1.666 1.878 4.484-.667 2.878-2.545Z" fill="#FFB445"/><path d="m165.652 640.155-63.617-.893s12.602-152.485 12.117-155.423c-.757-3.726-45.925-180.87-45.925-180.87h60.769s47.91 165.102 49.637 180.991c2.787 25.689-12.981 156.195-12.981 156.195Z" fill="#666"/><path d="M81.601 317.283c5.438 19.252 10.406 38.67 15.269 58.073 4.862 19.404 9.724 38.837 14.556 58.255a64923.64 64923.64 0 0 1 7.255 29.143c2.348 9.452 5.09 18.964 5.665 28.779.576 9.816-.666 19.949-1.515 29.84-.848 9.891-1.666 19.873-2.544 29.824-1.742 19.873-3.408 39.776-5.574 59.619-.258 2.484-.531 4.968-.788 7.452 0 .212-.348.212-.333 0 1.318-19.903 2.696-39.791 4.286-59.664.788-9.946 1.596-19.888 2.424-29.824.818-9.922 1.969-19.888 2.287-29.84.318-9.951-1.515-19.691-3.938-29.355-2.424-9.663-4.771-19.009-7.15-28.521a24582.35 24582.35 0 0 1-14.54-58.255c-5.393-21.751-10.785-43.533-15.541-65.435a.1.1 0 0 1 .014-.112.105.105 0 0 1 .031-.025.105.105 0 0 1 .078-.005.096.096 0 0 1 .034.02c.01.008.018.019.024.031Z" fill="#000"/><path d="M68.227 302.984s19.388 75.977 32.944 129.461l25.856-129.461h-58.8Z" fill="#000"/><path d="M127.027 302.893s-1.772 29.052-8.709 52a109.154 109.154 0 0 1-1.803 5.544 107.449 107.449 0 0 0-17.63 8.785s-4.378 111.118-4.303 118.025c.288 25.886-6.361 151.636-6.361 151.636l-64.208-.621s6.665-142.2 6.695-151.651c0-15.147 13.465-183.642 13.465-183.642l82.854-.076Z" fill="#666"/><path d="m113.001 341.972.727-4.816c.454-3.03 1.06-5.877 1.515-8.816 1.166-6.649 2.393-13.329 3.862-19.933 0-.152.318-.121.288 0-.257 2.666-.56 5.332-.939 7.982-.379 2.651-.636 5.317-1.015 7.968-.742 5.256-1.515 10.602-2.363 15.768-.348 2.014-1.605 5.634 1.303 6.255 2.287.5 3.983-1.757 4.65-3.65a44.095 44.095 0 0 0 1.515-7.271c.484-2.65.893-5.316 1.272-7.982.818-5.817 1.727-11.618 2.666-17.404 0-.167.303-.121.288 0a175.676 175.676 0 0 1-1.288 17.813 230.41 230.41 0 0 1-1.272 8.467 29.889 29.889 0 0 1-1.954 7.876 6.383 6.383 0 0 1-4.802 3.863h-.136a.198.198 0 0 1 .091.166c0 .955 0 1.909-.106 2.848-.106.939-.288 1.848-.47 2.772-.169.94-.407 1.866-.712 2.772-.166.424-.318.848-.515 1.272-.197.424-.5.758-.757 1.166-.091.167-.288 0-.303-.106v-.454a7.44 7.44 0 0 1 0-.818c.067-.454.158-.904.273-1.348.197-.894.439-1.787.681-2.681.243-.894.424-1.772.652-2.666.227-.894.545-1.802.757-2.726v-.091a4.195 4.195 0 0 1-4.059-2.545 7.396 7.396 0 0 1 .151-3.681ZM57.457 331.021a40.286 40.286 0 0 0 9.68-1.302c1.514-.379 2.892-.849 4.316-1.318a11.288 11.288 0 0 0 3.908-1.954c2.196-1.909 3.226-4.893 4.18-7.574a71.177 71.177 0 0 0 2.53-9.088c0-.036.014-.071.04-.096a.135.135 0 0 1 .096-.04c.037 0 .071.014.097.04.025.025.04.06.04.096a35.46 35.46 0 0 1-1.318 10.391c-.788 2.863-1.848 6.059-4.165 8.073a16.272 16.272 0 0 1-8.877 3.242c-3.525.415-7.09.369-10.602-.137a.18.18 0 0 1 .076-.333ZM36.357 560.088c1.091-20.276 2.242-40.563 3.454-60.86 2.333-40.367 4.544-80.748 7.134-121.176 1.515-22.72 2.908-45.546 4.696-68.297a.198.198 0 0 1 .189-.143.196.196 0 0 1 .19.143c-1.667 40.7-4.09 81.263-6.438 121.887-2.348 40.624-4.741 80.703-7.346 121.055-1.364 22.841-3.166 45.562-4.544 68.282a.138.138 0 0 1-.018.124.133.133 0 0 1-.111.057.136.136 0 0 1-.129-.181c1.045-20.297 1.772-40.594 2.923-60.891Z" fill="#000"/><path d="M101.293 237.231c6.164 15.299 30.657 64.754 46.743 68.252 10.603 2.288 53.211-1.847 60.588-11.935 3.196-4.393-2.212-35.05-7.907-33.839-5.695 1.212-39.882 5.741-44.078 4.544-4.195-1.196-35.671-37.458-47.44-46.455-20.297-15.541-11.224 11.193-7.906 19.433Z" fill="#FFD3C9"/><path d="m138.615 244.79-26.811 15.859s-11.284-21.479-15.692-35.535c-4.408-14.057-.62-20.479 15.556-6.498a307.529 307.529 0 0 1 26.947 26.174Z" fill="#fff"/><path d="M110.653 255.135a268.184 268.184 0 0 1 10.861-7.467c1.802-1.182 3.605-2.394 5.437-3.53 1.833-1.136 3.878-2.241 5.771-3.423a.129.129 0 0 1 .045-.027.146.146 0 0 1 .051-.006.12.12 0 0 1 .049.017.12.12 0 0 1 .032.181.138.138 0 0 1-.04.032c-1.788 1.212-3.484 2.545-5.271 3.772-1.788 1.227-3.727 2.453-5.59 3.665a270.457 270.457 0 0 1-11.224 6.953c-.106.06-.227-.091-.121-.167Z" fill="#000"/><path d="m137.206 322.403-6.059-34.187s9.315-16.253 3.908-27.931c-2.726-5.907-26.659-42.684-36.731-49.985-9.452-6.861-23.175.47-28.28 5.847-19.69 20.721-24.932 58.937-31.99 114.95l99.152-8.694Z" fill="#fff"/><path d="M136.691 263.678a26.452 26.452 0 0 0-3.272-6.937c-.469-.803-1.515-2.469-2.787-4.408a27.777 27.777 0 0 0-1.212-2.742 40.517 40.517 0 0 1-2.014-4.059c0-.136-.273 0-.197.091a43.392 43.392 0 0 1 1.696 4.074c-2.135-3.241-4.377-6.573-5.346-7.937 0-.121-.258 0-.182.106 2.045 2.681 8.755 14.435 10.375 17.419a20.152 20.152 0 0 1 2.348 9.573 44.01 44.01 0 0 1-1.333 10.255c-.091.272.197.424.303.151a27.987 27.987 0 0 0 1.909-7.573c.387-2.667.29-5.381-.288-8.013Z" fill="#000"/><path d="M96.597 240.246s-6.059-6.71-1.106-10.452c4.953-3.741 9.77 3.863 9.77 3.863l-8.664 6.589Z" fill="#A9C297"/><path d="m143.477 283.823 1.515 8.71.499 2.863-2.65-1.227-7.998-3.742-38.413-50.454 8.664-6.589 38.413 50.454-.03-.015Z" fill="#A9C297"/><path d="m144.961 292.533.5 2.863-2.651-1.227 2.151-1.636Z" fill="#666"/><path d="m105.559 232.557-10.11 7.699 1.523 2 10.11-7.699-1.523-2ZM107.249 234.773l-10.11 7.699 1.523 2 10.11-7.699-1.523-2ZM98.672 244.472l3.257-2.484 12.102 19.615-1.257.848-14.102-17.979Z" fill="#000"/><path d="M60.956 227.159c-24.235 30.294-50.636 80.687-37.428 90.275 12.118 8.74 53.423-2.847 79.128-14.783 4.892-2.272-18.177-45.441-23.145-42.411a144.836 144.836 0 0 1-16.207 8.542c-1.424.485 5.907-9.678 13.284-33.489 7.513-24.266-1.742-25.569-15.632-8.134Z" fill="#FFD3C9"/><path d="M143.355 252.908c.349 5.15-12.435 4.923-12.435 4.923a9.555 9.555 0 0 1 4.195 4.953c1.197 3.742-4.15 7.256-4.15 7.256a11.793 11.793 0 0 1 3.59 5.922c.788 3.696-4.105 8.013-4.105 8.013a10.267 10.267 0 0 1-.121 7.195c-2.651 6.058-12.814 6.801-19.009 8.512a135.68 135.68 0 0 0-20.176 7.755L76.603 261.83s26.219-17.843 33.853-17.949c6.438-.061 32.369 1.136 32.899 9.027Z" fill="#FFD3C9"/><path d="M130.799 257.68c-6.847-1.515-14.072-1.515-21.024-1.257a.121.121 0 0 0-.086.035.121.121 0 0 0-.035.086.122.122 0 0 0 .121.121c6.922-.258 14.086 1.333 20.993 1.348.022.002.044 0 .065-.007a.163.163 0 0 0 .117-.144.159.159 0 0 0-.007-.065.163.163 0 0 0-.144-.117ZM130.753 269.57a18.2 18.2 0 0 0-4.801 0c-1.697.136-3.378.288-5.074.47-3.378.363-6.756.818-10.104 1.348-.151 0-.151.257 0 .242 3.378-.348 6.756-.666 10.134-.879 1.696-.106 3.393-.212 5.074-.287a22.043 22.043 0 0 0 4.786-.455.234.234 0 0 0 .099-.093.24.24 0 0 0-.009-.26.239.239 0 0 0-.105-.086ZM130.314 283.96a13.003 13.003 0 0 0-4.317.257l-4.544.576c-3.029.363-6.165.727-9.255.984-.151 0-.136.258 0 .243 3.136-.243 6.286-.455 9.422-.727a233.17 233.17 0 0 0 4.544-.425 11.696 11.696 0 0 0 4.15-.757.08.08 0 0 0 .03-.033.092.092 0 0 0 .011-.043.095.095 0 0 0-.011-.043.084.084 0 0 0-.03-.032Z" fill="#000"/><path d="M68.197 265.496 41.9 248.834s14.042-19.782 24.569-30.082 17.964-9.845 12.844 10.921a307.242 307.242 0 0 1-11.117 35.823Z" fill="#fff"/><path d="M46.294 245.335a319.606 319.606 0 0 1 11.572 6.286c1.878 1.075 3.772 2.136 5.62 3.257 1.847 1.12 3.756 2.423 5.664 3.574.137.091 0 .303-.106.227-1.893-1.045-3.862-1.954-5.755-3.029-1.894-1.075-3.878-2.196-5.802-3.317a258.936 258.936 0 0 1-11.284-6.847c-.106-.151-.015-.272.09-.151ZM68.197 265.632c1.257-4.423 3.029-8.664 4.544-13.011 1.514-4.348 3.029-8.77 4.301-13.178a.091.091 0 0 1 .04-.116.082.082 0 0 1 .044-.011c.015 0 .03.003.043.011a.09.09 0 0 1 .04.116c-.545 2.226-1.045 4.544-1.666 6.695a82.136 82.136 0 0 1-1 3.272c.227-.394.44-.788.682-1.182a39.706 39.706 0 0 1 2.393-3.363s.136 0 .106.076a39.788 39.788 0 0 1-1.984 3.62c-.515.849-1.09 1.666-1.636 2.5l-.651 1.847a74.965 74.965 0 0 1-5.014 12.769c-.076.152-.273.091-.242-.045ZM62.274 269.085c-6.71 3.484-14.299 8.649-18.176 12.739-.121.121 0 .318.151.212 3.878-3.029 15.39-10.058 18.358-12.042.924-.621 1.59-1.939-.333-.909Z" fill="#000"/><path d="m180.238 308.271-53.559 1.151 23.538-69.252 53.56-1.151-23.539 69.252Z" fill="#fff"/><path d="m183.904 308.195-53.56 1.136 23.539-69.237 53.559-1.151-23.538 69.252Z" fill="#A9C297"/><path d="M159.578 239.973a4.783 4.783 0 0 1-2.242 2.847c-.5.288-.651-.378-.151-.651a3.514 3.514 0 0 0 1.514-1.787c0-.136.091-.273.122-.394a2.569 2.569 0 0 0 0-1.303.818.818 0 0 0-.303-.469h-.106a.772.772 0 0 0-.364 0 1.52 1.52 0 0 0-.606.409 3.413 3.413 0 0 0-.53.727l-.227.394v.091a.516.516 0 0 0 0 .136.376.376 0 0 0 0 .106h-.758c.169-.48.403-.933.697-1.348a2.9 2.9 0 0 1 2.03-1.348 1.195 1.195 0 0 1 1.227 1.075 3.18 3.18 0 0 1-.303 1.515ZM163.774 239.882a4.788 4.788 0 0 1-2.242 2.848c-.5.287-.651-.379-.151-.652a3.586 3.586 0 0 0 1.514-1.787 1.85 1.85 0 0 0 .106-.394 2.4 2.4 0 0 0 0-1.302.844.844 0 0 0-.318-.47h-.106a.657.657 0 0 0-.378 0 1.506 1.506 0 0 0-.606.409c-.282.35-.53.725-.742 1.121v.091a.952.952 0 0 0 0 .151.2.2 0 0 0 0 .091h-.758c.169-.48.403-.933.697-1.348a2.888 2.888 0 0 1 2.03-1.348 1.163 1.163 0 0 1 1.211 1.075 3.021 3.021 0 0 1-.257 1.515ZM167.954 239.791a4.668 4.668 0 0 1-2.226 2.848c-.5.288-.652-.379-.167-.652a3.543 3.543 0 0 0 1.515-1.787c0-.121.075-.257.106-.394a2.419 2.419 0 0 0 0-1.302.85.85 0 0 0-.318-.47.237.237 0 0 1-.106 0 .66.66 0 0 0-.379 0 1.52 1.52 0 0 0-.606.409c-.2.221-.373.465-.515.727a3.216 3.216 0 0 0-.227.394v.106a.516.516 0 0 0 0 .136v.091h-.773c.175-.477.409-.93.697-1.348a3.037 3.037 0 0 1 2.03-1.348 1.184 1.184 0 0 1 1.227 1.075 3.163 3.163 0 0 1-.258 1.515ZM172.15 239.7a4.672 4.672 0 0 1-2.227 2.848c-.515.288-.666-.379-.166-.651a3.512 3.512 0 0 0 1.636-2.166c.12-.431.12-.887 0-1.318a.82.82 0 0 0-.303-.47h-.167a.66.66 0 0 0-.379 0 1.607 1.607 0 0 0-.606.409 3.19 3.19 0 0 0-.514.727c-.088.13-.164.266-.228.409v.091a.618.618 0 0 0 0 .136v.091h-.757a5.94 5.94 0 0 1 .697-1.333 2.93 2.93 0 0 1 2.029-1.363 1.181 1.181 0 0 1 1.227 1.076 3.154 3.154 0 0 1-.242 1.514ZM176.346 239.625a4.786 4.786 0 0 1-2.242 2.847c-.5.273-.651-.394-.151-.651a3.621 3.621 0 0 0 1.635-2.181 2.605 2.605 0 0 0 0-1.318.737.737 0 0 0-.303-.454h-.106a.592.592 0 0 0-.363 0 1.586 1.586 0 0 0-.606.408 3.875 3.875 0 0 0-.53.728l-.227.408v.091a.524.524 0 0 0 0 .137v.091h-.758c.169-.475.403-.924.697-1.333a3.037 3.037 0 0 1 2.03-1.364 1.197 1.197 0 0 1 1.227 1.076 3.231 3.231 0 0 1-.303 1.515ZM180.617 239.534a4.826 4.826 0 0 1-2.242 2.847c-.499.273-.651-.394-.151-.651a3.56 3.56 0 0 0 1.515-1.803c.049-.121.085-.248.106-.378a2.478 2.478 0 0 0 0-1.318.816.816 0 0 0-.303-.454h-.106a.66.66 0 0 0-.379 0c-.229.091-.436.23-.606.409-.2.221-.373.465-.515.727-.084.131-.16.267-.227.409v.09a.524.524 0 0 0 0 .137.2.2 0 0 0 0 .091h-.757c.168-.475.403-.924.696-1.333a3.028 3.028 0 0 1 2.03-1.363 1.163 1.163 0 0 1 1.212 1.075 3.028 3.028 0 0 1-.273 1.515ZM184.722 239.443a4.758 4.758 0 0 1-2.227 2.847c-.5.273-.651-.378-.151-.651a3.293 3.293 0 0 0 1.62-2.181c.12-.431.12-.887 0-1.318a.753.753 0 0 0-.318-.454h-.106a.657.657 0 0 0-.378 0c-.229.091-.436.23-.606.409-.2.221-.373.465-.515.727-.091.136-.152.272-.227.409v.091a.516.516 0 0 0 0 .136v.091h-.773a5.94 5.94 0 0 1 .697-1.333 2.918 2.918 0 0 1 2.029-1.348 1.178 1.178 0 0 1 1.227 1.06 3.232 3.232 0 0 1-.272 1.515ZM188.918 239.352a4.727 4.727 0 0 1-2.227 2.847c-.515.288-.667-.378-.167-.651a3.5 3.5 0 0 0 1.515-1.802c.047-.124.088-.251.121-.379.12-.431.12-.887 0-1.318a.782.782 0 0 0-.303-.454h-.091a.558.558 0 0 0-.378 0 1.308 1.308 0 0 0-.606.409 2.802 2.802 0 0 0-.515.712c-.091.136-.152.272-.227.409v.091l-.076.136v.091h-.803a5.94 5.94 0 0 1 .697-1.333 2.888 2.888 0 0 1 2.03-1.348 1.182 1.182 0 0 1 1.226 1.06 3.22 3.22 0 0 1-.196 1.53ZM193.114 239.276a4.742 4.742 0 0 1-2.242 2.848c-.5.288-.652-.379-.152-.652a3.492 3.492 0 0 0 1.515-1.802c.047-.124.088-.25.121-.379a2.543 2.543 0 0 0 0-1.302.818.818 0 0 0-.303-.47h-.106a.516.516 0 0 0-.363 0 1.316 1.316 0 0 0-.606.409c-.212.215-.391.46-.53.727 0 .121-.137.258-.228.394v.091a.618.618 0 0 0 0 .136v.091h-.757c.172-.473.406-.922.697-1.333a2.888 2.888 0 0 1 2.03-1.348 1.182 1.182 0 0 1 1.226 1.06 3.228 3.228 0 0 1-.302 1.53ZM197.279 239.17a4.788 4.788 0 0 1-2.242 2.848c-.5.288-.651-.379-.151-.652a3.56 3.56 0 0 0 1.635-2.181 2.543 2.543 0 0 0 0-1.302.91.91 0 0 0-.302-.47h-.106a.679.679 0 0 0-.379 0 1.52 1.52 0 0 0-.606.409c-.207.216-.38.461-.515.727a3.216 3.216 0 0 0-.227.394v.091a.516.516 0 0 0 0 .136.2.2 0 0 0 0 .091h-.758c.172-.473.406-.922.697-1.333a2.9 2.9 0 0 1 2.03-1.348 1.168 1.168 0 0 1 1.212 1.06 3.034 3.034 0 0 1-.288 1.53ZM201.49 239.079a4.727 4.727 0 0 1-2.227 2.848c-.5.288-.651-.379-.152-.651a3.277 3.277 0 0 0 1.621-2.182 2.4 2.4 0 0 0 0-1.302.848.848 0 0 0-.318-.47h-.106a.679.679 0 0 0-.379 0 1.51 1.51 0 0 0-.605.409 3.007 3.007 0 0 0-.515.727 3.359 3.359 0 0 0-.228.394v.091a.618.618 0 0 0 0 .136v.091h-.757c.162-.482.397-.937.697-1.348a2.885 2.885 0 0 1 2.014-1.348 1.182 1.182 0 0 1 1.227 1.06 2.897 2.897 0 0 1-.272 1.545ZM205.685 238.988a4.7 4.7 0 0 1-2.226 2.848c-.515.288-.667-.379-.167-.651a3.518 3.518 0 0 0 1.515-1.788c0-.136.091-.272.121-.393a2.569 2.569 0 0 0 0-1.303.937.937 0 0 0-.318-.47H204.443a.836.836 0 0 0-.379 0 1.52 1.52 0 0 0-.605.409c-.208.215-.382.46-.515.727a3.359 3.359 0 0 0-.228.394v.091a.618.618 0 0 0 0 .136.314.314 0 0 0 0 .106h-.893a6.09 6.09 0 0 1 .697-1.348 2.888 2.888 0 0 1 2.029-1.348 1.181 1.181 0 0 1 1.227 1.076 3.158 3.158 0 0 1-.091 1.514Z" fill="#999"/><path d="M204.019 254.605c2.53 5.922 9.179 13.42 9.573 18.176a5.53 5.53 0 0 1-3.287 5.68s4.65 2.545 4.287 6.922c-.197 2.273-3.969 3.954-3.969 3.954a6.54 6.54 0 0 1 3.03 6.059c-.455 3.029-4.166 4.316-4.166 4.316s2.5 3.742 1.03 6.741c-3.029 6.059-29.778 5.029-33.535-4.999-1.742-4.68 4.787-4.074 4.787-4.074s-9.18-3.151-9.089-8.679c.091-5.529 8.513-4.211 8.513-4.211s-8.831-3.105-8.149-8.861c.682-5.968 8.906-3.211 8.906-3.211s-5.801-4.272-4.301-8.543c2.499-7.044 13.42 2.378 19.373 1.212l3.635-9.588 3.362-.894Z" fill="#FFD3C9"/><path d="M209.048 263.269c-1.909-5.817 5.468-12.618 4.453-18.434-1.379-7.876-10.482-.576-12.875 10.694l-.333 9.088 8.755-1.348Z" fill="#FFD3C9"/><path d="M208.972 300.015c.02 0 .039.008.054.023a.075.075 0 0 1 .022.053.08.08 0 0 1-.022.054.08.08 0 0 1-.054.022 46.486 46.486 0 0 1-27.537-2.742c-.273-.121-.182-.621.136-.545a94.883 94.883 0 0 0 27.401 3.135ZM210.76 289.413c.106 0 .106.166 0 .181a43.605 43.605 0 0 1-29.855-4.847c-.318-.197-.409-.666 0-.484 6.271 3.196 21.191 5.543 29.855 5.15ZM181.375 271.842c8.906 4.938 18.494 6.513 28.567 6.725.121 0 .106.182 0 .212-4.953 1.242-11.361.44-16.298-.605a26.909 26.909 0 0 1-12.436-6.059c-.136-.076-.015-.379.167-.273Z" fill="#000"/><path d="M81.026 208.8c.379 1.621 12.118 11.891 19.585 11.542 2.408-.106-1.742-13.026-1.742-13.026l.227-.969 3.03-13.633-15.98-10.284-2.318-1.364s-.59 3.787-1.272 8.498c0 .212 0 .439-.106.666-.106.228-.091.515-.121.773a48.464 48.464 0 0 0-.318 2.136c-.091.711-.152 1.075-.212 1.651-.061.575-.137 1.136-.213 1.711a88.898 88.898 0 0 0-.56 12.299Z" fill="#FFD3C9"/><path d="M82.586 189.564a28.036 28.036 0 0 0 16.51 16.783l3.03-13.633-15.98-10.284-2.318-1.364s-.56 3.787-1.242 8.498Z" fill="#000"/><path d="M123.18 175.659c-1.833 24.432-16.662 26.098-21.948 25.75-4.771-.364-21.009-2.212-21.72-26.704-.713-24.493 11.238-31.37 22.22-31.112 10.981.257 23.266 7.619 21.448 32.066Z" fill="#FFD3C9"/><path d="M80.163 173.008c5.74.985 7.18-8.103 7.18-8.103s6.634.454 8.83-10.012a16.193 16.193 0 0 0 10.754 9.618c1.833.575-3.665-5.302-3.665-5.302s6.422 8.043 20.827 7.725c1.015 0 1.302-15.147-8.846-21.932-10.149-6.786-20.509-5.559-28.416.257a13.486 13.486 0 0 0-8.724 9.194c-2.136 7.574-.182 18.177 2.06 18.555Z" fill="#000"/><path d="M83.677 175.174s-4.09-8.406-7.816-7.088c-3.726 1.317-1.515 12.92 2.227 15.147a4.15 4.15 0 0 0 4.72-.095 4.16 4.16 0 0 0 1.126-1.223l-.257-6.741Z" fill="#FFD3C9"/><path d="M76.558 171.388s-.091 0 0 .106c2.635 1.605 3.696 4.453 4.286 7.346a2.271 2.271 0 0 0-3.271-1.166c-.091 0 0 .166 0 .151a2.578 2.578 0 0 1 2.635 1.333c.403.783.722 1.605.954 2.454.091.272.576.212.515-.091v-.076c.667-3.575-1.317-9.058-5.12-10.057ZM118.893 170.842c-.56-.151-1.06-.378-1.514-.575a2.73 2.73 0 0 1-1.515-.894.876.876 0 0 1 .152-1.06 2.165 2.165 0 0 1 2.181-.197 3.162 3.162 0 0 1 1.817 1.393.923.923 0 0 1-1.121 1.333ZM103.246 168.495a15.969 15.969 0 0 0 1.636-.106 2.743 2.743 0 0 0 1.697-.44.883.883 0 0 0 .151-1.06 2.16 2.16 0 0 0-2.045-.803c-.786.002-1.543.3-2.12.833a.923.923 0 0 0 .681 1.576ZM105.852 175.129c0-.076-.137 0-.152.121-.136 1.666-.575 3.544-2.151 3.923v.091c1.863-.045 2.439-2.545 2.303-4.135Z" fill="#000"/><path d="M104.58 173.22c-2.651-.515-3.484 4.802-1.03 5.287 2.453.484 3.241-4.847 1.03-5.287Z" fill="#000"/><path d="M103.489 173.342c-.515.227-1.061.681-1.621.651-.56-.03-1.06-.682-1.393-1.272h-.107c-.181 1.014 0 2.12 1.121 2.438 1.121.318 1.833-.484 2.242-1.514.076-.091-.03-.394-.242-.303ZM114.834 176.447s.106.09.106.151c-.333 1.651-.424 3.575.969 4.362v.091c-1.802-.545-1.651-3.12-1.075-4.604Z" fill="#000"/><path d="M116.591 174.962c2.681.243 1.999 5.589-.485 5.362-2.484-.227-1.772-5.559.485-5.362Z" fill="#000"/><path d="M117.651 175.462c.394.333.743.894 1.242 1 .5.106 1.091-.424 1.515-.924-.106 1.03-.576 2.06-1.515 2.12-.939.061-1.514-.893-1.514-1.938-.061-.061.121-.394.272-.258ZM103.822 188.443c.303.454.591 1.06 1.167 1.227a4.56 4.56 0 0 0 1.847 0s.091 0 0 .106a2.266 2.266 0 0 1-2.256.454 1.767 1.767 0 0 1-1-1.711c.06-.137.197-.152.242-.076ZM111.593 183.475a36.219 36.219 0 0 1-.197 3.681c0 .106-.303.121-.697 0a5.612 5.612 0 0 1-5.074-2.848.116.116 0 0 1-.008-.084.12.12 0 0 1 .205-.052 8.421 8.421 0 0 0 4.847 2.181c.121-.303-.122-4.302 0-4.287.887.209 1.743.535 2.544.97.197-5.226-.454-10.467-.181-15.678 0-.04.016-.078.044-.107a.152.152 0 0 1 .259.107 84.334 84.334 0 0 1 .923 16.889c.031.712-2.226-.515-2.665-.772Z" fill="#000"/><path d="M110.017 186.504a6.06 6.06 0 0 1-2.59 1.606 2.69 2.69 0 0 1-1.651 0c-1.151-.439-1.075-1.515-.757-2.439.173-.479.402-.937.681-1.363a7.77 7.77 0 0 0 4.317 2.196Z" fill="#000"/><path d="M107.427 188.11a2.676 2.676 0 0 1-1.651 0c-1.151-.439-1.075-1.515-.757-2.439a2.815 2.815 0 0 1 2.408 2.439Z" fill="#FF6868"/><path d="M122.786 151.424c-2.817-.667-18.479-.212-25.523 2.817-7.043 3.03-19.54 13.163-20.175 13.632-.636.47-3.863-25.295 17.07-30.006 22.842-5.044 28.628 13.557 28.628 13.557Z" fill="#fff"/><path d="M78.284 166.904s13.844-18.176 21.54-22.433c7.694-4.256 24.916-6.528 35.564-1.832 8.316 3.65-11.966 14.344-11.966 14.344a5.753 5.753 0 0 0-3.241-4.044c-5.181-2.06-15.026-.47-20.646 1.408-7.058 2.409-21.25 12.557-21.25 12.557Z" fill="#fff"/><path opacity=".2" d="M78 166.876s13.844-18.177 21.539-22.433c7.695-4.256 24.917-6.528 35.565-1.833 8.316 3.651-11.966 14.344-11.966 14.344a5.762 5.762 0 0 0-3.242-4.044c-5.18-2.06-15.025-.469-20.645 1.409C92.193 156.727 78 166.876 78 166.876Z" fill="#000"/><path d="m98.824 207.286-3.302 11.193-14.708-12.359-3.378 4.725s15.147 20.449 15.147 19.449l3.56-9.709 7.028 5.862-2.06-16.192-2.287-2.969Z" fill="#fff"/><path d="M102.686 218.373c-.439-2.65-.788-5.346-1.348-7.982 0-.091-.167-.121-.182 0-.288 2.636 1.409 12.814 1.636 15.268-.303-.257-6.498-5.12-6.543-5.029-.818 1.515-3.439 8.649-3.605 9.285-2.409-3.256-11.542-15.01-14.3-18.04a.096.096 0 0 0-.059-.038.094.094 0 0 0-.107.075.092.092 0 0 0 .016.069c2.18 3.469 14.298 19.328 14.45 19.267a104.173 104.173 0 0 0 3.71-10.269c1.076 1.09 7.392 6.649 7.377 6.24-.166-2.741-.621-6.119-1.045-8.846Z" fill="#000"/></g><defs><clipPath id="a"><rect width="372" height="350" rx="10" fill="#fff"/></clipPath></defs></svg>