<svg width="302" height="301" viewBox="0 0 302 301" fill="none" xmlns="http://www.w3.org/2000/svg">
<path d="M139.153 6.80469L133.654 7.8254L132.426 13.6168L131.198 7.8254L125.699 6.80469L131.175 5.46594L132.426 0L133.677 5.46594L139.153 6.80469Z" fill="#FFB445"/>
<path d="M62.8289 34.8076L59.7579 35.3771L59.0697 38.6168L58.3815 35.3771L55.3105 34.8076L58.3741 34.0606L59.0697 31.0059L59.7727 34.0606L62.8289 34.8076Z" fill="#FFB445"/>
<path d="M211.532 36.0132L208.461 36.5827L207.773 39.8223L207.092 36.5827L204.014 36.0132L207.077 35.2661L207.773 32.2114L208.476 35.2661L211.532 36.0132Z" fill="#FFB445"/>
<path d="M255.695 67.3961L252.624 67.9582L251.936 71.1978L251.255 67.9582L248.177 67.3887L251.24 66.6416L251.936 63.5869L252.639 66.6416L255.695 67.3961Z" fill="#FFB445"/>
<path d="M192.314 94.0748L189.243 94.6443L188.555 97.8765L187.867 94.6443L184.796 94.0748L187.852 93.3277L188.555 90.2656L189.251 93.3277L192.314 94.0748Z" fill="#FFB445"/>
<path d="M90.986 86.2939L87.915 86.8635L87.2268 90.1031L86.546 86.8635L83.475 86.2939L86.5312 85.5469L87.2268 82.4922L87.9298 85.5469L90.986 86.2939Z" fill="#FFB445"/>
<path d="M38.0908 113.986L35.0198 114.555L34.3316 117.788L33.6508 114.555L30.5724 113.986L33.636 113.239L34.3316 110.177L35.0346 113.239L38.0908 113.986Z" fill="#FFB445"/>
<path d="M179.571 75.9761C179.336 75.9761 179.11 76.0696 178.943 76.2362C178.777 76.4027 178.683 76.6286 178.683 76.8641C178.683 77.0996 178.777 77.3254 178.943 77.492C179.11 77.6585 179.336 77.7521 179.571 77.7521C179.807 77.7521 180.033 77.6585 180.199 77.492C180.366 77.3254 180.459 77.0996 180.459 76.8641C180.459 76.6286 180.366 76.4027 180.199 76.2362C180.033 76.0696 179.807 75.9761 179.571 75.9761Z" fill="#FFB445"/>
<path d="M96.98 63.6313C96.7575 63.6516 96.5506 63.7544 96.4 63.9193C96.2494 64.0843 96.1659 64.2997 96.1659 64.523C96.1659 64.7464 96.2494 64.9618 96.4 65.1267C96.5506 65.2917 96.7575 65.3945 96.98 65.4148C97.2025 65.3945 97.4093 65.2917 97.5599 65.1267C97.7106 64.9618 97.7941 64.7464 97.7941 64.523C97.7941 64.2997 97.7106 64.0843 97.5599 63.9193C97.4093 63.7544 97.2025 63.6516 96.98 63.6313Z" fill="#FFB445"/>
<path d="M23.3055 120.184C23.0831 120.204 22.8762 120.307 22.7256 120.472C22.575 120.637 22.4915 120.852 22.4915 121.076C22.4915 121.299 22.575 121.515 22.7256 121.679C22.8762 121.844 23.0831 121.947 23.3055 121.967C23.528 121.947 23.7349 121.844 23.8855 121.679C24.0361 121.515 24.1196 121.299 24.1196 121.076C24.1196 120.852 24.0361 120.637 23.8855 120.472C23.7349 120.307 23.528 120.204 23.3055 120.184Z" fill="#FFB445"/>
<path d="M82.328 69.9849C82.1611 69.9849 82.0012 70.0511 81.8832 70.1691C81.7652 70.2871 81.699 70.447 81.699 70.6139C81.699 70.7807 81.7652 70.9407 81.8832 71.0586C82.0012 71.1766 82.1611 71.2429 82.328 71.2429C82.4948 71.2429 82.6548 71.1766 82.7727 71.0586C82.8907 70.9407 82.957 70.7807 82.957 70.6139C82.957 70.447 82.8907 70.2871 82.7727 70.1691C82.6548 70.0511 82.4948 69.9849 82.328 69.9849Z" fill="#FFB445"/>
<path d="M47.104 76.2349C46.9372 76.2349 46.7772 76.3011 46.6592 76.4191C46.5412 76.5371 46.475 76.697 46.475 76.8639C46.475 77.0307 46.5412 77.1907 46.6592 77.3086C46.7772 77.4266 46.9372 77.4929 47.104 77.4929C47.2708 77.4929 47.4308 77.4266 47.5487 77.3086C47.6667 77.1907 47.733 77.0307 47.733 76.8639C47.733 76.697 47.6667 76.5371 47.5487 76.4191C47.4308 76.3011 47.2708 76.2349 47.104 76.2349Z" fill="#FFB445"/>
<path d="M122.258 13.6167C122.092 13.6167 121.932 13.683 121.814 13.8009C121.696 13.9189 121.629 14.0789 121.629 14.2457C121.629 14.4125 121.696 14.5725 121.814 14.6905C121.932 14.8084 122.092 14.8747 122.258 14.8747C122.425 14.8747 122.585 14.8084 122.703 14.6905C122.821 14.5725 122.887 14.4125 122.887 14.2457C122.887 14.0789 122.821 13.9189 122.703 13.8009C122.585 13.683 122.425 13.6167 122.258 13.6167Z" fill="#FFB445"/>
<path d="M218.739 47.2559C218.573 47.2559 218.413 47.3221 218.295 47.4401C218.177 47.5581 218.11 47.718 218.11 47.8849C218.11 48.0517 218.177 48.2117 218.295 48.3296C218.413 48.4476 218.573 48.5139 218.739 48.5139C218.906 48.5139 219.066 48.4476 219.184 48.3296C219.302 48.2117 219.368 48.0517 219.368 47.8849C219.368 47.718 219.302 47.5581 219.184 47.4401C219.066 47.3221 218.906 47.2559 218.739 47.2559Z" fill="#FFB445"/>
<path d="M277.91 105.266C275.69 105.266 275.69 108.683 277.91 108.683C280.13 108.683 280.108 105.266 277.91 105.266Z" fill="#FFB445"/>
<path d="M167.509 15.9468C165.289 15.9468 165.289 19.3565 167.509 19.3565C169.729 19.3565 169.707 15.9468 167.509 15.9468Z" fill="#FFB445"/>
<path d="M52.9352 130.288L118.595 150.946L99.9918 241.034L22.943 219.111L52.9352 130.288Z" fill="#FFB445"/>
<path opacity="0.6" d="M52.9352 130.288L118.595 150.946L99.9918 241.034L22.943 219.111L52.9352 130.288Z" fill="white"/>
<path d="M22.943 219.111L0.854004 208.128L44.1588 126.212L47.6072 130.014L52.9352 130.288L22.943 219.111Z" fill="#FFB445"/>
<path opacity="0.4" d="M22.943 219.111L0.854004 208.128L44.1588 126.212L47.6072 130.014L52.9352 130.288L22.943 219.111Z" fill="white"/>
<path opacity="0.5" d="M14.655 204.444L0.854004 208.128L44.1588 126.212L47.6072 130.014L14.655 204.444Z" fill="#FFB445"/>
<path d="M23.0984 217.033C21.8996 214.888 20.5898 212.817 19.2726 210.753C17.9554 208.69 16.579 206.663 15.173 204.658L14.9806 204.377L14.655 204.444C12.6348 204.836 10.6146 205.228 8.60924 205.709C6.60384 206.19 4.59843 206.641 2.61523 207.188C4.67243 207.003 6.71484 206.729 8.74984 206.448C10.7848 206.167 12.8198 205.812 14.8474 205.45L14.3294 205.235C15.7157 207.262 17.1316 209.259 18.577 211.226C20.02 213.187 21.5 215.147 23.0984 217.033Z" fill="#FFB445"/>
<path d="M14.6403 205.146C17.6003 198.97 20.4419 192.75 23.2687 186.515C26.0955 180.28 28.8335 174.022 31.6233 167.772C34.4131 161.522 37.0771 155.199 39.7633 148.926L43.7371 139.459C45.0247 136.293 46.3493 133.135 47.5999 129.955C46.1199 133.031 44.6917 136.145 43.2339 139.244L38.9715 148.579C36.1447 154.807 33.3993 161.071 30.6169 167.321C27.8345 173.571 25.1631 179.895 22.4769 186.175C19.7907 192.454 17.1711 198.786 14.6403 205.146Z" fill="#FFB445"/>
<path d="M52.3284 135.509L121.067 139.955L125.455 250.338L45.3798 247.839L52.3284 135.509Z" fill="#A9C297"/>
<path d="M45.3798 247.839L21.241 241.648L42.8194 133.394L47.0966 136.789L52.3284 135.509L45.3798 247.839Z" fill="#A9C297"/>
<path opacity="0.1" d="M33.6952 233.238L21.241 241.648L42.8194 133.394L47.0966 136.789L33.6952 233.238Z" fill="black"/>
<path d="M45.0097 245.361C43.3151 243.231 41.5243 241.211 39.7409 239.199C37.9575 237.188 36.1075 235.25 34.2501 233.334L33.9911 233.068L33.6951 233.238C31.8377 234.296 29.9951 235.361 28.1599 236.515C26.3247 237.668 24.5043 238.793 22.7209 240.05C24.6671 239.214 26.5763 238.29 28.4781 237.328C30.3799 236.367 32.2595 235.368 34.1317 234.37L33.5767 234.273C35.4218 236.221 37.2915 238.122 39.1859 239.976C41.0951 241.803 43.0043 243.645 45.0097 245.361Z" fill="black"/>
<path d="M33.8506 234.059C35.1826 225.99 36.3888 217.906 37.5506 209.807C38.7124 201.707 39.8298 193.601 40.9768 185.502C42.1238 177.403 43.1376 169.267 44.1514 161.138L45.6314 148.942C46.0902 144.866 46.586 140.805 47.0152 136.723C46.3344 140.754 45.735 144.8 45.0912 148.838L43.33 160.961C42.1386 169.052 41.0434 177.166 39.9038 185.265C38.7642 193.364 37.78 201.515 36.7292 209.644C35.6784 217.772 34.7238 225.901 33.8506 234.059Z" fill="black"/>
<path d="M119.617 42.4257C125.759 36.5086 142.083 29.4524 157.704 43.905C179.904 64.3931 171.994 120.51 168.908 129.06C168.908 129.06 130.768 142.706 96.61 123.461C96.61 123.461 114.792 85.4654 111.61 66.0868C110.886 61.7888 111.238 57.3783 112.635 53.2495C114.032 49.1207 116.431 45.4021 119.617 42.4257Z" fill="black"/>
<path d="M108.332 87.1959C108.213 87.5066 108.11 87.8172 107.991 88.1279C106.461 92.0726 104.571 95.8682 102.345 99.4666C100.305 102.968 97.7677 106.154 94.8119 108.927C94.7305 109.001 94.5972 108.89 94.6786 108.816C97.72 105.953 99.7994 102.307 101.709 98.6752C103.58 95.1192 105.236 91.4538 106.667 87.6989C109.62 80.0759 111.587 72.1072 112.52 63.986C112.52 63.8307 112.816 63.8455 112.809 63.986C112.772 65.1251 112.705 66.2567 112.616 67.3884C112.639 67.3791 112.664 67.376 112.688 67.3793C112.712 67.3826 112.735 67.3922 112.755 67.4072C112.774 67.4221 112.79 67.4419 112.799 67.4646C112.808 67.4872 112.812 67.512 112.809 67.5363C112.128 75.125 111.232 82.5658 108.99 89.866C106.718 97.0365 103.466 103.859 99.3258 110.14C97.0331 113.712 94.5196 117.139 91.8 120.398C91.7965 120.406 91.7914 120.412 91.785 120.417C91.7787 120.422 91.7713 120.425 91.7634 120.427C91.7555 120.428 91.7474 120.428 91.7396 120.426C91.7319 120.424 91.7248 120.42 91.7188 120.414C91.7128 120.409 91.7082 120.402 91.7053 120.395C91.7023 120.387 91.7012 120.379 91.7019 120.371C91.7026 120.363 91.7051 120.356 91.7093 120.349C91.7135 120.342 91.7192 120.336 91.726 120.332C99.3406 110.413 104.639 99.0228 108.332 87.1959Z" fill="black"/>
<path d="M150.734 40.7319C170.381 52.4182 176.323 75.7908 176.456 96.6117C176.559 103.022 176.028 109.426 174.872 115.731C174.872 115.755 174.863 115.778 174.846 115.794C174.83 115.811 174.807 115.82 174.784 115.82C174.76 115.82 174.737 115.811 174.721 115.794C174.704 115.778 174.695 115.755 174.695 115.731C175.966 104.711 175.635 93.5651 173.711 82.6399C171.853 72.4107 168.908 61.8412 162.921 53.0543C159.735 48.2099 155.531 44.1183 150.6 41.0647C150.415 40.9168 150.549 40.6209 150.734 40.7319Z" fill="black"/>
<path d="M157.016 117.189C187.356 144.674 208.949 168.35 208.668 179.119C208.024 203.239 195.296 208.446 193.032 207.684C169.093 199.548 153.879 154.015 143.815 126.493C133.825 99.1785 148.321 109.319 157.016 117.189Z" fill="#FFD3C9"/>
<path d="M173.052 196.692L212.361 167.373C212.361 167.373 174.488 128.283 154.796 113.72C138.257 101.478 129.947 110.117 140.307 134.341C150.112 157.262 173.052 196.692 173.052 196.692Z" fill="#FEE3C5"/>
<path d="M200.957 163.239C198.224 164.805 195.587 166.534 193.062 168.416C190.375 170.243 187.778 172.166 185.166 174.075C182.554 175.983 172.453 183.978 169.929 185.983C169.818 186.072 169.988 186.256 170.107 186.175C172.8 184.356 183.427 177.114 185.995 175.236C188.562 173.357 191.115 171.486 193.602 169.526C196.088 167.566 198.819 165.65 201.054 163.394C201.098 163.313 201.031 163.18 200.957 163.239Z" fill="black"/>
<path opacity="0.1" d="M195.763 179.755L173.052 196.693C173.052 196.693 150.112 157.27 140.307 134.341C133.58 118.616 134.727 109.467 140.877 108.32C150.719 121.02 176.745 154.659 195.763 179.755Z" fill="black"/>
<path d="M144.473 109.622C150.049 113.589 154.299 119.144 156.668 125.561C160.576 136.227 181.199 186.567 184.722 197.551C188.244 208.534 215.72 262.003 215.72 262.003C215.72 262.003 200.632 278.231 196.229 281.559C190.109 286.204 167.946 293.593 167.946 293.593C167.946 293.593 158.666 213.763 156.92 205.657C155.174 197.551 144.473 109.622 144.473 109.622Z" fill="#FEE3C5"/>
<path d="M193.92 233.446C192.84 236.826 190.435 239.555 187.778 241.803C186.342 243.024 183.619 245.598 182.361 242.809C181.986 241.709 181.986 240.515 182.361 239.414C182.894 237.337 183.783 235.368 184.988 233.593C186.416 231.375 188.895 228.416 191.848 228.564C194.586 228.764 194.549 231.412 193.92 233.446Z" fill="black"/>
<path d="M177.277 249.37C177.189 253.068 176.611 257.062 174.251 260.087C173.156 261.5 171.787 262.07 170.603 261.3C169.278 260.738 168.597 258.675 168.264 257.181C167.478 253.591 167.748 249.851 169.041 246.411C169.855 244.266 171.38 241.234 174.162 241.559C177.744 241.981 177.344 246.84 177.277 249.37Z" fill="black"/>
<path d="M190.96 246.441C192.64 247.483 191.604 252.284 190.427 254.636C188.947 257.646 186.246 261.152 183.59 260.227C182.243 259.754 181.673 256.33 184.004 251.67C186.18 247.358 189.591 245.583 190.96 246.441Z" fill="black"/>
<path d="M200.084 300.065H130.45C127.424 288.186 122.762 269.902 118.706 253.97C118.462 252.994 118.211 252.018 117.966 251.071C117.811 250.472 117.67 249.888 117.522 249.311C113.615 234 110.537 221.892 110.463 221.611L110.352 221.204C110.315 221.056 110.3 220.975 110.3 220.975H177.529L200.084 300.065Z" fill="#666666"/>
<path d="M175.346 220.916C175.346 220.96 175.346 221.042 175.346 221.145C175.346 221.937 175.346 222.728 175.346 223.52C175.346 225.531 175.228 227.543 175.094 229.555C174.563 237.423 173.535 245.249 172.016 252.987C170.049 263.192 167.444 273.263 164.216 283.142C163.928 284 163.758 284.481 163.743 284.533L158.378 287.18L157.941 287.402L147.3 292.698C145.82 293.438 144.732 293.978 144.429 294.14L144.347 294.185C144.347 294.185 144.229 296.574 144.081 300.065H71.4574C72.9374 287.757 73.1076 286.13 73.1076 286.13C72.6784 283.756 70.7766 277.639 71.4574 270.524C72.9374 254.895 82.5574 223.512 83.4158 221.641C83.6156 221.182 83.7414 220.946 83.7414 220.946H102.108H145.62H175.346V220.916Z" fill="#666666"/>
<path d="M144.421 293.978V294.14C144.421 296.115 144.37 298.097 144.34 300.058H143.6C143.763 298.075 143.896 296.086 144.133 294.103C144.133 293.926 144.133 293.748 144.185 293.571C144.185 293.541 144.196 293.513 144.217 293.492C144.238 293.472 144.266 293.46 144.296 293.46C144.325 293.46 144.353 293.472 144.374 293.492C144.395 293.513 144.407 293.541 144.407 293.571C144.414 293.719 144.421 293.852 144.421 293.978Z" fill="black"/>
<path d="M135.719 297.794C138.805 295.657 142.135 293.859 145.406 292.01C148.676 290.161 152.14 288.312 155.618 286.692C162.418 283.534 169.589 281.248 176.737 279.03C176.779 279.013 176.826 279.014 176.868 279.032C176.91 279.05 176.943 279.084 176.959 279.126C176.976 279.168 176.975 279.215 176.957 279.257C176.939 279.298 176.905 279.331 176.863 279.348C169.981 282.306 163.299 285.694 156.454 288.726C153.005 290.257 149.535 291.685 146.094 293.238C142.653 294.791 139.286 296.478 135.808 297.927C135.697 297.957 135.63 297.846 135.719 297.794Z" fill="black"/>
<path d="M154.559 264.096C154.648 260.716 154.885 257.343 155.048 253.971C155.447 246.012 155.788 238.002 156.528 230.065C156.538 230.007 156.568 229.954 156.614 229.916C156.659 229.878 156.716 229.857 156.776 229.857C156.835 229.857 156.892 229.878 156.938 229.916C156.983 229.954 157.013 230.007 157.024 230.065C157.127 236.227 156.89 242.403 156.765 248.556C156.698 251.641 156.609 254.718 156.528 257.802C156.356 260.743 156.337 263.69 156.469 266.633C156.631 268.852 157.12 273.172 160.021 273.438C162.751 273.689 164.246 270.746 164.927 268.578C166.658 263.098 167.273 257.181 167.835 251.478C168.168 248.098 168.501 244.732 168.701 241.345C168.901 237.957 169.174 232.883 168.989 229.466C168.989 229.252 169.293 229.259 169.33 229.466C169.87 232.425 169.892 238.342 169.818 241.84C169.152 273.253 164.194 275.043 161.575 275.553C161.253 275.616 160.926 275.651 160.598 275.657C160.598 276.396 160.472 277.092 160.42 277.794C160.346 278.911 160.206 280.013 160.058 281.13C159.897 282.218 159.669 283.295 159.377 284.355C159.14 285.431 158.757 286.468 158.237 287.439C158.217 287.469 158.187 287.492 158.153 287.504C158.118 287.516 158.081 287.517 158.046 287.506C158.011 287.495 157.981 287.474 157.959 287.444C157.938 287.415 157.926 287.379 157.926 287.343C157.901 286.276 157.99 285.21 158.193 284.163C158.341 283.083 158.489 281.944 158.711 280.916C158.933 279.888 159.125 278.8 159.347 277.75C159.488 277.01 159.591 276.315 159.725 275.598C158.877 275.451 158.079 275.095 157.404 274.563C156.728 274.031 156.196 273.339 155.854 272.55C154.589 269.976 154.493 266.914 154.559 264.096Z" fill="black"/>
<path d="M91.06 258.127C95.4482 258.438 99.7772 259 104.18 258.482C108.324 258.057 112.273 256.507 115.598 254C122.836 248.393 126.01 239.207 127.964 230.605C127.97 230.564 127.992 230.527 128.025 230.502C128.058 230.477 128.1 230.466 128.141 230.472C128.183 230.478 128.22 230.5 128.245 230.533C128.27 230.566 128.28 230.608 128.275 230.649C127.453 238.12 125.847 245.842 121.023 251.847C118.947 254.493 116.321 256.656 113.327 258.186C110.146 259.664 106.665 260.38 103.159 260.279C99.0485 260.244 94.9588 259.692 90.986 258.637C90.9231 258.622 90.868 258.584 90.8316 258.531C90.7953 258.477 90.7803 258.412 90.7895 258.348C90.7988 258.284 90.8317 258.226 90.8818 258.185C90.9318 258.144 90.9954 258.123 91.06 258.127Z" fill="black"/>
<path d="M186.838 256.374C185.617 256.233 184.418 256.374 183.175 255.442C181.932 254.51 180.881 252.92 179.912 250.265C177.803 244.444 176.767 235.745 176.079 227.691C176.079 227.513 175.982 227.513 175.99 227.691C176.345 234.599 176.922 241.81 178.365 247.765C178.852 250.02 179.597 252.211 180.585 254.296C181.488 256.026 182.494 256.855 183.464 257.18C184.017 257.361 184.603 257.425 185.182 257.367C185.762 257.31 186.323 257.133 186.831 256.847C186.949 256.818 186.927 256.374 186.838 256.374Z" fill="black"/>
<path d="M90.32 223.09C87.9594 235.997 85.14 249.089 82.587 261.958C81.9284 265.812 80.7814 269.614 81.0108 273.526C81.3443 277.479 81.9676 281.403 82.8756 285.265C82.4612 287.75 82.0616 290.235 81.6102 292.713C81.1588 295.19 80.7592 297.624 80.2856 300.072C80.515 297.587 80.7962 295.117 81.0256 292.639C81.255 290.161 81.5806 287.683 81.8692 285.242C80.7781 281.454 80.035 277.575 79.6492 273.652C79.5183 272.29 79.5506 270.917 79.7454 269.562C80.5298 264.281 81.6324 259.126 82.7054 253.948C84.9254 243.593 87.4414 233.327 90.246 223.127L90.32 223.09Z" fill="black"/>
<path d="M75.8012 248.149C76.0972 248.512 183.686 248.386 184.966 247.062C185.188 246.833 191.271 235.043 191.056 230.738C190.723 223.978 185.684 215.886 185.95 211.263C186.402 203.527 156.158 127.41 151.607 116.256C147.056 105.103 126.447 102.662 115.872 111.471C100.421 124.341 76.5412 221.359 74.4914 227.713C72.0272 235.324 75.52 247.809 75.8012 248.149Z" fill="white"/>
<path d="M138.731 218.068C138.39 216.981 158.222 213.12 160.368 212.802C162.514 212.484 181.429 212.632 181.629 213.016C181.828 213.401 164.261 214.303 162.84 214.274C161.419 214.244 138.894 218.601 138.731 218.068Z" fill="#999999"/>
<path d="M159.14 216.715C158.259 216.167 170.418 216.182 170.381 216.589C170.344 216.996 160.502 217.559 159.14 216.715Z" fill="#999999"/>
<path d="M123.339 106.523C123.339 106.523 123.775 186.19 122.865 193.179C121.955 200.169 106.089 296.056 106.089 296.056C106.089 296.056 72.0494 289.155 67.4318 285.878C62.8142 282.602 54.726 263.689 54.726 263.689C54.726 263.689 74.9205 214.873 76.7558 209.762C79.3753 202.514 103.818 126.53 110.056 116.271C113.056 111.427 117.816 107.933 123.339 106.523Z" fill="#FEE3C5"/>
<path d="M100.295 124.837C72.412 154.822 52.9352 180.265 54.1488 190.968C56.8646 214.947 69.9922 219.074 72.1826 218.083C95.3372 207.943 111.514 157.899 119.18 129.622C126.787 101.545 108.28 116.249 100.295 124.837Z" fill="#FFD3C9"/>
<path d="M52.728 172.795L94.2346 198.904C94.2346 198.904 116.324 151.131 120.579 126.072C124.027 105.791 118.04 101.456 99.1556 119.829C81.2772 137.188 52.728 172.795 52.728 172.795Z" fill="#FEE3C5"/>
<path d="M94.02 186.759C91.582 184.769 89.0269 182.926 86.3684 181.241C83.697 179.4 80.9738 177.669 78.2284 175.916C75.483 174.163 64.42 167.617 61.6302 165.99C61.5044 165.916 61.3934 166.145 61.5118 166.227C64.1832 168.076 74.7652 175.406 77.444 177.107C80.1228 178.808 82.7868 180.539 85.5026 182.151C88.2184 183.764 91.0082 185.62 93.9164 186.892C93.9756 186.915 94.0644 186.848 94.02 186.759Z" fill="black"/>
<path d="M89.6541 195.872C91.4523 196.87 93.2209 197.898 94.9969 198.926L94.6194 199.052C99.7994 184.422 105.431 169.97 111.144 155.547C113.038 150.739 114.999 145.931 116.856 141.124C112.638 156.072 106.903 170.539 101.146 184.947C99.1557 189.836 97.1206 194.703 94.9672 199.526C93.1912 198.32 91.4079 197.114 89.6541 195.872Z" fill="black"/>
<path d="M117.404 144.881C116.72 147.909 115.087 150.641 112.742 152.677C114.303 150.095 115.754 147.41 117.404 144.881Z" fill="black"/>
<path d="M191.182 205.79C185.654 195.331 182.013 171.974 195.03 126.922C196.836 120.687 242.664 130.384 241.088 137.137C239.09 145.65 229.521 178.246 228.508 180.539C220.072 199.902 194.934 212.883 191.182 205.79Z" fill="#FFD3C9"/>
<path d="M187.497 197.203C186.35 193.811 185.562 190.308 185.144 186.752C184.936 184.977 184.759 183.194 184.685 181.404C184.613 179.604 184.652 177.8 184.803 176.005C185.061 172.44 185.499 168.89 186.113 165.369C186.697 161.848 187.511 158.369 188.548 154.955C187.926 158.46 187.475 161.981 187.068 165.502C186.661 169.023 186.328 172.558 186.083 176.086C185.987 177.846 185.898 179.614 185.965 181.352C186.032 183.091 186.113 184.88 186.254 186.641C186.52 190.132 186.875 193.653 187.497 197.203Z" fill="black"/>
<path d="M215.854 149.126C210.318 149.185 194.941 132.625 195.03 126.937C195.274 111.441 207.795 95.1989 209.031 84.0969C210.089 74.77 210.585 60.8056 215.624 61.168C222.972 61.7006 224.467 79.4372 224.704 89.6664C229.492 86.8262 233.873 84.8291 236.862 84.5999C246.763 83.8602 255.762 127.61 248.377 134.503C241.28 141.153 221.381 149.037 215.854 149.126Z" fill="#FFD3C9"/>
<path d="M261.001 146.02C254.341 121.612 242.767 82.5291 239.593 79.4078C236.973 82.8841 230.469 121.227 226.902 145.14L225.422 144.918C225.422 144.755 227.893 128.394 230.735 112.107C236.566 78.7273 238.35 78.143 239.208 77.862C239.354 77.8147 239.509 77.7989 239.662 77.8155C239.815 77.832 239.963 77.8806 240.096 77.9581C244.351 80.2436 259.432 134.733 262.414 145.635L261.001 146.02Z" fill="black"/>
<path d="M221.011 144.467L219.576 144.119C219.613 143.964 223.527 127.788 227.827 111.678C236.625 78.7126 238.379 78.1357 239.223 77.862C239.374 77.8147 239.533 77.8001 239.69 77.8192C239.847 77.8383 239.998 77.8908 240.133 77.973C244.166 80.3251 255.014 133.357 257.153 143.964L255.673 144.26C250.9 120.525 242.405 82.4996 239.526 79.3931C236.796 82.3961 226.776 120.628 221.011 144.467Z" fill="black"/>
<path d="M208.794 134.763L284.548 134.481L295.611 262.595L207.869 267.018L208.794 134.763Z" fill="#FFB445"/>
<path d="M207.869 267.017L181.111 261.988L198.264 133.157L203.155 136.744L208.794 134.762L207.869 267.017Z" fill="#FFB445"/>
<path opacity="0.2" d="M207.869 267.017L181.111 261.988L198.264 133.157L203.155 136.744L208.794 134.762L207.869 267.017Z" fill="black"/>
<path opacity="0.1" d="M194.231 250.989L181.111 261.988L198.264 133.157L203.155 136.744L194.231 250.989Z" fill="black"/>
<g opacity="0.1">
<path d="M207.321 264.155C205.338 261.81 203.266 259.614 201.194 257.417C199.122 255.22 196.991 253.12 194.838 251.049L194.542 250.76L194.231 250.99C192.255 252.402 190.287 253.815 188.363 255.339C186.439 256.862 184.5 258.342 182.628 259.976C184.707 258.815 186.742 257.558 188.762 256.278C190.782 254.998 192.78 253.637 194.771 252.262L194.157 252.203C196.288 254.313 198.446 256.372 200.632 258.379C202.8 260.339 205.02 262.291 207.321 264.155Z" fill="black"/>
<path d="M194.445 251.936C195.422 242.358 196.258 232.772 197.08 223.172C197.901 213.571 198.612 203.978 199.389 194.377C200.166 184.777 200.787 175.147 201.409 165.531L202.319 151.101C202.578 146.286 202.881 141.486 203.103 136.656C202.6 141.441 202.186 146.271 201.72 151.027L200.469 165.398C199.648 175.014 198.93 184.592 198.16 194.192C197.391 203.793 196.762 213.423 196.14 223.038C195.518 232.654 194.919 242.321 194.445 251.936Z" fill="black"/>
</g>
<path d="M229.795 144.437L228.315 144.259C228.315 144.089 230.335 127.632 232.755 111.331C237.728 77.8174 239.474 77.6029 240.525 77.4772C241.576 77.3514 243.359 77.1222 254.141 109.94C259.373 125.887 264.235 142.085 264.287 142.247L262.866 142.676C255.873 119.333 243.848 82.026 240.666 79.0674C238.135 82.4845 232.689 120.65 229.795 144.437Z" fill="black"/>
<path d="M224.704 143.594L223.224 143.298C223.224 143.135 226.532 126.907 230.21 110.828C237.758 77.8101 239.548 77.5956 240.51 77.4773C241.672 77.3368 243.419 77.1297 250.56 109.644C254.023 125.406 257.094 141.449 257.123 141.589L255.643 141.863C251.27 118.934 243.433 82.248 240.621 79.0675C237.861 82.3515 229.44 120.051 224.704 143.594Z" fill="black"/>
<path d="M213.774 137.277L276.556 137.3L301.146 236.456L223.942 240.243L213.774 137.277Z" fill="#A9C297"/>
<path d="M213.774 137.277L206.315 141.848L199.211 140.569L199.174 248.556L223.942 240.243L213.774 137.277Z" fill="#A9C297"/>
<path opacity="0.1" d="M206.315 141.848L199.211 140.569L199.174 248.556L211.11 232.484L206.315 141.848Z" fill="black"/>
<path d="M301.146 236.456L223.942 240.243L199.174 248.556L275.046 244.68L301.146 236.456Z" fill="black"/>
<path d="M223.002 239.606C221.315 238.489 212.783 232.668 211.014 231.744L210.77 231.618L210.577 231.803C209.364 232.986 201.653 244.517 200.536 245.856C201.86 244.813 209.882 233.682 211.11 232.543L210.674 232.609C212.42 233.497 221.159 238.852 223.002 239.606Z" fill="black"/>
<path d="M210.6 232.387C210.466 224.85 210.207 217.321 209.934 209.791C209.66 202.262 209.29 194.732 208.972 187.203C208.653 179.673 208.232 172.151 207.758 164.622L207.055 153.342C206.781 149.577 206.544 145.82 206.234 142.062C206.293 145.827 206.419 149.599 206.507 153.364L206.9 164.659C207.173 172.188 207.536 179.718 207.862 187.247C208.187 194.777 208.602 202.299 209.083 209.821C209.564 217.343 210 224.873 210.6 232.387Z" fill="black"/>
<path d="M221.84 88.8162C220.427 93.7791 227.087 92.5957 227.087 92.5957C227.087 92.5957 217.911 96.6046 218.444 102.285C218.969 107.758 226.961 106.042 227.538 105.931C227.05 106.146 218.717 110.051 219.835 115.702C221.004 121.582 228.715 118.483 229.233 118.276C228.841 118.624 223.735 123.313 225.533 127.411C228.678 134.459 242.072 122.84 248.28 123.542C248.28 123.542 248.28 134.193 248.354 134.504C248.354 134.504 261.327 123.712 261.808 115.273C261.897 114.048 261.565 112.83 260.867 111.819C260.168 110.809 259.145 110.068 257.967 109.718C257.967 109.718 262.533 106.701 261.793 102.218C261.408 99.9255 257.353 98.5202 257.353 98.5202C257.353 98.5202 260.912 95.9537 260.002 92.0114C259.262 88.8605 255.37 87.9212 255.37 87.9212C255.37 87.9212 257.634 83.8679 255.858 80.8946C252.38 74.8665 224.859 78.1875 221.84 88.8162Z" fill="#FFD3C9"/>
<path d="M254.829 87.6695C254.849 87.6695 254.868 87.6617 254.882 87.6479C254.896 87.634 254.903 87.6152 254.903 87.5956C254.903 87.5759 254.896 87.5571 254.882 87.5433C254.868 87.5294 254.849 87.5216 254.829 87.5216C245.52 86.4121 234.953 88.0394 226.709 92.6177C226.436 92.7731 226.561 93.276 226.894 93.1651C236.307 90.066 244.891 88.0615 254.829 87.6695Z" fill="black"/>
<path d="M257.56 98.4386C257.664 98.4386 257.664 98.261 257.56 98.2463C247.94 97.1516 236.1 99.3113 227.22 105.709C226.917 105.931 226.865 106.449 227.22 106.205C233.443 102.396 248.599 98.7492 257.56 98.4386Z" fill="black"/>
<path d="M228.767 118.942C237.521 113.128 247.267 110.71 257.627 109.659C257.76 109.659 257.723 109.46 257.627 109.437C252.447 108.572 245.89 109.933 240.903 111.412C236.243 112.705 232.003 115.194 228.604 118.631C228.434 118.801 228.582 119.06 228.767 118.942Z" fill="black"/>
<path d="M226.931 92.5215C226.606 92.699 227.227 92.9727 226.931 93.165C225.592 93.9712 217.94 99.4963 219.021 102.684C219.887 105.236 223.92 105.842 225.562 105.465L229.684 104.526L226.14 106.848C224.551 107.86 223.141 109.127 221.966 110.598C220.841 112.078 220.094 113.786 220.419 115.421C220.521 116.224 220.894 116.969 221.477 117.531C222.059 118.093 222.817 118.44 223.624 118.512C225.436 118.637 227.25 118.296 228.892 117.521L233.503 115.546L229.803 118.904C228.775 119.839 227.87 120.9 227.109 122.063C226.34 123.146 225.91 124.433 225.873 125.761C225.881 126.354 226.053 126.934 226.372 127.434C226.691 127.935 227.144 128.336 227.679 128.594C228.958 128.992 230.324 129.015 231.616 128.66C234.405 128.083 237.106 126.9 239.844 125.857C241.213 125.325 242.59 124.785 243.988 124.319C245.365 123.766 246.843 123.514 248.325 123.579C246.866 123.678 245.441 124.06 244.129 124.703C242.782 125.273 241.465 125.909 240.14 126.545C237.501 127.905 234.738 129.012 231.889 129.851C230.351 130.333 228.705 130.356 227.153 129.918C226.337 129.585 225.635 129.022 225.134 128.297C224.633 127.571 224.355 126.716 224.334 125.835C224.337 124.2 224.829 122.603 225.747 121.249C226.575 119.94 227.57 118.744 228.707 117.691L229.625 119.075C227.696 120.02 225.553 120.443 223.409 120.302C222.222 120.186 221.111 119.664 220.264 118.823C219.472 117.967 218.956 116.892 218.784 115.739C218.384 113.416 219.457 111.234 220.745 109.637C222.061 108.04 223.631 106.67 225.392 105.584L225.969 106.959C223.868 107.366 219.309 107.181 217.445 103.387C215.72 98.091 225.141 93.2685 226.931 92.5215Z" fill="black"/>
<path d="M227.087 92.5957C226.024 92.575 224.971 92.3929 223.964 92.0557C223.555 91.9297 223.188 91.6965 222.901 91.3803C222.613 91.0642 222.415 90.6768 222.329 90.2584C222.263 89.3195 222.472 88.3819 222.928 87.5587C223.387 86.6267 223.92 85.6652 224.504 84.6963C223.506 85.2766 222.641 86.0603 221.966 86.9966C221.565 87.4868 221.264 88.0516 221.083 88.6584C220.901 89.2653 220.842 89.9021 220.908 90.5321C221.05 91.2188 221.399 91.8458 221.907 92.3294C222.406 92.7607 223.016 93.0449 223.668 93.1504C224.838 93.3332 226.035 93.1389 227.087 92.5957Z" fill="black"/>
<path d="M147.3 129.651C140.27 131.131 128.6 120.095 124.116 111.323C123.812 110.717 124.9 104.504 125.862 96.8854C126.432 92.2626 126.957 87.0999 127.091 82.3514C127.091 81.3751 156.691 90.4357 156.691 90.4357C156.691 90.4357 153.435 100.31 153.22 108.579C153.212 109.233 153.261 109.886 153.368 110.532C153.389 110.637 153.402 110.743 153.405 110.85C153.96 114.57 154.078 128.246 147.3 129.651Z" fill="#FFD3C9"/>
<path d="M128.904 82.5586C130.051 90.6207 134.491 110.147 150.364 110.961C151.38 111.024 152.4 110.999 153.412 110.887C153.429 110.779 153.429 110.669 153.412 110.561C153.31 109.916 153.258 109.263 153.257 108.609C153.449 100.325 156.668 90.458 156.668 90.458C156.668 90.458 135.334 83.8973 128.904 82.5586Z" fill="black"/>
<path d="M123.331 49.1787C120.135 59.7481 125.781 90.2287 133.307 97.0112C144.222 106.848 162.056 107.751 170.41 94.6444C178.498 81.9447 170.41 42.3444 162.033 36.2128C149.653 27.0856 128.06 33.5723 123.331 49.1787Z" fill="#FFD3C9"/>
<path d="M123.331 49.1787C120.135 59.7481 125.781 90.2287 133.307 97.0112C144.222 106.848 162.056 107.751 170.41 94.6444C178.498 81.9447 170.41 42.3444 162.033 36.2128C149.653 27.0856 128.06 33.5723 123.331 49.1787Z" fill="#FFD3C9"/>
<path d="M148.824 68.6533C148.824 68.5794 148.676 68.7791 148.691 68.8604C149.039 70.924 149.091 73.3427 147.307 74.282C147.256 74.282 147.307 74.4152 147.344 74.393C149.587 73.7643 149.52 70.5542 148.824 68.6533Z" fill="black"/>
<path d="M146.686 66.7451C143.319 66.9448 143.97 73.6607 147.085 73.4758C150.201 73.2909 149.52 66.5824 146.686 66.7451Z" fill="black"/>
<path d="M161.36 67.3223C161.36 67.2409 161.53 67.411 161.53 67.4924C161.582 69.5856 161.989 71.9672 163.92 72.5515C163.98 72.5515 163.98 72.6773 163.92 72.6699C161.589 72.4776 161.071 69.3045 161.36 67.3223Z" fill="black"/>
<path d="M163.106 65.0367C166.444 64.5929 167.08 71.3088 163.987 71.6934C160.894 72.0781 160.302 65.4065 163.106 65.0367Z" fill="black"/>
<path d="M143.659 61.3161C144.565 61.1185 145.459 60.8716 146.338 60.5765C147.367 60.2954 148.21 60.1771 148.935 59.3413C149.113 59.0819 149.201 58.7713 149.185 58.4572C149.169 58.1432 149.05 57.8431 148.847 57.6031C147.907 56.6268 146.567 56.6638 145.317 56.9523C144.052 57.2016 142.925 57.9137 142.157 58.9493C141.328 60.0366 142.431 61.5232 143.659 61.3161Z" fill="black"/>
<path d="M166.185 59.9476C165.262 59.8899 164.343 59.7838 163.432 59.6296C162.381 59.4964 161.523 59.5038 160.687 58.7716C160.474 58.5404 160.343 58.2455 160.315 57.9325C160.287 57.6196 160.363 57.3062 160.531 57.0408C161.316 55.9461 162.648 55.7834 163.92 55.8944C165.21 55.9586 166.429 56.502 167.339 57.418C167.537 57.6376 167.666 57.91 167.71 58.2019C167.755 58.4937 167.714 58.7922 167.591 59.0608C167.469 59.3294 167.27 59.5564 167.02 59.714C166.771 59.8715 166.48 59.9527 166.185 59.9476Z" fill="black"/>
<path d="M149.402 87.3811C149.942 87.8251 150.504 88.4541 151.259 88.4467C152.043 88.3617 152.8 88.1094 153.479 87.7067C153.546 87.7067 153.62 87.7067 153.583 87.8029C153.325 88.2547 152.948 88.6261 152.492 88.8757C152.036 89.1253 151.519 89.2432 151 89.2163C150.566 89.1456 150.162 88.9475 149.841 88.6471C149.519 88.3467 149.294 87.9576 149.194 87.5291C149.165 87.3811 149.32 87.3219 149.402 87.3811Z" fill="black"/>
<path d="M151 80.9611C151.604 81.7349 152.362 82.376 153.225 82.8443C154.088 83.3126 155.039 83.5981 156.017 83.683C156.872 83.7655 157.734 83.7257 158.578 83.5646C158.741 83.5483 158.902 83.5161 159.059 83.4685L159.51 83.3575C159.618 83.3253 159.713 83.2588 159.779 83.168C159.846 83.0773 159.881 82.9672 159.88 82.8546C159.888 82.7833 159.888 82.7114 159.88 82.6401V82.4552C159.776 80.8501 159.399 78.4315 159.399 78.4315C160.013 78.6682 163.099 79.7407 162.995 78.9123C161.952 72.0262 160.775 64.3635 158.304 57.729C158.292 57.6789 158.261 57.6356 158.217 57.6086C158.173 57.5816 158.121 57.573 158.071 57.5847C158.021 57.5965 157.977 57.6277 157.95 57.6714C157.923 57.7151 157.915 57.7677 157.926 57.8177C158.666 64.4745 160.576 70.9611 161.427 77.6401C160.435 77.3664 158.822 76.8339 157.986 76.9005C157.764 76.9892 158.8 81.5676 158.785 82.2924C158.791 82.3192 158.791 82.347 158.785 82.3738C156.128 82.9581 154.019 82.3294 151.244 80.7614C151.037 80.6504 150.882 80.8058 151 80.9611Z" fill="black"/>
<path d="M157.579 82.8397C156.803 84.0634 155.725 85.0669 154.448 85.7539C153.744 86.1046 152.947 86.2261 152.169 86.1015C150.467 85.8205 150.282 84.2968 150.475 82.9655C150.579 82.2577 150.768 81.5649 151.037 80.9019C152.955 82.2294 155.247 82.9085 157.579 82.8397Z" fill="black"/>
<path d="M154.448 85.7538C153.744 86.1045 152.947 86.226 152.169 86.1014C150.467 85.8203 150.282 84.2967 150.475 82.9653C152.273 82.9875 154.145 84.0378 154.448 85.7538Z" fill="#FF6868"/>
<path d="M130.014 75.2954C131.582 73.7569 133.159 63.9863 133.159 63.9863C133.159 63.9863 151.111 55.9316 152.48 39.2823C152.48 39.2823 161.708 48.6387 169.5 50.4287C169.5 50.4287 168.457 33.3504 152.635 31.7601C152.635 31.7601 136.947 26.5235 124.515 41.7453C112.083 56.9671 125.255 75.8723 125.255 75.8723L130.014 75.2954Z" fill="black"/>
<path d="M151.895 36.1758C152.769 38.8015 152.376 41.8562 151.755 44.5115C151.087 47.2222 150.033 49.8228 148.625 52.2334C147.275 54.7367 145.525 57.0028 143.445 58.9419C141.003 61.0721 137.998 62.4848 135.053 63.7866C134.964 63.8309 135.053 63.9937 135.127 63.9567C138.242 62.6845 141.373 61.3679 144.059 59.3043C146.352 57.4254 148.313 55.1752 149.86 52.6476C151.55 50.172 152.695 47.3661 153.22 44.4154C153.686 41.5012 153.102 38.8607 152.251 36.087C152.154 35.8873 151.829 35.9613 151.895 36.1758Z" fill="black"/>
<path d="M155.44 28.2764C152.199 26.198 144.451 22.0856 137.621 21.8415C130.657 21.5974 121.659 24.8814 118.514 25.9169C115.924 26.7675 107.244 27.6255 100.591 31.2645C96.2104 33.6536 94.242 40.0145 94.8414 43.1654C95.7368 47.9065 105.475 45.1624 105.941 46.9967C106.237 48.2171 104.543 54.2674 107.503 57.115C110.463 59.9626 110.337 59.5114 112.032 61.0721C116.139 64.8664 121.326 42.5219 129.725 36.5308C138.124 30.5397 155.44 28.2764 155.44 28.2764Z" fill="#FF6868"/>
<path opacity="0.1" d="M154.7 28.6166C154.7 28.6166 138.057 30.5396 129.666 36.5381C121.274 42.5366 117.382 64.0084 113.267 60.2066C111.454 58.5276 110.796 56.3679 110.5 52.862C112.468 46.723 116.575 37.3295 122.91 31.4124C128.83 25.8577 137.821 24.016 147.041 24.4228C149.706 25.6049 152.268 27.0078 154.7 28.6166Z" fill="black"/>
<path d="M112.786 70.8576C117.5 64.0381 122.125 53.1062 129.666 45.2512C137.206 37.3962 156.047 35.1403 158.526 35.6877C164.586 37.0116 165.467 40.1255 166.518 39.7557C167.569 39.3859 162.566 31.4421 161.012 30.1404C158.591 28.3938 155.81 27.2087 152.872 26.6714C150.201 26.309 133.543 25.3253 126.469 31.3608C119.395 37.3962 107.836 55.6432 108.583 60.9094C108.761 62.1668 110.241 63.2023 110.478 64.9848C110.788 67.3369 110.848 69.9996 111.269 71.6416C111.647 73.0247 112.52 71.2792 112.786 70.8576Z" fill="#FF6868"/>
<path d="M131.708 41.5161C130.438 40.4366 129.262 39.2514 128.193 37.9732C127.093 36.6981 126.146 35.2979 125.374 33.8016C125.371 33.7879 125.366 33.7749 125.357 33.7635C125.349 33.7522 125.339 33.7427 125.326 33.7359C125.314 33.7291 125.301 33.725 125.287 33.7239C125.273 33.7228 125.259 33.7248 125.246 33.7298C125.232 33.7347 125.221 33.7424 125.211 33.7524C125.201 33.7623 125.193 33.7743 125.189 33.7875C125.184 33.8007 125.182 33.8147 125.184 33.8287C125.185 33.8426 125.189 33.8561 125.196 33.8682C125.761 35.5098 126.586 37.0505 127.638 38.4317C128.712 39.7833 130.03 40.9222 131.523 41.7897C131.693 41.8785 131.841 41.6344 131.708 41.5161Z" fill="black"/>
<path d="M113.356 67.4702C113.233 67.0364 113.087 66.6093 112.92 66.1906C112.764 65.7099 112.66 65.2141 112.609 64.7113C112.644 63.7427 112.575 62.7731 112.402 61.8193C112.135 61.0723 111.785 60.3577 111.358 59.6892C110.83 58.9606 110.569 58.0727 110.618 57.1744C110.618 57.056 110.448 57.0191 110.433 57.1744C110.145 58.9125 111.121 60.34 111.647 61.9229C111.987 62.9362 111.795 63.9939 111.958 65.0294C112.04 66.0121 112.44 66.9415 113.097 67.6773C113.179 67.7069 113.393 67.6255 113.356 67.4702Z" fill="black"/>
<path d="M116.331 61.5749C115.894 60.8353 115.399 60.1548 115.029 59.356C114.677 58.5966 114.38 57.8131 114.141 57.0114C113.889 56.2273 113.711 55.4211 113.482 54.6297C113.208 53.6978 112.823 52.788 112.594 51.8413C112.594 51.7155 112.387 51.7821 112.416 51.9078C112.646 52.8842 112.712 53.9123 112.912 54.9034C113.103 55.757 113.351 56.5971 113.652 57.4182C113.92 58.2115 114.265 58.9769 114.681 59.7037C115.074 60.4488 115.616 61.1057 116.272 61.6341C116.28 61.6354 116.288 61.6347 116.296 61.6322C116.304 61.6297 116.311 61.6253 116.317 61.6196C116.322 61.6138 116.327 61.6068 116.329 61.599C116.332 61.5912 116.332 61.583 116.331 61.5749Z" fill="black"/>
<path d="M119.321 56.2939C118.274 55.0813 117.409 53.7235 116.753 52.2629C116.124 50.8354 115.584 49.3635 115.051 47.899C115.051 47.7955 114.844 47.8324 114.866 47.899C115.101 49.5057 115.531 51.0779 116.146 52.5809C116.459 53.3062 116.854 53.9935 117.323 54.6297C117.869 55.2864 118.49 55.8772 119.173 56.3901C119.254 56.4936 119.395 56.3827 119.321 56.2939Z" fill="black"/>
<path d="M122.451 51.2793C121.914 50.7738 121.482 50.1682 121.178 49.4968C120.778 48.7719 120.401 48.0323 120.046 47.2779C119.705 46.5382 119.35 45.8577 119.01 45.1403C118.619 44.4414 118.382 43.6673 118.314 42.8696C118.314 42.8441 118.304 42.8196 118.286 42.8016C118.268 42.7836 118.244 42.7734 118.218 42.7734C118.193 42.7734 118.168 42.7836 118.15 42.8016C118.132 42.8196 118.122 42.8441 118.122 42.8696C118.063 43.666 118.166 44.4661 118.425 45.2216C118.665 46.0663 118.98 46.888 119.365 47.6773C119.748 48.4582 120.181 49.2142 120.66 49.9406C121.039 50.6164 121.614 51.1608 122.31 51.5012C122.443 51.553 122.577 51.3829 122.451 51.2793Z" fill="black"/>
<path d="M125.181 44.7188C124.73 44.1123 124.286 43.5058 123.886 42.8623C123.487 42.2188 123.146 41.5679 122.762 40.9023C122.377 40.2366 122.022 39.5191 121.666 38.8017C121.655 38.7821 121.637 38.7671 121.616 38.7595C121.594 38.7519 121.571 38.7521 121.549 38.76C121.528 38.768 121.51 38.7832 121.499 38.8031C121.488 38.8229 121.484 38.846 121.489 38.8683C121.677 39.6262 121.924 40.3681 122.229 41.0872C122.543 41.8044 122.906 42.4989 123.317 43.1656C123.718 43.8267 124.158 44.4639 124.634 45.0738C125.082 45.7073 125.647 46.2496 126.299 46.6715C126.395 46.7232 126.536 46.6123 126.484 46.5087C126.11 45.8704 125.674 45.2708 125.181 44.7188Z" fill="black"/>
<path d="M136.629 38.957C136.178 38.1582 135.734 37.3816 135.208 36.6345C134.671 35.8607 134.088 35.1197 133.462 34.4156C132.276 33.0396 130.941 31.7993 129.481 30.7174C129.399 30.6582 129.266 30.7174 129.34 30.8431C131.686 33.602 134.15 36.2721 136.474 39.0532C136.477 39.0679 136.484 39.0817 136.494 39.0932C136.504 39.1047 136.517 39.1138 136.531 39.1196C136.545 39.1253 136.56 39.1277 136.575 39.1265C136.59 39.1252 136.605 39.1204 136.618 39.1124C136.631 39.1044 136.642 39.0934 136.65 39.0804C136.658 39.0674 136.662 39.0527 136.663 39.0376C136.664 39.0224 136.662 39.0072 136.656 38.9932C136.65 38.9792 136.641 38.9668 136.629 38.957Z" fill="black"/>
<path d="M140.892 34.5928C140.423 33.8144 139.869 33.0901 139.241 32.433C137.87 31.0954 136.353 29.9146 134.72 28.9123C134.616 28.8457 134.498 28.9715 134.594 29.0528C135.926 30.2807 137.28 31.4863 138.538 32.7954C139.172 33.4299 139.77 34.0991 140.329 34.7999C140.877 35.5395 141.254 36.3235 141.772 37.0188C141.782 37.0312 141.795 37.0404 141.809 37.045C141.824 37.0496 141.84 37.0495 141.855 37.0446C141.87 37.0397 141.882 37.0302 141.891 37.0176C141.901 37.0051 141.905 36.9899 141.905 36.9744C141.723 36.1229 141.379 35.3144 140.892 34.5928Z" fill="black"/>
<path d="M146.035 33.1062C145.616 32.3447 145.12 31.6284 144.555 30.9687C143.466 29.7128 142.172 28.65 140.729 27.8252C140.633 27.766 140.536 27.914 140.618 27.9805C141.886 29.0589 143.06 30.2442 144.125 31.5234C144.658 32.1595 145.154 32.8178 145.665 33.4687C146.123 34.1712 146.617 34.8501 147.145 35.5027C147.189 35.547 147.263 35.5027 147.248 35.4287C146.918 34.618 146.511 33.8404 146.035 33.1062Z" fill="black"/>
<path d="M149.949 30.7836C149.431 30.1992 148.869 29.6371 148.314 29.0824C147.788 28.5096 147.173 28.0251 146.493 27.6475C146.39 27.5883 146.323 27.7288 146.39 27.8028C147.418 28.9271 148.425 30.0735 149.424 31.2199C150.288 32.3366 151.033 33.5415 151.644 34.8146C151.644 34.8664 151.762 34.8146 151.755 34.7702C151.569 33.2897 150.94 31.9 149.949 30.7836Z" fill="black"/>
<path d="M154.411 30.5544C153.474 29.3468 152.317 28.3278 151 27.5514C150.904 27.4996 150.8 27.655 150.889 27.7141C152.069 28.6119 153.104 29.6844 153.96 30.8946C154.836 32.0934 155.58 33.3829 156.18 34.7407C156.18 34.8073 156.321 34.7925 156.306 34.7407C156.013 33.2157 155.364 31.7814 154.411 30.5544Z" fill="black"/>
<path d="M159.651 34.0309C159.557 33.7053 159.44 33.3865 159.303 33.0768C159.019 32.4538 158.671 31.8615 158.267 31.3091C157.418 30.2056 156.461 29.1897 155.41 28.2765C155.391 28.2599 155.365 28.2517 155.34 28.2537C155.314 28.2558 155.29 28.268 155.273 28.2876C155.257 28.3072 155.249 28.3327 155.251 28.3583C155.253 28.384 155.265 28.4078 155.285 28.4245C156.285 29.3491 157.172 30.3895 157.926 31.5235C158.296 32.0734 158.625 32.6493 158.911 33.2469C159.051 33.5354 159.177 33.8386 159.295 34.1419C159.379 34.4483 159.493 34.7456 159.636 35.0294C159.645 35.0448 159.658 35.0574 159.674 35.0662C159.689 35.075 159.707 35.0797 159.725 35.0797C159.742 35.0797 159.76 35.075 159.776 35.0662C159.791 35.0574 159.804 35.0448 159.813 35.0294C159.823 34.6893 159.768 34.3505 159.651 34.0309Z" fill="black"/>
<path d="M163.062 34.8889C162.81 34.3785 162.525 33.8844 162.211 33.4096C161.907 32.9404 161.571 32.493 161.205 32.0709C160.827 31.6345 160.465 31.2129 160.072 30.7617C160.065 30.7494 160.055 30.7389 160.044 30.7309C160.032 30.723 160.018 30.7177 160.004 30.7155C159.99 30.7133 159.976 30.7143 159.962 30.7183C159.949 30.7224 159.936 30.7294 159.925 30.7389C159.915 30.7483 159.906 30.7601 159.901 30.7732C159.895 30.7863 159.893 30.8004 159.893 30.8147C159.894 30.8289 159.898 30.8428 159.904 30.8554C159.911 30.8679 159.92 30.8789 159.932 30.8874C160.313 31.3241 160.657 31.7917 160.96 32.2854C161.249 32.7513 161.552 33.2025 161.841 33.6611C162.13 34.1197 162.433 34.5782 162.722 35.0368C162.983 35.532 163.269 36.0134 163.58 36.4791C163.639 36.5531 163.735 36.4791 163.713 36.4052C163.554 35.8767 163.336 35.3681 163.062 34.8889Z" fill="black"/>
<path d="M130.813 74.3189C130.813 74.3189 123.694 64.6148 119.276 67.174C114.858 69.7331 120.357 83.912 125.655 85.7464C126.318 86.0291 127.032 86.1747 127.753 86.1743C128.474 86.174 129.188 86.0278 129.851 85.7444C130.514 85.4611 131.113 85.0465 131.611 84.5256C132.11 84.0048 132.498 83.3885 132.752 82.7138L130.813 74.3189Z" fill="#FFD3C9"/>
<path d="M120.949 71.1978C120.867 71.1978 120.852 71.3087 120.949 71.3383C124.649 72.751 126.684 76.1238 128.119 79.6297C126.994 78.2909 125.485 77.5809 123.679 78.927C123.59 78.9936 123.679 79.1415 123.783 79.1193C124.427 78.8994 125.123 78.8836 125.776 79.0743C126.429 79.2649 127.007 79.6527 127.431 80.1844C128.132 81.0787 128.735 82.0458 129.229 83.069C129.407 83.3944 129.969 83.2095 129.866 82.8323C129.866 82.8323 129.866 82.7731 129.866 82.7435C129.806 78.0468 126.01 71.5602 120.949 71.1978Z" fill="black"/>
<path d="M127.172 137.876C129.806 148.483 122.991 160.302 122.991 160.302C104.78 168.283 79.775 161.36 79.183 160.169C79.183 160.169 78.443 152.166 77.1036 149.91C75.7642 147.655 65.9 136.057 63.2286 133.158C60.5572 130.258 59.7062 117.241 60.609 114.807C61.5118 112.374 77.888 112.699 81.6324 114.371C87.5154 116.849 93.5665 118.908 99.7402 120.532C99.7402 120.532 105.697 95.1697 117.626 95.5986C123.102 95.7983 116.486 106.693 115.584 117.788C115.058 124.245 125.204 129.962 127.172 137.876Z" fill="#FFD3C9"/>
<path d="M74.0844 123.919C75.816 124.985 78.0138 125.066 80.0044 125.547L86.0798 126.826C90.1478 127.706 94.1566 128.84 98.0826 130.221C100.055 130.952 101.96 131.855 103.773 132.921C105.683 133.962 107.247 135.538 108.272 137.455C110.255 141.198 110.937 145.494 110.211 149.666C110.469 145.569 109.506 141.486 107.444 137.936C105.446 134.445 101.39 132.847 97.6385 131.405C93.7827 129.995 89.8582 128.78 85.88 127.766C81.9284 126.545 77.6734 125.99 74.0844 123.919Z" fill="black"/>
<path d="M66.27 137.706L64.9677 137.004C65.2711 136.449 72.3676 123.417 79.4716 120.954C80.7814 120.495 82.8682 119.962 85.288 119.356C92.2736 117.581 103.966 114.622 104.461 110.931C104.676 109.319 102.404 107.677 100.465 106.582L101.205 105.295C104.654 107.241 106.208 109.149 105.941 111.131C105.32 115.813 93.9608 118.69 85.6655 120.783C83.2827 121.39 81.2254 121.915 79.9674 122.344C73.4184 124.622 66.344 137.581 66.27 137.706Z" fill="black"/>
<path d="M63.3174 135.414L62.1482 134.504C62.5404 134.001 71.7682 122.196 78.7908 119.748C80.2708 119.23 82.8312 118.668 85.769 118.017C92.5548 116.538 103.899 114.016 104.387 110.724C104.565 109.556 103.203 108.128 100.465 106.582L101.205 105.295C104.617 107.218 106.149 109.06 105.867 110.939C105.275 114.918 96.5656 117.152 86.102 119.467C83.216 120.103 80.7148 120.65 79.294 121.146C72.6784 123.446 63.4136 135.295 63.3174 135.414Z" fill="black"/>
<path d="M86.065 104.504C86.065 104.504 85.0586 99.9848 86.805 96.8043C88.5514 93.6239 95.611 92.7437 98.2158 93.3132C100.821 93.8828 111.136 100.48 114.17 104.186C117.204 107.892 115.917 113.801 110.152 112.322C104.387 110.843 86.065 104.504 86.065 104.504Z" fill="#FFD3C9"/>
<path d="M109.257 99.7627C113.46 101.982 119.55 108.098 114.266 112.381C110.759 114.422 106.001 110.783 102.471 110.029C104.772 110.28 106.955 111.161 109.131 111.752C111.129 112.314 113.674 112.655 114.807 110.539C117.175 106.419 112.15 102.167 109.257 99.7627Z" fill="black"/>
<path d="M82.254 96.612C82.254 96.612 84.474 92.5662 87.9224 91.3458C91.3708 90.1254 97.2168 94.1416 98.793 96.2866C100.369 98.4315 103.721 110.207 103.536 114.992C103.351 119.778 98.4674 123.365 95.1152 118.454C91.763 113.542 82.254 96.612 82.254 96.612Z" fill="#FFD3C9"/>
<path d="M94.3975 92.7285C96.7564 94.1446 98.7489 96.0956 100.214 98.4237C101.753 100.754 102.434 103.601 102.907 106.183C103.525 108.837 103.887 111.544 103.988 114.267C104.092 115.667 103.72 117.061 102.931 118.222C102.143 119.384 100.984 120.245 99.6441 120.665C100.863 120.158 101.873 119.253 102.51 118.097C103.148 116.942 103.374 115.604 103.152 114.304C102.805 111.657 102.311 109.033 101.672 106.441C101.131 103.764 100.673 101.264 99.3185 98.9341C98.0542 96.5936 96.3885 94.4932 94.3975 92.7285Z" fill="black"/>
<path d="M70.9246 102.211C70.9246 102.211 72.0938 97.5214 75.2832 95.3987C78.4726 93.2759 85.6432 95.8351 87.8632 97.6176C90.0832 99.4001 96.869 110.487 98.0308 115.369C99.1926 120.251 95.167 125.177 90.3274 121.057C85.4878 116.937 70.9246 102.211 70.9246 102.211Z" fill="#FFD3C9"/>
<path d="M82.3502 95.1323C85.1801 95.9636 87.7822 97.4311 89.9574 99.4222C92.1774 101.382 93.6574 104.112 94.9154 106.604C96.2957 109.137 97.433 111.794 98.312 114.54C98.8159 115.925 98.8243 117.442 98.336 118.832C97.8476 120.222 96.8925 121.4 95.6332 122.166C96.7523 121.339 97.5469 120.147 97.8794 118.796C98.2118 117.446 98.0612 116.021 97.4536 114.77C96.3688 112.163 95.1334 109.622 93.7536 107.159C92.4364 104.578 91.2524 102.122 89.21 100.14C87.2311 98.0858 84.9099 96.3915 82.3502 95.1323Z" fill="black"/>
<path d="M60.3796 117.225C60.5276 113.276 62.163 105.746 65.937 101.649C69.711 97.551 83.5638 104.903 87.3156 108.387C91.0674 111.87 96.61 123.697 93.354 125.761C90.098 127.825 80.5298 117.95 78.1248 116.367C75.7198 114.785 60.3796 117.225 60.3796 117.225Z" fill="#FFD3C9"/>
<path d="M69.23 119.585C71.0134 117.403 73.744 115.68 76.7706 115.961C79.849 116.39 81.9506 118.69 84.1706 120.443C86.3906 122.196 88.4108 124.385 90.8306 125.62C92.0516 126.16 93.3392 126.36 93.5538 125.191C93.8189 123.88 93.7886 122.525 93.465 121.227V121.293C92.6496 118.688 91.6071 116.158 90.3496 113.734C89.0694 111.338 87.5746 109.06 85.3842 107.536C83.1555 105.99 80.7958 104.641 78.332 103.505C75.8653 102.287 73.3765 101.163 70.8654 100.132C76.0454 101.833 81.2254 103.683 85.9466 106.715C88.396 108.231 90.0388 110.739 91.3782 113.165C92.708 115.642 93.8173 118.23 94.6934 120.901V120.938C95.0636 122.457 95.0636 124.042 94.6934 125.561C94.5528 126.015 94.298 126.425 93.9534 126.752C93.5772 127.072 93.1006 127.25 92.6066 127.255C91.7888 127.268 90.9812 127.072 90.2608 126.685C87.582 125.206 85.5618 123.143 83.4602 121.205C81.3586 119.267 79.294 117.063 76.63 116.604C73.966 116.146 71.1688 117.536 69.23 119.585Z" fill="black"/>
<path d="M67.8536 215.583C63.7614 204.488 63.2582 190.435 82.1504 147.536C84.7626 141.619 126.943 146.515 126.092 153.401C124.412 166.892 112.838 188.534 108.213 195.516C96.5434 213.12 70.6286 223.09 67.8536 215.583Z" fill="#FFD3C9"/>
<path d="M65.9 208.061C65.2809 204.818 65.0326 201.515 65.16 198.216C65.2266 196.574 65.3228 194.932 65.5152 193.298C65.7185 191.656 66.0324 190.03 66.455 188.431C67.2492 185.238 68.2201 182.093 69.3632 179.008C70.4743 175.902 71.8047 172.879 73.3444 169.962C72.1974 173.039 71.2132 176.153 70.266 179.281C69.3188 182.41 68.4456 185.546 67.6908 188.704C67.3282 190.287 66.9508 191.87 66.7732 193.453C66.5956 195.036 66.3884 196.678 66.2552 198.298C65.9661 201.544 65.8475 204.802 65.9 208.061Z" fill="black"/>
</svg>
