<svg width="206" height="200" fill="none" xmlns="http://www.w3.org/2000/svg"><path d="M128.927 199.826c1.262.411 37.421.075 38.785-.813.542-.325.786-5.6.916-11.975v-.2c.032-1.317.054-2.671.059-4.041 0-.189-1.652-19.325-1.652-19.325l-23.636.157 1.771 19.32.13 3.845v.396s-13.778 6.32-15.165 7.452c-1.387 1.132-2.475 4.777-1.208 5.184Z" fill="#FFD3C9"/><path d="M168.547 190.347c-.152 4.804-.401 8.401-.835 8.666-1.364.883-37.523 1.224-38.79.807-1.268-.417-.184-4.051 1.208-5.178.541-.439 2.924-1.625 5.649-2.968-1.419 1.538-2.134 3.25 1.662 3.25 6.749-.006 18.524-1.116 31.106-4.577Z" fill="#FFB445"/><path d="M144.152 186.464h26.041s-5.243-60.813-5.037-61.874c.26-1.36 1.798-7.518 3.84-15.561.645-2.513 1.332-5.216 2.053-8.011a6325.43 6325.43 0 0 1 5.958-23.03c2.8-10.783 4.982-19.156 4.982-19.156h-22.076s-2.573 8.157-5.817 18.761c-5.281 17.24-12.338 40.968-13.031 46.737-1.121 9.288 3.087 62.134 3.087 62.134Z" fill="#666"/><path d="M145.306 182.023c3.981-.082 2.838-.114 6.813-.152 1.945 0 14.738-.13 16.552.168a.045.045 0 0 1 .02.016.038.038 0 0 1 .008.025.037.037 0 0 1-.008.024.039.039 0 0 1-.02.016c-1.814.303-14.624.19-16.552.173-3.975-.037-2.832-.07-6.813-.151-.071-.006-.071-.119 0-.119ZM160.254 120.874c.856-3.791 2.129-7.453 3.25-11.152a6139.657 6139.657 0 0 1 6.813-22.504c1.138-3.755 2.283-7.505 3.434-11.25.585-1.89 1.165-3.79 1.755-5.67.591-1.88 1.24-3.683 1.766-5.546.211-.759.325-.342.054.623-.542 1.939-1.083 3.883-1.657 5.822-1.12 3.835-2.248 7.67-3.385 11.504a5462.71 5462.71 0 0 1-6.83 22.867 9764.54 9764.54 0 0 1-3.45 11.461 47.82 47.82 0 0 0-1.409 5.54 25.597 25.597 0 0 0-.227 5.931c.249 3.986.709 7.962 1.083 11.916l1.083 11.948c.723 7.943 1.445 15.871 2.167 23.782.09 1.004.175 2.01.254 3.017 0 .336-.211.374-.243.049-.861-7.838-1.788-15.767-2.524-23.615-.737-7.848-1.468-15.62-2.194-23.436-.184-1.96-.395-3.926-.395-5.898.016-1.815.236-3.623.655-5.389Z" fill="#000"/><path d="M162.415 58.832c1.533 11.856 4.452 34.078 6.581 50.197 4.977-19.53 12.999-50.197 12.999-50.197h-19.58Z" fill="#000"/><path d="M156.994 199.826c1.267.411 37.426.075 38.79-.813.542-.325.786-5.6.916-11.975v-.2c.032-1.317.054-2.671.059-4.041v-.569c.082-9.207-.579-18.756-.579-18.756l-23.636.157.66 18.583.027.737.13 3.845v.396s-13.778 6.32-15.165 7.452c-1.386 1.132-2.47 4.777-1.202 5.184Z" fill="#FFD3C9"/><path d="M196.618 190.347c-.151 4.804-.4 8.401-.834 8.666-1.365.883-37.523 1.224-38.79.807-1.268-.417-.184-4.051 1.208-5.178.541-.439 2.924-1.625 5.649-2.968-1.419 1.538-2.134 3.25 1.662 3.25 6.749-.006 18.524-1.116 31.105-4.577Z" fill="#FFB445"/><path d="M160.623 58.832s.509 10.561 2.93 18.924c.189.688.401 1.37.628 2.02a39.323 39.323 0 0 1 6.359 3.25s.254 8.492.509 17.971c.281 10.588.574 22.401.514 24.914-.222 9.375 1.176 60.921 1.176 60.921l26.03.103s-4.707-57.547-4.664-60.981c.055-5.519-1.256-29.913-2.269-47.705a141.37 141.37 0 0 0-2.432-19.417h-28.781Z" fill="#666"/><path d="M173.627 182.218c3.981-.065 2.838-.103 6.813-.125 1.945 0 14.738-.07 16.552.239a.041.041 0 0 1 .028.04.043.043 0 0 1-.007.025.047.047 0 0 1-.021.016c-1.82.298-14.624.13-16.552.103-3.981-.054-2.838-.081-6.813-.184a.06.06 0 0 1-.03-.022.057.057 0 0 1-.012-.035.06.06 0 0 1 .042-.057ZM188.505 62.607c.482 14.526.991 29.047 1.625 43.568.634 14.52 4.067 66.711 4.945 74.808 0 .054-.076.076-.081 0-1.896-14.407-2.952-35.747-3.889-50.23-.937-14.483-1.56-29.02-2.058-43.54-.277-8.211-.493-16.422-.737-24.638.011-.093.195-.082.195.032ZM163.098 79.148a48.223 48.223 0 0 1 7.442 3.9c.015.012.026.03.03.049.005.019.002.04-.007.057a.084.084 0 0 1-.042.04.085.085 0 0 1-.057.005c-2.513-1.219-5.075-2.394-7.518-3.748a.17.17 0 1 1 .152-.303Z" fill="#000"/><path d="M162.952 70.19c.173.926.395 1.841.595 2.762.201.92.325 1.744.542 2.6.188.823.61 1.575 1.213 2.166.336.314.71.596 1.083.883.195.157.407.303.607.46a6.806 6.806 0 0 1-.07-.368l-.179-1.056c-.13-.78-.255-1.56-.374-2.34-.238-1.533-.455-3.087-.774-4.61 0-.012.005-.025.014-.034a.049.049 0 0 1 .069 0c.009.01.014.022.014.035.379 1.505.802 2.995 1.138 4.517.162.742.747 4.42.774 4.68.027.26.049.541.054.812.038.273.038.55 0 .823 0 .07-.092.06-.124 0a3.448 3.448 0 0 1-.239-.801c-.065-.26-.124-.542-.173-.797 0-.097-.027-.195-.043-.292-.363-.222-.699-.51-1.035-.758-.336-.25-.742-.542-1.083-.813a4.117 4.117 0 0 1-1.322-2.063 15.152 15.152 0 0 1-.433-2.643c-.119-1.046-.206-2.096-.346-3.136-.011-.065.081-.087.092-.028ZM177.38 2.06c3.84 2.62 5.758 7.76 5.758 7.76s4.105 4.772 3.791 7.833a5.427 5.427 0 0 1-2.708 4.203v-1.663s-.656 2.258-3.987 3.737c-3.33 1.479-8.124 1.262-10.756.493a9.403 9.403 0 0 1-4.1-2.443l1.332 2.167a7.04 7.04 0 0 1-6.077-2.708c-2.675-3.25 2.134-9.468 2.416-10.67.282-1.203-.607-9.435 8.195-9.62-.006-.005 3.488-.899 6.136.91Z" fill="#000"/><path d="M185.402 21.417a5.532 5.532 0 0 0 1.819-2.784 5.06 5.06 0 0 0-.054-3.298 11.309 11.309 0 0 0-2.275-3.304c-.909-1.035-1.901-2.01-2.794-3.066-.049-.06.038-.13.092-.087.925.748 1.805 1.55 2.637 2.4.843.762 1.594 1.62 2.237 2.556.588.861.917 1.872.948 2.914a5.262 5.262 0 0 1-.65 2.443 11.363 11.363 0 0 1-1.922 2.313s-.087-.05-.038-.087ZM159.22 17.864c.471-3.18 2.805-5.573 3.954-8.482.622-1.57 1.018-3.25 1.944-4.701 0-.038.092 0 .065.043-.737 1.278-1.04 2.708-1.489 4.095a22.142 22.142 0 0 1-1.885 4.019c-1.316 2.34-2.898 5.118-1.977 7.886.422 1.278 1.462 2.583 2.881 2.746a.043.043 0 0 1 .04.005.05.05 0 0 1 .014.015.047.047 0 0 1 .005.02.047.047 0 0 1-.005.02.044.044 0 0 1-.033.023 4.256 4.256 0 0 1-2.799-1.92 5.455 5.455 0 0 1-.715-3.77Z" fill="#000"/><path d="M159.247 18.693a5.583 5.583 0 0 1 .146-3.38 7.988 7.988 0 0 1 2.015-2.708c.937-.91 1.939-1.793 2.405-3.044 0-.054.097 0 .081.038-.731 2.053-2.616 3.304-3.71 5.118-1.251 2.08-.769 4.685.699 6.5a9.17 9.17 0 0 0 3.423 2.572v.033c-2.281-.948-4.431-2.649-5.059-5.13Z" fill="#000"/><path d="M169.359 34.957c-2.47 6.126-12.273 25.922-18.708 27.32-4.208.931-21.301-.737-24.248-4.778-1.278-1.76.888-14.027 3.163-13.54 2.275.487 15.967 2.296 17.646 1.804 1.679-.493 14.283-14.992 18.989-18.594 8.119-6.207 4.485 4.49 3.158 7.788Z" fill="#FFD3C9"/><path d="m134.739 43.07-.363 18.443s13.54 2.47 19.314.233c7.041-2.708 16.644-25.12 17.938-28.793 2.129-6.028 1.349-9.608-1.933-8.606-1.278.38-2.936 1.452-4.945 3.358-2.107 1.983-14.142 14.797-17.998 17.278-2.156 1.386-12.013-1.912-12.013-1.912Z" fill="#fff"/><path d="M137.804 60.733c.136-2.708.282-13.887.146-16.303 0-.168-.113-.2-.13-.027-.601 8.152-.13 13.644-.124 16.32 0 .07.081.08.108.01Z" fill="#000"/><path d="M140.106 62.304c4.398.46 10.291.725 13.589-.542 7.041-2.708 16.639-25.12 17.933-28.792 2.129-6.029 1.349-9.603-1.933-8.607-.103 0-.206.065-.309.103l-29.28 37.838Z" fill="#fff"/><path d="m159.079 50.458-2.578 17.7s28.846.428 36.012-.075c0 0-5.844-33.093-13.54-41.456-3.857-4.181-8.374-3.867-11.255-.942-.731.737-9.435 12.24-10.351 16.633-.796 3.873 1.712 8.14 1.712 8.14Z" fill="#FFB445"/><path d="M175.777 24.18s-2.502 95.053-.119 99.142c1.451 2.492 25.483-3.477 25.483-3.477s-6.212-56.328-13.345-76.368c-6.619-18.588-12.019-19.298-12.019-19.298Z" fill="#fff"/><path d="M193.694 80.914a62.164 62.164 0 0 1-7.339.574c-3.434 0-6.846-.336-7.827-.352-.092 0-.135.292-.075.297 2.601.314 5.217.494 7.837.542a41.11 41.11 0 0 0 7.149-.677v2.02c-2.421.472-7.095 1.279-14.624.31-.027-.304 0-1.924-.048-2.368 0-.07-.287-.081-.304 0-.059.439-.238 4.333-.243 5.118 0 1.95.119 7.459.601 8.526 1.083 2.415 5.801 2.42 7.106 2.431 1.305.011 5.497.141 7.041-1.397.839-.818 1.024-5.28.899-9.207-.06-1.858-.06-5.785-.173-5.817Zm-7.42 15.961c-4.16 0-5.958-.867-6.608-1.733-.748-1.013-.813-2.773-.867-4.718-.043-1.527 0-6.315 0-6.412 2.427.492 8.818 1.159 14.624-.195v6.353c0 1.625-.103 4.398-.932 5.356-.677.802-3.211 1.349-6.217 1.349Z" fill="#999"/><path d="M156.929 121.546c-1.392.682-14.906-7.291-14.906-7.291L158.9 50.133a11.496 11.496 0 0 1-1.56-7.745c.748-4.333 9.793-16.844 11.25-17.489a140.167 140.167 0 0 0-3.136 19.64c-2.486 27.059-7.144 76.319-8.525 77.007Z" fill="#fff"/><path d="M160.211 36.544c.802-1.283 1.625-2.556 2.421-3.845 0-.038-.033-.081-.06-.049a172.778 172.778 0 0 0-2.377 3.212c.26-.574.509-1.16.742-1.744.027-.07-.065-.125-.098-.054a52.022 52.022 0 0 0-1.002 2.302 21.991 21.991 0 0 0-1.841 3.049 10.609 10.609 0 0 0-.975 7.198c.162.68.402 1.34.715 1.966.216.428.91 1.354.904 1.381-.449 2.524-.791 5.075-1.148 7.615-.357 2.54-.309 5.812-.103 4.544.406-2.556.775-5.118 1.143-7.68.211-1.451.439-2.903.607-4.333a13.45 13.45 0 0 0-.835-1.592 10.034 10.034 0 0 1-.633-1.668 9.309 9.309 0 0 1-.304-3.58c.282-2.48 1.533-4.669 2.844-6.722Z" fill="#000"/><path d="M168.547 25.181a211.733 211.733 0 0 1-2.589 3.83c-.878 1.267-1.75 2.54-2.649 3.79v-.297l2.167 2.264.178.19-.189.184c-.91.882-1.836 1.743-2.763 2.615l.082-.227c.33 2.345.693 4.69.991 7.041.298 2.35.612 4.701.872 7.041a311.791 311.791 0 0 1-1.246-7.003c-.39-2.334-.758-4.685-1.132-7.041v-.13l.098-.098c.91-.877 1.825-1.754 2.751-2.621v.374l-2.123-2.308-.13-.14.114-.157c.904-1.24 1.852-2.46 2.778-3.689.926-1.23 1.809-2.42 2.79-3.618Z" fill="#999"/><path d="M183.603 29.86c11.374 10.649 24.704 29.102 19.992 33.624-3.126 3.006-18.816-17.055-18.54-17.001.59.108-2.811-6.56-6.981-14.624-4.653-9.018-.959-8.086 5.529-1.998Z" fill="#FFD3C9"/><path d="M178.068 25.214c7.902 3.916 29.648 29.247 26.805 37.063-2.844 7.815-20.798-15.68-20.614-16.022.184-.34-4.376-9.256-6.229-12.885-1.852-3.628-4.17-10.242.038-8.156Z" fill="#fff"/><path d="M179.141 37.606c.438.46.866.926 1.278 1.408.076.087.146.184.216.27-.119-.254-.243-.508-.368-.763A27.555 27.555 0 0 1 179 35.813c0-.043.049-.07.076-.032a28.673 28.673 0 0 1 1.532 2.708c.482.893.975 1.787 1.441 2.708.466.92.942 1.809 1.392 2.708.475.886.886 1.806 1.229 2.751 0 .054-.059.081-.092.038a21.289 21.289 0 0 1-1.57-2.708c-.477-.904-.932-1.814-1.392-2.708-.195-.38-.385-.764-.569-1.148l-.222-.25a14.334 14.334 0 0 1-.59-.714 33.952 33.952 0 0 1-1.121-1.533c-.011-.022.016-.044.027-.027Z" fill="#000"/><path d="M175.82 25.262a166.473 166.473 0 0 0 1.82 4.128c.623 1.364 1.23 2.74 1.874 4.094l.06-.292-2.291 1.96-.19.163.146.206c.705.99 1.43 1.966 2.167 2.946l-.038-.233c-.634 2.28-1.294 4.555-1.896 6.846-.601 2.291-1.24 4.588-1.814 6.873a325.215 325.215 0 0 0 2.123-6.77c.688-2.264 1.349-4.539 2.02-6.808l.038-.125-.076-.108c-.709-.986-1.413-1.977-2.139-2.952l-.038.369 2.253-2.004.141-.125-.081-.168c-.65-1.349-1.338-2.675-2.01-4.019a167.002 167.002 0 0 0-2.069-3.98Z" fill="#999"/><path d="M176.99 27.461c.184-2.832-2.128-3.84-4.251-4.127-2.519-.341-4.193-.13-5.417 2.313-1.272 2.573-1.933 5.557-2.432 8.373a.412.412 0 0 1-.473.344.413.413 0 0 1-.344-.474c.568-3.25 1.386-9.3 4.614-11.065 2.974-1.625 9.419-.032 9.099 4.772-.038.541-.855.395-.817-.136h.021Z" fill="#666"/><path d="M162.372 35.19a1.905 1.905 0 1 0 3.762.606 1.905 1.905 0 0 0-3.762-.606Z" fill="#000"/><path d="M163.125 35.31c-.036.224-.004.454.09.66a1.154 1.154 0 0 0 1.089.668 1.148 1.148 0 0 0 .132-2.282 1.148 1.148 0 0 0-.854.204 1.133 1.133 0 0 0-.457.75Z" fill="#fff"/><path d="M174.12 36.333c-2.08 7.973-1.755 9.917-1.084 10.832a5.334 5.334 0 0 0 1.869 1.506l.244-.542a4.762 4.762 0 0 1-1.625-1.321c-.477-.66-.877-2.454 1.186-10.345l-.59-.13Z" fill="#999"/><path d="m174.258 47.965-.016.028a.602.602 0 0 0 .237.817l.702.387a.6.6 0 0 0 .816-.236l.016-.029a.601.601 0 0 0-.236-.817l-.702-.387a.601.601 0 0 0-.817.237Z" fill="#000"/><path d="M179.325 36.523c1.587 6 1.977 9.288 1.218 10.34a4.734 4.734 0 0 1-1.625 1.326l.244.542a5.268 5.268 0 0 0 1.863-1.511c.905-1.257.58-4.393-1.126-10.833l-.574.136Z" fill="#999"/><path d="M178.041 48.968a.59.59 0 0 1-.053-.457.609.609 0 0 1 .286-.36l.696-.387a.606.606 0 0 1 .77.901.6.6 0 0 1-.179.152l-.705.392a.595.595 0 0 1-.665-.06.58.58 0 0 1-.15-.18ZM180.077 36.127a31.667 31.667 0 0 0-1.039-3.927 3.454 3.454 0 0 0-1.159-1.419c-.114 0-.065-1.023 0-1.846.054-.732.13-1.577-.049-1.815a.576.576 0 0 0-.791-.038c-.2.217-.211 1.083-.233 1.798-.027.829-.081 1.836-.195 1.836a3.824 3.824 0 0 0-1.235 1.317 26.913 26.913 0 0 0-1.37 3.92c-.184.857.097.96.341 1.04.347.12.542-.118.834-1.083.428-1.5.97-4.018 2.01-4.013 1.034.103 1.457 2.768 1.792 4.257.212.932.407 1.018.764.937.238-.032.498-.14.33-.964Z" fill="#000"/><path d="M170.242 37.107s2.004-3-.157-4.203c-2.161-1.202-3.651 2.091-3.651 2.091l3.808 2.112Z" fill="#FF6868"/><path d="m154.166 57.055-.092 3.532-.038 1.17.981-.64 2.957-1.944 12.338-22.206-3.791-2.118-12.338 22.206h-.017Z" fill="#FF6868"/><path d="m154.074 60.592-.032 1.165.98-.64-.948-.525Z" fill="#666"/><path d="m165.771 35.445 4.445 2.471.49-.88-4.445-2.472-.49.88ZM165.224 36.427l4.444 2.471.49-.88-4.445-2.472-.489.88ZM169.662 38.9l-1.43-.796-3.677 8.466.547.265 4.56-7.935Z" fill="#000"/><path d="M203.594 63.484c-4.273 4.16-21.323 1.928-32.193-1.327-2.069-.622 4.614-19.021 6.743-18.133a59.58 59.58 0 0 0 6.911 2.459c.59.108 23.224 12.452 18.539 17.001Z" fill="#FFD3C9"/><path d="M152.439 44.793c.162 2.064 5.21 1.246 5.21 1.246a3.792 3.792 0 0 0-1.376 2.199c-.26 1.549 2.059 2.632 2.059 2.632a4.726 4.726 0 0 0-1.084 2.551c-.097 1.511 2.086 2.941 2.086 2.941a4.138 4.138 0 0 0 .46 2.843c1.397 2.248 5.465 1.967 8.021 2.291a53.615 53.615 0 0 1 8.417 1.945l3.152-18.897s-11.412-5.573-14.445-5.178c-2.529.33-12.739 2.275-12.5 5.427Z" fill="#FFD3C9"/><path d="M157.687 45.974c2.632-1.002 5.492-1.376 8.265-1.706a.05.05 0 0 1 .035.014.049.049 0 0 1-.035.083c-2.757.298-5.497 1.333-8.238 1.739a.068.068 0 0 1-.038-.018.069.069 0 0 1-.021-.038.069.069 0 0 1 .032-.074ZM158.386 50.659a7.256 7.256 0 0 1 1.901-.266 78.809 78.809 0 0 1 6.12-.146c.06 0 .076.092 0 .098-1.354.048-2.708.119-4.062.227l-2.031.179c-.634.1-1.277.132-1.917.092a.098.098 0 0 1-.057-.146.098.098 0 0 1 .046-.038ZM159.388 56.357a5.09 5.09 0 0 1 1.722-.141l1.858-.038c1.24-.033 2.48-.065 3.721-.14.059 0 .07.091 0 .097-1.257.08-2.513.178-3.792.254l-1.852.092c-.562.08-1.135.06-1.69-.06 0-.01.006-.053.033-.064Z" fill="#000"/><path d="M204.873 62.277c-2.844 7.799-27.715 1.814-27.715 1.814l.249-20.468s6.668 2.974 6.852 2.633c.184-.342 23.457 8.227 20.614 16.02Z" fill="#fff"/><path d="M180.776 63.154c.179-2.708.488-13.752.39-16.146 0-.168-.114-.2-.13-.027-.715 8.065-.33 13.508-.363 16.162 0 .065.103.065.103.011ZM177.554 43.623c.726.197 1.438.447 2.128.748.623.243 1.246.487 1.863.742a102.85 102.85 0 0 1 4.014 1.717c1.305.59 2.654 1.186 3.964 1.809 1.311.622 2.589 1.321 3.9 1.944.06.027 0 .114-.049.087-1.332-.602-2.708-1.084-4.046-1.68l-3.948-1.668-3.954-1.662a98.029 98.029 0 0 1-1.928-.829 16.324 16.324 0 0 1-2.047-.942.143.143 0 0 1-.057-.078.144.144 0 0 1 .003-.096.148.148 0 0 1 .062-.073.149.149 0 0 1 .095-.019ZM177.071 63.652c0-.135.071-.173.103 0 .033.174.044.222.065.298.845.147 3.927.786 4.68.932 1.581.314 3.141.698 4.739.899 2.219.282 4.452.443 6.689.482.013 0 .025.005.035.014a.05.05 0 0 1 0 .07.051.051 0 0 1-.035.013 58.804 58.804 0 0 1-6.711-.184 55.73 55.73 0 0 1-4.842-.78c-.801-.162-1.597-.352-2.394-.541a11.948 11.948 0 0 1-2.247-.677.177.177 0 0 1-.064-.062.169.169 0 0 1-.023-.085l.005-.379Z" fill="#000"/><path d="m137.485 63.398 21.442.455-9.424-27.72-21.442-.455 9.424 27.72Z" fill="#fff"/><path d="m136.017 63.365 21.437.455-9.419-27.714-21.442-.46 9.424 27.72Z" fill="#FF6868"/><path d="M145.755 36.057c.136.482.457.891.894 1.137.206.114.265-.152.065-.26a1.38 1.38 0 0 1-.607-.715c0-.054-.038-.108-.048-.157a1.016 1.016 0 0 1 0-.541.36.36 0 0 1 .124-.185h.065a.245.245 0 0 1 .152 0 .62.62 0 0 1 .243.163c.083.087.153.185.206.292.034.05.065.103.092.158v.037a.194.194 0 0 1 .027.055.081.081 0 0 1 0 .038h.304a2.239 2.239 0 0 0-.276-.542 1.196 1.196 0 0 0-.813-.542.473.473 0 0 0-.487.428c-.037.213-.016.432.059.634ZM144.076 36.019c.136.484.457.894.894 1.143.206.113.265-.152.065-.26a1.443 1.443 0 0 1-.607-.72c0-.05-.038-.104-.048-.152a1.016 1.016 0 0 1 0-.542.31.31 0 0 1 .119-.184h.038a.242.242 0 0 1 .151 0c.093.034.177.09.244.162a1.3 1.3 0 0 1 .206.293c.034.05.064.103.092.157v.038a.18.18 0 0 1 .027.054v.038h.303a2.251 2.251 0 0 0-.276-.542 1.161 1.161 0 0 0-.812-.541.467.467 0 0 0-.488.428c-.023.214.008.43.092.628ZM142.397 35.986c.139.483.462.891.899 1.138.201.114.26-.152.06-.26a1.415 1.415 0 0 1-.607-.72c0-.05-.032-.103-.043-.152a.978.978 0 0 1 0-.542.332.332 0 0 1 .124-.184h.071a.274.274 0 0 1 .146 0 .602.602 0 0 1 .244.168c.083.084.153.181.206.287.035.051.066.106.092.163v.037a.164.164 0 0 1 0 .055v.038h.308a2.408 2.408 0 0 0-.281-.542 1.178 1.178 0 0 0-.813-.542.464.464 0 0 0-.487.428c-.026.213.002.43.081.628ZM140.724 35.949a1.9 1.9 0 0 0 .893 1.142c.201.114.26-.157.06-.26a1.47 1.47 0 0 1-.607-.72c0-.049-.032-.108-.043-.157a.942.942 0 0 1 0-.542.322.322 0 0 1 .124-.19h.071a.232.232 0 0 1 .146 0c.095.032.179.088.244.163.084.087.155.185.211.293.032.05.061.103.087.157v.038a.246.246 0 0 1 0 .054v.038h.303a2.216 2.216 0 0 0-.282-.542 1.167 1.167 0 0 0-.812-.541.479.479 0 0 0-.488.427c-.027.218.005.439.093.64ZM139.045 35.916c.135.483.456.892.893 1.137.201.114.26-.151.065-.26a1.454 1.454 0 0 1-.601-.72c0-.049-.033-.103-.043-.152a1.016 1.016 0 0 1 0-.541.295.295 0 0 1 .124-.184h.044a.3.3 0 0 1 .151 0c.091.034.173.09.239.162.082.089.153.187.211.293.032.048.059.102.092.162v.032c.002.02.002.04 0 .06v.033h.303a2.182 2.182 0 0 0-.282-.542 1.117 1.117 0 0 0-.807-.542.471.471 0 0 0-.492.428c-.023.217.012.436.103.634ZM137.366 35.878c.135.482.457.891.893 1.138.201.113.266-.152.065-.26a1.392 1.392 0 0 1-.606-.72c0-.05-.038-.104-.049-.153a1.037 1.037 0 0 1 0-.541.365.365 0 0 1 .124-.184h.065a.25.25 0 0 1 .152 0c.095.03.179.087.244.162.081.086.151.182.206.287l.092.163v.038l.027.054v.038h.303a2.17 2.17 0 0 0-.276-.542 1.185 1.185 0 0 0-.813-.541.478.478 0 0 0-.492.427c-.032.214-.01.432.065.634ZM135.687 35.84c.135.484.456.895.893 1.143.206.114.266-.152.065-.26a1.416 1.416 0 0 1-.606-.72c0-.049-.038-.103-.049-.152a1.037 1.037 0 0 1 0-.542.357.357 0 0 1 .124-.19h.038a.244.244 0 0 1 .152 0c.093.035.177.09.244.163.083.087.152.186.206.293.033.05.064.103.092.157v.038c.01.017.019.035.027.054a.24.24 0 0 1 0 .038h.363a2.299 2.299 0 0 0-.277-.542 1.164 1.164 0 0 0-.812-.541.464.464 0 0 0-.488.427c-.047.21-.038.43.028.634ZM133.986 35.808a1.9 1.9 0 0 0 .899 1.137c.2.114.26-.152.059-.26a1.418 1.418 0 0 1-.606-.72c0-.049-.038-.103-.049-.152a1.016 1.016 0 0 1 0-.541.353.353 0 0 1 .119-.185h.065a.292.292 0 0 1 .152 0 .642.642 0 0 1 .244.168c.081.086.15.183.205.287.034.053.065.107.093.163v.038a.11.11 0 0 1 .027.054v.038h.303a2.237 2.237 0 0 0-.276-.542 1.162 1.162 0 0 0-.813-.541.464.464 0 0 0-.487.427 1.28 1.28 0 0 0 .065.629ZM132.328 35.77c.139.482.462.891.9 1.137.2.12.259-.151.059-.26a1.411 1.411 0 0 1-.607-.715c0-.049-.032-.108-.043-.157a.96.96 0 0 1 0-.541.328.328 0 0 1 .125-.19h.043a.232.232 0 0 1 .146 0 .583.583 0 0 1 .244.163c.084.085.154.184.206.292.036.05.067.102.092.157v.038a.246.246 0 0 1 0 .054v.038h.309a2.453 2.453 0 0 0-.282-.542 1.185 1.185 0 0 0-.812-.541.47.47 0 0 0-.488.428c-.019.218.018.438.108.639ZM130.655 35.732a1.888 1.888 0 0 0 .894 1.143c.2.113.26-.152.059-.26a1.463 1.463 0 0 1-.606-.72c0-.05-.033-.104-.044-.152a.978.978 0 0 1 0-.542.297.297 0 0 1 .125-.184H131.153a.232.232 0 0 1 .146 0c.095.03.179.087.244.162.084.088.155.186.211.293.034.051.063.106.087.162v.033c.002.02.002.04 0 .06v.032h.303a2.215 2.215 0 0 0-.281-.542 1.139 1.139 0 0 0-.813-.541.465.465 0 0 0-.487.427c-.026.214.005.431.092.629ZM128.976 35.7c.135.482.457.891.894 1.137.2.113.26-.152.065-.26a1.426 1.426 0 0 1-.612-.72c0-.05-.033-.103-.044-.152a1.037 1.037 0 0 1 0-.542.329.329 0 0 1 .125-.184h.043a.292.292 0 0 1 .152 0 .585.585 0 0 1 .238.168c.083.086.154.182.211.287.033.049.06.108.092.162v.038a.164.164 0 0 1 0 .054.08.08 0 0 1 0 .038h.304a2.253 2.253 0 0 0-.282-.541 1.155 1.155 0 0 0-.807-.542.47.47 0 0 0-.493.428c-.018.216.021.433.114.628ZM127.297 35.661c.136.484.457.895.894 1.143.2.114.265-.157.065-.26a1.413 1.413 0 0 1-.607-.72c0-.049-.038-.108-.049-.157a1.016 1.016 0 0 1 0-.542.36.36 0 0 1 .125-.19h.065a.246.246 0 0 1 .151 0c.093.035.177.09.244.163.083.087.152.185.206.293.032.048.06.102.092.157v.13h.303a2.167 2.167 0 0 0-.276-.542 1.156 1.156 0 0 0-.812-.542.472.472 0 0 0-.493.428c-.025.218.007.438.092.64Z" fill="#999"/><path d="M127.969 41.917c-1.013 2.367-3.678 5.368-3.835 7.28a2.199 2.199 0 0 0 1.311 2.269s-1.858 1.024-1.712 2.778c.076.905 1.587 1.577 1.587 1.577s-1.457.882-1.229 2.437c.184 1.235 1.668 1.722 1.668 1.722s-1.002 1.5-.412 2.708c1.192 2.438 11.916 2.01 13.421-2.004.699-1.874-1.912-1.625-1.912-1.625s3.673-1.261 3.64-3.471c-.032-2.21-3.407-1.69-3.407-1.69s3.553-1.257 3.288-3.548c-.276-2.383-3.564-1.283-3.564-1.283s2.324-1.712 1.717-3.418c-.997-2.822-5.373.948-7.751.482l-1.451-3.835-1.359-.379Z" fill="#FFD3C9"/><path d="M125.948 45.378c.764-2.323-2.166-5.048-1.776-7.377.541-3.152 4.192-.227 5.156 4.285l.13 3.628-3.51-.536Z" fill="#FFD3C9"/><path d="M125.981 60.094a.027.027 0 0 0-.019.008.024.024 0 0 0-.008.019c0 .007.002.014.008.019a.027.027 0 0 0 .019.008c3.698.766 7.543.388 11.022-1.083.113-.05.075-.25-.055-.217a38.137 38.137 0 0 1-10.967 1.246ZM125.266 55.842c-.038 0-.043.07 0 .076 3.677.726 8.325.26 11.953-1.939.125-.076.163-.27 0-.195-2.513 1.3-8.481 2.22-11.953 2.058ZM137.03 48.812c-3.564 1.977-7.399 2.605-11.434 2.708-.054 0-.049.076 0 .087 1.983.498 4.55.173 6.5-.244a10.68 10.68 0 0 0 4.977-2.41c.081-.065.033-.179-.043-.141Z" fill="#000"/><path d="M174.764 24.965c-.211.541-2.285 4.175-4.874 4.175-1.625 0-1.235-5.595-1.235-5.595l-.027-.346-.379-4.875 6.066-2.762.872-.357V20.675a31.805 31.805 0 0 1-.423 4.29Z" fill="#FFD3C9"/><path d="M175.198 18.21a9.824 9.824 0 0 1-6.549 4.989l-.379-4.875 6.066-2.762.872-.357s-.016 1.332-.01 3.006Z" fill="#000"/><path d="M161.635 11.327c-.509 8.573 4.566 9.846 6.419 9.955 1.679.097 7.404.216 8.801-8.255 1.397-8.47-2.432-11.422-6.261-11.85-3.829-.428-8.444 1.576-8.959 10.15Z" fill="#FFD3C9"/><path d="M162.968 9.339c.195-.029.389-.069.579-.12a.942.942 0 0 0 .569-.238.301.301 0 0 0 0-.373.763.763 0 0 0-.747-.18c-.273.04-.522.18-.699.39a.322.322 0 0 0-.024.36.323.323 0 0 0 .322.16ZM168.579 9.382c-.2-.027-.385-.081-.58-.124a1.001 1.001 0 0 1-.568-.244.308.308 0 0 1 0-.374.76.76 0 0 1 .747-.173c.273.043.521.183.699.395a.333.333 0 0 1 .017.355.329.329 0 0 1-.315.165ZM167.344 11.543s.043.033.043.054c-.032.585 0 1.262.542 1.468v.033c-.644-.109-.709-1.002-.585-1.555Z" fill="#000"/><path d="M167.88 10.947c.943-.043.964 1.842.092 1.885-.872.044-.877-1.847-.092-1.885Z" fill="#000"/><path d="M168.254 11.045c.168.103.33.292.542.309.211.016.4-.179.541-.374h.033c0 .363-.125.737-.509.796-.385.06-.612-.265-.71-.628-.043-.043.038-.146.103-.103ZM164.094 11.484s-.048 0-.048.054c.032.585-.033 1.256-.542 1.462v.033c.634-.103.71-1.002.59-1.55Z" fill="#000"/><path d="M163.558 10.883c-.942-.055-.98 1.836-.108 1.884.872.05.899-1.841.108-1.884Z" fill="#000"/><path d="M163.163 11.002c-.152.097-.304.276-.482.281-.179.006-.352-.195-.482-.395h-.033c0 .357.098.736.444.812.347.076.542-.232.645-.59.016-.049-.022-.152-.092-.108ZM164.858 14.089s-.119.872-.119 1.283c0 .038.103.055.238.065a1.96 1.96 0 0 0 1.907-.73c.027-.039 0-.082-.065-.055a2.97 2.97 0 0 1-1.788.51c-.027-.115.255-1.49.19-1.496-.318.031-.631.102-.932.212.195-1.826.688-3.602.856-5.417a.057.057 0 0 0-.014-.032.06.06 0 0 0-.066-.017.057.057 0 0 0-.028.022 29.469 29.469 0 0 0-1.17 5.806c-.022.223.829-.08.991-.151Z" fill="#000"/><path d="M176.817 12.702c-1.408.206-1.934-2.708-1.934-2.708s-2.865.2-4.094-3.856a6.37 6.37 0 0 0 1.506 3.32s-5.097-.19-7.513-4.279c0 0 .997 2.096 1.842 2.811a5.96 5.96 0 0 1-3.31-2.101s-.72 2.502-1.359 3.25c0 0-1.17-4.301.542-6.64 3.596-4.924 10.014-1.052 10.014-1.052s3.51.374 4.875 2.93c2.096 3.911-.569 8.325-.569 8.325Z" fill="#000"/><path d="M175.414 12.572s1.804-2.708 3.039-2.096c1.235.612-.071 4.56-1.484 5.13a1.448 1.448 0 0 1-1.966-.726l.411-2.308Z" fill="#FFD3C9"/><path d="M178.052 11.592v.038c-.986.433-1.49 1.376-1.831 2.35a.798.798 0 0 1 .537-.401.805.805 0 0 1 .655.147c.027 0 0 .06-.027.054a.901.901 0 0 0-.975.341 4.526 4.526 0 0 0-.45.807c-.043.092-.206.05-.173-.06-.049-1.294.893-3.114 2.264-3.276ZM90.142 199.983H36.468v-5.346l4.641-5.416h49.033v10.762Z" fill="#000"/><path d="M111.216 199.983H90.142v-10.762H105.8l5.416 5.383v5.379Z" fill="#999"/><path d="M56.285 131.788H48v57.433h8.286v-57.433Z" fill="#000"/><path d="M74.89 131.788H56.28v57.433h18.61v-57.433Z" fill="#999"/><path d="M89.85 173.097H65.726v3.748H89.85v-3.748Z" fill="#000"/><path d="M99.322 173.097H89.85v3.748h9.472v-3.748ZM113.827 115.279h-3.678l4.452-9.549h3.678l-4.452 9.549Z" fill="#999"/><path d="M125.239 101.122h-10.697s.216 6.418-4.555 6.418a3.327 3.327 0 0 1-3.125-1.809s1.755 3.731 4.993 3.731h7.074c1.923.022 5.931-1.299 6.31-8.34Z" fill="#999"/><path d="M105.762 101.122h10.703s-.223 6.418 4.549 6.418a3.337 3.337 0 0 0 3.131-1.809s-1.755 3.731-4.994 3.731h-7.079c-1.917.022-5.925-1.299-6.31-8.34ZM99.989 130.174a1.153 1.153 0 1 1-2.306.01 1.153 1.153 0 0 1 2.306-.01Z" fill="#666"/><path d="m99.257 130.434-.845-.52 10.681-17.299h3.071v.991h-2.518l-10.389 16.828ZM63.922 91.974a2.903 2.903 0 1 1-5.806 0 2.903 2.903 0 0 1 5.806 0Z" fill="#999"/><path d="M61.02 93.474a1.5 1.5 0 1 0 0-3 1.5 1.5 0 0 0 0 3Z" fill="#666"/><path d="M101.819 124.227a2.903 2.903 0 1 1-5.805.001 2.903 2.903 0 0 1 5.805-.001Z" fill="#999"/><path d="M98.921 125.727a1.5 1.5 0 1 0 0-3.001 1.5 1.5 0 0 0 0 3.001Z" fill="#666"/><path d="m97.909 124.638-13.005-31.57H61.02v-2.189h25.353L99.93 123.81l-2.02.828Z" fill="#666"/><path d="M99.723 110.069H31.057v10.328h68.666v-10.328ZM79.055 110.069H31.057L7.784 52.614h47.998l23.273 57.455Z" fill="#999"/><path d="M79.055 110.069H42.691L19.417 52.614h36.365l23.273 57.455Z" fill="#666"/><path d="M62.048 120.392h37.67v-10.329h-37.67v10.329Z" fill="#666"/><path d="M55.782 30.505H10.898v22.11h44.884v-22.11Z" fill="#999"/><path d="M55.782 30.505H19.418v22.11h36.364v-22.11Z" fill="#999"/><path d="M60.326 41.96c0 5.996-5.8 10.075-5.8 10.075H20.944V31.887h33.58s5.8 4.078 5.8 10.074Z" fill="#666"/><path d="M20.983 52.03V31.886s5.8 4.078 5.8 10.074c0 5.995-5.8 10.068-5.8 10.068ZM25.69 58.913c2.594-.108 5.194-.162 7.788-.206 2.594-.043 5.194-.038 7.788-.06 2.595-.02 5.195 0 7.794.06l3.895.076c1.294.044 2.594.07 3.894.13-1.3.065-2.6.092-3.894.136l-3.895.075c-2.6.044-5.194.044-7.794.06-2.6.016-5.188 0-7.788-.06-2.6-.06-5.194-.097-7.789-.21ZM31.079 72.74c2.594-.113 5.188-.167 7.788-.21 2.6-.044 5.194-.038 7.789-.06 2.594-.022 5.194 0 7.788.06l3.894.075c1.3.049 2.6.07 3.9.136-1.3.06-2.6.086-3.9.13l-3.894.076c-2.594.043-5.189.043-7.788.064-2.6.022-5.195 0-7.789-.064-2.594-.066-5.216-.098-7.788-.206ZM36.419 86.563c2.6-.114 5.194-.163 7.794-.206 2.6-.043 5.188-.043 7.788-.065 2.6-.022 5.194 0 7.789.065l3.894.07c1.3.05 2.6.076 3.894.136-1.294.06-2.594.087-3.894.135l-3.894.07c-2.595.044-5.194.044-7.789.066-2.594.021-5.194 0-7.788-.065-2.595-.065-5.194-.092-7.794-.206ZM41.786 100.385c2.6-.108 5.194-.163 7.789-.206 2.594-.043 5.194-.043 7.794-.065 2.6-.022 5.188 0 7.788.065l3.894.076c1.3.043 2.595.07 3.895.13-1.3.065-2.595.087-3.895.135l-3.894.076c-2.6.043-5.194.038-7.788.06-2.595.021-5.194 0-7.794-.06-2.6-.059-5.189-.097-7.789-.211Z" fill="#999"/><path d="M102.068 120.392H31.057v8.438h71.011v-8.438Z" fill="#000"/><path d="M.873 52.614h10.036l30.184 76.217H31.057L.873 52.614ZM10.898 30.505.873 34.443v18.171h10.025V30.505Z" fill="#000"/><path d="M79.055 128.831h-40.34v2.957h40.34v-2.957Z" fill="#999"/><path d="M88.533 130.309H56.27v5.552h32.264v-5.552Z" fill="#666"/><path d="M68.071 30.895c4.582 4.463 2.849 10.437 4.663 13.855 1.11 2.09 5.005 4.468 5.66 6.835 1.084 3.889-2.237 5.053-1.625 7.166.834 2.995 4.772 3.017 5.173 7.859.4 4.842-5.216 9.597-17.825 10.187-12.609.59-19.195-4.435-19.384-8.53-.19-4.095 4.062-5.189 4.539-8.206.303-1.933-2.167-3.444-2.086-7.04.081-3.597 3.65-4.518 4.333-7.524.683-3.006-.444-10.475 4.252-13.957 4.696-3.483 10.036-2.85 12.3-.645Z" fill="#000"/><path d="M67.502 30.966a10.356 10.356 0 0 1 2.98 3.921 22.282 22.282 0 0 1 1.478 5.032c.146 1.03.41 2.04.785 3.011a7.525 7.525 0 0 0 1.55 2.166c1.278 1.311 2.832 2.34 3.959 3.792 1.083 1.376 1.857 3.18 1.283 4.923-.309.953-.997 1.7-1.451 2.578-.455.878-.65 1.88.038 2.638.59.644 1.478.98 2.166 1.522A8.006 8.006 0 0 1 82 62.439a6.14 6.14 0 0 1 .845 4.875c-.98 3.845-4.777 5.827-8.238 7.008l-1.457.482c-.07 0-.13-.087-.048-.114 3.477-1.3 7.523-2.827 9.06-6.531a5.714 5.714 0 0 0-.259-5.06 7.252 7.252 0 0 0-1.674-1.998c-.644-.541-1.413-.904-2.074-1.424a2.323 2.323 0 0 1-.937-2.129 5.671 5.671 0 0 1 1.083-2.426c.574-.74.91-1.638.964-2.573a5.075 5.075 0 0 0-.84-2.567c-.958-1.56-2.458-2.638-3.79-3.856a8.465 8.465 0 0 1-2.779-4.41c-.206-.91-.309-1.835-.471-2.756a25.35 25.35 0 0 0-.59-2.519 11.797 11.797 0 0 0-2.373-4.533 6.546 6.546 0 0 0-.98-.915c-.027.005.021-.06.06-.027ZM44.364 65.245c.195-.653.53-1.256.98-1.766.472-.542 1.03-.959 1.544-1.435a3.59 3.59 0 0 0 1.132-1.625 3.401 3.401 0 0 0-.406-2.291 16.6 16.6 0 0 1-.986-2.253 7.928 7.928 0 0 1-.325-2.367 8.037 8.037 0 0 1 1.555-4.577c.471-.671.996-1.305 1.473-1.971.522-.729.947-1.523 1.262-2.362.682-1.852.932-3.829 1.516-5.714a29.57 29.57 0 0 1 2.395-5.546c0-.043.086 0 .065.043a25.947 25.947 0 0 0-2.107 5.016c-.504 1.652-.764 3.352-1.17 5.026a12.574 12.574 0 0 1-.791 2.4 12.991 12.991 0 0 1-1.219 2.02c-.937 1.326-1.895 2.632-2.231 4.251a7.66 7.66 0 0 0 .509 4.74c.58 1.288 1.414 2.707.742 4.137-.542 1.203-1.787 1.869-2.632 2.844a4.95 4.95 0 0 0-1.084 3.9c.45 3.552 3.851 5.513 7.134 5.898a.082.082 0 0 1 .06.078.082.082 0 0 1-.06.079c-2.86-.217-5.888-1.668-7.041-4.43a6.088 6.088 0 0 1-.315-4.095Z" fill="#000"/><path d="M63.115 58.534c4.875 8.124 12.008 16.151 15.42 16.525 2.746.298 20.527-7.21 21.898-8.536 1.175-1.143-5.119-12.17-6.814-11.715-2.843.769-13.486 7.831-14.277 7.582-.79-.249-6.71-4.652-12.901-8.72-5.93-3.878-6.722-.753-3.326 4.864Z" fill="#FFD3C9"/><path d="M98.543 67.628c1.527-.596 8.882-3.943 10.556-5.297 1.673-1.354 6.201-5.595 5.297-6.982-.905-1.386-2.335-.249-2.335-.249s1.625-2.09.591-3.407c-1.035-1.316-3.196.542-3.196.542s1.517-2.275.385-3.51c-1.132-1.235-2.99.98-2.99.98s1.484-2.014.124-2.637c-1.624-.753-3.953 3.25-5.909 4.62-.444.309-9.462 5.595-9.462 5.595l6.939 10.345Z" fill="#FFD3C9"/><path d="M107.013 49.51c-1.711 2.953-2.968 3.944-5.958 5.504-.054.032 0 .124.038.097 3.055-1.262 4.815-2.28 6.056-5.53.07-.157-.055-.211-.136-.07ZM109.613 51.986c-2.042 2.908-3.401 4.002-6.396 5.866-.044 0 0 .103.043.075 3.093-1.581 4.826-2.637 6.499-5.817.033-.14-.081-.276-.146-.124ZM111.904 55.192c-2.166 2.676-3.612 3.938-6.754 5.373a.07.07 0 0 0-.02.013.072.072 0 0 0-.014.02.062.062 0 0 0 .054.085.057.057 0 0 0 .023-.004c3.348-1.148 5.146-2.708 6.787-5.416.114-.179.065-.239-.076-.07Z" fill="#000"/><path d="M88.398 57.418s2.459-4.332 3.678-5.844c1.218-1.51 7.799-5.362 8.714-3.986 1.186 1.771-2.166 4.755-4.008 6.007 0 0 2.74 4.1.796 6.764-1.944 2.665-9.18-2.94-9.18-2.94Z" fill="#FFD3C9"/><path d="M100.947 48.178c-.086 2.4-2.605 3.878-4.295 5.221a.195.195 0 0 0 0 .325c1.035 1.799 1.972 4.631 1.046 6.614a.05.05 0 0 0 .056.072.05.05 0 0 0 .03-.024c1.284-1.988.59-4.847-.672-6.743 1.755-1.349 4.214-2.946 3.851-5.465.017-.01-.016-.016-.016 0Z" fill="#000"/><path d="m87.883 57.294 8.19 12.636s-14.45 6.732-18.572 5.134c-4.122-1.597-12.425-12.554-15.599-18.28-3.174-5.724.542-6.304 6.126-2.496 5.584 3.808 11.184 7.95 11.341 7.94.157-.01 8.514-4.934 8.514-4.934Z" fill="#fff"/><path d="M92.363 70.748c-1.084-1.874-5.704-9.387-6.814-10.936-.081-.108-.168-.081-.103.044 3.044 5.703 5.703 9.153 6.835 10.935.033.043.109 0 .082-.043Z" fill="#000"/><path d="M60.618 55.36c1.132 3.006 4.875 8.428 4.875 8.428l11.325-3.992s-8.08-6.57-13.475-8.422c-2.172-.742-3.873.942-2.725 3.986Z" fill="#A9C297"/><path d="M65.022 62.228a84.855 84.855 0 0 1 4.972-1.988c.84-.303 1.679-.59 2.53-.867.85-.276 1.721-.47 2.56-.758.05 0 .071.06 0 .076-.85.244-1.678.607-2.523.894-.845.287-1.684.585-2.524.888-1.674.596-3.353 1.191-5.015 1.83-.027.017-.05-.053 0-.075Z" fill="#000"/><path opacity=".1" d="m71.43 61.686-5.959 2.102s-3.731-5.416-4.874-8.428a4.378 4.378 0 0 1-.276-2.578l11.108 8.904Z" fill="#000"/><path d="M143.524 184.319c-1.306.439-38.65.51-40.08-.39-.542-.335-.867-5.773-1.083-12.354a270.12 270.12 0 0 1-.114-4.382 183.979 183.979 0 0 0-1.744-19.958l24.979-.119 1.057 19.958-.103 4.382s14.309 6.369 15.766 7.523c1.457 1.154 2.616 4.902 1.322 5.34Z" fill="#FFD3C9"/><path d="M102.48 174.532c.206 5.184.509 9.116.969 9.397 1.425.899 38.775.829 40.08.39 1.305-.438.141-4.186-1.305-5.34-.645-.509-3.759-2.02-7.041-3.559 0 0 3.25 2.627 2.053 3.001-6.327 1.966-27.894-2.416-34.756-3.889Z" fill="#A9C297"/><path d="M53.956 80.204H67.54l3.84 7.919s34.16-.195 43.33 9.987c11.162 12.457 11.78 67.107 11.78 67.107h-24.292s-3.661-44.294-6.5-47.988c-2.837-3.694-35.513-2.621-44.38-10.469-8.237-7.296-4.235-28.549-4.874-26.54l7.512-.016Z" fill="#FFD3C9"/><path d="M110.967 196.137c-1.37.152-37.886-7.669-39.088-8.85-.46-.444.368-5.828 1.554-12.305.26-1.398.542-2.844.818-4.306 1.841-9.505 4.019-19.547 4.019-19.547l24.443 5.162-4.696 19.406-1.024 4.262s12.642 9.246 13.822 10.681c1.181 1.435 1.506 5.346.152 5.497Z" fill="#FFD3C9"/><path d="M78.27 151.129s-2.167 10.042-4.02 19.547c-.286 1.468-.54 2.908-.811 4.306-.19 1.002-.358 1.971-.542 2.914-.894 5.113-1.43 9.018-1.04 9.391 1.202 1.181 37.718 9.002 39.088 8.85 1.371-.151 1.024-4.062-.151-5.492-.542-.633-3.25-2.773-6.137-4.966a636 636 0 0 0-7.674-5.714l1.029-4.263 4.69-19.406-24.432-5.167Z" fill="#FFD3C9"/><path d="M72.918 177.896c-.893 5.112-1.43 9.017-1.04 9.391 1.203 1.181 37.719 9.002 39.089 8.85 1.37-.151 1.024-4.062-.152-5.492-.541-.634-3.249-2.773-6.136-4.966 0 0 2.627 3.249 1.37 3.368-6.586.585-26.734-8.259-33.13-11.151Z" fill="#A9C297"/><path d="m99.366 170.134-24.091-4.636s9.792-45.642 8.01-47.933c-2.93-3.791-27.899-3.217-38.91-10.832-8.942-6.207-1.587-26.54-1.587-26.54h23.794s2.345 4.783 2.924 7.014c0 0 28.192 5.687 37.556 14.868 9.657 9.473-7.696 68.059-7.696 68.059Z" fill="#FFD3C9"/><path d="M109.072 104.767a12.036 12.036 0 0 0-3.748-4.702 24.45 24.45 0 0 0-5.352-2.951c-.46-.2-.931-.396-1.397-.59-.114-.05-.206.113-.092.167 3.537 1.798 7.36 3.732 9.327 7.344 1.966 3.613 1.803 8.071 1.559 12.089-.292 4.875-.866 9.717-1.624 14.537a261.038 261.038 0 0 1-2.649 14.337l-3.087 14.342c-.13.596-.233 1.197-.363 1.793 0 .054.07.076.081 0 1.289-4.81 2.605-9.603 3.721-14.451a260.466 260.466 0 0 0 2.941-14.542 148.08 148.08 0 0 0 1.787-14.759c.315-4.154.629-8.677-1.104-12.614Z" fill="#000"/><path d="M79.705 116.038c1.083.108.65-22.694 20.284-18.415 0 0 1.191-2.422 2.848-3.082 3.656-1.457 6.148-.174 6.148-.39 0-.217-3.423-4.447-22.748-6.548-6.619-.72-11.683-1.04-13.308-1.94-1.132-.628-4.999-5.459-4.999-5.459H42.772s-4.257 10.356-2.843 19.45c1.413 9.093 14.786 13.87 39.776 16.384Z" fill="#A9C297"/><path d="M95.531 94.08a74.49 74.49 0 0 0-16.384-1.083c-1.576.081-3.141.233-4.707.38-.054 0-.054.086 0 .086 2.709-.146 5.454-.136 8.173-.103 2.72.032 5.45.152 8.163.368a155.57 155.57 0 0 1 4.753.423c.005 0 .009-.002.013-.005a.038.038 0 0 0 .01-.01.037.037 0 0 0 .001-.04.035.035 0 0 0-.022-.016ZM93.906 92.076c-1.495 0-2.984 0-4.474.082-1.489.08-2.973.27-4.457.45a.045.045 0 0 0-.02-.003.044.044 0 0 0-.02.007.043.043 0 0 0 .02.079c.006 0 .013 0 .02-.003 1.479-.146 2.973-.216 4.457-.303s2.98-.179 4.469-.238c.065-.006.065-.07.005-.07Z" fill="#000"/><path d="m67.946 80.204-25.298.12s4.625-19.661 11.178-26.865c2.98-3.288 5.958-2.838 8.493-.79.634.508 8.027 9.689 8.666 14.266.439 3.06-2.486 5.795-2.486 5.795l-.553 7.474Z" fill="#A9C297"/><path d="M66.479 72.589c-1.275.28-2.494.77-3.608 1.451-.541.325-1.126.661-1.673 1.013-.547.352-1.148.77-1.755 1.084-.049 0 0 .097.049.075.58-.292 1.17-.541 1.744-.877.574-.336 1.126-.66 1.695-.98a18.855 18.855 0 0 1 3.57-1.685c.037-.032.016-.086-.022-.081ZM67.513 73.678c-1.625.049-3.065.71-4.517 1.327-.049 0-.027.103 0 .08a16.515 16.515 0 0 1 4.49-1.315c.087-.011.087-.092.027-.092Z" fill="#000"/><path d="M58.127 52.847c.114.574 2.708 4.333 5.324 4.333.845 0 .97-4.652.97-4.652l.086-.342 1.219-4.755-5.52-3.791-.795-.504s-.25 1.322-.542 2.973c0 .082-.027.157-.043.239-.017.081-.038.178-.05.265-.048.25-.091.498-.135.753-.043.255-.064.374-.092.58-.027.205-.06.395-.086.6a31.049 31.049 0 0 0-.336 4.301Z" fill="#FFD3C9"/><path d="M58.869 46.093a9.853 9.853 0 0 0 5.638 6.072l1.219-4.756-5.52-3.791-.795-.504s-.25 1.327-.542 2.98Z" fill="#000"/><path d="M72.301 38.955c1.917 8.405-2.903 10.502-4.717 10.913-1.625.374-7.301 1.435-10.075-6.732-2.773-8.168.542-11.715 4.252-12.766 3.71-1.05 8.623.173 10.54 8.585Z" fill="#FFD3C9"/><path d="M71.158 37.687c-.198.011-.397.011-.596 0a.97.97 0 0 1-.606-.119.298.298 0 0 1-.076-.368.753.753 0 0 1 .699-.325c.276-.015.549.073.763.249a.325.325 0 0 1-.184.563ZM65.607 39.009c.195-.065.363-.157.541-.239a.958.958 0 0 0 .51-.346.309.309 0 0 0-.076-.368.752.752 0 0 0-.77 0c-.264.095-.482.289-.606.541a.325.325 0 0 0 .4.412ZM67.226 40.612s-.038.038-.032.065c.151.541.227 1.24-.25 1.549v.032c.623-.233.515-1.132.282-1.646Z" fill="#000"/><path d="M66.576 40.135c-.937.141-.585 2.004.282 1.869.866-.135.509-1.988-.282-1.869Z" fill="#000"/><path d="M66.23 40.298c-.141.14-.266.352-.46.411-.196.06-.429-.097-.613-.26 0 0-.032 0 0 .028.06.362.266.698.66.682.396-.016.543-.38.543-.758.005-.07-.076-.157-.13-.103ZM70.286 39.919s.049 0 .054.043c.082.58.282 1.235.84 1.332v.033c-.656.032-.905-.834-.894-1.408Z" fill="#000"/><path d="M70.692 39.236c.916-.238 1.327 1.625.477 1.831-.85.206-1.246-1.636-.477-1.83Z" fill="#000"/><path d="M71.104 39.269c.168.065.352.211.542.184.19-.027.308-.26.395-.482h.032c.093.352.055.747-.27.894-.325.146-.59-.125-.753-.46-.043-.028-.011-.163.054-.136ZM67.952 45.378c.162.114.325.282.541.271a1.55 1.55 0 0 0 .602-.233h.032a.78.78 0 0 1-.677.46.628.628 0 0 1-.541-.45c0-.048 0-.064.043-.048ZM69.945 42.811s.293.84.374 1.246c0 .038-.087.075-.228.108a1.96 1.96 0 0 1-2.014-.347c-.038-.032 0-.086.048-.065.59.247 1.242.3 1.863.152 0-.12-.541-1.419-.482-1.435.319-.043.64-.043.959 0-.542-1.755-1.386-3.412-1.917-5.173a.059.059 0 0 1 .006-.036.059.059 0 0 1 .064-.03.06.06 0 0 1 .033.018 29.96 29.96 0 0 1 2.302 5.486c.064.25-.835.114-1.008.076Z" fill="#000"/><path d="M69.76 44.09a2.165 2.165 0 0 1-.703.806.969.969 0 0 1-.542.146c-.433-.027-.541-.4-.504-.736a2.44 2.44 0 0 1 .087-.542 2.708 2.708 0 0 0 1.663.325Z" fill="#000"/><path d="M69.057 44.896a.969.969 0 0 1-.542.146c-.433-.027-.541-.4-.504-.736a.97.97 0 0 1 1.046.59Z" fill="#FF6868"/><path d="M57.975 43.65a3.493 3.493 0 0 0 1.528-3.098 9.174 9.174 0 0 0 3.25-3.498c-.033.184-.26 1.49-.396 2.166 5.183-1.766 6.245-6.082 6.245-6.082a9.253 9.253 0 0 1 2.81 3.044s-.432-3.277-2.431-5.222c-2.443-2.383-9.495-2.101-12.203 1.858-2.908 4.257 1.197 10.833 1.197 10.833Z" fill="#000"/><path d="M66.284 37.752a9.9 9.9 0 0 1-2.59 1.398 8.482 8.482 0 0 0 3.57-2.93 7.85 7.85 0 0 0 .915-1.772c.278-.677.42-1.402.417-2.134a.044.044 0 0 1 .02-.053.044.044 0 0 1 .041 0 .043.043 0 0 1 .016.014.044.044 0 0 1 .005.04c.08.723.04 1.455-.12 2.166a6.013 6.013 0 0 1-.926 1.933 6.827 6.827 0 0 1-1.348 1.338Z" fill="#000"/><path d="M58.197 46.24c.135.033.273.049.412.048.137.006.274-.009.406-.043.17-.043.328-.12.466-.228.11-.083.209-.182.292-.292.119-.163.205-.347.255-.542l-.785-2.22s-2.237-2.405-3.353-1.577c-1.116.83.813 4.523 2.307 4.853Z" fill="#FFD3C9"/><path d="M56.47 42.443v.037c1.05.266 1.7 1.116 2.199 2.026a.802.802 0 0 0-1.224-.054s0 .06.037.049a.895.895 0 0 1 1.019.178c.219.22.413.464.58.726.059.081.21 0 .162-.087-.157-1.294-1.392-2.935-2.773-2.875Z" fill="#000"/><path d="M58.268 45.876a.4.4 0 0 0 .509.244.401.401 0 1 0-.266-.753.4.4 0 0 0-.243.51ZM57.374 45.378a.277.277 0 0 0 .358.173.286.286 0 1 0-.185-.541.275.275 0 0 0-.173.368Z" fill="#fff"/><path d="M52.093 55.94c-4.663 8.444-10.377 20.43-9.001 24.551 1.007 3.017 15.11 12.36 19.606 15.166 1.625 1.007 10.183-9.479 8.574-10.719-2.09-1.625-16.882-9.857-16.86-11.103 0-.704 2.074-11.374 2.745-16.086 1.257-8.812-3.428-4.766-5.064-1.81Z" fill="#FFD3C9"/><path d="M67.61 82.988s5.417.303 8.959.672c1.971.206 5.319.855 6.7 1.668 2.063 1.218 9.922 7.62 8.411 9.56-1.37 1.754-7.42-4.604-7.42-4.604s6.673 5.876 4.636 7.685c-2.036 1.81-7.918-6.283-7.918-6.283s6.721 6.191 4.333 7.73c-1.815 1.164-7.556-5.877-7.556-5.877s5.741 5.362 3.932 6.635c-2.004 1.402-7.707-4.756-7.707-4.756-5.145 2.464-10.096 1.24-11.282.238-.476-.395 4.913-12.668 4.913-12.668Z" fill="#FFD3C9"/><path d="M82.083 88.123c.807.666 1.624 1.327 2.377 2.058a39.485 39.485 0 0 1 2.167 2.29 17.906 17.906 0 0 1 2.334 3.353c-1.305-2.052-3.937-4.712-4.685-5.443-.747-.731-1.457-1.5-2.204-2.226-.038-.032-.011-.065.01-.032ZM79.39 90.755c.997.888 2.016 1.739 2.974 2.67.959.932 1.777 1.896 2.665 2.887.065.076 0 .092-.07 0-.927-.959-1.853-1.771-2.79-2.708-.937-.937-1.836-1.934-2.8-2.838l.022-.011ZM76.672 92.613a29.833 29.833 0 0 1 4.235 4.436c.065.075 0 .08-.086 0-1.381-1.5-2.454-2.709-4.192-4.388-.028-.016.01-.075.043-.048Z" fill="#000"/><path d="m68.288 82.707-9.16 11.374s-15.901-9.484-16.833-14.576c-1.12-6.082 6.343-18.653 10.042-24.183 3.7-5.53 6.396-3.482 5.183 3.347-1.213 6.83-2.93 14.987-2.459 15.393.471.407 13.227 8.645 13.227 8.645Z" fill="#fff"/><path d="M57.033 91.486c1.462-1.587 7.209-8.287 8.352-9.82.075-.102 0-.178-.07-.08a112.977 112.977 0 0 0-8.347 9.84c-.033.038.027.098.065.06Z" fill="#000"/><path d="m45.236 66.713 12.16-1.522s.715-6.12.633-9.56c-.103-4.555-1.82-5.579-5.416-1.294-2.372 2.87-7.377 12.376-7.377 12.376Z" fill="#A9C297"/><path d="M56.193 65.375c.39-.086.784-.151 1.181-.195.07-.72.125-1.446.2-2.167.038-.357.082-.72.13-1.083.05-.363.093-.85.141-1.197 0-.054.076-.054.076 0 0 .46-.043.802-.06 1.202 0 .282-.032.542-.054.845 0-.07.05-.14.07-.21.12-.38.272-.743.374-1.127a.039.039 0 0 1 .004-.036.039.039 0 0 1 .032-.016.038.038 0 0 1 .037.033c.001.007 0 .013-.002.019-.114.379-.184.769-.293 1.153-.068.294-.16.582-.276.861-.043.607-.027 1.295-.108 1.89-.48.047-.964.06-1.446.038l-.006-.01Z" fill="#000"/><path d="M46.325 65.402c1.755-.342 3.51-.661 5.28-.9.884-.119 4.442-.416 5.325-.541.049 0 .054.065 0 .076-1.083.233-4.582.677-5.465.796-1.766.233-3.38.352-5.14.623-.043.032-.043-.044 0-.054Z" fill="#000"/><path d="M21.654 94.871a2.898 2.898 0 1 0 0-5.795 2.898 2.898 0 0 0 0 5.795Z" fill="#999"/><path d="M21.654 93.474a1.5 1.5 0 1 0 0-3 1.5 1.5 0 0 0 0 3Z" fill="#666"/><path d="M62.455 124.227a2.905 2.905 0 0 1-3.47 2.847 2.902 2.902 0 1 1 3.47-2.847Z" fill="#999"/><path d="M59.551 125.727a1.5 1.5 0 1 0 0-3 1.5 1.5 0 0 0 0 3Z" fill="#666"/><path d="M58.544 124.638 45.54 93.068H21.654v-2.189h25.354l13.556 32.931-2.02.828Z" fill="#666"/><path d="M70.059 115.279H66.38l4.452-9.549h3.678l-4.452 9.549Z" fill="#999"/><path d="M81.449 101.122H70.774s.216 6.418-4.555 6.418a3.337 3.337 0 0 1-3.13-1.809s1.76 3.731 4.993 3.731h7.079c1.922.022 5.925-1.299 6.288-8.34Z" fill="#999"/><path d="M61.994 101.122h10.697s-.217 6.418 4.555 6.418a3.337 3.337 0 0 0 3.13-1.809s-1.76 3.731-4.993 3.731h-7.08c-1.922.022-5.924-1.299-6.309-8.34ZM55.067 131.327a1.153 1.153 0 1 0 0-2.306 1.153 1.153 0 0 0 0 2.306Z" fill="#666"/><path d="m55.484 130.434-.84-.52 10.681-17.299h3.071v.991h-2.518l-10.394 16.828Z" fill="#999"/><path d="M98.24 31.523a9.75 9.75 0 0 1-16.25 6.153l-4.874.715 2.432-4.208a9.75 9.75 0 1 1 18.691-2.66Z" fill="#fff"/><path d="M98.24 31.523a9.75 9.75 0 0 1-1.962 4.93c-.272.357-.567.697-.882 1.017-.324.31-.666.599-1.024.867a9.513 9.513 0 0 1-2.35 1.305 9.614 9.614 0 0 1-2.617.629c-.45.032-.903.032-1.354 0a8.02 8.02 0 0 1-1.343-.136 9.864 9.864 0 0 1-4.815-2.377l.12.032-4.875.747-.352.055.178-.31 2.421-4.213v.162a9.824 9.824 0 0 1 .596-8.665 10.037 10.037 0 0 1 3.05-3.25 9.88 9.88 0 0 1 8.546-1.154 9.987 9.987 0 0 1 3.754 2.302 9.775 9.775 0 0 1 2.908 8.06Zm0 0A9.609 9.609 0 0 0 87.211 21a9.5 9.5 0 0 0-4.019 1.587 9.945 9.945 0 0 0-2.909 3.174 9.554 9.554 0 0 0-1.234 4.116 9.75 9.75 0 0 0 .682 4.235l.038.087-.049.081-2.448 4.198-.173-.26 4.874-.683h.07l.044.044a9.603 9.603 0 0 0 4.658 2.4c.436.086.878.139 1.322.156a9.712 9.712 0 0 0 3.927-.542 9.21 9.21 0 0 0 2.35-1.267c.357-.266.699-.551 1.023-.856.316-.316.611-.653.883-1.007a9.674 9.674 0 0 0 1.988-4.94Z" fill="#263238"/><path d="M85.24 30.521a.92.92 0 1 1-1.841 0 .92.92 0 0 1 1.841 0ZM89.497 30.521a.92.92 0 1 1-1.841 0 .92.92 0 0 1 1.841 0ZM93.765 30.521a.92.92 0 1 1-1.84.054.92.92 0 0 1 1.84-.054Z" fill="#263238"/></svg>